<?xml version="1.0" encoding="utf-8" standalone="no"?>
<!DOCTYPE svg PUBLIC "-//W3C//DTD SVG 1.1//EN"
  "http://www.w3.org/Graphics/SVG/1.1/DTD/svg11.dtd">
<svg xmlns:xlink="http://www.w3.org/1999/xlink" width="312.680169pt" height="325.64156pt" viewBox="0 0 312.680169 325.64156" xmlns="http://www.w3.org/2000/svg" version="1.1">
 <metadata>
  <rdf:RDF xmlns:dc="http://purl.org/dc/elements/1.1/" xmlns:cc="http://creativecommons.org/ns#" xmlns:rdf="http://www.w3.org/1999/02/22-rdf-syntax-ns#">
   <cc:Work>
    <dc:type rdf:resource="http://purl.org/dc/dcmitype/StillImage"/>
    <dc:date>2026-05-12T19:05:53.035232</dc:date>
    <dc:format>image/svg+xml</dc:format>
    <dc:creator>
     <cc:Agent>
      <dc:title>Matplotlib v3.9.4, https://matplotlib.org/</dc:title>
     </cc:Agent>
    </dc:creator>
   </cc:Work>
  </rdf:RDF>
 </metadata>
 <defs>
  <style type="text/css">*{stroke-linejoin: round; stroke-linecap: butt}</style>
 </defs>
 <g id="figure_1">
  <g id="patch_1">
   <path d="M 0 325.64156 
L 312.680169 325.64156 
L 312.680169 0 
L 0 0 
z
" style="fill: #ffffff"/>
  </g>
  <g id="axes_1">
   <g id="patch_2">
    <path d="M 288.064014 156.481 
C 288.064014 139.008246 284.622262 121.705393 277.935729 105.562673 
C 271.249196 89.419954 261.447917 74.751303 249.092814 62.3962 
C 236.737711 50.041097 222.06906 40.239818 205.926341 33.553285 
C 189.783621 26.866752 172.480768 23.425 155.008014 23.425 
C 137.53526 23.425 120.232407 26.866752 104.089687 33.553285 
C 87.946968 40.239818 73.278317 50.041097 60.923214 62.3962 
C 48.568111 74.751303 38.766832 89.419954 32.080299 105.562673 
C 25.393766 121.705393 21.952014 139.008246 21.952014 156.481 
C 21.952014 173.953754 25.393766 191.256607 32.080299 207.399327 
C 38.766832 223.542046 48.568111 238.210697 60.923214 250.5658 
C 73.278317 262.920903 87.946968 272.722182 104.089687 279.408715 
C 120.232407 286.095248 137.53526 289.537 155.008014 289.537 
C 172.480768 289.537 189.783621 286.095248 205.926341 279.408715 
C 222.06906 272.722182 236.737711 262.920903 249.092814 250.5658 
C 261.447917 238.210697 271.249196 223.542046 277.935729 207.399327 
C 284.622262 191.256607 288.064014 173.953754 288.064014 156.481 
M 155.008014 156.481 
C 155.008014 156.481 155.008014 156.481 155.008014 156.481 
C 155.008014 156.481 155.008014 156.481 155.008014 156.481 
C 155.008014 156.481 155.008014 156.481 155.008014 156.481 
C 155.008014 156.481 155.008014 156.481 155.008014 156.481 
C 155.008014 156.481 155.008014 156.481 155.008014 156.481 
C 155.008014 156.481 155.008014 156.481 155.008014 156.481 
C 155.008014 156.481 155.008014 156.481 155.008014 156.481 
C 155.008014 156.481 155.008014 156.481 155.008014 156.481 
C 155.008014 156.481 155.008014 156.481 155.008014 156.481 
C 155.008014 156.481 155.008014 156.481 155.008014 156.481 
C 155.008014 156.481 155.008014 156.481 155.008014 156.481 
C 155.008014 156.481 155.008014 156.481 155.008014 156.481 
C 155.008014 156.481 155.008014 156.481 155.008014 156.481 
C 155.008014 156.481 155.008014 156.481 155.008014 156.481 
C 155.008014 156.481 155.008014 156.481 155.008014 156.481 
C 155.008014 156.481 155.008014 156.481 155.008014 156.481 
z
" style="fill: #ffffff"/>
   </g>
   <g id="matplotlib.axis_1">
    <g id="xtick_1">
     <g id="line2d_1">
      <path d="M 155.008014 156.481 
L 155.008014 23.425 
" clip-path="url(#pef0a4501bb)" style="fill: none; stroke: #e5e7eb; stroke-width: 0.5; stroke-linecap: square"/>
     </g>
     <g id="text_1">
      <text style="fill: #374151; font: 9px 'Hiragino Sans GB', 'Helvetica', 'Arial', 'DejaVu Sans', sans-serif; text-anchor: middle" x="155.008014" y="12.653437" transform="rotate(-0 155.008014 12.653437)">归一化加权得分</text>
     </g>
    </g>
    <g id="xtick_2">
     <g id="line2d_2">
      <path d="M 155.008014 156.481 
L 270.23789 89.953 
" clip-path="url(#pef0a4501bb)" style="fill: none; stroke: #e5e7eb; stroke-width: 0.5; stroke-linecap: square"/>
     </g>
     <g id="text_2">
      <text style="fill: #374151; font: 9px 'Hiragino Sans GB', 'Helvetica', 'Arial', 'DejaVu Sans', sans-serif; text-anchor: middle" x="281.756028" y="85.831437" transform="rotate(-0 281.756028 85.831437)">工具选择 F1</text>
     </g>
    </g>
    <g id="xtick_3">
     <g id="line2d_3">
      <path d="M 155.008014 156.481 
L 270.23789 223.009 
" clip-path="url(#pef0a4501bb)" style="fill: none; stroke: #e5e7eb; stroke-width: 0.5; stroke-linecap: square"/>
     </g>
     <g id="text_3">
      <text style="fill: #374151; font: 9px 'Hiragino Sans GB', 'Helvetica', 'Arial', 'DejaVu Sans', sans-serif; text-anchor: middle" x="281.756028" y="232.187437" transform="rotate(-0 281.756028 232.187437)">根因命中率</text>
     </g>
    </g>
    <g id="xtick_4">
     <g id="line2d_4">
      <path d="M 155.008014 156.481 
L 155.008014 289.537 
" clip-path="url(#pef0a4501bb)" style="fill: none; stroke: #e5e7eb; stroke-width: 0.5; stroke-linecap: square"/>
     </g>
     <g id="text_4">
      <text style="fill: #374151; font: 9px 'Hiragino Sans GB', 'Helvetica', 'Arial', 'DejaVu Sans', sans-serif; text-anchor: middle" x="155.008014" y="305.365437" transform="rotate(-0 155.008014 305.365437)">建议相关率</text>
     </g>
    </g>
    <g id="xtick_5">
     <g id="line2d_5">
      <path d="M 155.008014 156.481 
L 39.778138 223.009 
" clip-path="url(#pef0a4501bb)" style="fill: none; stroke: #e5e7eb; stroke-width: 0.5; stroke-linecap: square"/>
     </g>
     <g id="text_5">
      <text style="fill: #374151; font: 9px 'Hiragino Sans GB', 'Helvetica', 'Arial', 'DejaVu Sans', sans-serif; text-anchor: middle" x="28.26" y="232.187438" transform="rotate(-0 28.26 232.187438)">权限合规率</text>
     </g>
    </g>
    <g id="xtick_6">
     <g id="line2d_6">
      <path d="M 155.008014 156.481 
L 39.778138 89.953 
" clip-path="url(#pef0a4501bb)" style="fill: none; stroke: #e5e7eb; stroke-width: 0.5; stroke-linecap: square"/>
     </g>
     <g id="text_6">
      <text style="fill: #374151; font: 9px 'Hiragino Sans GB', 'Helvetica', 'Arial', 'DejaVu Sans', sans-serif; text-anchor: middle" x="28.26" y="85.831438" transform="rotate(-0 28.26 85.831438)">完成信号率</text>
     </g>
    </g>
   </g>
   <g id="matplotlib.axis_2">
    <g id="ytick_1">
     <g id="line2d_7">
      <path d="M 155.008014 134.305 
C 157.92014 134.305 160.803949 134.878625 163.494402 135.993047 
C 166.184855 137.10747 168.62963 138.741016 170.688814 140.8002 
C 172.747998 142.859384 174.381544 145.304159 175.495967 147.994612 
C 176.610389 150.685065 177.184014 153.568874 177.184014 156.481 
C 177.184014 159.393126 176.610389 162.276935 175.495967 164.967388 
C 174.381544 167.657841 172.747998 170.102616 170.688814 172.1618 
C 168.62963 174.220984 166.184855 175.85453 163.494402 176.968953 
C 160.803949 178.083375 157.92014 178.657 155.008014 178.657 
C 152.095888 178.657 149.212079 178.083375 146.521626 176.968953 
C 143.831173 175.85453 141.386398 174.220984 139.327214 172.1618 
C 137.26803 170.102616 135.634484 167.657841 134.520061 164.967388 
C 133.405639 162.276935 132.832014 159.393126 132.832014 156.481 
C 132.832014 153.568874 133.405639 150.685065 134.520061 147.994612 
C 135.634484 145.304159 137.26803 142.859384 139.327214 140.8002 
C 141.386398 138.741016 143.831173 137.10747 146.521626 135.993047 
C 149.212079 134.878625 152.095888 134.305 155.008014 134.305 
" clip-path="url(#pef0a4501bb)" style="fill: none; stroke: #e5e7eb; stroke-width: 0.5; stroke-linecap: square"/>
     </g>
    </g>
    <g id="ytick_2">
     <g id="line2d_8">
      <path d="M 155.008014 112.129 
C 160.832265 112.129 166.599883 113.276251 171.98079 115.505095 
C 177.361696 117.733939 182.251246 121.001032 186.369614 125.1194 
C 190.487982 129.237768 193.755075 134.127318 195.983919 139.508224 
C 198.212763 144.889131 199.360014 150.656749 199.360014 156.481 
C 199.360014 162.305251 198.212763 168.072869 195.983919 173.453776 
C 193.755075 178.834682 190.487982 183.724232 186.369614 187.8426 
C 182.251246 191.960968 177.361696 195.228061 171.98079 197.456905 
C 166.599883 199.685749 160.832265 200.833 155.008014 200.833 
C 149.183763 200.833 143.416145 199.685749 138.035238 197.456905 
C 132.654332 195.228061 127.764782 191.960968 123.646414 187.8426 
C 119.528046 183.724232 116.260953 178.834682 114.032109 173.453776 
C 111.803265 168.072869 110.656014 162.305251 110.656014 156.481 
C 110.656014 150.656749 111.803265 144.889131 114.032109 139.508224 
C 116.260953 134.127318 119.528046 129.237768 123.646414 125.1194 
C 127.764782 121.001032 132.654332 117.733939 138.035238 115.505095 
C 143.416145 113.276251 149.183763 112.129 155.008014 112.129 
" clip-path="url(#pef0a4501bb)" style="fill: none; stroke: #e5e7eb; stroke-width: 0.5; stroke-linecap: square"/>
     </g>
     <g id="text_7">
      <text style="fill: #6b7280; font: 7.5px 'Hiragino Sans GB', 'Helvetica', 'Arial', 'DejaVu Sans', sans-serif; text-anchor: start" x="155.008014" y="110.598531" transform="rotate(-0 155.008014 110.598531)">60%</text>
     </g>
    </g>
    <g id="ytick_3">
     <g id="line2d_9">
      <path d="M 155.008014 89.953 
C 163.744391 89.953 172.395818 91.673876 180.467177 95.017142 
C 188.538537 98.360409 195.872863 103.261049 202.050414 109.4386 
C 208.227965 115.616151 213.128605 122.950477 216.471872 131.021837 
C 219.815138 139.093196 221.536014 147.744623 221.536014 156.481 
C 221.536014 165.217377 219.815138 173.868804 216.471872 181.940163 
C 213.128605 190.011523 208.227965 197.345849 202.050414 203.5234 
C 195.872863 209.700951 188.538537 214.601591 180.467177 217.944858 
C 172.395818 221.288124 163.744391 223.009 155.008014 223.009 
C 146.271637 223.009 137.62021 221.288124 129.548851 217.944858 
C 121.477491 214.601591 114.143165 209.700951 107.965614 203.5234 
C 101.788063 197.345849 96.887423 190.011523 93.544156 181.940163 
C 90.20089 173.868804 88.480014 165.217377 88.480014 156.481 
C 88.480014 147.744623 90.20089 139.093196 93.544156 131.021837 
C 96.887423 122.950477 101.788063 115.616151 107.965614 109.4386 
C 114.143165 103.261049 121.477491 98.360409 129.548851 95.017142 
C 137.62021 91.673876 146.271637 89.953 155.008014 89.953 
" clip-path="url(#pef0a4501bb)" style="fill: none; stroke: #e5e7eb; stroke-width: 0.5; stroke-linecap: square"/>
     </g>
    </g>
    <g id="ytick_4">
     <g id="line2d_10">
      <path d="M 155.008014 67.777 
C 166.656517 67.777 178.191752 70.071501 188.953565 74.52919 
C 199.715378 78.986879 209.494479 85.521065 217.731214 93.7578 
C 225.967949 101.994535 232.502135 111.773636 236.959824 122.535449 
C 241.417513 133.297262 243.712014 144.832497 243.712014 156.481 
C 243.712014 168.129503 241.417513 179.664738 236.959824 190.426551 
C 232.502135 201.188364 225.967949 210.967465 217.731214 219.2042 
C 209.494479 227.440935 199.715378 233.975121 188.953565 238.43281 
C 178.191752 242.890499 166.656517 245.185 155.008014 245.185 
C 143.359511 245.185 131.824276 242.890499 121.062463 238.43281 
C 110.30065 233.975121 100.521549 227.440935 92.284814 219.2042 
C 84.048079 210.967465 77.513893 201.188364 73.056204 190.426551 
C 68.598515 179.664738 66.304014 168.129503 66.304014 156.481 
C 66.304014 144.832497 68.598515 133.297262 73.056204 122.535449 
C 77.513893 111.773636 84.048079 101.994535 92.284814 93.7578 
C 100.521549 85.521065 110.30065 78.986879 121.062463 74.52919 
C 131.824276 70.071501 143.359511 67.777 155.008014 67.777 
" clip-path="url(#pef0a4501bb)" style="fill: none; stroke: #e5e7eb; stroke-width: 0.5; stroke-linecap: square"/>
     </g>
     <g id="text_8">
      <text style="fill: #6b7280; font: 7.5px 'Hiragino Sans GB', 'Helvetica', 'Arial', 'DejaVu Sans', sans-serif; text-anchor: start" x="155.008014" y="66.246531" transform="rotate(-0 155.008014 66.246531)">80%</text>
     </g>
    </g>
    <g id="ytick_5">
     <g id="line2d_11">
      <path d="M 155.008014 45.601 
C 169.568642 45.601 183.987687 48.469126 197.439953 54.041237 
C 210.892219 59.613349 223.116095 67.781081 233.412014 78.077 
C 243.707933 88.372919 251.875665 100.596795 257.447777 114.049061 
C 263.019888 127.501327 265.888014 141.920372 265.888014 156.481 
C 265.888014 171.041628 263.019888 185.460673 257.447777 198.912939 
C 251.875665 212.365205 243.707933 224.589081 233.412014 234.885 
C 223.116095 245.180919 210.892219 253.348651 197.439953 258.920763 
C 183.987687 264.492874 169.568642 267.361 155.008014 267.361 
C 140.447386 267.361 126.028341 264.492874 112.576075 258.920763 
C 99.123809 253.348651 86.899933 245.180919 76.604014 234.885 
C 66.308095 224.589081 58.140363 212.365205 52.568251 198.912939 
C 46.99614 185.460673 44.128014 171.041628 44.128014 156.481 
C 44.128014 141.920372 46.99614 127.501327 52.568251 114.049061 
C 58.140363 100.596795 66.308095 88.372919 76.604014 78.077 
C 86.899933 67.781081 99.123809 59.613349 112.576075 54.041237 
C 126.028341 48.469126 140.447386 45.601 155.008014 45.601 
" clip-path="url(#pef0a4501bb)" style="fill: none; stroke: #e5e7eb; stroke-width: 0.5; stroke-linecap: square"/>
     </g>
    </g>
    <g id="ytick_6">
     <g id="line2d_12">
      <path d="M 155.008014 23.425 
C 172.480768 23.425 189.783621 26.866752 205.926341 33.553285 
C 222.06906 40.239818 236.737711 50.041097 249.092814 62.3962 
C 261.447917 74.751303 271.249196 89.419954 277.935729 105.562673 
C 284.622262 121.705393 288.064014 139.008246 288.064014 156.481 
C 288.064014 173.953754 284.622262 191.256607 277.935729 207.399327 
C 271.249196 223.542046 261.447917 238.210697 249.092814 250.5658 
C 236.737711 262.920903 222.06906 272.722182 205.926341 279.408715 
C 189.783621 286.095248 172.480768 289.537 155.008014 289.537 
C 137.53526 289.537 120.232407 286.095248 104.089687 279.408715 
C 87.946968 272.722182 73.278317 262.920903 60.923214 250.5658 
C 48.568111 238.210697 38.766832 223.542046 32.080299 207.399327 
C 25.393766 191.256607 21.952014 173.953754 21.952014 156.481 
C 21.952014 139.008246 25.393766 121.705393 32.080299 105.562673 
C 38.766832 89.419954 48.568111 74.751303 60.923214 62.3962 
C 73.278317 50.041097 87.946968 40.239818 104.089687 33.553285 
C 120.232407 26.866752 137.53526 23.425 155.008014 23.425 
" clip-path="url(#pef0a4501bb)" style="fill: none; stroke: #e5e7eb; stroke-width: 0.5; stroke-linecap: square"/>
     </g>
     <g id="text_9">
      <text style="fill: #6b7280; font: 7.5px 'Hiragino Sans GB', 'Helvetica', 'Arial', 'DejaVu Sans', sans-serif; text-anchor: start" x="155.008014" y="21.894531" transform="rotate(-0 155.008014 21.894531)">100%</text>
     </g>
    </g>
   </g>
   <g id="patch_3">
    <path d="M 155.008014 59.283592 
L 246.94225 103.402744 
L 252.166005 212.575192 
L 155.008014 245.185 
L 42.044325 221.700616 
L 82.701267 114.73468 
z
" clip-path="url(#pef0a4501bb)" style="fill: #4292c6; opacity: 0.07; stroke: #4292c6; stroke-linejoin: miter"/>
   </g>
   <g id="patch_4">
    <path d="M 155.008014 78.509519 
L 210.760069 124.292536 
L 222.782386 195.610552 
L 155.008014 245.185 
L 42.044325 221.700616 
L 87.233642 117.351448 
z
" clip-path="url(#pef0a4501bb)" style="fill: #9ecae1; opacity: 0.07; stroke: #9ecae1; stroke-linejoin: miter"/>
   </g>
   <g id="line2d_13">
    <path d="M 155.008014 59.283592 
L 246.94225 103.402744 
L 252.166005 212.575192 
L 155.008014 245.185 
L 42.044325 221.700616 
L 82.701267 114.73468 
L 155.008014 59.283592 
" clip-path="url(#pef0a4501bb)" style="fill: none; stroke: #4292c6; stroke-width: 1.4; stroke-linecap: square"/>
    <defs>
     <path id="m5362be9f5c" d="M 0 1.7 
C 0.450845 1.7 0.883286 1.520877 1.202082 1.202082 
C 1.520877 0.883286 1.7 0.450845 1.7 0 
C 1.7 -0.450845 1.520877 -0.883286 1.202082 -1.202082 
C 0.883286 -1.520877 0.450845 -1.7 0 -1.7 
C -0.450845 -1.7 -0.883286 -1.520877 -1.202082 -1.202082 
C -1.520877 -0.883286 -1.7 -0.450845 -1.7 0 
C -1.7 0.450845 -1.520877 0.883286 -1.202082 1.202082 
C -0.883286 1.520877 -0.450845 1.7 0 1.7 
z
" style="stroke: #4292c6"/>
    </defs>
    <g clip-path="url(#pef0a4501bb)">
     <use xlink:href="#m5362be9f5c" x="155.008014" y="59.283592" style="fill: #4292c6; stroke: #4292c6"/>
     <use xlink:href="#m5362be9f5c" x="246.94225" y="103.402744" style="fill: #4292c6; stroke: #4292c6"/>
     <use xlink:href="#m5362be9f5c" x="252.166005" y="212.575192" style="fill: #4292c6; stroke: #4292c6"/>
     <use xlink:href="#m5362be9f5c" x="155.008014" y="245.185" style="fill: #4292c6; stroke: #4292c6"/>
     <use xlink:href="#m5362be9f5c" x="42.044325" y="221.700616" style="fill: #4292c6; stroke: #4292c6"/>
     <use xlink:href="#m5362be9f5c" x="82.701267" y="114.73468" style="fill: #4292c6; stroke: #4292c6"/>
     <use xlink:href="#m5362be9f5c" x="155.008014" y="59.283592" style="fill: #4292c6; stroke: #4292c6"/>
    </g>
   </g>
   <g id="line2d_14">
    <path d="M 155.008014 78.509519 
L 210.760069 124.292536 
L 222.782386 195.610552 
L 155.008014 245.185 
L 42.044325 221.700616 
L 87.233642 117.351448 
L 155.008014 78.509519 
" clip-path="url(#pef0a4501bb)" style="fill: none; stroke: #9ecae1; stroke-width: 1.4; stroke-linecap: square"/>
    <defs>
     <path id="mc16d137843" d="M 0 1.7 
C 0.450845 1.7 0.883286 1.520877 1.202082 1.202082 
C 1.520877 0.883286 1.7 0.450845 1.7 0 
C 1.7 -0.450845 1.520877 -0.883286 1.202082 -1.202082 
C 0.883286 -1.520877 0.450845 -1.7 0 -1.7 
C -0.450845 -1.7 -0.883286 -1.520877 -1.202082 -1.202082 
C -1.520877 -0.883286 -1.7 -0.450845 -1.7 0 
C -1.7 0.450845 -1.520877 0.883286 -1.202082 1.202082 
C -0.883286 1.520877 -0.450845 1.7 0 1.7 
z
" style="stroke: #9ecae1"/>
    </defs>
    <g clip-path="url(#pef0a4501bb)">
     <use xlink:href="#mc16d137843" x="155.008014" y="78.509519" style="fill: #9ecae1; stroke: #9ecae1"/>
     <use xlink:href="#mc16d137843" x="210.760069" y="124.292536" style="fill: #9ecae1; stroke: #9ecae1"/>
     <use xlink:href="#mc16d137843" x="222.782386" y="195.610552" style="fill: #9ecae1; stroke: #9ecae1"/>
     <use xlink:href="#mc16d137843" x="155.008014" y="245.185" style="fill: #9ecae1; stroke: #9ecae1"/>
     <use xlink:href="#mc16d137843" x="42.044325" y="221.700616" style="fill: #9ecae1; stroke: #9ecae1"/>
     <use xlink:href="#mc16d137843" x="87.233642" y="117.351448" style="fill: #9ecae1; stroke: #9ecae1"/>
     <use xlink:href="#mc16d137843" x="155.008014" y="78.509519" style="fill: #9ecae1; stroke: #9ecae1"/>
    </g>
   </g>
   <g id="patch_5">
    <path d="M 155.008014 42.909721 
L 259.675151 96.0514 
L 258.945362 216.489256 
L 155.008014 276.497512 
L 44.291308 220.40332 
L 55.603041 99.089512 
z
" clip-path="url(#pef0a4501bb)" style="fill: #08306b; opacity: 0.22; stroke: #08306b; stroke-linejoin: miter"/>
   </g>
   <g id="line2d_15">
    <path d="M 155.008014 42.909721 
L 259.675151 96.0514 
L 258.945362 216.489256 
L 155.008014 276.497512 
L 44.291308 220.40332 
L 55.603041 99.089512 
L 155.008014 42.909721 
" clip-path="url(#pef0a4501bb)" style="fill: none; stroke: #08306b; stroke-width: 2.2; stroke-linecap: square"/>
    <defs>
     <path id="m4672b56783" d="M 0 2.25 
C 0.596707 2.25 1.169055 2.012926 1.59099 1.59099 
C 2.012926 1.169055 2.25 0.596707 2.25 0 
C 2.25 -0.596707 2.012926 -1.169055 1.59099 -1.59099 
C 1.169055 -2.012926 0.596707 -2.25 0 -2.25 
C -0.596707 -2.25 -1.169055 -2.012926 -1.59099 -1.59099 
C -2.012926 -1.169055 -2.25 -0.596707 -2.25 0 
C -2.25 0.596707 -2.012926 1.169055 -1.59099 1.59099 
C -1.169055 2.012926 -0.596707 2.25 0 2.25 
z
" style="stroke: #08306b"/>
    </defs>
    <g clip-path="url(#pef0a4501bb)">
     <use xlink:href="#m4672b56783" x="155.008014" y="42.909721" style="fill: #08306b; stroke: #08306b"/>
     <use xlink:href="#m4672b56783" x="259.675151" y="96.0514" style="fill: #08306b; stroke: #08306b"/>
     <use xlink:href="#m4672b56783" x="258.945362" y="216.489256" style="fill: #08306b; stroke: #08306b"/>
     <use xlink:href="#m4672b56783" x="155.008014" y="276.497512" style="fill: #08306b; stroke: #08306b"/>
     <use xlink:href="#m4672b56783" x="44.291308" y="220.40332" style="fill: #08306b; stroke: #08306b"/>
     <use xlink:href="#m4672b56783" x="55.603041" y="99.089512" style="fill: #08306b; stroke: #08306b"/>
     <use xlink:href="#m4672b56783" x="155.008014" y="42.909721" style="fill: #08306b; stroke: #08306b"/>
    </g>
   </g>
   <g id="legend_1">
    <g id="patch_6">
     <path d="M 40.947975 319.88156 
L 269.068053 319.88156 
Q 270.768053 319.88156 270.768053 318.18156 
L 270.768053 306.306794 
Q 270.768053 304.606794 269.068053 304.606794 
L 40.947975 304.606794 
Q 39.247975 304.606794 39.247975 306.306794 
L 39.247975 318.18156 
Q 39.247975 319.88156 40.947975 319.88156 
z
" style="fill: #ffffff; opacity: 0.92"/>
    </g>
    <g id="line2d_16">
     <path d="M 42.647975 311.772029 
L 49.022975 311.772029 
L 55.397975 311.772029 
" style="fill: none; stroke: #08306b; stroke-width: 2.2; stroke-linecap: square"/>
     <g>
      <use xlink:href="#m4672b56783" x="49.022975" y="311.772029" style="fill: #08306b; stroke: #08306b"/>
     </g>
    </g>
    <g id="text_10">
     <text style="font: 8.5px 'Hiragino Sans GB', 'Helvetica', 'Arial', 'DejaVu Sans', sans-serif; text-anchor: start" x="62.197975" y="314.747029" transform="rotate(-0 62.197975 314.747029)">MOPS (本文)</text>
    </g>
    <g id="line2d_17">
     <path d="M 131.183444 311.772029 
L 137.558444 311.772029 
L 143.933444 311.772029 
" style="fill: none; stroke: #4292c6; stroke-width: 1.4; stroke-linecap: square"/>
     <g>
      <use xlink:href="#m5362be9f5c" x="137.558444" y="311.772029" style="fill: #4292c6; stroke: #4292c6"/>
     </g>
    </g>
    <g id="text_11">
     <text style="font: 8.5px 'Hiragino Sans GB', 'Helvetica', 'Arial', 'DejaVu Sans', sans-serif; text-anchor: start" x="150.733444" y="314.747029" transform="rotate(-0 150.733444 314.747029)">Plan-Execute</text>
    </g>
    <g id="line2d_18">
     <path d="M 222.02985 311.772029 
L 228.40485 311.772029 
L 234.77985 311.772029 
" style="fill: none; stroke: #9ecae1; stroke-width: 1.4; stroke-linecap: square"/>
     <g>
      <use xlink:href="#mc16d137843" x="228.40485" y="311.772029" style="fill: #9ecae1; stroke: #9ecae1"/>
     </g>
    </g>
    <g id="text_12">
     <text style="font: 8.5px 'Hiragino Sans GB', 'Helvetica', 'Arial', 'DejaVu Sans', sans-serif; text-anchor: start" x="241.57985" y="314.747029" transform="rotate(-0 241.57985 314.747029)">ReAct</text>
    </g>
   </g>
  </g>
 </g>
 <defs>
  <clipPath id="pef0a4501bb">
   <path d="M 288.064014 156.481 
C 288.064014 139.008246 284.622262 121.705393 277.935729 105.562673 
C 271.249196 89.419954 261.447917 74.751303 249.092814 62.3962 
C 236.737711 50.041097 222.06906 40.239818 205.926341 33.553285 
C 189.783621 26.866752 172.480768 23.425 155.008014 23.425 
C 137.53526 23.425 120.232407 26.866752 104.089687 33.553285 
C 87.946968 40.239818 73.278317 50.041097 60.923214 62.3962 
C 48.568111 74.751303 38.766832 89.419954 32.080299 105.562673 
C 25.393766 121.705393 21.952014 139.008246 21.952014 156.481 
C 21.952014 173.953754 25.393766 191.256607 32.080299 207.399327 
C 38.766832 223.542046 48.568111 238.210697 60.923214 250.5658 
C 73.278317 262.920903 87.946968 272.722182 104.089687 279.408715 
C 120.232407 286.095248 137.53526 289.537 155.008014 289.537 
C 172.480768 289.537 189.783621 286.095248 205.926341 279.408715 
C 222.06906 272.722182 236.737711 262.920903 249.092814 250.5658 
C 261.447917 238.210697 271.249196 223.542046 277.935729 207.399327 
C 284.622262 191.256607 288.064014 173.953754 288.064014 156.481 
M 155.008014 156.481 
C 155.008014 156.481 155.008014 156.481 155.008014 156.481 
C 155.008014 156.481 155.008014 156.481 155.008014 156.481 
C 155.008014 156.481 155.008014 156.481 155.008014 156.481 
C 155.008014 156.481 155.008014 156.481 155.008014 156.481 
C 155.008014 156.481 155.008014 156.481 155.008014 156.481 
C 155.008014 156.481 155.008014 156.481 155.008014 156.481 
C 155.008014 156.481 155.008014 156.481 155.008014 156.481 
C 155.008014 156.481 155.008014 156.481 155.008014 156.481 
C 155.008014 156.481 155.008014 156.481 155.008014 156.481 
C 155.008014 156.481 155.008014 156.481 155.008014 156.481 
C 155.008014 156.481 155.008014 156.481 155.008014 156.481 
C 155.008014 156.481 155.008014 156.481 155.008014 156.481 
C 155.008014 156.481 155.008014 156.481 155.008014 156.481 
C 155.008014 156.481 155.008014 156.481 155.008014 156.481 
C 155.008014 156.481 155.008014 156.481 155.008014 156.481 
C 155.008014 156.481 155.008014 156.481 155.008014 156.481 
z
"/>
  </clipPath>
 </defs>
</svg>
