<?xml version="1.0" encoding="utf-8" standalone="no"?>
<!DOCTYPE svg PUBLIC "-//W3C//DTD SVG 1.1//EN"
  "http://www.w3.org/Graphics/SVG/1.1/DTD/svg11.dtd">
<svg xmlns:xlink="http://www.w3.org/1999/xlink" width="433.61375pt" height="202.988pt" viewBox="0 0 433.61375 202.988" xmlns="http://www.w3.org/2000/svg" version="1.1">
 <metadata>
  <rdf:RDF xmlns:dc="http://purl.org/dc/elements/1.1/" xmlns:cc="http://creativecommons.org/ns#" xmlns:rdf="http://www.w3.org/1999/02/22-rdf-syntax-ns#">
   <cc:Work>
    <dc:type rdf:resource="http://purl.org/dc/dcmitype/StillImage"/>
    <dc:date>2026-05-12T19:05:57.945028</dc:date>
    <dc:format>image/svg+xml</dc:format>
    <dc:creator>
     <cc:Agent>
      <dc:title>Matplotlib v3.9.4, https://matplotlib.org/</dc:title>
     </cc:Agent>
    </dc:creator>
   </cc:Work>
  </rdf:RDF>
 </metadata>
 <defs>
  <style type="text/css">*{stroke-linejoin: round; stroke-linecap: butt}</style>
 </defs>
 <g id="figure_1">
  <g id="patch_1">
   <path d="M 0 202.988 
L 433.61375 202.988 
L 433.61375 0 
L 0 0 
z
" style="fill: #ffffff"/>
  </g>
  <g id="axes_1">
   <g id="patch_2">
    <path d="M 37.25375 183.168 
L 427.85375 183.168 
L 427.85375 5.76 
L 37.25375 5.76 
z
" style="fill: #ffffff"/>
   </g>
   <g id="line2d_1">
    <path d="M 55.008295 183.168 
L 55.008295 5.76 
" clip-path="url(#pab3bb3a429)" style="fill: none; stroke: #e5e7eb; stroke-width: 0.5; stroke-linecap: square"/>
   </g>
   <g id="line2d_2">
    <path d="M 126.026477 183.168 
L 126.026477 5.76 
" clip-path="url(#pab3bb3a429)" style="fill: none; stroke: #e5e7eb; stroke-width: 0.5; stroke-linecap: square"/>
   </g>
   <g id="line2d_3">
    <path d="M 197.044659 183.168 
L 197.044659 5.76 
" clip-path="url(#pab3bb3a429)" style="fill: none; stroke: #e5e7eb; stroke-width: 0.5; stroke-linecap: square"/>
   </g>
   <g id="line2d_4">
    <path d="M 268.062841 183.168 
L 268.062841 5.76 
" clip-path="url(#pab3bb3a429)" style="fill: none; stroke: #e5e7eb; stroke-width: 0.5; stroke-linecap: square"/>
   </g>
   <g id="line2d_5">
    <path d="M 339.081023 183.168 
L 339.081023 5.76 
" clip-path="url(#pab3bb3a429)" style="fill: none; stroke: #e5e7eb; stroke-width: 0.5; stroke-linecap: square"/>
   </g>
   <g id="line2d_6">
    <path d="M 410.099205 183.168 
L 410.099205 5.76 
" clip-path="url(#pab3bb3a429)" style="fill: none; stroke: #e5e7eb; stroke-width: 0.5; stroke-linecap: square"/>
   </g>
   <g id="matplotlib.axis_1">
    <g id="xtick_1">
     <g id="line2d_7">
      <path d="M 55.008295 183.168 
L 55.008295 5.76 
" clip-path="url(#pab3bb3a429)" style="fill: none; stroke: #e5e7eb; stroke-width: 0.45; stroke-linecap: square"/>
     </g>
     <g id="line2d_8">
      <defs>
       <path id="m282f5018dd" d="M 0 0 
L 0 2.8 
" style="stroke: #374151; stroke-width: 0.6"/>
      </defs>
      <g>
       <use xlink:href="#m282f5018dd" x="55.008295" y="183.168" style="fill: #374151; stroke: #374151; stroke-width: 0.6"/>
      </g>
     </g>
     <g id="text_1">
      <text style="fill: #374151; font: 8px 'Hiragino Sans GB', 'Helvetica', 'Arial', 'DejaVu Sans', sans-serif; text-anchor: middle" x="55.008295" y="195.5955" transform="rotate(-0 55.008295 195.5955)">综合得分</text>
     </g>
    </g>
    <g id="xtick_2">
     <g id="line2d_9">
      <path d="M 126.026477 183.168 
L 126.026477 5.76 
" clip-path="url(#pab3bb3a429)" style="fill: none; stroke: #e5e7eb; stroke-width: 0.45; stroke-linecap: square"/>
     </g>
     <g id="line2d_10">
      <g>
       <use xlink:href="#m282f5018dd" x="126.026477" y="183.168" style="fill: #374151; stroke: #374151; stroke-width: 0.6"/>
      </g>
     </g>
     <g id="text_2">
      <text style="fill: #374151; font: 8px 'Hiragino Sans GB', 'Helvetica', 'Arial', 'DejaVu Sans', sans-serif; text-anchor: middle" x="126.026477" y="195.5955" transform="rotate(-0 126.026477 195.5955)">工具 F1</text>
     </g>
    </g>
    <g id="xtick_3">
     <g id="line2d_11">
      <path d="M 197.044659 183.168 
L 197.044659 5.76 
" clip-path="url(#pab3bb3a429)" style="fill: none; stroke: #e5e7eb; stroke-width: 0.45; stroke-linecap: square"/>
     </g>
     <g id="line2d_12">
      <g>
       <use xlink:href="#m282f5018dd" x="197.044659" y="183.168" style="fill: #374151; stroke: #374151; stroke-width: 0.6"/>
      </g>
     </g>
     <g id="text_3">
      <text style="fill: #374151; font: 8px 'Hiragino Sans GB', 'Helvetica', 'Arial', 'DejaVu Sans', sans-serif; text-anchor: middle" x="197.044659" y="195.5955" transform="rotate(-0 197.044659 195.5955)">根因命中</text>
     </g>
    </g>
    <g id="xtick_4">
     <g id="line2d_13">
      <path d="M 268.062841 183.168 
L 268.062841 5.76 
" clip-path="url(#pab3bb3a429)" style="fill: none; stroke: #e5e7eb; stroke-width: 0.45; stroke-linecap: square"/>
     </g>
     <g id="line2d_14">
      <g>
       <use xlink:href="#m282f5018dd" x="268.062841" y="183.168" style="fill: #374151; stroke: #374151; stroke-width: 0.6"/>
      </g>
     </g>
     <g id="text_4">
      <text style="fill: #374151; font: 8px 'Hiragino Sans GB', 'Helvetica', 'Arial', 'DejaVu Sans', sans-serif; text-anchor: middle" x="268.062841" y="195.5955" transform="rotate(-0 268.062841 195.5955)">建议相关</text>
     </g>
    </g>
    <g id="xtick_5">
     <g id="line2d_15">
      <path d="M 339.081023 183.168 
L 339.081023 5.76 
" clip-path="url(#pab3bb3a429)" style="fill: none; stroke: #e5e7eb; stroke-width: 0.45; stroke-linecap: square"/>
     </g>
     <g id="line2d_16">
      <g>
       <use xlink:href="#m282f5018dd" x="339.081023" y="183.168" style="fill: #374151; stroke: #374151; stroke-width: 0.6"/>
      </g>
     </g>
     <g id="text_5">
      <text style="fill: #374151; font: 8px 'Hiragino Sans GB', 'Helvetica', 'Arial', 'DejaVu Sans', sans-serif; text-anchor: middle" x="339.081023" y="195.5955" transform="rotate(-0 339.081023 195.5955)">权限合规</text>
     </g>
    </g>
    <g id="xtick_6">
     <g id="line2d_17">
      <path d="M 410.099205 183.168 
L 410.099205 5.76 
" clip-path="url(#pab3bb3a429)" style="fill: none; stroke: #e5e7eb; stroke-width: 0.45; stroke-linecap: square"/>
     </g>
     <g id="line2d_18">
      <g>
       <use xlink:href="#m282f5018dd" x="410.099205" y="183.168" style="fill: #374151; stroke: #374151; stroke-width: 0.6"/>
      </g>
     </g>
     <g id="text_6">
      <text style="fill: #374151; font: 8px 'Hiragino Sans GB', 'Helvetica', 'Arial', 'DejaVu Sans', sans-serif; text-anchor: middle" x="410.099205" y="195.5955" transform="rotate(-0 410.099205 195.5955)">完成信号</text>
     </g>
    </g>
   </g>
   <g id="matplotlib.axis_2">
    <g id="ytick_1">
     <g id="line2d_19">
      <defs>
       <path id="m737c343c01" d="M 0 0 
L -2.8 0 
" style="stroke: #374151; stroke-width: 0.6"/>
      </defs>
      <g>
       <use xlink:href="#m737c343c01" x="37.25375" y="175.454609" style="fill: #374151; stroke: #374151; stroke-width: 0.6"/>
      </g>
     </g>
     <g id="text_7">
      <text style="fill: #374151; font: 8px 'Hiragino Sans GB', 'Helvetica', 'Arial', 'DejaVu Sans', sans-serif; text-anchor: end" x="30.95375" y="178.518359" transform="rotate(-0 30.95375 178.518359)">0.0</text>
     </g>
    </g>
    <g id="ytick_2">
     <g id="line2d_20">
      <g>
       <use xlink:href="#m737c343c01" x="37.25375" y="144.601043" style="fill: #374151; stroke: #374151; stroke-width: 0.6"/>
      </g>
     </g>
     <g id="text_8">
      <text style="fill: #374151; font: 8px 'Hiragino Sans GB', 'Helvetica', 'Arial', 'DejaVu Sans', sans-serif; text-anchor: end" x="30.95375" y="147.664793" transform="rotate(-0 30.95375 147.664793)">0.2</text>
     </g>
    </g>
    <g id="ytick_3">
     <g id="line2d_21">
      <g>
       <use xlink:href="#m737c343c01" x="37.25375" y="113.747478" style="fill: #374151; stroke: #374151; stroke-width: 0.6"/>
      </g>
     </g>
     <g id="text_9">
      <text style="fill: #374151; font: 8px 'Hiragino Sans GB', 'Helvetica', 'Arial', 'DejaVu Sans', sans-serif; text-anchor: end" x="30.95375" y="116.811228" transform="rotate(-0 30.95375 116.811228)">0.4</text>
     </g>
    </g>
    <g id="ytick_4">
     <g id="line2d_22">
      <g>
       <use xlink:href="#m737c343c01" x="37.25375" y="82.893913" style="fill: #374151; stroke: #374151; stroke-width: 0.6"/>
      </g>
     </g>
     <g id="text_10">
      <text style="fill: #374151; font: 8px 'Hiragino Sans GB', 'Helvetica', 'Arial', 'DejaVu Sans', sans-serif; text-anchor: end" x="30.95375" y="85.957663" transform="rotate(-0 30.95375 85.957663)">0.6</text>
     </g>
    </g>
    <g id="ytick_5">
     <g id="line2d_23">
      <g>
       <use xlink:href="#m737c343c01" x="37.25375" y="52.040348" style="fill: #374151; stroke: #374151; stroke-width: 0.6"/>
      </g>
     </g>
     <g id="text_11">
      <text style="fill: #374151; font: 8px 'Hiragino Sans GB', 'Helvetica', 'Arial', 'DejaVu Sans', sans-serif; text-anchor: end" x="30.95375" y="55.104098" transform="rotate(-0 30.95375 55.104098)">0.8</text>
     </g>
    </g>
    <g id="ytick_6">
     <g id="line2d_24">
      <g>
       <use xlink:href="#m737c343c01" x="37.25375" y="21.186783" style="fill: #374151; stroke: #374151; stroke-width: 0.6"/>
      </g>
     </g>
     <g id="text_12">
      <text style="fill: #374151; font: 8px 'Hiragino Sans GB', 'Helvetica', 'Arial', 'DejaVu Sans', sans-serif; text-anchor: end" x="30.95375" y="24.250533" transform="rotate(-0 30.95375 24.250533)">1.0</text>
     </g>
    </g>
    <g id="text_13">
     <text style="fill: #1f2937; font: 9px 'Hiragino Sans GB', 'Helvetica', 'Arial', 'DejaVu Sans', sans-serif; text-anchor: middle" x="12.653438" y="94.464" transform="rotate(-90 12.653438 94.464)">各维度归一化值</text>
    </g>
   </g>
   <g id="line2d_25">
    <path d="M 55.008295 37.875917 
L 126.026477 38.156243 
L 197.044659 39.328679 
L 268.062841 39.328679 
L 339.081023 45.355409 
L 410.099205 46.61012 
" clip-path="url(#pab3bb3a429)" style="fill: none; stroke: #08306b; stroke-width: 1.8; stroke-linecap: square"/>
    <defs>
     <path id="m632a5bdb23" d="M 0 2.75 
C 0.729309 2.75 1.428845 2.460243 1.944544 1.944544 
C 2.460243 1.428845 2.75 0.729309 2.75 0 
C 2.75 -0.729309 2.460243 -1.428845 1.944544 -1.944544 
C 1.428845 -2.460243 0.729309 -2.75 0 -2.75 
C -0.729309 -2.75 -1.428845 -2.460243 -1.944544 -1.944544 
C -2.460243 -1.428845 -2.75 -0.729309 -2.75 0 
C -2.75 0.729309 -2.460243 1.428845 -1.944544 1.944544 
C -1.428845 2.460243 -0.729309 2.75 0 2.75 
z
" style="stroke: #08306b"/>
    </defs>
    <g clip-path="url(#pab3bb3a429)">
     <use xlink:href="#m632a5bdb23" x="55.008295" y="37.875917" style="fill: #08306b; stroke: #08306b"/>
     <use xlink:href="#m632a5bdb23" x="126.026477" y="38.156243" style="fill: #08306b; stroke: #08306b"/>
     <use xlink:href="#m632a5bdb23" x="197.044659" y="39.328679" style="fill: #08306b; stroke: #08306b"/>
     <use xlink:href="#m632a5bdb23" x="268.062841" y="39.328679" style="fill: #08306b; stroke: #08306b"/>
     <use xlink:href="#m632a5bdb23" x="339.081023" y="45.355409" style="fill: #08306b; stroke: #08306b"/>
     <use xlink:href="#m632a5bdb23" x="410.099205" y="46.61012" style="fill: #08306b; stroke: #08306b"/>
    </g>
   </g>
   <g id="line2d_26">
    <path d="M 55.008295 70.420257 
L 126.026477 58.612157 
L 197.044659 50.219987 
L 268.062841 82.893913 
L 339.081023 33.322518 
L 410.099205 90.144501 
" clip-path="url(#pab3bb3a429)" style="fill: none; stroke: #4292c6; stroke-width: 1.8; stroke-linecap: square"/>
    <defs>
     <path id="m6790ee48d3" d="M 0 2.75 
C 0.729309 2.75 1.428845 2.460243 1.944544 1.944544 
C 2.460243 1.428845 2.75 0.729309 2.75 0 
C 2.75 -0.729309 2.460243 -1.428845 1.944544 -1.944544 
C 1.428845 -2.460243 0.729309 -2.75 0 -2.75 
C -0.729309 -2.75 -1.428845 -2.460243 -1.944544 -1.944544 
C -2.460243 -1.428845 -2.75 -0.729309 -2.75 0 
C -2.75 0.729309 -2.460243 1.428845 -1.944544 1.944544 
C -1.428845 2.460243 -0.729309 2.75 0 2.75 
z
" style="stroke: #4292c6"/>
    </defs>
    <g clip-path="url(#pab3bb3a429)">
     <use xlink:href="#m6790ee48d3" x="55.008295" y="70.420257" style="fill: #4292c6; stroke: #4292c6"/>
     <use xlink:href="#m6790ee48d3" x="126.026477" y="58.612157" style="fill: #4292c6; stroke: #4292c6"/>
     <use xlink:href="#m6790ee48d3" x="197.044659" y="50.219987" style="fill: #4292c6; stroke: #4292c6"/>
     <use xlink:href="#m6790ee48d3" x="268.062841" y="82.893913" style="fill: #4292c6; stroke: #4292c6"/>
     <use xlink:href="#m6790ee48d3" x="339.081023" y="33.322518" style="fill: #4292c6; stroke: #4292c6"/>
     <use xlink:href="#m6790ee48d3" x="410.099205" y="90.144501" style="fill: #4292c6; stroke: #4292c6"/>
    </g>
   </g>
   <g id="line2d_27">
    <path d="M 55.008295 108.633279 
L 126.026477 116.740274 
L 197.044659 97.425942 
L 268.062841 82.893913 
L 339.081023 33.322518 
L 410.099205 97.425942 
" clip-path="url(#pab3bb3a429)" style="fill: none; stroke: #9ecae1; stroke-width: 1.8; stroke-linecap: square"/>
    <defs>
     <path id="m767dfc1bc8" d="M 0 2.75 
C 0.729309 2.75 1.428845 2.460243 1.944544 1.944544 
C 2.460243 1.428845 2.75 0.729309 2.75 0 
C 2.75 -0.729309 2.460243 -1.428845 1.944544 -1.944544 
C 1.428845 -2.460243 0.729309 -2.75 0 -2.75 
C -0.729309 -2.75 -1.428845 -2.460243 -1.944544 -1.944544 
C -2.460243 -1.428845 -2.75 -0.729309 -2.75 0 
C -2.75 0.729309 -2.460243 1.428845 -1.944544 1.944544 
C -1.428845 2.460243 -0.729309 2.75 0 2.75 
z
" style="stroke: #9ecae1"/>
    </defs>
    <g clip-path="url(#pab3bb3a429)">
     <use xlink:href="#m767dfc1bc8" x="55.008295" y="108.633279" style="fill: #9ecae1; stroke: #9ecae1"/>
     <use xlink:href="#m767dfc1bc8" x="126.026477" y="116.740274" style="fill: #9ecae1; stroke: #9ecae1"/>
     <use xlink:href="#m767dfc1bc8" x="197.044659" y="97.425942" style="fill: #9ecae1; stroke: #9ecae1"/>
     <use xlink:href="#m767dfc1bc8" x="268.062841" y="82.893913" style="fill: #9ecae1; stroke: #9ecae1"/>
     <use xlink:href="#m767dfc1bc8" x="339.081023" y="33.322518" style="fill: #9ecae1; stroke: #9ecae1"/>
     <use xlink:href="#m767dfc1bc8" x="410.099205" y="97.425942" style="fill: #9ecae1; stroke: #9ecae1"/>
    </g>
   </g>
   <g id="patch_3">
    <path d="M 37.25375 183.168 
L 37.25375 5.76 
" style="fill: none; stroke: #374151; stroke-width: 0.7; stroke-linejoin: miter; stroke-linecap: square"/>
   </g>
   <g id="patch_4">
    <path d="M 37.25375 183.168 
L 427.85375 183.168 
" style="fill: none; stroke: #374151; stroke-width: 0.7; stroke-linejoin: miter; stroke-linecap: square"/>
   </g>
   <g id="legend_1">
    <g id="patch_5">
     <path d="M 42.85375 179.168 
L 257.555 179.168 
Q 259.155 179.168 259.155 177.568 
L 259.155 166.39175 
Q 259.155 164.79175 257.555 164.79175 
L 42.85375 164.79175 
Q 41.25375 164.79175 41.25375 166.39175 
L 41.25375 177.568 
Q 41.25375 179.168 42.85375 179.168 
z
" style="fill: #ffffff; opacity: 0.92"/>
    </g>
    <g id="line2d_28">
     <path d="M 44.45375 171.5355 
L 50.45375 171.5355 
L 56.45375 171.5355 
" style="fill: none; stroke: #08306b; stroke-width: 1.8; stroke-linecap: square"/>
     <g>
      <use xlink:href="#m632a5bdb23" x="50.45375" y="171.5355" style="fill: #08306b; stroke: #08306b"/>
     </g>
    </g>
    <g id="text_14">
     <text style="fill: #1f2937; font: 8px 'Hiragino Sans GB', 'Helvetica', 'Arial', 'DejaVu Sans', sans-serif; text-anchor: start" x="62.85375" y="174.3355" transform="rotate(-0 62.85375 174.3355)">MOPS (本文)</text>
    </g>
    <g id="line2d_29">
     <path d="M 127.78125 171.5355 
L 133.78125 171.5355 
L 139.78125 171.5355 
" style="fill: none; stroke: #4292c6; stroke-width: 1.8; stroke-linecap: square"/>
     <g>
      <use xlink:href="#m6790ee48d3" x="133.78125" y="171.5355" style="fill: #4292c6; stroke: #4292c6"/>
     </g>
    </g>
    <g id="text_15">
     <text style="fill: #1f2937; font: 8px 'Hiragino Sans GB', 'Helvetica', 'Arial', 'DejaVu Sans', sans-serif; text-anchor: start" x="146.18125" y="174.3355" transform="rotate(-0 146.18125 174.3355)">Plan-Execute</text>
    </g>
    <g id="line2d_30">
     <path d="M 213.28375 171.5355 
L 219.28375 171.5355 
L 225.28375 171.5355 
" style="fill: none; stroke: #9ecae1; stroke-width: 1.8; stroke-linecap: square"/>
     <g>
      <use xlink:href="#m767dfc1bc8" x="219.28375" y="171.5355" style="fill: #9ecae1; stroke: #9ecae1"/>
     </g>
    </g>
    <g id="text_16">
     <text style="fill: #1f2937; font: 8px 'Hiragino Sans GB', 'Helvetica', 'Arial', 'DejaVu Sans', sans-serif; text-anchor: start" x="231.68375" y="174.3355" transform="rotate(-0 231.68375 174.3355)">ReAct</text>
    </g>
   </g>
  </g>
 </g>
 <defs>
  <clipPath id="pab3bb3a429">
   <rect x="37.25375" y="5.76" width="390.6" height="177.408"/>
  </clipPath>
 </defs>
</svg>
