<?xml version="1.0" encoding="utf-8" standalone="no"?>
<!DOCTYPE svg PUBLIC "-//W3C//DTD SVG 1.1//EN"
  "http://www.w3.org/Graphics/SVG/1.1/DTD/svg11.dtd">
<svg xmlns:xlink="http://www.w3.org/1999/xlink" width="640.161328pt" height="215.371729pt" viewBox="0 0 640.161328 215.371729" xmlns="http://www.w3.org/2000/svg" version="1.1">
 <metadata>
  <rdf:RDF xmlns:dc="http://purl.org/dc/elements/1.1/" xmlns:cc="http://creativecommons.org/ns#" xmlns:rdf="http://www.w3.org/1999/02/22-rdf-syntax-ns#">
   <cc:Work>
    <dc:type rdf:resource="http://purl.org/dc/dcmitype/StillImage"/>
    <dc:date>2026-05-11T17:05:09.017545</dc:date>
    <dc:format>image/svg+xml</dc:format>
    <dc:creator>
     <cc:Agent>
      <dc:title>Matplotlib v3.9.4, https://matplotlib.org/</dc:title>
     </cc:Agent>
    </dc:creator>
   </cc:Work>
  </rdf:RDF>
 </metadata>
 <defs>
  <style type="text/css">*{stroke-linejoin: round; stroke-linecap: butt}</style>
 </defs>
 <g id="figure_1">
  <g id="patch_1">
   <path d="M 0 215.371729 
L 640.161328 215.371729 
L 640.161328 0 
L 0 0 
z
" style="fill: #ffffff"/>
  </g>
  <g id="axes_1">
   <g id="patch_2">
    <path d="M 42.667578 173.331924 
L 205.158828 173.331924 
L 205.158828 9.015234 
L 42.667578 9.015234 
z
" style="fill: #ffffff"/>
   </g>
   <g id="matplotlib.axis_1">
    <g id="xtick_1">
     <g id="line2d_1">
      <path d="M 62.363487 173.331924 
L 62.363487 9.015234 
" clip-path="url(#p76907da886)" style="fill: none; stroke: #e5e7eb; stroke-opacity: 0.7; stroke-width: 0.6; stroke-linecap: square"/>
     </g>
     <g id="line2d_2">
      <defs>
       <path id="m9c07ba2d66" d="M 0 0 
L 0 3.5 
" style="stroke: #374151; stroke-width: 0.6"/>
      </defs>
      <g>
       <use xlink:href="#m9c07ba2d66" x="62.363487" y="173.331924" style="fill: #374151; stroke: #374151; stroke-width: 0.6"/>
      </g>
     </g>
     <g id="text_1">
      <!-- 完整 MOPS -->
      <g style="fill: #374151" transform="translate(18.141152 200.718298) rotate(-18) scale(0.085 -0.085)">
       <defs>
        <path id="HiraginoSansGB-W3-5b8c" d="M 3462 4608 
C 3322 4934 3226 5107 3014 5395 
L 2662 5203 
C 2822 4986 2925 4819 3021 4608 
L 1190 4608 
C 909 4608 736 4614 544 4634 
C 563 4499 570 4384 570 4198 
L 570 3776 
C 570 3584 563 3475 544 3328 
L 966 3328 
L 966 4243 
L 5478 4243 
L 5478 3328 
L 5894 3328 
C 5875 3462 5869 3578 5869 3776 
L 5869 4198 
C 5869 4397 5875 4506 5894 4634 
C 5696 4614 5542 4608 5254 4608 
L 3462 4608 
z
M 2202 2086 
C 2189 1869 2176 1754 2157 1632 
C 2067 1152 1824 749 1446 461 
C 1171 243 928 128 346 -58 
C 454 -173 538 -301 608 -454 
C 1011 -288 1261 -166 1446 -58 
C 1862 198 2176 531 2374 947 
C 2541 1280 2592 1523 2630 2086 
L 3552 2086 
L 3552 186 
C 3552 -205 3731 -275 4666 -275 
C 5933 -275 6022 -205 6054 826 
C 5894 864 5824 896 5658 986 
C 5658 646 5645 486 5619 358 
C 5574 141 5427 102 4698 102 
C 4058 102 3968 128 3968 307 
L 3968 2086 
L 5286 2086 
C 5562 2086 5747 2074 5926 2048 
L 5926 2490 
C 5747 2464 5574 2451 5286 2451 
L 1133 2451 
C 845 2451 672 2464 493 2490 
L 493 2048 
C 672 2074 864 2086 1133 2086 
L 2202 2086 
z
M 1376 3142 
C 1542 3168 1683 3174 1939 3174 
L 4435 3174 
C 4691 3174 4832 3168 4998 3142 
L 4998 3571 
C 4826 3546 4704 3539 4435 3539 
L 1939 3539 
C 1670 3539 1549 3546 1376 3571 
L 1376 3142 
z
" transform="scale(0.015625)"/>
        <path id="HiraginoSansGB-W3-6574" d="M 6016 4634 
C 5811 4608 5645 4595 5427 4595 
L 4198 4595 
C 4352 4934 4358 4954 4454 5242 
L 4064 5325 
C 4019 5037 3910 4730 3744 4410 
C 3571 4083 3398 3859 3130 3616 
C 3270 3514 3322 3462 3398 3360 
C 3565 3546 3680 3686 3802 3872 
C 3936 3552 4115 3270 4365 2982 
C 3987 2637 3616 2432 3098 2285 
C 3226 2144 3226 2144 3309 1958 
C 3866 2157 4186 2342 4608 2733 
C 4966 2394 5344 2157 5888 1933 
C 5952 2093 5990 2163 6099 2304 
C 5542 2490 5261 2637 4851 2982 
C 5152 3328 5357 3718 5510 4256 
C 5805 4250 5843 4250 6016 4224 
L 6016 4634 
z
M 5126 4256 
C 5005 3827 4858 3526 4602 3219 
C 4352 3488 4173 3770 4000 4192 
C 4006 4211 4006 4211 4026 4237 
C 4026 4243 4026 4250 4032 4256 
L 5126 4256 
z
M 3002 83 
L 1958 83 
L 1958 666 
C 1958 851 1965 986 1990 1133 
L 1542 1133 
C 1568 998 1574 883 1574 666 
L 1574 83 
L 1018 83 
C 755 83 544 96 358 122 
L 358 -288 
C 563 -262 762 -250 1018 -250 
L 5427 -250 
C 5683 -250 5875 -262 6080 -288 
L 6080 122 
C 5894 96 5696 83 5427 83 
L 3373 83 
L 3373 653 
L 4787 653 
C 5037 653 5152 646 5350 621 
L 5350 1018 
C 5197 992 5050 986 4787 986 
L 3373 986 
L 3373 1491 
L 5043 1491 
C 5363 1491 5498 1485 5683 1459 
L 5683 1856 
C 5517 1830 5376 1824 5043 1824 
L 1306 1824 
C 1005 1824 864 1830 698 1856 
L 698 1459 
C 877 1485 1018 1491 1306 1491 
L 3002 1491 
L 3002 83 
z
M 2022 4909 
C 2029 5114 2029 5184 2054 5325 
L 1651 5325 
C 1670 5210 1677 5146 1683 4909 
L 928 4909 
C 666 4909 518 4915 371 4941 
L 371 4557 
C 512 4582 672 4589 922 4589 
L 1683 4589 
L 1683 4205 
L 1120 4205 
C 858 4205 742 4211 602 4230 
C 614 4109 621 4038 621 3846 
L 621 3494 
C 621 3354 614 3213 602 3085 
C 736 3104 838 3110 1088 3110 
L 1472 3110 
C 1184 2758 717 2438 192 2240 
C 307 2144 358 2086 448 1946 
C 1018 2234 1446 2592 1709 3002 
C 1690 2842 1683 2707 1683 2611 
L 1683 2381 
C 1683 2182 1677 2093 1658 1997 
L 2048 1997 
C 2029 2125 2022 2227 2022 2381 
L 2022 2682 
C 2323 2502 2643 2285 2874 2093 
L 3091 2413 
C 2758 2611 2374 2822 2022 2989 
L 2022 3110 
L 2643 3110 
C 2938 3110 3027 3104 3123 3091 
C 3110 3206 3104 3328 3104 3494 
L 3104 3846 
C 3104 4051 3110 4122 3123 4230 
C 2976 4211 2867 4205 2598 4205 
L 2022 4205 
L 2022 4589 
L 2854 4589 
C 3066 4589 3232 4582 3373 4563 
L 3373 4941 
C 3232 4915 3091 4909 2848 4909 
L 2022 4909 
z
M 1683 3917 
L 1683 3386 
L 954 3386 
L 954 3917 
L 1683 3917 
z
M 2022 3917 
L 2778 3917 
L 2778 3386 
L 2022 3386 
L 2022 3917 
z
" transform="scale(0.015625)"/>
        <path id="HiraginoSansGB-W3-20" transform="scale(0.015625)"/>
        <path id="HiraginoSansGB-W3-4d" d="M 2554 710 
C 2682 422 2758 205 2790 38 
L 3245 38 
C 3296 250 3360 416 3488 704 
L 4794 3578 
C 4915 3840 5005 4096 5069 4358 
C 5043 4096 5024 3750 5024 3571 
L 5024 794 
C 5024 486 5011 256 4973 38 
L 5555 38 
C 5517 269 5504 442 5504 794 
L 5504 4141 
C 5504 4474 5517 4659 5555 4902 
L 4819 4902 
C 4781 4717 4710 4518 4602 4269 
L 3027 742 
L 1446 4269 
C 1350 4480 1274 4710 1235 4902 
L 493 4902 
C 531 4666 544 4461 544 4141 
L 544 794 
C 544 461 531 275 493 38 
L 1075 38 
C 1037 256 1024 454 1024 794 
L 1024 3533 
C 1024 3686 998 4083 979 4358 
C 1101 3968 1171 3770 1267 3565 
L 2554 710 
z
" transform="scale(0.015625)"/>
        <path id="HiraginoSansGB-W3-4f" d="M 2547 4998 
C 1203 4998 333 4006 333 2470 
C 333 928 1190 -58 2541 -58 
C 3891 -58 4755 928 4755 2470 
C 4755 4013 3898 4998 2547 4998 
z
M 2554 397 
C 1530 397 851 1222 851 2477 
C 851 3731 1523 4550 2547 4550 
C 2989 4550 3373 4397 3667 4109 
C 4038 3738 4230 3174 4230 2470 
C 4230 1786 4026 1190 3661 832 
C 3373 544 2995 397 2554 397 
z
" transform="scale(0.015625)"/>
        <path id="HiraginoSansGB-W3-50" d="M 1094 38 
C 1056 256 1043 454 1043 762 
L 1043 2022 
L 2470 2022 
C 3469 2022 4045 2566 4045 3507 
C 4045 4397 3488 4902 2502 4902 
L 1197 4902 
C 902 4902 723 4909 493 4922 
C 531 4653 544 4454 544 4192 
L 544 755 
C 544 454 531 269 493 38 
L 1094 38 
z
M 1043 2464 
L 1043 4461 
L 2470 4461 
C 3162 4461 3533 4122 3533 3482 
C 3533 2829 3149 2464 2470 2464 
L 1043 2464 
z
" transform="scale(0.015625)"/>
        <path id="HiraginoSansGB-W3-53" d="M 3840 3718 
C 3770 4045 3706 4205 3558 4397 
C 3270 4781 2778 4986 2144 4986 
C 1152 4986 506 4467 506 3661 
C 506 3213 704 2874 1101 2650 
C 1318 2528 1568 2438 1971 2355 
C 2746 2182 2816 2163 3027 2042 
C 3270 1907 3398 1670 3398 1357 
C 3398 762 2938 403 2176 403 
C 1702 403 1318 563 1107 845 
C 973 1018 928 1171 909 1478 
L 352 1408 
C 416 986 486 787 653 563 
C 947 166 1478 -45 2195 -45 
C 3296 -45 3917 467 3917 1370 
C 3917 2112 3507 2502 2483 2720 
C 1747 2880 1741 2880 1568 2950 
C 1190 3104 1011 3341 1011 3674 
C 1011 4192 1472 4544 2131 4544 
C 2547 4544 2874 4416 3078 4173 
C 3200 4026 3251 3898 3302 3642 
L 3840 3718 
z
" transform="scale(0.015625)"/>
       </defs>
       <use xlink:href="#HiraginoSansGB-W3-5b8c"/>
       <use xlink:href="#HiraginoSansGB-W3-6574" x="99.999985"/>
       <use xlink:href="#HiraginoSansGB-W3-20" x="199.999969"/>
       <use xlink:href="#HiraginoSansGB-W3-4d" x="233.299957"/>
       <use xlink:href="#HiraginoSansGB-W3-4f" x="327.799942"/>
       <use xlink:href="#HiraginoSansGB-W3-50" x="407.299927"/>
       <use xlink:href="#HiraginoSansGB-W3-53" x="473.499924"/>
      </g>
     </g>
    </g>
    <g id="xtick_2">
     <g id="line2d_3">
      <path d="M 103.396631 173.331924 
L 103.396631 9.015234 
" clip-path="url(#p76907da886)" style="fill: none; stroke: #e5e7eb; stroke-opacity: 0.7; stroke-width: 0.6; stroke-linecap: square"/>
     </g>
     <g id="line2d_4">
      <g>
       <use xlink:href="#m9c07ba2d66" x="103.396631" y="173.331924" style="fill: #374151; stroke: #374151; stroke-width: 0.6"/>
      </g>
     </g>
     <g id="text_2">
      <!-- w/o Planner -->
      <g style="fill: #374151" transform="translate(54.963048 202.086616) rotate(-18) scale(0.085 -0.085)">
       <defs>
        <path id="HiraginoSansGB-W3-77" d="M 3782 38 
C 3808 166 3834 262 3917 518 
L 4608 2733 
C 4723 3098 4806 3354 4858 3488 
L 4275 3488 
C 4262 3302 4218 3066 4134 2790 
L 3654 1165 
C 3642 1126 3610 979 3552 730 
C 3539 774 3539 774 3514 870 
C 3488 960 3450 1101 3430 1158 
L 2816 3002 
C 2752 3194 2707 3373 2688 3488 
L 2259 3488 
C 2246 3373 2202 3194 2131 3002 
L 1523 1190 
C 1504 1133 1427 877 1389 730 
C 1344 954 1306 1088 1274 1197 
L 806 2790 
C 717 3072 672 3290 659 3488 
L 70 3488 
C 147 3270 250 2970 326 2733 
L 1011 525 
C 1114 211 1114 198 1152 38 
L 1600 38 
C 1619 147 1670 333 1734 518 
L 2355 2368 
C 2374 2432 2426 2605 2477 2784 
C 2541 2547 2573 2413 2586 2381 
L 3213 518 
C 3270 339 3315 173 3341 38 
L 3782 38 
z
" transform="scale(0.015625)"/>
        <path id="HiraginoSansGB-W3-2f" d="M 2432 4902 
L 122 -954 
L 602 -954 
L 2906 4902 
L 2432 4902 
z
" transform="scale(0.015625)"/>
        <path id="HiraginoSansGB-W3-6f" d="M 2010 -45 
C 3040 -45 3706 672 3706 1766 
C 3706 2867 3046 3571 2003 3571 
C 960 3571 294 2867 294 1760 
C 294 653 960 -45 2010 -45 
z
M 2016 3168 
C 2752 3168 3213 2630 3213 1766 
C 3213 902 2752 371 2003 371 
C 1254 371 787 902 787 1773 
C 787 2637 1254 3168 2016 3168 
z
" transform="scale(0.015625)"/>
        <path id="HiraginoSansGB-W3-6c" d="M 454 4902 
C 486 4672 499 4499 499 4186 
L 499 755 
C 499 467 486 269 454 38 
L 1030 38 
C 998 294 986 467 986 755 
L 986 4179 
C 986 4499 998 4672 1030 4902 
L 454 4902 
z
" transform="scale(0.015625)"/>
        <path id="HiraginoSansGB-W3-61" d="M 2733 38 
L 3251 38 
C 3213 294 3200 454 3200 742 
L 3200 2541 
C 3200 3232 2765 3590 1920 3590 
C 1440 3590 1056 3469 794 3226 
C 634 3085 550 2950 435 2656 
L 934 2547 
C 998 2739 1050 2829 1133 2918 
C 1312 3104 1574 3194 1926 3194 
C 2458 3194 2733 2970 2733 2534 
L 2733 2163 
C 1946 2144 1638 2106 1261 1997 
C 666 1830 346 1459 346 947 
C 346 339 774 -26 1478 -26 
C 1696 -26 1926 19 2144 102 
C 2362 186 2483 269 2733 493 
L 2733 38 
z
M 2733 1370 
C 2733 1114 2682 979 2534 819 
C 2285 544 1882 365 1510 365 
C 1094 365 832 589 832 941 
C 832 1248 992 1466 1318 1600 
C 1606 1722 1971 1766 2733 1786 
L 2733 1370 
z
" transform="scale(0.015625)"/>
        <path id="HiraginoSansGB-W3-6e" d="M 1030 38 
C 998 288 986 480 986 762 
L 986 1997 
C 1037 2253 1114 2413 1280 2630 
C 1549 2976 1837 3136 2195 3136 
C 2701 3136 2976 2829 2976 2253 
L 2976 762 
C 2976 480 2963 288 2931 38 
L 3507 38 
C 3475 250 3462 429 3462 755 
L 3462 2336 
C 3462 2650 3405 2886 3283 3072 
C 3078 3386 2720 3552 2259 3552 
C 1683 3552 1267 3302 966 2778 
C 986 2925 986 2976 986 3053 
L 986 3488 
L 454 3488 
C 493 3232 506 3053 506 2765 
L 506 762 
C 506 454 493 282 454 38 
L 1030 38 
z
" transform="scale(0.015625)"/>
        <path id="HiraginoSansGB-W3-65" d="M 3475 1690 
C 3462 1862 3437 2112 3430 2182 
C 3302 3040 2707 3571 1882 3571 
C 922 3571 294 2854 294 1760 
C 294 653 928 -51 1933 -51 
C 2400 -51 2790 102 3091 397 
C 3238 544 3322 659 3443 928 
L 2995 1107 
C 2816 614 2458 358 1939 358 
C 1555 358 1242 512 1037 794 
C 864 1024 800 1261 781 1690 
L 3475 1690 
z
M 800 2093 
C 838 2336 870 2451 960 2611 
C 1152 2970 1478 3168 1869 3168 
C 2176 3168 2426 3072 2624 2880 
C 2829 2682 2925 2451 2963 2093 
L 800 2093 
z
" transform="scale(0.015625)"/>
        <path id="HiraginoSansGB-W3-72" d="M 2669 3488 
C 2400 3533 2291 3546 2099 3546 
C 1792 3546 1574 3482 1331 3322 
C 1197 3232 1101 3130 979 2931 
C 986 2976 986 3072 986 3123 
L 986 3488 
L 454 3488 
C 486 3258 499 3085 499 2765 
L 499 762 
C 499 499 486 333 454 38 
L 1030 38 
C 998 288 986 467 986 755 
L 986 2061 
C 1011 2349 1069 2502 1222 2701 
C 1414 2957 1683 3091 2010 3091 
C 2170 3091 2285 3072 2528 2995 
L 2669 3488 
z
" transform="scale(0.015625)"/>
       </defs>
       <use xlink:href="#HiraginoSansGB-W3-77"/>
       <use xlink:href="#HiraginoSansGB-W3-2f" x="76.999985"/>
       <use xlink:href="#HiraginoSansGB-W3-6f" x="124.399979"/>
       <use xlink:href="#HiraginoSansGB-W3-20" x="186.899963"/>
       <use xlink:href="#HiraginoSansGB-W3-50" x="220.199951"/>
       <use xlink:href="#HiraginoSansGB-W3-6c" x="286.399948"/>
       <use xlink:href="#HiraginoSansGB-W3-61" x="309.599945"/>
       <use xlink:href="#HiraginoSansGB-W3-6e" x="367.09993"/>
       <use xlink:href="#HiraginoSansGB-W3-6e" x="428.899918"/>
       <use xlink:href="#HiraginoSansGB-W3-65" x="490.699905"/>
       <use xlink:href="#HiraginoSansGB-W3-72" x="549.499893"/>
      </g>
     </g>
    </g>
    <g id="xtick_3">
     <g id="line2d_5">
      <path d="M 144.429775 173.331924 
L 144.429775 9.015234 
" clip-path="url(#p76907da886)" style="fill: none; stroke: #e5e7eb; stroke-opacity: 0.7; stroke-width: 0.6; stroke-linecap: square"/>
     </g>
     <g id="line2d_6">
      <g>
       <use xlink:href="#m9c07ba2d66" x="144.429775" y="173.331924" style="fill: #374151; stroke: #374151; stroke-width: 0.6"/>
      </g>
     </g>
     <g id="text_3">
      <!-- w/o Verifier -->
      <g style="fill: #374151" transform="translate(96.618911 201.884282) rotate(-18) scale(0.085 -0.085)">
       <defs>
        <path id="HiraginoSansGB-W3-56" d="M 934 4250 
C 851 4486 787 4698 749 4902 
L 90 4902 
C 166 4768 275 4531 416 4160 
L 1786 634 
C 1920 301 1965 173 1990 38 
L 2611 38 
C 2643 173 2701 352 2810 634 
L 4179 4160 
C 4339 4576 4403 4730 4506 4902 
L 3840 4902 
C 3821 4736 3770 4550 3654 4250 
L 2451 973 
C 2406 838 2368 723 2304 525 
C 2240 717 2176 902 2150 973 
L 934 4250 
z
" transform="scale(0.015625)"/>
        <path id="HiraginoSansGB-W3-69" d="M 448 4902 
L 448 4333 
L 1069 4333 
L 1069 4902 
L 448 4902 
z
M 467 3488 
C 499 3264 512 3072 512 2765 
L 512 762 
C 512 493 499 314 467 38 
L 1043 38 
C 1011 288 998 467 998 762 
L 998 2765 
C 998 3085 1011 3264 1043 3488 
L 467 3488 
z
" transform="scale(0.015625)"/>
        <path id="HiraginoSansGB-W3-66" d="M 915 3078 
L 915 762 
C 915 493 902 275 870 38 
L 1446 38 
C 1414 275 1402 454 1402 755 
L 1402 3078 
L 1722 3078 
C 2035 3078 2182 3072 2400 3040 
L 2400 3526 
C 2163 3494 1997 3488 1722 3488 
L 1402 3488 
L 1402 3840 
C 1402 4141 1427 4275 1498 4378 
C 1581 4493 1728 4550 1933 4550 
C 2131 4550 2291 4506 2464 4403 
L 2598 4832 
C 2368 4922 2170 4960 1920 4960 
C 1562 4960 1267 4845 1114 4646 
C 966 4461 915 4256 915 3866 
L 915 3488 
L 653 3488 
C 397 3488 243 3501 70 3526 
L 70 3040 
C 269 3066 429 3078 653 3078 
L 915 3078 
z
" transform="scale(0.015625)"/>
       </defs>
       <use xlink:href="#HiraginoSansGB-W3-77"/>
       <use xlink:href="#HiraginoSansGB-W3-2f" x="76.999985"/>
       <use xlink:href="#HiraginoSansGB-W3-6f" x="124.399979"/>
       <use xlink:href="#HiraginoSansGB-W3-20" x="186.899963"/>
       <use xlink:href="#HiraginoSansGB-W3-56" x="220.199951"/>
       <use xlink:href="#HiraginoSansGB-W3-65" x="291.899933"/>
       <use xlink:href="#HiraginoSansGB-W3-72" x="350.699921"/>
       <use xlink:href="#HiraginoSansGB-W3-69" x="393.699905"/>
       <use xlink:href="#HiraginoSansGB-W3-66" x="417.499893"/>
       <use xlink:href="#HiraginoSansGB-W3-69" x="459.19989"/>
       <use xlink:href="#HiraginoSansGB-W3-65" x="482.999878"/>
       <use xlink:href="#HiraginoSansGB-W3-72" x="541.799866"/>
      </g>
     </g>
    </g>
    <g id="xtick_4">
     <g id="line2d_7">
      <path d="M 185.462919 173.331924 
L 185.462919 9.015234 
" clip-path="url(#p76907da886)" style="fill: none; stroke: #e5e7eb; stroke-opacity: 0.7; stroke-width: 0.6; stroke-linecap: square"/>
     </g>
     <g id="line2d_8">
      <g>
       <use xlink:href="#m9c07ba2d66" x="185.462919" y="173.331924" style="fill: #374151; stroke: #374151; stroke-width: 0.6"/>
      </g>
     </g>
     <g id="text_4">
      <!-- w/o Coordinator -->
      <g style="fill: #374151" transform="translate(118.946482 207.962091) rotate(-18) scale(0.085 -0.085)">
       <defs>
        <path id="HiraginoSansGB-W3-43" d="M 4461 3667 
C 4307 4064 4186 4256 3962 4474 
C 3616 4819 3130 4992 2528 4992 
C 1920 4992 1434 4806 1062 4448 
C 589 3981 333 3283 333 2458 
C 333 1658 576 960 1024 512 
C 1389 141 1907 -51 2522 -51 
C 3238 -51 3821 211 4179 691 
C 4333 896 4416 1075 4525 1453 
L 3994 1581 
C 3936 1286 3872 1126 3738 941 
C 3475 595 3046 403 2541 403 
C 1510 403 851 1210 851 2477 
C 851 3750 1504 4544 2541 4544 
C 3008 4544 3392 4384 3648 4083 
C 3782 3930 3853 3795 3949 3520 
L 4461 3667 
z
" transform="scale(0.015625)"/>
        <path id="HiraginoSansGB-W3-64" d="M 3162 38 
L 3674 38 
C 3642 288 3629 454 3629 774 
L 3629 4179 
C 3629 4461 3642 4646 3674 4902 
L 3110 4902 
C 3142 4659 3155 4474 3155 4173 
L 3155 3315 
C 3155 3168 3155 3110 3174 2976 
L 3181 2880 
C 2899 3322 2451 3558 1869 3558 
C 909 3558 294 2861 294 1766 
C 294 653 896 -26 1882 -26 
C 2464 -26 2880 198 3181 666 
C 3168 557 3162 442 3162 352 
L 3162 38 
z
M 1920 3142 
C 2259 3142 2566 3021 2790 2803 
C 3021 2579 3149 2208 3149 1786 
C 3149 941 2669 397 1920 397 
C 1562 397 1261 531 1062 781 
C 896 992 800 1357 800 1779 
C 800 2630 1222 3142 1920 3142 
z
" transform="scale(0.015625)"/>
        <path id="HiraginoSansGB-W3-74" d="M 858 4442 
C 890 4230 902 3987 902 3731 
L 902 3488 
L 646 3488 
C 378 3488 250 3494 70 3526 
L 70 3040 
C 282 3066 429 3078 646 3078 
L 902 3078 
L 902 787 
C 902 486 954 301 1082 173 
C 1210 45 1427 -26 1709 -26 
C 1971 -26 2170 13 2432 122 
L 2291 570 
C 2080 442 1952 403 1786 403 
C 1651 403 1542 442 1472 512 
C 1414 570 1389 666 1389 851 
L 1389 3078 
L 1696 3078 
C 1984 3078 2144 3072 2349 3040 
L 2349 3526 
C 2125 3494 1990 3488 1696 3488 
L 1389 3488 
L 1389 3731 
C 1389 4006 1402 4237 1434 4442 
L 858 4442 
z
" transform="scale(0.015625)"/>
       </defs>
       <use xlink:href="#HiraginoSansGB-W3-77"/>
       <use xlink:href="#HiraginoSansGB-W3-2f" x="76.999985"/>
       <use xlink:href="#HiraginoSansGB-W3-6f" x="124.399979"/>
       <use xlink:href="#HiraginoSansGB-W3-20" x="186.899963"/>
       <use xlink:href="#HiraginoSansGB-W3-43" x="220.199951"/>
       <use xlink:href="#HiraginoSansGB-W3-6f" x="295.799942"/>
       <use xlink:href="#HiraginoSansGB-W3-6f" x="358.299927"/>
       <use xlink:href="#HiraginoSansGB-W3-72" x="420.799911"/>
       <use xlink:href="#HiraginoSansGB-W3-64" x="463.799896"/>
       <use xlink:href="#HiraginoSansGB-W3-69" x="528.399887"/>
       <use xlink:href="#HiraginoSansGB-W3-6e" x="552.199875"/>
       <use xlink:href="#HiraginoSansGB-W3-61" x="613.999863"/>
       <use xlink:href="#HiraginoSansGB-W3-74" x="671.499847"/>
       <use xlink:href="#HiraginoSansGB-W3-6f" x="710.699844"/>
       <use xlink:href="#HiraginoSansGB-W3-72" x="773.199829"/>
      </g>
     </g>
    </g>
   </g>
   <g id="matplotlib.axis_2">
    <g id="ytick_1">
     <g id="line2d_9">
      <path d="M 42.667578 162.377478 
L 205.158828 162.377478 
" clip-path="url(#p76907da886)" style="fill: none; stroke: #e5e7eb; stroke-opacity: 0.7; stroke-width: 0.6; stroke-linecap: square"/>
     </g>
     <g id="line2d_10">
      <defs>
       <path id="m46b54f5544" d="M 0 0 
L -3.5 0 
" style="stroke: #374151; stroke-width: 0.6"/>
      </defs>
      <g>
       <use xlink:href="#m46b54f5544" x="42.667578" y="162.377478" style="fill: #374151; stroke: #374151; stroke-width: 0.6"/>
      </g>
     </g>
     <g id="text_5">
      <!-- 86 -->
      <g style="fill: #374151" transform="translate(24.498047 165.632712) scale(0.085 -0.085)">
       <defs>
        <path id="HiraginoSansGB-W3-38" d="M 2752 2586 
C 3322 2694 3680 3142 3680 3738 
C 3680 4525 3078 5005 2099 5005 
C 1133 5005 525 4512 525 3738 
C 525 3142 890 2688 1453 2586 
C 1216 2547 1075 2496 877 2368 
C 493 2118 307 1766 307 1306 
C 307 422 954 -64 2125 -64 
C 3251 -64 3891 429 3891 1306 
C 3891 1734 3731 2074 3411 2310 
C 3200 2470 3021 2547 2752 2586 
z
M 2099 4576 
C 2758 4576 3181 4237 3181 3699 
C 3181 3130 2778 2784 2106 2784 
C 1434 2784 1024 3130 1024 3699 
C 1024 4230 1446 4576 2099 4576 
z
M 2099 2342 
C 2886 2342 3366 1965 3366 1338 
C 3366 1075 3283 851 3123 704 
C 2906 486 2541 371 2093 371 
C 1299 371 832 730 832 1338 
C 832 1958 1312 2342 2099 2342 
z
" transform="scale(0.015625)"/>
        <path id="HiraginoSansGB-W3-36" d="M 3725 4006 
C 3539 4390 3411 4563 3187 4723 
C 2944 4896 2598 4992 2214 4992 
C 1658 4992 1203 4755 864 4294 
C 557 3878 378 3162 378 2362 
C 378 1453 608 736 1024 352 
C 1299 96 1728 -51 2182 -51 
C 3194 -51 3859 602 3859 1594 
C 3859 2579 3245 3194 2253 3194 
C 1811 3194 1472 3072 1171 2803 
C 1030 2682 966 2592 851 2394 
C 896 3091 954 3386 1120 3770 
C 1350 4294 1728 4563 2227 4563 
C 2547 4563 2797 4454 2989 4243 
C 3085 4134 3130 4045 3213 3840 
L 3725 4006 
z
M 3354 1581 
C 3354 1331 3290 1069 3187 902 
C 2989 582 2605 384 2189 384 
C 1498 384 979 896 979 1587 
C 979 1907 1088 2189 1299 2400 
C 1523 2624 1862 2765 2182 2765 
C 2931 2765 3354 2336 3354 1581 
z
" transform="scale(0.015625)"/>
       </defs>
       <use xlink:href="#HiraginoSansGB-W3-38"/>
       <use xlink:href="#HiraginoSansGB-W3-36" x="65.699997"/>
      </g>
     </g>
    </g>
    <g id="ytick_2">
     <g id="line2d_11">
      <path d="M 42.667578 140.468586 
L 205.158828 140.468586 
" clip-path="url(#p76907da886)" style="fill: none; stroke: #e5e7eb; stroke-opacity: 0.7; stroke-width: 0.6; stroke-linecap: square"/>
     </g>
     <g id="line2d_12">
      <g>
       <use xlink:href="#m46b54f5544" x="42.667578" y="140.468586" style="fill: #374151; stroke: #374151; stroke-width: 0.6"/>
      </g>
     </g>
     <g id="text_6">
      <!-- 88 -->
      <g style="fill: #374151" transform="translate(24.498047 143.72382) scale(0.085 -0.085)">
       <use xlink:href="#HiraginoSansGB-W3-38"/>
       <use xlink:href="#HiraginoSansGB-W3-38" x="65.699997"/>
      </g>
     </g>
    </g>
    <g id="ytick_3">
     <g id="line2d_13">
      <path d="M 42.667578 118.559694 
L 205.158828 118.559694 
" clip-path="url(#p76907da886)" style="fill: none; stroke: #e5e7eb; stroke-opacity: 0.7; stroke-width: 0.6; stroke-linecap: square"/>
     </g>
     <g id="line2d_14">
      <g>
       <use xlink:href="#m46b54f5544" x="42.667578" y="118.559694" style="fill: #374151; stroke: #374151; stroke-width: 0.6"/>
      </g>
     </g>
     <g id="text_7">
      <!-- 90 -->
      <g style="fill: #374151" transform="translate(24.498047 121.814928) scale(0.085 -0.085)">
       <defs>
        <path id="HiraginoSansGB-W3-39" d="M 416 934 
C 582 595 685 448 864 301 
C 1139 70 1498 -45 1939 -45 
C 2528 -45 2950 147 3270 550 
C 3616 979 3802 1702 3802 2592 
C 3802 3142 3744 3578 3616 3923 
C 3373 4589 2784 4998 2067 4998 
C 1018 4998 333 4333 333 3315 
C 333 2861 493 2438 768 2163 
C 1043 1888 1446 1741 1920 1741 
C 2400 1741 2758 1882 3085 2189 
C 3200 2310 3251 2374 3341 2547 
C 3328 2221 3309 1958 3283 1798 
C 3232 1498 3130 1184 3008 979 
C 2771 576 2438 390 1978 390 
C 1626 390 1350 493 1171 691 
C 1069 800 1018 890 941 1101 
L 416 934 
z
M 1978 2170 
C 1280 2170 838 2624 838 3347 
C 838 3597 902 3853 1005 4019 
C 1216 4358 1600 4563 2022 4563 
C 2707 4563 3219 4045 3219 3354 
C 3219 2675 2688 2170 1978 2170 
z
" transform="scale(0.015625)"/>
        <path id="HiraginoSansGB-W3-30" d="M 2099 -58 
C 2688 -58 3136 166 3456 614 
C 3738 1005 3904 1690 3904 2464 
C 3904 2995 3821 3507 3661 3949 
C 3584 4160 3456 4358 3277 4538 
C 2989 4838 2579 4992 2106 4992 
C 1472 4992 979 4723 672 4205 
C 448 3834 301 3142 301 2464 
C 301 1939 384 1434 544 986 
C 621 768 755 570 928 397 
C 1229 96 1626 -58 2099 -58 
z
M 2099 4550 
C 2547 4550 2893 4352 3104 3968 
C 3270 3667 3392 3034 3392 2477 
C 3392 2003 3328 1581 3194 1184 
C 3136 998 3034 832 2893 685 
C 2701 486 2426 384 2106 384 
C 1670 384 1338 570 1114 941 
C 941 1242 813 1869 813 2464 
C 813 2931 877 3366 1011 3757 
C 1062 3917 1165 4077 1299 4224 
C 1504 4442 1766 4550 2099 4550 
z
" transform="scale(0.015625)"/>
       </defs>
       <use xlink:href="#HiraginoSansGB-W3-39"/>
       <use xlink:href="#HiraginoSansGB-W3-30" x="65.699997"/>
      </g>
     </g>
    </g>
    <g id="ytick_4">
     <g id="line2d_15">
      <path d="M 42.667578 96.650802 
L 205.158828 96.650802 
" clip-path="url(#p76907da886)" style="fill: none; stroke: #e5e7eb; stroke-opacity: 0.7; stroke-width: 0.6; stroke-linecap: square"/>
     </g>
     <g id="line2d_16">
      <g>
       <use xlink:href="#m46b54f5544" x="42.667578" y="96.650802" style="fill: #374151; stroke: #374151; stroke-width: 0.6"/>
      </g>
     </g>
     <g id="text_8">
      <!-- 92 -->
      <g style="fill: #374151" transform="translate(24.498047 99.906037) scale(0.085 -0.085)">
       <defs>
        <path id="HiraginoSansGB-W3-32" d="M 3027 38 
C 3347 38 3558 26 3814 0 
L 3814 538 
C 3571 506 3354 493 3034 493 
L 992 493 
C 1069 800 1158 973 1357 1235 
C 1568 1504 1773 1683 2278 2022 
C 3008 2509 3174 2630 3366 2848 
C 3616 3123 3744 3430 3744 3757 
C 3744 4512 3123 4998 2157 4998 
C 1594 4998 1158 4832 870 4506 
C 659 4269 563 4045 467 3584 
L 1005 3494 
C 1050 3814 1107 3968 1229 4141 
C 1421 4416 1734 4557 2157 4557 
C 2810 4557 3219 4243 3219 3757 
C 3219 3366 3008 3085 2374 2656 
C 1632 2150 1619 2144 1395 1952 
C 992 1606 723 1254 563 851 
C 467 608 448 512 378 6 
C 582 32 678 38 1082 38 
L 3027 38 
z
" transform="scale(0.015625)"/>
       </defs>
       <use xlink:href="#HiraginoSansGB-W3-39"/>
       <use xlink:href="#HiraginoSansGB-W3-32" x="65.699997"/>
      </g>
     </g>
    </g>
    <g id="ytick_5">
     <g id="line2d_17">
      <path d="M 42.667578 74.74191 
L 205.158828 74.74191 
" clip-path="url(#p76907da886)" style="fill: none; stroke: #e5e7eb; stroke-opacity: 0.7; stroke-width: 0.6; stroke-linecap: square"/>
     </g>
     <g id="line2d_18">
      <g>
       <use xlink:href="#m46b54f5544" x="42.667578" y="74.74191" style="fill: #374151; stroke: #374151; stroke-width: 0.6"/>
      </g>
     </g>
     <g id="text_9">
      <!-- 94 -->
      <g style="fill: #374151" transform="translate(24.464844 77.997145) scale(0.085 -0.085)">
       <defs>
        <path id="HiraginoSansGB-W3-34" d="M 198 1254 
C 410 1274 602 1280 960 1280 
L 2675 1280 
L 2675 730 
C 2675 442 2662 262 2624 38 
L 3206 38 
C 3168 275 3155 422 3155 730 
L 3155 1280 
L 3392 1280 
C 3667 1280 3827 1267 4064 1235 
L 4064 1766 
C 3834 1734 3667 1722 3398 1722 
L 3155 1722 
L 3155 3821 
C 3155 4326 3162 4525 3194 4902 
L 2714 4902 
C 2566 4678 2451 4518 2234 4250 
L 614 2227 
C 480 2067 333 1888 198 1734 
L 198 1254 
z
M 2682 1715 
L 768 1715 
L 2240 3571 
C 2426 3808 2586 4019 2720 4211 
C 2688 3885 2682 3680 2682 3341 
L 2682 1715 
z
" transform="scale(0.015625)"/>
       </defs>
       <use xlink:href="#HiraginoSansGB-W3-39"/>
       <use xlink:href="#HiraginoSansGB-W3-34" x="65.699997"/>
      </g>
     </g>
    </g>
    <g id="ytick_6">
     <g id="line2d_19">
      <path d="M 42.667578 52.833018 
L 205.158828 52.833018 
" clip-path="url(#p76907da886)" style="fill: none; stroke: #e5e7eb; stroke-opacity: 0.7; stroke-width: 0.6; stroke-linecap: square"/>
     </g>
     <g id="line2d_20">
      <g>
       <use xlink:href="#m46b54f5544" x="42.667578" y="52.833018" style="fill: #374151; stroke: #374151; stroke-width: 0.6"/>
      </g>
     </g>
     <g id="text_10">
      <!-- 96 -->
      <g style="fill: #374151" transform="translate(24.498047 56.088253) scale(0.085 -0.085)">
       <use xlink:href="#HiraginoSansGB-W3-39"/>
       <use xlink:href="#HiraginoSansGB-W3-36" x="65.699997"/>
      </g>
     </g>
    </g>
    <g id="ytick_7">
     <g id="line2d_21">
      <path d="M 42.667578 30.924126 
L 205.158828 30.924126 
" clip-path="url(#p76907da886)" style="fill: none; stroke: #e5e7eb; stroke-opacity: 0.7; stroke-width: 0.6; stroke-linecap: square"/>
     </g>
     <g id="line2d_22">
      <g>
       <use xlink:href="#m46b54f5544" x="42.667578" y="30.924126" style="fill: #374151; stroke: #374151; stroke-width: 0.6"/>
      </g>
     </g>
     <g id="text_11">
      <!-- 98 -->
      <g style="fill: #374151" transform="translate(24.498047 34.179361) scale(0.085 -0.085)">
       <use xlink:href="#HiraginoSansGB-W3-39"/>
       <use xlink:href="#HiraginoSansGB-W3-38" x="65.699997"/>
      </g>
     </g>
    </g>
    <g id="ytick_8">
     <g id="line2d_23">
      <path d="M 42.667578 9.015234 
L 205.158828 9.015234 
" clip-path="url(#p76907da886)" style="fill: none; stroke: #e5e7eb; stroke-opacity: 0.7; stroke-width: 0.6; stroke-linecap: square"/>
     </g>
     <g id="line2d_24">
      <g>
       <use xlink:href="#m46b54f5544" x="42.667578" y="9.015234" style="fill: #374151; stroke: #374151; stroke-width: 0.6"/>
      </g>
     </g>
     <g id="text_12">
      <!-- 100 -->
      <g style="fill: #374151" transform="translate(18.913281 12.270469) scale(0.085 -0.085)">
       <defs>
        <path id="HiraginoSansGB-W3-31" d="M 1030 4429 
C 1216 4454 1382 4467 1587 4467 
L 1933 4467 
L 1933 762 
C 1933 467 1920 262 1882 38 
L 2490 38 
C 2451 275 2438 461 2438 762 
L 2438 3872 
C 2438 4218 2458 4544 2496 4934 
C 2285 4909 2182 4902 1965 4902 
L 1562 4902 
C 1318 4902 1197 4909 1030 4934 
L 1030 4429 
z
" transform="scale(0.015625)"/>
       </defs>
       <use xlink:href="#HiraginoSansGB-W3-31"/>
       <use xlink:href="#HiraginoSansGB-W3-30" x="65.699997"/>
       <use xlink:href="#HiraginoSansGB-W3-30" x="131.399994"/>
      </g>
     </g>
    </g>
    <g id="text_13">
     <!-- 综合得分 (OS) -->
     <g style="fill: #1f2937" transform="translate(13.076719 120.463657) rotate(-90) scale(0.09 -0.09)">
      <defs>
       <path id="HiraginoSansGB-W3-7efc" d="M 4531 4646 
C 4429 4877 4282 5126 4096 5370 
L 3776 5197 
C 3904 5018 3962 4922 4122 4646 
L 3206 4646 
C 2963 4646 2714 4659 2528 4678 
C 2547 4544 2547 4486 2547 4307 
L 2547 3866 
C 2547 3667 2541 3590 2528 3450 
L 2918 3450 
L 2918 4294 
L 5638 4294 
L 5638 3437 
L 6042 3437 
C 6022 3584 6016 3686 6016 3872 
L 6016 4269 
C 6016 4474 6022 4544 6035 4678 
C 5856 4659 5638 4646 5421 4646 
L 4531 4646 
z
M 4058 2272 
L 4058 147 
C 4058 38 4013 13 3846 13 
C 3667 13 3507 26 3226 64 
C 3296 -90 3328 -192 3354 -358 
C 3539 -371 3667 -378 3814 -378 
C 4077 -378 4205 -358 4288 -314 
C 4416 -243 4467 -122 4467 102 
L 4467 2272 
L 5408 2272 
C 5632 2272 5837 2259 6010 2234 
L 6010 2662 
C 5837 2637 5670 2624 5408 2624 
L 3219 2624 
C 2957 2624 2803 2637 2630 2662 
L 2630 2234 
C 2810 2266 2963 2272 3219 2272 
L 4058 2272 
z
M 486 1376 
C 698 1427 787 1446 979 1478 
C 1197 1523 2067 1696 2413 1773 
L 2426 2144 
C 1747 1978 1440 1914 1011 1850 
C 1101 1926 1101 1926 1197 2054 
L 1760 2758 
C 1850 2874 2163 3334 2406 3699 
L 2042 3904 
C 1920 3680 1882 3616 1766 3437 
C 1498 3411 1210 3392 896 3373 
C 1133 3731 1299 4038 1587 4672 
C 1632 4768 1632 4768 1798 5120 
L 1382 5286 
C 1069 4429 1018 4314 813 3898 
C 589 3462 557 3424 358 3347 
L 448 2970 
C 973 3046 1254 3078 1549 3098 
C 1312 2752 1126 2496 864 2176 
C 646 1907 557 1824 365 1766 
L 486 1376 
z
M 3155 1843 
C 2957 1075 2784 710 2355 166 
C 2522 70 2579 26 2682 -96 
C 3098 480 3296 902 3526 1702 
L 3155 1843 
z
M 4954 1677 
C 5274 1120 5504 627 5728 -26 
L 6099 173 
C 5734 1024 5549 1408 5280 1830 
L 4954 1677 
z
M 3085 3245 
C 3245 3264 3379 3270 3578 3270 
L 4992 3270 
C 5197 3270 5325 3264 5478 3245 
L 5478 3661 
C 5325 3642 5216 3635 4992 3635 
L 3584 3635 
C 3360 3635 3238 3642 3085 3661 
L 3085 3245 
z
M 2394 922 
C 1696 646 646 352 358 352 
C 346 352 333 352 314 352 
L 435 -90 
C 512 -64 544 -51 646 -26 
C 1395 173 1747 282 2406 531 
L 2394 922 
z
" transform="scale(0.015625)"/>
       <path id="HiraginoSansGB-W3-5408" d="M 3456 5312 
L 3053 5491 
C 2816 5062 2528 4698 2118 4314 
C 1549 3776 1018 3437 224 3098 
C 358 2950 410 2880 467 2733 
C 698 2842 851 2925 1165 3110 
C 1613 3379 1939 3622 2406 4038 
C 2707 4314 2854 4474 3149 4864 
C 3795 4013 4755 3283 5978 2726 
C 6048 2880 6118 2982 6227 3110 
C 5606 3341 5043 3661 4474 4096 
C 3981 4474 3693 4774 3386 5210 
L 3456 5312 
z
M 1690 2925 
C 1824 2944 1990 2950 2189 2950 
L 4179 2950 
C 4422 2950 4576 2944 4717 2925 
L 4717 3360 
C 4582 3341 4429 3334 4179 3334 
L 2195 3334 
C 1958 3334 1805 3341 1690 3360 
L 1690 2925 
z
M 1645 -416 
L 1645 -45 
L 4736 -45 
L 4736 -416 
L 5197 -416 
C 5171 -230 5158 -38 5158 211 
L 5158 1626 
C 5158 1875 5165 2042 5190 2214 
C 5056 2195 4922 2189 4691 2189 
L 1690 2189 
C 1459 2189 1325 2195 1190 2214 
C 1216 2035 1222 1862 1222 1626 
L 1222 211 
C 1222 -32 1210 -218 1184 -416 
L 1645 -416 
z
M 1645 1798 
L 4736 1798 
L 4736 333 
L 1645 333 
L 1645 1798 
z
" transform="scale(0.015625)"/>
       <path id="HiraginoSansGB-W3-5f97" d="M 5114 2285 
L 5267 2285 
C 5498 2285 5677 2278 5856 2253 
L 5856 2669 
C 5702 2643 5530 2630 5261 2630 
L 2547 2630 
C 2259 2630 2112 2637 1952 2662 
L 1952 2253 
C 2125 2278 2310 2285 2541 2285 
L 4717 2285 
L 4717 1760 
L 2406 1760 
C 2150 1760 1984 1773 1818 1798 
L 1818 1382 
C 2003 1408 2170 1414 2406 1414 
L 4717 1414 
L 4717 154 
C 4717 19 4672 -6 4429 -6 
C 4250 -6 3994 26 3680 77 
C 3744 -77 3763 -166 3782 -352 
C 4032 -371 4218 -378 4416 -378 
C 4736 -378 4877 -352 4966 -294 
C 5069 -218 5114 -102 5114 83 
L 5114 1414 
L 5357 1414 
C 5600 1414 5766 1408 5946 1382 
L 5946 1798 
C 5779 1773 5613 1760 5350 1760 
L 5114 1760 
L 5114 2285 
z
M 1613 5344 
C 1382 4832 896 4320 288 3942 
C 410 3840 480 3763 557 3642 
C 922 3891 1184 4128 1485 4474 
C 1632 4646 1632 4646 1971 5107 
L 1613 5344 
z
M 4922 3091 
C 5178 3091 5363 3085 5517 3066 
C 5498 3219 5491 3373 5491 3661 
L 5491 4486 
C 5491 4768 5498 4928 5517 5082 
C 5370 5062 5203 5056 4902 5056 
L 3098 5056 
C 2797 5056 2637 5062 2477 5082 
C 2490 4922 2496 4813 2496 4499 
L 2496 3667 
C 2496 3347 2490 3226 2477 3066 
C 2618 3085 2803 3091 3078 3091 
L 4922 3091 
z
M 2880 4730 
L 5101 4730 
L 5101 4250 
L 2880 4250 
L 2880 4730 
z
M 2880 3923 
L 5101 3923 
L 5101 3411 
L 2880 3411 
L 2880 3923 
z
M 3750 371 
C 3424 794 3251 986 2906 1312 
L 2598 1075 
C 2944 755 3142 518 3418 83 
L 3750 371 
z
M 1069 237 
C 1069 -83 1056 -282 1030 -467 
L 1517 -467 
C 1485 -262 1478 -90 1478 250 
L 1478 2938 
C 1651 3168 1754 3315 1792 3373 
C 1862 3488 1914 3571 1939 3610 
C 2003 3712 2003 3712 2035 3757 
L 1664 3994 
C 1587 3789 1510 3635 1382 3443 
C 1056 2950 666 2554 186 2221 
C 288 2118 346 2035 429 1875 
C 730 2106 902 2278 1088 2534 
C 1075 2246 1069 2048 1069 1792 
L 1069 237 
z
" transform="scale(0.015625)"/>
       <path id="HiraginoSansGB-W3-5206" d="M 4435 2637 
C 4435 1530 4358 666 4224 275 
C 4179 147 4109 115 3917 115 
C 3661 115 3373 147 3002 218 
C 3066 32 3085 -64 3104 -237 
C 3520 -275 3718 -288 3942 -288 
C 4320 -288 4467 -230 4576 -32 
C 4742 269 4864 1350 4864 2592 
C 4870 2880 4870 2931 4890 3046 
C 4704 3021 4512 3014 4218 3014 
L 2112 3014 
C 1850 3014 1632 3027 1446 3053 
L 1446 2598 
C 1645 2624 1862 2637 2106 2637 
L 2509 2637 
C 2464 2061 2374 1722 2163 1318 
C 1856 736 1370 314 550 -83 
C 685 -211 749 -294 832 -442 
C 1613 -38 2112 397 2445 954 
C 2739 1440 2893 1965 2944 2637 
L 4435 2637 
z
M 2246 5293 
C 2214 5101 2131 4902 1971 4621 
C 1542 3853 992 3264 218 2746 
C 365 2624 448 2528 531 2400 
C 1434 3066 2054 3808 2547 4800 
C 2643 4998 2669 5050 2726 5126 
L 2246 5293 
z
M 3667 5114 
C 3699 5062 3738 4992 3770 4934 
C 4371 3757 4915 3110 5926 2362 
C 6022 2528 6106 2637 6227 2752 
C 5350 3328 4806 3904 4339 4742 
C 4205 4986 4147 5114 4096 5280 
L 3667 5114 
z
" transform="scale(0.015625)"/>
       <path id="HiraginoSansGB-W3-28" d="M 2093 -762 
C 1734 -211 1594 77 1453 531 
C 1306 992 1235 1478 1235 1984 
C 1235 2490 1306 2970 1453 3430 
C 1594 3885 1734 4173 2093 4723 
L 1690 4979 
C 1318 4410 1165 4102 1011 3648 
C 838 3130 749 2579 749 1984 
C 749 1389 838 838 1011 320 
C 1165 -141 1318 -448 1690 -1018 
L 2093 -762 
z
" transform="scale(0.015625)"/>
       <path id="HiraginoSansGB-W3-29" d="M 179 4723 
C 538 4173 678 3885 819 3430 
C 966 2970 1037 2496 1037 1984 
C 1037 1472 966 992 819 531 
C 678 77 538 -211 179 -762 
L 582 -1018 
C 954 -448 1107 -141 1261 320 
C 1440 838 1523 1382 1523 1984 
C 1523 2579 1440 3130 1261 3648 
C 1107 4102 954 4410 582 4979 
L 179 4723 
z
" transform="scale(0.015625)"/>
      </defs>
      <use xlink:href="#HiraginoSansGB-W3-7efc"/>
      <use xlink:href="#HiraginoSansGB-W3-5408" x="99.999985"/>
      <use xlink:href="#HiraginoSansGB-W3-5f97" x="199.999969"/>
      <use xlink:href="#HiraginoSansGB-W3-5206" x="299.999954"/>
      <use xlink:href="#HiraginoSansGB-W3-20" x="399.999939"/>
      <use xlink:href="#HiraginoSansGB-W3-28" x="433.299927"/>
      <use xlink:href="#HiraginoSansGB-W3-4f" x="468.899918"/>
      <use xlink:href="#HiraginoSansGB-W3-53" x="548.399902"/>
      <use xlink:href="#HiraginoSansGB-W3-29" x="615.299896"/>
     </g>
    </g>
   </g>
   <g id="patch_3">
    <path d="M 50.053544 1104.459832 
L 74.67343 1104.459832 
L 74.67343 54.321727 
L 50.053544 54.321727 
z
" clip-path="url(#p76907da886)" style="fill: #264653; stroke: #ffffff; stroke-width: 0.5; stroke-linejoin: miter"/>
   </g>
   <g id="patch_4">
    <path d="M 91.086688 1104.459832 
L 115.706574 1104.459832 
L 115.706574 77.151888 
L 91.086688 77.151888 
z
" clip-path="url(#p76907da886)" style="fill: #2a9d8f; stroke: #ffffff; stroke-width: 0.5; stroke-linejoin: miter"/>
   </g>
   <g id="patch_5">
    <path d="M 132.119832 1104.459832 
L 156.739718 1104.459832 
L 156.739718 67.950154 
L 132.119832 67.950154 
z
" clip-path="url(#p76907da886)" style="fill: #9c89b8; stroke: #ffffff; stroke-width: 0.5; stroke-linejoin: miter"/>
   </g>
   <g id="patch_6">
    <path d="M 173.152976 1104.459832 
L 197.772862 1104.459832 
L 197.772862 75.289633 
L 173.152976 75.289633 
z
" clip-path="url(#p76907da886)" style="fill: #e76f51; stroke: #ffffff; stroke-width: 0.5; stroke-linejoin: miter"/>
   </g>
   <g id="patch_7">
    <path d="M 42.667578 173.331924 
L 42.667578 9.015234 
" style="fill: none; stroke: #374151; stroke-width: 0.8; stroke-linejoin: miter; stroke-linecap: square"/>
   </g>
   <g id="patch_8">
    <path d="M 42.667578 173.331924 
L 205.158828 173.331924 
" style="fill: none; stroke: #374151; stroke-width: 0.8; stroke-linejoin: miter; stroke-linecap: square"/>
   </g>
   <g id="text_14">
    <!-- 95.86 -->
    <g transform="translate(51.608018 50.326508) scale(0.075 -0.075)">
     <defs>
      <path id="HiraginoSansGB-W3-35" d="M 1261 4461 
L 2765 4461 
C 3066 4461 3270 4448 3514 4410 
L 3514 4954 
C 3258 4915 3110 4902 2765 4902 
L 1446 4902 
C 1069 4902 966 4909 768 4934 
C 781 4774 781 4749 781 4659 
C 781 4538 774 4461 762 4275 
L 621 2829 
C 595 2554 576 2419 525 2170 
L 1005 2125 
C 1075 2298 1146 2387 1299 2509 
C 1530 2688 1811 2778 2138 2778 
C 2816 2778 3258 2317 3258 1613 
C 3258 877 2778 390 2061 390 
C 1690 390 1370 525 1152 768 
C 1056 877 1011 960 947 1139 
L 422 986 
C 576 678 666 544 826 384 
C 1133 96 1549 -51 2048 -51 
C 3104 -51 3776 608 3776 1638 
C 3776 2112 3635 2490 3347 2765 
C 3059 3046 2662 3200 2195 3200 
C 1754 3200 1382 3053 1075 2758 
C 1114 2931 1114 2931 1126 3046 
L 1261 4461 
z
" transform="scale(0.015625)"/>
      <path id="HiraginoSansGB-W3-2e" d="M 448 672 
L 448 38 
L 1082 38 
L 1082 672 
L 448 672 
z
" transform="scale(0.015625)"/>
     </defs>
     <use xlink:href="#HiraginoSansGB-W3-39"/>
     <use xlink:href="#HiraginoSansGB-W3-35" x="65.699997"/>
     <use xlink:href="#HiraginoSansGB-W3-2e" x="131.399994"/>
     <use xlink:href="#HiraginoSansGB-W3-38" x="155.399979"/>
     <use xlink:href="#HiraginoSansGB-W3-36" x="221.099976"/>
    </g>
   </g>
   <g id="text_15">
    <!-- 93.78 -->
    <g transform="translate(92.641162 73.156669) scale(0.075 -0.075)">
     <defs>
      <path id="HiraginoSansGB-W3-33" d="M 288 1088 
C 403 762 480 621 614 467 
C 922 122 1402 -58 2048 -58 
C 3117 -58 3782 480 3782 1344 
C 3782 1754 3635 2093 3354 2310 
C 3136 2477 2938 2547 2566 2586 
C 2861 2643 3002 2694 3168 2816 
C 3450 3014 3616 3360 3616 3750 
C 3616 4518 3027 5005 2099 5005 
C 1542 5005 1107 4845 826 4538 
C 666 4371 589 4224 480 3898 
L 1011 3782 
C 1082 4019 1126 4122 1216 4237 
C 1395 4467 1677 4576 2067 4576 
C 2714 4576 3098 4256 3098 3706 
C 3098 3475 3002 3238 2842 3085 
C 2643 2886 2330 2790 1907 2790 
C 1734 2790 1581 2803 1434 2829 
L 1434 2323 
C 1606 2342 1766 2355 1946 2355 
C 2797 2355 3251 2010 3251 1376 
C 3251 768 2784 384 2042 384 
C 1715 384 1434 461 1216 614 
C 1018 755 928 890 826 1222 
L 288 1088 
z
" transform="scale(0.015625)"/>
      <path id="HiraginoSansGB-W3-37" d="M 3789 4934 
C 3565 4909 3424 4902 3046 4902 
L 1126 4902 
C 819 4902 646 4915 397 4947 
L 397 4403 
C 640 4435 819 4448 1120 4448 
L 3200 4448 
C 2630 3674 2355 3232 2048 2592 
C 1651 1773 1478 1197 1274 38 
L 1882 38 
C 1984 781 2054 1107 2221 1638 
C 2470 2419 2739 2963 3315 3853 
C 3565 4237 3674 4378 3789 4467 
L 3789 4934 
z
" transform="scale(0.015625)"/>
     </defs>
     <use xlink:href="#HiraginoSansGB-W3-39"/>
     <use xlink:href="#HiraginoSansGB-W3-33" x="65.699997"/>
     <use xlink:href="#HiraginoSansGB-W3-2e" x="131.399994"/>
     <use xlink:href="#HiraginoSansGB-W3-37" x="155.399979"/>
     <use xlink:href="#HiraginoSansGB-W3-38" x="221.099976"/>
    </g>
   </g>
   <g id="text_16">
    <!-- 94.62 -->
    <g transform="translate(133.659658 63.954935) scale(0.075 -0.075)">
     <use xlink:href="#HiraginoSansGB-W3-39"/>
     <use xlink:href="#HiraginoSansGB-W3-34" x="65.699997"/>
     <use xlink:href="#HiraginoSansGB-W3-2e" x="131.799988"/>
     <use xlink:href="#HiraginoSansGB-W3-36" x="155.799973"/>
     <use xlink:href="#HiraginoSansGB-W3-32" x="221.499969"/>
    </g>
   </g>
   <g id="text_17">
    <!-- 93.95 -->
    <g transform="translate(174.70745 71.294413) scale(0.075 -0.075)">
     <use xlink:href="#HiraginoSansGB-W3-39"/>
     <use xlink:href="#HiraginoSansGB-W3-33" x="65.699997"/>
     <use xlink:href="#HiraginoSansGB-W3-2e" x="131.399994"/>
     <use xlink:href="#HiraginoSansGB-W3-39" x="155.399979"/>
     <use xlink:href="#HiraginoSansGB-W3-35" x="221.099976"/>
    </g>
   </g>
  </g>
  <g id="axes_2">
   <g id="patch_9">
    <path d="M 257.288828 173.331924 
L 419.780078 173.331924 
L 419.780078 9.015234 
L 257.288828 9.015234 
z
" style="fill: #ffffff"/>
   </g>
   <g id="matplotlib.axis_3">
    <g id="xtick_5">
     <g id="line2d_25">
      <path d="M 276.984737 173.331924 
L 276.984737 9.015234 
" clip-path="url(#p03454b0025)" style="fill: none; stroke: #e5e7eb; stroke-opacity: 0.7; stroke-width: 0.6; stroke-linecap: square"/>
     </g>
     <g id="line2d_26">
      <g>
       <use xlink:href="#m9c07ba2d66" x="276.984737" y="173.331924" style="fill: #374151; stroke: #374151; stroke-width: 0.6"/>
      </g>
     </g>
     <g id="text_18">
      <!-- 完整 MOPS -->
      <g style="fill: #374151" transform="translate(232.762402 200.718298) rotate(-18) scale(0.085 -0.085)">
       <use xlink:href="#HiraginoSansGB-W3-5b8c"/>
       <use xlink:href="#HiraginoSansGB-W3-6574" x="99.999985"/>
       <use xlink:href="#HiraginoSansGB-W3-20" x="199.999969"/>
       <use xlink:href="#HiraginoSansGB-W3-4d" x="233.299957"/>
       <use xlink:href="#HiraginoSansGB-W3-4f" x="327.799942"/>
       <use xlink:href="#HiraginoSansGB-W3-50" x="407.299927"/>
       <use xlink:href="#HiraginoSansGB-W3-53" x="473.499924"/>
      </g>
     </g>
    </g>
    <g id="xtick_6">
     <g id="line2d_27">
      <path d="M 318.017881 173.331924 
L 318.017881 9.015234 
" clip-path="url(#p03454b0025)" style="fill: none; stroke: #e5e7eb; stroke-opacity: 0.7; stroke-width: 0.6; stroke-linecap: square"/>
     </g>
     <g id="line2d_28">
      <g>
       <use xlink:href="#m9c07ba2d66" x="318.017881" y="173.331924" style="fill: #374151; stroke: #374151; stroke-width: 0.6"/>
      </g>
     </g>
     <g id="text_19">
      <!-- w/o Planner -->
      <g style="fill: #374151" transform="translate(269.584298 202.086616) rotate(-18) scale(0.085 -0.085)">
       <use xlink:href="#HiraginoSansGB-W3-77"/>
       <use xlink:href="#HiraginoSansGB-W3-2f" x="76.999985"/>
       <use xlink:href="#HiraginoSansGB-W3-6f" x="124.399979"/>
       <use xlink:href="#HiraginoSansGB-W3-20" x="186.899963"/>
       <use xlink:href="#HiraginoSansGB-W3-50" x="220.199951"/>
       <use xlink:href="#HiraginoSansGB-W3-6c" x="286.399948"/>
       <use xlink:href="#HiraginoSansGB-W3-61" x="309.599945"/>
       <use xlink:href="#HiraginoSansGB-W3-6e" x="367.09993"/>
       <use xlink:href="#HiraginoSansGB-W3-6e" x="428.899918"/>
       <use xlink:href="#HiraginoSansGB-W3-65" x="490.699905"/>
       <use xlink:href="#HiraginoSansGB-W3-72" x="549.499893"/>
      </g>
     </g>
    </g>
    <g id="xtick_7">
     <g id="line2d_29">
      <path d="M 359.051025 173.331924 
L 359.051025 9.015234 
" clip-path="url(#p03454b0025)" style="fill: none; stroke: #e5e7eb; stroke-opacity: 0.7; stroke-width: 0.6; stroke-linecap: square"/>
     </g>
     <g id="line2d_30">
      <g>
       <use xlink:href="#m9c07ba2d66" x="359.051025" y="173.331924" style="fill: #374151; stroke: #374151; stroke-width: 0.6"/>
      </g>
     </g>
     <g id="text_20">
      <!-- w/o Verifier -->
      <g style="fill: #374151" transform="translate(311.240161 201.884282) rotate(-18) scale(0.085 -0.085)">
       <use xlink:href="#HiraginoSansGB-W3-77"/>
       <use xlink:href="#HiraginoSansGB-W3-2f" x="76.999985"/>
       <use xlink:href="#HiraginoSansGB-W3-6f" x="124.399979"/>
       <use xlink:href="#HiraginoSansGB-W3-20" x="186.899963"/>
       <use xlink:href="#HiraginoSansGB-W3-56" x="220.199951"/>
       <use xlink:href="#HiraginoSansGB-W3-65" x="291.899933"/>
       <use xlink:href="#HiraginoSansGB-W3-72" x="350.699921"/>
       <use xlink:href="#HiraginoSansGB-W3-69" x="393.699905"/>
       <use xlink:href="#HiraginoSansGB-W3-66" x="417.499893"/>
       <use xlink:href="#HiraginoSansGB-W3-69" x="459.19989"/>
       <use xlink:href="#HiraginoSansGB-W3-65" x="482.999878"/>
       <use xlink:href="#HiraginoSansGB-W3-72" x="541.799866"/>
      </g>
     </g>
    </g>
    <g id="xtick_8">
     <g id="line2d_31">
      <path d="M 400.084169 173.331924 
L 400.084169 9.015234 
" clip-path="url(#p03454b0025)" style="fill: none; stroke: #e5e7eb; stroke-opacity: 0.7; stroke-width: 0.6; stroke-linecap: square"/>
     </g>
     <g id="line2d_32">
      <g>
       <use xlink:href="#m9c07ba2d66" x="400.084169" y="173.331924" style="fill: #374151; stroke: #374151; stroke-width: 0.6"/>
      </g>
     </g>
     <g id="text_21">
      <!-- w/o Coordinator -->
      <g style="fill: #374151" transform="translate(333.567732 207.962091) rotate(-18) scale(0.085 -0.085)">
       <use xlink:href="#HiraginoSansGB-W3-77"/>
       <use xlink:href="#HiraginoSansGB-W3-2f" x="76.999985"/>
       <use xlink:href="#HiraginoSansGB-W3-6f" x="124.399979"/>
       <use xlink:href="#HiraginoSansGB-W3-20" x="186.899963"/>
       <use xlink:href="#HiraginoSansGB-W3-43" x="220.199951"/>
       <use xlink:href="#HiraginoSansGB-W3-6f" x="295.799942"/>
       <use xlink:href="#HiraginoSansGB-W3-6f" x="358.299927"/>
       <use xlink:href="#HiraginoSansGB-W3-72" x="420.799911"/>
       <use xlink:href="#HiraginoSansGB-W3-64" x="463.799896"/>
       <use xlink:href="#HiraginoSansGB-W3-69" x="528.399887"/>
       <use xlink:href="#HiraginoSansGB-W3-6e" x="552.199875"/>
       <use xlink:href="#HiraginoSansGB-W3-61" x="613.999863"/>
       <use xlink:href="#HiraginoSansGB-W3-74" x="671.499847"/>
       <use xlink:href="#HiraginoSansGB-W3-6f" x="710.699844"/>
       <use xlink:href="#HiraginoSansGB-W3-72" x="773.199829"/>
      </g>
     </g>
    </g>
   </g>
   <g id="matplotlib.axis_4">
    <g id="ytick_9">
     <g id="line2d_33">
      <path d="M 257.288828 173.331924 
L 419.780078 173.331924 
" clip-path="url(#p03454b0025)" style="fill: none; stroke: #e5e7eb; stroke-opacity: 0.7; stroke-width: 0.6; stroke-linecap: square"/>
     </g>
     <g id="line2d_34">
      <g>
       <use xlink:href="#m46b54f5544" x="257.288828" y="173.331924" style="fill: #374151; stroke: #374151; stroke-width: 0.6"/>
      </g>
     </g>
     <g id="text_22">
      <!-- 0.90 -->
      <g style="fill: #374151" transform="translate(231.494531 176.587158) scale(0.085 -0.085)">
       <use xlink:href="#HiraginoSansGB-W3-30"/>
       <use xlink:href="#HiraginoSansGB-W3-2e" x="65.699997"/>
       <use xlink:href="#HiraginoSansGB-W3-39" x="89.699982"/>
       <use xlink:href="#HiraginoSansGB-W3-30" x="155.399979"/>
      </g>
     </g>
    </g>
    <g id="ytick_10">
     <g id="line2d_35">
      <path d="M 257.288828 145.945809 
L 419.780078 145.945809 
" clip-path="url(#p03454b0025)" style="fill: none; stroke: #e5e7eb; stroke-opacity: 0.7; stroke-width: 0.6; stroke-linecap: square"/>
     </g>
     <g id="line2d_36">
      <g>
       <use xlink:href="#m46b54f5544" x="257.288828" y="145.945809" style="fill: #374151; stroke: #374151; stroke-width: 0.6"/>
      </g>
     </g>
     <g id="text_23">
      <!-- 0.92 -->
      <g style="fill: #374151" transform="translate(231.494531 149.201043) scale(0.085 -0.085)">
       <use xlink:href="#HiraginoSansGB-W3-30"/>
       <use xlink:href="#HiraginoSansGB-W3-2e" x="65.699997"/>
       <use xlink:href="#HiraginoSansGB-W3-39" x="89.699982"/>
       <use xlink:href="#HiraginoSansGB-W3-32" x="155.399979"/>
      </g>
     </g>
    </g>
    <g id="ytick_11">
     <g id="line2d_37">
      <path d="M 257.288828 118.559694 
L 419.780078 118.559694 
" clip-path="url(#p03454b0025)" style="fill: none; stroke: #e5e7eb; stroke-opacity: 0.7; stroke-width: 0.6; stroke-linecap: square"/>
     </g>
     <g id="line2d_38">
      <g>
       <use xlink:href="#m46b54f5544" x="257.288828" y="118.559694" style="fill: #374151; stroke: #374151; stroke-width: 0.6"/>
      </g>
     </g>
     <g id="text_24">
      <!-- 0.94 -->
      <g style="fill: #374151" transform="translate(231.461328 121.814928) scale(0.085 -0.085)">
       <use xlink:href="#HiraginoSansGB-W3-30"/>
       <use xlink:href="#HiraginoSansGB-W3-2e" x="65.699997"/>
       <use xlink:href="#HiraginoSansGB-W3-39" x="89.699982"/>
       <use xlink:href="#HiraginoSansGB-W3-34" x="155.399979"/>
      </g>
     </g>
    </g>
    <g id="ytick_12">
     <g id="line2d_39">
      <path d="M 257.288828 91.173579 
L 419.780078 91.173579 
" clip-path="url(#p03454b0025)" style="fill: none; stroke: #e5e7eb; stroke-opacity: 0.7; stroke-width: 0.6; stroke-linecap: square"/>
     </g>
     <g id="line2d_40">
      <g>
       <use xlink:href="#m46b54f5544" x="257.288828" y="91.173579" style="fill: #374151; stroke: #374151; stroke-width: 0.6"/>
      </g>
     </g>
     <g id="text_25">
      <!-- 0.96 -->
      <g style="fill: #374151" transform="translate(231.494531 94.428814) scale(0.085 -0.085)">
       <use xlink:href="#HiraginoSansGB-W3-30"/>
       <use xlink:href="#HiraginoSansGB-W3-2e" x="65.699997"/>
       <use xlink:href="#HiraginoSansGB-W3-39" x="89.699982"/>
       <use xlink:href="#HiraginoSansGB-W3-36" x="155.399979"/>
      </g>
     </g>
    </g>
    <g id="ytick_13">
     <g id="line2d_41">
      <path d="M 257.288828 63.787464 
L 419.780078 63.787464 
" clip-path="url(#p03454b0025)" style="fill: none; stroke: #e5e7eb; stroke-opacity: 0.7; stroke-width: 0.6; stroke-linecap: square"/>
     </g>
     <g id="line2d_42">
      <g>
       <use xlink:href="#m46b54f5544" x="257.288828" y="63.787464" style="fill: #374151; stroke: #374151; stroke-width: 0.6"/>
      </g>
     </g>
     <g id="text_26">
      <!-- 0.98 -->
      <g style="fill: #374151" transform="translate(231.494531 67.042699) scale(0.085 -0.085)">
       <use xlink:href="#HiraginoSansGB-W3-30"/>
       <use xlink:href="#HiraginoSansGB-W3-2e" x="65.699997"/>
       <use xlink:href="#HiraginoSansGB-W3-39" x="89.699982"/>
       <use xlink:href="#HiraginoSansGB-W3-38" x="155.399979"/>
      </g>
     </g>
    </g>
    <g id="ytick_14">
     <g id="line2d_43">
      <path d="M 257.288828 36.401349 
L 419.780078 36.401349 
" clip-path="url(#p03454b0025)" style="fill: none; stroke: #e5e7eb; stroke-opacity: 0.7; stroke-width: 0.6; stroke-linecap: square"/>
     </g>
     <g id="line2d_44">
      <g>
       <use xlink:href="#m46b54f5544" x="257.288828" y="36.401349" style="fill: #374151; stroke: #374151; stroke-width: 0.6"/>
      </g>
     </g>
     <g id="text_27">
      <!-- 1.00 -->
      <g style="fill: #374151" transform="translate(231.494531 39.656584) scale(0.085 -0.085)">
       <use xlink:href="#HiraginoSansGB-W3-31"/>
       <use xlink:href="#HiraginoSansGB-W3-2e" x="65.699997"/>
       <use xlink:href="#HiraginoSansGB-W3-30" x="89.699982"/>
       <use xlink:href="#HiraginoSansGB-W3-30" x="155.399979"/>
      </g>
     </g>
    </g>
    <g id="ytick_15">
     <g id="line2d_45">
      <path d="M 257.288828 9.015234 
L 419.780078 9.015234 
" clip-path="url(#p03454b0025)" style="fill: none; stroke: #e5e7eb; stroke-opacity: 0.7; stroke-width: 0.6; stroke-linecap: square"/>
     </g>
     <g id="line2d_46">
      <g>
       <use xlink:href="#m46b54f5544" x="257.288828" y="9.015234" style="fill: #374151; stroke: #374151; stroke-width: 0.6"/>
      </g>
     </g>
     <g id="text_28">
      <!-- 1.02 -->
      <g style="fill: #374151" transform="translate(231.494531 12.270469) scale(0.085 -0.085)">
       <use xlink:href="#HiraginoSansGB-W3-31"/>
       <use xlink:href="#HiraginoSansGB-W3-2e" x="65.699997"/>
       <use xlink:href="#HiraginoSansGB-W3-30" x="89.699982"/>
       <use xlink:href="#HiraginoSansGB-W3-32" x="155.399979"/>
      </g>
     </g>
    </g>
    <g id="text_29">
     <!-- 工具选择 F1 -->
     <g style="fill: #1f2937" transform="translate(225.624766 116.33772) rotate(-90) scale(0.09 -0.09)">
      <defs>
       <path id="HiraginoSansGB-W3-5de5" d="M 3386 4224 
L 4928 4224 
C 5229 4224 5434 4211 5664 4186 
L 5664 4672 
C 5453 4646 5254 4634 4922 4634 
L 1517 4634 
C 1178 4634 979 4646 774 4672 
L 774 4186 
C 998 4211 1210 4224 1510 4224 
L 2925 4224 
L 2925 570 
L 1120 570 
C 781 570 582 582 365 614 
L 365 115 
C 589 147 794 160 1114 160 
L 5318 160 
C 5638 160 5862 147 6067 115 
L 6067 614 
C 5850 582 5651 570 5318 570 
L 3386 570 
L 3386 4224 
z
" transform="scale(0.015625)"/>
       <path id="HiraginoSansGB-W3-5177" d="M 1274 1248 
L 1037 1248 
C 774 1248 550 1261 378 1286 
L 378 832 
C 563 858 774 870 1037 870 
L 5402 870 
C 5651 870 5882 858 6061 832 
L 6061 1286 
C 5888 1261 5664 1248 5395 1248 
L 5133 1248 
L 5133 4442 
C 5133 4749 5139 4915 5165 5069 
C 4941 5043 4787 5037 4506 5037 
L 1958 5037 
C 1658 5037 1446 5043 1242 5069 
C 1267 4890 1274 4749 1274 4467 
L 1274 1248 
z
M 1670 1248 
L 1670 1882 
L 4736 1882 
L 4736 1248 
L 1670 1248 
z
M 1670 2227 
L 1670 2822 
L 4736 2822 
L 4736 2227 
L 1670 2227 
z
M 4736 4685 
L 4736 4109 
L 1670 4109 
L 1670 4685 
L 4736 4685 
z
M 4736 3763 
L 4736 3168 
L 1670 3168 
L 1670 3763 
L 4736 3763 
z
M 2259 730 
C 1997 499 1850 397 1594 262 
C 1280 109 1030 26 474 -109 
C 621 -250 666 -307 762 -467 
C 1645 -205 2022 -6 2618 499 
L 2259 730 
z
M 3821 480 
C 4474 230 4851 26 5568 -467 
L 5850 -128 
C 5146 307 4710 525 4077 736 
L 3821 480 
z
" transform="scale(0.015625)"/>
       <path id="HiraginoSansGB-W3-9009" d="M 1363 781 
C 1088 710 749 461 224 -58 
L 544 -352 
C 640 -243 646 -230 902 26 
C 1165 294 1331 403 1472 403 
C 1530 403 1606 365 1677 307 
C 1875 115 1875 115 1907 96 
C 1997 26 2150 -58 2304 -109 
C 2579 -211 3149 -269 3853 -269 
C 4768 -269 5440 -256 6080 -230 
C 6118 -19 6144 64 6227 230 
C 5677 160 4954 128 4038 128 
C 3360 128 2816 160 2566 211 
C 2278 275 2176 333 1856 614 
C 1818 646 1792 666 1760 698 
L 1760 2259 
C 1760 2547 1766 2714 1786 2906 
C 1632 2880 1517 2874 1306 2874 
L 864 2874 
C 614 2874 512 2880 371 2906 
L 371 2490 
C 518 2515 621 2522 838 2522 
L 1363 2522 
L 1363 781 
z
M 538 4915 
C 986 4493 1133 4314 1517 3770 
L 1850 4064 
C 1459 4557 1267 4768 838 5178 
L 538 4915 
z
M 4275 4493 
L 4275 4794 
C 4275 5005 4282 5139 4314 5312 
L 3853 5312 
C 3878 5146 3891 5030 3891 4794 
L 3891 4493 
L 3072 4493 
C 3130 4595 3149 4653 3219 4838 
C 3258 4954 3270 4986 3302 5056 
L 2886 5146 
C 2854 4947 2784 4736 2675 4506 
C 2560 4256 2419 4051 2214 3834 
C 2362 3757 2426 3712 2528 3590 
C 2707 3795 2797 3923 2912 4122 
L 3891 4122 
L 3891 3251 
L 2675 3251 
C 2451 3251 2266 3264 2099 3283 
L 2099 2854 
C 2285 2874 2470 2886 2688 2886 
L 3347 2886 
C 3290 2374 3181 2074 2918 1734 
C 2675 1427 2413 1229 1946 1005 
C 2029 928 2067 877 2150 749 
C 2176 717 2176 717 2189 698 
C 2720 973 3014 1216 3283 1587 
C 3558 1971 3674 2317 3725 2886 
L 4314 2886 
L 4314 1075 
C 4314 794 4506 710 5133 710 
C 5485 710 5702 755 5824 858 
C 5952 960 5997 1120 6029 1549 
C 6035 1658 6042 1734 6061 1888 
C 5907 1914 5830 1946 5670 2029 
C 5658 1549 5626 1293 5568 1190 
C 5555 1184 5555 1178 5542 1171 
C 5478 1107 5421 1094 5146 1094 
C 4800 1094 4678 1146 4678 1293 
L 4678 2886 
L 5485 2886 
C 5683 2886 5850 2880 6029 2854 
L 6029 3283 
C 5830 3258 5683 3251 5478 3251 
L 4275 3251 
L 4275 4122 
L 5114 4122 
C 5363 4122 5530 4115 5728 4096 
L 5728 4525 
C 5587 4499 5440 4493 5114 4493 
L 4275 4493 
z
" transform="scale(0.015625)"/>
       <path id="HiraginoSansGB-W3-62e9" d="M 1280 3686 
L 1280 2246 
C 723 2035 640 2010 352 1958 
L 467 1517 
C 614 1594 666 1619 768 1658 
L 1280 1850 
L 1280 147 
C 1280 0 1235 -32 1037 -32 
C 851 -32 710 -19 422 13 
C 486 -166 499 -224 512 -397 
C 742 -410 902 -416 1069 -416 
C 1510 -416 1683 -288 1683 32 
L 1683 2010 
C 1984 2144 2080 2189 2317 2304 
L 2317 2688 
C 2074 2573 1984 2528 1683 2406 
L 1683 3686 
L 1939 3686 
C 2099 3686 2259 3674 2413 3654 
L 2413 4070 
C 2253 4051 2106 4038 1946 4038 
L 1683 4038 
L 1683 4672 
C 1683 4941 1690 5088 1722 5299 
L 1242 5299 
C 1274 5107 1280 4992 1280 4672 
L 1280 4038 
L 928 4038 
C 736 4038 634 4045 403 4077 
L 403 3648 
C 678 3680 749 3686 928 3686 
L 1280 3686 
z
M 4371 2240 
C 4378 2605 4384 2726 4403 2886 
L 3962 2886 
C 3981 2739 3994 2483 3994 2240 
L 3219 2240 
C 2950 2240 2854 2246 2688 2272 
L 2688 1862 
C 2861 1888 2963 1894 3219 1894 
L 3994 1894 
L 3994 1171 
L 2778 1171 
C 2515 1171 2400 1178 2246 1203 
L 2246 781 
C 2387 806 2509 813 2778 813 
L 3994 813 
L 3994 58 
C 3994 -160 3987 -288 3955 -518 
L 4410 -518 
C 4378 -307 4371 -166 4371 51 
L 4371 813 
L 5555 813 
C 5824 813 5939 806 6106 781 
L 6106 1203 
C 5939 1178 5824 1171 5549 1171 
L 4371 1171 
L 4371 1894 
L 5171 1894 
C 5440 1894 5542 1888 5709 1862 
L 5709 2272 
C 5549 2246 5446 2240 5171 2240 
L 4371 2240 
z
M 5376 5094 
C 5222 5069 5050 5062 4774 5062 
L 3238 5062 
C 2861 5062 2618 5069 2413 5088 
L 2413 4698 
C 2541 4710 2662 4717 2771 4717 
C 2790 4717 2822 4717 2861 4717 
C 3181 4230 3347 4045 3910 3584 
C 3488 3290 2874 3014 2278 2854 
C 2400 2758 2458 2682 2541 2534 
C 3040 2726 3174 2784 3462 2931 
C 3808 3104 3987 3213 4211 3379 
C 4659 3059 5037 2867 5926 2515 
C 6010 2694 6074 2790 6182 2880 
C 5229 3181 4941 3309 4506 3590 
C 4909 3917 5248 4288 5510 4691 
C 5574 4794 5574 4794 5651 4890 
L 5376 5094 
z
M 5050 4717 
C 4870 4397 4666 4166 4211 3789 
C 3693 4211 3546 4365 3302 4717 
L 5050 4717 
z
" transform="scale(0.015625)"/>
       <path id="HiraginoSansGB-W3-46" d="M 1050 2349 
L 2547 2349 
C 2880 2349 3066 2336 3277 2304 
L 3277 2842 
C 3040 2810 2854 2797 2547 2797 
L 1050 2797 
L 1050 4448 
L 2893 4448 
C 3232 4448 3418 4435 3629 4403 
L 3629 4947 
C 3386 4915 3206 4902 2893 4902 
L 1197 4902 
C 890 4902 717 4909 493 4922 
C 531 4672 544 4467 544 4192 
L 544 787 
C 544 454 531 256 493 38 
L 1101 38 
C 1062 269 1050 442 1050 787 
L 1050 2349 
z
" transform="scale(0.015625)"/>
      </defs>
      <use xlink:href="#HiraginoSansGB-W3-5de5"/>
      <use xlink:href="#HiraginoSansGB-W3-5177" x="99.999985"/>
      <use xlink:href="#HiraginoSansGB-W3-9009" x="199.999969"/>
      <use xlink:href="#HiraginoSansGB-W3-62e9" x="299.999954"/>
      <use xlink:href="#HiraginoSansGB-W3-20" x="399.999939"/>
      <use xlink:href="#HiraginoSansGB-W3-46" x="433.299927"/>
      <use xlink:href="#HiraginoSansGB-W3-31" x="493.499924"/>
     </g>
    </g>
   </g>
   <g id="patch_10">
    <path d="M 264.674794 1405.707096 
L 289.29468 1405.707096 
L 289.29468 36.401349 
L 264.674794 36.401349 
z
" clip-path="url(#p03454b0025)" style="fill: #264653; stroke: #ffffff; stroke-width: 0.5; stroke-linejoin: miter"/>
   </g>
   <g id="patch_11">
    <path d="M 305.707938 1405.707096 
L 330.327824 1405.707096 
L 330.327824 36.401349 
L 305.707938 36.401349 
z
" clip-path="url(#p03454b0025)" style="fill: #2a9d8f; stroke: #ffffff; stroke-width: 0.5; stroke-linejoin: miter"/>
   </g>
   <g id="patch_12">
    <path d="M 346.741082 1405.707096 
L 371.360968 1405.707096 
L 371.360968 63.787464 
L 346.741082 63.787464 
z
" clip-path="url(#p03454b0025)" style="fill: #9c89b8; stroke: #ffffff; stroke-width: 0.5; stroke-linejoin: miter"/>
   </g>
   <g id="patch_13">
    <path d="M 387.774226 1405.707096 
L 412.394112 1405.707096 
L 412.394112 91.173579 
L 387.774226 91.173579 
z
" clip-path="url(#p03454b0025)" style="fill: #e76f51; stroke: #ffffff; stroke-width: 0.5; stroke-linejoin: miter"/>
   </g>
   <g id="patch_14">
    <path d="M 257.288828 173.331924 
L 257.288828 9.015234 
" style="fill: none; stroke: #374151; stroke-width: 0.8; stroke-linejoin: miter; stroke-linecap: square"/>
   </g>
   <g id="patch_15">
    <path d="M 257.288828 173.331924 
L 419.780078 173.331924 
" style="fill: none; stroke: #374151; stroke-width: 0.8; stroke-linejoin: miter; stroke-linecap: square"/>
   </g>
   <g id="text_30">
    <!-- 1.00 -->
    <g transform="translate(268.693136 32.40613) scale(0.075 -0.075)">
     <use xlink:href="#HiraginoSansGB-W3-31"/>
     <use xlink:href="#HiraginoSansGB-W3-2e" x="65.699997"/>
     <use xlink:href="#HiraginoSansGB-W3-30" x="89.699982"/>
     <use xlink:href="#HiraginoSansGB-W3-30" x="155.399979"/>
    </g>
   </g>
   <g id="text_31">
    <!-- 1.00 -->
    <g transform="translate(309.72628 32.40613) scale(0.075 -0.075)">
     <use xlink:href="#HiraginoSansGB-W3-31"/>
     <use xlink:href="#HiraginoSansGB-W3-2e" x="65.699997"/>
     <use xlink:href="#HiraginoSansGB-W3-30" x="89.699982"/>
     <use xlink:href="#HiraginoSansGB-W3-30" x="155.399979"/>
    </g>
   </g>
   <g id="text_32">
    <!-- 0.98 -->
    <g transform="translate(350.759424 59.792245) scale(0.075 -0.075)">
     <use xlink:href="#HiraginoSansGB-W3-30"/>
     <use xlink:href="#HiraginoSansGB-W3-2e" x="65.699997"/>
     <use xlink:href="#HiraginoSansGB-W3-39" x="89.699982"/>
     <use xlink:href="#HiraginoSansGB-W3-38" x="155.399979"/>
    </g>
   </g>
   <g id="text_33">
    <!-- 0.96 -->
    <g transform="translate(391.792567 87.17836) scale(0.075 -0.075)">
     <use xlink:href="#HiraginoSansGB-W3-30"/>
     <use xlink:href="#HiraginoSansGB-W3-2e" x="65.699997"/>
     <use xlink:href="#HiraginoSansGB-W3-39" x="89.699982"/>
     <use xlink:href="#HiraginoSansGB-W3-36" x="155.399979"/>
    </g>
   </g>
  </g>
  <g id="axes_3">
   <g id="patch_16">
    <path d="M 471.910078 173.331924 
L 634.401328 173.331924 
L 634.401328 9.015234 
L 471.910078 9.015234 
z
" style="fill: #ffffff"/>
   </g>
   <g id="matplotlib.axis_5">
    <g id="xtick_9">
     <g id="line2d_47">
      <path d="M 491.605987 173.331924 
L 491.605987 9.015234 
" clip-path="url(#pc684779862)" style="fill: none; stroke: #e5e7eb; stroke-opacity: 0.7; stroke-width: 0.6; stroke-linecap: square"/>
     </g>
     <g id="line2d_48">
      <g>
       <use xlink:href="#m9c07ba2d66" x="491.605987" y="173.331924" style="fill: #374151; stroke: #374151; stroke-width: 0.6"/>
      </g>
     </g>
     <g id="text_34">
      <!-- 完整 MOPS -->
      <g style="fill: #374151" transform="translate(447.383652 200.718298) rotate(-18) scale(0.085 -0.085)">
       <use xlink:href="#HiraginoSansGB-W3-5b8c"/>
       <use xlink:href="#HiraginoSansGB-W3-6574" x="99.999985"/>
       <use xlink:href="#HiraginoSansGB-W3-20" x="199.999969"/>
       <use xlink:href="#HiraginoSansGB-W3-4d" x="233.299957"/>
       <use xlink:href="#HiraginoSansGB-W3-4f" x="327.799942"/>
       <use xlink:href="#HiraginoSansGB-W3-50" x="407.299927"/>
       <use xlink:href="#HiraginoSansGB-W3-53" x="473.499924"/>
      </g>
     </g>
    </g>
    <g id="xtick_10">
     <g id="line2d_49">
      <path d="M 532.639131 173.331924 
L 532.639131 9.015234 
" clip-path="url(#pc684779862)" style="fill: none; stroke: #e5e7eb; stroke-opacity: 0.7; stroke-width: 0.6; stroke-linecap: square"/>
     </g>
     <g id="line2d_50">
      <g>
       <use xlink:href="#m9c07ba2d66" x="532.639131" y="173.331924" style="fill: #374151; stroke: #374151; stroke-width: 0.6"/>
      </g>
     </g>
     <g id="text_35">
      <!-- w/o Planner -->
      <g style="fill: #374151" transform="translate(484.205548 202.086616) rotate(-18) scale(0.085 -0.085)">
       <use xlink:href="#HiraginoSansGB-W3-77"/>
       <use xlink:href="#HiraginoSansGB-W3-2f" x="76.999985"/>
       <use xlink:href="#HiraginoSansGB-W3-6f" x="124.399979"/>
       <use xlink:href="#HiraginoSansGB-W3-20" x="186.899963"/>
       <use xlink:href="#HiraginoSansGB-W3-50" x="220.199951"/>
       <use xlink:href="#HiraginoSansGB-W3-6c" x="286.399948"/>
       <use xlink:href="#HiraginoSansGB-W3-61" x="309.599945"/>
       <use xlink:href="#HiraginoSansGB-W3-6e" x="367.09993"/>
       <use xlink:href="#HiraginoSansGB-W3-6e" x="428.899918"/>
       <use xlink:href="#HiraginoSansGB-W3-65" x="490.699905"/>
       <use xlink:href="#HiraginoSansGB-W3-72" x="549.499893"/>
      </g>
     </g>
    </g>
    <g id="xtick_11">
     <g id="line2d_51">
      <path d="M 573.672275 173.331924 
L 573.672275 9.015234 
" clip-path="url(#pc684779862)" style="fill: none; stroke: #e5e7eb; stroke-opacity: 0.7; stroke-width: 0.6; stroke-linecap: square"/>
     </g>
     <g id="line2d_52">
      <g>
       <use xlink:href="#m9c07ba2d66" x="573.672275" y="173.331924" style="fill: #374151; stroke: #374151; stroke-width: 0.6"/>
      </g>
     </g>
     <g id="text_36">
      <!-- w/o Verifier -->
      <g style="fill: #374151" transform="translate(525.861411 201.884282) rotate(-18) scale(0.085 -0.085)">
       <use xlink:href="#HiraginoSansGB-W3-77"/>
       <use xlink:href="#HiraginoSansGB-W3-2f" x="76.999985"/>
       <use xlink:href="#HiraginoSansGB-W3-6f" x="124.399979"/>
       <use xlink:href="#HiraginoSansGB-W3-20" x="186.899963"/>
       <use xlink:href="#HiraginoSansGB-W3-56" x="220.199951"/>
       <use xlink:href="#HiraginoSansGB-W3-65" x="291.899933"/>
       <use xlink:href="#HiraginoSansGB-W3-72" x="350.699921"/>
       <use xlink:href="#HiraginoSansGB-W3-69" x="393.699905"/>
       <use xlink:href="#HiraginoSansGB-W3-66" x="417.499893"/>
       <use xlink:href="#HiraginoSansGB-W3-69" x="459.19989"/>
       <use xlink:href="#HiraginoSansGB-W3-65" x="482.999878"/>
       <use xlink:href="#HiraginoSansGB-W3-72" x="541.799866"/>
      </g>
     </g>
    </g>
    <g id="xtick_12">
     <g id="line2d_53">
      <path d="M 614.705419 173.331924 
L 614.705419 9.015234 
" clip-path="url(#pc684779862)" style="fill: none; stroke: #e5e7eb; stroke-opacity: 0.7; stroke-width: 0.6; stroke-linecap: square"/>
     </g>
     <g id="line2d_54">
      <g>
       <use xlink:href="#m9c07ba2d66" x="614.705419" y="173.331924" style="fill: #374151; stroke: #374151; stroke-width: 0.6"/>
      </g>
     </g>
     <g id="text_37">
      <!-- w/o Coordinator -->
      <g style="fill: #374151" transform="translate(548.188982 207.962091) rotate(-18) scale(0.085 -0.085)">
       <use xlink:href="#HiraginoSansGB-W3-77"/>
       <use xlink:href="#HiraginoSansGB-W3-2f" x="76.999985"/>
       <use xlink:href="#HiraginoSansGB-W3-6f" x="124.399979"/>
       <use xlink:href="#HiraginoSansGB-W3-20" x="186.899963"/>
       <use xlink:href="#HiraginoSansGB-W3-43" x="220.199951"/>
       <use xlink:href="#HiraginoSansGB-W3-6f" x="295.799942"/>
       <use xlink:href="#HiraginoSansGB-W3-6f" x="358.299927"/>
       <use xlink:href="#HiraginoSansGB-W3-72" x="420.799911"/>
       <use xlink:href="#HiraginoSansGB-W3-64" x="463.799896"/>
       <use xlink:href="#HiraginoSansGB-W3-69" x="528.399887"/>
       <use xlink:href="#HiraginoSansGB-W3-6e" x="552.199875"/>
       <use xlink:href="#HiraginoSansGB-W3-61" x="613.999863"/>
       <use xlink:href="#HiraginoSansGB-W3-74" x="671.499847"/>
       <use xlink:href="#HiraginoSansGB-W3-6f" x="710.699844"/>
       <use xlink:href="#HiraginoSansGB-W3-72" x="773.199829"/>
      </g>
     </g>
    </g>
   </g>
   <g id="matplotlib.axis_6">
    <g id="ytick_16">
     <g id="line2d_55">
      <path d="M 471.910078 173.331924 
L 634.401328 173.331924 
" clip-path="url(#pc684779862)" style="fill: none; stroke: #e5e7eb; stroke-opacity: 0.7; stroke-width: 0.6; stroke-linecap: square"/>
     </g>
     <g id="line2d_56">
      <g>
       <use xlink:href="#m46b54f5544" x="471.910078" y="173.331924" style="fill: #374151; stroke: #374151; stroke-width: 0.6"/>
      </g>
     </g>
     <g id="text_38">
      <!-- 1100 -->
      <g style="fill: #374151" transform="translate(442.571016 176.587158) scale(0.085 -0.085)">
       <use xlink:href="#HiraginoSansGB-W3-31"/>
       <use xlink:href="#HiraginoSansGB-W3-31" x="65.699997"/>
       <use xlink:href="#HiraginoSansGB-W3-30" x="131.399994"/>
       <use xlink:href="#HiraginoSansGB-W3-30" x="197.099991"/>
      </g>
     </g>
    </g>
    <g id="ytick_17">
     <g id="line2d_57">
      <path d="M 471.910078 152.792338 
L 634.401328 152.792338 
" clip-path="url(#pc684779862)" style="fill: none; stroke: #e5e7eb; stroke-opacity: 0.7; stroke-width: 0.6; stroke-linecap: square"/>
     </g>
     <g id="line2d_58">
      <g>
       <use xlink:href="#m46b54f5544" x="471.910078" y="152.792338" style="fill: #374151; stroke: #374151; stroke-width: 0.6"/>
      </g>
     </g>
     <g id="text_39">
      <!-- 1150 -->
      <g style="fill: #374151" transform="translate(442.571016 156.047572) scale(0.085 -0.085)">
       <use xlink:href="#HiraginoSansGB-W3-31"/>
       <use xlink:href="#HiraginoSansGB-W3-31" x="65.699997"/>
       <use xlink:href="#HiraginoSansGB-W3-35" x="131.399994"/>
       <use xlink:href="#HiraginoSansGB-W3-30" x="197.099991"/>
      </g>
     </g>
    </g>
    <g id="ytick_18">
     <g id="line2d_59">
      <path d="M 471.910078 132.252752 
L 634.401328 132.252752 
" clip-path="url(#pc684779862)" style="fill: none; stroke: #e5e7eb; stroke-opacity: 0.7; stroke-width: 0.6; stroke-linecap: square"/>
     </g>
     <g id="line2d_60">
      <g>
       <use xlink:href="#m46b54f5544" x="471.910078" y="132.252752" style="fill: #374151; stroke: #374151; stroke-width: 0.6"/>
      </g>
     </g>
     <g id="text_40">
      <!-- 1200 -->
      <g style="fill: #374151" transform="translate(442.571016 135.507986) scale(0.085 -0.085)">
       <use xlink:href="#HiraginoSansGB-W3-31"/>
       <use xlink:href="#HiraginoSansGB-W3-32" x="65.699997"/>
       <use xlink:href="#HiraginoSansGB-W3-30" x="131.399994"/>
       <use xlink:href="#HiraginoSansGB-W3-30" x="197.099991"/>
      </g>
     </g>
    </g>
    <g id="ytick_19">
     <g id="line2d_61">
      <path d="M 471.910078 111.713165 
L 634.401328 111.713165 
" clip-path="url(#pc684779862)" style="fill: none; stroke: #e5e7eb; stroke-opacity: 0.7; stroke-width: 0.6; stroke-linecap: square"/>
     </g>
     <g id="line2d_62">
      <g>
       <use xlink:href="#m46b54f5544" x="471.910078" y="111.713165" style="fill: #374151; stroke: #374151; stroke-width: 0.6"/>
      </g>
     </g>
     <g id="text_41">
      <!-- 1250 -->
      <g style="fill: #374151" transform="translate(442.571016 114.9684) scale(0.085 -0.085)">
       <use xlink:href="#HiraginoSansGB-W3-31"/>
       <use xlink:href="#HiraginoSansGB-W3-32" x="65.699997"/>
       <use xlink:href="#HiraginoSansGB-W3-35" x="131.399994"/>
       <use xlink:href="#HiraginoSansGB-W3-30" x="197.099991"/>
      </g>
     </g>
    </g>
    <g id="ytick_20">
     <g id="line2d_63">
      <path d="M 471.910078 91.173579 
L 634.401328 91.173579 
" clip-path="url(#pc684779862)" style="fill: none; stroke: #e5e7eb; stroke-opacity: 0.7; stroke-width: 0.6; stroke-linecap: square"/>
     </g>
     <g id="line2d_64">
      <g>
       <use xlink:href="#m46b54f5544" x="471.910078" y="91.173579" style="fill: #374151; stroke: #374151; stroke-width: 0.6"/>
      </g>
     </g>
     <g id="text_42">
      <!-- 1300 -->
      <g style="fill: #374151" transform="translate(442.571016 94.428814) scale(0.085 -0.085)">
       <use xlink:href="#HiraginoSansGB-W3-31"/>
       <use xlink:href="#HiraginoSansGB-W3-33" x="65.699997"/>
       <use xlink:href="#HiraginoSansGB-W3-30" x="131.399994"/>
       <use xlink:href="#HiraginoSansGB-W3-30" x="197.099991"/>
      </g>
     </g>
    </g>
    <g id="ytick_21">
     <g id="line2d_65">
      <path d="M 471.910078 70.633993 
L 634.401328 70.633993 
" clip-path="url(#pc684779862)" style="fill: none; stroke: #e5e7eb; stroke-opacity: 0.7; stroke-width: 0.6; stroke-linecap: square"/>
     </g>
     <g id="line2d_66">
      <g>
       <use xlink:href="#m46b54f5544" x="471.910078" y="70.633993" style="fill: #374151; stroke: #374151; stroke-width: 0.6"/>
      </g>
     </g>
     <g id="text_43">
      <!-- 1350 -->
      <g style="fill: #374151" transform="translate(442.571016 73.889227) scale(0.085 -0.085)">
       <use xlink:href="#HiraginoSansGB-W3-31"/>
       <use xlink:href="#HiraginoSansGB-W3-33" x="65.699997"/>
       <use xlink:href="#HiraginoSansGB-W3-35" x="131.399994"/>
       <use xlink:href="#HiraginoSansGB-W3-30" x="197.099991"/>
      </g>
     </g>
    </g>
    <g id="ytick_22">
     <g id="line2d_67">
      <path d="M 471.910078 50.094407 
L 634.401328 50.094407 
" clip-path="url(#pc684779862)" style="fill: none; stroke: #e5e7eb; stroke-opacity: 0.7; stroke-width: 0.6; stroke-linecap: square"/>
     </g>
     <g id="line2d_68">
      <g>
       <use xlink:href="#m46b54f5544" x="471.910078" y="50.094407" style="fill: #374151; stroke: #374151; stroke-width: 0.6"/>
      </g>
     </g>
     <g id="text_44">
      <!-- 1400 -->
      <g style="fill: #374151" transform="translate(442.537813 53.349641) scale(0.085 -0.085)">
       <use xlink:href="#HiraginoSansGB-W3-31"/>
       <use xlink:href="#HiraginoSansGB-W3-34" x="65.699997"/>
       <use xlink:href="#HiraginoSansGB-W3-30" x="131.799988"/>
       <use xlink:href="#HiraginoSansGB-W3-30" x="197.499985"/>
      </g>
     </g>
    </g>
    <g id="ytick_23">
     <g id="line2d_69">
      <path d="M 471.910078 29.554821 
L 634.401328 29.554821 
" clip-path="url(#pc684779862)" style="fill: none; stroke: #e5e7eb; stroke-opacity: 0.7; stroke-width: 0.6; stroke-linecap: square"/>
     </g>
     <g id="line2d_70">
      <g>
       <use xlink:href="#m46b54f5544" x="471.910078" y="29.554821" style="fill: #374151; stroke: #374151; stroke-width: 0.6"/>
      </g>
     </g>
     <g id="text_45">
      <!-- 1450 -->
      <g style="fill: #374151" transform="translate(442.537813 32.810055) scale(0.085 -0.085)">
       <use xlink:href="#HiraginoSansGB-W3-31"/>
       <use xlink:href="#HiraginoSansGB-W3-34" x="65.699997"/>
       <use xlink:href="#HiraginoSansGB-W3-35" x="131.799988"/>
       <use xlink:href="#HiraginoSansGB-W3-30" x="197.499985"/>
      </g>
     </g>
    </g>
    <g id="ytick_24">
     <g id="line2d_71">
      <path d="M 471.910078 9.015234 
L 634.401328 9.015234 
" clip-path="url(#pc684779862)" style="fill: none; stroke: #e5e7eb; stroke-opacity: 0.7; stroke-width: 0.6; stroke-linecap: square"/>
     </g>
     <g id="line2d_72">
      <g>
       <use xlink:href="#m46b54f5544" x="471.910078" y="9.015234" style="fill: #374151; stroke: #374151; stroke-width: 0.6"/>
      </g>
     </g>
     <g id="text_46">
      <!-- 1500 -->
      <g style="fill: #374151" transform="translate(442.571016 12.270469) scale(0.085 -0.085)">
       <use xlink:href="#HiraginoSansGB-W3-31"/>
       <use xlink:href="#HiraginoSansGB-W3-35" x="65.699997"/>
       <use xlink:href="#HiraginoSansGB-W3-30" x="131.399994"/>
       <use xlink:href="#HiraginoSansGB-W3-30" x="197.099991"/>
      </g>
     </g>
    </g>
    <g id="text_47">
     <!-- Token 消耗 (越低越好) -->
     <g style="fill: #1f2937" transform="translate(436.70125 138.121235) rotate(-90) scale(0.09 -0.09)">
      <defs>
       <path id="HiraginoSansGB-W3-54" d="M 2323 4454 
L 3315 4454 
C 3674 4454 3859 4442 4070 4410 
L 4070 4947 
C 3859 4915 3686 4902 3315 4902 
L 819 4902 
C 480 4902 314 4915 90 4947 
L 90 4410 
C 301 4442 499 4454 826 4454 
L 1824 4454 
L 1824 762 
C 1824 461 1811 237 1773 38 
L 2374 38 
C 2336 269 2323 448 2323 762 
L 2323 4454 
z
" transform="scale(0.015625)"/>
       <path id="HiraginoSansGB-W3-6b" d="M 454 4902 
C 486 4672 499 4499 499 4179 
L 499 762 
C 499 454 486 269 454 38 
L 1024 38 
C 992 262 979 467 979 755 
L 979 1293 
L 1523 1811 
L 2374 646 
C 2694 218 2707 192 2778 38 
L 3507 38 
C 3366 179 3334 218 2950 710 
L 1869 2106 
L 2758 2931 
C 2771 2944 2803 2982 2861 3034 
C 2950 3123 3027 3194 3091 3251 
C 3264 3405 3264 3405 3354 3488 
L 2592 3488 
C 2502 3354 2413 3245 2138 2982 
L 979 1862 
L 979 4179 
C 979 4506 992 4672 1024 4902 
L 454 4902 
z
" transform="scale(0.015625)"/>
       <path id="HiraginoSansGB-W3-6d88" d="M 4122 3565 
L 4122 4781 
C 4122 5024 4134 5197 4160 5382 
L 3680 5382 
C 3706 5197 3718 5024 3718 4781 
L 3718 3565 
L 2899 3565 
C 2624 3565 2451 3571 2310 3590 
C 2323 3475 2330 3315 2330 3014 
L 2330 275 
C 2330 -19 2317 -282 2298 -442 
L 2771 -442 
C 2746 -282 2733 -19 2733 275 
L 2733 954 
L 5254 954 
L 5254 141 
C 5254 32 5210 0 5018 0 
C 4794 0 4544 26 4205 83 
C 4262 -102 4282 -186 4294 -333 
C 4576 -358 4845 -378 5043 -378 
C 5517 -378 5658 -275 5658 70 
L 5658 2995 
C 5658 3245 5664 3443 5683 3597 
C 5523 3571 5344 3565 5094 3565 
L 4122 3565 
z
M 2733 2451 
L 2733 3206 
L 5254 3206 
L 5254 2451 
L 2733 2451 
z
M 5254 2093 
L 5254 1312 
L 2733 1312 
L 2733 2093 
L 5254 2093 
z
M 698 4928 
C 1133 4634 1402 4403 1728 4026 
L 1984 4358 
C 1619 4730 1376 4934 960 5210 
L 698 4928 
z
M 378 3418 
C 800 3162 1075 2938 1478 2522 
L 1728 2874 
C 1318 3245 1050 3450 621 3712 
L 378 3418 
z
M 1440 1856 
C 1171 1114 960 685 621 192 
C 557 96 518 45 442 -32 
L 819 -365 
C 858 -294 858 -294 966 -90 
C 1402 678 1498 883 1779 1606 
L 1440 1856 
z
M 2144 4934 
C 2477 4499 2643 4218 2854 3731 
L 3213 3923 
C 2995 4403 2829 4691 2502 5120 
L 2144 4934 
z
M 5325 5139 
C 5158 4666 4992 4358 4672 3898 
L 5024 3712 
C 5325 4160 5472 4429 5722 4960 
L 5325 5139 
z
" transform="scale(0.015625)"/>
       <path id="HiraginoSansGB-W3-8017" d="M 1856 1760 
C 2131 1498 2323 1286 2554 992 
L 2797 1254 
C 2445 1658 2227 1862 1856 2150 
L 1856 2362 
L 2291 2362 
C 2534 2362 2650 2355 2810 2330 
L 2810 2733 
C 2669 2707 2554 2701 2310 2701 
L 1856 2701 
L 1856 3309 
L 2170 3309 
C 2381 3309 2509 3302 2662 3283 
L 2662 3667 
C 2528 3648 2406 3642 2189 3642 
L 1856 3642 
L 1856 4237 
L 2259 4237 
C 2515 4237 2618 4230 2784 4205 
L 2784 4608 
C 2630 4582 2522 4576 2278 4576 
L 1856 4576 
L 1856 4800 
C 1856 5037 1862 5184 1888 5344 
L 1440 5344 
C 1466 5184 1478 5018 1478 4794 
L 1478 4576 
L 1030 4576 
C 774 4576 646 4582 486 4608 
L 486 4205 
C 640 4230 768 4237 1018 4237 
L 1478 4237 
L 1478 3642 
L 1114 3642 
C 883 3642 755 3648 614 3667 
L 614 3283 
C 762 3302 896 3309 1114 3309 
L 1478 3309 
L 1478 2701 
L 915 2701 
C 653 2701 531 2707 384 2733 
L 384 2330 
C 544 2355 691 2362 915 2362 
L 1370 2362 
C 1146 1747 742 1139 282 730 
C 390 614 454 518 518 371 
C 1018 928 1203 1222 1510 1965 
C 1485 1626 1478 1408 1478 1114 
L 1478 166 
C 1478 -122 1466 -288 1440 -467 
L 1894 -467 
C 1862 -288 1856 -96 1856 160 
L 1856 1760 
z
M 3904 3347 
L 3469 3283 
C 3232 3245 3053 3226 2931 3226 
C 2912 3226 2899 3226 2874 3226 
L 2925 2790 
C 3072 2835 3277 2880 3507 2918 
L 3904 2976 
L 3904 1965 
L 3392 1888 
C 3136 1850 2982 1830 2867 1830 
C 2848 1830 2829 1830 2803 1830 
L 2861 1395 
C 3002 1440 3226 1491 3443 1523 
L 3904 1594 
L 3904 173 
C 3904 -218 4070 -301 4870 -301 
C 5946 -301 6022 -218 6106 1037 
C 5914 1082 5869 1101 5702 1190 
C 5690 672 5658 397 5594 243 
C 5542 128 5350 83 4870 83 
C 4378 83 4301 109 4301 275 
L 4301 1651 
L 5453 1824 
C 5754 1869 5894 1882 6061 1888 
L 6003 2330 
C 5818 2266 5632 2221 5395 2189 
L 4301 2022 
L 4301 3040 
L 5280 3194 
C 5600 3245 5741 3264 5894 3264 
L 5837 3699 
C 5696 3642 5504 3597 5229 3558 
L 4301 3411 
L 4301 4403 
C 4838 4576 5235 4723 5581 4883 
C 5664 4922 5664 4922 5715 4947 
L 5376 5280 
C 5280 5197 5171 5133 4986 5050 
C 4403 4787 3693 4589 2918 4474 
C 3053 4294 3078 4250 3123 4109 
C 3488 4186 3603 4211 3904 4294 
L 3904 3347 
z
" transform="scale(0.015625)"/>
       <path id="HiraginoSansGB-W3-8d8a" d="M 4026 320 
C 4512 768 4723 979 4934 1254 
C 5242 723 5472 499 5696 499 
C 5914 499 6042 781 6170 1510 
C 6042 1562 5965 1613 5850 1709 
C 5773 1126 5715 922 5632 922 
C 5594 922 5549 966 5421 1133 
C 5299 1293 5254 1370 5152 1594 
C 5440 2099 5536 2349 5722 3066 
C 5760 3219 5786 3290 5818 3386 
L 5440 3526 
C 5370 3078 5197 2522 4979 2042 
C 4832 2477 4768 2931 4710 3962 
L 5408 3962 
C 5645 3962 5837 3949 6010 3923 
L 6010 4339 
C 5875 4314 5709 4307 5408 4307 
L 4698 4307 
C 4691 4371 4691 4390 4691 4467 
C 4691 5171 4691 5171 4717 5318 
L 4282 5318 
C 4314 5094 4314 5075 4314 4403 
C 4314 4365 4314 4352 4314 4307 
L 3667 4307 
C 3398 4307 3238 4314 3078 4333 
C 3098 4166 3104 4006 3104 3750 
L 3104 1389 
C 3085 1216 3066 1184 2950 1114 
L 3168 768 
C 3277 832 3277 832 3757 1120 
C 3853 1178 4013 1280 4333 1491 
L 4256 1850 
C 3846 1574 3699 1485 3526 1395 
C 3501 1382 3501 1382 3475 1370 
L 3475 3962 
L 4333 3962 
C 4403 2867 4512 2246 4749 1632 
C 4422 1190 4154 915 3757 621 
C 3770 614 3795 582 3853 531 
C 3904 480 3917 467 3974 390 
L 4026 320 
z
M 1549 4422 
L 1056 4422 
C 762 4422 646 4429 499 4454 
L 499 4038 
C 666 4064 819 4070 1056 4070 
L 1549 4070 
L 1549 3213 
L 960 3213 
C 666 3213 499 3226 352 3251 
L 352 2822 
C 518 2854 666 2861 960 2861 
L 1594 2861 
L 1594 653 
C 1382 845 1165 1133 1030 1395 
C 1056 1606 1075 1734 1082 1914 
C 1101 2266 1107 2278 1120 2400 
L 704 2426 
C 723 2310 723 2272 723 2170 
C 723 1229 531 442 141 -205 
C 282 -275 352 -320 474 -442 
C 710 0 870 448 960 947 
C 1139 659 1293 467 1485 294 
C 1869 -51 2253 -211 2906 -275 
C 3322 -320 3526 -326 4928 -326 
C 5146 -326 5760 -307 5997 -294 
C 6029 -109 6048 -38 6138 147 
C 5683 90 5037 58 4326 58 
C 3757 58 3232 77 2829 115 
C 2458 147 2221 218 1965 371 
L 1965 1677 
L 2317 1677 
C 2541 1677 2701 1664 2842 1638 
L 2842 2048 
C 2688 2022 2541 2016 2323 2016 
L 1965 2016 
L 1965 2861 
L 2336 2861 
C 2618 2861 2778 2848 2938 2822 
L 2938 3251 
C 2790 3226 2630 3213 2336 3213 
L 1926 3213 
L 1926 4070 
L 2246 4070 
C 2502 4070 2656 4064 2822 4038 
L 2822 4454 
C 2682 4429 2573 4422 2246 4422 
L 1926 4422 
L 1926 4678 
C 1926 4986 1933 5133 1958 5306 
L 1510 5306 
C 1542 5133 1549 4986 1549 4678 
L 1549 4422 
z
M 4947 5088 
C 5210 4870 5350 4710 5542 4442 
L 5811 4666 
C 5613 4922 5530 5011 5210 5299 
L 4947 5088 
z
" transform="scale(0.015625)"/>
       <path id="HiraginoSansGB-W3-4f4e" d="M 2291 58 
L 2509 -339 
L 2931 -64 
L 3610 365 
L 3821 506 
C 3923 576 4038 653 4141 717 
L 4134 1178 
C 3693 845 3571 762 2816 320 
L 2816 2560 
L 4186 2560 
L 4192 2541 
L 4198 2496 
C 4211 2400 4230 2253 4262 2106 
C 4365 1536 4467 1178 4634 806 
C 4915 211 5338 -269 5594 -269 
C 5869 -269 5990 -90 6125 518 
C 6170 742 6189 826 6195 928 
C 6061 1018 5965 1094 5856 1210 
C 5837 826 5792 576 5715 333 
C 5683 230 5638 179 5594 179 
C 5549 179 5446 269 5350 384 
C 5184 602 5030 864 4928 1120 
C 4787 1466 4646 2035 4595 2496 
L 4582 2560 
L 5395 2560 
C 5651 2560 5805 2554 5965 2534 
L 5965 2950 
C 5818 2918 5722 2918 5395 2918 
L 4544 2918 
L 4538 2950 
C 4499 3334 4467 3802 4461 4186 
L 4461 4307 
L 4454 4576 
C 4826 4666 5024 4723 5421 4864 
L 5722 4966 
L 5382 5338 
C 5254 5248 5165 5210 4966 5133 
C 4646 5011 4173 4890 3699 4800 
C 3258 4717 2810 4672 2387 4659 
C 2413 4499 2419 4378 2419 4083 
L 2419 307 
C 2413 186 2381 128 2291 58 
z
M 134 2618 
C 275 2451 314 2400 397 2246 
C 698 2592 870 2842 1069 3213 
C 1056 3040 1056 3002 1050 2784 
C 1043 2605 1043 2579 1043 2445 
L 1043 288 
C 1043 -32 1030 -243 1005 -480 
L 1472 -480 
C 1453 -256 1440 -38 1440 275 
L 1440 3757 
L 1600 4096 
C 1754 4429 1798 4544 1952 4954 
C 1997 5088 2016 5139 2061 5248 
L 1613 5376 
C 1574 5088 1421 4627 1222 4192 
C 947 3603 608 3110 134 2618 
z
M 2816 2918 
L 2816 4320 
C 3315 4365 3648 4410 4051 4486 
L 4058 4358 
C 4064 4032 4070 3840 4109 3373 
C 4122 3149 4134 2995 4147 2931 
L 4147 2918 
L 2816 2918 
z
M 4045 461 
L 3802 198 
C 4096 38 4365 -141 4634 -365 
L 4858 -77 
C 4602 134 4384 275 4045 461 
z
" transform="scale(0.015625)"/>
       <path id="HiraginoSansGB-W3-597d" d="M 1094 3680 
C 928 3008 742 2458 493 1894 
C 954 1613 1075 1530 1517 1158 
C 1184 646 832 307 269 -38 
C 384 -141 461 -237 550 -378 
C 1139 38 1459 346 1773 838 
C 1792 864 1792 864 1811 890 
C 2074 621 2170 518 2445 173 
L 2726 512 
C 2374 909 2246 1037 2016 1242 
C 2029 1261 2029 1261 2048 1293 
C 2374 1894 2592 2733 2688 3776 
C 2707 3974 2707 3974 2720 4064 
C 2573 4045 2400 4038 2138 4038 
L 1581 4038 
C 1626 4250 1696 4634 1722 4806 
C 1773 5133 1786 5197 1811 5299 
L 1344 5344 
C 1350 5306 1350 5274 1350 5254 
C 1350 4998 1280 4499 1171 4038 
L 941 4038 
C 710 4038 538 4051 378 4077 
L 378 3642 
C 538 3667 698 3680 902 3680 
L 1094 3680 
z
M 2278 3680 
C 2176 2720 2016 2086 1715 1504 
C 1427 1728 1318 1805 973 2042 
C 1203 2637 1312 2989 1498 3680 
L 2278 3680 
z
M 4608 2605 
L 4608 3226 
C 5011 3565 5293 3846 5498 4102 
C 5907 4627 5907 4627 5952 4672 
L 5715 4966 
C 5613 4941 5485 4934 5222 4934 
L 3578 4934 
C 3309 4934 3098 4947 2931 4973 
L 2931 4518 
C 3091 4544 3322 4557 3558 4557 
L 5363 4557 
C 5037 4096 4787 3827 4378 3501 
L 4154 3501 
C 4186 3270 4198 3104 4198 2874 
L 4198 2605 
L 3328 2605 
C 3034 2605 2906 2611 2752 2643 
L 2752 2189 
C 2925 2214 3078 2227 3334 2227 
L 4198 2227 
L 4198 147 
C 4198 32 4154 13 3949 13 
C 3763 13 3488 45 3117 102 
C 3174 -70 3194 -147 3206 -333 
C 3546 -365 3802 -384 3974 -384 
C 4493 -384 4608 -294 4608 134 
L 4608 2227 
L 5664 2227 
C 5926 2227 6061 2221 6234 2189 
L 6234 2643 
C 6067 2611 5939 2605 5664 2605 
L 4608 2605 
z
" transform="scale(0.015625)"/>
      </defs>
      <use xlink:href="#HiraginoSansGB-W3-54"/>
      <use xlink:href="#HiraginoSansGB-W3-6f" x="64.899994"/>
      <use xlink:href="#HiraginoSansGB-W3-6b" x="127.399979"/>
      <use xlink:href="#HiraginoSansGB-W3-65" x="184.899963"/>
      <use xlink:href="#HiraginoSansGB-W3-6e" x="243.699951"/>
      <use xlink:href="#HiraginoSansGB-W3-20" x="305.499939"/>
      <use xlink:href="#HiraginoSansGB-W3-6d88" x="338.799927"/>
      <use xlink:href="#HiraginoSansGB-W3-8017" x="438.799911"/>
      <use xlink:href="#HiraginoSansGB-W3-20" x="538.799896"/>
      <use xlink:href="#HiraginoSansGB-W3-28" x="572.099884"/>
      <use xlink:href="#HiraginoSansGB-W3-8d8a" x="607.699875"/>
      <use xlink:href="#HiraginoSansGB-W3-4f4e" x="707.69986"/>
      <use xlink:href="#HiraginoSansGB-W3-8d8a" x="807.699844"/>
      <use xlink:href="#HiraginoSansGB-W3-597d" x="907.699829"/>
      <use xlink:href="#HiraginoSansGB-W3-29" x="1007.699814"/>
     </g>
    </g>
   </g>
   <g id="patch_17">
    <path d="M 479.296044 625.20282 
L 503.91593 625.20282 
L 503.91593 123.626125 
L 479.296044 123.626125 
z
" clip-path="url(#pc684779862)" style="fill: #264653; stroke: #ffffff; stroke-width: 0.5; stroke-linejoin: miter"/>
   </g>
   <g id="patch_18">
    <path d="M 520.329188 625.20282 
L 544.949074 625.20282 
L 544.949074 41.878572 
L 520.329188 41.878572 
z
" clip-path="url(#pc684779862)" style="fill: #2a9d8f; stroke: #ffffff; stroke-width: 0.5; stroke-linejoin: miter"/>
   </g>
   <g id="patch_19">
    <path d="M 561.362332 625.20282 
L 585.982218 625.20282 
L 585.982218 90.762787 
L 561.362332 90.762787 
z
" clip-path="url(#pc684779862)" style="fill: #9c89b8; stroke: #ffffff; stroke-width: 0.5; stroke-linejoin: miter"/>
   </g>
   <g id="patch_20">
    <path d="M 602.395476 625.20282 
L 627.015362 625.20282 
L 627.015362 75.152702 
L 602.395476 75.152702 
z
" clip-path="url(#pc684779862)" style="fill: #e76f51; stroke: #ffffff; stroke-width: 0.5; stroke-linejoin: miter"/>
   </g>
   <g id="patch_21">
    <path d="M 471.910078 173.331924 
L 471.910078 9.015234 
" style="fill: none; stroke: #374151; stroke-width: 0.8; stroke-linejoin: miter; stroke-linecap: square"/>
   </g>
   <g id="patch_22">
    <path d="M 471.910078 173.331924 
L 634.401328 173.331924 
" style="fill: none; stroke: #374151; stroke-width: 0.8; stroke-linejoin: miter; stroke-linecap: square"/>
   </g>
   <g id="text_48">
    <!-- 1221 -->
    <g transform="translate(481.750518 119.630906) scale(0.075 -0.075)">
     <use xlink:href="#HiraginoSansGB-W3-31"/>
     <use xlink:href="#HiraginoSansGB-W3-32" x="65.699997"/>
     <use xlink:href="#HiraginoSansGB-W3-32" x="131.399994"/>
     <use xlink:href="#HiraginoSansGB-W3-31" x="197.099991"/>
    </g>
   </g>
   <g id="text_49">
    <!-- 1420 -->
    <g transform="translate(522.769014 37.883353) scale(0.075 -0.075)">
     <use xlink:href="#HiraginoSansGB-W3-31"/>
     <use xlink:href="#HiraginoSansGB-W3-34" x="65.699997"/>
     <use xlink:href="#HiraginoSansGB-W3-32" x="131.799988"/>
     <use xlink:href="#HiraginoSansGB-W3-30" x="197.499985"/>
    </g>
   </g>
   <g id="text_50">
    <!-- 1301 -->
    <g transform="translate(563.816806 86.767568) scale(0.075 -0.075)">
     <use xlink:href="#HiraginoSansGB-W3-31"/>
     <use xlink:href="#HiraginoSansGB-W3-33" x="65.699997"/>
     <use xlink:href="#HiraginoSansGB-W3-30" x="131.399994"/>
     <use xlink:href="#HiraginoSansGB-W3-31" x="197.099991"/>
    </g>
   </g>
   <g id="text_51">
    <!-- 1339 -->
    <g transform="translate(604.84995 71.157483) scale(0.075 -0.075)">
     <use xlink:href="#HiraginoSansGB-W3-31"/>
     <use xlink:href="#HiraginoSansGB-W3-33" x="65.699997"/>
     <use xlink:href="#HiraginoSansGB-W3-33" x="131.399994"/>
     <use xlink:href="#HiraginoSansGB-W3-39" x="197.099991"/>
    </g>
   </g>
  </g>
 </g>
 <defs>
  <clipPath id="p76907da886">
   <rect x="42.667578" y="9.015234" width="162.49125" height="164.31669"/>
  </clipPath>
  <clipPath id="p03454b0025">
   <rect x="257.288828" y="9.015234" width="162.49125" height="164.31669"/>
  </clipPath>
  <clipPath id="pc684779862">
   <rect x="471.910078" y="9.015234" width="162.49125" height="164.31669"/>
  </clipPath>
 </defs>
</svg>
