<?xml version="1.0" encoding="utf-8" standalone="no"?>
<!DOCTYPE svg PUBLIC "-//W3C//DTD SVG 1.1//EN"
  "http://www.w3.org/Graphics/SVG/1.1/DTD/svg11.dtd">
<svg xmlns:xlink="http://www.w3.org/1999/xlink" width="582.309531pt" height="208.113516pt" viewBox="0 0 582.309531 208.113516" xmlns="http://www.w3.org/2000/svg" version="1.1">
 <metadata>
  <rdf:RDF xmlns:dc="http://purl.org/dc/elements/1.1/" xmlns:cc="http://creativecommons.org/ns#" xmlns:rdf="http://www.w3.org/1999/02/22-rdf-syntax-ns#">
   <cc:Work>
    <dc:type rdf:resource="http://purl.org/dc/dcmitype/StillImage"/>
    <dc:date>2026-05-11T17:05:07.600534</dc:date>
    <dc:format>image/svg+xml</dc:format>
    <dc:creator>
     <cc:Agent>
      <dc:title>Matplotlib v3.9.4, https://matplotlib.org/</dc:title>
     </cc:Agent>
    </dc:creator>
   </cc:Work>
  </rdf:RDF>
 </metadata>
 <defs>
  <style type="text/css">*{stroke-linejoin: round; stroke-linecap: butt}</style>
 </defs>
 <g id="figure_1">
  <g id="patch_1">
   <path d="M 0 208.113516 
L 582.309531 208.113516 
L 582.309531 0 
L 0 0 
z
" style="fill: #ffffff"/>
  </g>
  <g id="axes_1">
   <g id="patch_2">
    <path d="M 36.659531 186.87875 
L 188.049531 186.87875 
L 188.049531 5.76 
L 36.659531 5.76 
z
" style="fill: #ffffff"/>
   </g>
   <g id="matplotlib.axis_1">
    <g id="xtick_1">
     <g id="line2d_1">
      <path d="M 61.891198 186.87875 
L 61.891198 5.76 
" clip-path="url(#pe2bf7d3ed6)" style="fill: none; stroke: #e5e7eb; stroke-opacity: 0.7; stroke-width: 0.6; stroke-linecap: square"/>
     </g>
     <g id="line2d_2">
      <defs>
       <path id="m749a58ceed" d="M 0 0 
L 0 3.5 
" style="stroke: #374151; stroke-width: 0.6"/>
      </defs>
      <g>
       <use xlink:href="#m749a58ceed" x="61.891198" y="186.87875" style="fill: #374151; stroke: #374151; stroke-width: 0.6"/>
      </g>
     </g>
     <g id="text_1">
      <!-- MOPS (本文) -->
      <g style="fill: #374151" transform="translate(35.898464 200.618984) scale(0.085 -0.085)">
       <defs>
        <path id="HiraginoSansGB-W3-4d" d="M 2554 710 
C 2682 422 2758 205 2790 38 
L 3245 38 
C 3296 250 3360 416 3488 704 
L 4794 3578 
C 4915 3840 5005 4096 5069 4358 
C 5043 4096 5024 3750 5024 3571 
L 5024 794 
C 5024 486 5011 256 4973 38 
L 5555 38 
C 5517 269 5504 442 5504 794 
L 5504 4141 
C 5504 4474 5517 4659 5555 4902 
L 4819 4902 
C 4781 4717 4710 4518 4602 4269 
L 3027 742 
L 1446 4269 
C 1350 4480 1274 4710 1235 4902 
L 493 4902 
C 531 4666 544 4461 544 4141 
L 544 794 
C 544 461 531 275 493 38 
L 1075 38 
C 1037 256 1024 454 1024 794 
L 1024 3533 
C 1024 3686 998 4083 979 4358 
C 1101 3968 1171 3770 1267 3565 
L 2554 710 
z
" transform="scale(0.015625)"/>
        <path id="HiraginoSansGB-W3-4f" d="M 2547 4998 
C 1203 4998 333 4006 333 2470 
C 333 928 1190 -58 2541 -58 
C 3891 -58 4755 928 4755 2470 
C 4755 4013 3898 4998 2547 4998 
z
M 2554 397 
C 1530 397 851 1222 851 2477 
C 851 3731 1523 4550 2547 4550 
C 2989 4550 3373 4397 3667 4109 
C 4038 3738 4230 3174 4230 2470 
C 4230 1786 4026 1190 3661 832 
C 3373 544 2995 397 2554 397 
z
" transform="scale(0.015625)"/>
        <path id="HiraginoSansGB-W3-50" d="M 1094 38 
C 1056 256 1043 454 1043 762 
L 1043 2022 
L 2470 2022 
C 3469 2022 4045 2566 4045 3507 
C 4045 4397 3488 4902 2502 4902 
L 1197 4902 
C 902 4902 723 4909 493 4922 
C 531 4653 544 4454 544 4192 
L 544 755 
C 544 454 531 269 493 38 
L 1094 38 
z
M 1043 2464 
L 1043 4461 
L 2470 4461 
C 3162 4461 3533 4122 3533 3482 
C 3533 2829 3149 2464 2470 2464 
L 1043 2464 
z
" transform="scale(0.015625)"/>
        <path id="HiraginoSansGB-W3-53" d="M 3840 3718 
C 3770 4045 3706 4205 3558 4397 
C 3270 4781 2778 4986 2144 4986 
C 1152 4986 506 4467 506 3661 
C 506 3213 704 2874 1101 2650 
C 1318 2528 1568 2438 1971 2355 
C 2746 2182 2816 2163 3027 2042 
C 3270 1907 3398 1670 3398 1357 
C 3398 762 2938 403 2176 403 
C 1702 403 1318 563 1107 845 
C 973 1018 928 1171 909 1478 
L 352 1408 
C 416 986 486 787 653 563 
C 947 166 1478 -45 2195 -45 
C 3296 -45 3917 467 3917 1370 
C 3917 2112 3507 2502 2483 2720 
C 1747 2880 1741 2880 1568 2950 
C 1190 3104 1011 3341 1011 3674 
C 1011 4192 1472 4544 2131 4544 
C 2547 4544 2874 4416 3078 4173 
C 3200 4026 3251 3898 3302 3642 
L 3840 3718 
z
" transform="scale(0.015625)"/>
        <path id="HiraginoSansGB-W3-20" transform="scale(0.015625)"/>
        <path id="HiraginoSansGB-W3-28" d="M 2093 -762 
C 1734 -211 1594 77 1453 531 
C 1306 992 1235 1478 1235 1984 
C 1235 2490 1306 2970 1453 3430 
C 1594 3885 1734 4173 2093 4723 
L 1690 4979 
C 1318 4410 1165 4102 1011 3648 
C 838 3130 749 2579 749 1984 
C 749 1389 838 838 1011 320 
C 1165 -141 1318 -448 1690 -1018 
L 2093 -762 
z
" transform="scale(0.015625)"/>
        <path id="HiraginoSansGB-W3-672c" d="M 2938 4186 
L 1146 4186 
C 864 4186 678 4198 442 4230 
L 442 3763 
C 678 3789 896 3802 1146 3802 
L 2778 3802 
C 2528 3296 2208 2829 1734 2285 
C 1248 1709 787 1318 237 986 
C 390 845 442 781 538 608 
C 1005 934 1350 1242 1754 1683 
C 2330 2310 2669 2835 2963 3533 
C 2944 3187 2938 2944 2938 2707 
L 2938 1254 
L 2310 1254 
C 1984 1254 1843 1261 1677 1286 
L 1677 838 
C 1869 870 2022 877 2323 877 
L 2938 877 
L 2938 275 
C 2938 -19 2925 -243 2893 -467 
L 3398 -467 
C 3366 -262 3354 -32 3354 269 
L 3354 877 
L 4038 877 
C 4326 877 4480 870 4672 838 
L 4672 1286 
C 4506 1261 4365 1254 4051 1254 
L 3354 1254 
L 3354 2707 
C 3354 2918 3347 3155 3328 3539 
C 3635 2848 3994 2304 4525 1741 
C 4941 1299 5338 966 5856 621 
C 5946 794 6016 890 6150 1037 
C 5574 1350 5120 1709 4634 2234 
C 4230 2662 3827 3232 3514 3802 
L 5242 3802 
C 5498 3802 5690 3789 5958 3763 
L 5958 4230 
C 5773 4198 5562 4186 5242 4186 
L 3354 4186 
L 3354 4736 
C 3354 4934 3366 5120 3398 5312 
L 2893 5312 
C 2925 5094 2938 4941 2938 4730 
L 2938 4186 
z
" transform="scale(0.015625)"/>
        <path id="HiraginoSansGB-W3-6587" d="M 1542 3853 
C 1734 3238 1875 2918 2138 2477 
C 2362 2093 2592 1779 2912 1427 
C 2176 755 1312 294 256 6 
C 378 -122 448 -218 525 -390 
C 1568 -64 2426 422 3200 1139 
C 3910 454 4755 -32 5862 -397 
C 5939 -218 6016 -102 6144 26 
C 5504 198 5146 339 4659 608 
C 4211 851 3859 1101 3494 1434 
C 3885 1850 4186 2285 4435 2803 
C 4608 3149 4640 3238 4826 3853 
L 5338 3853 
C 5690 3853 5882 3840 6061 3814 
L 6061 4269 
C 5862 4237 5645 4224 5331 4224 
L 3277 4224 
L 3552 4397 
C 3277 4864 3277 4864 2912 5363 
L 2579 5171 
C 2822 4858 2822 4858 3181 4224 
L 1075 4224 
C 774 4224 557 4237 358 4269 
L 358 3814 
C 550 3840 749 3853 1069 3853 
L 1542 3853 
z
M 4358 3853 
C 4230 3392 4173 3251 4026 2938 
C 3802 2477 3546 2093 3206 1715 
C 2931 2003 2720 2285 2509 2630 
C 2259 3040 2170 3258 1984 3853 
L 4358 3853 
z
" transform="scale(0.015625)"/>
        <path id="HiraginoSansGB-W3-29" d="M 179 4723 
C 538 4173 678 3885 819 3430 
C 966 2970 1037 2496 1037 1984 
C 1037 1472 966 992 819 531 
C 678 77 538 -211 179 -762 
L 582 -1018 
C 954 -448 1107 -141 1261 320 
C 1440 838 1523 1382 1523 1984 
C 1523 2579 1440 3130 1261 3648 
C 1107 4102 954 4410 582 4979 
L 179 4723 
z
" transform="scale(0.015625)"/>
       </defs>
       <use xlink:href="#HiraginoSansGB-W3-4d"/>
       <use xlink:href="#HiraginoSansGB-W3-4f" x="94.499985"/>
       <use xlink:href="#HiraginoSansGB-W3-50" x="173.999969"/>
       <use xlink:href="#HiraginoSansGB-W3-53" x="240.199966"/>
       <use xlink:href="#HiraginoSansGB-W3-20" x="307.09996"/>
       <use xlink:href="#HiraginoSansGB-W3-28" x="340.399948"/>
       <use xlink:href="#HiraginoSansGB-W3-672c" x="375.999939"/>
       <use xlink:href="#HiraginoSansGB-W3-6587" x="475.999924"/>
       <use xlink:href="#HiraginoSansGB-W3-29" x="575.999908"/>
      </g>
     </g>
    </g>
    <g id="xtick_2">
     <g id="line2d_3">
      <path d="M 112.354531 186.87875 
L 112.354531 5.76 
" clip-path="url(#pe2bf7d3ed6)" style="fill: none; stroke: #e5e7eb; stroke-opacity: 0.7; stroke-width: 0.6; stroke-linecap: square"/>
     </g>
     <g id="line2d_4">
      <g>
       <use xlink:href="#m749a58ceed" x="112.354531" y="186.87875" style="fill: #374151; stroke: #374151; stroke-width: 0.6"/>
      </g>
     </g>
     <g id="text_2">
      <!-- Plan-Execute -->
      <g style="fill: #374151" transform="translate(85.206328 200.389219) scale(0.085 -0.085)">
       <defs>
        <path id="HiraginoSansGB-W3-6c" d="M 454 4902 
C 486 4672 499 4499 499 4186 
L 499 755 
C 499 467 486 269 454 38 
L 1030 38 
C 998 294 986 467 986 755 
L 986 4179 
C 986 4499 998 4672 1030 4902 
L 454 4902 
z
" transform="scale(0.015625)"/>
        <path id="HiraginoSansGB-W3-61" d="M 2733 38 
L 3251 38 
C 3213 294 3200 454 3200 742 
L 3200 2541 
C 3200 3232 2765 3590 1920 3590 
C 1440 3590 1056 3469 794 3226 
C 634 3085 550 2950 435 2656 
L 934 2547 
C 998 2739 1050 2829 1133 2918 
C 1312 3104 1574 3194 1926 3194 
C 2458 3194 2733 2970 2733 2534 
L 2733 2163 
C 1946 2144 1638 2106 1261 1997 
C 666 1830 346 1459 346 947 
C 346 339 774 -26 1478 -26 
C 1696 -26 1926 19 2144 102 
C 2362 186 2483 269 2733 493 
L 2733 38 
z
M 2733 1370 
C 2733 1114 2682 979 2534 819 
C 2285 544 1882 365 1510 365 
C 1094 365 832 589 832 941 
C 832 1248 992 1466 1318 1600 
C 1606 1722 1971 1766 2733 1786 
L 2733 1370 
z
" transform="scale(0.015625)"/>
        <path id="HiraginoSansGB-W3-6e" d="M 1030 38 
C 998 288 986 480 986 762 
L 986 1997 
C 1037 2253 1114 2413 1280 2630 
C 1549 2976 1837 3136 2195 3136 
C 2701 3136 2976 2829 2976 2253 
L 2976 762 
C 2976 480 2963 288 2931 38 
L 3507 38 
C 3475 250 3462 429 3462 755 
L 3462 2336 
C 3462 2650 3405 2886 3283 3072 
C 3078 3386 2720 3552 2259 3552 
C 1683 3552 1267 3302 966 2778 
C 986 2925 986 2976 986 3053 
L 986 3488 
L 454 3488 
C 493 3232 506 3053 506 2765 
L 506 762 
C 506 454 493 282 454 38 
L 1030 38 
z
" transform="scale(0.015625)"/>
        <path id="HiraginoSansGB-W3-2d" d="M 179 1632 
C 358 1658 506 1664 762 1664 
L 1523 1664 
C 1792 1664 1933 1658 2112 1632 
L 2112 2170 
C 1933 2144 1798 2138 1523 2138 
L 762 2138 
C 493 2138 358 2144 179 2170 
L 179 1632 
z
" transform="scale(0.015625)"/>
        <path id="HiraginoSansGB-W3-45" d="M 3789 531 
C 3552 499 3373 486 3078 486 
L 1050 486 
L 1050 2368 
L 2733 2368 
C 3066 2368 3232 2355 3450 2323 
L 3450 2861 
C 3206 2829 3014 2816 2733 2816 
L 1050 2816 
L 1050 4454 
L 3021 4454 
C 3341 4454 3514 4442 3738 4410 
L 3738 4947 
C 3520 4915 3302 4902 3021 4902 
L 1197 4902 
C 890 4902 717 4909 493 4922 
C 531 4640 544 4467 544 4192 
L 544 781 
C 544 454 531 262 493 19 
C 710 32 890 38 1197 38 
L 3072 38 
C 3411 38 3584 26 3789 -6 
L 3789 531 
z
" transform="scale(0.015625)"/>
        <path id="HiraginoSansGB-W3-78" d="M 3315 38 
C 2918 563 2918 563 2854 646 
L 2010 1824 
L 2816 2957 
C 2925 3110 3059 3283 3206 3488 
L 2592 3488 
C 2534 3360 2451 3219 2342 3059 
L 1722 2157 
L 1094 3059 
C 973 3232 909 3341 845 3488 
L 218 3488 
C 512 3098 563 3034 602 2976 
L 1427 1824 
L 538 595 
C 397 390 224 166 122 38 
L 755 38 
C 851 218 902 314 1005 454 
L 1715 1491 
L 2394 512 
C 2528 307 2592 205 2682 38 
L 3315 38 
z
" transform="scale(0.015625)"/>
        <path id="HiraginoSansGB-W3-65" d="M 3475 1690 
C 3462 1862 3437 2112 3430 2182 
C 3302 3040 2707 3571 1882 3571 
C 922 3571 294 2854 294 1760 
C 294 653 928 -51 1933 -51 
C 2400 -51 2790 102 3091 397 
C 3238 544 3322 659 3443 928 
L 2995 1107 
C 2816 614 2458 358 1939 358 
C 1555 358 1242 512 1037 794 
C 864 1024 800 1261 781 1690 
L 3475 1690 
z
M 800 2093 
C 838 2336 870 2451 960 2611 
C 1152 2970 1478 3168 1869 3168 
C 2176 3168 2426 3072 2624 2880 
C 2829 2682 2925 2451 2963 2093 
L 800 2093 
z
" transform="scale(0.015625)"/>
        <path id="HiraginoSansGB-W3-63" d="M 3373 2579 
C 3296 2765 3238 2867 3149 2989 
C 2874 3373 2445 3578 1914 3578 
C 934 3578 294 2854 294 1747 
C 294 653 941 -45 1946 -45 
C 2464 -45 2874 141 3155 493 
C 3264 634 3328 755 3418 986 
L 2938 1114 
C 2893 960 2861 883 2797 787 
C 2630 525 2330 378 1965 378 
C 1248 378 787 915 787 1760 
C 787 2618 1235 3168 1939 3168 
C 2413 3168 2720 2931 2906 2432 
L 3373 2579 
z
" transform="scale(0.015625)"/>
        <path id="HiraginoSansGB-W3-75" d="M 2970 38 
L 3501 38 
C 3462 294 3450 474 3450 762 
L 3450 2765 
C 3450 3059 3462 3264 3494 3488 
L 2925 3488 
C 2957 3264 2970 3040 2970 2765 
L 2970 1530 
C 2912 1274 2842 1114 2675 890 
C 2419 544 2118 384 1754 384 
C 1254 384 979 704 979 1274 
L 979 2765 
C 979 3046 992 3264 1024 3488 
L 448 3488 
C 480 3283 493 3059 493 2771 
L 493 1190 
C 493 883 557 634 672 448 
C 877 141 1235 -26 1696 -26 
C 2272 -26 2669 211 2989 736 
C 2970 570 2970 525 2970 454 
L 2970 38 
z
" transform="scale(0.015625)"/>
        <path id="HiraginoSansGB-W3-74" d="M 858 4442 
C 890 4230 902 3987 902 3731 
L 902 3488 
L 646 3488 
C 378 3488 250 3494 70 3526 
L 70 3040 
C 282 3066 429 3078 646 3078 
L 902 3078 
L 902 787 
C 902 486 954 301 1082 173 
C 1210 45 1427 -26 1709 -26 
C 1971 -26 2170 13 2432 122 
L 2291 570 
C 2080 442 1952 403 1786 403 
C 1651 403 1542 442 1472 512 
C 1414 570 1389 666 1389 851 
L 1389 3078 
L 1696 3078 
C 1984 3078 2144 3072 2349 3040 
L 2349 3526 
C 2125 3494 1990 3488 1696 3488 
L 1389 3488 
L 1389 3731 
C 1389 4006 1402 4237 1434 4442 
L 858 4442 
z
" transform="scale(0.015625)"/>
       </defs>
       <use xlink:href="#HiraginoSansGB-W3-50"/>
       <use xlink:href="#HiraginoSansGB-W3-6c" x="66.199997"/>
       <use xlink:href="#HiraginoSansGB-W3-61" x="89.399994"/>
       <use xlink:href="#HiraginoSansGB-W3-6e" x="146.899979"/>
       <use xlink:href="#HiraginoSansGB-W3-2d" x="208.699966"/>
       <use xlink:href="#HiraginoSansGB-W3-45" x="244.499954"/>
       <use xlink:href="#HiraginoSansGB-W3-78" x="308.799942"/>
       <use xlink:href="#HiraginoSansGB-W3-65" x="362.399933"/>
       <use xlink:href="#HiraginoSansGB-W3-63" x="421.199921"/>
       <use xlink:href="#HiraginoSansGB-W3-75" x="478.999908"/>
       <use xlink:href="#HiraginoSansGB-W3-74" x="540.799896"/>
       <use xlink:href="#HiraginoSansGB-W3-65" x="579.999893"/>
      </g>
     </g>
    </g>
    <g id="xtick_3">
     <g id="line2d_5">
      <path d="M 162.817865 186.87875 
L 162.817865 5.76 
" clip-path="url(#pe2bf7d3ed6)" style="fill: none; stroke: #e5e7eb; stroke-opacity: 0.7; stroke-width: 0.6; stroke-linecap: square"/>
     </g>
     <g id="line2d_6">
      <g>
       <use xlink:href="#m749a58ceed" x="162.817865" y="186.87875" style="fill: #374151; stroke: #374151; stroke-width: 0.6"/>
      </g>
     </g>
     <g id="text_3">
      <!-- ReAct -->
      <g style="fill: #374151" transform="translate(149.923763 200.389219) scale(0.085 -0.085)">
       <defs>
        <path id="HiraginoSansGB-W3-52" d="M 4410 38 
C 4320 192 4230 384 4122 634 
C 3923 1075 3770 1408 3616 1709 
C 3386 2163 3226 2336 2963 2413 
C 3309 2490 3469 2566 3654 2733 
C 3917 2957 4038 3264 4038 3674 
C 4038 4467 3526 4902 2598 4902 
L 1190 4902 
C 896 4902 717 4909 493 4922 
C 531 4666 544 4461 544 4186 
L 544 755 
C 544 442 531 269 493 38 
L 1088 38 
C 1050 269 1037 435 1037 762 
L 1037 2259 
L 2221 2259 
C 2733 2259 2982 2010 3354 1133 
C 3622 493 3712 230 3731 38 
L 4410 38 
z
M 1037 2701 
L 1037 4461 
L 2592 4461 
C 3200 4461 3520 4166 3520 3622 
C 3520 3347 3443 3136 3277 2976 
C 3104 2803 2842 2701 2554 2701 
L 1037 2701 
z
" transform="scale(0.015625)"/>
        <path id="HiraginoSansGB-W3-41" d="M 4710 38 
C 4614 205 4531 390 4371 774 
L 2938 4307 
C 2778 4698 2746 4781 2720 4902 
L 2074 4902 
C 2042 4755 1990 4608 1869 4307 
L 435 774 
C 262 346 218 250 90 38 
L 755 38 
C 800 262 858 448 954 691 
L 1286 1517 
L 3520 1517 
L 3853 691 
C 3930 493 4000 269 4051 38 
L 4710 38 
z
M 3366 1958 
L 1440 1958 
L 2259 4070 
C 2272 4096 2291 4166 2330 4269 
C 2342 4314 2368 4384 2400 4480 
C 2522 4128 2522 4122 2541 4070 
L 3366 1958 
z
" transform="scale(0.015625)"/>
       </defs>
       <use xlink:href="#HiraginoSansGB-W3-52"/>
       <use xlink:href="#HiraginoSansGB-W3-65" x="72.599991"/>
       <use xlink:href="#HiraginoSansGB-W3-41" x="131.399979"/>
       <use xlink:href="#HiraginoSansGB-W3-63" x="206.399963"/>
       <use xlink:href="#HiraginoSansGB-W3-74" x="264.199951"/>
      </g>
     </g>
    </g>
   </g>
   <g id="matplotlib.axis_2">
    <g id="ytick_1">
     <g id="line2d_7">
      <path d="M 36.659531 178.64608 
L 188.049531 178.64608 
" clip-path="url(#pe2bf7d3ed6)" style="fill: none; stroke: #e5e7eb; stroke-opacity: 0.7; stroke-width: 0.6; stroke-linecap: square"/>
     </g>
     <g id="line2d_8">
      <defs>
       <path id="m4820d28982" d="M 0 0 
L -3.5 0 
" style="stroke: #374151; stroke-width: 0.6"/>
      </defs>
      <g>
       <use xlink:href="#m4820d28982" x="36.659531" y="178.64608" style="fill: #374151; stroke: #374151; stroke-width: 0.6"/>
      </g>
     </g>
     <g id="text_4">
      <!-- 2 -->
      <g style="fill: #374151" transform="translate(24.074766 181.901314) scale(0.085 -0.085)">
       <defs>
        <path id="HiraginoSansGB-W3-32" d="M 3027 38 
C 3347 38 3558 26 3814 0 
L 3814 538 
C 3571 506 3354 493 3034 493 
L 992 493 
C 1069 800 1158 973 1357 1235 
C 1568 1504 1773 1683 2278 2022 
C 3008 2509 3174 2630 3366 2848 
C 3616 3123 3744 3430 3744 3757 
C 3744 4512 3123 4998 2157 4998 
C 1594 4998 1158 4832 870 4506 
C 659 4269 563 4045 467 3584 
L 1005 3494 
C 1050 3814 1107 3968 1229 4141 
C 1421 4416 1734 4557 2157 4557 
C 2810 4557 3219 4243 3219 3757 
C 3219 3366 3008 3085 2374 2656 
C 1632 2150 1619 2144 1395 1952 
C 992 1606 723 1254 563 851 
C 467 608 448 512 378 6 
C 582 32 678 38 1082 38 
L 3027 38 
z
" transform="scale(0.015625)"/>
       </defs>
       <use xlink:href="#HiraginoSansGB-W3-32"/>
      </g>
     </g>
    </g>
    <g id="ytick_2">
     <g id="line2d_9">
      <path d="M 36.659531 145.715398 
L 188.049531 145.715398 
" clip-path="url(#pe2bf7d3ed6)" style="fill: none; stroke: #e5e7eb; stroke-opacity: 0.7; stroke-width: 0.6; stroke-linecap: square"/>
     </g>
     <g id="line2d_10">
      <g>
       <use xlink:href="#m4820d28982" x="36.659531" y="145.715398" style="fill: #374151; stroke: #374151; stroke-width: 0.6"/>
      </g>
     </g>
     <g id="text_5">
      <!-- 4 -->
      <g style="fill: #374151" transform="translate(24.041563 148.970632) scale(0.085 -0.085)">
       <defs>
        <path id="HiraginoSansGB-W3-34" d="M 198 1254 
C 410 1274 602 1280 960 1280 
L 2675 1280 
L 2675 730 
C 2675 442 2662 262 2624 38 
L 3206 38 
C 3168 275 3155 422 3155 730 
L 3155 1280 
L 3392 1280 
C 3667 1280 3827 1267 4064 1235 
L 4064 1766 
C 3834 1734 3667 1722 3398 1722 
L 3155 1722 
L 3155 3821 
C 3155 4326 3162 4525 3194 4902 
L 2714 4902 
C 2566 4678 2451 4518 2234 4250 
L 614 2227 
C 480 2067 333 1888 198 1734 
L 198 1254 
z
M 2682 1715 
L 768 1715 
L 2240 3571 
C 2426 3808 2586 4019 2720 4211 
C 2688 3885 2682 3680 2682 3341 
L 2682 1715 
z
" transform="scale(0.015625)"/>
       </defs>
       <use xlink:href="#HiraginoSansGB-W3-34"/>
      </g>
     </g>
    </g>
    <g id="ytick_3">
     <g id="line2d_11">
      <path d="M 36.659531 112.784716 
L 188.049531 112.784716 
" clip-path="url(#pe2bf7d3ed6)" style="fill: none; stroke: #e5e7eb; stroke-opacity: 0.7; stroke-width: 0.6; stroke-linecap: square"/>
     </g>
     <g id="line2d_12">
      <g>
       <use xlink:href="#m4820d28982" x="36.659531" y="112.784716" style="fill: #374151; stroke: #374151; stroke-width: 0.6"/>
      </g>
     </g>
     <g id="text_6">
      <!-- 6 -->
      <g style="fill: #374151" transform="translate(24.074766 116.03995) scale(0.085 -0.085)">
       <defs>
        <path id="HiraginoSansGB-W3-36" d="M 3725 4006 
C 3539 4390 3411 4563 3187 4723 
C 2944 4896 2598 4992 2214 4992 
C 1658 4992 1203 4755 864 4294 
C 557 3878 378 3162 378 2362 
C 378 1453 608 736 1024 352 
C 1299 96 1728 -51 2182 -51 
C 3194 -51 3859 602 3859 1594 
C 3859 2579 3245 3194 2253 3194 
C 1811 3194 1472 3072 1171 2803 
C 1030 2682 966 2592 851 2394 
C 896 3091 954 3386 1120 3770 
C 1350 4294 1728 4563 2227 4563 
C 2547 4563 2797 4454 2989 4243 
C 3085 4134 3130 4045 3213 3840 
L 3725 4006 
z
M 3354 1581 
C 3354 1331 3290 1069 3187 902 
C 2989 582 2605 384 2189 384 
C 1498 384 979 896 979 1587 
C 979 1907 1088 2189 1299 2400 
C 1523 2624 1862 2765 2182 2765 
C 2931 2765 3354 2336 3354 1581 
z
" transform="scale(0.015625)"/>
       </defs>
       <use xlink:href="#HiraginoSansGB-W3-36"/>
      </g>
     </g>
    </g>
    <g id="ytick_4">
     <g id="line2d_13">
      <path d="M 36.659531 79.854034 
L 188.049531 79.854034 
" clip-path="url(#pe2bf7d3ed6)" style="fill: none; stroke: #e5e7eb; stroke-opacity: 0.7; stroke-width: 0.6; stroke-linecap: square"/>
     </g>
     <g id="line2d_14">
      <g>
       <use xlink:href="#m4820d28982" x="36.659531" y="79.854034" style="fill: #374151; stroke: #374151; stroke-width: 0.6"/>
      </g>
     </g>
     <g id="text_7">
      <!-- 8 -->
      <g style="fill: #374151" transform="translate(24.074766 83.109268) scale(0.085 -0.085)">
       <defs>
        <path id="HiraginoSansGB-W3-38" d="M 2752 2586 
C 3322 2694 3680 3142 3680 3738 
C 3680 4525 3078 5005 2099 5005 
C 1133 5005 525 4512 525 3738 
C 525 3142 890 2688 1453 2586 
C 1216 2547 1075 2496 877 2368 
C 493 2118 307 1766 307 1306 
C 307 422 954 -64 2125 -64 
C 3251 -64 3891 429 3891 1306 
C 3891 1734 3731 2074 3411 2310 
C 3200 2470 3021 2547 2752 2586 
z
M 2099 4576 
C 2758 4576 3181 4237 3181 3699 
C 3181 3130 2778 2784 2106 2784 
C 1434 2784 1024 3130 1024 3699 
C 1024 4230 1446 4576 2099 4576 
z
M 2099 2342 
C 2886 2342 3366 1965 3366 1338 
C 3366 1075 3283 851 3123 704 
C 2906 486 2541 371 2093 371 
C 1299 371 832 730 832 1338 
C 832 1958 1312 2342 2099 2342 
z
" transform="scale(0.015625)"/>
       </defs>
       <use xlink:href="#HiraginoSansGB-W3-38"/>
      </g>
     </g>
    </g>
    <g id="ytick_5">
     <g id="line2d_15">
      <path d="M 36.659531 46.923352 
L 188.049531 46.923352 
" clip-path="url(#pe2bf7d3ed6)" style="fill: none; stroke: #e5e7eb; stroke-opacity: 0.7; stroke-width: 0.6; stroke-linecap: square"/>
     </g>
     <g id="line2d_16">
      <g>
       <use xlink:href="#m4820d28982" x="36.659531" y="46.923352" style="fill: #374151; stroke: #374151; stroke-width: 0.6"/>
      </g>
     </g>
     <g id="text_8">
      <!-- 10 -->
      <g style="fill: #374151" transform="translate(18.49 50.178587) scale(0.085 -0.085)">
       <defs>
        <path id="HiraginoSansGB-W3-31" d="M 1030 4429 
C 1216 4454 1382 4467 1587 4467 
L 1933 4467 
L 1933 762 
C 1933 467 1920 262 1882 38 
L 2490 38 
C 2451 275 2438 461 2438 762 
L 2438 3872 
C 2438 4218 2458 4544 2496 4934 
C 2285 4909 2182 4902 1965 4902 
L 1562 4902 
C 1318 4902 1197 4909 1030 4934 
L 1030 4429 
z
" transform="scale(0.015625)"/>
        <path id="HiraginoSansGB-W3-30" d="M 2099 -58 
C 2688 -58 3136 166 3456 614 
C 3738 1005 3904 1690 3904 2464 
C 3904 2995 3821 3507 3661 3949 
C 3584 4160 3456 4358 3277 4538 
C 2989 4838 2579 4992 2106 4992 
C 1472 4992 979 4723 672 4205 
C 448 3834 301 3142 301 2464 
C 301 1939 384 1434 544 986 
C 621 768 755 570 928 397 
C 1229 96 1626 -58 2099 -58 
z
M 2099 4550 
C 2547 4550 2893 4352 3104 3968 
C 3270 3667 3392 3034 3392 2477 
C 3392 2003 3328 1581 3194 1184 
C 3136 998 3034 832 2893 685 
C 2701 486 2426 384 2106 384 
C 1670 384 1338 570 1114 941 
C 941 1242 813 1869 813 2464 
C 813 2931 877 3366 1011 3757 
C 1062 3917 1165 4077 1299 4224 
C 1504 4442 1766 4550 2099 4550 
z
" transform="scale(0.015625)"/>
       </defs>
       <use xlink:href="#HiraginoSansGB-W3-31"/>
       <use xlink:href="#HiraginoSansGB-W3-30" x="65.699997"/>
      </g>
     </g>
    </g>
    <g id="ytick_6">
     <g id="line2d_17">
      <path d="M 36.659531 13.99267 
L 188.049531 13.99267 
" clip-path="url(#pe2bf7d3ed6)" style="fill: none; stroke: #e5e7eb; stroke-opacity: 0.7; stroke-width: 0.6; stroke-linecap: square"/>
     </g>
     <g id="line2d_18">
      <g>
       <use xlink:href="#m4820d28982" x="36.659531" y="13.99267" style="fill: #374151; stroke: #374151; stroke-width: 0.6"/>
      </g>
     </g>
     <g id="text_9">
      <!-- 12 -->
      <g style="fill: #374151" transform="translate(18.49 17.247905) scale(0.085 -0.085)">
       <use xlink:href="#HiraginoSansGB-W3-31"/>
       <use xlink:href="#HiraginoSansGB-W3-32" x="65.699997"/>
      </g>
     </g>
    </g>
    <g id="text_10">
     <!-- LLM 调用数 -->
     <g style="fill: #1f2937" transform="translate(12.653438 120.988516) rotate(-90) scale(0.09 -0.09)">
      <defs>
       <path id="HiraginoSansGB-W3-4c" d="M 3059 38 
C 3418 38 3597 26 3802 -6 
L 3802 538 
C 3552 506 3379 493 3059 493 
L 1043 493 
L 1043 4147 
C 1043 4499 1056 4666 1094 4902 
L 493 4902 
C 531 4678 544 4480 544 4147 
L 544 781 
C 544 467 531 262 493 19 
C 717 32 896 38 1190 38 
L 3059 38 
z
" transform="scale(0.015625)"/>
       <path id="HiraginoSansGB-W3-8c03" d="M 4262 3571 
L 4634 3571 
C 4851 3571 4986 3565 5126 3552 
L 5126 3923 
C 4966 3904 4826 3898 4634 3898 
L 4262 3898 
L 4262 3949 
C 4262 4186 4269 4307 4294 4442 
L 3885 4442 
C 3910 4294 3917 4179 3917 3955 
L 3917 3898 
L 3616 3898 
C 3424 3898 3277 3904 3104 3923 
L 3104 3552 
C 3258 3565 3398 3571 3610 3571 
L 3917 3571 
L 3917 2912 
L 3533 2912 
C 3290 2912 3155 2918 3014 2938 
L 3014 2554 
C 3194 2573 3360 2579 3533 2579 
L 4736 2579 
C 4915 2579 5056 2573 5222 2554 
L 5222 2938 
C 5101 2918 4973 2912 4730 2912 
L 4262 2912 
L 4262 3571 
z
M 1146 742 
C 1120 634 1082 589 941 525 
L 1184 134 
C 1293 224 1293 224 1312 243 
C 1478 378 1478 378 1645 493 
C 1773 582 1958 723 2202 915 
L 2125 1363 
C 1843 1133 1747 1050 1549 909 
L 1549 2682 
C 1549 3002 1555 3162 1581 3360 
C 1434 3341 1274 3328 1094 3328 
L 787 3328 
C 544 3328 454 3334 294 3360 
L 294 2925 
C 454 2950 550 2957 762 2957 
L 1146 2957 
L 1146 742 
z
M 2835 4723 
L 5478 4723 
L 5478 211 
C 5478 51 5434 19 5210 19 
C 5037 19 4832 45 4576 96 
C 4627 -51 4659 -186 4666 -333 
C 4934 -352 5050 -358 5158 -358 
C 5696 -358 5856 -243 5856 134 
L 5856 4480 
C 5856 4762 5862 4928 5882 5107 
C 5715 5088 5581 5082 5261 5082 
L 3027 5082 
C 2726 5082 2579 5088 2406 5107 
C 2438 4832 2445 4634 2445 4378 
L 2445 3571 
C 2438 986 2368 557 1811 -198 
C 1920 -243 1971 -275 2010 -301 
C 2125 -390 2125 -390 2195 -429 
C 2528 83 2675 493 2752 1120 
C 2810 1555 2835 2477 2835 3981 
L 2835 4723 
z
M 4941 1683 
C 4941 1830 4947 1958 4960 2080 
C 4851 2067 4710 2061 4506 2061 
L 3693 2061 
C 3520 2061 3379 2067 3251 2080 
C 3264 1958 3270 1818 3270 1658 
L 3270 666 
C 3270 467 3258 288 3245 192 
L 3616 192 
L 3616 589 
L 4506 589 
C 4877 582 4877 582 4960 570 
C 4947 666 4941 768 4941 922 
L 4941 1683 
z
M 3616 1747 
L 4595 1747 
L 4595 915 
L 3616 915 
L 3616 1747 
z
M 768 4992 
C 1146 4710 1414 4454 1696 4102 
L 1997 4435 
C 1690 4768 1427 5005 1069 5274 
L 768 4992 
z
" transform="scale(0.015625)"/>
       <path id="HiraginoSansGB-W3-7528" d="M 3040 1651 
L 3040 442 
C 3040 102 3034 -90 3008 -256 
L 3469 -256 
C 3443 -102 3437 102 3437 442 
L 3437 1651 
L 5312 1651 
L 5312 205 
C 5312 45 5261 13 4966 13 
C 4736 13 4435 38 4058 83 
C 4115 -77 4141 -186 4154 -333 
C 4448 -352 4717 -365 4954 -365 
C 5574 -365 5715 -269 5715 134 
L 5715 4429 
C 5715 4717 5722 4883 5741 5056 
C 5555 5037 5382 5030 5062 5030 
L 1619 5030 
C 1299 5030 1107 5037 915 5056 
C 934 4781 941 4653 941 4051 
C 941 2432 883 1504 742 909 
C 640 474 499 186 224 -173 
C 390 -269 454 -314 595 -448 
C 1018 160 1203 717 1286 1651 
L 3040 1651 
z
M 3040 3526 
L 1350 3526 
L 1357 3885 
L 1357 4646 
L 3040 4646 
L 3040 3526 
z
M 3437 3526 
L 3437 4646 
L 5312 4646 
L 5312 3526 
L 3437 3526 
z
M 3040 3162 
L 3040 2022 
L 1312 2022 
C 1331 2336 1331 2336 1338 2739 
C 1338 2829 1338 2976 1344 3162 
L 3040 3162 
z
M 3437 3162 
L 5312 3162 
L 5312 2022 
L 3437 2022 
L 3437 3162 
z
" transform="scale(0.015625)"/>
       <path id="HiraginoSansGB-W3-6570" d="M 6138 4115 
C 5965 4083 5837 4077 5542 4077 
L 4186 4077 
C 4294 4422 4314 4486 4397 4819 
C 4480 5133 4480 5133 4512 5222 
L 4077 5318 
C 4051 4915 3930 4410 3750 3942 
C 3526 3347 3296 2950 2963 2560 
C 3104 2483 3168 2438 3283 2310 
C 3501 2592 3597 2739 3750 3053 
C 3878 2285 4058 1760 4410 1171 
C 4019 634 3507 230 2752 -134 
C 2861 -243 2938 -339 3014 -493 
C 3731 -102 4211 288 4640 826 
C 5018 307 5478 -102 6061 -442 
C 6144 -262 6195 -173 6298 -45 
C 5690 275 5242 659 4877 1165 
C 5318 1875 5530 2618 5594 3712 
C 5888 3712 5997 3706 6138 3680 
L 6138 4115 
z
M 5197 3712 
C 5165 3136 5126 2867 5005 2451 
C 4909 2099 4813 1850 4640 1536 
C 4448 1875 4314 2195 4186 2643 
C 4096 2957 4096 2957 3994 3571 
C 4000 3590 4006 3597 4026 3642 
C 4032 3661 4038 3680 4051 3712 
L 5197 3712 
z
M 3014 314 
C 2765 474 2714 499 2445 640 
C 2803 1101 2957 1389 3162 2029 
C 2880 2016 2726 2010 2694 2010 
L 1798 2010 
C 1843 2099 1875 2176 1978 2426 
L 1587 2515 
C 1510 2259 1466 2150 1395 2010 
L 832 2010 
C 602 2010 486 2016 371 2042 
L 371 1638 
C 493 1664 614 1670 832 1670 
L 1222 1670 
C 1056 1382 986 1274 762 979 
C 1331 768 1498 698 1818 544 
C 1434 262 966 58 333 -96 
C 429 -218 480 -307 538 -448 
C 1350 -186 1830 51 2176 358 
C 2419 224 2515 160 2790 -38 
L 3014 314 
z
M 2650 1670 
C 2547 1389 2349 1075 2106 806 
C 1786 954 1670 1005 1299 1146 
C 1485 1427 1542 1517 1626 1670 
L 2650 1670 
z
M 2112 4019 
L 2112 4877 
C 2112 5056 2118 5165 2144 5306 
L 1715 5306 
C 1741 5158 1747 5043 1747 4877 
L 1747 4019 
L 915 4019 
C 666 4019 531 4026 397 4051 
L 397 3654 
C 531 3680 666 3686 902 3686 
L 1491 3686 
C 1338 3469 1325 3450 1235 3354 
C 979 3072 736 2893 288 2624 
C 410 2528 480 2451 570 2317 
C 1197 2765 1446 3021 1773 3578 
C 1754 3398 1747 3328 1747 3206 
L 1747 2848 
C 1747 2758 1741 2669 1722 2586 
L 2138 2586 
C 2118 2669 2112 2758 2112 2854 
L 2112 3245 
C 2157 3219 2182 3206 2240 3174 
C 2547 2995 2618 2944 2899 2701 
L 3117 3014 
C 2662 3302 2662 3302 2112 3565 
L 2112 3686 
L 2950 3686 
C 3168 3686 3270 3680 3386 3661 
L 3386 4045 
C 3277 4026 3181 4019 2957 4019 
L 2112 4019 
z
M 589 5030 
C 800 4742 915 4538 1050 4192 
L 1395 4333 
C 1248 4666 1133 4864 915 5178 
L 589 5030 
z
M 2931 5197 
C 2790 4832 2650 4589 2400 4282 
L 2720 4122 
C 2944 4410 3059 4608 3277 5037 
L 2931 5197 
z
" transform="scale(0.015625)"/>
      </defs>
      <use xlink:href="#HiraginoSansGB-W3-4c"/>
      <use xlink:href="#HiraginoSansGB-W3-4c" x="60.199997"/>
      <use xlink:href="#HiraginoSansGB-W3-4d" x="120.399994"/>
      <use xlink:href="#HiraginoSansGB-W3-20" x="214.899979"/>
      <use xlink:href="#HiraginoSansGB-W3-8c03" x="248.199966"/>
      <use xlink:href="#HiraginoSansGB-W3-7528" x="348.199951"/>
      <use xlink:href="#HiraginoSansGB-W3-6570" x="448.199936"/>
     </g>
    </g>
   </g>
   <g id="patch_3">
    <path d="M 49.275365 112.784716 
L 74.507031 112.784716 
L 74.507031 46.923352 
L 49.275365 46.923352 
L 49.275365 112.784716 
z
" clip-path="url(#pe2bf7d3ed6)" style="fill: #264653; opacity: 0.85; stroke: #374151; stroke-linejoin: miter"/>
   </g>
   <g id="line2d_19">
    <path d="M 61.891198 112.784716 
L 61.891198 112.784716 
" clip-path="url(#pe2bf7d3ed6)" style="fill: none; stroke: #000000; stroke-linecap: square"/>
   </g>
   <g id="line2d_20">
    <path d="M 61.891198 46.923352 
L 61.891198 13.99267 
" clip-path="url(#pe2bf7d3ed6)" style="fill: none; stroke: #000000; stroke-linecap: square"/>
   </g>
   <g id="line2d_21">
    <path d="M 55.583281 112.784716 
L 68.199115 112.784716 
" clip-path="url(#pe2bf7d3ed6)" style="fill: none; stroke: #000000; stroke-linecap: square"/>
   </g>
   <g id="line2d_22">
    <path d="M 55.583281 13.99267 
L 68.199115 13.99267 
" clip-path="url(#pe2bf7d3ed6)" style="fill: none; stroke: #000000; stroke-linecap: square"/>
   </g>
   <g id="line2d_23"/>
   <g id="patch_4">
    <path d="M 99.738698 178.64608 
L 124.970365 178.64608 
L 124.970365 162.180739 
L 99.738698 162.180739 
L 99.738698 178.64608 
z
" clip-path="url(#pe2bf7d3ed6)" style="fill: #2a9d8f; opacity: 0.85; stroke: #374151; stroke-linejoin: miter"/>
   </g>
   <g id="line2d_24">
    <path d="M 112.354531 178.64608 
L 112.354531 178.64608 
" clip-path="url(#pe2bf7d3ed6)" style="fill: none; stroke: #000000; stroke-linecap: square"/>
   </g>
   <g id="line2d_25">
    <path d="M 112.354531 162.180739 
L 112.354531 145.715398 
" clip-path="url(#pe2bf7d3ed6)" style="fill: none; stroke: #000000; stroke-linecap: square"/>
   </g>
   <g id="line2d_26">
    <path d="M 106.046615 178.64608 
L 118.662448 178.64608 
" clip-path="url(#pe2bf7d3ed6)" style="fill: none; stroke: #000000; stroke-linecap: square"/>
   </g>
   <g id="line2d_27">
    <path d="M 106.046615 145.715398 
L 118.662448 145.715398 
" clip-path="url(#pe2bf7d3ed6)" style="fill: none; stroke: #000000; stroke-linecap: square"/>
   </g>
   <g id="line2d_28">
    <defs>
     <path id="md150f0c5ec" d="M 0 1.5 
C 0.397805 1.5 0.77937 1.341951 1.06066 1.06066 
C 1.341951 0.77937 1.5 0.397805 1.5 0 
C 1.5 -0.397805 1.341951 -0.77937 1.06066 -1.06066 
C 0.77937 -1.341951 0.397805 -1.5 0 -1.5 
C -0.397805 -1.5 -0.77937 -1.341951 -1.06066 -1.06066 
C -1.341951 -0.77937 -1.5 -0.397805 -1.5 0 
C -1.5 0.397805 -1.341951 0.77937 -1.06066 1.06066 
C -0.77937 1.341951 -0.397805 1.5 0 1.5 
z
" style="stroke: #000000; stroke-opacity: 0.6"/>
    </defs>
    <g clip-path="url(#pe2bf7d3ed6)">
     <use xlink:href="#md150f0c5ec" x="112.354531" y="112.784716" style="fill: #9ca3af; fill-opacity: 0.6; stroke: #000000; stroke-opacity: 0.6"/>
    </g>
   </g>
   <g id="patch_5">
    <path d="M 150.202031 178.64608 
L 175.433698 178.64608 
L 175.433698 162.180739 
L 150.202031 162.180739 
L 150.202031 178.64608 
z
" clip-path="url(#pe2bf7d3ed6)" style="fill: #9c89b8; opacity: 0.85; stroke: #374151; stroke-linejoin: miter"/>
   </g>
   <g id="line2d_29">
    <path d="M 162.817865 178.64608 
L 162.817865 178.64608 
" clip-path="url(#pe2bf7d3ed6)" style="fill: none; stroke: #000000; stroke-linecap: square"/>
   </g>
   <g id="line2d_30">
    <path d="M 162.817865 162.180739 
L 162.817865 145.715398 
" clip-path="url(#pe2bf7d3ed6)" style="fill: none; stroke: #000000; stroke-linecap: square"/>
   </g>
   <g id="line2d_31">
    <path d="M 156.509948 178.64608 
L 169.125781 178.64608 
" clip-path="url(#pe2bf7d3ed6)" style="fill: none; stroke: #000000; stroke-linecap: square"/>
   </g>
   <g id="line2d_32">
    <path d="M 156.509948 145.715398 
L 169.125781 145.715398 
" clip-path="url(#pe2bf7d3ed6)" style="fill: none; stroke: #000000; stroke-linecap: square"/>
   </g>
   <g id="line2d_33"/>
   <g id="line2d_34">
    <path d="M 49.275365 96.319375 
L 74.507031 96.319375 
" clip-path="url(#pe2bf7d3ed6)" style="fill: none; stroke: #1f2937; stroke-width: 1.1"/>
   </g>
   <g id="line2d_35">
    <path d="M 99.738698 178.64608 
L 124.970365 178.64608 
" clip-path="url(#pe2bf7d3ed6)" style="fill: none; stroke: #1f2937; stroke-width: 1.1"/>
   </g>
   <g id="line2d_36">
    <path d="M 150.202031 178.64608 
L 175.433698 178.64608 
" clip-path="url(#pe2bf7d3ed6)" style="fill: none; stroke: #1f2937; stroke-width: 1.1"/>
   </g>
   <g id="patch_6">
    <path d="M 36.659531 186.87875 
L 36.659531 5.76 
" style="fill: none; stroke: #374151; stroke-width: 0.8; stroke-linejoin: miter; stroke-linecap: square"/>
   </g>
   <g id="patch_7">
    <path d="M 36.659531 186.87875 
L 188.049531 186.87875 
" style="fill: none; stroke: #374151; stroke-width: 0.8; stroke-linejoin: miter; stroke-linecap: square"/>
   </g>
  </g>
  <g id="axes_2">
   <g id="patch_8">
    <path d="M 230.909531 186.87875 
L 382.299531 186.87875 
L 382.299531 5.76 
L 230.909531 5.76 
z
" style="fill: #ffffff"/>
   </g>
   <g id="matplotlib.axis_3">
    <g id="xtick_4">
     <g id="line2d_37">
      <path d="M 256.141198 186.87875 
L 256.141198 5.76 
" clip-path="url(#pb5f45bd4b2)" style="fill: none; stroke: #e5e7eb; stroke-opacity: 0.7; stroke-width: 0.6; stroke-linecap: square"/>
     </g>
     <g id="line2d_38">
      <g>
       <use xlink:href="#m749a58ceed" x="256.141198" y="186.87875" style="fill: #374151; stroke: #374151; stroke-width: 0.6"/>
      </g>
     </g>
     <g id="text_11">
      <!-- MOPS (本文) -->
      <g style="fill: #374151" transform="translate(230.148464 200.618984) scale(0.085 -0.085)">
       <use xlink:href="#HiraginoSansGB-W3-4d"/>
       <use xlink:href="#HiraginoSansGB-W3-4f" x="94.499985"/>
       <use xlink:href="#HiraginoSansGB-W3-50" x="173.999969"/>
       <use xlink:href="#HiraginoSansGB-W3-53" x="240.199966"/>
       <use xlink:href="#HiraginoSansGB-W3-20" x="307.09996"/>
       <use xlink:href="#HiraginoSansGB-W3-28" x="340.399948"/>
       <use xlink:href="#HiraginoSansGB-W3-672c" x="375.999939"/>
       <use xlink:href="#HiraginoSansGB-W3-6587" x="475.999924"/>
       <use xlink:href="#HiraginoSansGB-W3-29" x="575.999908"/>
      </g>
     </g>
    </g>
    <g id="xtick_5">
     <g id="line2d_39">
      <path d="M 306.604531 186.87875 
L 306.604531 5.76 
" clip-path="url(#pb5f45bd4b2)" style="fill: none; stroke: #e5e7eb; stroke-opacity: 0.7; stroke-width: 0.6; stroke-linecap: square"/>
     </g>
     <g id="line2d_40">
      <g>
       <use xlink:href="#m749a58ceed" x="306.604531" y="186.87875" style="fill: #374151; stroke: #374151; stroke-width: 0.6"/>
      </g>
     </g>
     <g id="text_12">
      <!-- Plan-Execute -->
      <g style="fill: #374151" transform="translate(279.456328 200.389219) scale(0.085 -0.085)">
       <use xlink:href="#HiraginoSansGB-W3-50"/>
       <use xlink:href="#HiraginoSansGB-W3-6c" x="66.199997"/>
       <use xlink:href="#HiraginoSansGB-W3-61" x="89.399994"/>
       <use xlink:href="#HiraginoSansGB-W3-6e" x="146.899979"/>
       <use xlink:href="#HiraginoSansGB-W3-2d" x="208.699966"/>
       <use xlink:href="#HiraginoSansGB-W3-45" x="244.499954"/>
       <use xlink:href="#HiraginoSansGB-W3-78" x="308.799942"/>
       <use xlink:href="#HiraginoSansGB-W3-65" x="362.399933"/>
       <use xlink:href="#HiraginoSansGB-W3-63" x="421.199921"/>
       <use xlink:href="#HiraginoSansGB-W3-75" x="478.999908"/>
       <use xlink:href="#HiraginoSansGB-W3-74" x="540.799896"/>
       <use xlink:href="#HiraginoSansGB-W3-65" x="579.999893"/>
      </g>
     </g>
    </g>
    <g id="xtick_6">
     <g id="line2d_41">
      <path d="M 357.067865 186.87875 
L 357.067865 5.76 
" clip-path="url(#pb5f45bd4b2)" style="fill: none; stroke: #e5e7eb; stroke-opacity: 0.7; stroke-width: 0.6; stroke-linecap: square"/>
     </g>
     <g id="line2d_42">
      <g>
       <use xlink:href="#m749a58ceed" x="357.067865" y="186.87875" style="fill: #374151; stroke: #374151; stroke-width: 0.6"/>
      </g>
     </g>
     <g id="text_13">
      <!-- ReAct -->
      <g style="fill: #374151" transform="translate(344.173763 200.389219) scale(0.085 -0.085)">
       <use xlink:href="#HiraginoSansGB-W3-52"/>
       <use xlink:href="#HiraginoSansGB-W3-65" x="72.599991"/>
       <use xlink:href="#HiraginoSansGB-W3-41" x="131.399979"/>
       <use xlink:href="#HiraginoSansGB-W3-63" x="206.399963"/>
       <use xlink:href="#HiraginoSansGB-W3-74" x="264.199951"/>
      </g>
     </g>
    </g>
   </g>
   <g id="matplotlib.axis_4">
    <g id="ytick_7">
     <g id="line2d_43">
      <path d="M 230.909531 178.64608 
L 382.299531 178.64608 
" clip-path="url(#pb5f45bd4b2)" style="fill: none; stroke: #e5e7eb; stroke-opacity: 0.7; stroke-width: 0.6; stroke-linecap: square"/>
     </g>
     <g id="line2d_44">
      <g>
       <use xlink:href="#m4820d28982" x="230.909531" y="178.64608" style="fill: #374151; stroke: #374151; stroke-width: 0.6"/>
      </g>
     </g>
     <g id="text_14">
      <!-- 1.0 -->
      <g style="fill: #374151" transform="translate(210.7 181.901314) scale(0.085 -0.085)">
       <defs>
        <path id="HiraginoSansGB-W3-2e" d="M 448 672 
L 448 38 
L 1082 38 
L 1082 672 
L 448 672 
z
" transform="scale(0.015625)"/>
       </defs>
       <use xlink:href="#HiraginoSansGB-W3-31"/>
       <use xlink:href="#HiraginoSansGB-W3-2e" x="65.699997"/>
       <use xlink:href="#HiraginoSansGB-W3-30" x="89.699982"/>
      </g>
     </g>
    </g>
    <g id="ytick_8">
     <g id="line2d_45">
      <path d="M 230.909531 151.203845 
L 382.299531 151.203845 
" clip-path="url(#pb5f45bd4b2)" style="fill: none; stroke: #e5e7eb; stroke-opacity: 0.7; stroke-width: 0.6; stroke-linecap: square"/>
     </g>
     <g id="line2d_46">
      <g>
       <use xlink:href="#m4820d28982" x="230.909531" y="151.203845" style="fill: #374151; stroke: #374151; stroke-width: 0.6"/>
      </g>
     </g>
     <g id="text_15">
      <!-- 1.5 -->
      <g style="fill: #374151" transform="translate(210.7 154.459079) scale(0.085 -0.085)">
       <defs>
        <path id="HiraginoSansGB-W3-35" d="M 1261 4461 
L 2765 4461 
C 3066 4461 3270 4448 3514 4410 
L 3514 4954 
C 3258 4915 3110 4902 2765 4902 
L 1446 4902 
C 1069 4902 966 4909 768 4934 
C 781 4774 781 4749 781 4659 
C 781 4538 774 4461 762 4275 
L 621 2829 
C 595 2554 576 2419 525 2170 
L 1005 2125 
C 1075 2298 1146 2387 1299 2509 
C 1530 2688 1811 2778 2138 2778 
C 2816 2778 3258 2317 3258 1613 
C 3258 877 2778 390 2061 390 
C 1690 390 1370 525 1152 768 
C 1056 877 1011 960 947 1139 
L 422 986 
C 576 678 666 544 826 384 
C 1133 96 1549 -51 2048 -51 
C 3104 -51 3776 608 3776 1638 
C 3776 2112 3635 2490 3347 2765 
C 3059 3046 2662 3200 2195 3200 
C 1754 3200 1382 3053 1075 2758 
C 1114 2931 1114 2931 1126 3046 
L 1261 4461 
z
" transform="scale(0.015625)"/>
       </defs>
       <use xlink:href="#HiraginoSansGB-W3-31"/>
       <use xlink:href="#HiraginoSansGB-W3-2e" x="65.699997"/>
       <use xlink:href="#HiraginoSansGB-W3-35" x="89.699982"/>
      </g>
     </g>
    </g>
    <g id="ytick_9">
     <g id="line2d_47">
      <path d="M 230.909531 123.76161 
L 382.299531 123.76161 
" clip-path="url(#pb5f45bd4b2)" style="fill: none; stroke: #e5e7eb; stroke-opacity: 0.7; stroke-width: 0.6; stroke-linecap: square"/>
     </g>
     <g id="line2d_48">
      <g>
       <use xlink:href="#m4820d28982" x="230.909531" y="123.76161" style="fill: #374151; stroke: #374151; stroke-width: 0.6"/>
      </g>
     </g>
     <g id="text_16">
      <!-- 2.0 -->
      <g style="fill: #374151" transform="translate(210.7 127.016844) scale(0.085 -0.085)">
       <use xlink:href="#HiraginoSansGB-W3-32"/>
       <use xlink:href="#HiraginoSansGB-W3-2e" x="65.699997"/>
       <use xlink:href="#HiraginoSansGB-W3-30" x="89.699982"/>
      </g>
     </g>
    </g>
    <g id="ytick_10">
     <g id="line2d_49">
      <path d="M 230.909531 96.319375 
L 382.299531 96.319375 
" clip-path="url(#pb5f45bd4b2)" style="fill: none; stroke: #e5e7eb; stroke-opacity: 0.7; stroke-width: 0.6; stroke-linecap: square"/>
     </g>
     <g id="line2d_50">
      <g>
       <use xlink:href="#m4820d28982" x="230.909531" y="96.319375" style="fill: #374151; stroke: #374151; stroke-width: 0.6"/>
      </g>
     </g>
     <g id="text_17">
      <!-- 2.5 -->
      <g style="fill: #374151" transform="translate(210.7 99.574609) scale(0.085 -0.085)">
       <use xlink:href="#HiraginoSansGB-W3-32"/>
       <use xlink:href="#HiraginoSansGB-W3-2e" x="65.699997"/>
       <use xlink:href="#HiraginoSansGB-W3-35" x="89.699982"/>
      </g>
     </g>
    </g>
    <g id="ytick_11">
     <g id="line2d_51">
      <path d="M 230.909531 68.87714 
L 382.299531 68.87714 
" clip-path="url(#pb5f45bd4b2)" style="fill: none; stroke: #e5e7eb; stroke-opacity: 0.7; stroke-width: 0.6; stroke-linecap: square"/>
     </g>
     <g id="line2d_52">
      <g>
       <use xlink:href="#m4820d28982" x="230.909531" y="68.87714" style="fill: #374151; stroke: #374151; stroke-width: 0.6"/>
      </g>
     </g>
     <g id="text_18">
      <!-- 3.0 -->
      <g style="fill: #374151" transform="translate(210.7 72.132375) scale(0.085 -0.085)">
       <defs>
        <path id="HiraginoSansGB-W3-33" d="M 288 1088 
C 403 762 480 621 614 467 
C 922 122 1402 -58 2048 -58 
C 3117 -58 3782 480 3782 1344 
C 3782 1754 3635 2093 3354 2310 
C 3136 2477 2938 2547 2566 2586 
C 2861 2643 3002 2694 3168 2816 
C 3450 3014 3616 3360 3616 3750 
C 3616 4518 3027 5005 2099 5005 
C 1542 5005 1107 4845 826 4538 
C 666 4371 589 4224 480 3898 
L 1011 3782 
C 1082 4019 1126 4122 1216 4237 
C 1395 4467 1677 4576 2067 4576 
C 2714 4576 3098 4256 3098 3706 
C 3098 3475 3002 3238 2842 3085 
C 2643 2886 2330 2790 1907 2790 
C 1734 2790 1581 2803 1434 2829 
L 1434 2323 
C 1606 2342 1766 2355 1946 2355 
C 2797 2355 3251 2010 3251 1376 
C 3251 768 2784 384 2042 384 
C 1715 384 1434 461 1216 614 
C 1018 755 928 890 826 1222 
L 288 1088 
z
" transform="scale(0.015625)"/>
       </defs>
       <use xlink:href="#HiraginoSansGB-W3-33"/>
       <use xlink:href="#HiraginoSansGB-W3-2e" x="65.699997"/>
       <use xlink:href="#HiraginoSansGB-W3-30" x="89.699982"/>
      </g>
     </g>
    </g>
    <g id="ytick_12">
     <g id="line2d_53">
      <path d="M 230.909531 41.434905 
L 382.299531 41.434905 
" clip-path="url(#pb5f45bd4b2)" style="fill: none; stroke: #e5e7eb; stroke-opacity: 0.7; stroke-width: 0.6; stroke-linecap: square"/>
     </g>
     <g id="line2d_54">
      <g>
       <use xlink:href="#m4820d28982" x="230.909531" y="41.434905" style="fill: #374151; stroke: #374151; stroke-width: 0.6"/>
      </g>
     </g>
     <g id="text_19">
      <!-- 3.5 -->
      <g style="fill: #374151" transform="translate(210.7 44.69014) scale(0.085 -0.085)">
       <use xlink:href="#HiraginoSansGB-W3-33"/>
       <use xlink:href="#HiraginoSansGB-W3-2e" x="65.699997"/>
       <use xlink:href="#HiraginoSansGB-W3-35" x="89.699982"/>
      </g>
     </g>
    </g>
    <g id="ytick_13">
     <g id="line2d_55">
      <path d="M 230.909531 13.99267 
L 382.299531 13.99267 
" clip-path="url(#pb5f45bd4b2)" style="fill: none; stroke: #e5e7eb; stroke-opacity: 0.7; stroke-width: 0.6; stroke-linecap: square"/>
     </g>
     <g id="line2d_56">
      <g>
       <use xlink:href="#m4820d28982" x="230.909531" y="13.99267" style="fill: #374151; stroke: #374151; stroke-width: 0.6"/>
      </g>
     </g>
     <g id="text_20">
      <!-- 4.0 -->
      <g style="fill: #374151" transform="translate(210.666797 17.247905) scale(0.085 -0.085)">
       <use xlink:href="#HiraginoSansGB-W3-34"/>
       <use xlink:href="#HiraginoSansGB-W3-2e" x="66.099991"/>
       <use xlink:href="#HiraginoSansGB-W3-30" x="90.099976"/>
      </g>
     </g>
    </g>
    <g id="text_21">
     <!-- 唯一工具调用 -->
     <g style="fill: #1f2937" transform="translate(204.830234 123.319375) rotate(-90) scale(0.09 -0.09)">
      <defs>
       <path id="HiraginoSansGB-W3-552f" d="M 4659 1267 
L 5261 1267 
C 5523 1267 5690 1261 5888 1229 
L 5888 1651 
C 5696 1626 5536 1619 5261 1619 
L 4659 1619 
L 4659 2566 
L 5261 2566 
C 5523 2566 5690 2560 5888 2534 
L 5888 2950 
C 5690 2925 5536 2918 5261 2918 
L 4659 2918 
L 4659 3846 
L 5338 3846 
C 5594 3846 5741 3840 5971 3808 
L 5971 4243 
C 5773 4218 5600 4205 5338 4205 
L 4973 4205 
C 4819 4634 4710 4870 4474 5312 
L 4134 5165 
C 4326 4826 4454 4557 4576 4205 
L 3296 4205 
C 3488 4531 3578 4704 3808 5203 
L 3392 5331 
C 3238 4685 2726 3808 2150 3200 
L 2150 4211 
C 2150 4538 2150 4691 2170 4806 
C 2003 4787 1875 4781 1651 4781 
L 1062 4781 
C 813 4781 666 4787 525 4806 
C 538 4659 550 4448 550 4192 
L 550 1011 
C 550 704 538 480 512 256 
L 941 256 
L 941 1018 
L 1766 1018 
L 1766 435 
L 2170 435 
C 2157 621 2150 794 2150 1139 
L 2150 3174 
C 2266 3072 2310 3002 2381 2861 
C 2547 3066 2624 3162 2688 3251 
L 2797 3411 
C 2790 3354 2790 3258 2790 2797 
L 2790 186 
C 2790 -90 2778 -269 2752 -467 
L 3174 -467 
L 3174 -173 
L 5440 -173 
C 5709 -173 5894 -186 6086 -211 
L 6086 224 
C 5907 198 5734 186 5440 186 
L 4659 186 
L 4659 1267 
z
M 4288 1267 
L 4288 186 
L 3174 186 
L 3174 1267 
L 4288 1267 
z
M 4288 1619 
L 3174 1619 
L 3174 2566 
L 4288 2566 
L 4288 1619 
z
M 4288 2918 
L 3174 2918 
L 3174 3846 
L 4288 3846 
L 4288 2918 
z
M 941 4422 
L 1766 4422 
L 1766 1376 
L 941 1376 
L 941 4422 
z
" transform="scale(0.015625)"/>
       <path id="HiraginoSansGB-W3-4e00" d="M 6016 2771 
C 5824 2739 5549 2726 5171 2726 
L 1229 2726 
C 858 2726 582 2739 378 2771 
L 378 2240 
C 582 2272 877 2285 1229 2285 
L 5171 2285 
C 5568 2285 5786 2272 6016 2240 
L 6016 2771 
z
" transform="scale(0.015625)"/>
       <path id="HiraginoSansGB-W3-5de5" d="M 3386 4224 
L 4928 4224 
C 5229 4224 5434 4211 5664 4186 
L 5664 4672 
C 5453 4646 5254 4634 4922 4634 
L 1517 4634 
C 1178 4634 979 4646 774 4672 
L 774 4186 
C 998 4211 1210 4224 1510 4224 
L 2925 4224 
L 2925 570 
L 1120 570 
C 781 570 582 582 365 614 
L 365 115 
C 589 147 794 160 1114 160 
L 5318 160 
C 5638 160 5862 147 6067 115 
L 6067 614 
C 5850 582 5651 570 5318 570 
L 3386 570 
L 3386 4224 
z
" transform="scale(0.015625)"/>
       <path id="HiraginoSansGB-W3-5177" d="M 1274 1248 
L 1037 1248 
C 774 1248 550 1261 378 1286 
L 378 832 
C 563 858 774 870 1037 870 
L 5402 870 
C 5651 870 5882 858 6061 832 
L 6061 1286 
C 5888 1261 5664 1248 5395 1248 
L 5133 1248 
L 5133 4442 
C 5133 4749 5139 4915 5165 5069 
C 4941 5043 4787 5037 4506 5037 
L 1958 5037 
C 1658 5037 1446 5043 1242 5069 
C 1267 4890 1274 4749 1274 4467 
L 1274 1248 
z
M 1670 1248 
L 1670 1882 
L 4736 1882 
L 4736 1248 
L 1670 1248 
z
M 1670 2227 
L 1670 2822 
L 4736 2822 
L 4736 2227 
L 1670 2227 
z
M 4736 4685 
L 4736 4109 
L 1670 4109 
L 1670 4685 
L 4736 4685 
z
M 4736 3763 
L 4736 3168 
L 1670 3168 
L 1670 3763 
L 4736 3763 
z
M 2259 730 
C 1997 499 1850 397 1594 262 
C 1280 109 1030 26 474 -109 
C 621 -250 666 -307 762 -467 
C 1645 -205 2022 -6 2618 499 
L 2259 730 
z
M 3821 480 
C 4474 230 4851 26 5568 -467 
L 5850 -128 
C 5146 307 4710 525 4077 736 
L 3821 480 
z
" transform="scale(0.015625)"/>
      </defs>
      <use xlink:href="#HiraginoSansGB-W3-552f"/>
      <use xlink:href="#HiraginoSansGB-W3-4e00" x="99.999985"/>
      <use xlink:href="#HiraginoSansGB-W3-5de5" x="199.999969"/>
      <use xlink:href="#HiraginoSansGB-W3-5177" x="299.999954"/>
      <use xlink:href="#HiraginoSansGB-W3-8c03" x="399.999939"/>
      <use xlink:href="#HiraginoSansGB-W3-7528" x="499.999924"/>
     </g>
    </g>
   </g>
   <g id="patch_9">
    <path d="M 243.525365 151.203845 
L 268.757031 151.203845 
L 268.757031 96.319375 
L 243.525365 96.319375 
L 243.525365 151.203845 
z
" clip-path="url(#pb5f45bd4b2)" style="fill: #264653; opacity: 0.85; stroke: #374151; stroke-linejoin: miter"/>
   </g>
   <g id="line2d_57">
    <path d="M 256.141198 151.203845 
L 256.141198 178.64608 
" clip-path="url(#pb5f45bd4b2)" style="fill: none; stroke: #000000; stroke-linecap: square"/>
   </g>
   <g id="line2d_58">
    <path d="M 256.141198 96.319375 
L 256.141198 68.87714 
" clip-path="url(#pb5f45bd4b2)" style="fill: none; stroke: #000000; stroke-linecap: square"/>
   </g>
   <g id="line2d_59">
    <path d="M 249.833281 178.64608 
L 262.449115 178.64608 
" clip-path="url(#pb5f45bd4b2)" style="fill: none; stroke: #000000; stroke-linecap: square"/>
   </g>
   <g id="line2d_60">
    <path d="M 249.833281 68.87714 
L 262.449115 68.87714 
" clip-path="url(#pb5f45bd4b2)" style="fill: none; stroke: #000000; stroke-linecap: square"/>
   </g>
   <g id="line2d_61"/>
   <g id="patch_10">
    <path d="M 293.988698 123.76161 
L 319.220365 123.76161 
L 319.220365 68.87714 
L 293.988698 68.87714 
L 293.988698 123.76161 
z
" clip-path="url(#pb5f45bd4b2)" style="fill: #2a9d8f; opacity: 0.85; stroke: #374151; stroke-linejoin: miter"/>
   </g>
   <g id="line2d_62">
    <path d="M 306.604531 123.76161 
L 306.604531 178.64608 
" clip-path="url(#pb5f45bd4b2)" style="fill: none; stroke: #000000; stroke-linecap: square"/>
   </g>
   <g id="line2d_63">
    <path d="M 306.604531 68.87714 
L 306.604531 13.99267 
" clip-path="url(#pb5f45bd4b2)" style="fill: none; stroke: #000000; stroke-linecap: square"/>
   </g>
   <g id="line2d_64">
    <path d="M 300.296615 178.64608 
L 312.912448 178.64608 
" clip-path="url(#pb5f45bd4b2)" style="fill: none; stroke: #000000; stroke-linecap: square"/>
   </g>
   <g id="line2d_65">
    <path d="M 300.296615 13.99267 
L 312.912448 13.99267 
" clip-path="url(#pb5f45bd4b2)" style="fill: none; stroke: #000000; stroke-linecap: square"/>
   </g>
   <g id="line2d_66"/>
   <g id="patch_11">
    <path d="M 344.452031 123.76161 
L 369.683698 123.76161 
L 369.683698 41.434905 
L 344.452031 41.434905 
L 344.452031 123.76161 
z
" clip-path="url(#pb5f45bd4b2)" style="fill: #9c89b8; opacity: 0.85; stroke: #374151; stroke-linejoin: miter"/>
   </g>
   <g id="line2d_67">
    <path d="M 357.067865 123.76161 
L 357.067865 178.64608 
" clip-path="url(#pb5f45bd4b2)" style="fill: none; stroke: #000000; stroke-linecap: square"/>
   </g>
   <g id="line2d_68">
    <path d="M 357.067865 41.434905 
L 357.067865 13.99267 
" clip-path="url(#pb5f45bd4b2)" style="fill: none; stroke: #000000; stroke-linecap: square"/>
   </g>
   <g id="line2d_69">
    <path d="M 350.759948 178.64608 
L 363.375781 178.64608 
" clip-path="url(#pb5f45bd4b2)" style="fill: none; stroke: #000000; stroke-linecap: square"/>
   </g>
   <g id="line2d_70">
    <path d="M 350.759948 13.99267 
L 363.375781 13.99267 
" clip-path="url(#pb5f45bd4b2)" style="fill: none; stroke: #000000; stroke-linecap: square"/>
   </g>
   <g id="line2d_71"/>
   <g id="line2d_72">
    <path d="M 243.525365 123.76161 
L 268.757031 123.76161 
" clip-path="url(#pb5f45bd4b2)" style="fill: none; stroke: #1f2937; stroke-width: 1.1"/>
   </g>
   <g id="line2d_73">
    <path d="M 293.988698 123.76161 
L 319.220365 123.76161 
" clip-path="url(#pb5f45bd4b2)" style="fill: none; stroke: #1f2937; stroke-width: 1.1"/>
   </g>
   <g id="line2d_74">
    <path d="M 344.452031 123.76161 
L 369.683698 123.76161 
" clip-path="url(#pb5f45bd4b2)" style="fill: none; stroke: #1f2937; stroke-width: 1.1"/>
   </g>
   <g id="patch_12">
    <path d="M 230.909531 186.87875 
L 230.909531 5.76 
" style="fill: none; stroke: #374151; stroke-width: 0.8; stroke-linejoin: miter; stroke-linecap: square"/>
   </g>
   <g id="patch_13">
    <path d="M 230.909531 186.87875 
L 382.299531 186.87875 
" style="fill: none; stroke: #374151; stroke-width: 0.8; stroke-linejoin: miter; stroke-linecap: square"/>
   </g>
  </g>
  <g id="axes_3">
   <g id="patch_14">
    <path d="M 425.159531 186.87875 
L 576.549531 186.87875 
L 576.549531 5.76 
L 425.159531 5.76 
z
" style="fill: #ffffff"/>
   </g>
   <g id="matplotlib.axis_5">
    <g id="xtick_7">
     <g id="line2d_75">
      <path d="M 450.391198 186.87875 
L 450.391198 5.76 
" clip-path="url(#p94cf208fe6)" style="fill: none; stroke: #e5e7eb; stroke-opacity: 0.7; stroke-width: 0.6; stroke-linecap: square"/>
     </g>
     <g id="line2d_76">
      <g>
       <use xlink:href="#m749a58ceed" x="450.391198" y="186.87875" style="fill: #374151; stroke: #374151; stroke-width: 0.6"/>
      </g>
     </g>
     <g id="text_22">
      <!-- MOPS (本文) -->
      <g style="fill: #374151" transform="translate(424.398464 200.618984) scale(0.085 -0.085)">
       <use xlink:href="#HiraginoSansGB-W3-4d"/>
       <use xlink:href="#HiraginoSansGB-W3-4f" x="94.499985"/>
       <use xlink:href="#HiraginoSansGB-W3-50" x="173.999969"/>
       <use xlink:href="#HiraginoSansGB-W3-53" x="240.199966"/>
       <use xlink:href="#HiraginoSansGB-W3-20" x="307.09996"/>
       <use xlink:href="#HiraginoSansGB-W3-28" x="340.399948"/>
       <use xlink:href="#HiraginoSansGB-W3-672c" x="375.999939"/>
       <use xlink:href="#HiraginoSansGB-W3-6587" x="475.999924"/>
       <use xlink:href="#HiraginoSansGB-W3-29" x="575.999908"/>
      </g>
     </g>
    </g>
    <g id="xtick_8">
     <g id="line2d_77">
      <path d="M 500.854531 186.87875 
L 500.854531 5.76 
" clip-path="url(#p94cf208fe6)" style="fill: none; stroke: #e5e7eb; stroke-opacity: 0.7; stroke-width: 0.6; stroke-linecap: square"/>
     </g>
     <g id="line2d_78">
      <g>
       <use xlink:href="#m749a58ceed" x="500.854531" y="186.87875" style="fill: #374151; stroke: #374151; stroke-width: 0.6"/>
      </g>
     </g>
     <g id="text_23">
      <!-- Plan-Execute -->
      <g style="fill: #374151" transform="translate(473.706328 200.389219) scale(0.085 -0.085)">
       <use xlink:href="#HiraginoSansGB-W3-50"/>
       <use xlink:href="#HiraginoSansGB-W3-6c" x="66.199997"/>
       <use xlink:href="#HiraginoSansGB-W3-61" x="89.399994"/>
       <use xlink:href="#HiraginoSansGB-W3-6e" x="146.899979"/>
       <use xlink:href="#HiraginoSansGB-W3-2d" x="208.699966"/>
       <use xlink:href="#HiraginoSansGB-W3-45" x="244.499954"/>
       <use xlink:href="#HiraginoSansGB-W3-78" x="308.799942"/>
       <use xlink:href="#HiraginoSansGB-W3-65" x="362.399933"/>
       <use xlink:href="#HiraginoSansGB-W3-63" x="421.199921"/>
       <use xlink:href="#HiraginoSansGB-W3-75" x="478.999908"/>
       <use xlink:href="#HiraginoSansGB-W3-74" x="540.799896"/>
       <use xlink:href="#HiraginoSansGB-W3-65" x="579.999893"/>
      </g>
     </g>
    </g>
    <g id="xtick_9">
     <g id="line2d_79">
      <path d="M 551.317865 186.87875 
L 551.317865 5.76 
" clip-path="url(#p94cf208fe6)" style="fill: none; stroke: #e5e7eb; stroke-opacity: 0.7; stroke-width: 0.6; stroke-linecap: square"/>
     </g>
     <g id="line2d_80">
      <g>
       <use xlink:href="#m749a58ceed" x="551.317865" y="186.87875" style="fill: #374151; stroke: #374151; stroke-width: 0.6"/>
      </g>
     </g>
     <g id="text_24">
      <!-- ReAct -->
      <g style="fill: #374151" transform="translate(538.423763 200.389219) scale(0.085 -0.085)">
       <use xlink:href="#HiraginoSansGB-W3-52"/>
       <use xlink:href="#HiraginoSansGB-W3-65" x="72.599991"/>
       <use xlink:href="#HiraginoSansGB-W3-41" x="131.399979"/>
       <use xlink:href="#HiraginoSansGB-W3-63" x="206.399963"/>
       <use xlink:href="#HiraginoSansGB-W3-74" x="264.199951"/>
      </g>
     </g>
    </g>
   </g>
   <g id="matplotlib.axis_6">
    <g id="ytick_14">
     <g id="line2d_81">
      <path d="M 425.159531 178.64608 
L 576.549531 178.64608 
" clip-path="url(#p94cf208fe6)" style="fill: none; stroke: #e5e7eb; stroke-opacity: 0.7; stroke-width: 0.6; stroke-linecap: square"/>
     </g>
     <g id="line2d_82">
      <g>
       <use xlink:href="#m4820d28982" x="425.159531" y="178.64608" style="fill: #374151; stroke: #374151; stroke-width: 0.6"/>
      </g>
     </g>
     <g id="text_25">
      <!-- 0 -->
      <g style="fill: #374151" transform="translate(412.574766 181.901314) scale(0.085 -0.085)">
       <use xlink:href="#HiraginoSansGB-W3-30"/>
      </g>
     </g>
    </g>
    <g id="ytick_15">
     <g id="line2d_83">
      <path d="M 425.159531 145.715398 
L 576.549531 145.715398 
" clip-path="url(#p94cf208fe6)" style="fill: none; stroke: #e5e7eb; stroke-opacity: 0.7; stroke-width: 0.6; stroke-linecap: square"/>
     </g>
     <g id="line2d_84">
      <g>
       <use xlink:href="#m4820d28982" x="425.159531" y="145.715398" style="fill: #374151; stroke: #374151; stroke-width: 0.6"/>
      </g>
     </g>
     <g id="text_26">
      <!-- 1 -->
      <g style="fill: #374151" transform="translate(412.574766 148.970632) scale(0.085 -0.085)">
       <use xlink:href="#HiraginoSansGB-W3-31"/>
      </g>
     </g>
    </g>
    <g id="ytick_16">
     <g id="line2d_85">
      <path d="M 425.159531 112.784716 
L 576.549531 112.784716 
" clip-path="url(#p94cf208fe6)" style="fill: none; stroke: #e5e7eb; stroke-opacity: 0.7; stroke-width: 0.6; stroke-linecap: square"/>
     </g>
     <g id="line2d_86">
      <g>
       <use xlink:href="#m4820d28982" x="425.159531" y="112.784716" style="fill: #374151; stroke: #374151; stroke-width: 0.6"/>
      </g>
     </g>
     <g id="text_27">
      <!-- 2 -->
      <g style="fill: #374151" transform="translate(412.574766 116.03995) scale(0.085 -0.085)">
       <use xlink:href="#HiraginoSansGB-W3-32"/>
      </g>
     </g>
    </g>
    <g id="ytick_17">
     <g id="line2d_87">
      <path d="M 425.159531 79.854034 
L 576.549531 79.854034 
" clip-path="url(#p94cf208fe6)" style="fill: none; stroke: #e5e7eb; stroke-opacity: 0.7; stroke-width: 0.6; stroke-linecap: square"/>
     </g>
     <g id="line2d_88">
      <g>
       <use xlink:href="#m4820d28982" x="425.159531" y="79.854034" style="fill: #374151; stroke: #374151; stroke-width: 0.6"/>
      </g>
     </g>
     <g id="text_28">
      <!-- 3 -->
      <g style="fill: #374151" transform="translate(412.574766 83.109268) scale(0.085 -0.085)">
       <use xlink:href="#HiraginoSansGB-W3-33"/>
      </g>
     </g>
    </g>
    <g id="ytick_18">
     <g id="line2d_89">
      <path d="M 425.159531 46.923352 
L 576.549531 46.923352 
" clip-path="url(#p94cf208fe6)" style="fill: none; stroke: #e5e7eb; stroke-opacity: 0.7; stroke-width: 0.6; stroke-linecap: square"/>
     </g>
     <g id="line2d_90">
      <g>
       <use xlink:href="#m4820d28982" x="425.159531" y="46.923352" style="fill: #374151; stroke: #374151; stroke-width: 0.6"/>
      </g>
     </g>
     <g id="text_29">
      <!-- 4 -->
      <g style="fill: #374151" transform="translate(412.541563 50.178587) scale(0.085 -0.085)">
       <use xlink:href="#HiraginoSansGB-W3-34"/>
      </g>
     </g>
    </g>
    <g id="ytick_19">
     <g id="line2d_91">
      <path d="M 425.159531 13.99267 
L 576.549531 13.99267 
" clip-path="url(#p94cf208fe6)" style="fill: none; stroke: #e5e7eb; stroke-opacity: 0.7; stroke-width: 0.6; stroke-linecap: square"/>
     </g>
     <g id="line2d_92">
      <g>
       <use xlink:href="#m4820d28982" x="425.159531" y="13.99267" style="fill: #374151; stroke: #374151; stroke-width: 0.6"/>
      </g>
     </g>
     <g id="text_30">
      <!-- 5 -->
      <g style="fill: #374151" transform="translate(412.574766 17.247905) scale(0.085 -0.085)">
       <use xlink:href="#HiraginoSansGB-W3-35"/>
      </g>
     </g>
    </g>
    <g id="text_31">
     <!-- 重复调用次数 -->
     <g style="fill: #1f2937" transform="translate(406.705 123.319375) rotate(-90) scale(0.09 -0.09)">
      <defs>
       <path id="HiraginoSansGB-W3-91cd" d="M 3341 4710 
C 3744 4749 4262 4813 4397 4838 
C 5043 4954 5376 5011 5389 5018 
L 5107 5382 
C 4870 5293 4704 5248 4294 5178 
C 3392 5030 2125 4928 1133 4928 
C 1050 4928 941 4928 794 4928 
C 883 4794 909 4730 954 4570 
C 1677 4589 1677 4589 2950 4672 
L 2950 4179 
L 1043 4179 
C 781 4179 563 4192 397 4218 
L 397 3802 
C 589 3827 762 3840 1043 3840 
L 2950 3840 
L 2950 3405 
L 1568 3405 
C 1350 3405 1210 3411 1056 3430 
C 1075 3258 1082 3162 1082 2989 
L 1082 1843 
C 1082 1664 1075 1587 1056 1408 
C 1222 1427 1350 1434 1568 1434 
L 2950 1434 
L 2950 947 
L 1459 947 
C 1203 947 992 960 819 986 
L 819 557 
C 998 582 1190 595 1459 595 
L 2950 595 
L 2950 58 
L 1018 58 
C 755 58 544 70 371 96 
L 371 -339 
C 557 -314 742 -301 1018 -301 
L 5402 -301 
C 5677 -301 5862 -314 6054 -339 
L 6054 96 
C 5862 70 5677 58 5402 58 
L 3341 58 
L 3341 595 
L 4954 595 
C 5222 595 5414 582 5600 557 
L 5600 986 
C 5421 960 5229 947 4954 947 
L 3341 947 
L 3341 1434 
L 4838 1434 
C 5056 1434 5190 1427 5357 1408 
C 5338 1568 5331 1664 5331 1843 
L 5331 2989 
C 5331 3162 5338 3258 5357 3430 
C 5203 3411 5062 3405 4845 3405 
L 3341 3405 
L 3341 3840 
L 5376 3840 
C 5651 3840 5850 3827 6022 3802 
L 6022 4218 
C 5837 4192 5645 4179 5376 4179 
L 3341 4179 
L 3341 4710 
z
M 2950 2579 
L 1478 2579 
L 1478 3091 
L 2950 3091 
L 2950 2579 
z
M 3341 2579 
L 3341 3091 
L 4934 3091 
L 4934 2579 
L 3341 2579 
z
M 2950 1747 
L 1478 1747 
L 1478 2266 
L 2950 2266 
L 2950 1747 
z
M 3341 1747 
L 3341 2266 
L 4934 2266 
L 4934 1747 
L 3341 1747 
z
" transform="scale(0.015625)"/>
       <path id="HiraginoSansGB-W3-590d" d="M 5011 1728 
C 4909 1702 4768 1696 4499 1696 
L 2342 1696 
C 2515 1888 2566 1958 2675 2112 
L 4595 2112 
C 4870 2112 5018 2106 5184 2086 
C 5171 2208 5165 2355 5165 2694 
L 5165 3456 
C 5165 3808 5171 3942 5184 4058 
C 5030 4038 4870 4032 4570 4032 
L 2042 4032 
C 1786 4032 1568 4038 1459 4051 
C 1568 4198 1613 4269 1728 4448 
L 4870 4448 
C 5229 4448 5478 4435 5658 4410 
L 5658 4838 
C 5504 4813 5280 4800 4864 4800 
L 1939 4800 
C 2067 5037 2150 5178 2176 5222 
L 1766 5382 
C 1696 5114 1504 4755 1210 4352 
C 941 3981 787 3827 435 3578 
C 640 3462 717 3398 774 3283 
C 1094 3584 1203 3706 1427 4013 
C 1440 3891 1446 3750 1446 3469 
L 1446 2682 
C 1446 2406 1440 2227 1421 2086 
C 1562 2106 1722 2112 2010 2112 
L 2202 2112 
C 1958 1824 1914 1773 1747 1632 
C 1414 1344 915 1030 403 794 
C 538 704 570 666 698 480 
C 1203 774 1510 973 1734 1152 
C 2042 883 2419 621 2829 397 
C 2067 154 1293 13 326 -58 
C 416 -192 461 -282 518 -461 
C 781 -422 1824 -243 2042 -192 
C 2464 -102 2950 51 3283 186 
C 4154 -173 4902 -358 5907 -461 
C 5946 -307 6016 -160 6093 -51 
C 5222 -13 4454 134 3750 390 
C 4250 646 4698 960 5082 1325 
C 5184 1427 5197 1440 5274 1498 
L 5011 1728 
z
M 2016 1382 
L 4646 1382 
C 4256 1043 3891 819 3302 576 
C 2778 819 2342 1088 2003 1376 
L 2016 1382 
z
M 1843 3712 
L 4768 3712 
L 4768 3232 
L 1843 3232 
L 1843 3712 
z
M 1843 2918 
L 4768 2918 
L 4768 2432 
L 1843 2432 
L 1843 2918 
z
" transform="scale(0.015625)"/>
       <path id="HiraginoSansGB-W3-6b21" d="M 5408 3936 
C 5286 3654 5210 3533 5050 3302 
C 4864 3046 4742 2912 4467 2669 
C 4621 2592 4698 2547 4826 2432 
C 5210 2835 5517 3277 5786 3802 
C 5894 4019 5894 4019 5933 4090 
L 5690 4339 
C 5517 4314 5350 4301 5050 4301 
L 3130 4301 
C 3194 4454 3226 4557 3322 4826 
C 3373 4992 3405 5075 3450 5184 
L 2976 5286 
C 2931 4934 2835 4608 2643 4173 
C 2426 3667 2118 3219 1754 2848 
C 1920 2752 1997 2682 2093 2566 
C 2438 2963 2739 3437 2970 3936 
L 5408 3936 
z
M 454 4666 
C 934 4314 1178 4090 1574 3616 
L 1894 3923 
C 1498 4346 1248 4576 774 4941 
L 454 4666 
z
M 1965 2285 
C 1568 1856 1331 1658 838 1306 
C 570 1114 435 1030 269 966 
L 550 538 
C 608 589 653 627 774 710 
C 1267 1075 1830 1555 2182 1914 
L 1965 2285 
z
M 3405 3571 
C 3424 3456 3430 3354 3430 3187 
C 3430 2118 3034 1139 2362 563 
C 2035 288 1747 115 1280 -64 
C 1389 -166 1478 -275 1555 -416 
C 1894 -269 2048 -186 2259 -38 
C 2592 192 2880 474 3091 768 
C 3386 1178 3571 1638 3661 2202 
C 3770 1594 4006 1101 4435 621 
C 4806 205 5222 -102 5830 -410 
C 5914 -243 5990 -134 6106 -6 
C 5741 141 5568 230 5318 397 
C 4992 621 4710 890 4493 1171 
C 4064 1734 3846 2426 3846 3226 
C 3846 3398 3853 3482 3872 3571 
L 3405 3571 
z
" transform="scale(0.015625)"/>
      </defs>
      <use xlink:href="#HiraginoSansGB-W3-91cd"/>
      <use xlink:href="#HiraginoSansGB-W3-590d" x="99.999985"/>
      <use xlink:href="#HiraginoSansGB-W3-8c03" x="199.999969"/>
      <use xlink:href="#HiraginoSansGB-W3-7528" x="299.999954"/>
      <use xlink:href="#HiraginoSansGB-W3-6b21" x="399.999939"/>
      <use xlink:href="#HiraginoSansGB-W3-6570" x="499.999924"/>
     </g>
    </g>
   </g>
   <g id="patch_15">
    <path d="M 437.775365 178.64608 
L 463.007031 178.64608 
L 463.007031 178.64608 
L 437.775365 178.64608 
L 437.775365 178.64608 
z
" clip-path="url(#p94cf208fe6)" style="fill: #264653; opacity: 0.85; stroke: #374151; stroke-linejoin: miter"/>
   </g>
   <g id="line2d_93">
    <path d="M 450.391198 178.64608 
L 450.391198 178.64608 
" clip-path="url(#p94cf208fe6)" style="fill: none; stroke: #000000; stroke-linecap: square"/>
   </g>
   <g id="line2d_94">
    <path d="M 450.391198 178.64608 
L 450.391198 178.64608 
" clip-path="url(#p94cf208fe6)" style="fill: none; stroke: #000000; stroke-linecap: square"/>
   </g>
   <g id="line2d_95">
    <path d="M 444.083281 178.64608 
L 456.699115 178.64608 
" clip-path="url(#p94cf208fe6)" style="fill: none; stroke: #000000; stroke-linecap: square"/>
   </g>
   <g id="line2d_96">
    <path d="M 444.083281 178.64608 
L 456.699115 178.64608 
" clip-path="url(#p94cf208fe6)" style="fill: none; stroke: #000000; stroke-linecap: square"/>
   </g>
   <g id="line2d_97"/>
   <g id="patch_16">
    <path d="M 488.238698 178.64608 
L 513.470365 178.64608 
L 513.470365 178.64608 
L 488.238698 178.64608 
L 488.238698 178.64608 
z
" clip-path="url(#p94cf208fe6)" style="fill: #2a9d8f; opacity: 0.85; stroke: #374151; stroke-linejoin: miter"/>
   </g>
   <g id="line2d_98">
    <path d="M 500.854531 178.64608 
L 500.854531 178.64608 
" clip-path="url(#p94cf208fe6)" style="fill: none; stroke: #000000; stroke-linecap: square"/>
   </g>
   <g id="line2d_99">
    <path d="M 500.854531 178.64608 
L 500.854531 178.64608 
" clip-path="url(#p94cf208fe6)" style="fill: none; stroke: #000000; stroke-linecap: square"/>
   </g>
   <g id="line2d_100">
    <path d="M 494.546615 178.64608 
L 507.162448 178.64608 
" clip-path="url(#p94cf208fe6)" style="fill: none; stroke: #000000; stroke-linecap: square"/>
   </g>
   <g id="line2d_101">
    <path d="M 494.546615 178.64608 
L 507.162448 178.64608 
" clip-path="url(#p94cf208fe6)" style="fill: none; stroke: #000000; stroke-linecap: square"/>
   </g>
   <g id="line2d_102">
    <g clip-path="url(#p94cf208fe6)">
     <use xlink:href="#md150f0c5ec" x="500.854531" y="13.99267" style="fill: #9ca3af; fill-opacity: 0.6; stroke: #000000; stroke-opacity: 0.6"/>
    </g>
   </g>
   <g id="patch_17">
    <path d="M 538.702031 178.64608 
L 563.933698 178.64608 
L 563.933698 178.64608 
L 538.702031 178.64608 
L 538.702031 178.64608 
z
" clip-path="url(#p94cf208fe6)" style="fill: #9c89b8; opacity: 0.85; stroke: #374151; stroke-linejoin: miter"/>
   </g>
   <g id="line2d_103">
    <path d="M 551.317865 178.64608 
L 551.317865 178.64608 
" clip-path="url(#p94cf208fe6)" style="fill: none; stroke: #000000; stroke-linecap: square"/>
   </g>
   <g id="line2d_104">
    <path d="M 551.317865 178.64608 
L 551.317865 178.64608 
" clip-path="url(#p94cf208fe6)" style="fill: none; stroke: #000000; stroke-linecap: square"/>
   </g>
   <g id="line2d_105">
    <path d="M 545.009948 178.64608 
L 557.625781 178.64608 
" clip-path="url(#p94cf208fe6)" style="fill: none; stroke: #000000; stroke-linecap: square"/>
   </g>
   <g id="line2d_106">
    <path d="M 545.009948 178.64608 
L 557.625781 178.64608 
" clip-path="url(#p94cf208fe6)" style="fill: none; stroke: #000000; stroke-linecap: square"/>
   </g>
   <g id="line2d_107">
    <g clip-path="url(#p94cf208fe6)">
     <use xlink:href="#md150f0c5ec" x="551.317865" y="145.715398" style="fill: #9ca3af; fill-opacity: 0.6; stroke: #000000; stroke-opacity: 0.6"/>
    </g>
   </g>
   <g id="line2d_108">
    <path d="M 437.775365 178.64608 
L 463.007031 178.64608 
" clip-path="url(#p94cf208fe6)" style="fill: none; stroke: #1f2937; stroke-width: 1.1"/>
   </g>
   <g id="line2d_109">
    <path d="M 488.238698 178.64608 
L 513.470365 178.64608 
" clip-path="url(#p94cf208fe6)" style="fill: none; stroke: #1f2937; stroke-width: 1.1"/>
   </g>
   <g id="line2d_110">
    <path d="M 538.702031 178.64608 
L 563.933698 178.64608 
" clip-path="url(#p94cf208fe6)" style="fill: none; stroke: #1f2937; stroke-width: 1.1"/>
   </g>
   <g id="patch_18">
    <path d="M 425.159531 186.87875 
L 425.159531 5.76 
" style="fill: none; stroke: #374151; stroke-width: 0.8; stroke-linejoin: miter; stroke-linecap: square"/>
   </g>
   <g id="patch_19">
    <path d="M 425.159531 186.87875 
L 576.549531 186.87875 
" style="fill: none; stroke: #374151; stroke-width: 0.8; stroke-linejoin: miter; stroke-linecap: square"/>
   </g>
  </g>
 </g>
 <defs>
  <clipPath id="pe2bf7d3ed6">
   <rect x="36.659531" y="5.76" width="151.39" height="181.11875"/>
  </clipPath>
  <clipPath id="pb5f45bd4b2">
   <rect x="230.909531" y="5.76" width="151.39" height="181.11875"/>
  </clipPath>
  <clipPath id="p94cf208fe6">
   <rect x="425.159531" y="5.76" width="151.39" height="181.11875"/>
  </clipPath>
 </defs>
</svg>
