<?xml version="1.0" encoding="utf-8" standalone="no"?>
<!DOCTYPE svg PUBLIC "-//W3C//DTD SVG 1.1//EN"
  "http://www.w3.org/Graphics/SVG/1.1/DTD/svg11.dtd">
<svg xmlns:xlink="http://www.w3.org/1999/xlink" width="466.504297pt" height="246.926604pt" viewBox="0 0 466.504297 246.926604" xmlns="http://www.w3.org/2000/svg" version="1.1">
 <metadata>
  <rdf:RDF xmlns:dc="http://purl.org/dc/elements/1.1/" xmlns:cc="http://creativecommons.org/ns#" xmlns:rdf="http://www.w3.org/1999/02/22-rdf-syntax-ns#">
   <cc:Work>
    <dc:type rdf:resource="http://purl.org/dc/dcmitype/StillImage"/>
    <dc:date>2026-05-11T17:05:07.218528</dc:date>
    <dc:format>image/svg+xml</dc:format>
    <dc:creator>
     <cc:Agent>
      <dc:title>Matplotlib v3.9.4, https://matplotlib.org/</dc:title>
     </cc:Agent>
    </dc:creator>
   </cc:Work>
  </rdf:RDF>
 </metadata>
 <defs>
  <style type="text/css">*{stroke-linejoin: round; stroke-linecap: butt}</style>
 </defs>
 <g id="figure_1">
  <g id="patch_1">
   <path d="M -0 246.926604 
L 466.504297 246.926604 
L 466.504297 -0 
L -0 -0 
z
" style="fill: #ffffff"/>
  </g>
  <g id="axes_1">
   <g id="patch_2">
    <path d="M 42.244297 205.344 
L 460.744297 205.344 
L 460.744297 5.76 
L 42.244297 5.76 
z
" style="fill: #ffffff"/>
   </g>
   <g id="matplotlib.axis_1">
    <g id="xtick_1">
     <g id="line2d_1">
      <path d="M 83.893176 205.344 
L 83.893176 5.76 
" clip-path="url(#pbe9ce29397)" style="fill: none; stroke: #e5e7eb; stroke-opacity: 0.7; stroke-width: 0.6; stroke-linecap: square"/>
     </g>
     <g id="line2d_2">
      <defs>
       <path id="m4eb317647e" d="M 0 0 
L 0 3.5 
" style="stroke: #374151; stroke-width: 0.6"/>
      </defs>
      <g>
       <use xlink:href="#m4eb317647e" x="83.893176" y="205.344" style="fill: #374151; stroke: #374151; stroke-width: 0.6"/>
      </g>
     </g>
     <g id="text_1">
      <!-- OOM 多轮诊断 -->
      <g style="fill: #374151" transform="translate(27.836651 236.575536) rotate(-18) scale(0.085 -0.085)">
       <defs>
        <path id="HiraginoSansGB-W3-4f" d="M 2547 4998 
C 1203 4998 333 4006 333 2470 
C 333 928 1190 -58 2541 -58 
C 3891 -58 4755 928 4755 2470 
C 4755 4013 3898 4998 2547 4998 
z
M 2554 397 
C 1530 397 851 1222 851 2477 
C 851 3731 1523 4550 2547 4550 
C 2989 4550 3373 4397 3667 4109 
C 4038 3738 4230 3174 4230 2470 
C 4230 1786 4026 1190 3661 832 
C 3373 544 2995 397 2554 397 
z
" transform="scale(0.015625)"/>
        <path id="HiraginoSansGB-W3-4d" d="M 2554 710 
C 2682 422 2758 205 2790 38 
L 3245 38 
C 3296 250 3360 416 3488 704 
L 4794 3578 
C 4915 3840 5005 4096 5069 4358 
C 5043 4096 5024 3750 5024 3571 
L 5024 794 
C 5024 486 5011 256 4973 38 
L 5555 38 
C 5517 269 5504 442 5504 794 
L 5504 4141 
C 5504 4474 5517 4659 5555 4902 
L 4819 4902 
C 4781 4717 4710 4518 4602 4269 
L 3027 742 
L 1446 4269 
C 1350 4480 1274 4710 1235 4902 
L 493 4902 
C 531 4666 544 4461 544 4141 
L 544 794 
C 544 461 531 275 493 38 
L 1075 38 
C 1037 256 1024 454 1024 794 
L 1024 3533 
C 1024 3686 998 4083 979 4358 
C 1101 3968 1171 3770 1267 3565 
L 2554 710 
z
" transform="scale(0.015625)"/>
        <path id="HiraginoSansGB-W3-20" transform="scale(0.015625)"/>
        <path id="HiraginoSansGB-W3-591a" d="M 4781 4896 
C 4627 4877 4448 4864 4186 4864 
L 2970 4864 
C 3059 4960 3098 5011 3174 5101 
C 3309 5261 3315 5274 3379 5344 
L 2918 5459 
C 2829 5280 2701 5114 2470 4877 
C 1939 4326 1331 3910 576 3578 
C 685 3475 749 3392 826 3258 
C 1568 3629 2086 3981 2656 4531 
L 4390 4531 
C 3981 4026 3738 3789 3174 3354 
C 2957 3526 2675 3718 2330 3930 
L 2029 3693 
C 2381 3488 2630 3309 2848 3117 
C 2131 2624 1389 2285 550 2061 
C 659 1926 730 1818 774 1683 
C 1517 1933 2042 2170 2618 2509 
C 3277 2906 3917 3418 4422 3968 
C 4557 4109 4602 4166 4998 4653 
L 4781 4896 
z
M 3962 2547 
C 4102 2688 4154 2746 4397 3021 
L 3981 3181 
C 3846 2944 3616 2694 3283 2413 
C 2765 1971 2125 1626 1274 1338 
C 1376 1235 1427 1165 1517 992 
C 2022 1190 2458 1402 2835 1632 
C 3117 1805 3245 1901 3610 2214 
L 5331 2214 
C 4915 1690 4563 1350 4102 1024 
C 3789 1280 3584 1421 3226 1645 
L 2899 1408 
C 3251 1210 3501 1030 3693 858 
C 3744 813 3744 813 3757 800 
C 2995 333 2022 -6 1037 -154 
C 1165 -326 1190 -371 1267 -557 
C 2477 -256 3136 -13 3866 410 
C 4621 845 5158 1325 5741 2093 
C 5850 2234 5850 2234 5926 2330 
L 5696 2579 
C 5542 2560 5363 2547 5094 2547 
L 3962 2547 
z
" transform="scale(0.015625)"/>
        <path id="HiraginoSansGB-W3-8f6e" d="M 3616 1376 
C 4294 1638 4794 1888 5382 2266 
C 5530 2362 5530 2362 5638 2426 
L 5325 2771 
C 5222 2662 5133 2592 4941 2464 
C 4493 2157 4160 1984 3616 1773 
L 3616 2381 
C 3616 2650 3629 2835 3654 3021 
L 3187 3021 
C 3219 2822 3226 2662 3226 2368 
L 3226 237 
C 3226 -237 3366 -301 4371 -301 
C 4973 -301 5229 -282 5421 -230 
C 5626 -166 5741 -51 5805 166 
C 5850 314 5862 365 5946 973 
C 5786 1018 5683 1069 5542 1158 
C 5504 525 5459 275 5363 186 
C 5267 90 5069 64 4493 64 
C 3699 64 3616 83 3616 282 
L 3616 1376 
z
M 1978 2253 
L 2061 2253 
C 2278 2253 2534 2240 2720 2214 
L 2720 2643 
C 2541 2618 2349 2605 2061 2605 
L 1978 2605 
L 1978 3098 
C 1978 3302 1984 3430 2016 3616 
L 1555 3616 
C 1581 3450 1594 3302 1594 3104 
L 1594 2605 
L 883 2605 
L 1357 4224 
L 2202 4224 
C 2451 4224 2566 4218 2739 4192 
L 2739 4621 
C 2586 4595 2470 4589 2208 4589 
L 1466 4589 
L 1478 4640 
C 1568 4947 1632 5165 1677 5293 
L 1210 5376 
C 1184 5094 1146 4858 1082 4640 
L 1062 4589 
L 845 4589 
C 582 4589 442 4595 294 4621 
L 294 4192 
C 461 4218 589 4224 838 4224 
L 960 4224 
L 557 2848 
C 506 2720 474 2656 384 2547 
L 563 2227 
C 698 2246 774 2253 979 2253 
L 1594 2253 
L 1594 1248 
C 966 1133 627 1082 326 1075 
L 384 634 
C 493 666 525 672 653 691 
C 954 742 1050 755 1594 870 
L 1594 192 
C 1594 -58 1581 -262 1549 -486 
L 2022 -486 
C 1990 -275 1978 -77 1978 186 
L 1978 954 
C 2310 1024 2394 1050 2707 1133 
L 2707 1498 
C 2394 1414 2298 1389 1978 1325 
L 1978 2253 
z
M 4570 5267 
L 4147 5408 
C 3974 4902 3814 4582 3539 4179 
C 3219 3718 2874 3360 2483 3085 
C 2611 2976 2669 2912 2758 2771 
C 3168 3104 3418 3366 3731 3802 
C 3936 4090 4154 4435 4314 4755 
C 4557 4339 4621 4230 4717 4090 
C 5069 3565 5382 3206 5894 2765 
C 6003 2938 6048 2995 6189 3136 
C 5677 3520 5376 3814 5082 4230 
C 4896 4486 4813 4627 4512 5146 
L 4570 5267 
z
" transform="scale(0.015625)"/>
        <path id="HiraginoSansGB-W3-8bca" d="M 4435 5254 
L 4026 5395 
C 3859 5056 3635 4704 3366 4384 
C 3053 4013 2714 3725 2253 3450 
C 2413 3309 2413 3309 2496 3181 
C 2502 3162 2515 3142 2534 3110 
C 3354 3693 3635 3987 4160 4806 
C 4365 4499 4480 4352 4730 4083 
C 5114 3674 5350 3482 6003 3059 
C 6074 3226 6112 3277 6266 3462 
C 5779 3712 5402 3974 5037 4314 
C 4787 4550 4608 4762 4358 5126 
L 4435 5254 
z
M 1306 346 
C 1293 218 1280 192 1178 115 
L 1370 -250 
C 1504 -141 1542 -115 1773 32 
C 2003 179 2189 307 2547 563 
L 2522 1011 
C 2285 800 2131 678 1722 403 
L 1722 2694 
C 1722 3014 1728 3168 1754 3373 
C 1600 3354 1446 3341 1261 3341 
L 826 3341 
C 589 3341 493 3347 333 3373 
L 333 2925 
C 493 2950 589 2957 800 2957 
L 1306 2957 
L 1306 346 
z
M 4365 3827 
C 4307 3718 4166 3552 4013 3405 
C 3597 3021 3130 2739 2586 2541 
C 2682 2451 2784 2323 2848 2202 
C 3584 2547 3981 2816 4518 3354 
C 4570 3405 4602 3437 4621 3456 
C 4691 3520 4691 3520 4710 3533 
L 4365 3827 
z
M 5696 1920 
C 5568 1664 5293 1363 4890 1030 
C 4250 506 3597 205 2592 -58 
C 2739 -211 2758 -237 2867 -429 
C 3475 -250 3840 -102 4282 134 
C 4723 371 5280 787 5581 1114 
C 5926 1485 5926 1485 6054 1613 
L 5696 1920 
z
M 915 4986 
C 1325 4691 1594 4435 1907 4064 
L 2208 4397 
C 1875 4742 1626 4966 1216 5267 
L 915 4986 
z
M 4998 2848 
C 4902 2688 4806 2573 4608 2387 
C 4096 1914 3494 1574 2701 1318 
C 2848 1178 2848 1178 2970 973 
C 3590 1216 3904 1382 4346 1690 
C 4608 1869 4966 2176 5210 2432 
C 5261 2483 5267 2490 5299 2522 
C 5312 2528 5325 2541 5338 2554 
L 4998 2848 
z
" transform="scale(0.015625)"/>
        <path id="HiraginoSansGB-W3-65ad" d="M 4122 3405 
C 4122 3475 4122 3494 4122 3654 
L 4122 4384 
C 4826 4531 5318 4685 5805 4915 
C 5875 4947 5920 4973 5926 4973 
C 6010 5005 6010 5005 6042 5018 
L 5702 5370 
C 5293 5056 4307 4730 3699 4704 
C 3731 4493 3738 4294 3738 3846 
C 3738 1888 3584 934 3168 218 
L 3168 442 
C 3002 416 2842 410 2554 410 
L 922 410 
L 922 4614 
C 922 4826 934 4973 960 5146 
L 486 5146 
C 512 4954 525 4787 525 4550 
L 525 646 
C 525 493 518 307 512 218 
C 499 90 499 90 493 26 
C 563 38 582 38 627 38 
C 730 38 730 38 826 45 
C 909 51 909 51 1011 51 
L 2547 45 
C 2790 45 2874 45 3046 32 
C 2995 -38 2963 -83 2874 -192 
C 3034 -288 3130 -365 3219 -467 
C 3654 134 3834 570 3968 1338 
C 4051 1805 4102 2394 4115 3027 
L 5037 3027 
L 5037 218 
C 5037 -96 5024 -275 4998 -442 
L 5478 -442 
C 5453 -275 5440 -102 5440 211 
L 5440 3027 
L 5626 3027 
C 5888 3027 6016 3021 6176 2995 
L 6176 3443 
C 6010 3418 5837 3405 5606 3405 
L 4122 3405 
z
M 2445 2445 
C 2669 2176 2675 2170 3002 1690 
C 3027 1645 3078 1574 3142 1485 
L 3430 1715 
C 3142 2106 2970 2304 2445 2854 
L 2445 3014 
L 2957 3014 
C 3136 3014 3302 3002 3398 2982 
L 3398 3398 
C 3302 3379 3162 3366 2970 3366 
L 2445 3366 
L 2445 4698 
C 2445 4922 2458 5152 2477 5286 
L 2054 5286 
C 2080 5146 2086 4979 2086 4698 
L 2086 3366 
L 1498 3366 
C 1312 3366 1197 3373 1069 3398 
L 1069 2982 
C 1190 3002 1325 3014 1478 3014 
L 1965 3014 
C 1862 2733 1830 2656 1747 2496 
C 1542 2106 1338 1843 960 1472 
C 1069 1376 1152 1280 1222 1171 
C 1696 1715 1888 2035 2112 2675 
C 2093 2451 2086 2170 2086 1984 
L 2086 1222 
C 2086 941 2080 845 2061 698 
L 2470 698 
C 2451 832 2445 915 2445 1216 
L 2445 2445 
z
M 1094 4858 
C 1312 4384 1402 4090 1504 3571 
L 1824 3706 
C 1709 4198 1638 4416 1408 4992 
L 1094 4858 
z
M 3040 5011 
C 2938 4454 2854 4186 2650 3738 
L 2925 3597 
C 3110 4000 3174 4173 3379 4883 
L 3040 5011 
z
" transform="scale(0.015625)"/>
       </defs>
       <use xlink:href="#HiraginoSansGB-W3-4f"/>
       <use xlink:href="#HiraginoSansGB-W3-4f" x="79.499985"/>
       <use xlink:href="#HiraginoSansGB-W3-4d" x="158.999969"/>
       <use xlink:href="#HiraginoSansGB-W3-20" x="253.499954"/>
       <use xlink:href="#HiraginoSansGB-W3-591a" x="286.799942"/>
       <use xlink:href="#HiraginoSansGB-W3-8f6e" x="386.799927"/>
       <use xlink:href="#HiraginoSansGB-W3-8bca" x="486.799911"/>
       <use xlink:href="#HiraginoSansGB-W3-65ad" x="586.799896"/>
      </g>
     </g>
    </g>
    <g id="xtick_2">
     <g id="line2d_3">
      <path d="M 139.760216 205.344 
L 139.760216 5.76 
" clip-path="url(#pbe9ce29397)" style="fill: none; stroke: #e5e7eb; stroke-opacity: 0.7; stroke-width: 0.6; stroke-linecap: square"/>
     </g>
     <g id="line2d_4">
      <g>
       <use xlink:href="#m4eb317647e" x="139.760216" y="205.344" style="fill: #374151; stroke: #374151; stroke-width: 0.6"/>
      </g>
     </g>
     <g id="text_2">
      <!-- 作业 Terminated -->
      <g style="fill: #374151" transform="translate(74.650897 239.516967) rotate(-18) scale(0.085 -0.085)">
       <defs>
        <path id="HiraginoSansGB-W3-4f5c" d="M 3949 3962 
L 5453 3962 
C 5722 3962 5875 3955 6035 3930 
L 6035 4365 
C 5850 4333 5709 4326 5453 4326 
L 3424 4326 
C 3501 4512 3552 4634 3642 4896 
C 3699 5062 3718 5114 3770 5222 
L 3322 5370 
C 3302 5152 3206 4838 3053 4461 
C 2765 3770 2419 3238 1920 2707 
C 2106 2579 2112 2573 2240 2400 
C 2662 2899 2957 3354 3258 3962 
L 3539 3962 
L 3539 179 
C 3539 -160 3526 -339 3501 -493 
L 3994 -493 
C 3962 -333 3949 -134 3949 179 
L 3949 1158 
L 5267 1158 
C 5491 1158 5658 1146 5830 1120 
L 5830 1562 
C 5651 1536 5498 1523 5267 1523 
L 3949 1523 
L 3949 2560 
L 5248 2560 
C 5466 2560 5613 2547 5811 2522 
L 5811 2963 
C 5632 2938 5485 2925 5248 2925 
L 3949 2925 
L 3949 3962 
z
M 1830 5370 
C 1792 5120 1709 4845 1562 4512 
C 1222 3738 774 3104 211 2592 
C 358 2445 358 2445 480 2253 
C 851 2630 1050 2886 1274 3264 
C 1254 2886 1248 2714 1248 2438 
L 1248 314 
C 1248 6 1235 -218 1203 -467 
L 1702 -467 
C 1670 -256 1658 13 1658 301 
L 1658 3802 
C 1901 4282 1984 4467 2131 4864 
C 2182 4992 2202 5050 2278 5222 
L 1830 5370 
z
" transform="scale(0.015625)"/>
        <path id="HiraginoSansGB-W3-4e1a" d="M 3571 5152 
C 3603 4954 3610 4858 3610 4480 
L 3610 269 
L 2707 269 
L 2707 4512 
C 2707 4826 2714 4941 2746 5152 
L 2253 5152 
C 2285 4973 2298 4819 2298 4506 
L 2298 269 
L 992 269 
C 704 269 518 282 326 307 
L 326 -154 
C 550 -128 730 -115 992 -115 
L 5370 -115 
C 5632 -115 5811 -128 6035 -154 
L 6035 307 
C 5830 282 5651 269 5370 269 
L 4019 269 
L 4019 4480 
C 4019 4762 4032 4966 4064 5152 
L 3571 5152 
z
M 646 3744 
C 890 3117 1062 2560 1293 1632 
L 1690 1779 
C 1414 2803 1280 3238 1024 3885 
L 646 3744 
z
M 5306 3853 
C 5158 3091 4877 2349 4499 1722 
L 4832 1530 
C 5190 2125 5331 2451 5613 3366 
C 5638 3430 5670 3546 5715 3680 
L 5306 3853 
z
" transform="scale(0.015625)"/>
        <path id="HiraginoSansGB-W3-54" d="M 2323 4454 
L 3315 4454 
C 3674 4454 3859 4442 4070 4410 
L 4070 4947 
C 3859 4915 3686 4902 3315 4902 
L 819 4902 
C 480 4902 314 4915 90 4947 
L 90 4410 
C 301 4442 499 4454 826 4454 
L 1824 4454 
L 1824 762 
C 1824 461 1811 237 1773 38 
L 2374 38 
C 2336 269 2323 448 2323 762 
L 2323 4454 
z
" transform="scale(0.015625)"/>
        <path id="HiraginoSansGB-W3-65" d="M 3475 1690 
C 3462 1862 3437 2112 3430 2182 
C 3302 3040 2707 3571 1882 3571 
C 922 3571 294 2854 294 1760 
C 294 653 928 -51 1933 -51 
C 2400 -51 2790 102 3091 397 
C 3238 544 3322 659 3443 928 
L 2995 1107 
C 2816 614 2458 358 1939 358 
C 1555 358 1242 512 1037 794 
C 864 1024 800 1261 781 1690 
L 3475 1690 
z
M 800 2093 
C 838 2336 870 2451 960 2611 
C 1152 2970 1478 3168 1869 3168 
C 2176 3168 2426 3072 2624 2880 
C 2829 2682 2925 2451 2963 2093 
L 800 2093 
z
" transform="scale(0.015625)"/>
        <path id="HiraginoSansGB-W3-72" d="M 2669 3488 
C 2400 3533 2291 3546 2099 3546 
C 1792 3546 1574 3482 1331 3322 
C 1197 3232 1101 3130 979 2931 
C 986 2976 986 3072 986 3123 
L 986 3488 
L 454 3488 
C 486 3258 499 3085 499 2765 
L 499 762 
C 499 499 486 333 454 38 
L 1030 38 
C 998 288 986 467 986 755 
L 986 2061 
C 1011 2349 1069 2502 1222 2701 
C 1414 2957 1683 3091 2010 3091 
C 2170 3091 2285 3072 2528 2995 
L 2669 3488 
z
" transform="scale(0.015625)"/>
        <path id="HiraginoSansGB-W3-6d" d="M 1018 38 
C 986 294 973 467 973 762 
L 973 2016 
C 973 2182 1069 2483 1184 2656 
C 1382 2963 1690 3142 2022 3142 
C 2483 3142 2739 2835 2739 2272 
L 2739 762 
C 2739 435 2726 269 2694 38 
L 3270 38 
C 3238 256 3226 435 3226 755 
L 3226 2016 
C 3226 2208 3315 2490 3437 2675 
C 3622 2970 3923 3142 4243 3142 
C 4755 3142 4979 2880 4979 2272 
L 4979 762 
C 4979 422 4973 275 4934 38 
L 5510 38 
C 5478 262 5466 435 5466 755 
L 5466 2336 
C 5466 2714 5402 2963 5248 3168 
C 5056 3424 4736 3558 4314 3558 
C 3776 3558 3430 3354 3130 2861 
C 3066 3053 3027 3130 2931 3232 
C 2739 3450 2470 3558 2106 3558 
C 1734 3558 1421 3443 1203 3226 
C 1075 3091 1018 3014 960 2906 
C 966 3027 973 3104 973 3136 
L 973 3488 
L 454 3488 
C 486 3258 499 3085 499 2765 
L 499 762 
C 499 461 486 269 454 38 
L 1018 38 
z
" transform="scale(0.015625)"/>
        <path id="HiraginoSansGB-W3-69" d="M 448 4902 
L 448 4333 
L 1069 4333 
L 1069 4902 
L 448 4902 
z
M 467 3488 
C 499 3264 512 3072 512 2765 
L 512 762 
C 512 493 499 314 467 38 
L 1043 38 
C 1011 288 998 467 998 762 
L 998 2765 
C 998 3085 1011 3264 1043 3488 
L 467 3488 
z
" transform="scale(0.015625)"/>
        <path id="HiraginoSansGB-W3-6e" d="M 1030 38 
C 998 288 986 480 986 762 
L 986 1997 
C 1037 2253 1114 2413 1280 2630 
C 1549 2976 1837 3136 2195 3136 
C 2701 3136 2976 2829 2976 2253 
L 2976 762 
C 2976 480 2963 288 2931 38 
L 3507 38 
C 3475 250 3462 429 3462 755 
L 3462 2336 
C 3462 2650 3405 2886 3283 3072 
C 3078 3386 2720 3552 2259 3552 
C 1683 3552 1267 3302 966 2778 
C 986 2925 986 2976 986 3053 
L 986 3488 
L 454 3488 
C 493 3232 506 3053 506 2765 
L 506 762 
C 506 454 493 282 454 38 
L 1030 38 
z
" transform="scale(0.015625)"/>
        <path id="HiraginoSansGB-W3-61" d="M 2733 38 
L 3251 38 
C 3213 294 3200 454 3200 742 
L 3200 2541 
C 3200 3232 2765 3590 1920 3590 
C 1440 3590 1056 3469 794 3226 
C 634 3085 550 2950 435 2656 
L 934 2547 
C 998 2739 1050 2829 1133 2918 
C 1312 3104 1574 3194 1926 3194 
C 2458 3194 2733 2970 2733 2534 
L 2733 2163 
C 1946 2144 1638 2106 1261 1997 
C 666 1830 346 1459 346 947 
C 346 339 774 -26 1478 -26 
C 1696 -26 1926 19 2144 102 
C 2362 186 2483 269 2733 493 
L 2733 38 
z
M 2733 1370 
C 2733 1114 2682 979 2534 819 
C 2285 544 1882 365 1510 365 
C 1094 365 832 589 832 941 
C 832 1248 992 1466 1318 1600 
C 1606 1722 1971 1766 2733 1786 
L 2733 1370 
z
" transform="scale(0.015625)"/>
        <path id="HiraginoSansGB-W3-74" d="M 858 4442 
C 890 4230 902 3987 902 3731 
L 902 3488 
L 646 3488 
C 378 3488 250 3494 70 3526 
L 70 3040 
C 282 3066 429 3078 646 3078 
L 902 3078 
L 902 787 
C 902 486 954 301 1082 173 
C 1210 45 1427 -26 1709 -26 
C 1971 -26 2170 13 2432 122 
L 2291 570 
C 2080 442 1952 403 1786 403 
C 1651 403 1542 442 1472 512 
C 1414 570 1389 666 1389 851 
L 1389 3078 
L 1696 3078 
C 1984 3078 2144 3072 2349 3040 
L 2349 3526 
C 2125 3494 1990 3488 1696 3488 
L 1389 3488 
L 1389 3731 
C 1389 4006 1402 4237 1434 4442 
L 858 4442 
z
" transform="scale(0.015625)"/>
        <path id="HiraginoSansGB-W3-64" d="M 3162 38 
L 3674 38 
C 3642 288 3629 454 3629 774 
L 3629 4179 
C 3629 4461 3642 4646 3674 4902 
L 3110 4902 
C 3142 4659 3155 4474 3155 4173 
L 3155 3315 
C 3155 3168 3155 3110 3174 2976 
L 3181 2880 
C 2899 3322 2451 3558 1869 3558 
C 909 3558 294 2861 294 1766 
C 294 653 896 -26 1882 -26 
C 2464 -26 2880 198 3181 666 
C 3168 557 3162 442 3162 352 
L 3162 38 
z
M 1920 3142 
C 2259 3142 2566 3021 2790 2803 
C 3021 2579 3149 2208 3149 1786 
C 3149 941 2669 397 1920 397 
C 1562 397 1261 531 1062 781 
C 896 992 800 1357 800 1779 
C 800 2630 1222 3142 1920 3142 
z
" transform="scale(0.015625)"/>
       </defs>
       <use xlink:href="#HiraginoSansGB-W3-4f5c"/>
       <use xlink:href="#HiraginoSansGB-W3-4e1a" x="99.999985"/>
       <use xlink:href="#HiraginoSansGB-W3-20" x="199.999969"/>
       <use xlink:href="#HiraginoSansGB-W3-54" x="233.299957"/>
       <use xlink:href="#HiraginoSansGB-W3-65" x="298.199951"/>
       <use xlink:href="#HiraginoSansGB-W3-72" x="356.999939"/>
       <use xlink:href="#HiraginoSansGB-W3-6d" x="399.999924"/>
       <use xlink:href="#HiraginoSansGB-W3-69" x="493.099915"/>
       <use xlink:href="#HiraginoSansGB-W3-6e" x="516.899902"/>
       <use xlink:href="#HiraginoSansGB-W3-61" x="578.69989"/>
       <use xlink:href="#HiraginoSansGB-W3-74" x="636.199875"/>
       <use xlink:href="#HiraginoSansGB-W3-65" x="675.399872"/>
       <use xlink:href="#HiraginoSansGB-W3-64" x="734.19986"/>
      </g>
     </g>
    </g>
    <g id="xtick_3">
     <g id="line2d_5">
      <path d="M 195.627256 205.344 
L 195.627256 5.76 
" clip-path="url(#pbe9ce29397)" style="fill: none; stroke: #e5e7eb; stroke-opacity: 0.7; stroke-width: 0.6; stroke-linecap: square"/>
     </g>
     <g id="line2d_6">
      <g>
       <use xlink:href="#m4eb317647e" x="195.627256" y="205.344" style="fill: #374151; stroke: #374151; stroke-width: 0.6"/>
      </g>
     </g>
     <g id="text_3">
      <!-- 集群健康 -->
      <g style="fill: #374151" transform="translate(162.755335 229.042402) rotate(-18) scale(0.085 -0.085)">
       <defs>
        <path id="HiraginoSansGB-W3-96c6" d="M 3392 1933 
L 5152 1933 
C 5427 1933 5562 1926 5734 1901 
L 5734 2285 
C 5562 2259 5434 2253 5146 2253 
L 3475 2253 
L 3475 2790 
L 4838 2790 
C 5120 2790 5261 2784 5414 2758 
L 5414 3142 
C 5222 3110 5101 3104 4838 3104 
L 3475 3104 
L 3475 3584 
L 4838 3584 
C 5126 3584 5242 3578 5414 3552 
L 5414 3936 
C 5229 3904 5094 3898 4838 3898 
L 3475 3898 
L 3475 4378 
L 5158 4378 
C 5421 4378 5549 4371 5715 4346 
L 5715 4742 
C 5542 4717 5408 4710 5126 4710 
L 3802 4710 
C 3590 5139 3590 5139 3418 5389 
L 3098 5229 
C 3245 5005 3283 4941 3405 4710 
L 1715 4710 
C 1837 4864 1837 4864 2138 5325 
L 1696 5434 
C 1651 5293 1568 5133 1466 4973 
C 1133 4454 749 4070 224 3706 
C 339 3597 403 3526 480 3392 
C 800 3635 960 3789 1190 4051 
C 1171 3853 1165 3654 1165 3424 
L 1165 2349 
C 1165 2176 1158 2016 1146 1920 
C 1280 1933 1350 1933 1587 1933 
L 2995 1933 
L 2995 1466 
L 1082 1466 
C 723 1466 538 1478 378 1504 
L 378 1082 
C 595 1107 794 1120 1082 1120 
L 2662 1120 
C 2432 902 2182 730 1843 550 
C 1357 294 922 147 288 32 
C 403 -96 467 -186 544 -352 
C 1005 -230 1402 -90 1766 90 
C 2272 333 2630 589 3014 992 
C 3008 915 3008 915 3008 806 
C 3002 787 3002 742 3002 678 
C 2995 608 2995 550 2995 506 
L 2995 0 
C 2995 -224 2989 -333 2957 -474 
L 3430 -474 
C 3398 -346 3392 -269 3392 6 
L 3392 506 
C 3392 685 3386 781 3373 992 
C 4013 346 4742 -51 5869 -384 
C 5939 -224 5997 -134 6112 13 
C 5523 134 5037 301 4576 544 
C 4230 723 3917 934 3706 1120 
L 5318 1120 
C 5613 1120 5811 1107 6035 1082 
L 6035 1504 
C 5869 1472 5683 1466 5318 1466 
L 3392 1466 
L 3392 1933 
z
M 1555 3898 
L 1555 4378 
L 3098 4378 
L 3098 3898 
L 1555 3898 
z
M 1555 3584 
L 3098 3584 
L 3098 3104 
L 1555 3104 
L 1555 3584 
z
M 1555 2790 
L 3098 2790 
L 3098 2253 
L 1555 2253 
L 1555 2790 
z
" transform="scale(0.015625)"/>
        <path id="HiraginoSansGB-W3-7fa4" d="M 2426 2630 
C 2483 2630 2726 2624 2758 2624 
C 2848 2618 2848 2618 2886 2618 
C 2867 2733 2867 2816 2867 2995 
L 2867 3667 
C 3027 3667 3066 3661 3181 3642 
L 3181 4038 
C 3117 4026 3034 4013 2976 4013 
C 2886 4013 2886 4013 2867 4013 
L 2867 4659 
C 2867 4826 2867 4915 2886 5030 
C 2739 5018 2675 5018 2413 5018 
L 1005 5018 
C 762 5018 646 5024 518 5050 
L 518 4646 
C 666 4666 794 4672 979 4672 
L 1363 4672 
C 1357 4384 1350 4166 1350 4013 
L 800 4013 
C 531 4013 416 4019 262 4045 
L 262 3635 
C 435 3661 499 3667 800 3667 
L 1325 3667 
C 1306 3456 1280 3219 1235 2976 
L 941 2976 
C 717 2976 621 2982 512 3002 
L 512 2611 
C 691 2630 704 2630 954 2630 
L 1158 2630 
C 966 1939 698 1440 205 864 
C 339 736 352 717 461 538 
C 806 1005 922 1178 1062 1472 
C 1043 1203 1037 1005 1037 851 
L 1037 102 
C 1037 -45 1018 -250 998 -422 
L 1421 -422 
L 1421 19 
L 2522 19 
L 2522 -243 
L 2931 -243 
C 2906 -83 2899 90 2899 301 
L 2899 1587 
C 2899 1837 2899 1933 2918 2054 
C 2816 2035 2701 2029 2509 2029 
L 1318 2029 
C 1421 2278 1466 2394 1530 2630 
L 2426 2630 
z
M 1606 2976 
C 1651 3245 1651 3245 1696 3667 
L 2502 3667 
L 2502 2976 
L 1606 2976 
z
M 1722 4013 
C 1734 4218 1734 4218 1747 4672 
L 2502 4672 
L 2502 4013 
L 1722 4013 
z
M 1421 1683 
L 2522 1683 
L 2522 365 
L 1421 365 
L 1421 1683 
z
M 5133 4077 
C 5350 4397 5517 4717 5728 5203 
L 5325 5344 
C 5190 4896 5011 4506 4742 4077 
L 3840 4077 
C 3571 4077 3462 4083 3309 4109 
L 3309 3680 
C 3494 3706 3616 3712 3840 3712 
L 4390 3712 
L 4390 2829 
L 3878 2829 
C 3629 2829 3520 2835 3373 2861 
L 3373 2438 
C 3533 2464 3603 2470 3878 2470 
L 4390 2470 
L 4390 1485 
L 3635 1485 
C 3392 1485 3251 1491 3104 1517 
L 3104 1082 
C 3270 1107 3347 1114 3629 1114 
L 4390 1114 
L 4390 192 
C 4390 -90 4378 -275 4352 -486 
L 4832 -486 
C 4800 -282 4794 -102 4794 192 
L 4794 1114 
L 5613 1114 
C 5824 1114 6016 1101 6182 1075 
L 6182 1517 
C 5997 1491 5837 1485 5600 1485 
L 4794 1485 
L 4794 2470 
L 5357 2470 
C 5600 2470 5779 2458 5914 2438 
L 5914 2861 
C 5798 2835 5651 2829 5344 2829 
L 4794 2829 
L 4794 3712 
L 5510 3712 
C 5754 3712 5920 3706 6067 3680 
L 6067 4109 
C 5920 4083 5792 4077 5498 4077 
L 5133 4077 
z
M 4314 4307 
C 4134 4781 4064 4934 3840 5331 
L 3482 5197 
C 3731 4768 3808 4595 3949 4166 
L 4314 4307 
z
" transform="scale(0.015625)"/>
        <path id="HiraginoSansGB-W3-5065" d="M 4109 3546 
L 4109 2963 
L 3654 2963 
C 3450 2963 3328 2970 3181 2989 
L 3181 2624 
C 3328 2643 3456 2650 3648 2650 
L 4109 2650 
L 4109 2138 
L 3622 2138 
C 3354 2138 3200 2144 3066 2170 
L 3066 1786 
C 3200 1811 3373 1818 3622 1818 
L 4109 1818 
L 4109 1274 
L 3379 1274 
C 3142 1274 2970 1280 2784 1306 
L 2784 909 
C 2944 934 3098 941 3373 941 
L 4109 941 
L 4109 813 
C 4109 608 4096 493 4077 346 
L 4499 346 
C 4474 518 4467 640 4467 819 
L 4467 941 
L 5427 941 
C 5702 941 5869 934 6054 915 
L 6054 1306 
C 5882 1286 5690 1274 5427 1274 
L 4467 1274 
L 4467 1818 
L 5197 1818 
C 5414 1818 5600 1805 5798 1786 
L 5798 2170 
C 5632 2144 5485 2138 5203 2138 
L 4467 2138 
L 4467 2650 
L 5210 2650 
C 5402 2650 5562 2643 5696 2637 
C 5683 2758 5683 2848 5683 3027 
L 5683 3546 
L 5747 3546 
C 5882 3546 5997 3539 6176 3514 
L 6176 3904 
C 6042 3878 5939 3872 5747 3872 
L 5683 3872 
L 5683 4333 
C 5683 4589 5683 4627 5696 4762 
C 5594 4749 5453 4742 5216 4742 
L 4467 4742 
L 4467 4800 
C 4467 5005 4474 5120 4493 5267 
L 4077 5267 
C 4096 5120 4109 4998 4109 4800 
L 4109 4742 
L 3706 4742 
C 3475 4742 3360 4749 3219 4774 
L 3219 4390 
C 3373 4410 3494 4416 3706 4416 
L 4109 4416 
L 4109 3872 
L 3565 3872 
C 3251 3872 3091 3878 2944 3904 
L 2944 3514 
C 3091 3539 3238 3546 3507 3546 
L 4109 3546 
z
M 4467 3546 
L 5318 3546 
L 5318 2963 
L 4467 2963 
L 4467 3546 
z
M 4467 3872 
L 4467 4416 
L 5318 4416 
L 5318 3872 
L 4467 3872 
z
M 2112 3066 
C 2406 3514 2720 4083 2874 4474 
C 2918 4576 2931 4602 2957 4646 
L 2771 4845 
C 2682 4832 2611 4826 2432 4826 
L 2106 4826 
C 1952 4826 1824 4832 1728 4845 
L 1728 4454 
C 1830 4474 1952 4486 2086 4486 
L 2490 4486 
C 2240 3878 1933 3347 1491 2733 
C 1664 2746 1760 2746 1952 2746 
L 2573 2746 
C 2477 2074 2406 1709 2278 1331 
C 2054 1722 1965 1978 1901 2355 
L 1530 2202 
C 1766 1581 1766 1581 1882 1350 
C 1965 1190 2048 1050 2125 934 
C 1946 525 1709 186 1370 -134 
C 1562 -307 1562 -307 1645 -442 
C 2003 -26 2182 230 2368 621 
C 2675 288 2950 115 3379 -32 
C 3866 -198 4416 -269 5242 -269 
C 5498 -269 5683 -262 6093 -243 
C 6106 -96 6131 -6 6214 173 
C 5658 122 5376 102 5005 102 
C 3731 102 3046 339 2515 973 
C 2682 1414 2842 2106 2925 2758 
C 2950 2931 2950 2931 2970 3091 
C 2848 3072 2720 3066 2381 3066 
L 2112 3066 
z
M 877 333 
C 877 -13 864 -237 838 -454 
L 1280 -454 
C 1261 -243 1254 -38 1254 339 
L 1254 3782 
C 1421 4179 1562 4576 1670 4941 
C 1709 5082 1715 5101 1773 5248 
L 1363 5363 
C 1338 5146 1229 4749 1094 4378 
C 806 3590 531 3072 102 2515 
C 134 2477 134 2477 173 2419 
C 243 2342 243 2342 301 2234 
C 307 2214 326 2189 346 2157 
C 563 2458 698 2682 896 3104 
C 883 2797 877 2502 877 2131 
L 877 333 
z
" transform="scale(0.015625)"/>
        <path id="HiraginoSansGB-W3-5eb7" d="M 3302 3136 
L 1242 3136 
C 1254 3904 1254 3904 1254 4454 
L 5427 4454 
C 5664 4454 5830 4448 6035 4422 
L 6035 4838 
C 5882 4813 5690 4800 5370 4800 
L 3795 4800 
C 3552 5082 3456 5171 3168 5370 
L 2912 5158 
C 3059 5050 3123 4998 3213 4902 
C 3283 4838 3283 4838 3322 4800 
L 1549 4800 
C 1203 4800 1018 4806 832 4832 
C 851 4653 858 4474 858 4109 
C 858 2803 781 1696 640 998 
C 557 576 461 301 237 -141 
C 397 -250 454 -301 576 -442 
C 1005 416 1165 1216 1229 2803 
L 3302 2803 
L 3302 2291 
L 2125 2291 
C 1901 2291 1766 2298 1626 2323 
L 1626 1933 
C 1766 1958 1914 1965 2138 1965 
L 3302 1965 
L 3302 1126 
C 2573 768 2304 659 1722 474 
C 1414 378 1350 358 1197 333 
L 1395 -70 
C 1472 -38 1536 -6 1638 32 
C 2362 307 2483 358 3302 762 
L 3302 115 
C 3302 -19 3264 -38 3040 -38 
C 2816 -38 2611 -13 2362 38 
C 2419 -122 2438 -224 2451 -397 
C 2701 -416 2861 -422 3034 -422 
C 3539 -422 3667 -326 3667 58 
L 3667 1062 
C 3667 1197 3654 1517 3635 1709 
C 3898 1210 4134 877 4442 582 
C 4838 192 5146 -13 5811 -365 
C 5926 -192 6003 -109 6099 -13 
C 5491 243 5101 480 4691 851 
C 5018 1056 5350 1325 5754 1702 
L 5414 1946 
C 5158 1626 4890 1389 4442 1094 
C 4186 1370 4019 1594 3859 1894 
C 3853 1907 3834 1933 3821 1965 
L 4954 1965 
C 5101 1965 5139 1965 5421 1952 
C 5408 2086 5408 2125 5408 2400 
L 5408 2803 
L 5594 2803 
C 5786 2803 5939 2797 6099 2771 
L 6099 3168 
C 5978 3142 5856 3136 5600 3136 
L 5408 3136 
L 5408 3520 
C 5408 3706 5408 3840 5427 3962 
C 5248 3942 5126 3936 4877 3936 
L 3674 3936 
C 3674 4186 3680 4205 3699 4307 
L 3270 4307 
C 3290 4198 3296 4128 3302 3936 
L 2189 3936 
C 1946 3936 1824 3942 1683 3968 
L 1683 3578 
C 1837 3603 1978 3610 2189 3610 
L 3302 3610 
L 3302 3136 
z
M 5037 2803 
L 5037 2291 
L 3674 2291 
L 3674 2803 
L 5037 2803 
z
M 5037 3136 
L 3674 3136 
L 3674 3610 
L 5037 3610 
L 5037 3136 
z
M 1677 1606 
C 2042 1395 2227 1254 2566 922 
L 2829 1171 
C 2502 1472 2298 1632 1952 1837 
L 1677 1606 
z
" transform="scale(0.015625)"/>
       </defs>
       <use xlink:href="#HiraginoSansGB-W3-96c6"/>
       <use xlink:href="#HiraginoSansGB-W3-7fa4" x="99.999985"/>
       <use xlink:href="#HiraginoSansGB-W3-5065" x="199.999969"/>
       <use xlink:href="#HiraginoSansGB-W3-5eb7" x="299.999954"/>
      </g>
     </g>
    </g>
    <g id="xtick_4">
     <g id="line2d_7">
      <path d="M 251.494297 205.344 
L 251.494297 5.76 
" clip-path="url(#pbe9ce29397)" style="fill: none; stroke: #e5e7eb; stroke-opacity: 0.7; stroke-width: 0.6; stroke-linecap: square"/>
     </g>
     <g id="line2d_8">
      <g>
       <use xlink:href="#m4eb317647e" x="251.494297" y="205.344" style="fill: #374151; stroke: #374151; stroke-width: 0.6"/>
      </g>
     </g>
     <g id="text_4">
      <!-- 调度阻塞 -->
      <g style="fill: #374151" transform="translate(218.622376 229.042402) rotate(-18) scale(0.085 -0.085)">
       <defs>
        <path id="HiraginoSansGB-W3-8c03" d="M 4262 3571 
L 4634 3571 
C 4851 3571 4986 3565 5126 3552 
L 5126 3923 
C 4966 3904 4826 3898 4634 3898 
L 4262 3898 
L 4262 3949 
C 4262 4186 4269 4307 4294 4442 
L 3885 4442 
C 3910 4294 3917 4179 3917 3955 
L 3917 3898 
L 3616 3898 
C 3424 3898 3277 3904 3104 3923 
L 3104 3552 
C 3258 3565 3398 3571 3610 3571 
L 3917 3571 
L 3917 2912 
L 3533 2912 
C 3290 2912 3155 2918 3014 2938 
L 3014 2554 
C 3194 2573 3360 2579 3533 2579 
L 4736 2579 
C 4915 2579 5056 2573 5222 2554 
L 5222 2938 
C 5101 2918 4973 2912 4730 2912 
L 4262 2912 
L 4262 3571 
z
M 1146 742 
C 1120 634 1082 589 941 525 
L 1184 134 
C 1293 224 1293 224 1312 243 
C 1478 378 1478 378 1645 493 
C 1773 582 1958 723 2202 915 
L 2125 1363 
C 1843 1133 1747 1050 1549 909 
L 1549 2682 
C 1549 3002 1555 3162 1581 3360 
C 1434 3341 1274 3328 1094 3328 
L 787 3328 
C 544 3328 454 3334 294 3360 
L 294 2925 
C 454 2950 550 2957 762 2957 
L 1146 2957 
L 1146 742 
z
M 2835 4723 
L 5478 4723 
L 5478 211 
C 5478 51 5434 19 5210 19 
C 5037 19 4832 45 4576 96 
C 4627 -51 4659 -186 4666 -333 
C 4934 -352 5050 -358 5158 -358 
C 5696 -358 5856 -243 5856 134 
L 5856 4480 
C 5856 4762 5862 4928 5882 5107 
C 5715 5088 5581 5082 5261 5082 
L 3027 5082 
C 2726 5082 2579 5088 2406 5107 
C 2438 4832 2445 4634 2445 4378 
L 2445 3571 
C 2438 986 2368 557 1811 -198 
C 1920 -243 1971 -275 2010 -301 
C 2125 -390 2125 -390 2195 -429 
C 2528 83 2675 493 2752 1120 
C 2810 1555 2835 2477 2835 3981 
L 2835 4723 
z
M 4941 1683 
C 4941 1830 4947 1958 4960 2080 
C 4851 2067 4710 2061 4506 2061 
L 3693 2061 
C 3520 2061 3379 2067 3251 2080 
C 3264 1958 3270 1818 3270 1658 
L 3270 666 
C 3270 467 3258 288 3245 192 
L 3616 192 
L 3616 589 
L 4506 589 
C 4877 582 4877 582 4960 570 
C 4947 666 4941 768 4941 922 
L 4941 1683 
z
M 3616 1747 
L 4595 1747 
L 4595 915 
L 3616 915 
L 3616 1747 
z
M 768 4992 
C 1146 4710 1414 4454 1696 4102 
L 1997 4435 
C 1690 4768 1427 5005 1069 5274 
L 768 4992 
z
" transform="scale(0.015625)"/>
        <path id="HiraginoSansGB-W3-5ea6" d="M 2432 3411 
L 2432 2778 
C 2432 2650 2426 2515 2413 2394 
C 2502 2406 2618 2406 2874 2406 
L 4301 2406 
C 4544 2406 4589 2406 4717 2394 
C 4704 2509 4698 2630 4698 2778 
L 4698 3411 
L 5466 3411 
C 5741 3411 5907 3405 6048 3379 
L 6048 3789 
C 5894 3763 5754 3757 5466 3757 
L 4698 3757 
L 4698 3853 
C 4698 4038 4704 4160 4723 4275 
L 4282 4275 
C 4294 4154 4307 4019 4307 3853 
L 4307 3757 
L 2822 3757 
L 2822 3866 
C 2822 4026 2829 4141 2848 4275 
L 2406 4275 
C 2426 4154 2432 4038 2432 3859 
L 2432 3757 
L 1267 3757 
L 1274 4435 
L 5370 4435 
C 5670 4435 5843 4429 6035 4403 
L 6035 4826 
C 5869 4800 5677 4787 5338 4787 
L 3770 4787 
C 3731 4845 3731 4851 3725 4858 
C 3494 5248 3494 5248 3379 5414 
L 3034 5222 
C 3162 5050 3194 4998 3322 4787 
L 1498 4787 
C 1248 4787 1043 4800 838 4819 
C 858 4634 864 4442 864 4038 
C 864 2605 806 1715 672 1082 
C 582 640 454 320 218 -77 
C 352 -166 442 -243 557 -390 
C 845 134 979 512 1088 1082 
C 1197 1670 1242 2214 1267 3411 
L 2432 3411 
z
M 2822 3411 
L 4307 3411 
L 4307 2733 
L 2822 2733 
L 2822 3411 
z
M 5018 1926 
C 4890 1914 4781 1907 4576 1907 
L 2253 1907 
C 1926 1907 1747 1914 1606 1939 
L 1606 1542 
C 1773 1568 1914 1574 2240 1574 
C 2566 1101 2848 800 3270 499 
C 2675 205 2054 38 1120 -83 
C 1216 -237 1261 -333 1299 -480 
C 2298 -307 2918 -102 3622 275 
C 4256 -96 4934 -314 5888 -454 
C 5939 -288 5990 -173 6080 -32 
C 5312 19 4621 198 3994 499 
C 4346 742 4736 1094 5030 1434 
C 5139 1562 5171 1594 5248 1677 
L 5018 1926 
z
M 4653 1574 
C 4250 1139 4045 966 3629 704 
C 3200 973 2925 1229 2688 1574 
L 4653 1574 
z
" transform="scale(0.015625)"/>
        <path id="HiraginoSansGB-W3-963b" d="M 672 122 
C 672 -102 659 -288 634 -474 
L 1107 -474 
C 1082 -282 1075 -134 1075 115 
L 1075 4736 
L 2150 4736 
C 1894 4077 1722 3718 1408 3219 
C 1658 2963 1786 2810 1882 2624 
C 2029 2349 2118 2022 2118 1734 
C 2118 1472 2029 1389 1741 1389 
C 1594 1389 1491 1395 1280 1434 
C 1344 1299 1370 1203 1382 1030 
C 1523 1024 1587 1024 1664 1024 
C 2310 1024 2515 1197 2515 1734 
C 2515 2003 2464 2266 2362 2509 
C 2253 2778 2138 2938 1843 3258 
C 2074 3629 2323 4122 2534 4621 
C 2592 4755 2605 4787 2650 4864 
L 2432 5120 
C 2336 5101 2234 5094 2029 5094 
L 1088 5094 
C 890 5094 742 5101 653 5114 
C 666 4947 672 4806 672 4640 
L 672 122 
z
M 2950 128 
L 2726 128 
C 2387 128 2240 134 2093 160 
L 2093 -275 
C 2246 -250 2445 -237 2765 -237 
L 5530 -237 
C 5792 -237 6010 -250 6182 -275 
L 6182 160 
C 6054 134 5920 128 5606 128 
L 5581 128 
L 5581 4378 
C 5581 4755 5587 4915 5600 5107 
C 5440 5088 5242 5082 4896 5082 
L 3571 5082 
C 3277 5082 3104 5088 2925 5101 
C 2944 4902 2950 4710 2950 4442 
L 2950 128 
z
M 3347 4717 
L 5184 4717 
L 5184 3482 
L 3347 3482 
L 3347 4717 
z
M 3347 3130 
L 5184 3130 
L 5184 1888 
L 3347 1888 
L 3347 3130 
z
M 3347 1536 
L 5184 1536 
L 5184 128 
L 3347 128 
L 3347 1536 
z
" transform="scale(0.015625)"/>
        <path id="HiraginoSansGB-W3-585e" d="M 4186 2259 
L 4186 2784 
L 4749 2784 
C 5043 2784 5139 2778 5286 2758 
L 5286 3130 
C 5139 3110 5050 3104 4749 3104 
L 4186 3104 
L 4186 3584 
L 4768 3584 
C 5037 3584 5165 3578 5338 3552 
L 5338 3936 
C 5184 3910 5050 3904 4787 3904 
L 4186 3904 
C 4186 4045 4198 4166 4218 4301 
L 3782 4301 
C 3802 4198 3808 4128 3814 3904 
L 2560 3904 
C 2560 4064 2573 4205 2592 4301 
L 2157 4301 
C 2182 4128 2182 4128 2189 3904 
L 1638 3904 
C 1376 3904 1242 3910 1088 3936 
L 1088 3552 
C 1261 3578 1395 3584 1658 3584 
L 2189 3584 
L 2189 3104 
L 1677 3104 
C 1376 3104 1280 3110 1139 3130 
L 1139 2758 
C 1280 2778 1382 2784 1677 2784 
L 2189 2784 
L 2189 2259 
L 947 2259 
C 698 2259 550 2266 371 2298 
L 371 1888 
C 550 1914 710 1926 947 1926 
L 2054 1926 
C 1805 1645 1626 1504 1203 1254 
C 883 1069 685 979 186 813 
C 301 698 358 608 429 474 
C 1005 723 1267 864 1600 1088 
C 1619 1101 1619 1107 1638 1114 
L 1638 736 
C 1830 762 1997 768 2208 768 
L 2963 768 
L 2963 102 
L 1165 102 
C 858 102 710 109 538 141 
L 538 -288 
C 723 -262 915 -250 1254 -250 
L 5114 -250 
C 5466 -250 5670 -262 5843 -288 
L 5843 141 
C 5690 115 5523 102 5210 102 
L 3354 102 
L 3354 768 
L 4160 768 
C 4371 768 4531 762 4730 736 
L 4730 1120 
C 5114 864 5344 742 5984 461 
C 6048 614 6093 698 6189 832 
C 5536 1043 5158 1222 4717 1530 
C 4538 1651 4499 1683 4269 1926 
L 5478 1926 
C 5722 1926 5862 1920 6054 1888 
L 6054 2298 
C 5869 2266 5728 2259 5478 2259 
L 4186 2259 
z
M 3814 2259 
L 2560 2259 
L 2560 2784 
L 3814 2784 
L 3814 2259 
z
M 3814 3104 
L 2560 3104 
L 2560 3584 
L 3814 3584 
L 3814 3104 
z
M 3821 1926 
C 4128 1568 4320 1395 4717 1126 
C 4570 1101 4416 1094 4154 1094 
L 3354 1094 
L 3354 1229 
C 3354 1478 3360 1568 3392 1715 
L 2925 1715 
C 2957 1574 2963 1466 2963 1229 
L 2963 1094 
L 2221 1094 
C 1946 1094 1824 1101 1651 1126 
C 2099 1446 2221 1568 2496 1926 
L 3821 1926 
z
M 3533 4806 
C 3347 5043 3219 5165 2925 5382 
L 2682 5152 
C 2918 4966 2938 4947 3027 4858 
C 3040 4845 3059 4826 3085 4806 
L 1184 4806 
C 915 4806 749 4813 544 4832 
C 563 4704 570 4582 570 4397 
L 570 4198 
C 570 4006 563 3885 544 3750 
L 960 3750 
L 960 4467 
L 5466 4467 
L 5466 3757 
L 5882 3757 
C 5862 3885 5856 4013 5856 4198 
L 5856 4397 
C 5856 4589 5862 4698 5882 4832 
C 5677 4813 5510 4806 5242 4806 
L 3533 4806 
z
" transform="scale(0.015625)"/>
       </defs>
       <use xlink:href="#HiraginoSansGB-W3-8c03"/>
       <use xlink:href="#HiraginoSansGB-W3-5ea6" x="99.999985"/>
       <use xlink:href="#HiraginoSansGB-W3-963b" x="199.999969"/>
       <use xlink:href="#HiraginoSansGB-W3-585e" x="299.999954"/>
      </g>
     </g>
    </g>
    <g id="xtick_5">
     <g id="line2d_9">
      <path d="M 307.361337 205.344 
L 307.361337 5.76 
" clip-path="url(#pbe9ce29397)" style="fill: none; stroke: #e5e7eb; stroke-opacity: 0.7; stroke-width: 0.6; stroke-linecap: square"/>
     </g>
     <g id="line2d_10">
      <g>
       <use xlink:href="#m4eb317647e" x="307.361337" y="205.344" style="fill: #374151; stroke: #374151; stroke-width: 0.6"/>
      </g>
     </g>
     <g id="text_5">
      <!-- CrashLoop 诊断 -->
      <g style="fill: #374151" transform="translate(244.198489 239.507239) rotate(-18) scale(0.085 -0.085)">
       <defs>
        <path id="HiraginoSansGB-W3-43" d="M 4461 3667 
C 4307 4064 4186 4256 3962 4474 
C 3616 4819 3130 4992 2528 4992 
C 1920 4992 1434 4806 1062 4448 
C 589 3981 333 3283 333 2458 
C 333 1658 576 960 1024 512 
C 1389 141 1907 -51 2522 -51 
C 3238 -51 3821 211 4179 691 
C 4333 896 4416 1075 4525 1453 
L 3994 1581 
C 3936 1286 3872 1126 3738 941 
C 3475 595 3046 403 2541 403 
C 1510 403 851 1210 851 2477 
C 851 3750 1504 4544 2541 4544 
C 3008 4544 3392 4384 3648 4083 
C 3782 3930 3853 3795 3949 3520 
L 4461 3667 
z
" transform="scale(0.015625)"/>
        <path id="HiraginoSansGB-W3-73" d="M 269 973 
C 333 710 378 602 474 467 
C 710 141 1158 -32 1741 -32 
C 2618 -32 3162 365 3162 1005 
C 3162 1267 3053 1510 2854 1670 
C 2662 1818 2458 1894 1837 2035 
C 1440 2118 1274 2170 1126 2253 
C 986 2330 909 2458 909 2605 
C 909 2944 1242 3181 1709 3181 
C 1997 3181 2227 3098 2374 2938 
C 2464 2848 2496 2771 2534 2598 
L 3040 2682 
C 2957 2976 2867 3123 2701 3264 
C 2470 3469 2131 3571 1696 3571 
C 1267 3571 922 3456 698 3238 
C 518 3066 422 2848 422 2618 
C 422 2336 544 2099 768 1946 
C 986 1798 1203 1722 1715 1613 
C 2189 1517 2317 1478 2470 1382 
C 2605 1299 2669 1165 2669 986 
C 2669 608 2317 371 1760 371 
C 1434 371 1178 448 1018 595 
C 890 710 838 826 794 1062 
L 269 973 
z
" transform="scale(0.015625)"/>
        <path id="HiraginoSansGB-W3-68" d="M 1024 38 
C 992 288 979 480 979 762 
L 979 1990 
C 1037 2259 1120 2432 1299 2662 
C 1549 2976 1843 3130 2202 3130 
C 2701 3130 2976 2829 2976 2272 
L 2976 762 
C 2976 442 2963 250 2931 38 
L 3507 38 
C 3475 275 3462 461 3462 755 
L 3462 2362 
C 3462 3110 3014 3552 2266 3552 
C 1875 3552 1581 3443 1306 3206 
C 1152 3078 1082 2982 954 2771 
C 973 2938 973 2989 973 3091 
L 973 4173 
C 973 4499 986 4666 1024 4902 
L 454 4902 
C 486 4666 499 4499 499 4179 
L 499 762 
C 499 442 486 269 454 38 
L 1024 38 
z
" transform="scale(0.015625)"/>
        <path id="HiraginoSansGB-W3-4c" d="M 3059 38 
C 3418 38 3597 26 3802 -6 
L 3802 538 
C 3552 506 3379 493 3059 493 
L 1043 493 
L 1043 4147 
C 1043 4499 1056 4666 1094 4902 
L 493 4902 
C 531 4678 544 4480 544 4147 
L 544 781 
C 544 467 531 262 493 19 
C 717 32 896 38 1190 38 
L 3059 38 
z
" transform="scale(0.015625)"/>
        <path id="HiraginoSansGB-W3-6f" d="M 2010 -45 
C 3040 -45 3706 672 3706 1766 
C 3706 2867 3046 3571 2003 3571 
C 960 3571 294 2867 294 1760 
C 294 653 960 -45 2010 -45 
z
M 2016 3168 
C 2752 3168 3213 2630 3213 1766 
C 3213 902 2752 371 2003 371 
C 1254 371 787 902 787 1773 
C 787 2637 1254 3168 2016 3168 
z
" transform="scale(0.015625)"/>
        <path id="HiraginoSansGB-W3-70" d="M 1018 -1306 
C 986 -1069 973 -883 973 -582 
L 973 211 
C 973 384 966 480 947 659 
C 1248 218 1702 -19 2266 -19 
C 3226 -19 3840 678 3840 1766 
C 3840 2880 3238 3552 2253 3552 
C 1683 3552 1235 3315 947 2861 
C 960 2970 966 3040 966 3123 
L 966 3488 
L 454 3488 
C 486 3245 499 3059 499 2752 
L 499 -589 
C 499 -851 486 -1056 454 -1306 
L 1018 -1306 
z
M 2221 397 
C 1888 397 1568 518 1344 736 
C 1114 960 979 1344 979 1760 
C 979 2586 1478 3136 2214 3136 
C 2931 3136 3341 2637 3341 1766 
C 3341 915 2918 397 2221 397 
z
" transform="scale(0.015625)"/>
       </defs>
       <use xlink:href="#HiraginoSansGB-W3-43"/>
       <use xlink:href="#HiraginoSansGB-W3-72" x="75.599991"/>
       <use xlink:href="#HiraginoSansGB-W3-61" x="118.599976"/>
       <use xlink:href="#HiraginoSansGB-W3-73" x="176.09996"/>
       <use xlink:href="#HiraginoSansGB-W3-68" x="229.799957"/>
       <use xlink:href="#HiraginoSansGB-W3-4c" x="291.499954"/>
       <use xlink:href="#HiraginoSansGB-W3-6f" x="351.699951"/>
       <use xlink:href="#HiraginoSansGB-W3-6f" x="414.199936"/>
       <use xlink:href="#HiraginoSansGB-W3-70" x="476.699921"/>
       <use xlink:href="#HiraginoSansGB-W3-20" x="541.399918"/>
       <use xlink:href="#HiraginoSansGB-W3-8bca" x="574.699905"/>
       <use xlink:href="#HiraginoSansGB-W3-65ad" x="674.69989"/>
      </g>
     </g>
    </g>
    <g id="xtick_6">
     <g id="line2d_11">
      <path d="M 363.228378 205.344 
L 363.228378 5.76 
" clip-path="url(#pbe9ce29397)" style="fill: none; stroke: #e5e7eb; stroke-opacity: 0.7; stroke-width: 0.6; stroke-linecap: square"/>
     </g>
     <g id="line2d_12">
      <g>
       <use xlink:href="#m4eb317647e" x="363.228378" y="205.344" style="fill: #374151; stroke: #374151; stroke-width: 0.6"/>
      </g>
     </g>
     <g id="text_6">
      <!-- 分布式网络 -->
      <g style="fill: #374151" transform="translate(322.272476 231.669046) rotate(-18) scale(0.085 -0.085)">
       <defs>
        <path id="HiraginoSansGB-W3-5206" d="M 4435 2637 
C 4435 1530 4358 666 4224 275 
C 4179 147 4109 115 3917 115 
C 3661 115 3373 147 3002 218 
C 3066 32 3085 -64 3104 -237 
C 3520 -275 3718 -288 3942 -288 
C 4320 -288 4467 -230 4576 -32 
C 4742 269 4864 1350 4864 2592 
C 4870 2880 4870 2931 4890 3046 
C 4704 3021 4512 3014 4218 3014 
L 2112 3014 
C 1850 3014 1632 3027 1446 3053 
L 1446 2598 
C 1645 2624 1862 2637 2106 2637 
L 2509 2637 
C 2464 2061 2374 1722 2163 1318 
C 1856 736 1370 314 550 -83 
C 685 -211 749 -294 832 -442 
C 1613 -38 2112 397 2445 954 
C 2739 1440 2893 1965 2944 2637 
L 4435 2637 
z
M 2246 5293 
C 2214 5101 2131 4902 1971 4621 
C 1542 3853 992 3264 218 2746 
C 365 2624 448 2528 531 2400 
C 1434 3066 2054 3808 2547 4800 
C 2643 4998 2669 5050 2726 5126 
L 2246 5293 
z
M 3667 5114 
C 3699 5062 3738 4992 3770 4934 
C 4371 3757 4915 3110 5926 2362 
C 6022 2528 6106 2637 6227 2752 
C 5350 3328 4806 3904 4339 4742 
C 4205 4986 4147 5114 4096 5280 
L 3667 5114 
z
" transform="scale(0.015625)"/>
        <path id="HiraginoSansGB-W3-5e03" d="M 5312 3917 
C 5651 3917 5850 3904 6029 3878 
L 6029 4333 
C 5862 4307 5664 4294 5312 4294 
L 2848 4294 
C 2925 4493 3002 4730 3066 4947 
C 3123 5126 3136 5171 3187 5267 
L 2694 5350 
C 2656 5005 2586 4742 2413 4294 
L 1075 4294 
C 710 4294 518 4307 346 4333 
L 346 3878 
C 563 3904 768 3917 1075 3917 
L 2246 3917 
C 1798 2995 1107 2214 243 1664 
C 352 1562 448 1434 512 1312 
C 1088 1766 1248 1914 1542 2240 
L 1542 672 
C 1542 378 1530 186 1504 -13 
L 1984 -13 
C 1958 147 1952 320 1952 672 
L 1952 2342 
L 3245 2342 
L 3245 224 
C 3245 -102 3232 -346 3200 -512 
L 3699 -512 
C 3667 -352 3654 -109 3654 218 
L 3654 2342 
L 5088 2342 
L 5088 717 
C 5088 544 5024 506 4762 506 
C 4563 506 4352 525 4064 576 
C 4141 410 4166 314 4186 147 
C 4467 128 4576 122 4774 122 
C 5338 122 5498 237 5498 640 
L 5498 2214 
C 5498 2426 5504 2579 5523 2739 
C 5331 2720 5139 2707 4928 2707 
L 3654 2707 
L 3654 2835 
C 3654 3187 3661 3354 3693 3520 
L 3206 3520 
C 3232 3354 3245 3162 3245 2835 
L 3245 2707 
L 1926 2707 
C 2221 3078 2464 3482 2682 3917 
L 5312 3917 
z
" transform="scale(0.015625)"/>
        <path id="HiraginoSansGB-W3-5f0f" d="M 5363 3693 
C 5632 3693 5837 3680 6022 3654 
L 6022 4115 
C 5862 4090 5677 4077 5402 4077 
L 4198 4077 
C 4186 4371 4186 4499 4186 4634 
C 4186 4896 4198 5082 4224 5222 
L 3731 5222 
C 3763 4992 3763 4986 3770 4762 
C 3776 4288 3776 4288 3782 4077 
L 1120 4077 
C 838 4077 640 4090 461 4115 
L 461 3654 
C 678 3680 858 3693 1120 3693 
L 3795 3693 
C 3802 3674 3802 3667 3802 3642 
C 3846 2573 4013 1677 4307 915 
C 4602 154 5043 -352 5421 -352 
C 5581 -352 5715 -262 5830 -83 
C 5952 115 6029 371 6144 915 
C 5978 986 5907 1037 5766 1165 
C 5664 461 5549 115 5408 115 
C 5363 115 5293 160 5203 237 
C 5011 410 4838 704 4672 1146 
C 4531 1510 4448 1830 4352 2349 
C 4275 2810 4256 2963 4218 3693 
L 5363 3693 
z
M 2310 2349 
L 2963 2349 
C 3206 2349 3373 2342 3533 2317 
L 3533 2746 
C 3373 2720 3232 2714 2957 2714 
L 1299 2714 
C 1024 2714 870 2720 717 2746 
L 717 2317 
C 877 2342 1050 2349 1293 2349 
L 1901 2349 
L 1901 544 
C 1082 390 1082 390 883 371 
C 627 346 627 346 499 346 
L 595 -109 
C 672 -90 794 -64 883 -45 
C 1946 147 2803 333 3750 582 
L 3750 973 
C 2835 730 2675 691 2310 621 
L 2310 2349 
z
M 5600 4474 
C 5325 4755 5158 4896 4787 5165 
L 4493 4947 
C 4845 4698 5018 4544 5299 4230 
L 5600 4474 
z
" transform="scale(0.015625)"/>
        <path id="HiraginoSansGB-W3-7f51" d="M 5210 1389 
C 4947 1798 4794 2016 4576 2291 
C 4531 2349 4525 2362 4499 2394 
C 4621 2848 4698 3277 4806 4154 
L 4384 4211 
C 4333 3533 4288 3206 4192 2778 
C 3846 3187 3718 3328 3354 3693 
L 3066 3462 
C 3482 3046 3802 2688 4070 2336 
C 3910 1818 3763 1510 3494 1101 
C 3328 851 3238 749 3002 531 
C 3155 448 3200 410 3347 262 
C 3661 640 3808 832 3968 1120 
C 4134 1408 4262 1677 4358 1958 
C 4576 1664 4717 1440 4902 1101 
L 5210 1389 
z
M 3398 1459 
C 3110 1894 3059 1958 2669 2464 
C 2803 3014 2854 3315 2963 4224 
L 2554 4262 
C 2515 3648 2470 3296 2368 2822 
C 1920 3360 1920 3360 1600 3667 
L 1325 3437 
C 1709 3072 1824 2938 2266 2394 
C 2022 1587 1728 1114 1133 602 
C 1280 512 1357 448 1466 320 
C 2016 890 2310 1357 2541 2035 
C 2842 1619 2893 1536 3104 1171 
L 3398 1459 
z
M 634 294 
C 634 -6 621 -230 595 -461 
L 1062 -461 
C 1037 -262 1030 -77 1030 294 
L 1030 4653 
L 5427 4653 
L 5427 205 
C 5427 58 5389 38 5114 38 
C 4794 38 4538 58 4128 122 
C 4192 -32 4211 -115 4230 -294 
C 4627 -326 4806 -333 5062 -333 
C 5690 -333 5824 -250 5824 141 
L 5824 4352 
C 5824 4653 5830 4851 5850 5050 
C 5638 5024 5472 5018 5114 5018 
L 1370 5018 
C 998 5018 838 5024 608 5050 
C 627 4838 634 4653 634 4365 
L 634 294 
z
" transform="scale(0.015625)"/>
        <path id="HiraginoSansGB-W3-7edc" d="M 5555 4768 
C 5427 4742 5286 4736 4960 4736 
L 3981 4736 
C 4032 4838 4064 4902 4096 4973 
C 4211 5210 4211 5210 4237 5261 
L 3808 5370 
C 3782 5222 3731 5075 3642 4896 
C 3379 4358 3066 3987 2496 3546 
C 2598 3475 2701 3373 2778 3258 
C 3142 3578 3270 3706 3475 3962 
C 3706 3552 3846 3373 4128 3078 
C 3680 2714 3187 2432 2592 2195 
C 2682 2074 2739 1965 2778 1824 
C 3475 2144 3846 2374 4397 2822 
C 4851 2419 5312 2138 6035 1824 
C 6093 1997 6138 2086 6246 2234 
C 5792 2387 5549 2496 5210 2701 
C 5005 2816 4806 2957 4672 3072 
C 5024 3398 5184 3603 5581 4218 
C 5632 4307 5677 4371 5709 4410 
C 5766 4486 5766 4486 5786 4512 
L 5555 4768 
z
M 5248 4390 
C 4934 3891 4691 3590 4397 3315 
C 4045 3674 3898 3872 3699 4269 
C 3718 4301 3725 4307 3744 4333 
C 3770 4365 3770 4365 3782 4390 
L 5248 4390 
z
M 531 1338 
C 717 1402 1178 1498 1683 1574 
C 2214 1664 2214 1664 2419 1702 
L 2464 2106 
C 2067 2010 1894 1978 1037 1824 
C 1581 2464 2048 3104 2502 3827 
L 2131 4038 
C 1971 3744 1914 3648 1773 3424 
C 1350 3392 1350 3392 934 3360 
C 1165 3738 1408 4205 1632 4710 
C 1670 4800 1670 4800 1843 5178 
L 1427 5344 
C 1254 4832 1050 4326 851 3936 
C 602 3443 544 3360 378 3334 
L 486 2931 
C 666 2995 1062 3053 1510 3078 
C 1530 3078 1536 3078 1555 3085 
C 1434 2886 1434 2886 1005 2317 
C 730 1946 627 1843 525 1811 
C 429 1786 429 1786 403 1773 
L 531 1338 
z
M 3488 -128 
L 5286 -128 
L 5286 -448 
L 5702 -448 
C 5677 -307 5670 -128 5670 205 
L 5670 1370 
C 5670 1690 5670 1773 5690 1926 
C 5549 1914 5446 1914 5171 1914 
L 3603 1914 
C 3328 1914 3238 1914 3085 1926 
C 3104 1760 3104 1670 3104 1370 
L 3104 198 
C 3104 -122 3098 -301 3072 -448 
L 3488 -448 
L 3488 -128 
z
M 3488 1562 
L 5286 1562 
L 5286 224 
L 3488 224 
L 3488 1562 
z
M 2451 915 
C 1978 730 1472 582 890 454 
C 710 416 416 365 352 365 
C 339 365 326 365 314 365 
L 410 -96 
C 461 -77 506 -64 634 -32 
C 1434 173 1594 218 2451 518 
L 2451 915 
z
" transform="scale(0.015625)"/>
       </defs>
       <use xlink:href="#HiraginoSansGB-W3-5206"/>
       <use xlink:href="#HiraginoSansGB-W3-5e03" x="99.999985"/>
       <use xlink:href="#HiraginoSansGB-W3-5f0f" x="199.999969"/>
       <use xlink:href="#HiraginoSansGB-W3-7f51" x="299.999954"/>
       <use xlink:href="#HiraginoSansGB-W3-7edc" x="399.999939"/>
      </g>
     </g>
    </g>
    <g id="xtick_7">
     <g id="line2d_13">
      <path d="M 419.095418 205.344 
L 419.095418 5.76 
" clip-path="url(#pbe9ce29397)" style="fill: none; stroke: #e5e7eb; stroke-opacity: 0.7; stroke-width: 0.6; stroke-linecap: square"/>
     </g>
     <g id="line2d_14">
      <g>
       <use xlink:href="#m4eb317647e" x="419.095418" y="205.344" style="fill: #374151; stroke: #374151; stroke-width: 0.6"/>
      </g>
     </g>
     <g id="text_7">
      <!-- 存储挂载 -->
      <g style="fill: #374151" transform="translate(386.223497 229.042402) rotate(-18) scale(0.085 -0.085)">
       <defs>
        <path id="HiraginoSansGB-W3-5b58" d="M 4294 1555 
L 5402 1555 
C 5677 1555 5875 1542 6067 1517 
L 6067 1952 
C 5888 1926 5696 1914 5414 1914 
L 4294 1914 
L 4294 2195 
C 4608 2374 4749 2458 4915 2579 
C 5088 2707 5376 2944 5491 3059 
C 5619 3187 5619 3187 5683 3251 
L 5421 3520 
C 5306 3501 5158 3494 4922 3494 
L 3053 3494 
C 2752 3494 2618 3501 2458 3520 
L 2458 3098 
C 2650 3123 2816 3136 3040 3136 
L 5037 3136 
C 4710 2829 4512 2688 4141 2490 
L 3859 2490 
C 3872 2381 3878 2259 3878 2131 
L 3878 1914 
L 2662 1914 
C 2374 1914 2182 1926 2010 1952 
L 2010 1517 
C 2195 1542 2394 1555 2662 1555 
L 3878 1555 
L 3878 154 
C 3878 0 3827 -32 3622 -32 
C 3418 -32 3226 -13 2918 51 
C 2976 -90 3002 -173 3027 -358 
C 3309 -390 3494 -403 3693 -403 
C 4179 -403 4294 -307 4294 90 
L 4294 1555 
z
M 2157 4230 
C 1952 3846 1741 3507 1523 3219 
L 1210 3219 
C 1222 3085 1229 2995 1229 2861 
C 960 2547 710 2323 237 1958 
C 365 1830 410 1760 499 1594 
C 1043 2080 1043 2080 1235 2272 
L 1235 198 
C 1235 -109 1222 -288 1197 -442 
L 1690 -442 
C 1658 -256 1651 -58 1651 198 
L 1651 2752 
C 2035 3238 2349 3738 2592 4230 
L 5299 4230 
C 5581 4230 5818 4218 6003 4198 
L 6003 4646 
C 5850 4621 5638 4608 5293 4608 
L 2765 4608 
C 2816 4730 2848 4794 2880 4877 
C 2976 5120 2995 5165 3066 5325 
L 2592 5395 
C 2541 5133 2477 4928 2336 4608 
L 1133 4608 
C 787 4608 576 4621 416 4646 
L 416 4198 
C 602 4224 800 4230 1126 4230 
L 2157 4230 
z
" transform="scale(0.015625)"/>
        <path id="HiraginoSansGB-W3-50a8" d="M 4352 2989 
C 3846 2496 3373 2131 2771 1792 
C 2906 1709 2976 1645 3053 1517 
C 3341 1715 3430 1773 3578 1888 
L 3578 173 
C 3578 -96 3565 -275 3539 -454 
L 3962 -454 
L 3962 -122 
L 5421 -122 
L 5421 -448 
L 5837 -448 
C 5805 -205 5798 -96 5798 141 
L 5798 1747 
C 5798 2067 5805 2234 5830 2406 
C 5670 2387 5536 2381 5235 2381 
L 4179 2381 
C 4474 2637 4666 2822 4819 2989 
L 5370 2989 
C 5715 2989 5926 2982 6150 2957 
L 6150 3366 
C 5958 3334 5805 3328 5389 3328 
L 5114 3328 
C 5427 3731 5670 4070 5862 4403 
C 6029 4678 6054 4717 6106 4794 
L 5683 4973 
C 5530 4486 5190 3942 4672 3328 
L 4390 3328 
L 4390 4166 
L 4608 4166 
C 4832 4166 5018 4160 5178 4147 
L 5178 4525 
C 5043 4506 4877 4499 4602 4499 
L 4390 4499 
L 4390 4672 
C 4390 4941 4403 5088 4435 5216 
L 3968 5216 
C 4000 5069 4013 4947 4013 4678 
L 4013 4499 
L 3750 4499 
C 3456 4499 3328 4506 3149 4531 
L 3149 4147 
C 3309 4166 3392 4166 3750 4166 
L 4013 4166 
L 4013 3328 
L 3629 3328 
C 3309 3328 3149 3334 2925 3360 
L 2925 2957 
C 3149 2982 3328 2989 3629 2989 
L 4352 2989 
z
M 3962 2054 
L 5421 2054 
L 5421 1331 
L 3962 1331 
L 3962 2054 
z
M 3962 1011 
L 5421 1011 
L 5421 205 
L 3962 205 
L 3962 1011 
z
M 2598 2605 
C 2598 2938 2605 3078 2624 3283 
C 2483 3264 2317 3251 2163 3251 
L 1901 3251 
C 1728 3251 1658 3258 1549 3283 
L 1549 2861 
C 1664 2886 1728 2893 1882 2893 
L 2202 2893 
L 2202 429 
C 2202 378 2170 288 2144 250 
C 2125 224 2099 205 2022 141 
L 2189 -250 
C 2496 -90 3021 230 3277 410 
L 3238 832 
C 2899 602 2682 454 2592 403 
L 2598 2605 
z
M 1869 4685 
C 2246 4326 2368 4179 2624 3795 
L 2957 4038 
C 2714 4358 2598 4486 2170 4902 
L 1869 4685 
z
M 986 294 
C 986 -58 973 -269 947 -493 
L 1402 -493 
C 1382 -269 1376 -77 1376 307 
L 1376 3814 
C 1530 4147 1645 4442 1715 4646 
C 1869 5120 1869 5120 1901 5190 
L 1472 5338 
C 1459 5165 1376 4870 1254 4538 
C 973 3789 621 3181 160 2643 
C 269 2541 346 2432 416 2272 
C 659 2592 819 2848 1005 3226 
C 992 2918 986 2643 986 2266 
L 986 294 
z
" transform="scale(0.015625)"/>
        <path id="HiraginoSansGB-W3-6302" d="M 1517 3718 
L 1760 3718 
C 1933 3718 2061 3712 2189 3693 
L 2189 4122 
C 2042 4096 1939 4090 1773 4090 
L 1517 4090 
L 1517 4704 
C 1517 4966 1530 5158 1562 5344 
L 1082 5344 
C 1114 5146 1126 4960 1126 4698 
L 1126 4090 
L 819 4090 
C 634 4090 499 4096 358 4122 
L 358 3693 
C 506 3712 646 3718 813 3718 
L 1126 3718 
L 1126 2317 
C 576 2099 493 2074 269 2029 
L 390 1606 
C 563 1683 563 1683 659 1722 
C 762 1766 941 1843 1126 1920 
L 1126 179 
C 1126 26 1082 -6 883 -6 
C 742 -6 589 6 390 32 
C 454 -128 474 -224 480 -371 
C 640 -378 736 -384 851 -384 
C 1370 -384 1517 -288 1517 64 
L 1517 2086 
C 1875 2253 1894 2259 2163 2394 
L 2150 2784 
C 1875 2637 1779 2592 1517 2477 
L 1517 3718 
z
M 4282 3981 
L 5216 3981 
C 5498 3981 5645 3974 5818 3949 
L 5818 4378 
C 5664 4352 5510 4339 5216 4339 
L 4282 4339 
L 4282 4646 
C 4282 5030 4288 5197 4320 5350 
L 3846 5350 
C 3878 5184 3885 5011 3885 4646 
L 3885 4339 
L 3168 4339 
C 2886 4339 2726 4352 2579 4378 
L 2579 3949 
C 2746 3974 2899 3981 3168 3981 
L 3885 3981 
L 3885 3021 
L 2995 3021 
C 2765 3021 2554 3034 2374 3053 
L 2374 2630 
C 2547 2650 2733 2656 2995 2656 
L 5434 2656 
C 5658 2656 5875 2643 6054 2624 
L 6054 3053 
C 5869 3034 5670 3021 5434 3021 
L 4282 3021 
L 4282 3981 
z
M 3885 1651 
L 3021 1651 
C 2733 1651 2579 1658 2413 1683 
L 2413 1267 
C 2579 1286 2752 1293 3021 1293 
L 3885 1293 
L 3885 179 
L 2714 179 
C 2464 179 2272 192 2080 211 
L 2080 -230 
C 2266 -205 2458 -192 2714 -192 
L 5491 -192 
C 5747 -192 5939 -205 6131 -230 
L 6131 211 
C 5933 192 5741 179 5491 179 
L 4282 179 
L 4282 1293 
L 5254 1293 
C 5523 1293 5696 1286 5862 1267 
L 5862 1683 
C 5690 1658 5549 1651 5261 1651 
L 4282 1651 
L 4282 1766 
C 4282 2093 4288 2272 4320 2426 
L 3846 2426 
C 3872 2259 3885 2074 3885 1766 
L 3885 1651 
z
" transform="scale(0.015625)"/>
        <path id="HiraginoSansGB-W3-8f7d" d="M 5408 3098 
C 5325 2547 5133 2010 4800 1402 
C 4621 2061 4557 2579 4518 3622 
L 5414 3622 
C 5677 3622 5824 3616 6048 3584 
L 6048 3994 
C 5843 3968 5683 3955 5414 3955 
L 4512 3955 
C 4506 4115 4506 4288 4506 4448 
C 4506 4979 4506 5037 4544 5254 
L 4077 5254 
C 4102 5120 4109 5005 4115 4749 
L 4128 3955 
L 2342 3955 
L 2342 4442 
L 3078 4442 
C 3354 4442 3475 4435 3629 4410 
L 3629 4800 
C 3475 4774 3360 4768 3078 4768 
L 2342 4768 
L 2342 4890 
C 2342 5088 2349 5171 2381 5312 
L 1946 5312 
C 1978 5178 1984 5101 1984 4890 
L 1984 4768 
L 1274 4768 
C 992 4768 870 4774 717 4800 
L 717 4410 
C 864 4435 992 4442 1274 4442 
L 1984 4442 
L 1984 3955 
L 973 3955 
C 704 3955 544 3968 339 3994 
L 339 3584 
C 557 3616 717 3622 973 3622 
L 4141 3622 
C 4205 2272 4282 1760 4531 979 
C 4115 410 3846 147 3238 -256 
C 3398 -346 3456 -390 3578 -525 
C 4115 -122 4333 96 4691 570 
C 4838 256 4928 102 5062 -64 
C 5254 -326 5440 -454 5613 -454 
C 5882 -454 6035 -147 6182 672 
C 6035 755 5984 794 5843 934 
C 5798 570 5766 403 5715 243 
C 5658 58 5626 -6 5587 -6 
C 5549 -6 5440 96 5338 224 
C 5197 410 5094 595 4954 954 
C 5293 1510 5427 1818 5690 2586 
C 5766 2810 5811 2938 5824 2963 
L 5408 3098 
z
M 5805 4365 
C 5549 4704 5427 4826 5056 5133 
L 4774 4954 
C 5139 4646 5261 4512 5523 4147 
L 5805 4365 
z
M 1229 2586 
C 1120 2246 1056 2093 986 1952 
C 902 1786 870 1754 762 1715 
L 870 1363 
C 1024 1395 1094 1402 1184 1402 
L 2208 1402 
L 2208 730 
C 1837 678 1011 621 698 621 
C 659 621 646 621 550 621 
C 518 627 512 627 403 627 
L 499 173 
C 589 205 634 218 768 230 
C 806 237 851 237 890 243 
C 966 256 973 256 1082 262 
C 1370 282 1920 339 2208 378 
L 2208 166 
C 2208 -83 2202 -186 2182 -365 
C 2176 -403 2176 -416 2170 -467 
L 2592 -467 
C 2554 -224 2554 -179 2554 166 
L 2554 435 
C 3155 531 3334 557 3923 659 
L 3917 998 
C 3558 922 3411 896 2554 781 
L 2554 1402 
L 3123 1402 
C 3309 1402 3424 1395 3674 1363 
L 3674 1760 
C 3501 1734 3360 1722 3123 1722 
L 2554 1722 
L 2554 1837 
C 2554 2048 2560 2138 2586 2336 
L 2170 2336 
C 2202 2144 2208 2029 2208 1837 
L 2208 1722 
L 1286 1722 
L 1638 2586 
L 3334 2586 
C 3578 2586 3706 2579 3872 2547 
L 3872 2963 
C 3750 2931 3680 2925 3328 2925 
L 1754 2925 
C 1760 2931 1805 3040 1901 3258 
C 1920 3302 1933 3322 1952 3360 
L 1517 3475 
C 1485 3277 1459 3187 1370 2925 
L 870 2925 
C 627 2925 486 2938 333 2976 
L 333 2534 
C 506 2573 672 2586 864 2586 
L 1229 2586 
z
" transform="scale(0.015625)"/>
       </defs>
       <use xlink:href="#HiraginoSansGB-W3-5b58"/>
       <use xlink:href="#HiraginoSansGB-W3-50a8" x="99.999985"/>
       <use xlink:href="#HiraginoSansGB-W3-6302" x="199.999969"/>
       <use xlink:href="#HiraginoSansGB-W3-8f7d" x="299.999954"/>
      </g>
     </g>
    </g>
   </g>
   <g id="matplotlib.axis_2">
    <g id="ytick_1">
     <g id="line2d_15">
      <path d="M 42.244297 205.344 
L 460.744297 205.344 
" clip-path="url(#pbe9ce29397)" style="fill: none; stroke: #e5e7eb; stroke-opacity: 0.7; stroke-width: 0.6; stroke-linecap: square"/>
     </g>
     <g id="line2d_16">
      <defs>
       <path id="m63931a014e" d="M 0 0 
L -3.5 0 
" style="stroke: #374151; stroke-width: 0.6"/>
      </defs>
      <g>
       <use xlink:href="#m63931a014e" x="42.244297" y="205.344" style="fill: #374151; stroke: #374151; stroke-width: 0.6"/>
      </g>
     </g>
     <g id="text_8">
      <!-- 60 -->
      <g style="fill: #374151" transform="translate(24.074766 208.599234) scale(0.085 -0.085)">
       <defs>
        <path id="HiraginoSansGB-W3-36" d="M 3725 4006 
C 3539 4390 3411 4563 3187 4723 
C 2944 4896 2598 4992 2214 4992 
C 1658 4992 1203 4755 864 4294 
C 557 3878 378 3162 378 2362 
C 378 1453 608 736 1024 352 
C 1299 96 1728 -51 2182 -51 
C 3194 -51 3859 602 3859 1594 
C 3859 2579 3245 3194 2253 3194 
C 1811 3194 1472 3072 1171 2803 
C 1030 2682 966 2592 851 2394 
C 896 3091 954 3386 1120 3770 
C 1350 4294 1728 4563 2227 4563 
C 2547 4563 2797 4454 2989 4243 
C 3085 4134 3130 4045 3213 3840 
L 3725 4006 
z
M 3354 1581 
C 3354 1331 3290 1069 3187 902 
C 2989 582 2605 384 2189 384 
C 1498 384 979 896 979 1587 
C 979 1907 1088 2189 1299 2400 
C 1523 2624 1862 2765 2182 2765 
C 2931 2765 3354 2336 3354 1581 
z
" transform="scale(0.015625)"/>
        <path id="HiraginoSansGB-W3-30" d="M 2099 -58 
C 2688 -58 3136 166 3456 614 
C 3738 1005 3904 1690 3904 2464 
C 3904 2995 3821 3507 3661 3949 
C 3584 4160 3456 4358 3277 4538 
C 2989 4838 2579 4992 2106 4992 
C 1472 4992 979 4723 672 4205 
C 448 3834 301 3142 301 2464 
C 301 1939 384 1434 544 986 
C 621 768 755 570 928 397 
C 1229 96 1626 -58 2099 -58 
z
M 2099 4550 
C 2547 4550 2893 4352 3104 3968 
C 3270 3667 3392 3034 3392 2477 
C 3392 2003 3328 1581 3194 1184 
C 3136 998 3034 832 2893 685 
C 2701 486 2426 384 2106 384 
C 1670 384 1338 570 1114 941 
C 941 1242 813 1869 813 2464 
C 813 2931 877 3366 1011 3757 
C 1062 3917 1165 4077 1299 4224 
C 1504 4442 1766 4550 2099 4550 
z
" transform="scale(0.015625)"/>
       </defs>
       <use xlink:href="#HiraginoSansGB-W3-36"/>
       <use xlink:href="#HiraginoSansGB-W3-30" x="65.699997"/>
      </g>
     </g>
    </g>
    <g id="ytick_2">
     <g id="line2d_17">
      <path d="M 42.244297 181.584 
L 460.744297 181.584 
" clip-path="url(#pbe9ce29397)" style="fill: none; stroke: #e5e7eb; stroke-opacity: 0.7; stroke-width: 0.6; stroke-linecap: square"/>
     </g>
     <g id="line2d_18">
      <g>
       <use xlink:href="#m63931a014e" x="42.244297" y="181.584" style="fill: #374151; stroke: #374151; stroke-width: 0.6"/>
      </g>
     </g>
     <g id="text_9">
      <!-- 65 -->
      <g style="fill: #374151" transform="translate(24.074766 184.839234) scale(0.085 -0.085)">
       <defs>
        <path id="HiraginoSansGB-W3-35" d="M 1261 4461 
L 2765 4461 
C 3066 4461 3270 4448 3514 4410 
L 3514 4954 
C 3258 4915 3110 4902 2765 4902 
L 1446 4902 
C 1069 4902 966 4909 768 4934 
C 781 4774 781 4749 781 4659 
C 781 4538 774 4461 762 4275 
L 621 2829 
C 595 2554 576 2419 525 2170 
L 1005 2125 
C 1075 2298 1146 2387 1299 2509 
C 1530 2688 1811 2778 2138 2778 
C 2816 2778 3258 2317 3258 1613 
C 3258 877 2778 390 2061 390 
C 1690 390 1370 525 1152 768 
C 1056 877 1011 960 947 1139 
L 422 986 
C 576 678 666 544 826 384 
C 1133 96 1549 -51 2048 -51 
C 3104 -51 3776 608 3776 1638 
C 3776 2112 3635 2490 3347 2765 
C 3059 3046 2662 3200 2195 3200 
C 1754 3200 1382 3053 1075 2758 
C 1114 2931 1114 2931 1126 3046 
L 1261 4461 
z
" transform="scale(0.015625)"/>
       </defs>
       <use xlink:href="#HiraginoSansGB-W3-36"/>
       <use xlink:href="#HiraginoSansGB-W3-35" x="65.699997"/>
      </g>
     </g>
    </g>
    <g id="ytick_3">
     <g id="line2d_19">
      <path d="M 42.244297 157.824 
L 460.744297 157.824 
" clip-path="url(#pbe9ce29397)" style="fill: none; stroke: #e5e7eb; stroke-opacity: 0.7; stroke-width: 0.6; stroke-linecap: square"/>
     </g>
     <g id="line2d_20">
      <g>
       <use xlink:href="#m63931a014e" x="42.244297" y="157.824" style="fill: #374151; stroke: #374151; stroke-width: 0.6"/>
      </g>
     </g>
     <g id="text_10">
      <!-- 70 -->
      <g style="fill: #374151" transform="translate(24.074766 161.079234) scale(0.085 -0.085)">
       <defs>
        <path id="HiraginoSansGB-W3-37" d="M 3789 4934 
C 3565 4909 3424 4902 3046 4902 
L 1126 4902 
C 819 4902 646 4915 397 4947 
L 397 4403 
C 640 4435 819 4448 1120 4448 
L 3200 4448 
C 2630 3674 2355 3232 2048 2592 
C 1651 1773 1478 1197 1274 38 
L 1882 38 
C 1984 781 2054 1107 2221 1638 
C 2470 2419 2739 2963 3315 3853 
C 3565 4237 3674 4378 3789 4467 
L 3789 4934 
z
" transform="scale(0.015625)"/>
       </defs>
       <use xlink:href="#HiraginoSansGB-W3-37"/>
       <use xlink:href="#HiraginoSansGB-W3-30" x="65.699997"/>
      </g>
     </g>
    </g>
    <g id="ytick_4">
     <g id="line2d_21">
      <path d="M 42.244297 134.064 
L 460.744297 134.064 
" clip-path="url(#pbe9ce29397)" style="fill: none; stroke: #e5e7eb; stroke-opacity: 0.7; stroke-width: 0.6; stroke-linecap: square"/>
     </g>
     <g id="line2d_22">
      <g>
       <use xlink:href="#m63931a014e" x="42.244297" y="134.064" style="fill: #374151; stroke: #374151; stroke-width: 0.6"/>
      </g>
     </g>
     <g id="text_11">
      <!-- 75 -->
      <g style="fill: #374151" transform="translate(24.074766 137.319234) scale(0.085 -0.085)">
       <use xlink:href="#HiraginoSansGB-W3-37"/>
       <use xlink:href="#HiraginoSansGB-W3-35" x="65.699997"/>
      </g>
     </g>
    </g>
    <g id="ytick_5">
     <g id="line2d_23">
      <path d="M 42.244297 110.304 
L 460.744297 110.304 
" clip-path="url(#pbe9ce29397)" style="fill: none; stroke: #e5e7eb; stroke-opacity: 0.7; stroke-width: 0.6; stroke-linecap: square"/>
     </g>
     <g id="line2d_24">
      <g>
       <use xlink:href="#m63931a014e" x="42.244297" y="110.304" style="fill: #374151; stroke: #374151; stroke-width: 0.6"/>
      </g>
     </g>
     <g id="text_12">
      <!-- 80 -->
      <g style="fill: #374151" transform="translate(24.074766 113.559234) scale(0.085 -0.085)">
       <defs>
        <path id="HiraginoSansGB-W3-38" d="M 2752 2586 
C 3322 2694 3680 3142 3680 3738 
C 3680 4525 3078 5005 2099 5005 
C 1133 5005 525 4512 525 3738 
C 525 3142 890 2688 1453 2586 
C 1216 2547 1075 2496 877 2368 
C 493 2118 307 1766 307 1306 
C 307 422 954 -64 2125 -64 
C 3251 -64 3891 429 3891 1306 
C 3891 1734 3731 2074 3411 2310 
C 3200 2470 3021 2547 2752 2586 
z
M 2099 4576 
C 2758 4576 3181 4237 3181 3699 
C 3181 3130 2778 2784 2106 2784 
C 1434 2784 1024 3130 1024 3699 
C 1024 4230 1446 4576 2099 4576 
z
M 2099 2342 
C 2886 2342 3366 1965 3366 1338 
C 3366 1075 3283 851 3123 704 
C 2906 486 2541 371 2093 371 
C 1299 371 832 730 832 1338 
C 832 1958 1312 2342 2099 2342 
z
" transform="scale(0.015625)"/>
       </defs>
       <use xlink:href="#HiraginoSansGB-W3-38"/>
       <use xlink:href="#HiraginoSansGB-W3-30" x="65.699997"/>
      </g>
     </g>
    </g>
    <g id="ytick_6">
     <g id="line2d_25">
      <path d="M 42.244297 86.544 
L 460.744297 86.544 
" clip-path="url(#pbe9ce29397)" style="fill: none; stroke: #e5e7eb; stroke-opacity: 0.7; stroke-width: 0.6; stroke-linecap: square"/>
     </g>
     <g id="line2d_26">
      <g>
       <use xlink:href="#m63931a014e" x="42.244297" y="86.544" style="fill: #374151; stroke: #374151; stroke-width: 0.6"/>
      </g>
     </g>
     <g id="text_13">
      <!-- 85 -->
      <g style="fill: #374151" transform="translate(24.074766 89.799234) scale(0.085 -0.085)">
       <use xlink:href="#HiraginoSansGB-W3-38"/>
       <use xlink:href="#HiraginoSansGB-W3-35" x="65.699997"/>
      </g>
     </g>
    </g>
    <g id="ytick_7">
     <g id="line2d_27">
      <path d="M 42.244297 62.784 
L 460.744297 62.784 
" clip-path="url(#pbe9ce29397)" style="fill: none; stroke: #e5e7eb; stroke-opacity: 0.7; stroke-width: 0.6; stroke-linecap: square"/>
     </g>
     <g id="line2d_28">
      <g>
       <use xlink:href="#m63931a014e" x="42.244297" y="62.784" style="fill: #374151; stroke: #374151; stroke-width: 0.6"/>
      </g>
     </g>
     <g id="text_14">
      <!-- 90 -->
      <g style="fill: #374151" transform="translate(24.074766 66.039234) scale(0.085 -0.085)">
       <defs>
        <path id="HiraginoSansGB-W3-39" d="M 416 934 
C 582 595 685 448 864 301 
C 1139 70 1498 -45 1939 -45 
C 2528 -45 2950 147 3270 550 
C 3616 979 3802 1702 3802 2592 
C 3802 3142 3744 3578 3616 3923 
C 3373 4589 2784 4998 2067 4998 
C 1018 4998 333 4333 333 3315 
C 333 2861 493 2438 768 2163 
C 1043 1888 1446 1741 1920 1741 
C 2400 1741 2758 1882 3085 2189 
C 3200 2310 3251 2374 3341 2547 
C 3328 2221 3309 1958 3283 1798 
C 3232 1498 3130 1184 3008 979 
C 2771 576 2438 390 1978 390 
C 1626 390 1350 493 1171 691 
C 1069 800 1018 890 941 1101 
L 416 934 
z
M 1978 2170 
C 1280 2170 838 2624 838 3347 
C 838 3597 902 3853 1005 4019 
C 1216 4358 1600 4563 2022 4563 
C 2707 4563 3219 4045 3219 3354 
C 3219 2675 2688 2170 1978 2170 
z
" transform="scale(0.015625)"/>
       </defs>
       <use xlink:href="#HiraginoSansGB-W3-39"/>
       <use xlink:href="#HiraginoSansGB-W3-30" x="65.699997"/>
      </g>
     </g>
    </g>
    <g id="ytick_8">
     <g id="line2d_29">
      <path d="M 42.244297 39.024 
L 460.744297 39.024 
" clip-path="url(#pbe9ce29397)" style="fill: none; stroke: #e5e7eb; stroke-opacity: 0.7; stroke-width: 0.6; stroke-linecap: square"/>
     </g>
     <g id="line2d_30">
      <g>
       <use xlink:href="#m63931a014e" x="42.244297" y="39.024" style="fill: #374151; stroke: #374151; stroke-width: 0.6"/>
      </g>
     </g>
     <g id="text_15">
      <!-- 95 -->
      <g style="fill: #374151" transform="translate(24.074766 42.279234) scale(0.085 -0.085)">
       <use xlink:href="#HiraginoSansGB-W3-39"/>
       <use xlink:href="#HiraginoSansGB-W3-35" x="65.699997"/>
      </g>
     </g>
    </g>
    <g id="ytick_9">
     <g id="line2d_31">
      <path d="M 42.244297 15.264 
L 460.744297 15.264 
" clip-path="url(#pbe9ce29397)" style="fill: none; stroke: #e5e7eb; stroke-opacity: 0.7; stroke-width: 0.6; stroke-linecap: square"/>
     </g>
     <g id="line2d_32">
      <g>
       <use xlink:href="#m63931a014e" x="42.244297" y="15.264" style="fill: #374151; stroke: #374151; stroke-width: 0.6"/>
      </g>
     </g>
     <g id="text_16">
      <!-- 100 -->
      <g style="fill: #374151" transform="translate(18.49 18.519234) scale(0.085 -0.085)">
       <defs>
        <path id="HiraginoSansGB-W3-31" d="M 1030 4429 
C 1216 4454 1382 4467 1587 4467 
L 1933 4467 
L 1933 762 
C 1933 467 1920 262 1882 38 
L 2490 38 
C 2451 275 2438 461 2438 762 
L 2438 3872 
C 2438 4218 2458 4544 2496 4934 
C 2285 4909 2182 4902 1965 4902 
L 1562 4902 
C 1318 4902 1197 4909 1030 4934 
L 1030 4429 
z
" transform="scale(0.015625)"/>
       </defs>
       <use xlink:href="#HiraginoSansGB-W3-31"/>
       <use xlink:href="#HiraginoSansGB-W3-30" x="65.699997"/>
       <use xlink:href="#HiraginoSansGB-W3-30" x="131.399994"/>
      </g>
     </g>
    </g>
    <g id="text_17">
     <!-- 归一化加权得分（百分制） -->
     <g style="fill: #1f2937" transform="translate(12.653438 159.552) rotate(-90) scale(0.09 -0.09)">
      <defs>
       <path id="HiraginoSansGB-W3-5f52" d="M 5408 -384 
L 5856 -384 
C 5830 -186 5824 -83 5824 205 
L 5824 4237 
C 5824 4461 5830 4646 5843 4819 
C 5626 4806 5434 4800 5165 4800 
L 3603 4800 
C 3322 4800 3104 4806 2906 4832 
L 2906 4371 
C 3117 4397 3322 4403 3597 4403 
L 5408 4403 
L 5408 2694 
L 3776 2694 
C 3501 2694 3283 2707 3110 2726 
L 3110 2272 
C 3315 2291 3539 2304 3782 2304 
L 5408 2304 
L 5408 416 
L 3475 416 
C 3219 416 2982 422 2810 448 
L 2810 -6 
C 2995 13 3238 26 3475 26 
L 5408 26 
L 5408 -384 
z
M 493 -83 
C 685 -186 774 -256 902 -403 
C 1805 352 2144 934 2259 1939 
C 2304 2278 2330 2842 2336 3354 
L 2336 4122 
L 2342 4704 
C 2342 5062 2349 5190 2368 5325 
L 1888 5325 
C 1914 5184 1920 5037 1920 4730 
C 1926 4397 1926 4115 1926 3955 
C 1926 3514 1920 3040 1914 2688 
C 1888 2029 1837 1645 1722 1331 
C 1523 781 1146 346 493 -83 
z
M 538 1203 
L 998 1203 
C 973 1370 966 1530 966 1760 
L 966 4109 
C 966 4346 973 4493 998 4627 
L 538 4627 
C 563 4480 570 4307 570 4109 
L 570 1760 
C 570 1517 563 1363 538 1203 
z
" transform="scale(0.015625)"/>
       <path id="HiraginoSansGB-W3-4e00" d="M 6016 2771 
C 5824 2739 5549 2726 5171 2726 
L 1229 2726 
C 858 2726 582 2739 378 2771 
L 378 2240 
C 582 2272 877 2285 1229 2285 
L 5171 2285 
C 5568 2285 5786 2272 6016 2240 
L 6016 2771 
z
" transform="scale(0.015625)"/>
       <path id="HiraginoSansGB-W3-5316" d="M 3514 1926 
C 3878 2157 4262 2451 4525 2694 
C 4979 3110 5306 3456 5626 3853 
C 5830 4115 5850 4134 5946 4237 
L 5523 4512 
C 5421 4301 5210 4006 4934 3680 
C 4429 3085 3994 2688 3514 2368 
L 3514 4570 
C 3514 4851 3526 5088 3552 5261 
L 3053 5261 
C 3072 5101 3091 4851 3091 4570 
L 3091 2112 
C 2541 1818 2355 1734 2029 1632 
C 2170 1498 2221 1434 2291 1286 
C 2547 1382 2611 1414 3091 1670 
L 3091 326 
C 3091 -173 3251 -250 4320 -250 
C 5293 -250 5600 -192 5760 19 
C 5894 205 5984 570 6061 1274 
C 5926 1312 5792 1370 5638 1472 
C 5587 781 5523 442 5421 301 
C 5325 179 5088 147 4352 147 
C 3603 147 3514 173 3514 403 
L 3514 1926 
z
M 1357 320 
C 1357 26 1338 -218 1312 -474 
L 1811 -474 
C 1786 -211 1773 51 1773 301 
L 1773 3654 
C 2042 4262 2227 4685 2285 4845 
C 2394 5139 2394 5139 2419 5203 
L 1946 5338 
C 1914 5088 1862 4909 1728 4570 
C 1402 3744 954 3072 282 2413 
C 371 2317 486 2163 557 2042 
C 934 2445 1178 2765 1370 3117 
C 1357 2778 1357 2694 1357 2336 
L 1357 320 
z
" transform="scale(0.015625)"/>
       <path id="HiraginoSansGB-W3-52a0" d="M 2765 3731 
C 2758 3046 2746 2688 2714 2080 
C 2675 1408 2554 570 2470 358 
C 2426 243 2342 205 2170 205 
C 1978 205 1722 243 1421 307 
C 1466 122 1478 70 1485 -115 
C 1786 -160 2061 -186 2259 -186 
C 2714 -186 2842 -38 2957 602 
C 3072 1267 3149 2272 3168 3328 
C 3174 3955 3174 3955 3200 4141 
C 3008 4122 2835 4115 2534 4115 
L 1843 4115 
C 1869 5158 1869 5158 1901 5325 
L 1414 5325 
C 1453 5146 1459 5024 1459 4634 
C 1459 4442 1459 4320 1446 4115 
L 1075 4115 
C 755 4115 525 4128 371 4160 
L 371 3686 
C 544 3718 762 3731 1043 3731 
L 1427 3731 
C 1357 2573 1190 1766 864 1069 
C 666 646 506 416 147 6 
C 288 -109 371 -198 474 -352 
C 800 58 934 262 1120 627 
C 1331 1037 1472 1421 1587 1914 
C 1722 2470 1779 2925 1830 3731 
L 2765 3731 
z
M 4154 262 
L 5478 262 
L 5478 -198 
L 5920 -198 
C 5894 -6 5882 186 5882 429 
L 5882 3872 
C 5882 4179 5888 4346 5914 4544 
C 5709 4518 5606 4512 5357 4512 
L 4282 4512 
C 4038 4512 3904 4518 3718 4544 
C 3744 4346 3750 4166 3750 3872 
L 3750 480 
C 3750 218 3738 -70 3712 -250 
L 4154 -250 
L 4154 262 
z
M 4154 4141 
L 5478 4141 
L 5478 634 
L 4154 634 
L 4154 4141 
z
" transform="scale(0.015625)"/>
       <path id="HiraginoSansGB-W3-6743" d="M 1344 4070 
L 851 4070 
C 640 4070 480 4077 378 4096 
L 378 3686 
C 506 3706 653 3712 845 3712 
L 1286 3712 
C 1056 2752 685 1946 224 1408 
C 333 1299 397 1203 467 1037 
C 896 1600 1158 2182 1376 3078 
C 1357 2707 1344 2336 1344 2054 
L 1344 243 
C 1344 -90 1331 -320 1306 -499 
L 1779 -499 
C 1754 -314 1741 -115 1741 243 
L 1741 2918 
C 1971 2592 2118 2342 2330 1926 
L 2637 2189 
C 2317 2682 2195 2842 1741 3386 
L 1741 3712 
L 2099 3712 
C 2246 3712 2400 3706 2534 3693 
L 2534 4096 
C 2419 4077 2285 4070 2106 4070 
L 1741 4070 
L 1741 4691 
C 1741 5005 1754 5197 1773 5350 
L 1312 5350 
C 1338 5203 1344 5056 1344 4685 
L 1344 4070 
z
M 3014 4870 
C 2784 4870 2637 4877 2458 4902 
L 2458 4467 
C 2611 4486 2758 4499 2938 4499 
C 3002 3878 3098 3392 3245 2931 
C 3430 2362 3712 1798 4051 1312 
C 3584 768 3027 358 2176 -77 
C 2304 -198 2368 -282 2464 -454 
C 3296 13 3853 448 4307 979 
C 4762 422 5229 26 5958 -422 
C 6035 -250 6106 -147 6221 -13 
C 5549 320 5056 710 4563 1299 
C 5203 2202 5594 3219 5830 4621 
C 5862 4826 5862 4826 5882 4896 
C 5728 4877 5574 4870 5382 4870 
L 3014 4870 
z
M 5389 4499 
C 5235 3661 5062 3098 4781 2483 
C 4640 2170 4480 1888 4307 1645 
C 3962 2163 3782 2541 3603 3091 
C 3462 3539 3392 3910 3328 4499 
L 5389 4499 
z
" transform="scale(0.015625)"/>
       <path id="HiraginoSansGB-W3-5f97" d="M 5114 2285 
L 5267 2285 
C 5498 2285 5677 2278 5856 2253 
L 5856 2669 
C 5702 2643 5530 2630 5261 2630 
L 2547 2630 
C 2259 2630 2112 2637 1952 2662 
L 1952 2253 
C 2125 2278 2310 2285 2541 2285 
L 4717 2285 
L 4717 1760 
L 2406 1760 
C 2150 1760 1984 1773 1818 1798 
L 1818 1382 
C 2003 1408 2170 1414 2406 1414 
L 4717 1414 
L 4717 154 
C 4717 19 4672 -6 4429 -6 
C 4250 -6 3994 26 3680 77 
C 3744 -77 3763 -166 3782 -352 
C 4032 -371 4218 -378 4416 -378 
C 4736 -378 4877 -352 4966 -294 
C 5069 -218 5114 -102 5114 83 
L 5114 1414 
L 5357 1414 
C 5600 1414 5766 1408 5946 1382 
L 5946 1798 
C 5779 1773 5613 1760 5350 1760 
L 5114 1760 
L 5114 2285 
z
M 1613 5344 
C 1382 4832 896 4320 288 3942 
C 410 3840 480 3763 557 3642 
C 922 3891 1184 4128 1485 4474 
C 1632 4646 1632 4646 1971 5107 
L 1613 5344 
z
M 4922 3091 
C 5178 3091 5363 3085 5517 3066 
C 5498 3219 5491 3373 5491 3661 
L 5491 4486 
C 5491 4768 5498 4928 5517 5082 
C 5370 5062 5203 5056 4902 5056 
L 3098 5056 
C 2797 5056 2637 5062 2477 5082 
C 2490 4922 2496 4813 2496 4499 
L 2496 3667 
C 2496 3347 2490 3226 2477 3066 
C 2618 3085 2803 3091 3078 3091 
L 4922 3091 
z
M 2880 4730 
L 5101 4730 
L 5101 4250 
L 2880 4250 
L 2880 4730 
z
M 2880 3923 
L 5101 3923 
L 5101 3411 
L 2880 3411 
L 2880 3923 
z
M 3750 371 
C 3424 794 3251 986 2906 1312 
L 2598 1075 
C 2944 755 3142 518 3418 83 
L 3750 371 
z
M 1069 237 
C 1069 -83 1056 -282 1030 -467 
L 1517 -467 
C 1485 -262 1478 -90 1478 250 
L 1478 2938 
C 1651 3168 1754 3315 1792 3373 
C 1862 3488 1914 3571 1939 3610 
C 2003 3712 2003 3712 2035 3757 
L 1664 3994 
C 1587 3789 1510 3635 1382 3443 
C 1056 2950 666 2554 186 2221 
C 288 2118 346 2035 429 1875 
C 730 2106 902 2278 1088 2534 
C 1075 2246 1069 2048 1069 1792 
L 1069 237 
z
" transform="scale(0.015625)"/>
       <path id="HiraginoSansGB-W3-ff08" d="M 6157 -518 
C 5619 26 5408 314 5184 806 
C 4954 1318 4838 1850 4838 2432 
C 4838 3014 4954 3546 5184 4058 
C 5408 4550 5619 4838 6157 5382 
L 5587 5382 
C 5107 4832 4909 4525 4698 4006 
C 4486 3494 4390 2989 4390 2432 
C 4390 1875 4486 1370 4698 858 
C 4909 339 5107 32 5587 -518 
L 6157 -518 
z
" transform="scale(0.015625)"/>
       <path id="HiraginoSansGB-W3-767e" d="M 5331 4685 
C 5594 4685 5818 4672 6010 4646 
L 6010 5101 
C 5824 5075 5613 5062 5331 5062 
L 1069 5062 
C 781 5062 589 5075 390 5101 
L 390 4646 
C 595 4672 800 4685 1069 4685 
L 3002 4685 
C 2893 4275 2797 4006 2643 3661 
L 1664 3661 
C 1434 3661 1254 3674 1069 3693 
C 1088 3514 1101 3328 1101 3123 
L 1101 147 
C 1101 -83 1088 -262 1062 -480 
L 1523 -480 
L 1523 -77 
L 4896 -77 
L 4896 -480 
L 5363 -480 
C 5338 -269 5325 -70 5325 147 
L 5325 3117 
C 5325 3334 5338 3520 5357 3693 
C 5165 3674 4979 3661 4736 3661 
L 3078 3661 
C 3226 4000 3328 4288 3443 4685 
L 5331 4685 
z
M 1523 3296 
L 4896 3296 
L 4896 2067 
L 1523 2067 
L 1523 3296 
z
M 1523 1696 
L 4896 1696 
L 4896 294 
L 1523 294 
L 1523 1696 
z
" transform="scale(0.015625)"/>
       <path id="HiraginoSansGB-W3-5236" d="M 1888 4403 
L 1210 4403 
C 1242 4493 1293 4646 1331 4774 
C 1370 4909 1408 5030 1440 5107 
L 1024 5210 
C 1018 5114 998 5005 954 4851 
C 826 4365 666 4038 371 3622 
C 512 3571 608 3520 730 3437 
C 870 3661 986 3866 1062 4045 
L 1888 4045 
L 1888 3290 
L 966 3290 
C 704 3290 550 3296 378 3328 
L 378 2893 
C 550 2918 717 2931 986 2931 
L 1888 2931 
L 1888 2234 
L 1210 2234 
C 979 2234 800 2240 602 2266 
C 621 2093 627 1914 627 1670 
L 627 659 
C 627 275 621 166 595 0 
L 1037 0 
C 1018 179 1011 358 1011 666 
L 1011 1875 
L 1888 1875 
L 1888 243 
C 1888 -58 1875 -269 1850 -480 
L 2310 -480 
C 2285 -288 2278 -115 2278 243 
L 2278 1875 
L 3149 1875 
L 3149 499 
C 3149 403 3110 390 2880 390 
C 2733 390 2605 403 2470 422 
C 2509 301 2528 192 2534 38 
C 2726 26 2803 26 2886 26 
C 3398 26 3526 102 3526 410 
L 3526 1677 
C 3526 1939 3533 2093 3552 2266 
C 3366 2240 3187 2234 2957 2234 
L 2278 2234 
L 2278 2931 
L 3168 2931 
C 3475 2931 3629 2925 3776 2899 
L 3776 3322 
C 3610 3296 3430 3290 3174 3290 
L 2278 3290 
L 2278 4045 
L 2931 4045 
C 3238 4045 3398 4038 3558 4013 
L 3558 4435 
C 3411 4410 3251 4403 2931 4403 
L 2278 4403 
L 2278 4659 
C 2278 4998 2285 5133 2317 5306 
L 1850 5306 
C 1882 5133 1888 4979 1888 4653 
L 1888 4403 
z
M 4070 4928 
C 4102 4749 4109 4576 4109 4224 
L 4109 1722 
C 4109 1306 4102 1178 4077 1005 
L 4544 1005 
C 4518 1171 4512 1299 4512 1722 
L 4512 4230 
C 4512 4589 4518 4755 4550 4928 
L 4070 4928 
z
M 5376 5286 
C 5408 5088 5421 4883 5421 4506 
L 5421 179 
C 5421 19 5376 -13 5114 -13 
C 4896 -13 4634 6 4307 51 
C 4378 -90 4403 -186 4429 -358 
C 4768 -384 4928 -390 5120 -390 
C 5690 -390 5824 -282 5824 186 
L 5824 4512 
C 5824 4883 5837 5101 5869 5286 
L 5376 5286 
z
" transform="scale(0.015625)"/>
       <path id="HiraginoSansGB-W3-ff09" d="M 813 -518 
C 1293 32 1491 339 1702 858 
C 1914 1370 2010 1875 2010 2432 
C 2010 2989 1914 3494 1702 4006 
C 1491 4525 1293 4832 813 5382 
L 243 5382 
C 781 4845 992 4550 1216 4058 
C 1446 3546 1562 3014 1562 2432 
C 1562 1850 1446 1318 1216 806 
C 992 314 781 19 243 -518 
L 813 -518 
z
" transform="scale(0.015625)"/>
      </defs>
      <use xlink:href="#HiraginoSansGB-W3-5f52"/>
      <use xlink:href="#HiraginoSansGB-W3-4e00" x="99.999985"/>
      <use xlink:href="#HiraginoSansGB-W3-5316" x="199.999969"/>
      <use xlink:href="#HiraginoSansGB-W3-52a0" x="299.999954"/>
      <use xlink:href="#HiraginoSansGB-W3-6743" x="399.999939"/>
      <use xlink:href="#HiraginoSansGB-W3-5f97" x="499.999924"/>
      <use xlink:href="#HiraginoSansGB-W3-5206" x="599.999908"/>
      <use xlink:href="#HiraginoSansGB-W3-ff08" x="699.999893"/>
      <use xlink:href="#HiraginoSansGB-W3-767e" x="799.999878"/>
      <use xlink:href="#HiraginoSansGB-W3-5206" x="899.999863"/>
      <use xlink:href="#HiraginoSansGB-W3-5236" x="999.999847"/>
      <use xlink:href="#HiraginoSansGB-W3-ff09" x="1099.999832"/>
     </g>
    </g>
   </g>
   <g id="patch_3">
    <path d="M 61.267024 490.464 
L 76.351125 490.464 
L 76.351125 32.936371 
L 61.267024 32.936371 
z
" clip-path="url(#pbe9ce29397)" style="fill: #264653; stroke: #ffffff; stroke-width: 0.4; stroke-linejoin: miter"/>
   </g>
   <g id="patch_4">
    <path d="M 117.134065 490.464 
L 132.218166 490.464 
L 132.218166 79.709832 
L 117.134065 79.709832 
z
" clip-path="url(#pbe9ce29397)" style="fill: #264653; stroke: #ffffff; stroke-width: 0.4; stroke-linejoin: miter"/>
   </g>
   <g id="patch_5">
    <path d="M 173.001105 490.464 
L 188.085206 490.464 
L 188.085206 38.305973 
L 173.001105 38.305973 
z
" clip-path="url(#pbe9ce29397)" style="fill: #264653; stroke: #ffffff; stroke-width: 0.4; stroke-linejoin: miter"/>
   </g>
   <g id="patch_6">
    <path d="M 228.868145 490.464 
L 243.952246 490.464 
L 243.952246 54.3492 
L 228.868145 54.3492 
z
" clip-path="url(#pbe9ce29397)" style="fill: #264653; stroke: #ffffff; stroke-width: 0.4; stroke-linejoin: miter"/>
   </g>
   <g id="patch_7">
    <path d="M 284.735186 490.464 
L 299.819287 490.464 
L 299.819287 86.589302 
L 284.735186 86.589302 
z
" clip-path="url(#pbe9ce29397)" style="fill: #264653; stroke: #ffffff; stroke-width: 0.4; stroke-linejoin: miter"/>
   </g>
   <g id="patch_8">
    <path d="M 340.602226 490.464 
L 355.686327 490.464 
L 355.686327 67.397242 
L 340.602226 67.397242 
z
" clip-path="url(#pbe9ce29397)" style="fill: #264653; stroke: #ffffff; stroke-width: 0.4; stroke-linejoin: miter"/>
   </g>
   <g id="patch_9">
    <path d="M 396.469267 490.464 
L 411.553368 490.464 
L 411.553368 116.600875 
L 396.469267 116.600875 
z
" clip-path="url(#pbe9ce29397)" style="fill: #264653; stroke: #ffffff; stroke-width: 0.4; stroke-linejoin: miter"/>
   </g>
   <g id="patch_10">
    <path d="M 76.351125 490.464 
L 91.435226 490.464 
L 91.435226 120.896525 
L 76.351125 120.896525 
z
" clip-path="url(#pbe9ce29397)" style="fill: #2a9d8f; stroke: #ffffff; stroke-width: 0.4; stroke-linejoin: miter"/>
   </g>
   <g id="patch_11">
    <path d="M 132.218166 490.464 
L 147.302266 490.464 
L 147.302266 87.691212 
L 132.218166 87.691212 
z
" clip-path="url(#pbe9ce29397)" style="fill: #2a9d8f; stroke: #ffffff; stroke-width: 0.4; stroke-linejoin: miter"/>
   </g>
   <g id="patch_12">
    <path d="M 188.085206 490.464 
L 203.169307 490.464 
L 203.169307 38.433326 
L 188.085206 38.433326 
z
" clip-path="url(#pbe9ce29397)" style="fill: #2a9d8f; stroke: #ffffff; stroke-width: 0.4; stroke-linejoin: miter"/>
   </g>
   <g id="patch_13">
    <path d="M 243.952246 490.464 
L 259.036347 490.464 
L 259.036347 44.121312 
L 243.952246 44.121312 
z
" clip-path="url(#pbe9ce29397)" style="fill: #2a9d8f; stroke: #ffffff; stroke-width: 0.4; stroke-linejoin: miter"/>
   </g>
   <g id="patch_14">
    <path d="M 299.819287 490.464 
L 314.903388 490.464 
L 314.903388 86.81233 
L 299.819287 86.81233 
z
" clip-path="url(#pbe9ce29397)" style="fill: #2a9d8f; stroke: #ffffff; stroke-width: 0.4; stroke-linejoin: miter"/>
   </g>
   <g id="patch_15">
    <path d="M 355.686327 490.464 
L 370.770428 490.464 
L 370.770428 36.83903 
L 355.686327 36.83903 
z
" clip-path="url(#pbe9ce29397)" style="fill: #2a9d8f; stroke: #ffffff; stroke-width: 0.4; stroke-linejoin: miter"/>
   </g>
   <g id="patch_16">
    <path d="M 411.553368 490.464 
L 426.637469 490.464 
L 426.637469 23.432213 
L 411.553368 23.432213 
z
" clip-path="url(#pbe9ce29397)" style="fill: #2a9d8f; stroke: #ffffff; stroke-width: 0.4; stroke-linejoin: miter"/>
   </g>
   <g id="patch_17">
    <path d="M 91.435226 490.464 
L 106.519327 490.464 
L 106.519327 72.380506 
L 91.435226 72.380506 
z
" clip-path="url(#pbe9ce29397)" style="fill: #9c89b8; stroke: #ffffff; stroke-width: 0.4; stroke-linejoin: miter"/>
   </g>
   <g id="patch_18">
    <path d="M 147.302266 490.464 
L 162.386367 490.464 
L 162.386367 156.0915 
L 147.302266 156.0915 
z
" clip-path="url(#pbe9ce29397)" style="fill: #9c89b8; stroke: #ffffff; stroke-width: 0.4; stroke-linejoin: miter"/>
   </g>
   <g id="patch_19">
    <path d="M 203.169307 490.464 
L 218.253408 490.464 
L 218.253408 42.913037 
L 203.169307 42.913037 
z
" clip-path="url(#pbe9ce29397)" style="fill: #9c89b8; stroke: #ffffff; stroke-width: 0.4; stroke-linejoin: miter"/>
   </g>
   <g id="patch_20">
    <path d="M 259.036347 490.464 
L 274.120448 490.464 
L 274.120448 70.568093 
L 259.036347 70.568093 
z
" clip-path="url(#pbe9ce29397)" style="fill: #9c89b8; stroke: #ffffff; stroke-width: 0.4; stroke-linejoin: miter"/>
   </g>
   <g id="patch_21">
    <path d="M 314.903388 490.464 
L 329.987489 490.464 
L 329.987489 63.845597 
L 314.903388 63.845597 
z
" clip-path="url(#pbe9ce29397)" style="fill: #9c89b8; stroke: #ffffff; stroke-width: 0.4; stroke-linejoin: miter"/>
   </g>
   <g id="patch_22">
    <path d="M 370.770428 490.464 
L 385.854529 490.464 
L 385.854529 47.454682 
L 370.770428 47.454682 
z
" clip-path="url(#pbe9ce29397)" style="fill: #9c89b8; stroke: #ffffff; stroke-width: 0.4; stroke-linejoin: miter"/>
   </g>
   <g id="patch_23">
    <path d="M 426.637469 490.464 
L 441.72157 490.464 
L 441.72157 26.373701 
L 426.637469 26.373701 
z
" clip-path="url(#pbe9ce29397)" style="fill: #9c89b8; stroke: #ffffff; stroke-width: 0.4; stroke-linejoin: miter"/>
   </g>
   <g id="patch_24">
    <path d="M 42.244297 205.344 
L 42.244297 5.76 
" style="fill: none; stroke: #374151; stroke-width: 0.8; stroke-linejoin: miter; stroke-linecap: square"/>
   </g>
   <g id="patch_25">
    <path d="M 42.244297 205.344 
L 460.744297 205.344 
" style="fill: none; stroke: #374151; stroke-width: 0.8; stroke-linejoin: miter; stroke-linecap: square"/>
   </g>
   <g id="legend_1">
    <g id="patch_26">
     <path d="M 215.624219 195.959469 
L 232.624219 195.959469 
L 232.624219 190.009469 
L 215.624219 190.009469 
z
" style="fill: #264653; stroke: #ffffff; stroke-width: 0.4; stroke-linejoin: miter"/>
    </g>
    <g id="text_18">
     <!-- MOPS (本文) -->
     <g transform="translate(239.424219 195.959469) scale(0.085 -0.085)">
      <defs>
       <path id="HiraginoSansGB-W3-50" d="M 1094 38 
C 1056 256 1043 454 1043 762 
L 1043 2022 
L 2470 2022 
C 3469 2022 4045 2566 4045 3507 
C 4045 4397 3488 4902 2502 4902 
L 1197 4902 
C 902 4902 723 4909 493 4922 
C 531 4653 544 4454 544 4192 
L 544 755 
C 544 454 531 269 493 38 
L 1094 38 
z
M 1043 2464 
L 1043 4461 
L 2470 4461 
C 3162 4461 3533 4122 3533 3482 
C 3533 2829 3149 2464 2470 2464 
L 1043 2464 
z
" transform="scale(0.015625)"/>
       <path id="HiraginoSansGB-W3-53" d="M 3840 3718 
C 3770 4045 3706 4205 3558 4397 
C 3270 4781 2778 4986 2144 4986 
C 1152 4986 506 4467 506 3661 
C 506 3213 704 2874 1101 2650 
C 1318 2528 1568 2438 1971 2355 
C 2746 2182 2816 2163 3027 2042 
C 3270 1907 3398 1670 3398 1357 
C 3398 762 2938 403 2176 403 
C 1702 403 1318 563 1107 845 
C 973 1018 928 1171 909 1478 
L 352 1408 
C 416 986 486 787 653 563 
C 947 166 1478 -45 2195 -45 
C 3296 -45 3917 467 3917 1370 
C 3917 2112 3507 2502 2483 2720 
C 1747 2880 1741 2880 1568 2950 
C 1190 3104 1011 3341 1011 3674 
C 1011 4192 1472 4544 2131 4544 
C 2547 4544 2874 4416 3078 4173 
C 3200 4026 3251 3898 3302 3642 
L 3840 3718 
z
" transform="scale(0.015625)"/>
       <path id="HiraginoSansGB-W3-28" d="M 2093 -762 
C 1734 -211 1594 77 1453 531 
C 1306 992 1235 1478 1235 1984 
C 1235 2490 1306 2970 1453 3430 
C 1594 3885 1734 4173 2093 4723 
L 1690 4979 
C 1318 4410 1165 4102 1011 3648 
C 838 3130 749 2579 749 1984 
C 749 1389 838 838 1011 320 
C 1165 -141 1318 -448 1690 -1018 
L 2093 -762 
z
" transform="scale(0.015625)"/>
       <path id="HiraginoSansGB-W3-672c" d="M 2938 4186 
L 1146 4186 
C 864 4186 678 4198 442 4230 
L 442 3763 
C 678 3789 896 3802 1146 3802 
L 2778 3802 
C 2528 3296 2208 2829 1734 2285 
C 1248 1709 787 1318 237 986 
C 390 845 442 781 538 608 
C 1005 934 1350 1242 1754 1683 
C 2330 2310 2669 2835 2963 3533 
C 2944 3187 2938 2944 2938 2707 
L 2938 1254 
L 2310 1254 
C 1984 1254 1843 1261 1677 1286 
L 1677 838 
C 1869 870 2022 877 2323 877 
L 2938 877 
L 2938 275 
C 2938 -19 2925 -243 2893 -467 
L 3398 -467 
C 3366 -262 3354 -32 3354 269 
L 3354 877 
L 4038 877 
C 4326 877 4480 870 4672 838 
L 4672 1286 
C 4506 1261 4365 1254 4051 1254 
L 3354 1254 
L 3354 2707 
C 3354 2918 3347 3155 3328 3539 
C 3635 2848 3994 2304 4525 1741 
C 4941 1299 5338 966 5856 621 
C 5946 794 6016 890 6150 1037 
C 5574 1350 5120 1709 4634 2234 
C 4230 2662 3827 3232 3514 3802 
L 5242 3802 
C 5498 3802 5690 3789 5958 3763 
L 5958 4230 
C 5773 4198 5562 4186 5242 4186 
L 3354 4186 
L 3354 4736 
C 3354 4934 3366 5120 3398 5312 
L 2893 5312 
C 2925 5094 2938 4941 2938 4730 
L 2938 4186 
z
" transform="scale(0.015625)"/>
       <path id="HiraginoSansGB-W3-6587" d="M 1542 3853 
C 1734 3238 1875 2918 2138 2477 
C 2362 2093 2592 1779 2912 1427 
C 2176 755 1312 294 256 6 
C 378 -122 448 -218 525 -390 
C 1568 -64 2426 422 3200 1139 
C 3910 454 4755 -32 5862 -397 
C 5939 -218 6016 -102 6144 26 
C 5504 198 5146 339 4659 608 
C 4211 851 3859 1101 3494 1434 
C 3885 1850 4186 2285 4435 2803 
C 4608 3149 4640 3238 4826 3853 
L 5338 3853 
C 5690 3853 5882 3840 6061 3814 
L 6061 4269 
C 5862 4237 5645 4224 5331 4224 
L 3277 4224 
L 3552 4397 
C 3277 4864 3277 4864 2912 5363 
L 2579 5171 
C 2822 4858 2822 4858 3181 4224 
L 1075 4224 
C 774 4224 557 4237 358 4269 
L 358 3814 
C 550 3840 749 3853 1069 3853 
L 1542 3853 
z
M 4358 3853 
C 4230 3392 4173 3251 4026 2938 
C 3802 2477 3546 2093 3206 1715 
C 2931 2003 2720 2285 2509 2630 
C 2259 3040 2170 3258 1984 3853 
L 4358 3853 
z
" transform="scale(0.015625)"/>
       <path id="HiraginoSansGB-W3-29" d="M 179 4723 
C 538 4173 678 3885 819 3430 
C 966 2970 1037 2496 1037 1984 
C 1037 1472 966 992 819 531 
C 678 77 538 -211 179 -762 
L 582 -1018 
C 954 -448 1107 -141 1261 320 
C 1440 838 1523 1382 1523 1984 
C 1523 2579 1440 3130 1261 3648 
C 1107 4102 954 4410 582 4979 
L 179 4723 
z
" transform="scale(0.015625)"/>
      </defs>
      <use xlink:href="#HiraginoSansGB-W3-4d"/>
      <use xlink:href="#HiraginoSansGB-W3-4f" x="94.499985"/>
      <use xlink:href="#HiraginoSansGB-W3-50" x="173.999969"/>
      <use xlink:href="#HiraginoSansGB-W3-53" x="240.199966"/>
      <use xlink:href="#HiraginoSansGB-W3-20" x="307.09996"/>
      <use xlink:href="#HiraginoSansGB-W3-28" x="340.399948"/>
      <use xlink:href="#HiraginoSansGB-W3-672c" x="375.999939"/>
      <use xlink:href="#HiraginoSansGB-W3-6587" x="475.999924"/>
      <use xlink:href="#HiraginoSansGB-W3-29" x="575.999908"/>
     </g>
    </g>
    <g id="patch_27">
     <path d="M 308.409688 195.959469 
L 325.409688 195.959469 
L 325.409688 190.009469 
L 308.409688 190.009469 
z
" style="fill: #2a9d8f; stroke: #ffffff; stroke-width: 0.4; stroke-linejoin: miter"/>
    </g>
    <g id="text_19">
     <!-- Plan-Execute -->
     <g transform="translate(332.209688 195.959469) scale(0.085 -0.085)">
      <defs>
       <path id="HiraginoSansGB-W3-6c" d="M 454 4902 
C 486 4672 499 4499 499 4186 
L 499 755 
C 499 467 486 269 454 38 
L 1030 38 
C 998 294 986 467 986 755 
L 986 4179 
C 986 4499 998 4672 1030 4902 
L 454 4902 
z
" transform="scale(0.015625)"/>
       <path id="HiraginoSansGB-W3-2d" d="M 179 1632 
C 358 1658 506 1664 762 1664 
L 1523 1664 
C 1792 1664 1933 1658 2112 1632 
L 2112 2170 
C 1933 2144 1798 2138 1523 2138 
L 762 2138 
C 493 2138 358 2144 179 2170 
L 179 1632 
z
" transform="scale(0.015625)"/>
       <path id="HiraginoSansGB-W3-45" d="M 3789 531 
C 3552 499 3373 486 3078 486 
L 1050 486 
L 1050 2368 
L 2733 2368 
C 3066 2368 3232 2355 3450 2323 
L 3450 2861 
C 3206 2829 3014 2816 2733 2816 
L 1050 2816 
L 1050 4454 
L 3021 4454 
C 3341 4454 3514 4442 3738 4410 
L 3738 4947 
C 3520 4915 3302 4902 3021 4902 
L 1197 4902 
C 890 4902 717 4909 493 4922 
C 531 4640 544 4467 544 4192 
L 544 781 
C 544 454 531 262 493 19 
C 710 32 890 38 1197 38 
L 3072 38 
C 3411 38 3584 26 3789 -6 
L 3789 531 
z
" transform="scale(0.015625)"/>
       <path id="HiraginoSansGB-W3-78" d="M 3315 38 
C 2918 563 2918 563 2854 646 
L 2010 1824 
L 2816 2957 
C 2925 3110 3059 3283 3206 3488 
L 2592 3488 
C 2534 3360 2451 3219 2342 3059 
L 1722 2157 
L 1094 3059 
C 973 3232 909 3341 845 3488 
L 218 3488 
C 512 3098 563 3034 602 2976 
L 1427 1824 
L 538 595 
C 397 390 224 166 122 38 
L 755 38 
C 851 218 902 314 1005 454 
L 1715 1491 
L 2394 512 
C 2528 307 2592 205 2682 38 
L 3315 38 
z
" transform="scale(0.015625)"/>
       <path id="HiraginoSansGB-W3-63" d="M 3373 2579 
C 3296 2765 3238 2867 3149 2989 
C 2874 3373 2445 3578 1914 3578 
C 934 3578 294 2854 294 1747 
C 294 653 941 -45 1946 -45 
C 2464 -45 2874 141 3155 493 
C 3264 634 3328 755 3418 986 
L 2938 1114 
C 2893 960 2861 883 2797 787 
C 2630 525 2330 378 1965 378 
C 1248 378 787 915 787 1760 
C 787 2618 1235 3168 1939 3168 
C 2413 3168 2720 2931 2906 2432 
L 3373 2579 
z
" transform="scale(0.015625)"/>
       <path id="HiraginoSansGB-W3-75" d="M 2970 38 
L 3501 38 
C 3462 294 3450 474 3450 762 
L 3450 2765 
C 3450 3059 3462 3264 3494 3488 
L 2925 3488 
C 2957 3264 2970 3040 2970 2765 
L 2970 1530 
C 2912 1274 2842 1114 2675 890 
C 2419 544 2118 384 1754 384 
C 1254 384 979 704 979 1274 
L 979 2765 
C 979 3046 992 3264 1024 3488 
L 448 3488 
C 480 3283 493 3059 493 2771 
L 493 1190 
C 493 883 557 634 672 448 
C 877 141 1235 -26 1696 -26 
C 2272 -26 2669 211 2989 736 
C 2970 570 2970 525 2970 454 
L 2970 38 
z
" transform="scale(0.015625)"/>
      </defs>
      <use xlink:href="#HiraginoSansGB-W3-50"/>
      <use xlink:href="#HiraginoSansGB-W3-6c" x="66.199997"/>
      <use xlink:href="#HiraginoSansGB-W3-61" x="89.399994"/>
      <use xlink:href="#HiraginoSansGB-W3-6e" x="146.899979"/>
      <use xlink:href="#HiraginoSansGB-W3-2d" x="208.699966"/>
      <use xlink:href="#HiraginoSansGB-W3-45" x="244.499954"/>
      <use xlink:href="#HiraginoSansGB-W3-78" x="308.799942"/>
      <use xlink:href="#HiraginoSansGB-W3-65" x="362.399933"/>
      <use xlink:href="#HiraginoSansGB-W3-63" x="421.199921"/>
      <use xlink:href="#HiraginoSansGB-W3-75" x="478.999908"/>
      <use xlink:href="#HiraginoSansGB-W3-74" x="540.799896"/>
      <use xlink:href="#HiraginoSansGB-W3-65" x="579.999893"/>
     </g>
    </g>
    <g id="patch_28">
     <path d="M 403.506094 195.959469 
L 420.506094 195.959469 
L 420.506094 190.009469 
L 403.506094 190.009469 
z
" style="fill: #9c89b8; stroke: #ffffff; stroke-width: 0.4; stroke-linejoin: miter"/>
    </g>
    <g id="text_20">
     <!-- ReAct -->
     <g transform="translate(427.306094 195.959469) scale(0.085 -0.085)">
      <defs>
       <path id="HiraginoSansGB-W3-52" d="M 4410 38 
C 4320 192 4230 384 4122 634 
C 3923 1075 3770 1408 3616 1709 
C 3386 2163 3226 2336 2963 2413 
C 3309 2490 3469 2566 3654 2733 
C 3917 2957 4038 3264 4038 3674 
C 4038 4467 3526 4902 2598 4902 
L 1190 4902 
C 896 4902 717 4909 493 4922 
C 531 4666 544 4461 544 4186 
L 544 755 
C 544 442 531 269 493 38 
L 1088 38 
C 1050 269 1037 435 1037 762 
L 1037 2259 
L 2221 2259 
C 2733 2259 2982 2010 3354 1133 
C 3622 493 3712 230 3731 38 
L 4410 38 
z
M 1037 2701 
L 1037 4461 
L 2592 4461 
C 3200 4461 3520 4166 3520 3622 
C 3520 3347 3443 3136 3277 2976 
C 3104 2803 2842 2701 2554 2701 
L 1037 2701 
z
" transform="scale(0.015625)"/>
       <path id="HiraginoSansGB-W3-41" d="M 4710 38 
C 4614 205 4531 390 4371 774 
L 2938 4307 
C 2778 4698 2746 4781 2720 4902 
L 2074 4902 
C 2042 4755 1990 4608 1869 4307 
L 435 774 
C 262 346 218 250 90 38 
L 755 38 
C 800 262 858 448 954 691 
L 1286 1517 
L 3520 1517 
L 3853 691 
C 3930 493 4000 269 4051 38 
L 4710 38 
z
M 3366 1958 
L 1440 1958 
L 2259 4070 
C 2272 4096 2291 4166 2330 4269 
C 2342 4314 2368 4384 2400 4480 
C 2522 4128 2522 4122 2541 4070 
L 3366 1958 
z
" transform="scale(0.015625)"/>
      </defs>
      <use xlink:href="#HiraginoSansGB-W3-52"/>
      <use xlink:href="#HiraginoSansGB-W3-65" x="72.599991"/>
      <use xlink:href="#HiraginoSansGB-W3-41" x="131.399979"/>
      <use xlink:href="#HiraginoSansGB-W3-63" x="206.399963"/>
      <use xlink:href="#HiraginoSansGB-W3-74" x="264.199951"/>
     </g>
    </g>
   </g>
  </g>
 </g>
 <defs>
  <clipPath id="pbe9ce29397">
   <rect x="42.244297" y="5.76" width="418.5" height="199.584"/>
  </clipPath>
 </defs>
</svg>
