<?xml version="1.0" encoding="utf-8" standalone="no"?>
<!DOCTYPE svg PUBLIC "-//W3C//DTD SVG 1.1//EN"
  "http://www.w3.org/Graphics/SVG/1.1/DTD/svg11.dtd">
<svg xmlns:xlink="http://www.w3.org/1999/xlink" width="639.944297pt" height="207.962761pt" viewBox="0 0 639.944297 207.962761" xmlns="http://www.w3.org/2000/svg" version="1.1">
 <metadata>
  <rdf:RDF xmlns:dc="http://purl.org/dc/elements/1.1/" xmlns:cc="http://creativecommons.org/ns#" xmlns:rdf="http://www.w3.org/1999/02/22-rdf-syntax-ns#">
   <cc:Work>
    <dc:type rdf:resource="http://purl.org/dc/dcmitype/StillImage"/>
    <dc:date>2026-05-11T17:05:08.083189</dc:date>
    <dc:format>image/svg+xml</dc:format>
    <dc:creator>
     <cc:Agent>
      <dc:title>Matplotlib v3.9.4, https://matplotlib.org/</dc:title>
     </cc:Agent>
    </dc:creator>
   </cc:Work>
  </rdf:RDF>
 </metadata>
 <defs>
  <style type="text/css">*{stroke-linejoin: round; stroke-linecap: butt}</style>
 </defs>
 <g id="figure_1">
  <g id="patch_1">
   <path d="M 0 207.962761 
L 639.944297 207.962761 
L 639.944297 0 
L 0 0 
z
" style="fill: #ffffff"/>
  </g>
  <g id="axes_1">
   <g id="patch_2">
    <path d="M 42.244297 186.957761 
L 210.984297 186.957761 
L 210.984297 6.278772 
L 42.244297 6.278772 
z
" style="fill: #ffffff"/>
   </g>
   <g id="matplotlib.axis_1">
    <g id="xtick_1">
     <g id="line2d_1">
      <path d="M 71.434441 186.957761 
L 71.434441 6.278772 
" clip-path="url(#pb52bc40033)" style="fill: none; stroke: #e5e7eb; stroke-opacity: 0.7; stroke-width: 0.6; stroke-linecap: square"/>
     </g>
     <g id="line2d_2">
      <defs>
       <path id="m741feef258" d="M 0 0 
L 0 3.5 
" style="stroke: #374151; stroke-width: 0.6"/>
      </defs>
      <g>
       <use xlink:href="#m741feef258" x="71.434441" y="186.957761" style="fill: #374151; stroke: #374151; stroke-width: 0.6"/>
      </g>
     </g>
     <g id="text_1">
      <!-- 简单 -->
      <g style="fill: #374151" transform="translate(62.934441 200.46823) scale(0.085 -0.085)">
       <defs>
        <path id="HiraginoSansGB-W3-7b80" d="M 2515 4538 
C 2765 4538 2906 4531 3110 4512 
L 3110 4902 
C 2944 4877 2778 4864 2470 4864 
L 1510 4864 
C 1587 4998 1626 5069 1734 5261 
L 1338 5389 
C 1216 5062 1107 4864 877 4582 
C 691 4339 544 4198 294 4000 
C 442 3898 480 3872 582 3725 
C 890 4013 1062 4211 1299 4538 
L 1702 4538 
C 1843 4320 1914 4192 2042 3917 
L 2387 4051 
C 2234 4307 2163 4410 2074 4538 
L 2515 4538 
z
M 3853 4858 
C 3904 4966 3987 5139 4051 5286 
L 3661 5382 
C 3533 4922 3302 4512 2957 4141 
C 3091 4083 3168 4038 3270 3949 
C 3437 4147 3526 4275 3674 4531 
L 4282 4531 
C 4416 4365 4563 4141 4691 3898 
L 5018 4038 
C 4902 4230 4813 4358 4678 4531 
L 5299 4531 
C 5574 4531 5741 4525 5971 4499 
L 5971 4896 
C 5773 4864 5600 4858 5286 4858 
L 3853 4858 
z
M 4346 2099 
C 4346 2368 4352 2528 4365 2701 
C 4205 2682 4038 2675 3712 2675 
L 2656 2675 
C 2355 2675 2182 2682 2029 2701 
C 2048 2509 2054 2349 2054 2099 
L 2054 627 
C 2054 390 2048 237 2029 45 
L 2413 45 
L 2413 339 
L 3712 339 
C 4006 339 4186 333 4365 314 
C 4352 486 4346 640 4346 902 
L 4346 2099 
z
M 2413 2374 
L 3981 2374 
L 3981 1658 
L 2413 1658 
L 2413 2374 
z
M 2413 1357 
L 3981 1357 
L 3981 646 
L 2413 646 
L 2413 1357 
z
M 691 2976 
C 717 2746 730 2586 730 2253 
L 730 282 
C 730 -58 717 -256 691 -454 
L 1171 -454 
C 1146 -282 1139 -77 1139 282 
L 1139 2253 
C 1139 2592 1146 2771 1171 2976 
L 691 2976 
z
M 5728 2906 
C 5728 3251 5734 3469 5760 3712 
C 5517 3686 5338 3680 4986 3680 
L 2995 3680 
C 2675 3680 2470 3693 2317 3718 
L 2317 3283 
C 2483 3309 2726 3322 3014 3322 
L 5318 3322 
L 5318 122 
C 5318 -6 5267 -38 5056 -38 
C 4762 -38 4563 -19 4115 45 
C 4173 -109 4192 -198 4211 -384 
C 4557 -410 4806 -422 5050 -422 
C 5581 -422 5728 -301 5728 134 
L 5728 2906 
z
M 1005 3712 
C 1370 3379 1536 3194 1773 2835 
L 2074 3104 
C 1798 3456 1626 3642 1267 3955 
L 1005 3712 
z
" transform="scale(0.015625)"/>
        <path id="HiraginoSansGB-W3-5355" d="M 1632 4115 
C 1325 4115 1139 4122 1005 4141 
C 1024 3968 1030 3795 1030 3501 
L 1030 2272 
C 1030 1997 1024 1869 1005 1664 
C 1216 1683 1376 1690 1638 1690 
L 2950 1690 
L 2950 1082 
L 1024 1082 
C 742 1082 550 1094 378 1120 
L 378 672 
C 570 698 768 710 1043 710 
L 2950 710 
L 2950 122 
C 2950 -192 2944 -314 2912 -480 
L 3392 -480 
C 3354 -294 3347 -173 3347 122 
L 3347 710 
L 5344 710 
C 5626 710 5837 698 6016 672 
L 6016 1120 
C 5850 1094 5651 1082 5370 1082 
L 3347 1082 
L 3347 1690 
L 4755 1690 
C 4986 1690 5171 1683 5389 1664 
C 5370 1818 5363 1984 5363 2291 
L 5363 3501 
C 5363 3808 5370 3968 5389 4141 
C 5261 4122 5069 4115 4755 4115 
L 3942 4115 
C 4173 4422 4429 4800 4646 5165 
L 4218 5306 
C 4045 4947 3782 4499 3501 4115 
L 1632 4115 
z
M 3347 3776 
L 4966 3776 
L 4966 3091 
L 3347 3091 
L 3347 3776 
z
M 2950 3776 
L 2950 3091 
L 1427 3091 
L 1427 3776 
L 2950 3776 
z
M 3347 2758 
L 4966 2758 
L 4966 2035 
L 3347 2035 
L 3347 2758 
z
M 2950 2758 
L 2950 2035 
L 1427 2035 
L 1427 2758 
L 2950 2758 
z
M 1722 5152 
C 1965 4870 2157 4576 2336 4211 
L 2714 4390 
C 2451 4838 2317 5037 2093 5306 
L 1722 5152 
z
" transform="scale(0.015625)"/>
       </defs>
       <use xlink:href="#HiraginoSansGB-W3-7b80"/>
       <use xlink:href="#HiraginoSansGB-W3-5355" x="99.999985"/>
      </g>
     </g>
    </g>
    <g id="xtick_2">
     <g id="line2d_3">
      <path d="M 126.614297 186.957761 
L 126.614297 6.278772 
" clip-path="url(#pb52bc40033)" style="fill: none; stroke: #e5e7eb; stroke-opacity: 0.7; stroke-width: 0.6; stroke-linecap: square"/>
     </g>
     <g id="line2d_4">
      <g>
       <use xlink:href="#m741feef258" x="126.614297" y="186.957761" style="fill: #374151; stroke: #374151; stroke-width: 0.6"/>
      </g>
     </g>
     <g id="text_2">
      <!-- 中等 -->
      <g style="fill: #374151" transform="translate(118.114297 200.46823) scale(0.085 -0.085)">
       <defs>
        <path id="HiraginoSansGB-W3-4e2d" d="M 3360 4122 
L 3360 4685 
C 3360 4960 3373 5139 3405 5338 
L 2893 5338 
C 2925 5139 2938 4986 2938 4672 
L 2938 4122 
L 1158 4122 
C 954 4122 832 4128 678 4147 
C 698 3981 710 3840 710 3642 
L 710 1894 
C 710 1690 698 1510 672 1325 
L 1133 1325 
L 1133 1760 
L 2938 1760 
L 2938 269 
C 2938 -77 2925 -243 2893 -461 
L 3405 -461 
C 3366 -256 3360 -96 3360 269 
L 3360 1760 
L 5267 1760 
L 5267 1325 
L 5728 1325 
C 5702 1517 5690 1683 5690 1894 
L 5690 3642 
C 5690 3846 5696 3981 5722 4147 
C 5574 4128 5453 4122 5235 4122 
L 3360 4122 
z
M 3360 3738 
L 5267 3738 
L 5267 2144 
L 3360 2144 
L 3360 3738 
z
M 2938 2144 
L 1133 2144 
L 1133 3738 
L 2938 3738 
L 2938 2144 
z
" transform="scale(0.015625)"/>
        <path id="HiraginoSansGB-W3-7b49" d="M 1766 4474 
C 1933 4179 2010 4019 2118 3693 
L 2490 3827 
C 2362 4122 2266 4307 2150 4474 
L 2554 4474 
C 2803 4474 2963 4467 3142 4448 
L 3142 4858 
C 2976 4832 2803 4819 2509 4819 
L 1536 4819 
C 1619 4966 1645 5018 1754 5222 
L 1344 5344 
C 1171 4806 806 4307 294 3904 
C 416 3834 506 3757 602 3642 
C 909 3923 1069 4115 1318 4474 
L 1766 4474 
z
M 4243 4480 
C 4454 4128 4499 4045 4634 3718 
L 4998 3866 
C 4896 4077 4781 4275 4672 4435 
C 4659 4461 4659 4461 4646 4480 
L 5357 4480 
C 5626 4480 5830 4474 6029 4448 
L 6029 4858 
C 5856 4832 5645 4819 5350 4819 
L 3974 4819 
C 4141 5126 4141 5126 4205 5254 
L 3821 5376 
C 3648 4883 3366 4461 2970 4115 
C 3123 4038 3187 3994 3283 3885 
C 3482 4090 3622 4256 3770 4480 
L 4243 4480 
z
M 1632 3482 
C 1344 3482 1158 3494 986 3520 
L 986 3098 
C 1165 3123 1357 3136 1632 3136 
L 2918 3136 
L 2918 2502 
L 1082 2502 
C 787 2502 589 2515 422 2541 
L 422 2118 
C 614 2144 819 2157 1088 2157 
L 4205 2157 
L 4205 1530 
L 1414 1530 
C 1139 1530 934 1542 755 1568 
L 755 1146 
C 947 1171 1146 1184 1414 1184 
L 4205 1184 
L 4205 109 
C 4205 -32 4154 -58 3904 -58 
C 3590 -58 3373 -45 3078 -6 
C 3136 -147 3168 -237 3194 -410 
C 3424 -422 3622 -429 3821 -429 
C 4461 -429 4608 -339 4608 38 
L 4608 1184 
L 5056 1184 
C 5318 1184 5523 1171 5715 1146 
L 5715 1568 
C 5530 1542 5331 1530 5056 1530 
L 4608 1530 
L 4608 2157 
L 5370 2157 
C 5638 2157 5850 2144 6029 2118 
L 6029 2541 
C 5862 2515 5664 2502 5370 2502 
L 3302 2502 
L 3302 3136 
L 4838 3136 
C 5094 3136 5306 3123 5478 3098 
L 5478 3520 
C 5306 3494 5126 3482 4832 3482 
L 3302 3482 
C 3302 3635 3315 3757 3341 3878 
L 2880 3878 
C 2906 3750 2912 3693 2918 3482 
L 1632 3482 
z
M 1587 806 
C 2042 474 2150 371 2554 -102 
L 2874 192 
C 2426 653 2355 717 1875 1075 
L 1587 806 
z
" transform="scale(0.015625)"/>
       </defs>
       <use xlink:href="#HiraginoSansGB-W3-4e2d"/>
       <use xlink:href="#HiraginoSansGB-W3-7b49" x="99.999985"/>
      </g>
     </g>
    </g>
    <g id="xtick_3">
     <g id="line2d_5">
      <path d="M 181.794153 186.957761 
L 181.794153 6.278772 
" clip-path="url(#pb52bc40033)" style="fill: none; stroke: #e5e7eb; stroke-opacity: 0.7; stroke-width: 0.6; stroke-linecap: square"/>
     </g>
     <g id="line2d_6">
      <g>
       <use xlink:href="#m741feef258" x="181.794153" y="186.957761" style="fill: #374151; stroke: #374151; stroke-width: 0.6"/>
      </g>
     </g>
     <g id="text_3">
      <!-- 复杂 -->
      <g style="fill: #374151" transform="translate(173.294153 200.46823) scale(0.085 -0.085)">
       <defs>
        <path id="HiraginoSansGB-W3-590d" d="M 5011 1728 
C 4909 1702 4768 1696 4499 1696 
L 2342 1696 
C 2515 1888 2566 1958 2675 2112 
L 4595 2112 
C 4870 2112 5018 2106 5184 2086 
C 5171 2208 5165 2355 5165 2694 
L 5165 3456 
C 5165 3808 5171 3942 5184 4058 
C 5030 4038 4870 4032 4570 4032 
L 2042 4032 
C 1786 4032 1568 4038 1459 4051 
C 1568 4198 1613 4269 1728 4448 
L 4870 4448 
C 5229 4448 5478 4435 5658 4410 
L 5658 4838 
C 5504 4813 5280 4800 4864 4800 
L 1939 4800 
C 2067 5037 2150 5178 2176 5222 
L 1766 5382 
C 1696 5114 1504 4755 1210 4352 
C 941 3981 787 3827 435 3578 
C 640 3462 717 3398 774 3283 
C 1094 3584 1203 3706 1427 4013 
C 1440 3891 1446 3750 1446 3469 
L 1446 2682 
C 1446 2406 1440 2227 1421 2086 
C 1562 2106 1722 2112 2010 2112 
L 2202 2112 
C 1958 1824 1914 1773 1747 1632 
C 1414 1344 915 1030 403 794 
C 538 704 570 666 698 480 
C 1203 774 1510 973 1734 1152 
C 2042 883 2419 621 2829 397 
C 2067 154 1293 13 326 -58 
C 416 -192 461 -282 518 -461 
C 781 -422 1824 -243 2042 -192 
C 2464 -102 2950 51 3283 186 
C 4154 -173 4902 -358 5907 -461 
C 5946 -307 6016 -160 6093 -51 
C 5222 -13 4454 134 3750 390 
C 4250 646 4698 960 5082 1325 
C 5184 1427 5197 1440 5274 1498 
L 5011 1728 
z
M 2016 1382 
L 4646 1382 
C 4256 1043 3891 819 3302 576 
C 2778 819 2342 1088 2003 1376 
L 2016 1382 
z
M 1843 3712 
L 4768 3712 
L 4768 3232 
L 1843 3232 
L 1843 3712 
z
M 1843 2918 
L 4768 2918 
L 4768 2432 
L 1843 2432 
L 1843 2918 
z
" transform="scale(0.015625)"/>
        <path id="HiraginoSansGB-W3-6742" d="M 3443 2061 
L 3443 2330 
C 3443 2522 3450 2624 3469 2765 
L 3002 2765 
C 3021 2624 3027 2547 3027 2330 
L 3027 2061 
L 1120 2061 
C 768 2061 602 2067 416 2099 
L 416 1658 
C 640 1683 845 1696 1133 1696 
L 3027 1696 
L 3027 141 
C 3027 13 2976 -13 2701 -13 
C 2477 -13 2272 6 2003 51 
C 2074 -122 2093 -198 2112 -371 
C 2342 -384 2579 -397 2739 -397 
C 3283 -397 3443 -288 3443 83 
L 3443 1696 
L 5299 1696 
C 5594 1696 5798 1683 6022 1658 
L 6022 2099 
C 5843 2074 5651 2061 5299 2061 
L 3443 2061 
z
M 2829 4608 
C 2842 4742 2848 4832 2861 5030 
C 2874 5184 2880 5222 2893 5312 
L 2426 5312 
C 2438 5197 2445 5107 2445 4954 
C 2445 4832 2438 4730 2426 4608 
L 1235 4608 
C 947 4608 781 4614 621 4640 
L 621 4205 
C 794 4230 947 4237 1222 4237 
L 2355 4237 
C 2131 3411 1574 2982 307 2662 
C 435 2522 480 2451 557 2285 
C 1414 2560 1907 2842 2272 3251 
C 2509 3526 2662 3834 2758 4237 
L 4077 4237 
L 4077 3021 
C 4077 2726 4237 2656 4909 2656 
C 5542 2656 5754 2701 5856 2861 
C 5958 3002 6010 3251 6035 3680 
C 5901 3712 5805 3744 5645 3827 
C 5638 3392 5606 3168 5523 3091 
C 5466 3034 5344 3021 4986 3021 
C 4544 3021 4480 3040 4480 3168 
L 4480 4147 
C 4480 4358 4486 4486 4506 4627 
C 4333 4614 4179 4608 3955 4608 
L 2829 4608 
z
M 1734 1402 
C 1523 1037 1389 858 1139 614 
C 909 390 717 256 339 32 
C 474 -77 512 -122 634 -294 
C 1306 154 1600 454 2099 1184 
L 1734 1402 
z
M 5958 6 
C 5651 378 5414 608 5075 896 
C 4640 1248 4640 1248 4467 1395 
L 4192 1139 
C 4512 902 4659 774 4979 474 
C 5229 237 5325 128 5645 -269 
L 5958 6 
z
" transform="scale(0.015625)"/>
       </defs>
       <use xlink:href="#HiraginoSansGB-W3-590d"/>
       <use xlink:href="#HiraginoSansGB-W3-6742" x="99.999985"/>
      </g>
     </g>
    </g>
   </g>
   <g id="matplotlib.axis_2">
    <g id="ytick_1">
     <g id="line2d_7">
      <path d="M 42.244297 186.957761 
L 210.984297 186.957761 
" clip-path="url(#pb52bc40033)" style="fill: none; stroke: #e5e7eb; stroke-opacity: 0.7; stroke-width: 0.6; stroke-linecap: square"/>
     </g>
     <g id="line2d_8">
      <defs>
       <path id="m89861ad3f9" d="M 0 0 
L -3.5 0 
" style="stroke: #374151; stroke-width: 0.6"/>
      </defs>
      <g>
       <use xlink:href="#m89861ad3f9" x="42.244297" y="186.957761" style="fill: #374151; stroke: #374151; stroke-width: 0.6"/>
      </g>
     </g>
     <g id="text_4">
      <!-- 0 -->
      <g style="fill: #374151" transform="translate(29.659531 190.212996) scale(0.085 -0.085)">
       <defs>
        <path id="HiraginoSansGB-W3-30" d="M 2099 -58 
C 2688 -58 3136 166 3456 614 
C 3738 1005 3904 1690 3904 2464 
C 3904 2995 3821 3507 3661 3949 
C 3584 4160 3456 4358 3277 4538 
C 2989 4838 2579 4992 2106 4992 
C 1472 4992 979 4723 672 4205 
C 448 3834 301 3142 301 2464 
C 301 1939 384 1434 544 986 
C 621 768 755 570 928 397 
C 1229 96 1626 -58 2099 -58 
z
M 2099 4550 
C 2547 4550 2893 4352 3104 3968 
C 3270 3667 3392 3034 3392 2477 
C 3392 2003 3328 1581 3194 1184 
C 3136 998 3034 832 2893 685 
C 2701 486 2426 384 2106 384 
C 1670 384 1338 570 1114 941 
C 941 1242 813 1869 813 2464 
C 813 2931 877 3366 1011 3757 
C 1062 3917 1165 4077 1299 4224 
C 1504 4442 1766 4550 2099 4550 
z
" transform="scale(0.015625)"/>
       </defs>
       <use xlink:href="#HiraginoSansGB-W3-30"/>
      </g>
     </g>
    </g>
    <g id="ytick_2">
     <g id="line2d_9">
      <path d="M 42.244297 151.369256 
L 210.984297 151.369256 
" clip-path="url(#pb52bc40033)" style="fill: none; stroke: #e5e7eb; stroke-opacity: 0.7; stroke-width: 0.6; stroke-linecap: square"/>
     </g>
     <g id="line2d_10">
      <g>
       <use xlink:href="#m89861ad3f9" x="42.244297" y="151.369256" style="fill: #374151; stroke: #374151; stroke-width: 0.6"/>
      </g>
     </g>
     <g id="text_5">
      <!-- 20 -->
      <g style="fill: #374151" transform="translate(24.074766 154.62449) scale(0.085 -0.085)">
       <defs>
        <path id="HiraginoSansGB-W3-32" d="M 3027 38 
C 3347 38 3558 26 3814 0 
L 3814 538 
C 3571 506 3354 493 3034 493 
L 992 493 
C 1069 800 1158 973 1357 1235 
C 1568 1504 1773 1683 2278 2022 
C 3008 2509 3174 2630 3366 2848 
C 3616 3123 3744 3430 3744 3757 
C 3744 4512 3123 4998 2157 4998 
C 1594 4998 1158 4832 870 4506 
C 659 4269 563 4045 467 3584 
L 1005 3494 
C 1050 3814 1107 3968 1229 4141 
C 1421 4416 1734 4557 2157 4557 
C 2810 4557 3219 4243 3219 3757 
C 3219 3366 3008 3085 2374 2656 
C 1632 2150 1619 2144 1395 1952 
C 992 1606 723 1254 563 851 
C 467 608 448 512 378 6 
C 582 32 678 38 1082 38 
L 3027 38 
z
" transform="scale(0.015625)"/>
       </defs>
       <use xlink:href="#HiraginoSansGB-W3-32"/>
       <use xlink:href="#HiraginoSansGB-W3-30" x="65.699997"/>
      </g>
     </g>
    </g>
    <g id="ytick_3">
     <g id="line2d_11">
      <path d="M 42.244297 115.78075 
L 210.984297 115.78075 
" clip-path="url(#pb52bc40033)" style="fill: none; stroke: #e5e7eb; stroke-opacity: 0.7; stroke-width: 0.6; stroke-linecap: square"/>
     </g>
     <g id="line2d_12">
      <g>
       <use xlink:href="#m89861ad3f9" x="42.244297" y="115.78075" style="fill: #374151; stroke: #374151; stroke-width: 0.6"/>
      </g>
     </g>
     <g id="text_6">
      <!-- 40 -->
      <g style="fill: #374151" transform="translate(24.041563 119.035985) scale(0.085 -0.085)">
       <defs>
        <path id="HiraginoSansGB-W3-34" d="M 198 1254 
C 410 1274 602 1280 960 1280 
L 2675 1280 
L 2675 730 
C 2675 442 2662 262 2624 38 
L 3206 38 
C 3168 275 3155 422 3155 730 
L 3155 1280 
L 3392 1280 
C 3667 1280 3827 1267 4064 1235 
L 4064 1766 
C 3834 1734 3667 1722 3398 1722 
L 3155 1722 
L 3155 3821 
C 3155 4326 3162 4525 3194 4902 
L 2714 4902 
C 2566 4678 2451 4518 2234 4250 
L 614 2227 
C 480 2067 333 1888 198 1734 
L 198 1254 
z
M 2682 1715 
L 768 1715 
L 2240 3571 
C 2426 3808 2586 4019 2720 4211 
C 2688 3885 2682 3680 2682 3341 
L 2682 1715 
z
" transform="scale(0.015625)"/>
       </defs>
       <use xlink:href="#HiraginoSansGB-W3-34"/>
       <use xlink:href="#HiraginoSansGB-W3-30" x="66.099991"/>
      </g>
     </g>
    </g>
    <g id="ytick_4">
     <g id="line2d_13">
      <path d="M 42.244297 80.192245 
L 210.984297 80.192245 
" clip-path="url(#pb52bc40033)" style="fill: none; stroke: #e5e7eb; stroke-opacity: 0.7; stroke-width: 0.6; stroke-linecap: square"/>
     </g>
     <g id="line2d_14">
      <g>
       <use xlink:href="#m89861ad3f9" x="42.244297" y="80.192245" style="fill: #374151; stroke: #374151; stroke-width: 0.6"/>
      </g>
     </g>
     <g id="text_7">
      <!-- 60 -->
      <g style="fill: #374151" transform="translate(24.074766 83.447479) scale(0.085 -0.085)">
       <defs>
        <path id="HiraginoSansGB-W3-36" d="M 3725 4006 
C 3539 4390 3411 4563 3187 4723 
C 2944 4896 2598 4992 2214 4992 
C 1658 4992 1203 4755 864 4294 
C 557 3878 378 3162 378 2362 
C 378 1453 608 736 1024 352 
C 1299 96 1728 -51 2182 -51 
C 3194 -51 3859 602 3859 1594 
C 3859 2579 3245 3194 2253 3194 
C 1811 3194 1472 3072 1171 2803 
C 1030 2682 966 2592 851 2394 
C 896 3091 954 3386 1120 3770 
C 1350 4294 1728 4563 2227 4563 
C 2547 4563 2797 4454 2989 4243 
C 3085 4134 3130 4045 3213 3840 
L 3725 4006 
z
M 3354 1581 
C 3354 1331 3290 1069 3187 902 
C 2989 582 2605 384 2189 384 
C 1498 384 979 896 979 1587 
C 979 1907 1088 2189 1299 2400 
C 1523 2624 1862 2765 2182 2765 
C 2931 2765 3354 2336 3354 1581 
z
" transform="scale(0.015625)"/>
       </defs>
       <use xlink:href="#HiraginoSansGB-W3-36"/>
       <use xlink:href="#HiraginoSansGB-W3-30" x="65.699997"/>
      </g>
     </g>
    </g>
    <g id="ytick_5">
     <g id="line2d_15">
      <path d="M 42.244297 44.60374 
L 210.984297 44.60374 
" clip-path="url(#pb52bc40033)" style="fill: none; stroke: #e5e7eb; stroke-opacity: 0.7; stroke-width: 0.6; stroke-linecap: square"/>
     </g>
     <g id="line2d_16">
      <g>
       <use xlink:href="#m89861ad3f9" x="42.244297" y="44.60374" style="fill: #374151; stroke: #374151; stroke-width: 0.6"/>
      </g>
     </g>
     <g id="text_8">
      <!-- 80 -->
      <g style="fill: #374151" transform="translate(24.074766 47.858974) scale(0.085 -0.085)">
       <defs>
        <path id="HiraginoSansGB-W3-38" d="M 2752 2586 
C 3322 2694 3680 3142 3680 3738 
C 3680 4525 3078 5005 2099 5005 
C 1133 5005 525 4512 525 3738 
C 525 3142 890 2688 1453 2586 
C 1216 2547 1075 2496 877 2368 
C 493 2118 307 1766 307 1306 
C 307 422 954 -64 2125 -64 
C 3251 -64 3891 429 3891 1306 
C 3891 1734 3731 2074 3411 2310 
C 3200 2470 3021 2547 2752 2586 
z
M 2099 4576 
C 2758 4576 3181 4237 3181 3699 
C 3181 3130 2778 2784 2106 2784 
C 1434 2784 1024 3130 1024 3699 
C 1024 4230 1446 4576 2099 4576 
z
M 2099 2342 
C 2886 2342 3366 1965 3366 1338 
C 3366 1075 3283 851 3123 704 
C 2906 486 2541 371 2093 371 
C 1299 371 832 730 832 1338 
C 832 1958 1312 2342 2099 2342 
z
" transform="scale(0.015625)"/>
       </defs>
       <use xlink:href="#HiraginoSansGB-W3-38"/>
       <use xlink:href="#HiraginoSansGB-W3-30" x="65.699997"/>
      </g>
     </g>
    </g>
    <g id="ytick_6">
     <g id="line2d_17">
      <path d="M 42.244297 9.015234 
L 210.984297 9.015234 
" clip-path="url(#pb52bc40033)" style="fill: none; stroke: #e5e7eb; stroke-opacity: 0.7; stroke-width: 0.6; stroke-linecap: square"/>
     </g>
     <g id="line2d_18">
      <g>
       <use xlink:href="#m89861ad3f9" x="42.244297" y="9.015234" style="fill: #374151; stroke: #374151; stroke-width: 0.6"/>
      </g>
     </g>
     <g id="text_9">
      <!-- 100 -->
      <g style="fill: #374151" transform="translate(18.49 12.270469) scale(0.085 -0.085)">
       <defs>
        <path id="HiraginoSansGB-W3-31" d="M 1030 4429 
C 1216 4454 1382 4467 1587 4467 
L 1933 4467 
L 1933 762 
C 1933 467 1920 262 1882 38 
L 2490 38 
C 2451 275 2438 461 2438 762 
L 2438 3872 
C 2438 4218 2458 4544 2496 4934 
C 2285 4909 2182 4902 1965 4902 
L 1562 4902 
C 1318 4902 1197 4909 1030 4934 
L 1030 4429 
z
" transform="scale(0.015625)"/>
       </defs>
       <use xlink:href="#HiraginoSansGB-W3-31"/>
       <use xlink:href="#HiraginoSansGB-W3-30" x="65.699997"/>
       <use xlink:href="#HiraginoSansGB-W3-30" x="131.399994"/>
      </g>
     </g>
    </g>
    <g id="text_10">
     <!-- 归一化加权得分 -->
     <g style="fill: #1f2937" transform="translate(12.653438 128.118267) rotate(-90) scale(0.09 -0.09)">
      <defs>
       <path id="HiraginoSansGB-W3-5f52" d="M 5408 -384 
L 5856 -384 
C 5830 -186 5824 -83 5824 205 
L 5824 4237 
C 5824 4461 5830 4646 5843 4819 
C 5626 4806 5434 4800 5165 4800 
L 3603 4800 
C 3322 4800 3104 4806 2906 4832 
L 2906 4371 
C 3117 4397 3322 4403 3597 4403 
L 5408 4403 
L 5408 2694 
L 3776 2694 
C 3501 2694 3283 2707 3110 2726 
L 3110 2272 
C 3315 2291 3539 2304 3782 2304 
L 5408 2304 
L 5408 416 
L 3475 416 
C 3219 416 2982 422 2810 448 
L 2810 -6 
C 2995 13 3238 26 3475 26 
L 5408 26 
L 5408 -384 
z
M 493 -83 
C 685 -186 774 -256 902 -403 
C 1805 352 2144 934 2259 1939 
C 2304 2278 2330 2842 2336 3354 
L 2336 4122 
L 2342 4704 
C 2342 5062 2349 5190 2368 5325 
L 1888 5325 
C 1914 5184 1920 5037 1920 4730 
C 1926 4397 1926 4115 1926 3955 
C 1926 3514 1920 3040 1914 2688 
C 1888 2029 1837 1645 1722 1331 
C 1523 781 1146 346 493 -83 
z
M 538 1203 
L 998 1203 
C 973 1370 966 1530 966 1760 
L 966 4109 
C 966 4346 973 4493 998 4627 
L 538 4627 
C 563 4480 570 4307 570 4109 
L 570 1760 
C 570 1517 563 1363 538 1203 
z
" transform="scale(0.015625)"/>
       <path id="HiraginoSansGB-W3-4e00" d="M 6016 2771 
C 5824 2739 5549 2726 5171 2726 
L 1229 2726 
C 858 2726 582 2739 378 2771 
L 378 2240 
C 582 2272 877 2285 1229 2285 
L 5171 2285 
C 5568 2285 5786 2272 6016 2240 
L 6016 2771 
z
" transform="scale(0.015625)"/>
       <path id="HiraginoSansGB-W3-5316" d="M 3514 1926 
C 3878 2157 4262 2451 4525 2694 
C 4979 3110 5306 3456 5626 3853 
C 5830 4115 5850 4134 5946 4237 
L 5523 4512 
C 5421 4301 5210 4006 4934 3680 
C 4429 3085 3994 2688 3514 2368 
L 3514 4570 
C 3514 4851 3526 5088 3552 5261 
L 3053 5261 
C 3072 5101 3091 4851 3091 4570 
L 3091 2112 
C 2541 1818 2355 1734 2029 1632 
C 2170 1498 2221 1434 2291 1286 
C 2547 1382 2611 1414 3091 1670 
L 3091 326 
C 3091 -173 3251 -250 4320 -250 
C 5293 -250 5600 -192 5760 19 
C 5894 205 5984 570 6061 1274 
C 5926 1312 5792 1370 5638 1472 
C 5587 781 5523 442 5421 301 
C 5325 179 5088 147 4352 147 
C 3603 147 3514 173 3514 403 
L 3514 1926 
z
M 1357 320 
C 1357 26 1338 -218 1312 -474 
L 1811 -474 
C 1786 -211 1773 51 1773 301 
L 1773 3654 
C 2042 4262 2227 4685 2285 4845 
C 2394 5139 2394 5139 2419 5203 
L 1946 5338 
C 1914 5088 1862 4909 1728 4570 
C 1402 3744 954 3072 282 2413 
C 371 2317 486 2163 557 2042 
C 934 2445 1178 2765 1370 3117 
C 1357 2778 1357 2694 1357 2336 
L 1357 320 
z
" transform="scale(0.015625)"/>
       <path id="HiraginoSansGB-W3-52a0" d="M 2765 3731 
C 2758 3046 2746 2688 2714 2080 
C 2675 1408 2554 570 2470 358 
C 2426 243 2342 205 2170 205 
C 1978 205 1722 243 1421 307 
C 1466 122 1478 70 1485 -115 
C 1786 -160 2061 -186 2259 -186 
C 2714 -186 2842 -38 2957 602 
C 3072 1267 3149 2272 3168 3328 
C 3174 3955 3174 3955 3200 4141 
C 3008 4122 2835 4115 2534 4115 
L 1843 4115 
C 1869 5158 1869 5158 1901 5325 
L 1414 5325 
C 1453 5146 1459 5024 1459 4634 
C 1459 4442 1459 4320 1446 4115 
L 1075 4115 
C 755 4115 525 4128 371 4160 
L 371 3686 
C 544 3718 762 3731 1043 3731 
L 1427 3731 
C 1357 2573 1190 1766 864 1069 
C 666 646 506 416 147 6 
C 288 -109 371 -198 474 -352 
C 800 58 934 262 1120 627 
C 1331 1037 1472 1421 1587 1914 
C 1722 2470 1779 2925 1830 3731 
L 2765 3731 
z
M 4154 262 
L 5478 262 
L 5478 -198 
L 5920 -198 
C 5894 -6 5882 186 5882 429 
L 5882 3872 
C 5882 4179 5888 4346 5914 4544 
C 5709 4518 5606 4512 5357 4512 
L 4282 4512 
C 4038 4512 3904 4518 3718 4544 
C 3744 4346 3750 4166 3750 3872 
L 3750 480 
C 3750 218 3738 -70 3712 -250 
L 4154 -250 
L 4154 262 
z
M 4154 4141 
L 5478 4141 
L 5478 634 
L 4154 634 
L 4154 4141 
z
" transform="scale(0.015625)"/>
       <path id="HiraginoSansGB-W3-6743" d="M 1344 4070 
L 851 4070 
C 640 4070 480 4077 378 4096 
L 378 3686 
C 506 3706 653 3712 845 3712 
L 1286 3712 
C 1056 2752 685 1946 224 1408 
C 333 1299 397 1203 467 1037 
C 896 1600 1158 2182 1376 3078 
C 1357 2707 1344 2336 1344 2054 
L 1344 243 
C 1344 -90 1331 -320 1306 -499 
L 1779 -499 
C 1754 -314 1741 -115 1741 243 
L 1741 2918 
C 1971 2592 2118 2342 2330 1926 
L 2637 2189 
C 2317 2682 2195 2842 1741 3386 
L 1741 3712 
L 2099 3712 
C 2246 3712 2400 3706 2534 3693 
L 2534 4096 
C 2419 4077 2285 4070 2106 4070 
L 1741 4070 
L 1741 4691 
C 1741 5005 1754 5197 1773 5350 
L 1312 5350 
C 1338 5203 1344 5056 1344 4685 
L 1344 4070 
z
M 3014 4870 
C 2784 4870 2637 4877 2458 4902 
L 2458 4467 
C 2611 4486 2758 4499 2938 4499 
C 3002 3878 3098 3392 3245 2931 
C 3430 2362 3712 1798 4051 1312 
C 3584 768 3027 358 2176 -77 
C 2304 -198 2368 -282 2464 -454 
C 3296 13 3853 448 4307 979 
C 4762 422 5229 26 5958 -422 
C 6035 -250 6106 -147 6221 -13 
C 5549 320 5056 710 4563 1299 
C 5203 2202 5594 3219 5830 4621 
C 5862 4826 5862 4826 5882 4896 
C 5728 4877 5574 4870 5382 4870 
L 3014 4870 
z
M 5389 4499 
C 5235 3661 5062 3098 4781 2483 
C 4640 2170 4480 1888 4307 1645 
C 3962 2163 3782 2541 3603 3091 
C 3462 3539 3392 3910 3328 4499 
L 5389 4499 
z
" transform="scale(0.015625)"/>
       <path id="HiraginoSansGB-W3-5f97" d="M 5114 2285 
L 5267 2285 
C 5498 2285 5677 2278 5856 2253 
L 5856 2669 
C 5702 2643 5530 2630 5261 2630 
L 2547 2630 
C 2259 2630 2112 2637 1952 2662 
L 1952 2253 
C 2125 2278 2310 2285 2541 2285 
L 4717 2285 
L 4717 1760 
L 2406 1760 
C 2150 1760 1984 1773 1818 1798 
L 1818 1382 
C 2003 1408 2170 1414 2406 1414 
L 4717 1414 
L 4717 154 
C 4717 19 4672 -6 4429 -6 
C 4250 -6 3994 26 3680 77 
C 3744 -77 3763 -166 3782 -352 
C 4032 -371 4218 -378 4416 -378 
C 4736 -378 4877 -352 4966 -294 
C 5069 -218 5114 -102 5114 83 
L 5114 1414 
L 5357 1414 
C 5600 1414 5766 1408 5946 1382 
L 5946 1798 
C 5779 1773 5613 1760 5350 1760 
L 5114 1760 
L 5114 2285 
z
M 1613 5344 
C 1382 4832 896 4320 288 3942 
C 410 3840 480 3763 557 3642 
C 922 3891 1184 4128 1485 4474 
C 1632 4646 1632 4646 1971 5107 
L 1613 5344 
z
M 4922 3091 
C 5178 3091 5363 3085 5517 3066 
C 5498 3219 5491 3373 5491 3661 
L 5491 4486 
C 5491 4768 5498 4928 5517 5082 
C 5370 5062 5203 5056 4902 5056 
L 3098 5056 
C 2797 5056 2637 5062 2477 5082 
C 2490 4922 2496 4813 2496 4499 
L 2496 3667 
C 2496 3347 2490 3226 2477 3066 
C 2618 3085 2803 3091 3078 3091 
L 4922 3091 
z
M 2880 4730 
L 5101 4730 
L 5101 4250 
L 2880 4250 
L 2880 4730 
z
M 2880 3923 
L 5101 3923 
L 5101 3411 
L 2880 3411 
L 2880 3923 
z
M 3750 371 
C 3424 794 3251 986 2906 1312 
L 2598 1075 
C 2944 755 3142 518 3418 83 
L 3750 371 
z
M 1069 237 
C 1069 -83 1056 -282 1030 -467 
L 1517 -467 
C 1485 -262 1478 -90 1478 250 
L 1478 2938 
C 1651 3168 1754 3315 1792 3373 
C 1862 3488 1914 3571 1939 3610 
C 2003 3712 2003 3712 2035 3757 
L 1664 3994 
C 1587 3789 1510 3635 1382 3443 
C 1056 2950 666 2554 186 2221 
C 288 2118 346 2035 429 1875 
C 730 2106 902 2278 1088 2534 
C 1075 2246 1069 2048 1069 1792 
L 1069 237 
z
" transform="scale(0.015625)"/>
       <path id="HiraginoSansGB-W3-5206" d="M 4435 2637 
C 4435 1530 4358 666 4224 275 
C 4179 147 4109 115 3917 115 
C 3661 115 3373 147 3002 218 
C 3066 32 3085 -64 3104 -237 
C 3520 -275 3718 -288 3942 -288 
C 4320 -288 4467 -230 4576 -32 
C 4742 269 4864 1350 4864 2592 
C 4870 2880 4870 2931 4890 3046 
C 4704 3021 4512 3014 4218 3014 
L 2112 3014 
C 1850 3014 1632 3027 1446 3053 
L 1446 2598 
C 1645 2624 1862 2637 2106 2637 
L 2509 2637 
C 2464 2061 2374 1722 2163 1318 
C 1856 736 1370 314 550 -83 
C 685 -211 749 -294 832 -442 
C 1613 -38 2112 397 2445 954 
C 2739 1440 2893 1965 2944 2637 
L 4435 2637 
z
M 2246 5293 
C 2214 5101 2131 4902 1971 4621 
C 1542 3853 992 3264 218 2746 
C 365 2624 448 2528 531 2400 
C 1434 3066 2054 3808 2547 4800 
C 2643 4998 2669 5050 2726 5126 
L 2246 5293 
z
M 3667 5114 
C 3699 5062 3738 4992 3770 4934 
C 4371 3757 4915 3110 5926 2362 
C 6022 2528 6106 2637 6227 2752 
C 5350 3328 4806 3904 4339 4742 
C 4205 4986 4147 5114 4096 5280 
L 3667 5114 
z
" transform="scale(0.015625)"/>
      </defs>
      <use xlink:href="#HiraginoSansGB-W3-5f52"/>
      <use xlink:href="#HiraginoSansGB-W3-4e00" x="99.999985"/>
      <use xlink:href="#HiraginoSansGB-W3-5316" x="199.999969"/>
      <use xlink:href="#HiraginoSansGB-W3-52a0" x="299.999954"/>
      <use xlink:href="#HiraginoSansGB-W3-6743" x="399.999939"/>
      <use xlink:href="#HiraginoSansGB-W3-5f97" x="499.999924"/>
      <use xlink:href="#HiraginoSansGB-W3-5206" x="599.999908"/>
     </g>
    </g>
   </g>
   <g id="patch_3">
    <path d="M 49.914297 186.957761 
L 64.261059 186.957761 
L 64.261059 32.302573 
L 49.914297 32.302573 
z
" clip-path="url(#pb52bc40033)" style="fill: #264653; stroke: #ffffff; stroke-width: 0.4; stroke-linejoin: miter"/>
   </g>
   <g id="patch_4">
    <path d="M 105.094153 186.957761 
L 119.440916 186.957761 
L 119.440916 33.147503 
L 105.094153 33.147503 
z
" clip-path="url(#pb52bc40033)" style="fill: #264653; stroke: #ffffff; stroke-width: 0.4; stroke-linejoin: miter"/>
   </g>
   <g id="patch_5">
    <path d="M 160.274009 186.957761 
L 174.620772 186.957761 
L 174.620772 25.886084 
L 160.274009 25.886084 
z
" clip-path="url(#pb52bc40033)" style="fill: #264653; stroke: #ffffff; stroke-width: 0.4; stroke-linejoin: miter"/>
   </g>
   <g id="patch_6">
    <path d="M 64.261059 186.957761 
L 78.607822 186.957761 
L 78.607822 14.882533 
L 64.261059 14.882533 
z
" clip-path="url(#pb52bc40033)" style="fill: #2a9d8f; stroke: #ffffff; stroke-width: 0.4; stroke-linejoin: miter"/>
   </g>
   <g id="patch_7">
    <path d="M 119.440916 186.957761 
L 133.787678 186.957761 
L 133.787678 36.136196 
L 119.440916 36.136196 
z
" clip-path="url(#pb52bc40033)" style="fill: #2a9d8f; stroke: #ffffff; stroke-width: 0.4; stroke-linejoin: miter"/>
   </g>
   <g id="patch_8">
    <path d="M 174.620772 186.957761 
L 188.967534 186.957761 
L 188.967534 30.32314 
L 174.620772 30.32314 
z
" clip-path="url(#pb52bc40033)" style="fill: #2a9d8f; stroke: #ffffff; stroke-width: 0.4; stroke-linejoin: miter"/>
   </g>
   <g id="patch_9">
    <path d="M 78.607822 186.957761 
L 92.954585 186.957761 
L 92.954585 16.271998 
L 78.607822 16.271998 
z
" clip-path="url(#pb52bc40033)" style="fill: #9c89b8; stroke: #ffffff; stroke-width: 0.4; stroke-linejoin: miter"/>
   </g>
   <g id="patch_10">
    <path d="M 133.787678 186.957761 
L 148.134441 186.957761 
L 148.134441 61.749244 
L 133.787678 61.749244 
z
" clip-path="url(#pb52bc40033)" style="fill: #9c89b8; stroke: #ffffff; stroke-width: 0.4; stroke-linejoin: miter"/>
   </g>
   <g id="patch_11">
    <path d="M 188.967534 186.957761 
L 203.314297 186.957761 
L 203.314297 27.100898 
L 188.967534 27.100898 
z
" clip-path="url(#pb52bc40033)" style="fill: #9c89b8; stroke: #ffffff; stroke-width: 0.4; stroke-linejoin: miter"/>
   </g>
   <g id="patch_12">
    <path d="M 42.244297 186.957761 
L 42.244297 6.278772 
" style="fill: none; stroke: #374151; stroke-width: 0.8; stroke-linejoin: miter; stroke-linecap: square"/>
   </g>
   <g id="patch_13">
    <path d="M 42.244297 186.957761 
L 210.984297 186.957761 
" style="fill: none; stroke: #374151; stroke-width: 0.8; stroke-linejoin: miter; stroke-linecap: square"/>
   </g>
   <g id="legend_1">
    <g id="patch_14">
     <path d="M 135.325703 156.627292 
L 150.325703 156.627292 
L 150.325703 151.377292 
L 135.325703 151.377292 
z
" style="fill: #264653; stroke: #ffffff; stroke-width: 0.4; stroke-linejoin: miter"/>
    </g>
    <g id="text_11">
     <!-- MOPS (本文) -->
     <g transform="translate(156.325703 156.627292) scale(0.075 -0.075)">
      <defs>
       <path id="HiraginoSansGB-W3-4d" d="M 2554 710 
C 2682 422 2758 205 2790 38 
L 3245 38 
C 3296 250 3360 416 3488 704 
L 4794 3578 
C 4915 3840 5005 4096 5069 4358 
C 5043 4096 5024 3750 5024 3571 
L 5024 794 
C 5024 486 5011 256 4973 38 
L 5555 38 
C 5517 269 5504 442 5504 794 
L 5504 4141 
C 5504 4474 5517 4659 5555 4902 
L 4819 4902 
C 4781 4717 4710 4518 4602 4269 
L 3027 742 
L 1446 4269 
C 1350 4480 1274 4710 1235 4902 
L 493 4902 
C 531 4666 544 4461 544 4141 
L 544 794 
C 544 461 531 275 493 38 
L 1075 38 
C 1037 256 1024 454 1024 794 
L 1024 3533 
C 1024 3686 998 4083 979 4358 
C 1101 3968 1171 3770 1267 3565 
L 2554 710 
z
" transform="scale(0.015625)"/>
       <path id="HiraginoSansGB-W3-4f" d="M 2547 4998 
C 1203 4998 333 4006 333 2470 
C 333 928 1190 -58 2541 -58 
C 3891 -58 4755 928 4755 2470 
C 4755 4013 3898 4998 2547 4998 
z
M 2554 397 
C 1530 397 851 1222 851 2477 
C 851 3731 1523 4550 2547 4550 
C 2989 4550 3373 4397 3667 4109 
C 4038 3738 4230 3174 4230 2470 
C 4230 1786 4026 1190 3661 832 
C 3373 544 2995 397 2554 397 
z
" transform="scale(0.015625)"/>
       <path id="HiraginoSansGB-W3-50" d="M 1094 38 
C 1056 256 1043 454 1043 762 
L 1043 2022 
L 2470 2022 
C 3469 2022 4045 2566 4045 3507 
C 4045 4397 3488 4902 2502 4902 
L 1197 4902 
C 902 4902 723 4909 493 4922 
C 531 4653 544 4454 544 4192 
L 544 755 
C 544 454 531 269 493 38 
L 1094 38 
z
M 1043 2464 
L 1043 4461 
L 2470 4461 
C 3162 4461 3533 4122 3533 3482 
C 3533 2829 3149 2464 2470 2464 
L 1043 2464 
z
" transform="scale(0.015625)"/>
       <path id="HiraginoSansGB-W3-53" d="M 3840 3718 
C 3770 4045 3706 4205 3558 4397 
C 3270 4781 2778 4986 2144 4986 
C 1152 4986 506 4467 506 3661 
C 506 3213 704 2874 1101 2650 
C 1318 2528 1568 2438 1971 2355 
C 2746 2182 2816 2163 3027 2042 
C 3270 1907 3398 1670 3398 1357 
C 3398 762 2938 403 2176 403 
C 1702 403 1318 563 1107 845 
C 973 1018 928 1171 909 1478 
L 352 1408 
C 416 986 486 787 653 563 
C 947 166 1478 -45 2195 -45 
C 3296 -45 3917 467 3917 1370 
C 3917 2112 3507 2502 2483 2720 
C 1747 2880 1741 2880 1568 2950 
C 1190 3104 1011 3341 1011 3674 
C 1011 4192 1472 4544 2131 4544 
C 2547 4544 2874 4416 3078 4173 
C 3200 4026 3251 3898 3302 3642 
L 3840 3718 
z
" transform="scale(0.015625)"/>
       <path id="HiraginoSansGB-W3-20" transform="scale(0.015625)"/>
       <path id="HiraginoSansGB-W3-28" d="M 2093 -762 
C 1734 -211 1594 77 1453 531 
C 1306 992 1235 1478 1235 1984 
C 1235 2490 1306 2970 1453 3430 
C 1594 3885 1734 4173 2093 4723 
L 1690 4979 
C 1318 4410 1165 4102 1011 3648 
C 838 3130 749 2579 749 1984 
C 749 1389 838 838 1011 320 
C 1165 -141 1318 -448 1690 -1018 
L 2093 -762 
z
" transform="scale(0.015625)"/>
       <path id="HiraginoSansGB-W3-672c" d="M 2938 4186 
L 1146 4186 
C 864 4186 678 4198 442 4230 
L 442 3763 
C 678 3789 896 3802 1146 3802 
L 2778 3802 
C 2528 3296 2208 2829 1734 2285 
C 1248 1709 787 1318 237 986 
C 390 845 442 781 538 608 
C 1005 934 1350 1242 1754 1683 
C 2330 2310 2669 2835 2963 3533 
C 2944 3187 2938 2944 2938 2707 
L 2938 1254 
L 2310 1254 
C 1984 1254 1843 1261 1677 1286 
L 1677 838 
C 1869 870 2022 877 2323 877 
L 2938 877 
L 2938 275 
C 2938 -19 2925 -243 2893 -467 
L 3398 -467 
C 3366 -262 3354 -32 3354 269 
L 3354 877 
L 4038 877 
C 4326 877 4480 870 4672 838 
L 4672 1286 
C 4506 1261 4365 1254 4051 1254 
L 3354 1254 
L 3354 2707 
C 3354 2918 3347 3155 3328 3539 
C 3635 2848 3994 2304 4525 1741 
C 4941 1299 5338 966 5856 621 
C 5946 794 6016 890 6150 1037 
C 5574 1350 5120 1709 4634 2234 
C 4230 2662 3827 3232 3514 3802 
L 5242 3802 
C 5498 3802 5690 3789 5958 3763 
L 5958 4230 
C 5773 4198 5562 4186 5242 4186 
L 3354 4186 
L 3354 4736 
C 3354 4934 3366 5120 3398 5312 
L 2893 5312 
C 2925 5094 2938 4941 2938 4730 
L 2938 4186 
z
" transform="scale(0.015625)"/>
       <path id="HiraginoSansGB-W3-6587" d="M 1542 3853 
C 1734 3238 1875 2918 2138 2477 
C 2362 2093 2592 1779 2912 1427 
C 2176 755 1312 294 256 6 
C 378 -122 448 -218 525 -390 
C 1568 -64 2426 422 3200 1139 
C 3910 454 4755 -32 5862 -397 
C 5939 -218 6016 -102 6144 26 
C 5504 198 5146 339 4659 608 
C 4211 851 3859 1101 3494 1434 
C 3885 1850 4186 2285 4435 2803 
C 4608 3149 4640 3238 4826 3853 
L 5338 3853 
C 5690 3853 5882 3840 6061 3814 
L 6061 4269 
C 5862 4237 5645 4224 5331 4224 
L 3277 4224 
L 3552 4397 
C 3277 4864 3277 4864 2912 5363 
L 2579 5171 
C 2822 4858 2822 4858 3181 4224 
L 1075 4224 
C 774 4224 557 4237 358 4269 
L 358 3814 
C 550 3840 749 3853 1069 3853 
L 1542 3853 
z
M 4358 3853 
C 4230 3392 4173 3251 4026 2938 
C 3802 2477 3546 2093 3206 1715 
C 2931 2003 2720 2285 2509 2630 
C 2259 3040 2170 3258 1984 3853 
L 4358 3853 
z
" transform="scale(0.015625)"/>
       <path id="HiraginoSansGB-W3-29" d="M 179 4723 
C 538 4173 678 3885 819 3430 
C 966 2970 1037 2496 1037 1984 
C 1037 1472 966 992 819 531 
C 678 77 538 -211 179 -762 
L 582 -1018 
C 954 -448 1107 -141 1261 320 
C 1440 838 1523 1382 1523 1984 
C 1523 2579 1440 3130 1261 3648 
C 1107 4102 954 4410 582 4979 
L 179 4723 
z
" transform="scale(0.015625)"/>
      </defs>
      <use xlink:href="#HiraginoSansGB-W3-4d"/>
      <use xlink:href="#HiraginoSansGB-W3-4f" x="94.499985"/>
      <use xlink:href="#HiraginoSansGB-W3-50" x="173.999969"/>
      <use xlink:href="#HiraginoSansGB-W3-53" x="240.199966"/>
      <use xlink:href="#HiraginoSansGB-W3-20" x="307.09996"/>
      <use xlink:href="#HiraginoSansGB-W3-28" x="340.399948"/>
      <use xlink:href="#HiraginoSansGB-W3-672c" x="375.999939"/>
      <use xlink:href="#HiraginoSansGB-W3-6587" x="475.999924"/>
      <use xlink:href="#HiraginoSansGB-W3-29" x="575.999908"/>
     </g>
    </g>
    <g id="patch_15">
     <path d="M 135.325703 167.652292 
L 150.325703 167.652292 
L 150.325703 162.402292 
L 135.325703 162.402292 
z
" style="fill: #2a9d8f; stroke: #ffffff; stroke-width: 0.4; stroke-linejoin: miter"/>
    </g>
    <g id="text_12">
     <!-- Plan-Execute -->
     <g transform="translate(156.325703 167.652292) scale(0.075 -0.075)">
      <defs>
       <path id="HiraginoSansGB-W3-6c" d="M 454 4902 
C 486 4672 499 4499 499 4186 
L 499 755 
C 499 467 486 269 454 38 
L 1030 38 
C 998 294 986 467 986 755 
L 986 4179 
C 986 4499 998 4672 1030 4902 
L 454 4902 
z
" transform="scale(0.015625)"/>
       <path id="HiraginoSansGB-W3-61" d="M 2733 38 
L 3251 38 
C 3213 294 3200 454 3200 742 
L 3200 2541 
C 3200 3232 2765 3590 1920 3590 
C 1440 3590 1056 3469 794 3226 
C 634 3085 550 2950 435 2656 
L 934 2547 
C 998 2739 1050 2829 1133 2918 
C 1312 3104 1574 3194 1926 3194 
C 2458 3194 2733 2970 2733 2534 
L 2733 2163 
C 1946 2144 1638 2106 1261 1997 
C 666 1830 346 1459 346 947 
C 346 339 774 -26 1478 -26 
C 1696 -26 1926 19 2144 102 
C 2362 186 2483 269 2733 493 
L 2733 38 
z
M 2733 1370 
C 2733 1114 2682 979 2534 819 
C 2285 544 1882 365 1510 365 
C 1094 365 832 589 832 941 
C 832 1248 992 1466 1318 1600 
C 1606 1722 1971 1766 2733 1786 
L 2733 1370 
z
" transform="scale(0.015625)"/>
       <path id="HiraginoSansGB-W3-6e" d="M 1030 38 
C 998 288 986 480 986 762 
L 986 1997 
C 1037 2253 1114 2413 1280 2630 
C 1549 2976 1837 3136 2195 3136 
C 2701 3136 2976 2829 2976 2253 
L 2976 762 
C 2976 480 2963 288 2931 38 
L 3507 38 
C 3475 250 3462 429 3462 755 
L 3462 2336 
C 3462 2650 3405 2886 3283 3072 
C 3078 3386 2720 3552 2259 3552 
C 1683 3552 1267 3302 966 2778 
C 986 2925 986 2976 986 3053 
L 986 3488 
L 454 3488 
C 493 3232 506 3053 506 2765 
L 506 762 
C 506 454 493 282 454 38 
L 1030 38 
z
" transform="scale(0.015625)"/>
       <path id="HiraginoSansGB-W3-2d" d="M 179 1632 
C 358 1658 506 1664 762 1664 
L 1523 1664 
C 1792 1664 1933 1658 2112 1632 
L 2112 2170 
C 1933 2144 1798 2138 1523 2138 
L 762 2138 
C 493 2138 358 2144 179 2170 
L 179 1632 
z
" transform="scale(0.015625)"/>
       <path id="HiraginoSansGB-W3-45" d="M 3789 531 
C 3552 499 3373 486 3078 486 
L 1050 486 
L 1050 2368 
L 2733 2368 
C 3066 2368 3232 2355 3450 2323 
L 3450 2861 
C 3206 2829 3014 2816 2733 2816 
L 1050 2816 
L 1050 4454 
L 3021 4454 
C 3341 4454 3514 4442 3738 4410 
L 3738 4947 
C 3520 4915 3302 4902 3021 4902 
L 1197 4902 
C 890 4902 717 4909 493 4922 
C 531 4640 544 4467 544 4192 
L 544 781 
C 544 454 531 262 493 19 
C 710 32 890 38 1197 38 
L 3072 38 
C 3411 38 3584 26 3789 -6 
L 3789 531 
z
" transform="scale(0.015625)"/>
       <path id="HiraginoSansGB-W3-78" d="M 3315 38 
C 2918 563 2918 563 2854 646 
L 2010 1824 
L 2816 2957 
C 2925 3110 3059 3283 3206 3488 
L 2592 3488 
C 2534 3360 2451 3219 2342 3059 
L 1722 2157 
L 1094 3059 
C 973 3232 909 3341 845 3488 
L 218 3488 
C 512 3098 563 3034 602 2976 
L 1427 1824 
L 538 595 
C 397 390 224 166 122 38 
L 755 38 
C 851 218 902 314 1005 454 
L 1715 1491 
L 2394 512 
C 2528 307 2592 205 2682 38 
L 3315 38 
z
" transform="scale(0.015625)"/>
       <path id="HiraginoSansGB-W3-65" d="M 3475 1690 
C 3462 1862 3437 2112 3430 2182 
C 3302 3040 2707 3571 1882 3571 
C 922 3571 294 2854 294 1760 
C 294 653 928 -51 1933 -51 
C 2400 -51 2790 102 3091 397 
C 3238 544 3322 659 3443 928 
L 2995 1107 
C 2816 614 2458 358 1939 358 
C 1555 358 1242 512 1037 794 
C 864 1024 800 1261 781 1690 
L 3475 1690 
z
M 800 2093 
C 838 2336 870 2451 960 2611 
C 1152 2970 1478 3168 1869 3168 
C 2176 3168 2426 3072 2624 2880 
C 2829 2682 2925 2451 2963 2093 
L 800 2093 
z
" transform="scale(0.015625)"/>
       <path id="HiraginoSansGB-W3-63" d="M 3373 2579 
C 3296 2765 3238 2867 3149 2989 
C 2874 3373 2445 3578 1914 3578 
C 934 3578 294 2854 294 1747 
C 294 653 941 -45 1946 -45 
C 2464 -45 2874 141 3155 493 
C 3264 634 3328 755 3418 986 
L 2938 1114 
C 2893 960 2861 883 2797 787 
C 2630 525 2330 378 1965 378 
C 1248 378 787 915 787 1760 
C 787 2618 1235 3168 1939 3168 
C 2413 3168 2720 2931 2906 2432 
L 3373 2579 
z
" transform="scale(0.015625)"/>
       <path id="HiraginoSansGB-W3-75" d="M 2970 38 
L 3501 38 
C 3462 294 3450 474 3450 762 
L 3450 2765 
C 3450 3059 3462 3264 3494 3488 
L 2925 3488 
C 2957 3264 2970 3040 2970 2765 
L 2970 1530 
C 2912 1274 2842 1114 2675 890 
C 2419 544 2118 384 1754 384 
C 1254 384 979 704 979 1274 
L 979 2765 
C 979 3046 992 3264 1024 3488 
L 448 3488 
C 480 3283 493 3059 493 2771 
L 493 1190 
C 493 883 557 634 672 448 
C 877 141 1235 -26 1696 -26 
C 2272 -26 2669 211 2989 736 
C 2970 570 2970 525 2970 454 
L 2970 38 
z
" transform="scale(0.015625)"/>
       <path id="HiraginoSansGB-W3-74" d="M 858 4442 
C 890 4230 902 3987 902 3731 
L 902 3488 
L 646 3488 
C 378 3488 250 3494 70 3526 
L 70 3040 
C 282 3066 429 3078 646 3078 
L 902 3078 
L 902 787 
C 902 486 954 301 1082 173 
C 1210 45 1427 -26 1709 -26 
C 1971 -26 2170 13 2432 122 
L 2291 570 
C 2080 442 1952 403 1786 403 
C 1651 403 1542 442 1472 512 
C 1414 570 1389 666 1389 851 
L 1389 3078 
L 1696 3078 
C 1984 3078 2144 3072 2349 3040 
L 2349 3526 
C 2125 3494 1990 3488 1696 3488 
L 1389 3488 
L 1389 3731 
C 1389 4006 1402 4237 1434 4442 
L 858 4442 
z
" transform="scale(0.015625)"/>
      </defs>
      <use xlink:href="#HiraginoSansGB-W3-50"/>
      <use xlink:href="#HiraginoSansGB-W3-6c" x="66.199997"/>
      <use xlink:href="#HiraginoSansGB-W3-61" x="89.399994"/>
      <use xlink:href="#HiraginoSansGB-W3-6e" x="146.899979"/>
      <use xlink:href="#HiraginoSansGB-W3-2d" x="208.699966"/>
      <use xlink:href="#HiraginoSansGB-W3-45" x="244.499954"/>
      <use xlink:href="#HiraginoSansGB-W3-78" x="308.799942"/>
      <use xlink:href="#HiraginoSansGB-W3-65" x="362.399933"/>
      <use xlink:href="#HiraginoSansGB-W3-63" x="421.199921"/>
      <use xlink:href="#HiraginoSansGB-W3-75" x="478.999908"/>
      <use xlink:href="#HiraginoSansGB-W3-74" x="540.799896"/>
      <use xlink:href="#HiraginoSansGB-W3-65" x="579.999893"/>
     </g>
    </g>
    <g id="patch_16">
     <path d="M 135.325703 178.677292 
L 150.325703 178.677292 
L 150.325703 173.427292 
L 135.325703 173.427292 
z
" style="fill: #9c89b8; stroke: #ffffff; stroke-width: 0.4; stroke-linejoin: miter"/>
    </g>
    <g id="text_13">
     <!-- ReAct -->
     <g transform="translate(156.325703 178.677292) scale(0.075 -0.075)">
      <defs>
       <path id="HiraginoSansGB-W3-52" d="M 4410 38 
C 4320 192 4230 384 4122 634 
C 3923 1075 3770 1408 3616 1709 
C 3386 2163 3226 2336 2963 2413 
C 3309 2490 3469 2566 3654 2733 
C 3917 2957 4038 3264 4038 3674 
C 4038 4467 3526 4902 2598 4902 
L 1190 4902 
C 896 4902 717 4909 493 4922 
C 531 4666 544 4461 544 4186 
L 544 755 
C 544 442 531 269 493 38 
L 1088 38 
C 1050 269 1037 435 1037 762 
L 1037 2259 
L 2221 2259 
C 2733 2259 2982 2010 3354 1133 
C 3622 493 3712 230 3731 38 
L 4410 38 
z
M 1037 2701 
L 1037 4461 
L 2592 4461 
C 3200 4461 3520 4166 3520 3622 
C 3520 3347 3443 3136 3277 2976 
C 3104 2803 2842 2701 2554 2701 
L 1037 2701 
z
" transform="scale(0.015625)"/>
       <path id="HiraginoSansGB-W3-41" d="M 4710 38 
C 4614 205 4531 390 4371 774 
L 2938 4307 
C 2778 4698 2746 4781 2720 4902 
L 2074 4902 
C 2042 4755 1990 4608 1869 4307 
L 435 774 
C 262 346 218 250 90 38 
L 755 38 
C 800 262 858 448 954 691 
L 1286 1517 
L 3520 1517 
L 3853 691 
C 3930 493 4000 269 4051 38 
L 4710 38 
z
M 3366 1958 
L 1440 1958 
L 2259 4070 
C 2272 4096 2291 4166 2330 4269 
C 2342 4314 2368 4384 2400 4480 
C 2522 4128 2522 4122 2541 4070 
L 3366 1958 
z
" transform="scale(0.015625)"/>
      </defs>
      <use xlink:href="#HiraginoSansGB-W3-52"/>
      <use xlink:href="#HiraginoSansGB-W3-65" x="72.599991"/>
      <use xlink:href="#HiraginoSansGB-W3-41" x="131.399979"/>
      <use xlink:href="#HiraginoSansGB-W3-63" x="206.399963"/>
      <use xlink:href="#HiraginoSansGB-W3-74" x="264.199951"/>
     </g>
    </g>
   </g>
  </g>
  <g id="axes_2">
   <g id="patch_17">
    <path d="M 253.844297 186.957761 
L 422.584297 186.957761 
L 422.584297 6.278772 
L 253.844297 6.278772 
z
" style="fill: #ffffff"/>
   </g>
   <g id="matplotlib.axis_3">
    <g id="xtick_4">
     <g id="line2d_19">
      <path d="M 283.034441 186.957761 
L 283.034441 6.278772 
" clip-path="url(#pad931f3915)" style="fill: none; stroke: #e5e7eb; stroke-opacity: 0.7; stroke-width: 0.6; stroke-linecap: square"/>
     </g>
     <g id="line2d_20">
      <g>
       <use xlink:href="#m741feef258" x="283.034441" y="186.957761" style="fill: #374151; stroke: #374151; stroke-width: 0.6"/>
      </g>
     </g>
     <g id="text_14">
      <!-- 简单 -->
      <g style="fill: #374151" transform="translate(274.534441 200.46823) scale(0.085 -0.085)">
       <use xlink:href="#HiraginoSansGB-W3-7b80"/>
       <use xlink:href="#HiraginoSansGB-W3-5355" x="99.999985"/>
      </g>
     </g>
    </g>
    <g id="xtick_5">
     <g id="line2d_21">
      <path d="M 338.214297 186.957761 
L 338.214297 6.278772 
" clip-path="url(#pad931f3915)" style="fill: none; stroke: #e5e7eb; stroke-opacity: 0.7; stroke-width: 0.6; stroke-linecap: square"/>
     </g>
     <g id="line2d_22">
      <g>
       <use xlink:href="#m741feef258" x="338.214297" y="186.957761" style="fill: #374151; stroke: #374151; stroke-width: 0.6"/>
      </g>
     </g>
     <g id="text_15">
      <!-- 中等 -->
      <g style="fill: #374151" transform="translate(329.714297 200.46823) scale(0.085 -0.085)">
       <use xlink:href="#HiraginoSansGB-W3-4e2d"/>
       <use xlink:href="#HiraginoSansGB-W3-7b49" x="99.999985"/>
      </g>
     </g>
    </g>
    <g id="xtick_6">
     <g id="line2d_23">
      <path d="M 393.394153 186.957761 
L 393.394153 6.278772 
" clip-path="url(#pad931f3915)" style="fill: none; stroke: #e5e7eb; stroke-opacity: 0.7; stroke-width: 0.6; stroke-linecap: square"/>
     </g>
     <g id="line2d_24">
      <g>
       <use xlink:href="#m741feef258" x="393.394153" y="186.957761" style="fill: #374151; stroke: #374151; stroke-width: 0.6"/>
      </g>
     </g>
     <g id="text_16">
      <!-- 复杂 -->
      <g style="fill: #374151" transform="translate(384.894153 200.46823) scale(0.085 -0.085)">
       <use xlink:href="#HiraginoSansGB-W3-590d"/>
       <use xlink:href="#HiraginoSansGB-W3-6742" x="99.999985"/>
      </g>
     </g>
    </g>
   </g>
   <g id="matplotlib.axis_4">
    <g id="ytick_7">
     <g id="line2d_25">
      <path d="M 253.844297 186.957761 
L 422.584297 186.957761 
" clip-path="url(#pad931f3915)" style="fill: none; stroke: #e5e7eb; stroke-opacity: 0.7; stroke-width: 0.6; stroke-linecap: square"/>
     </g>
     <g id="line2d_26">
      <g>
       <use xlink:href="#m89861ad3f9" x="253.844297" y="186.957761" style="fill: #374151; stroke: #374151; stroke-width: 0.6"/>
      </g>
     </g>
     <g id="text_17">
      <!-- 0.0 -->
      <g style="fill: #374151" transform="translate(233.634766 190.212996) scale(0.085 -0.085)">
       <defs>
        <path id="HiraginoSansGB-W3-2e" d="M 448 672 
L 448 38 
L 1082 38 
L 1082 672 
L 448 672 
z
" transform="scale(0.015625)"/>
       </defs>
       <use xlink:href="#HiraginoSansGB-W3-30"/>
       <use xlink:href="#HiraginoSansGB-W3-2e" x="65.699997"/>
       <use xlink:href="#HiraginoSansGB-W3-30" x="89.699982"/>
      </g>
     </g>
    </g>
    <g id="ytick_8">
     <g id="line2d_27">
      <path d="M 253.844297 152.542716 
L 422.584297 152.542716 
" clip-path="url(#pad931f3915)" style="fill: none; stroke: #e5e7eb; stroke-opacity: 0.7; stroke-width: 0.6; stroke-linecap: square"/>
     </g>
     <g id="line2d_28">
      <g>
       <use xlink:href="#m89861ad3f9" x="253.844297" y="152.542716" style="fill: #374151; stroke: #374151; stroke-width: 0.6"/>
      </g>
     </g>
     <g id="text_18">
      <!-- 0.2 -->
      <g style="fill: #374151" transform="translate(233.634766 155.79795) scale(0.085 -0.085)">
       <use xlink:href="#HiraginoSansGB-W3-30"/>
       <use xlink:href="#HiraginoSansGB-W3-2e" x="65.699997"/>
       <use xlink:href="#HiraginoSansGB-W3-32" x="89.699982"/>
      </g>
     </g>
    </g>
    <g id="ytick_9">
     <g id="line2d_29">
      <path d="M 253.844297 118.12767 
L 422.584297 118.12767 
" clip-path="url(#pad931f3915)" style="fill: none; stroke: #e5e7eb; stroke-opacity: 0.7; stroke-width: 0.6; stroke-linecap: square"/>
     </g>
     <g id="line2d_30">
      <g>
       <use xlink:href="#m89861ad3f9" x="253.844297" y="118.12767" style="fill: #374151; stroke: #374151; stroke-width: 0.6"/>
      </g>
     </g>
     <g id="text_19">
      <!-- 0.4 -->
      <g style="fill: #374151" transform="translate(233.601563 121.382904) scale(0.085 -0.085)">
       <use xlink:href="#HiraginoSansGB-W3-30"/>
       <use xlink:href="#HiraginoSansGB-W3-2e" x="65.699997"/>
       <use xlink:href="#HiraginoSansGB-W3-34" x="89.699982"/>
      </g>
     </g>
    </g>
    <g id="ytick_10">
     <g id="line2d_31">
      <path d="M 253.844297 83.712624 
L 422.584297 83.712624 
" clip-path="url(#pad931f3915)" style="fill: none; stroke: #e5e7eb; stroke-opacity: 0.7; stroke-width: 0.6; stroke-linecap: square"/>
     </g>
     <g id="line2d_32">
      <g>
       <use xlink:href="#m89861ad3f9" x="253.844297" y="83.712624" style="fill: #374151; stroke: #374151; stroke-width: 0.6"/>
      </g>
     </g>
     <g id="text_20">
      <!-- 0.6 -->
      <g style="fill: #374151" transform="translate(233.634766 86.967859) scale(0.085 -0.085)">
       <use xlink:href="#HiraginoSansGB-W3-30"/>
       <use xlink:href="#HiraginoSansGB-W3-2e" x="65.699997"/>
       <use xlink:href="#HiraginoSansGB-W3-36" x="89.699982"/>
      </g>
     </g>
    </g>
    <g id="ytick_11">
     <g id="line2d_33">
      <path d="M 253.844297 49.297579 
L 422.584297 49.297579 
" clip-path="url(#pad931f3915)" style="fill: none; stroke: #e5e7eb; stroke-opacity: 0.7; stroke-width: 0.6; stroke-linecap: square"/>
     </g>
     <g id="line2d_34">
      <g>
       <use xlink:href="#m89861ad3f9" x="253.844297" y="49.297579" style="fill: #374151; stroke: #374151; stroke-width: 0.6"/>
      </g>
     </g>
     <g id="text_21">
      <!-- 0.8 -->
      <g style="fill: #374151" transform="translate(233.634766 52.552813) scale(0.085 -0.085)">
       <use xlink:href="#HiraginoSansGB-W3-30"/>
       <use xlink:href="#HiraginoSansGB-W3-2e" x="65.699997"/>
       <use xlink:href="#HiraginoSansGB-W3-38" x="89.699982"/>
      </g>
     </g>
    </g>
    <g id="ytick_12">
     <g id="line2d_35">
      <path d="M 253.844297 14.882533 
L 422.584297 14.882533 
" clip-path="url(#pad931f3915)" style="fill: none; stroke: #e5e7eb; stroke-opacity: 0.7; stroke-width: 0.6; stroke-linecap: square"/>
     </g>
     <g id="line2d_36">
      <g>
       <use xlink:href="#m89861ad3f9" x="253.844297" y="14.882533" style="fill: #374151; stroke: #374151; stroke-width: 0.6"/>
      </g>
     </g>
     <g id="text_22">
      <!-- 1.0 -->
      <g style="fill: #374151" transform="translate(233.634766 18.137768) scale(0.085 -0.085)">
       <use xlink:href="#HiraginoSansGB-W3-31"/>
       <use xlink:href="#HiraginoSansGB-W3-2e" x="65.699997"/>
       <use xlink:href="#HiraginoSansGB-W3-30" x="89.699982"/>
      </g>
     </g>
    </g>
    <g id="text_23">
     <!-- 工具选择 F1 -->
     <g style="fill: #1f2937" transform="translate(227.765 121.782407) rotate(-90) scale(0.09 -0.09)">
      <defs>
       <path id="HiraginoSansGB-W3-5de5" d="M 3386 4224 
L 4928 4224 
C 5229 4224 5434 4211 5664 4186 
L 5664 4672 
C 5453 4646 5254 4634 4922 4634 
L 1517 4634 
C 1178 4634 979 4646 774 4672 
L 774 4186 
C 998 4211 1210 4224 1510 4224 
L 2925 4224 
L 2925 570 
L 1120 570 
C 781 570 582 582 365 614 
L 365 115 
C 589 147 794 160 1114 160 
L 5318 160 
C 5638 160 5862 147 6067 115 
L 6067 614 
C 5850 582 5651 570 5318 570 
L 3386 570 
L 3386 4224 
z
" transform="scale(0.015625)"/>
       <path id="HiraginoSansGB-W3-5177" d="M 1274 1248 
L 1037 1248 
C 774 1248 550 1261 378 1286 
L 378 832 
C 563 858 774 870 1037 870 
L 5402 870 
C 5651 870 5882 858 6061 832 
L 6061 1286 
C 5888 1261 5664 1248 5395 1248 
L 5133 1248 
L 5133 4442 
C 5133 4749 5139 4915 5165 5069 
C 4941 5043 4787 5037 4506 5037 
L 1958 5037 
C 1658 5037 1446 5043 1242 5069 
C 1267 4890 1274 4749 1274 4467 
L 1274 1248 
z
M 1670 1248 
L 1670 1882 
L 4736 1882 
L 4736 1248 
L 1670 1248 
z
M 1670 2227 
L 1670 2822 
L 4736 2822 
L 4736 2227 
L 1670 2227 
z
M 4736 4685 
L 4736 4109 
L 1670 4109 
L 1670 4685 
L 4736 4685 
z
M 4736 3763 
L 4736 3168 
L 1670 3168 
L 1670 3763 
L 4736 3763 
z
M 2259 730 
C 1997 499 1850 397 1594 262 
C 1280 109 1030 26 474 -109 
C 621 -250 666 -307 762 -467 
C 1645 -205 2022 -6 2618 499 
L 2259 730 
z
M 3821 480 
C 4474 230 4851 26 5568 -467 
L 5850 -128 
C 5146 307 4710 525 4077 736 
L 3821 480 
z
" transform="scale(0.015625)"/>
       <path id="HiraginoSansGB-W3-9009" d="M 1363 781 
C 1088 710 749 461 224 -58 
L 544 -352 
C 640 -243 646 -230 902 26 
C 1165 294 1331 403 1472 403 
C 1530 403 1606 365 1677 307 
C 1875 115 1875 115 1907 96 
C 1997 26 2150 -58 2304 -109 
C 2579 -211 3149 -269 3853 -269 
C 4768 -269 5440 -256 6080 -230 
C 6118 -19 6144 64 6227 230 
C 5677 160 4954 128 4038 128 
C 3360 128 2816 160 2566 211 
C 2278 275 2176 333 1856 614 
C 1818 646 1792 666 1760 698 
L 1760 2259 
C 1760 2547 1766 2714 1786 2906 
C 1632 2880 1517 2874 1306 2874 
L 864 2874 
C 614 2874 512 2880 371 2906 
L 371 2490 
C 518 2515 621 2522 838 2522 
L 1363 2522 
L 1363 781 
z
M 538 4915 
C 986 4493 1133 4314 1517 3770 
L 1850 4064 
C 1459 4557 1267 4768 838 5178 
L 538 4915 
z
M 4275 4493 
L 4275 4794 
C 4275 5005 4282 5139 4314 5312 
L 3853 5312 
C 3878 5146 3891 5030 3891 4794 
L 3891 4493 
L 3072 4493 
C 3130 4595 3149 4653 3219 4838 
C 3258 4954 3270 4986 3302 5056 
L 2886 5146 
C 2854 4947 2784 4736 2675 4506 
C 2560 4256 2419 4051 2214 3834 
C 2362 3757 2426 3712 2528 3590 
C 2707 3795 2797 3923 2912 4122 
L 3891 4122 
L 3891 3251 
L 2675 3251 
C 2451 3251 2266 3264 2099 3283 
L 2099 2854 
C 2285 2874 2470 2886 2688 2886 
L 3347 2886 
C 3290 2374 3181 2074 2918 1734 
C 2675 1427 2413 1229 1946 1005 
C 2029 928 2067 877 2150 749 
C 2176 717 2176 717 2189 698 
C 2720 973 3014 1216 3283 1587 
C 3558 1971 3674 2317 3725 2886 
L 4314 2886 
L 4314 1075 
C 4314 794 4506 710 5133 710 
C 5485 710 5702 755 5824 858 
C 5952 960 5997 1120 6029 1549 
C 6035 1658 6042 1734 6061 1888 
C 5907 1914 5830 1946 5670 2029 
C 5658 1549 5626 1293 5568 1190 
C 5555 1184 5555 1178 5542 1171 
C 5478 1107 5421 1094 5146 1094 
C 4800 1094 4678 1146 4678 1293 
L 4678 2886 
L 5485 2886 
C 5683 2886 5850 2880 6029 2854 
L 6029 3283 
C 5830 3258 5683 3251 5478 3251 
L 4275 3251 
L 4275 4122 
L 5114 4122 
C 5363 4122 5530 4115 5728 4096 
L 5728 4525 
C 5587 4499 5440 4493 5114 4493 
L 4275 4493 
z
" transform="scale(0.015625)"/>
       <path id="HiraginoSansGB-W3-62e9" d="M 1280 3686 
L 1280 2246 
C 723 2035 640 2010 352 1958 
L 467 1517 
C 614 1594 666 1619 768 1658 
L 1280 1850 
L 1280 147 
C 1280 0 1235 -32 1037 -32 
C 851 -32 710 -19 422 13 
C 486 -166 499 -224 512 -397 
C 742 -410 902 -416 1069 -416 
C 1510 -416 1683 -288 1683 32 
L 1683 2010 
C 1984 2144 2080 2189 2317 2304 
L 2317 2688 
C 2074 2573 1984 2528 1683 2406 
L 1683 3686 
L 1939 3686 
C 2099 3686 2259 3674 2413 3654 
L 2413 4070 
C 2253 4051 2106 4038 1946 4038 
L 1683 4038 
L 1683 4672 
C 1683 4941 1690 5088 1722 5299 
L 1242 5299 
C 1274 5107 1280 4992 1280 4672 
L 1280 4038 
L 928 4038 
C 736 4038 634 4045 403 4077 
L 403 3648 
C 678 3680 749 3686 928 3686 
L 1280 3686 
z
M 4371 2240 
C 4378 2605 4384 2726 4403 2886 
L 3962 2886 
C 3981 2739 3994 2483 3994 2240 
L 3219 2240 
C 2950 2240 2854 2246 2688 2272 
L 2688 1862 
C 2861 1888 2963 1894 3219 1894 
L 3994 1894 
L 3994 1171 
L 2778 1171 
C 2515 1171 2400 1178 2246 1203 
L 2246 781 
C 2387 806 2509 813 2778 813 
L 3994 813 
L 3994 58 
C 3994 -160 3987 -288 3955 -518 
L 4410 -518 
C 4378 -307 4371 -166 4371 51 
L 4371 813 
L 5555 813 
C 5824 813 5939 806 6106 781 
L 6106 1203 
C 5939 1178 5824 1171 5549 1171 
L 4371 1171 
L 4371 1894 
L 5171 1894 
C 5440 1894 5542 1888 5709 1862 
L 5709 2272 
C 5549 2246 5446 2240 5171 2240 
L 4371 2240 
z
M 5376 5094 
C 5222 5069 5050 5062 4774 5062 
L 3238 5062 
C 2861 5062 2618 5069 2413 5088 
L 2413 4698 
C 2541 4710 2662 4717 2771 4717 
C 2790 4717 2822 4717 2861 4717 
C 3181 4230 3347 4045 3910 3584 
C 3488 3290 2874 3014 2278 2854 
C 2400 2758 2458 2682 2541 2534 
C 3040 2726 3174 2784 3462 2931 
C 3808 3104 3987 3213 4211 3379 
C 4659 3059 5037 2867 5926 2515 
C 6010 2694 6074 2790 6182 2880 
C 5229 3181 4941 3309 4506 3590 
C 4909 3917 5248 4288 5510 4691 
C 5574 4794 5574 4794 5651 4890 
L 5376 5094 
z
M 5050 4717 
C 4870 4397 4666 4166 4211 3789 
C 3693 4211 3546 4365 3302 4717 
L 5050 4717 
z
" transform="scale(0.015625)"/>
       <path id="HiraginoSansGB-W3-46" d="M 1050 2349 
L 2547 2349 
C 2880 2349 3066 2336 3277 2304 
L 3277 2842 
C 3040 2810 2854 2797 2547 2797 
L 1050 2797 
L 1050 4448 
L 2893 4448 
C 3232 4448 3418 4435 3629 4403 
L 3629 4947 
C 3386 4915 3206 4902 2893 4902 
L 1197 4902 
C 890 4902 717 4909 493 4922 
C 531 4672 544 4467 544 4192 
L 544 787 
C 544 454 531 256 493 38 
L 1101 38 
C 1062 269 1050 442 1050 787 
L 1050 2349 
z
" transform="scale(0.015625)"/>
      </defs>
      <use xlink:href="#HiraginoSansGB-W3-5de5"/>
      <use xlink:href="#HiraginoSansGB-W3-5177" x="99.999985"/>
      <use xlink:href="#HiraginoSansGB-W3-9009" x="199.999969"/>
      <use xlink:href="#HiraginoSansGB-W3-62e9" x="299.999954"/>
      <use xlink:href="#HiraginoSansGB-W3-20" x="399.999939"/>
      <use xlink:href="#HiraginoSansGB-W3-46" x="433.299927"/>
      <use xlink:href="#HiraginoSansGB-W3-31" x="493.499924"/>
     </g>
    </g>
   </g>
   <g id="patch_18">
    <path d="M 261.514297 186.957761 
L 275.861059 186.957761 
L 275.861059 20.04479 
L 261.514297 20.04479 
z
" clip-path="url(#pad931f3915)" style="fill: #264653; stroke: #ffffff; stroke-width: 0.4; stroke-linejoin: miter"/>
   </g>
   <g id="patch_19">
    <path d="M 316.694153 186.957761 
L 331.040916 186.957761 
L 331.040916 14.882533 
L 316.694153 14.882533 
z
" clip-path="url(#pad931f3915)" style="fill: #264653; stroke: #ffffff; stroke-width: 0.4; stroke-linejoin: miter"/>
   </g>
   <g id="patch_20">
    <path d="M 371.874009 186.957761 
L 386.220772 186.957761 
L 386.220772 14.882533 
L 371.874009 14.882533 
z
" clip-path="url(#pad931f3915)" style="fill: #264653; stroke: #ffffff; stroke-width: 0.4; stroke-linejoin: miter"/>
   </g>
   <g id="patch_21">
    <path d="M 275.861059 186.957761 
L 290.207822 186.957761 
L 290.207822 28.648552 
L 275.861059 28.648552 
z
" clip-path="url(#pad931f3915)" style="fill: #2a9d8f; stroke: #ffffff; stroke-width: 0.4; stroke-linejoin: miter"/>
   </g>
   <g id="patch_22">
    <path d="M 331.040916 186.957761 
L 345.387678 186.957761 
L 345.387678 26.927799 
L 331.040916 26.927799 
z
" clip-path="url(#pad931f3915)" style="fill: #2a9d8f; stroke: #ffffff; stroke-width: 0.4; stroke-linejoin: miter"/>
   </g>
   <g id="patch_23">
    <path d="M 386.220772 186.957761 
L 400.567534 186.957761 
L 400.567534 14.882533 
L 386.220772 14.882533 
z
" clip-path="url(#pad931f3915)" style="fill: #2a9d8f; stroke: #ffffff; stroke-width: 0.4; stroke-linejoin: miter"/>
   </g>
   <g id="patch_24">
    <path d="M 290.207822 186.957761 
L 304.554585 186.957761 
L 304.554585 49.297579 
L 290.207822 49.297579 
z
" clip-path="url(#pad931f3915)" style="fill: #9c89b8; stroke: #ffffff; stroke-width: 0.4; stroke-linejoin: miter"/>
   </g>
   <g id="patch_25">
    <path d="M 345.387678 186.957761 
L 359.734441 186.957761 
L 359.734441 83.712624 
L 345.387678 83.712624 
z
" clip-path="url(#pad931f3915)" style="fill: #9c89b8; stroke: #ffffff; stroke-width: 0.4; stroke-linejoin: miter"/>
   </g>
   <g id="patch_26">
    <path d="M 400.567534 186.957761 
L 414.914297 186.957761 
L 414.914297 23.486295 
L 400.567534 23.486295 
z
" clip-path="url(#pad931f3915)" style="fill: #9c89b8; stroke: #ffffff; stroke-width: 0.4; stroke-linejoin: miter"/>
   </g>
   <g id="patch_27">
    <path d="M 253.844297 186.957761 
L 253.844297 6.278772 
" style="fill: none; stroke: #374151; stroke-width: 0.8; stroke-linejoin: miter; stroke-linecap: square"/>
   </g>
   <g id="patch_28">
    <path d="M 253.844297 186.957761 
L 422.584297 186.957761 
" style="fill: none; stroke: #374151; stroke-width: 0.8; stroke-linejoin: miter; stroke-linecap: square"/>
   </g>
  </g>
  <g id="axes_3">
   <g id="patch_29">
    <path d="M 465.444297 186.957761 
L 634.184297 186.957761 
L 634.184297 6.278772 
L 465.444297 6.278772 
z
" style="fill: #ffffff"/>
   </g>
   <g id="matplotlib.axis_5">
    <g id="xtick_7">
     <g id="line2d_37">
      <path d="M 494.634441 186.957761 
L 494.634441 6.278772 
" clip-path="url(#p1f1894e6fc)" style="fill: none; stroke: #e5e7eb; stroke-opacity: 0.7; stroke-width: 0.6; stroke-linecap: square"/>
     </g>
     <g id="line2d_38">
      <g>
       <use xlink:href="#m741feef258" x="494.634441" y="186.957761" style="fill: #374151; stroke: #374151; stroke-width: 0.6"/>
      </g>
     </g>
     <g id="text_24">
      <!-- 简单 -->
      <g style="fill: #374151" transform="translate(486.134441 200.46823) scale(0.085 -0.085)">
       <use xlink:href="#HiraginoSansGB-W3-7b80"/>
       <use xlink:href="#HiraginoSansGB-W3-5355" x="99.999985"/>
      </g>
     </g>
    </g>
    <g id="xtick_8">
     <g id="line2d_39">
      <path d="M 549.814297 186.957761 
L 549.814297 6.278772 
" clip-path="url(#p1f1894e6fc)" style="fill: none; stroke: #e5e7eb; stroke-opacity: 0.7; stroke-width: 0.6; stroke-linecap: square"/>
     </g>
     <g id="line2d_40">
      <g>
       <use xlink:href="#m741feef258" x="549.814297" y="186.957761" style="fill: #374151; stroke: #374151; stroke-width: 0.6"/>
      </g>
     </g>
     <g id="text_25">
      <!-- 中等 -->
      <g style="fill: #374151" transform="translate(541.314297 200.46823) scale(0.085 -0.085)">
       <use xlink:href="#HiraginoSansGB-W3-4e2d"/>
       <use xlink:href="#HiraginoSansGB-W3-7b49" x="99.999985"/>
      </g>
     </g>
    </g>
    <g id="xtick_9">
     <g id="line2d_41">
      <path d="M 604.994153 186.957761 
L 604.994153 6.278772 
" clip-path="url(#p1f1894e6fc)" style="fill: none; stroke: #e5e7eb; stroke-opacity: 0.7; stroke-width: 0.6; stroke-linecap: square"/>
     </g>
     <g id="line2d_42">
      <g>
       <use xlink:href="#m741feef258" x="604.994153" y="186.957761" style="fill: #374151; stroke: #374151; stroke-width: 0.6"/>
      </g>
     </g>
     <g id="text_26">
      <!-- 复杂 -->
      <g style="fill: #374151" transform="translate(596.494153 200.46823) scale(0.085 -0.085)">
       <use xlink:href="#HiraginoSansGB-W3-590d"/>
       <use xlink:href="#HiraginoSansGB-W3-6742" x="99.999985"/>
      </g>
     </g>
    </g>
   </g>
   <g id="matplotlib.axis_6">
    <g id="ytick_13">
     <g id="line2d_43">
      <path d="M 465.444297 186.957761 
L 634.184297 186.957761 
" clip-path="url(#p1f1894e6fc)" style="fill: none; stroke: #e5e7eb; stroke-opacity: 0.7; stroke-width: 0.6; stroke-linecap: square"/>
     </g>
     <g id="line2d_44">
      <g>
       <use xlink:href="#m89861ad3f9" x="465.444297" y="186.957761" style="fill: #374151; stroke: #374151; stroke-width: 0.6"/>
      </g>
     </g>
     <g id="text_27">
      <!-- 0.0 -->
      <g style="fill: #374151" transform="translate(445.234766 190.212996) scale(0.085 -0.085)">
       <use xlink:href="#HiraginoSansGB-W3-30"/>
       <use xlink:href="#HiraginoSansGB-W3-2e" x="65.699997"/>
       <use xlink:href="#HiraginoSansGB-W3-30" x="89.699982"/>
      </g>
     </g>
    </g>
    <g id="ytick_14">
     <g id="line2d_45">
      <path d="M 465.444297 158.278557 
L 634.184297 158.278557 
" clip-path="url(#p1f1894e6fc)" style="fill: none; stroke: #e5e7eb; stroke-opacity: 0.7; stroke-width: 0.6; stroke-linecap: square"/>
     </g>
     <g id="line2d_46">
      <g>
       <use xlink:href="#m89861ad3f9" x="465.444297" y="158.278557" style="fill: #374151; stroke: #374151; stroke-width: 0.6"/>
      </g>
     </g>
     <g id="text_28">
      <!-- 0.5 -->
      <g style="fill: #374151" transform="translate(445.234766 161.533791) scale(0.085 -0.085)">
       <defs>
        <path id="HiraginoSansGB-W3-35" d="M 1261 4461 
L 2765 4461 
C 3066 4461 3270 4448 3514 4410 
L 3514 4954 
C 3258 4915 3110 4902 2765 4902 
L 1446 4902 
C 1069 4902 966 4909 768 4934 
C 781 4774 781 4749 781 4659 
C 781 4538 774 4461 762 4275 
L 621 2829 
C 595 2554 576 2419 525 2170 
L 1005 2125 
C 1075 2298 1146 2387 1299 2509 
C 1530 2688 1811 2778 2138 2778 
C 2816 2778 3258 2317 3258 1613 
C 3258 877 2778 390 2061 390 
C 1690 390 1370 525 1152 768 
C 1056 877 1011 960 947 1139 
L 422 986 
C 576 678 666 544 826 384 
C 1133 96 1549 -51 2048 -51 
C 3104 -51 3776 608 3776 1638 
C 3776 2112 3635 2490 3347 2765 
C 3059 3046 2662 3200 2195 3200 
C 1754 3200 1382 3053 1075 2758 
C 1114 2931 1114 2931 1126 3046 
L 1261 4461 
z
" transform="scale(0.015625)"/>
       </defs>
       <use xlink:href="#HiraginoSansGB-W3-30"/>
       <use xlink:href="#HiraginoSansGB-W3-2e" x="65.699997"/>
       <use xlink:href="#HiraginoSansGB-W3-35" x="89.699982"/>
      </g>
     </g>
    </g>
    <g id="ytick_15">
     <g id="line2d_47">
      <path d="M 465.444297 129.599352 
L 634.184297 129.599352 
" clip-path="url(#p1f1894e6fc)" style="fill: none; stroke: #e5e7eb; stroke-opacity: 0.7; stroke-width: 0.6; stroke-linecap: square"/>
     </g>
     <g id="line2d_48">
      <g>
       <use xlink:href="#m89861ad3f9" x="465.444297" y="129.599352" style="fill: #374151; stroke: #374151; stroke-width: 0.6"/>
      </g>
     </g>
     <g id="text_29">
      <!-- 1.0 -->
      <g style="fill: #374151" transform="translate(445.234766 132.854586) scale(0.085 -0.085)">
       <use xlink:href="#HiraginoSansGB-W3-31"/>
       <use xlink:href="#HiraginoSansGB-W3-2e" x="65.699997"/>
       <use xlink:href="#HiraginoSansGB-W3-30" x="89.699982"/>
      </g>
     </g>
    </g>
    <g id="ytick_16">
     <g id="line2d_49">
      <path d="M 465.444297 100.920147 
L 634.184297 100.920147 
" clip-path="url(#p1f1894e6fc)" style="fill: none; stroke: #e5e7eb; stroke-opacity: 0.7; stroke-width: 0.6; stroke-linecap: square"/>
     </g>
     <g id="line2d_50">
      <g>
       <use xlink:href="#m89861ad3f9" x="465.444297" y="100.920147" style="fill: #374151; stroke: #374151; stroke-width: 0.6"/>
      </g>
     </g>
     <g id="text_30">
      <!-- 1.5 -->
      <g style="fill: #374151" transform="translate(445.234766 104.175382) scale(0.085 -0.085)">
       <use xlink:href="#HiraginoSansGB-W3-31"/>
       <use xlink:href="#HiraginoSansGB-W3-2e" x="65.699997"/>
       <use xlink:href="#HiraginoSansGB-W3-35" x="89.699982"/>
      </g>
     </g>
    </g>
    <g id="ytick_17">
     <g id="line2d_51">
      <path d="M 465.444297 72.240943 
L 634.184297 72.240943 
" clip-path="url(#p1f1894e6fc)" style="fill: none; stroke: #e5e7eb; stroke-opacity: 0.7; stroke-width: 0.6; stroke-linecap: square"/>
     </g>
     <g id="line2d_52">
      <g>
       <use xlink:href="#m89861ad3f9" x="465.444297" y="72.240943" style="fill: #374151; stroke: #374151; stroke-width: 0.6"/>
      </g>
     </g>
     <g id="text_31">
      <!-- 2.0 -->
      <g style="fill: #374151" transform="translate(445.234766 75.496177) scale(0.085 -0.085)">
       <use xlink:href="#HiraginoSansGB-W3-32"/>
       <use xlink:href="#HiraginoSansGB-W3-2e" x="65.699997"/>
       <use xlink:href="#HiraginoSansGB-W3-30" x="89.699982"/>
      </g>
     </g>
    </g>
    <g id="ytick_18">
     <g id="line2d_53">
      <path d="M 465.444297 43.561738 
L 634.184297 43.561738 
" clip-path="url(#p1f1894e6fc)" style="fill: none; stroke: #e5e7eb; stroke-opacity: 0.7; stroke-width: 0.6; stroke-linecap: square"/>
     </g>
     <g id="line2d_54">
      <g>
       <use xlink:href="#m89861ad3f9" x="465.444297" y="43.561738" style="fill: #374151; stroke: #374151; stroke-width: 0.6"/>
      </g>
     </g>
     <g id="text_32">
      <!-- 2.5 -->
      <g style="fill: #374151" transform="translate(445.234766 46.816972) scale(0.085 -0.085)">
       <use xlink:href="#HiraginoSansGB-W3-32"/>
       <use xlink:href="#HiraginoSansGB-W3-2e" x="65.699997"/>
       <use xlink:href="#HiraginoSansGB-W3-35" x="89.699982"/>
      </g>
     </g>
    </g>
    <g id="ytick_19">
     <g id="line2d_55">
      <path d="M 465.444297 14.882533 
L 634.184297 14.882533 
" clip-path="url(#p1f1894e6fc)" style="fill: none; stroke: #e5e7eb; stroke-opacity: 0.7; stroke-width: 0.6; stroke-linecap: square"/>
     </g>
     <g id="line2d_56">
      <g>
       <use xlink:href="#m89861ad3f9" x="465.444297" y="14.882533" style="fill: #374151; stroke: #374151; stroke-width: 0.6"/>
      </g>
     </g>
     <g id="text_33">
      <!-- 3.0 -->
      <g style="fill: #374151" transform="translate(445.234766 18.137768) scale(0.085 -0.085)">
       <defs>
        <path id="HiraginoSansGB-W3-33" d="M 288 1088 
C 403 762 480 621 614 467 
C 922 122 1402 -58 2048 -58 
C 3117 -58 3782 480 3782 1344 
C 3782 1754 3635 2093 3354 2310 
C 3136 2477 2938 2547 2566 2586 
C 2861 2643 3002 2694 3168 2816 
C 3450 3014 3616 3360 3616 3750 
C 3616 4518 3027 5005 2099 5005 
C 1542 5005 1107 4845 826 4538 
C 666 4371 589 4224 480 3898 
L 1011 3782 
C 1082 4019 1126 4122 1216 4237 
C 1395 4467 1677 4576 2067 4576 
C 2714 4576 3098 4256 3098 3706 
C 3098 3475 3002 3238 2842 3085 
C 2643 2886 2330 2790 1907 2790 
C 1734 2790 1581 2803 1434 2829 
L 1434 2323 
C 1606 2342 1766 2355 1946 2355 
C 2797 2355 3251 2010 3251 1376 
C 3251 768 2784 384 2042 384 
C 1715 384 1434 461 1216 614 
C 1018 755 928 890 826 1222 
L 288 1088 
z
" transform="scale(0.015625)"/>
       </defs>
       <use xlink:href="#HiraginoSansGB-W3-33"/>
       <use xlink:href="#HiraginoSansGB-W3-2e" x="65.699997"/>
       <use xlink:href="#HiraginoSansGB-W3-30" x="89.699982"/>
      </g>
     </g>
    </g>
    <g id="text_34">
     <!-- 工具调用次数（越少越精简） -->
     <g style="fill: #1f2937" transform="translate(439.398203 155.118267) rotate(-90) scale(0.09 -0.09)">
      <defs>
       <path id="HiraginoSansGB-W3-8c03" d="M 4262 3571 
L 4634 3571 
C 4851 3571 4986 3565 5126 3552 
L 5126 3923 
C 4966 3904 4826 3898 4634 3898 
L 4262 3898 
L 4262 3949 
C 4262 4186 4269 4307 4294 4442 
L 3885 4442 
C 3910 4294 3917 4179 3917 3955 
L 3917 3898 
L 3616 3898 
C 3424 3898 3277 3904 3104 3923 
L 3104 3552 
C 3258 3565 3398 3571 3610 3571 
L 3917 3571 
L 3917 2912 
L 3533 2912 
C 3290 2912 3155 2918 3014 2938 
L 3014 2554 
C 3194 2573 3360 2579 3533 2579 
L 4736 2579 
C 4915 2579 5056 2573 5222 2554 
L 5222 2938 
C 5101 2918 4973 2912 4730 2912 
L 4262 2912 
L 4262 3571 
z
M 1146 742 
C 1120 634 1082 589 941 525 
L 1184 134 
C 1293 224 1293 224 1312 243 
C 1478 378 1478 378 1645 493 
C 1773 582 1958 723 2202 915 
L 2125 1363 
C 1843 1133 1747 1050 1549 909 
L 1549 2682 
C 1549 3002 1555 3162 1581 3360 
C 1434 3341 1274 3328 1094 3328 
L 787 3328 
C 544 3328 454 3334 294 3360 
L 294 2925 
C 454 2950 550 2957 762 2957 
L 1146 2957 
L 1146 742 
z
M 2835 4723 
L 5478 4723 
L 5478 211 
C 5478 51 5434 19 5210 19 
C 5037 19 4832 45 4576 96 
C 4627 -51 4659 -186 4666 -333 
C 4934 -352 5050 -358 5158 -358 
C 5696 -358 5856 -243 5856 134 
L 5856 4480 
C 5856 4762 5862 4928 5882 5107 
C 5715 5088 5581 5082 5261 5082 
L 3027 5082 
C 2726 5082 2579 5088 2406 5107 
C 2438 4832 2445 4634 2445 4378 
L 2445 3571 
C 2438 986 2368 557 1811 -198 
C 1920 -243 1971 -275 2010 -301 
C 2125 -390 2125 -390 2195 -429 
C 2528 83 2675 493 2752 1120 
C 2810 1555 2835 2477 2835 3981 
L 2835 4723 
z
M 4941 1683 
C 4941 1830 4947 1958 4960 2080 
C 4851 2067 4710 2061 4506 2061 
L 3693 2061 
C 3520 2061 3379 2067 3251 2080 
C 3264 1958 3270 1818 3270 1658 
L 3270 666 
C 3270 467 3258 288 3245 192 
L 3616 192 
L 3616 589 
L 4506 589 
C 4877 582 4877 582 4960 570 
C 4947 666 4941 768 4941 922 
L 4941 1683 
z
M 3616 1747 
L 4595 1747 
L 4595 915 
L 3616 915 
L 3616 1747 
z
M 768 4992 
C 1146 4710 1414 4454 1696 4102 
L 1997 4435 
C 1690 4768 1427 5005 1069 5274 
L 768 4992 
z
" transform="scale(0.015625)"/>
       <path id="HiraginoSansGB-W3-7528" d="M 3040 1651 
L 3040 442 
C 3040 102 3034 -90 3008 -256 
L 3469 -256 
C 3443 -102 3437 102 3437 442 
L 3437 1651 
L 5312 1651 
L 5312 205 
C 5312 45 5261 13 4966 13 
C 4736 13 4435 38 4058 83 
C 4115 -77 4141 -186 4154 -333 
C 4448 -352 4717 -365 4954 -365 
C 5574 -365 5715 -269 5715 134 
L 5715 4429 
C 5715 4717 5722 4883 5741 5056 
C 5555 5037 5382 5030 5062 5030 
L 1619 5030 
C 1299 5030 1107 5037 915 5056 
C 934 4781 941 4653 941 4051 
C 941 2432 883 1504 742 909 
C 640 474 499 186 224 -173 
C 390 -269 454 -314 595 -448 
C 1018 160 1203 717 1286 1651 
L 3040 1651 
z
M 3040 3526 
L 1350 3526 
L 1357 3885 
L 1357 4646 
L 3040 4646 
L 3040 3526 
z
M 3437 3526 
L 3437 4646 
L 5312 4646 
L 5312 3526 
L 3437 3526 
z
M 3040 3162 
L 3040 2022 
L 1312 2022 
C 1331 2336 1331 2336 1338 2739 
C 1338 2829 1338 2976 1344 3162 
L 3040 3162 
z
M 3437 3162 
L 5312 3162 
L 5312 2022 
L 3437 2022 
L 3437 3162 
z
" transform="scale(0.015625)"/>
       <path id="HiraginoSansGB-W3-6b21" d="M 5408 3936 
C 5286 3654 5210 3533 5050 3302 
C 4864 3046 4742 2912 4467 2669 
C 4621 2592 4698 2547 4826 2432 
C 5210 2835 5517 3277 5786 3802 
C 5894 4019 5894 4019 5933 4090 
L 5690 4339 
C 5517 4314 5350 4301 5050 4301 
L 3130 4301 
C 3194 4454 3226 4557 3322 4826 
C 3373 4992 3405 5075 3450 5184 
L 2976 5286 
C 2931 4934 2835 4608 2643 4173 
C 2426 3667 2118 3219 1754 2848 
C 1920 2752 1997 2682 2093 2566 
C 2438 2963 2739 3437 2970 3936 
L 5408 3936 
z
M 454 4666 
C 934 4314 1178 4090 1574 3616 
L 1894 3923 
C 1498 4346 1248 4576 774 4941 
L 454 4666 
z
M 1965 2285 
C 1568 1856 1331 1658 838 1306 
C 570 1114 435 1030 269 966 
L 550 538 
C 608 589 653 627 774 710 
C 1267 1075 1830 1555 2182 1914 
L 1965 2285 
z
M 3405 3571 
C 3424 3456 3430 3354 3430 3187 
C 3430 2118 3034 1139 2362 563 
C 2035 288 1747 115 1280 -64 
C 1389 -166 1478 -275 1555 -416 
C 1894 -269 2048 -186 2259 -38 
C 2592 192 2880 474 3091 768 
C 3386 1178 3571 1638 3661 2202 
C 3770 1594 4006 1101 4435 621 
C 4806 205 5222 -102 5830 -410 
C 5914 -243 5990 -134 6106 -6 
C 5741 141 5568 230 5318 397 
C 4992 621 4710 890 4493 1171 
C 4064 1734 3846 2426 3846 3226 
C 3846 3398 3853 3482 3872 3571 
L 3405 3571 
z
" transform="scale(0.015625)"/>
       <path id="HiraginoSansGB-W3-6570" d="M 6138 4115 
C 5965 4083 5837 4077 5542 4077 
L 4186 4077 
C 4294 4422 4314 4486 4397 4819 
C 4480 5133 4480 5133 4512 5222 
L 4077 5318 
C 4051 4915 3930 4410 3750 3942 
C 3526 3347 3296 2950 2963 2560 
C 3104 2483 3168 2438 3283 2310 
C 3501 2592 3597 2739 3750 3053 
C 3878 2285 4058 1760 4410 1171 
C 4019 634 3507 230 2752 -134 
C 2861 -243 2938 -339 3014 -493 
C 3731 -102 4211 288 4640 826 
C 5018 307 5478 -102 6061 -442 
C 6144 -262 6195 -173 6298 -45 
C 5690 275 5242 659 4877 1165 
C 5318 1875 5530 2618 5594 3712 
C 5888 3712 5997 3706 6138 3680 
L 6138 4115 
z
M 5197 3712 
C 5165 3136 5126 2867 5005 2451 
C 4909 2099 4813 1850 4640 1536 
C 4448 1875 4314 2195 4186 2643 
C 4096 2957 4096 2957 3994 3571 
C 4000 3590 4006 3597 4026 3642 
C 4032 3661 4038 3680 4051 3712 
L 5197 3712 
z
M 3014 314 
C 2765 474 2714 499 2445 640 
C 2803 1101 2957 1389 3162 2029 
C 2880 2016 2726 2010 2694 2010 
L 1798 2010 
C 1843 2099 1875 2176 1978 2426 
L 1587 2515 
C 1510 2259 1466 2150 1395 2010 
L 832 2010 
C 602 2010 486 2016 371 2042 
L 371 1638 
C 493 1664 614 1670 832 1670 
L 1222 1670 
C 1056 1382 986 1274 762 979 
C 1331 768 1498 698 1818 544 
C 1434 262 966 58 333 -96 
C 429 -218 480 -307 538 -448 
C 1350 -186 1830 51 2176 358 
C 2419 224 2515 160 2790 -38 
L 3014 314 
z
M 2650 1670 
C 2547 1389 2349 1075 2106 806 
C 1786 954 1670 1005 1299 1146 
C 1485 1427 1542 1517 1626 1670 
L 2650 1670 
z
M 2112 4019 
L 2112 4877 
C 2112 5056 2118 5165 2144 5306 
L 1715 5306 
C 1741 5158 1747 5043 1747 4877 
L 1747 4019 
L 915 4019 
C 666 4019 531 4026 397 4051 
L 397 3654 
C 531 3680 666 3686 902 3686 
L 1491 3686 
C 1338 3469 1325 3450 1235 3354 
C 979 3072 736 2893 288 2624 
C 410 2528 480 2451 570 2317 
C 1197 2765 1446 3021 1773 3578 
C 1754 3398 1747 3328 1747 3206 
L 1747 2848 
C 1747 2758 1741 2669 1722 2586 
L 2138 2586 
C 2118 2669 2112 2758 2112 2854 
L 2112 3245 
C 2157 3219 2182 3206 2240 3174 
C 2547 2995 2618 2944 2899 2701 
L 3117 3014 
C 2662 3302 2662 3302 2112 3565 
L 2112 3686 
L 2950 3686 
C 3168 3686 3270 3680 3386 3661 
L 3386 4045 
C 3277 4026 3181 4019 2957 4019 
L 2112 4019 
z
M 589 5030 
C 800 4742 915 4538 1050 4192 
L 1395 4333 
C 1248 4666 1133 4864 915 5178 
L 589 5030 
z
M 2931 5197 
C 2790 4832 2650 4589 2400 4282 
L 2720 4122 
C 2944 4410 3059 4608 3277 5037 
L 2931 5197 
z
" transform="scale(0.015625)"/>
       <path id="HiraginoSansGB-W3-ff08" d="M 6157 -518 
C 5619 26 5408 314 5184 806 
C 4954 1318 4838 1850 4838 2432 
C 4838 3014 4954 3546 5184 4058 
C 5408 4550 5619 4838 6157 5382 
L 5587 5382 
C 5107 4832 4909 4525 4698 4006 
C 4486 3494 4390 2989 4390 2432 
C 4390 1875 4486 1370 4698 858 
C 4909 339 5107 32 5587 -518 
L 6157 -518 
z
" transform="scale(0.015625)"/>
       <path id="HiraginoSansGB-W3-8d8a" d="M 4026 320 
C 4512 768 4723 979 4934 1254 
C 5242 723 5472 499 5696 499 
C 5914 499 6042 781 6170 1510 
C 6042 1562 5965 1613 5850 1709 
C 5773 1126 5715 922 5632 922 
C 5594 922 5549 966 5421 1133 
C 5299 1293 5254 1370 5152 1594 
C 5440 2099 5536 2349 5722 3066 
C 5760 3219 5786 3290 5818 3386 
L 5440 3526 
C 5370 3078 5197 2522 4979 2042 
C 4832 2477 4768 2931 4710 3962 
L 5408 3962 
C 5645 3962 5837 3949 6010 3923 
L 6010 4339 
C 5875 4314 5709 4307 5408 4307 
L 4698 4307 
C 4691 4371 4691 4390 4691 4467 
C 4691 5171 4691 5171 4717 5318 
L 4282 5318 
C 4314 5094 4314 5075 4314 4403 
C 4314 4365 4314 4352 4314 4307 
L 3667 4307 
C 3398 4307 3238 4314 3078 4333 
C 3098 4166 3104 4006 3104 3750 
L 3104 1389 
C 3085 1216 3066 1184 2950 1114 
L 3168 768 
C 3277 832 3277 832 3757 1120 
C 3853 1178 4013 1280 4333 1491 
L 4256 1850 
C 3846 1574 3699 1485 3526 1395 
C 3501 1382 3501 1382 3475 1370 
L 3475 3962 
L 4333 3962 
C 4403 2867 4512 2246 4749 1632 
C 4422 1190 4154 915 3757 621 
C 3770 614 3795 582 3853 531 
C 3904 480 3917 467 3974 390 
L 4026 320 
z
M 1549 4422 
L 1056 4422 
C 762 4422 646 4429 499 4454 
L 499 4038 
C 666 4064 819 4070 1056 4070 
L 1549 4070 
L 1549 3213 
L 960 3213 
C 666 3213 499 3226 352 3251 
L 352 2822 
C 518 2854 666 2861 960 2861 
L 1594 2861 
L 1594 653 
C 1382 845 1165 1133 1030 1395 
C 1056 1606 1075 1734 1082 1914 
C 1101 2266 1107 2278 1120 2400 
L 704 2426 
C 723 2310 723 2272 723 2170 
C 723 1229 531 442 141 -205 
C 282 -275 352 -320 474 -442 
C 710 0 870 448 960 947 
C 1139 659 1293 467 1485 294 
C 1869 -51 2253 -211 2906 -275 
C 3322 -320 3526 -326 4928 -326 
C 5146 -326 5760 -307 5997 -294 
C 6029 -109 6048 -38 6138 147 
C 5683 90 5037 58 4326 58 
C 3757 58 3232 77 2829 115 
C 2458 147 2221 218 1965 371 
L 1965 1677 
L 2317 1677 
C 2541 1677 2701 1664 2842 1638 
L 2842 2048 
C 2688 2022 2541 2016 2323 2016 
L 1965 2016 
L 1965 2861 
L 2336 2861 
C 2618 2861 2778 2848 2938 2822 
L 2938 3251 
C 2790 3226 2630 3213 2336 3213 
L 1926 3213 
L 1926 4070 
L 2246 4070 
C 2502 4070 2656 4064 2822 4038 
L 2822 4454 
C 2682 4429 2573 4422 2246 4422 
L 1926 4422 
L 1926 4678 
C 1926 4986 1933 5133 1958 5306 
L 1510 5306 
C 1542 5133 1549 4986 1549 4678 
L 1549 4422 
z
M 4947 5088 
C 5210 4870 5350 4710 5542 4442 
L 5811 4666 
C 5613 4922 5530 5011 5210 5299 
L 4947 5088 
z
" transform="scale(0.015625)"/>
       <path id="HiraginoSansGB-W3-5c11" d="M 1536 4397 
C 1485 4147 1414 3930 1306 3674 
C 1037 3034 736 2592 262 2125 
C 422 2029 480 1978 634 1811 
C 1210 2470 1466 2912 1830 3859 
C 1901 4051 1939 4134 1978 4230 
L 1536 4397 
z
M 3462 1408 
C 3430 1606 3418 1818 3418 2054 
L 3418 4781 
C 3418 5030 3424 5171 3456 5325 
L 2950 5325 
C 2976 5178 2989 5018 2989 4774 
L 2989 2054 
C 2989 1824 2976 1626 2944 1408 
L 3462 1408 
z
M 4346 4211 
C 4960 3526 5088 3354 5754 2317 
L 6138 2579 
C 5626 3341 5261 3814 4710 4416 
L 4346 4211 
z
M 4794 2592 
C 4499 1901 3834 1184 3040 723 
C 2368 326 1734 115 608 -83 
C 736 -230 781 -307 864 -512 
C 1965 -282 2682 -19 3341 390 
C 3981 800 4506 1306 4934 1939 
C 5082 2150 5082 2150 5107 2189 
C 5165 2266 5165 2266 5197 2304 
L 4794 2592 
z
" transform="scale(0.015625)"/>
       <path id="HiraginoSansGB-W3-7cbe" d="M 1696 3174 
L 1696 4659 
C 1696 4979 1702 5184 1728 5344 
L 1286 5344 
C 1312 5171 1325 4979 1325 4653 
L 1325 3174 
L 922 3174 
C 691 3174 570 3181 461 3200 
L 461 2803 
C 582 2822 717 2829 922 2829 
L 1280 2829 
C 1222 2586 1107 2221 998 1952 
C 794 1446 595 1101 314 762 
C 422 653 474 576 557 410 
C 934 960 1158 1466 1350 2240 
C 1338 1971 1325 1414 1325 1235 
L 1325 211 
C 1325 -122 1312 -320 1286 -499 
L 1734 -499 
C 1702 -333 1696 -128 1696 211 
L 1696 2118 
C 1971 1786 2144 1530 2342 1184 
L 2611 1459 
C 2304 1894 2099 2150 1824 2426 
C 1741 2509 1741 2509 1696 2554 
L 1696 2829 
L 1946 2829 
C 2131 2829 2266 2822 2400 2803 
L 2400 3200 
C 2291 3181 2144 3174 1946 3174 
L 1696 3174 
z
M 4006 4806 
L 3290 4806 
C 3008 4806 2854 4819 2688 4845 
L 2688 4454 
C 2861 4480 3008 4486 3277 4486 
L 4006 4486 
L 4006 4038 
L 3398 4038 
C 3123 4038 2970 4045 2816 4064 
L 2816 3699 
C 3002 3725 3149 3731 3398 3731 
L 4006 3731 
L 4006 3258 
L 3194 3258 
C 2880 3258 2701 3270 2541 3296 
L 2541 2893 
C 2720 2925 2886 2931 3194 2931 
L 5453 2931 
C 5747 2931 5907 2925 6093 2893 
L 6093 3296 
C 5920 3270 5747 3258 5453 3258 
L 4378 3258 
L 4378 3731 
L 5101 3731 
C 5370 3731 5491 3725 5696 3706 
L 5696 4064 
C 5536 4045 5389 4038 5101 4038 
L 4378 4038 
L 4378 4486 
L 5331 4486 
C 5600 4486 5766 4480 5939 4454 
L 5939 4845 
C 5760 4813 5619 4806 5318 4806 
L 4378 4806 
L 4378 4819 
C 4378 5050 4384 5158 4410 5331 
L 3968 5331 
C 3994 5152 4006 5043 4006 4819 
L 4006 4806 
z
M 3219 608 
L 5222 608 
L 5222 90 
C 5222 -51 5178 -83 4992 -83 
C 4787 -83 4550 -58 4294 -13 
C 4352 -154 4378 -230 4403 -416 
C 4659 -435 4864 -442 5062 -442 
C 5466 -442 5600 -320 5600 51 
L 5600 1888 
C 5600 2221 5606 2419 5626 2573 
C 5498 2547 5331 2541 5037 2541 
L 3418 2541 
C 3168 2541 2982 2547 2822 2566 
C 2835 2400 2842 2304 2842 2010 
L 2842 192 
C 2842 -154 2829 -333 2810 -499 
L 3251 -499 
C 3226 -346 3219 -141 3219 192 
L 3219 608 
z
M 3219 928 
L 3219 1421 
L 5222 1421 
L 5222 928 
L 3219 928 
z
M 3219 1741 
L 3219 2214 
L 5222 2214 
L 5222 1741 
L 3219 1741 
z
M 390 4749 
C 563 4358 659 4032 774 3475 
L 1088 3610 
C 973 4115 858 4499 704 4870 
L 390 4749 
z
M 2189 4902 
C 2131 4397 2054 4045 1894 3610 
L 2182 3488 
C 2349 3942 2406 4154 2522 4781 
L 2189 4902 
z
" transform="scale(0.015625)"/>
       <path id="HiraginoSansGB-W3-ff09" d="M 813 -518 
C 1293 32 1491 339 1702 858 
C 1914 1370 2010 1875 2010 2432 
C 2010 2989 1914 3494 1702 4006 
C 1491 4525 1293 4832 813 5382 
L 243 5382 
C 781 4845 992 4550 1216 4058 
C 1446 3546 1562 3014 1562 2432 
C 1562 1850 1446 1318 1216 806 
C 992 314 781 19 243 -518 
L 813 -518 
z
" transform="scale(0.015625)"/>
      </defs>
      <use xlink:href="#HiraginoSansGB-W3-5de5"/>
      <use xlink:href="#HiraginoSansGB-W3-5177" x="99.999985"/>
      <use xlink:href="#HiraginoSansGB-W3-8c03" x="199.999969"/>
      <use xlink:href="#HiraginoSansGB-W3-7528" x="299.999954"/>
      <use xlink:href="#HiraginoSansGB-W3-6b21" x="399.999939"/>
      <use xlink:href="#HiraginoSansGB-W3-6570" x="499.999924"/>
      <use xlink:href="#HiraginoSansGB-W3-ff08" x="599.999908"/>
      <use xlink:href="#HiraginoSansGB-W3-8d8a" x="699.999893"/>
      <use xlink:href="#HiraginoSansGB-W3-5c11" x="799.999878"/>
      <use xlink:href="#HiraginoSansGB-W3-8d8a" x="899.999863"/>
      <use xlink:href="#HiraginoSansGB-W3-7cbe" x="999.999847"/>
      <use xlink:href="#HiraginoSansGB-W3-7b80" x="1099.999832"/>
      <use xlink:href="#HiraginoSansGB-W3-ff09" x="1199.999817"/>
     </g>
    </g>
   </g>
   <g id="patch_30">
    <path d="M 473.114297 186.957761 
L 487.461059 186.957761 
L 487.461059 83.712624 
L 473.114297 83.712624 
z
" clip-path="url(#p1f1894e6fc)" style="fill: #264653; stroke: #ffffff; stroke-width: 0.4; stroke-linejoin: miter"/>
   </g>
   <g id="patch_31">
    <path d="M 528.294153 186.957761 
L 542.640916 186.957761 
L 542.640916 72.240943 
L 528.294153 72.240943 
z
" clip-path="url(#p1f1894e6fc)" style="fill: #264653; stroke: #ffffff; stroke-width: 0.4; stroke-linejoin: miter"/>
   </g>
   <g id="patch_32">
    <path d="M 583.474009 186.957761 
L 597.820772 186.957761 
L 597.820772 49.297579 
L 583.474009 49.297579 
z
" clip-path="url(#p1f1894e6fc)" style="fill: #264653; stroke: #ffffff; stroke-width: 0.4; stroke-linejoin: miter"/>
   </g>
   <g id="patch_33">
    <path d="M 487.461059 186.957761 
L 501.807822 186.957761 
L 501.807822 14.882533 
L 487.461059 14.882533 
z
" clip-path="url(#p1f1894e6fc)" style="fill: #2a9d8f; stroke: #ffffff; stroke-width: 0.4; stroke-linejoin: miter"/>
   </g>
   <g id="patch_34">
    <path d="M 542.640916 186.957761 
L 556.987678 186.957761 
L 556.987678 43.561738 
L 542.640916 43.561738 
z
" clip-path="url(#p1f1894e6fc)" style="fill: #2a9d8f; stroke: #ffffff; stroke-width: 0.4; stroke-linejoin: miter"/>
   </g>
   <g id="patch_35">
    <path d="M 597.820772 186.957761 
L 612.167534 186.957761 
L 612.167534 26.354215 
L 597.820772 26.354215 
z
" clip-path="url(#p1f1894e6fc)" style="fill: #2a9d8f; stroke: #ffffff; stroke-width: 0.4; stroke-linejoin: miter"/>
   </g>
   <g id="patch_36">
    <path d="M 501.807822 186.957761 
L 516.154585 186.957761 
L 516.154585 26.354215 
L 501.807822 26.354215 
z
" clip-path="url(#p1f1894e6fc)" style="fill: #9c89b8; stroke: #ffffff; stroke-width: 0.4; stroke-linejoin: miter"/>
   </g>
   <g id="patch_37">
    <path d="M 556.987678 186.957761 
L 571.334441 186.957761 
L 571.334441 72.240943 
L 556.987678 72.240943 
z
" clip-path="url(#p1f1894e6fc)" style="fill: #9c89b8; stroke: #ffffff; stroke-width: 0.4; stroke-linejoin: miter"/>
   </g>
   <g id="patch_38">
    <path d="M 612.167534 186.957761 
L 626.514297 186.957761 
L 626.514297 14.882533 
L 612.167534 14.882533 
z
" clip-path="url(#p1f1894e6fc)" style="fill: #9c89b8; stroke: #ffffff; stroke-width: 0.4; stroke-linejoin: miter"/>
   </g>
   <g id="patch_39">
    <path d="M 465.444297 186.957761 
L 465.444297 6.278772 
" style="fill: none; stroke: #374151; stroke-width: 0.8; stroke-linejoin: miter; stroke-linecap: square"/>
   </g>
   <g id="patch_40">
    <path d="M 465.444297 186.957761 
L 634.184297 186.957761 
" style="fill: none; stroke: #374151; stroke-width: 0.8; stroke-linejoin: miter; stroke-linecap: square"/>
   </g>
  </g>
 </g>
 <defs>
  <clipPath id="pb52bc40033">
   <rect x="42.244297" y="6.278772" width="168.74" height="180.678989"/>
  </clipPath>
  <clipPath id="pad931f3915">
   <rect x="253.844297" y="6.278772" width="168.74" height="180.678989"/>
  </clipPath>
  <clipPath id="p1f1894e6fc">
   <rect x="465.444297" y="6.278772" width="168.74" height="180.678989"/>
  </clipPath>
 </defs>
</svg>
