<?xml version="1.0" encoding="utf-8" standalone="no"?>
<!DOCTYPE svg PUBLIC "-//W3C//DTD SVG 1.1//EN"
  "http://www.w3.org/Graphics/SVG/1.1/DTD/svg11.dtd">
<svg xmlns:xlink="http://www.w3.org/1999/xlink" width="457.412734pt" height="215.261pt" viewBox="0 0 457.412734 215.261" xmlns="http://www.w3.org/2000/svg" version="1.1">
 <metadata>
  <rdf:RDF xmlns:dc="http://purl.org/dc/elements/1.1/" xmlns:cc="http://creativecommons.org/ns#" xmlns:rdf="http://www.w3.org/1999/02/22-rdf-syntax-ns#">
   <cc:Work>
    <dc:type rdf:resource="http://purl.org/dc/dcmitype/StillImage"/>
    <dc:date>2026-05-11T17:05:08.354463</dc:date>
    <dc:format>image/svg+xml</dc:format>
    <dc:creator>
     <cc:Agent>
      <dc:title>Matplotlib v3.9.4, https://matplotlib.org/</dc:title>
     </cc:Agent>
    </dc:creator>
   </cc:Work>
  </rdf:RDF>
 </metadata>
 <defs>
  <style type="text/css">*{stroke-linejoin: round; stroke-linecap: butt}</style>
 </defs>
 <g id="figure_1">
  <g id="patch_1">
   <path d="M 0 215.261 
L 457.412734 215.261 
L 457.412734 0 
L 0 0 
z
" style="fill: #ffffff"/>
  </g>
  <g id="axes_1">
   <g id="patch_2">
    <path d="M 38.732734 194.256 
L 451.652734 194.256 
L 451.652734 5.76 
L 38.732734 5.76 
z
" style="fill: #ffffff"/>
   </g>
   <g id="line2d_1">
    <path d="M 57.501825 194.256 
L 57.501825 5.76 
" clip-path="url(#p3f67112a53)" style="fill: none; stroke: #e5e7eb; stroke-width: 0.5; stroke-linecap: square"/>
   </g>
   <g id="line2d_2">
    <path d="M 151.34728 194.256 
L 151.34728 5.76 
" clip-path="url(#p3f67112a53)" style="fill: none; stroke: #e5e7eb; stroke-width: 0.5; stroke-linecap: square"/>
   </g>
   <g id="line2d_3">
    <path d="M 245.192734 194.256 
L 245.192734 5.76 
" clip-path="url(#p3f67112a53)" style="fill: none; stroke: #e5e7eb; stroke-width: 0.5; stroke-linecap: square"/>
   </g>
   <g id="line2d_4">
    <path d="M 339.038189 194.256 
L 339.038189 5.76 
" clip-path="url(#p3f67112a53)" style="fill: none; stroke: #e5e7eb; stroke-width: 0.5; stroke-linecap: square"/>
   </g>
   <g id="line2d_5">
    <path d="M 432.883643 194.256 
L 432.883643 5.76 
" clip-path="url(#p3f67112a53)" style="fill: none; stroke: #e5e7eb; stroke-width: 0.5; stroke-linecap: square"/>
   </g>
   <g id="matplotlib.axis_1">
    <g id="xtick_1">
     <g id="line2d_6">
      <path d="M 57.501825 194.256 
L 57.501825 5.76 
" clip-path="url(#p3f67112a53)" style="fill: none; stroke: #e5e7eb; stroke-opacity: 0.7; stroke-width: 0.6; stroke-linecap: square"/>
     </g>
     <g id="line2d_7">
      <defs>
       <path id="mf3425b8083" d="M 0 0 
L 0 3.5 
" style="stroke: #374151; stroke-width: 0.6"/>
      </defs>
      <g>
       <use xlink:href="#mf3425b8083" x="57.501825" y="194.256" style="fill: #374151; stroke: #374151; stroke-width: 0.6"/>
      </g>
     </g>
     <g id="text_1">
      <!-- 综合得分 -->
      <g style="fill: #374151" transform="translate(40.501825 207.766469) scale(0.085 -0.085)">
       <defs>
        <path id="HiraginoSansGB-W3-7efc" d="M 4531 4646 
C 4429 4877 4282 5126 4096 5370 
L 3776 5197 
C 3904 5018 3962 4922 4122 4646 
L 3206 4646 
C 2963 4646 2714 4659 2528 4678 
C 2547 4544 2547 4486 2547 4307 
L 2547 3866 
C 2547 3667 2541 3590 2528 3450 
L 2918 3450 
L 2918 4294 
L 5638 4294 
L 5638 3437 
L 6042 3437 
C 6022 3584 6016 3686 6016 3872 
L 6016 4269 
C 6016 4474 6022 4544 6035 4678 
C 5856 4659 5638 4646 5421 4646 
L 4531 4646 
z
M 4058 2272 
L 4058 147 
C 4058 38 4013 13 3846 13 
C 3667 13 3507 26 3226 64 
C 3296 -90 3328 -192 3354 -358 
C 3539 -371 3667 -378 3814 -378 
C 4077 -378 4205 -358 4288 -314 
C 4416 -243 4467 -122 4467 102 
L 4467 2272 
L 5408 2272 
C 5632 2272 5837 2259 6010 2234 
L 6010 2662 
C 5837 2637 5670 2624 5408 2624 
L 3219 2624 
C 2957 2624 2803 2637 2630 2662 
L 2630 2234 
C 2810 2266 2963 2272 3219 2272 
L 4058 2272 
z
M 486 1376 
C 698 1427 787 1446 979 1478 
C 1197 1523 2067 1696 2413 1773 
L 2426 2144 
C 1747 1978 1440 1914 1011 1850 
C 1101 1926 1101 1926 1197 2054 
L 1760 2758 
C 1850 2874 2163 3334 2406 3699 
L 2042 3904 
C 1920 3680 1882 3616 1766 3437 
C 1498 3411 1210 3392 896 3373 
C 1133 3731 1299 4038 1587 4672 
C 1632 4768 1632 4768 1798 5120 
L 1382 5286 
C 1069 4429 1018 4314 813 3898 
C 589 3462 557 3424 358 3347 
L 448 2970 
C 973 3046 1254 3078 1549 3098 
C 1312 2752 1126 2496 864 2176 
C 646 1907 557 1824 365 1766 
L 486 1376 
z
M 3155 1843 
C 2957 1075 2784 710 2355 166 
C 2522 70 2579 26 2682 -96 
C 3098 480 3296 902 3526 1702 
L 3155 1843 
z
M 4954 1677 
C 5274 1120 5504 627 5728 -26 
L 6099 173 
C 5734 1024 5549 1408 5280 1830 
L 4954 1677 
z
M 3085 3245 
C 3245 3264 3379 3270 3578 3270 
L 4992 3270 
C 5197 3270 5325 3264 5478 3245 
L 5478 3661 
C 5325 3642 5216 3635 4992 3635 
L 3584 3635 
C 3360 3635 3238 3642 3085 3661 
L 3085 3245 
z
M 2394 922 
C 1696 646 646 352 358 352 
C 346 352 333 352 314 352 
L 435 -90 
C 512 -64 544 -51 646 -26 
C 1395 173 1747 282 2406 531 
L 2394 922 
z
" transform="scale(0.015625)"/>
        <path id="HiraginoSansGB-W3-5408" d="M 3456 5312 
L 3053 5491 
C 2816 5062 2528 4698 2118 4314 
C 1549 3776 1018 3437 224 3098 
C 358 2950 410 2880 467 2733 
C 698 2842 851 2925 1165 3110 
C 1613 3379 1939 3622 2406 4038 
C 2707 4314 2854 4474 3149 4864 
C 3795 4013 4755 3283 5978 2726 
C 6048 2880 6118 2982 6227 3110 
C 5606 3341 5043 3661 4474 4096 
C 3981 4474 3693 4774 3386 5210 
L 3456 5312 
z
M 1690 2925 
C 1824 2944 1990 2950 2189 2950 
L 4179 2950 
C 4422 2950 4576 2944 4717 2925 
L 4717 3360 
C 4582 3341 4429 3334 4179 3334 
L 2195 3334 
C 1958 3334 1805 3341 1690 3360 
L 1690 2925 
z
M 1645 -416 
L 1645 -45 
L 4736 -45 
L 4736 -416 
L 5197 -416 
C 5171 -230 5158 -38 5158 211 
L 5158 1626 
C 5158 1875 5165 2042 5190 2214 
C 5056 2195 4922 2189 4691 2189 
L 1690 2189 
C 1459 2189 1325 2195 1190 2214 
C 1216 2035 1222 1862 1222 1626 
L 1222 211 
C 1222 -32 1210 -218 1184 -416 
L 1645 -416 
z
M 1645 1798 
L 4736 1798 
L 4736 333 
L 1645 333 
L 1645 1798 
z
" transform="scale(0.015625)"/>
        <path id="HiraginoSansGB-W3-5f97" d="M 5114 2285 
L 5267 2285 
C 5498 2285 5677 2278 5856 2253 
L 5856 2669 
C 5702 2643 5530 2630 5261 2630 
L 2547 2630 
C 2259 2630 2112 2637 1952 2662 
L 1952 2253 
C 2125 2278 2310 2285 2541 2285 
L 4717 2285 
L 4717 1760 
L 2406 1760 
C 2150 1760 1984 1773 1818 1798 
L 1818 1382 
C 2003 1408 2170 1414 2406 1414 
L 4717 1414 
L 4717 154 
C 4717 19 4672 -6 4429 -6 
C 4250 -6 3994 26 3680 77 
C 3744 -77 3763 -166 3782 -352 
C 4032 -371 4218 -378 4416 -378 
C 4736 -378 4877 -352 4966 -294 
C 5069 -218 5114 -102 5114 83 
L 5114 1414 
L 5357 1414 
C 5600 1414 5766 1408 5946 1382 
L 5946 1798 
C 5779 1773 5613 1760 5350 1760 
L 5114 1760 
L 5114 2285 
z
M 1613 5344 
C 1382 4832 896 4320 288 3942 
C 410 3840 480 3763 557 3642 
C 922 3891 1184 4128 1485 4474 
C 1632 4646 1632 4646 1971 5107 
L 1613 5344 
z
M 4922 3091 
C 5178 3091 5363 3085 5517 3066 
C 5498 3219 5491 3373 5491 3661 
L 5491 4486 
C 5491 4768 5498 4928 5517 5082 
C 5370 5062 5203 5056 4902 5056 
L 3098 5056 
C 2797 5056 2637 5062 2477 5082 
C 2490 4922 2496 4813 2496 4499 
L 2496 3667 
C 2496 3347 2490 3226 2477 3066 
C 2618 3085 2803 3091 3078 3091 
L 4922 3091 
z
M 2880 4730 
L 5101 4730 
L 5101 4250 
L 2880 4250 
L 2880 4730 
z
M 2880 3923 
L 5101 3923 
L 5101 3411 
L 2880 3411 
L 2880 3923 
z
M 3750 371 
C 3424 794 3251 986 2906 1312 
L 2598 1075 
C 2944 755 3142 518 3418 83 
L 3750 371 
z
M 1069 237 
C 1069 -83 1056 -282 1030 -467 
L 1517 -467 
C 1485 -262 1478 -90 1478 250 
L 1478 2938 
C 1651 3168 1754 3315 1792 3373 
C 1862 3488 1914 3571 1939 3610 
C 2003 3712 2003 3712 2035 3757 
L 1664 3994 
C 1587 3789 1510 3635 1382 3443 
C 1056 2950 666 2554 186 2221 
C 288 2118 346 2035 429 1875 
C 730 2106 902 2278 1088 2534 
C 1075 2246 1069 2048 1069 1792 
L 1069 237 
z
" transform="scale(0.015625)"/>
        <path id="HiraginoSansGB-W3-5206" d="M 4435 2637 
C 4435 1530 4358 666 4224 275 
C 4179 147 4109 115 3917 115 
C 3661 115 3373 147 3002 218 
C 3066 32 3085 -64 3104 -237 
C 3520 -275 3718 -288 3942 -288 
C 4320 -288 4467 -230 4576 -32 
C 4742 269 4864 1350 4864 2592 
C 4870 2880 4870 2931 4890 3046 
C 4704 3021 4512 3014 4218 3014 
L 2112 3014 
C 1850 3014 1632 3027 1446 3053 
L 1446 2598 
C 1645 2624 1862 2637 2106 2637 
L 2509 2637 
C 2464 2061 2374 1722 2163 1318 
C 1856 736 1370 314 550 -83 
C 685 -211 749 -294 832 -442 
C 1613 -38 2112 397 2445 954 
C 2739 1440 2893 1965 2944 2637 
L 4435 2637 
z
M 2246 5293 
C 2214 5101 2131 4902 1971 4621 
C 1542 3853 992 3264 218 2746 
C 365 2624 448 2528 531 2400 
C 1434 3066 2054 3808 2547 4800 
C 2643 4998 2669 5050 2726 5126 
L 2246 5293 
z
M 3667 5114 
C 3699 5062 3738 4992 3770 4934 
C 4371 3757 4915 3110 5926 2362 
C 6022 2528 6106 2637 6227 2752 
C 5350 3328 4806 3904 4339 4742 
C 4205 4986 4147 5114 4096 5280 
L 3667 5114 
z
" transform="scale(0.015625)"/>
       </defs>
       <use xlink:href="#HiraginoSansGB-W3-7efc"/>
       <use xlink:href="#HiraginoSansGB-W3-5408" x="99.999985"/>
       <use xlink:href="#HiraginoSansGB-W3-5f97" x="199.999969"/>
       <use xlink:href="#HiraginoSansGB-W3-5206" x="299.999954"/>
      </g>
     </g>
    </g>
    <g id="xtick_2">
     <g id="line2d_8">
      <path d="M 151.34728 194.256 
L 151.34728 5.76 
" clip-path="url(#p3f67112a53)" style="fill: none; stroke: #e5e7eb; stroke-opacity: 0.7; stroke-width: 0.6; stroke-linecap: square"/>
     </g>
     <g id="line2d_9">
      <g>
       <use xlink:href="#mf3425b8083" x="151.34728" y="194.256" style="fill: #374151; stroke: #374151; stroke-width: 0.6"/>
      </g>
     </g>
     <g id="text_2">
      <!-- 工具 F1 -->
      <g style="fill: #374151" transform="translate(136.081147 207.766469) scale(0.085 -0.085)">
       <defs>
        <path id="HiraginoSansGB-W3-5de5" d="M 3386 4224 
L 4928 4224 
C 5229 4224 5434 4211 5664 4186 
L 5664 4672 
C 5453 4646 5254 4634 4922 4634 
L 1517 4634 
C 1178 4634 979 4646 774 4672 
L 774 4186 
C 998 4211 1210 4224 1510 4224 
L 2925 4224 
L 2925 570 
L 1120 570 
C 781 570 582 582 365 614 
L 365 115 
C 589 147 794 160 1114 160 
L 5318 160 
C 5638 160 5862 147 6067 115 
L 6067 614 
C 5850 582 5651 570 5318 570 
L 3386 570 
L 3386 4224 
z
" transform="scale(0.015625)"/>
        <path id="HiraginoSansGB-W3-5177" d="M 1274 1248 
L 1037 1248 
C 774 1248 550 1261 378 1286 
L 378 832 
C 563 858 774 870 1037 870 
L 5402 870 
C 5651 870 5882 858 6061 832 
L 6061 1286 
C 5888 1261 5664 1248 5395 1248 
L 5133 1248 
L 5133 4442 
C 5133 4749 5139 4915 5165 5069 
C 4941 5043 4787 5037 4506 5037 
L 1958 5037 
C 1658 5037 1446 5043 1242 5069 
C 1267 4890 1274 4749 1274 4467 
L 1274 1248 
z
M 1670 1248 
L 1670 1882 
L 4736 1882 
L 4736 1248 
L 1670 1248 
z
M 1670 2227 
L 1670 2822 
L 4736 2822 
L 4736 2227 
L 1670 2227 
z
M 4736 4685 
L 4736 4109 
L 1670 4109 
L 1670 4685 
L 4736 4685 
z
M 4736 3763 
L 4736 3168 
L 1670 3168 
L 1670 3763 
L 4736 3763 
z
M 2259 730 
C 1997 499 1850 397 1594 262 
C 1280 109 1030 26 474 -109 
C 621 -250 666 -307 762 -467 
C 1645 -205 2022 -6 2618 499 
L 2259 730 
z
M 3821 480 
C 4474 230 4851 26 5568 -467 
L 5850 -128 
C 5146 307 4710 525 4077 736 
L 3821 480 
z
" transform="scale(0.015625)"/>
        <path id="HiraginoSansGB-W3-20" transform="scale(0.015625)"/>
        <path id="HiraginoSansGB-W3-46" d="M 1050 2349 
L 2547 2349 
C 2880 2349 3066 2336 3277 2304 
L 3277 2842 
C 3040 2810 2854 2797 2547 2797 
L 1050 2797 
L 1050 4448 
L 2893 4448 
C 3232 4448 3418 4435 3629 4403 
L 3629 4947 
C 3386 4915 3206 4902 2893 4902 
L 1197 4902 
C 890 4902 717 4909 493 4922 
C 531 4672 544 4467 544 4192 
L 544 787 
C 544 454 531 256 493 38 
L 1101 38 
C 1062 269 1050 442 1050 787 
L 1050 2349 
z
" transform="scale(0.015625)"/>
        <path id="HiraginoSansGB-W3-31" d="M 1030 4429 
C 1216 4454 1382 4467 1587 4467 
L 1933 4467 
L 1933 762 
C 1933 467 1920 262 1882 38 
L 2490 38 
C 2451 275 2438 461 2438 762 
L 2438 3872 
C 2438 4218 2458 4544 2496 4934 
C 2285 4909 2182 4902 1965 4902 
L 1562 4902 
C 1318 4902 1197 4909 1030 4934 
L 1030 4429 
z
" transform="scale(0.015625)"/>
       </defs>
       <use xlink:href="#HiraginoSansGB-W3-5de5"/>
       <use xlink:href="#HiraginoSansGB-W3-5177" x="99.999985"/>
       <use xlink:href="#HiraginoSansGB-W3-20" x="199.999969"/>
       <use xlink:href="#HiraginoSansGB-W3-46" x="233.299957"/>
       <use xlink:href="#HiraginoSansGB-W3-31" x="293.499954"/>
      </g>
     </g>
    </g>
    <g id="xtick_3">
     <g id="line2d_10">
      <path d="M 245.192734 194.256 
L 245.192734 5.76 
" clip-path="url(#p3f67112a53)" style="fill: none; stroke: #e5e7eb; stroke-opacity: 0.7; stroke-width: 0.6; stroke-linecap: square"/>
     </g>
     <g id="line2d_11">
      <g>
       <use xlink:href="#mf3425b8083" x="245.192734" y="194.256" style="fill: #374151; stroke: #374151; stroke-width: 0.6"/>
      </g>
     </g>
     <g id="text_3">
      <!-- 根因命中 -->
      <g style="fill: #374151" transform="translate(228.192734 207.766469) scale(0.085 -0.085)">
       <defs>
        <path id="HiraginoSansGB-W3-6839" d="M 5619 2246 
C 5286 1862 5018 1626 4582 1370 
C 4397 1683 4339 1824 4205 2310 
L 4941 2310 
C 5242 2310 5414 2304 5581 2285 
C 5562 2419 5562 2547 5562 2944 
L 5562 4320 
C 5562 4723 5562 4851 5581 5018 
C 5440 4992 5261 4986 4941 4986 
L 3386 4986 
C 3098 4986 2925 4992 2739 5011 
C 2752 4794 2765 4608 2765 4346 
L 2771 358 
C 2771 96 2746 51 2554 -19 
L 2688 -397 
C 2835 -333 2835 -333 3270 -179 
C 4115 109 4115 109 4326 198 
L 4301 595 
C 3814 384 3648 320 3162 154 
L 3162 2310 
L 3827 2310 
C 4000 1677 4205 1235 4525 800 
C 4870 333 5254 0 5888 -390 
C 6010 -205 6054 -147 6182 -26 
C 5536 314 5133 627 4787 1069 
C 5139 1274 5485 1542 5920 1952 
L 5619 2246 
z
M 3162 3840 
L 3162 4634 
L 5171 4634 
L 5171 3840 
L 3162 3840 
z
M 3162 3488 
L 5171 3488 
L 5171 2656 
L 3162 2656 
L 3162 3488 
z
M 1331 4038 
L 864 4038 
C 672 4038 557 4045 422 4064 
L 422 3661 
C 595 3680 742 3686 864 3686 
L 1280 3686 
C 1088 2848 704 2061 211 1498 
C 333 1376 378 1312 474 1152 
C 902 1715 1120 2170 1370 2982 
C 1344 2573 1338 2253 1338 1952 
L 1338 250 
C 1338 -83 1325 -314 1299 -493 
L 1766 -493 
C 1734 -320 1728 -96 1728 250 
L 1728 2912 
C 2003 2515 2106 2355 2266 2054 
L 2566 2304 
C 2246 2784 2208 2835 1728 3398 
L 1728 3686 
L 2086 3686 
C 2208 3686 2336 3680 2502 3661 
L 2502 4064 
C 2381 4045 2272 4038 2086 4038 
L 1728 4038 
L 1728 4698 
C 1728 5024 1734 5197 1760 5357 
L 1299 5357 
C 1325 5197 1331 5062 1331 4691 
L 1331 4038 
z
" transform="scale(0.015625)"/>
        <path id="HiraginoSansGB-W3-56e0" d="M 2912 3014 
C 2874 2611 2778 2304 2592 2003 
C 2310 1530 1946 1222 1203 845 
C 1363 678 1389 640 1472 493 
C 2317 1056 2496 1210 2797 1619 
C 2982 1882 3078 2074 3181 2400 
C 4243 1165 4243 1165 4646 595 
L 4986 902 
C 4582 1402 3686 2400 3258 2810 
C 3270 2867 3270 2867 3283 3014 
L 4512 3014 
C 4787 3014 4941 3008 5107 2982 
L 5107 3392 
C 4954 3366 4806 3360 4512 3360 
L 3309 3360 
C 3328 3648 3328 3648 3334 3814 
C 3347 4070 3347 4070 3379 4442 
L 2906 4448 
C 2931 4275 2950 4045 2950 3789 
C 2950 3738 2950 3706 2931 3360 
L 1869 3360 
C 1594 3360 1427 3366 1274 3392 
L 1274 2982 
C 1427 3008 1613 3014 1869 3014 
L 2912 3014 
z
M 5862 -486 
C 5830 -307 5824 -122 5824 275 
L 5824 4275 
C 5824 4614 5830 4806 5862 5062 
C 5626 5037 5440 5030 5101 5030 
L 1286 5030 
C 954 5030 768 5037 538 5062 
C 563 4819 576 4595 576 4275 
L 576 288 
C 576 -90 563 -307 538 -486 
L 986 -486 
L 986 -102 
L 5414 -102 
L 5414 -486 
L 5862 -486 
z
M 986 4666 
L 5414 4666 
L 5414 262 
L 986 262 
L 986 4666 
z
" transform="scale(0.015625)"/>
        <path id="HiraginoSansGB-W3-547d" d="M 3456 5312 
L 3066 5504 
C 2931 5248 2803 5082 2566 4826 
C 2240 4480 1837 4154 1389 3872 
C 922 3578 570 3398 192 3270 
C 314 3142 384 3059 467 2906 
C 1190 3277 1600 3526 2125 3923 
C 2528 4224 2797 4486 3142 4890 
C 3808 4083 4608 3514 5933 2899 
C 6016 3072 6080 3155 6202 3290 
C 5709 3450 5082 3770 4550 4128 
C 4045 4467 3706 4787 3373 5210 
L 3456 5312 
z
M 1888 3226 
C 2022 3245 2176 3251 2394 3251 
L 3949 3251 
C 4198 3251 4339 3245 4486 3226 
L 4486 3635 
C 4352 3616 4198 3610 3949 3610 
L 2394 3610 
C 2157 3610 2003 3616 1888 3635 
L 1888 3226 
z
M 1274 403 
L 2445 403 
L 2445 109 
L 2867 109 
C 2848 288 2842 454 2842 678 
L 2842 2125 
C 2842 2381 2848 2541 2861 2707 
C 2714 2694 2566 2688 2278 2688 
L 1427 2688 
C 1152 2688 986 2694 858 2707 
C 870 2509 877 2374 877 2118 
L 877 614 
C 877 358 870 179 845 -38 
L 1274 -38 
L 1274 403 
z
M 1274 2336 
L 2451 2336 
L 2451 755 
L 1274 755 
L 1274 2336 
z
M 3424 192 
C 3424 -90 3411 -326 3386 -531 
L 3859 -531 
C 3834 -365 3821 -115 3821 179 
L 3821 2323 
L 5120 2323 
L 5120 698 
C 5120 525 5075 480 4896 480 
C 4723 480 4506 499 4237 538 
C 4294 390 4314 288 4320 122 
C 4570 109 4723 102 4890 102 
C 5382 102 5523 224 5523 646 
L 5523 1997 
C 5523 2323 5530 2483 5549 2701 
C 5434 2682 5254 2675 4960 2675 
L 3987 2675 
C 3725 2675 3533 2682 3405 2701 
C 3418 2528 3424 2304 3424 2003 
L 3424 192 
z
" transform="scale(0.015625)"/>
        <path id="HiraginoSansGB-W3-4e2d" d="M 3360 4122 
L 3360 4685 
C 3360 4960 3373 5139 3405 5338 
L 2893 5338 
C 2925 5139 2938 4986 2938 4672 
L 2938 4122 
L 1158 4122 
C 954 4122 832 4128 678 4147 
C 698 3981 710 3840 710 3642 
L 710 1894 
C 710 1690 698 1510 672 1325 
L 1133 1325 
L 1133 1760 
L 2938 1760 
L 2938 269 
C 2938 -77 2925 -243 2893 -461 
L 3405 -461 
C 3366 -256 3360 -96 3360 269 
L 3360 1760 
L 5267 1760 
L 5267 1325 
L 5728 1325 
C 5702 1517 5690 1683 5690 1894 
L 5690 3642 
C 5690 3846 5696 3981 5722 4147 
C 5574 4128 5453 4122 5235 4122 
L 3360 4122 
z
M 3360 3738 
L 5267 3738 
L 5267 2144 
L 3360 2144 
L 3360 3738 
z
M 2938 2144 
L 1133 2144 
L 1133 3738 
L 2938 3738 
L 2938 2144 
z
" transform="scale(0.015625)"/>
       </defs>
       <use xlink:href="#HiraginoSansGB-W3-6839"/>
       <use xlink:href="#HiraginoSansGB-W3-56e0" x="99.999985"/>
       <use xlink:href="#HiraginoSansGB-W3-547d" x="199.999969"/>
       <use xlink:href="#HiraginoSansGB-W3-4e2d" x="299.999954"/>
      </g>
     </g>
    </g>
    <g id="xtick_4">
     <g id="line2d_12">
      <path d="M 339.038189 194.256 
L 339.038189 5.76 
" clip-path="url(#p3f67112a53)" style="fill: none; stroke: #e5e7eb; stroke-opacity: 0.7; stroke-width: 0.6; stroke-linecap: square"/>
     </g>
     <g id="line2d_13">
      <g>
       <use xlink:href="#mf3425b8083" x="339.038189" y="194.256" style="fill: #374151; stroke: #374151; stroke-width: 0.6"/>
      </g>
     </g>
     <g id="text_4">
      <!-- 建议相关 -->
      <g style="fill: #374151" transform="translate(322.038189 207.766469) scale(0.085 -0.085)">
       <defs>
        <path id="HiraginoSansGB-W3-5efa" d="M 4109 2842 
L 5133 2842 
C 5306 2842 5370 2842 5587 2829 
C 5581 2899 5574 3046 5574 3194 
L 5574 3718 
L 5606 3718 
C 5824 3718 5946 3712 6086 3693 
L 6086 4077 
C 5933 4051 5805 4038 5606 4038 
L 5574 4038 
L 5574 4493 
C 5574 4589 5574 4723 5581 4787 
C 5587 4864 5587 4864 5587 4896 
C 5472 4883 5331 4877 5120 4877 
L 4109 4877 
C 4109 5075 4115 5229 4141 5363 
L 3706 5363 
C 3725 5210 3738 5062 3738 4877 
L 2931 4877 
C 2714 4877 2598 4883 2458 4909 
L 2458 4531 
C 2605 4550 2733 4557 2918 4557 
L 3738 4557 
L 3738 4038 
L 2675 4038 
C 2387 4038 2246 4051 2080 4077 
L 2080 3686 
C 2240 3712 2400 3718 2669 3718 
L 3738 3718 
L 3738 3162 
L 2918 3162 
C 2694 3162 2586 3168 2451 3194 
L 2451 2816 
C 2605 2835 2720 2842 2899 2842 
L 3738 2842 
L 3738 2291 
L 2880 2291 
C 2675 2291 2509 2298 2355 2323 
L 2355 1939 
C 2509 1958 2675 1971 2880 1971 
L 3738 1971 
L 3738 1408 
L 2720 1408 
C 2470 1408 2298 1421 2144 1446 
L 2144 1050 
C 2323 1075 2464 1082 2714 1082 
L 3738 1082 
L 3738 915 
C 3738 653 3725 506 3706 326 
L 4141 326 
C 4115 493 4109 640 4109 922 
L 4109 1082 
L 5421 1082 
C 5683 1082 5862 1075 6016 1056 
L 6016 1446 
C 5856 1421 5683 1408 5421 1408 
L 4109 1408 
L 4109 1971 
L 5126 1971 
C 5376 1971 5536 1965 5702 1946 
L 5702 2323 
C 5523 2298 5350 2291 5133 2291 
L 4109 2291 
L 4109 2842 
z
M 4109 3162 
L 4109 3718 
L 5203 3718 
L 5203 3162 
L 4109 3162 
z
M 4109 4038 
L 4109 4557 
L 5203 4557 
L 5203 4038 
L 4109 4038 
z
M 1203 3194 
C 1466 3571 1773 4109 1958 4506 
C 2022 4634 2061 4710 2099 4768 
L 1914 5011 
C 1805 4992 1677 4986 1440 4986 
L 832 4986 
C 640 4986 531 4992 390 5018 
L 390 4602 
C 531 4627 646 4634 826 4634 
L 1594 4634 
C 1318 4026 1018 3501 557 2829 
C 704 2842 960 2848 1139 2848 
L 1690 2848 
C 1587 2144 1517 1882 1325 1414 
C 1094 1818 1018 2010 928 2381 
L 544 2227 
C 608 2086 608 2086 826 1594 
C 902 1408 992 1261 1139 1043 
C 870 576 678 339 198 -90 
C 307 -160 397 -250 499 -403 
C 922 13 1152 307 1389 723 
C 2029 -19 2714 -256 4205 -256 
C 4870 -256 5427 -250 6003 -237 
C 6035 -32 6054 13 6138 205 
C 5536 154 4787 122 4122 122 
C 2790 122 2118 365 1568 1056 
C 1824 1619 1990 2214 2074 2899 
C 2106 3123 2106 3123 2125 3219 
C 2016 3200 1901 3194 1619 3194 
L 1203 3194 
z
" transform="scale(0.015625)"/>
        <path id="HiraginoSansGB-W3-8bae" d="M 5338 4890 
L 5338 4851 
C 5338 4474 5274 3949 5171 3475 
C 4979 2573 4672 1894 4198 1306 
C 3718 1888 3418 2541 3187 3482 
C 3085 3891 3002 4384 2963 4858 
L 2515 4749 
C 2560 4614 2560 4602 2624 4256 
C 2816 3245 3002 2598 3245 2067 
C 3424 1696 3667 1306 3904 1018 
C 3744 883 3590 762 3373 621 
C 2925 333 2598 173 1971 -45 
C 2093 -166 2150 -250 2240 -435 
C 3066 -102 3654 243 4179 710 
C 4371 531 4512 416 4749 243 
C 5158 -51 5408 -192 5952 -442 
C 6010 -301 6099 -160 6234 -19 
C 5664 198 5395 326 5018 576 
C 4800 723 4659 832 4474 1011 
C 5126 1747 5536 2771 5747 4192 
C 5798 4563 5811 4640 5843 4768 
L 5338 4890 
z
M 1286 570 
C 1267 352 1254 333 1114 243 
L 1338 -134 
C 1779 109 2214 371 2624 627 
L 2586 1082 
C 2086 755 2016 710 1702 531 
L 1702 2656 
C 1702 2976 1709 3130 1734 3334 
C 1581 3315 1427 3302 1242 3302 
L 864 3302 
C 627 3302 531 3309 371 3334 
L 371 2886 
C 531 2912 627 2918 838 2918 
L 1286 2918 
L 1286 570 
z
M 4704 4026 
C 4410 4544 4211 4813 3782 5280 
L 3450 5056 
C 3878 4576 4064 4314 4365 3757 
L 4704 4026 
z
M 838 4966 
C 1306 4640 1562 4410 1843 4045 
L 2150 4378 
C 1805 4730 1536 4960 1139 5248 
L 838 4966 
z
" transform="scale(0.015625)"/>
        <path id="HiraginoSansGB-W3-76f8" d="M 1786 2982 
C 2042 2637 2234 2317 2413 1939 
L 2726 2202 
C 2387 2720 2330 2803 1786 3456 
L 1786 3725 
L 2259 3725 
C 2406 3725 2534 3718 2675 3706 
L 2675 4102 
C 2560 4083 2432 4077 2253 4077 
L 1786 4077 
L 1786 4698 
C 1786 5011 1792 5203 1818 5357 
L 1350 5357 
C 1376 5210 1382 5062 1382 4691 
L 1382 4077 
L 864 4077 
C 653 4077 518 4083 403 4102 
L 403 3699 
C 525 3718 666 3725 864 3725 
L 1325 3725 
C 1120 2867 678 1952 224 1446 
C 346 1318 390 1248 474 1075 
C 902 1645 1210 2304 1421 3104 
C 1389 2566 1382 2323 1382 2061 
L 1382 250 
C 1382 -83 1370 -314 1344 -493 
L 1824 -493 
C 1798 -320 1786 -96 1786 250 
L 1786 2982 
z
M 3334 -461 
L 3334 0 
L 5363 0 
L 5363 -435 
L 5792 -435 
C 5773 -269 5766 -26 5766 326 
L 5766 4390 
C 5766 4742 5773 4890 5786 5030 
C 5651 5011 5581 5011 5299 5011 
L 3405 5011 
C 3104 5011 3066 5011 2906 5024 
C 2925 4736 2931 4557 2931 4333 
L 2931 320 
C 2931 -13 2918 -243 2899 -461 
L 3334 -461 
z
M 3334 4640 
L 5363 4640 
L 5363 3494 
L 3334 3494 
L 3334 4640 
z
M 3334 3130 
L 5363 3130 
L 5363 1990 
L 3334 1990 
L 3334 3130 
z
M 3334 1626 
L 5363 1626 
L 5363 365 
L 3334 365 
L 3334 1626 
z
" transform="scale(0.015625)"/>
        <path id="HiraginoSansGB-W3-5173" d="M 5363 2029 
C 5638 2029 5824 2016 6022 1990 
L 6022 2445 
C 5830 2419 5632 2406 5357 2406 
L 3258 2406 
C 3296 2739 3302 2906 3322 3610 
L 4947 3610 
C 5190 3610 5389 3597 5587 3571 
L 5587 4019 
C 5376 3994 5216 3981 4954 3981 
L 4192 3981 
C 4378 4218 4640 4659 4890 5158 
L 4461 5312 
C 4282 4813 4115 4499 3744 3981 
L 1350 3981 
C 1126 3981 960 3994 806 4019 
L 806 3571 
C 973 3597 1158 3610 1370 3610 
L 2925 3610 
C 2906 2848 2899 2688 2861 2406 
L 954 2406 
C 723 2406 576 2419 410 2445 
L 410 1990 
C 576 2022 717 2029 947 2029 
L 2797 2029 
C 2688 1587 2534 1286 2259 979 
C 1843 506 1293 205 282 -102 
C 397 -198 474 -307 550 -480 
C 1485 -128 1971 141 2368 518 
C 2739 870 3008 1344 3155 1888 
C 3494 1094 3930 589 4691 102 
C 4998 -96 5152 -166 5830 -442 
C 5926 -224 5952 -186 6086 -51 
C 5664 83 5472 154 5261 256 
C 4870 435 4474 698 4198 973 
C 3923 1235 3699 1562 3462 2029 
L 5363 2029 
z
M 2566 4275 
C 2330 4717 2221 4870 1894 5286 
L 1517 5101 
C 1824 4755 1990 4512 2195 4083 
L 2566 4275 
z
" transform="scale(0.015625)"/>
       </defs>
       <use xlink:href="#HiraginoSansGB-W3-5efa"/>
       <use xlink:href="#HiraginoSansGB-W3-8bae" x="99.999985"/>
       <use xlink:href="#HiraginoSansGB-W3-76f8" x="199.999969"/>
       <use xlink:href="#HiraginoSansGB-W3-5173" x="299.999954"/>
      </g>
     </g>
    </g>
    <g id="xtick_5">
     <g id="line2d_14">
      <path d="M 432.883643 194.256 
L 432.883643 5.76 
" clip-path="url(#p3f67112a53)" style="fill: none; stroke: #e5e7eb; stroke-opacity: 0.7; stroke-width: 0.6; stroke-linecap: square"/>
     </g>
     <g id="line2d_15">
      <g>
       <use xlink:href="#mf3425b8083" x="432.883643" y="194.256" style="fill: #374151; stroke: #374151; stroke-width: 0.6"/>
      </g>
     </g>
     <g id="text_5">
      <!-- 权限合规 -->
      <g style="fill: #374151" transform="translate(415.883643 207.766469) scale(0.085 -0.085)">
       <defs>
        <path id="HiraginoSansGB-W3-6743" d="M 1344 4070 
L 851 4070 
C 640 4070 480 4077 378 4096 
L 378 3686 
C 506 3706 653 3712 845 3712 
L 1286 3712 
C 1056 2752 685 1946 224 1408 
C 333 1299 397 1203 467 1037 
C 896 1600 1158 2182 1376 3078 
C 1357 2707 1344 2336 1344 2054 
L 1344 243 
C 1344 -90 1331 -320 1306 -499 
L 1779 -499 
C 1754 -314 1741 -115 1741 243 
L 1741 2918 
C 1971 2592 2118 2342 2330 1926 
L 2637 2189 
C 2317 2682 2195 2842 1741 3386 
L 1741 3712 
L 2099 3712 
C 2246 3712 2400 3706 2534 3693 
L 2534 4096 
C 2419 4077 2285 4070 2106 4070 
L 1741 4070 
L 1741 4691 
C 1741 5005 1754 5197 1773 5350 
L 1312 5350 
C 1338 5203 1344 5056 1344 4685 
L 1344 4070 
z
M 3014 4870 
C 2784 4870 2637 4877 2458 4902 
L 2458 4467 
C 2611 4486 2758 4499 2938 4499 
C 3002 3878 3098 3392 3245 2931 
C 3430 2362 3712 1798 4051 1312 
C 3584 768 3027 358 2176 -77 
C 2304 -198 2368 -282 2464 -454 
C 3296 13 3853 448 4307 979 
C 4762 422 5229 26 5958 -422 
C 6035 -250 6106 -147 6221 -13 
C 5549 320 5056 710 4563 1299 
C 5203 2202 5594 3219 5830 4621 
C 5862 4826 5862 4826 5882 4896 
C 5728 4877 5574 4870 5382 4870 
L 3014 4870 
z
M 5389 4499 
C 5235 3661 5062 3098 4781 2483 
C 4640 2170 4480 1888 4307 1645 
C 3962 2163 3782 2541 3603 3091 
C 3462 3539 3392 3910 3328 4499 
L 5389 4499 
z
" transform="scale(0.015625)"/>
        <path id="HiraginoSansGB-W3-9650" d="M 5709 2291 
C 5555 2086 5037 1664 4608 1389 
C 4442 1677 4339 1939 4230 2381 
L 5088 2381 
C 5325 2381 5504 2374 5696 2362 
C 5683 2534 5677 2637 5677 3027 
L 5677 4352 
C 5677 4762 5683 4890 5696 5056 
C 5568 5030 5395 5024 5082 5024 
L 3424 5024 
C 3136 5024 2963 5030 2797 5050 
C 2816 4832 2822 4627 2822 4384 
L 2822 365 
C 2790 90 2771 58 2586 -19 
L 2726 -390 
C 2906 -333 2906 -333 3270 -230 
C 3347 -211 3482 -173 3661 -122 
C 3872 -58 3872 -58 4416 96 
L 4410 480 
C 4090 365 3610 224 3277 141 
C 3251 134 3245 134 3219 122 
L 3219 2381 
L 3846 2381 
C 4013 1709 4166 1344 4474 902 
C 4845 365 5254 0 5965 -422 
C 6067 -250 6112 -186 6240 -64 
C 5574 269 5165 595 4800 1088 
C 5254 1395 5632 1677 5933 1926 
C 5978 1965 5984 1965 6016 1997 
L 5709 2291 
z
M 3213 4672 
L 5299 4672 
L 5299 3885 
L 3213 3885 
L 3213 4672 
z
M 3213 3533 
L 5299 3533 
L 5299 2726 
L 3213 2726 
L 3213 3533 
z
M 640 134 
C 640 -102 627 -282 602 -461 
L 1069 -461 
C 1043 -269 1037 -96 1037 134 
L 1037 4749 
L 2125 4749 
C 1869 4083 1747 3808 1395 3155 
C 1709 2816 1830 2643 1946 2381 
C 2042 2157 2086 1933 2086 1702 
C 2086 1434 2003 1357 1728 1357 
C 1568 1357 1440 1370 1274 1402 
C 1331 1267 1357 1171 1370 998 
C 1510 986 1581 986 1677 986 
C 1946 986 2093 1005 2202 1050 
C 2394 1139 2490 1344 2490 1690 
C 2490 1907 2445 2144 2368 2349 
C 2266 2630 2144 2822 1824 3200 
C 2112 3731 2298 4122 2522 4666 
C 2554 4755 2586 4813 2618 4870 
L 2387 5133 
C 2317 5114 2189 5107 1984 5107 
L 1050 5107 
C 858 5107 717 5114 621 5126 
C 634 4966 640 4813 640 4640 
L 640 134 
z
" transform="scale(0.015625)"/>
        <path id="HiraginoSansGB-W3-89c4" d="M 1440 3706 
C 1421 2906 1421 2906 1402 2650 
L 902 2650 
C 698 2650 538 2662 378 2688 
L 378 2240 
C 550 2266 717 2278 922 2278 
L 1370 2278 
C 1331 1882 1248 1536 1114 1203 
C 928 723 723 429 262 0 
C 429 -102 480 -147 582 -288 
C 1152 250 1478 845 1658 1683 
C 1952 1376 2170 1088 2502 557 
L 2810 858 
C 2362 1440 2189 1638 1722 2080 
C 1734 2182 1734 2182 1741 2278 
L 2272 2278 
C 2451 2278 2598 2272 2752 2246 
L 2752 2682 
C 2586 2656 2445 2650 2246 2650 
L 1773 2650 
C 1805 3021 1818 3302 1824 3706 
L 2266 3706 
C 2451 3706 2592 3699 2746 3674 
L 2746 4102 
C 2592 4083 2426 4070 2234 4070 
L 1830 4070 
C 1843 5018 1843 5018 1875 5222 
L 1414 5229 
C 1446 5056 1453 4928 1453 4525 
L 1446 4070 
L 1005 4070 
C 800 4070 640 4083 480 4109 
L 480 3667 
C 653 3693 813 3706 1005 3706 
L 1440 3706 
z
M 3450 1427 
C 3424 1587 3418 1773 3418 2138 
L 3418 4646 
L 5350 4646 
L 5350 2138 
C 5350 1837 5338 1632 5306 1427 
L 5792 1427 
C 5766 1587 5760 1773 5760 2131 
L 5760 4422 
C 5760 4723 5766 4902 5786 5056 
C 5594 5037 5382 5030 5062 5030 
L 3712 5030 
C 3386 5030 3187 5037 2989 5056 
C 3014 4870 3014 4781 3014 4378 
L 3014 2138 
C 3014 1837 3002 1632 2970 1427 
L 3450 1427 
z
M 4115 4154 
C 4154 3955 4154 3910 4154 2970 
C 4154 1773 4038 1312 3622 794 
C 3270 365 2842 70 2266 -141 
C 2381 -256 2451 -352 2528 -493 
C 3021 -262 3187 -160 3501 115 
C 3917 480 4179 845 4346 1280 
C 4493 1664 4557 2202 4557 3021 
C 4563 3955 4563 3955 4602 4154 
L 4115 4154 
z
M 4486 1632 
C 4499 1446 4506 1318 4506 1056 
L 4506 186 
C 4506 -250 4602 -339 5107 -339 
C 5594 -339 5869 -269 5984 -122 
C 6074 6 6118 205 6189 864 
C 6010 902 5882 941 5786 998 
C 5779 640 5741 314 5683 205 
C 5626 83 5478 38 5178 38 
C 4941 38 4890 83 4890 269 
L 4890 1050 
C 4890 1280 4896 1427 4909 1632 
L 4486 1632 
z
" transform="scale(0.015625)"/>
       </defs>
       <use xlink:href="#HiraginoSansGB-W3-6743"/>
       <use xlink:href="#HiraginoSansGB-W3-9650" x="99.999985"/>
       <use xlink:href="#HiraginoSansGB-W3-5408" x="199.999969"/>
       <use xlink:href="#HiraginoSansGB-W3-89c4" x="299.999954"/>
      </g>
     </g>
    </g>
   </g>
   <g id="matplotlib.axis_2">
    <g id="ytick_1">
     <g id="line2d_16">
      <path d="M 38.732734 186.060522 
L 451.652734 186.060522 
" clip-path="url(#p3f67112a53)" style="fill: none; stroke: #e5e7eb; stroke-opacity: 0.7; stroke-width: 0.6; stroke-linecap: square"/>
     </g>
     <g id="line2d_17">
      <defs>
       <path id="m173ee46f02" d="M 0 0 
L -3.5 0 
" style="stroke: #374151; stroke-width: 0.6"/>
      </defs>
      <g>
       <use xlink:href="#m173ee46f02" x="38.732734" y="186.060522" style="fill: #374151; stroke: #374151; stroke-width: 0.6"/>
      </g>
     </g>
     <g id="text_6">
      <!-- 0.0 -->
      <g style="fill: #374151" transform="translate(18.523203 189.315756) scale(0.085 -0.085)">
       <defs>
        <path id="HiraginoSansGB-W3-30" d="M 2099 -58 
C 2688 -58 3136 166 3456 614 
C 3738 1005 3904 1690 3904 2464 
C 3904 2995 3821 3507 3661 3949 
C 3584 4160 3456 4358 3277 4538 
C 2989 4838 2579 4992 2106 4992 
C 1472 4992 979 4723 672 4205 
C 448 3834 301 3142 301 2464 
C 301 1939 384 1434 544 986 
C 621 768 755 570 928 397 
C 1229 96 1626 -58 2099 -58 
z
M 2099 4550 
C 2547 4550 2893 4352 3104 3968 
C 3270 3667 3392 3034 3392 2477 
C 3392 2003 3328 1581 3194 1184 
C 3136 998 3034 832 2893 685 
C 2701 486 2426 384 2106 384 
C 1670 384 1338 570 1114 941 
C 941 1242 813 1869 813 2464 
C 813 2931 877 3366 1011 3757 
C 1062 3917 1165 4077 1299 4224 
C 1504 4442 1766 4550 2099 4550 
z
" transform="scale(0.015625)"/>
        <path id="HiraginoSansGB-W3-2e" d="M 448 672 
L 448 38 
L 1082 38 
L 1082 672 
L 448 672 
z
" transform="scale(0.015625)"/>
       </defs>
       <use xlink:href="#HiraginoSansGB-W3-30"/>
       <use xlink:href="#HiraginoSansGB-W3-2e" x="65.699997"/>
       <use xlink:href="#HiraginoSansGB-W3-30" x="89.699982"/>
      </g>
     </g>
    </g>
    <g id="ytick_2">
     <g id="line2d_18">
      <path d="M 38.732734 153.278609 
L 451.652734 153.278609 
" clip-path="url(#p3f67112a53)" style="fill: none; stroke: #e5e7eb; stroke-opacity: 0.7; stroke-width: 0.6; stroke-linecap: square"/>
     </g>
     <g id="line2d_19">
      <g>
       <use xlink:href="#m173ee46f02" x="38.732734" y="153.278609" style="fill: #374151; stroke: #374151; stroke-width: 0.6"/>
      </g>
     </g>
     <g id="text_7">
      <!-- 0.2 -->
      <g style="fill: #374151" transform="translate(18.523203 156.533843) scale(0.085 -0.085)">
       <defs>
        <path id="HiraginoSansGB-W3-32" d="M 3027 38 
C 3347 38 3558 26 3814 0 
L 3814 538 
C 3571 506 3354 493 3034 493 
L 992 493 
C 1069 800 1158 973 1357 1235 
C 1568 1504 1773 1683 2278 2022 
C 3008 2509 3174 2630 3366 2848 
C 3616 3123 3744 3430 3744 3757 
C 3744 4512 3123 4998 2157 4998 
C 1594 4998 1158 4832 870 4506 
C 659 4269 563 4045 467 3584 
L 1005 3494 
C 1050 3814 1107 3968 1229 4141 
C 1421 4416 1734 4557 2157 4557 
C 2810 4557 3219 4243 3219 3757 
C 3219 3366 3008 3085 2374 2656 
C 1632 2150 1619 2144 1395 1952 
C 992 1606 723 1254 563 851 
C 467 608 448 512 378 6 
C 582 32 678 38 1082 38 
L 3027 38 
z
" transform="scale(0.015625)"/>
       </defs>
       <use xlink:href="#HiraginoSansGB-W3-30"/>
       <use xlink:href="#HiraginoSansGB-W3-2e" x="65.699997"/>
       <use xlink:href="#HiraginoSansGB-W3-32" x="89.699982"/>
      </g>
     </g>
    </g>
    <g id="ytick_3">
     <g id="line2d_20">
      <path d="M 38.732734 120.496696 
L 451.652734 120.496696 
" clip-path="url(#p3f67112a53)" style="fill: none; stroke: #e5e7eb; stroke-opacity: 0.7; stroke-width: 0.6; stroke-linecap: square"/>
     </g>
     <g id="line2d_21">
      <g>
       <use xlink:href="#m173ee46f02" x="38.732734" y="120.496696" style="fill: #374151; stroke: #374151; stroke-width: 0.6"/>
      </g>
     </g>
     <g id="text_8">
      <!-- 0.4 -->
      <g style="fill: #374151" transform="translate(18.49 123.75193) scale(0.085 -0.085)">
       <defs>
        <path id="HiraginoSansGB-W3-34" d="M 198 1254 
C 410 1274 602 1280 960 1280 
L 2675 1280 
L 2675 730 
C 2675 442 2662 262 2624 38 
L 3206 38 
C 3168 275 3155 422 3155 730 
L 3155 1280 
L 3392 1280 
C 3667 1280 3827 1267 4064 1235 
L 4064 1766 
C 3834 1734 3667 1722 3398 1722 
L 3155 1722 
L 3155 3821 
C 3155 4326 3162 4525 3194 4902 
L 2714 4902 
C 2566 4678 2451 4518 2234 4250 
L 614 2227 
C 480 2067 333 1888 198 1734 
L 198 1254 
z
M 2682 1715 
L 768 1715 
L 2240 3571 
C 2426 3808 2586 4019 2720 4211 
C 2688 3885 2682 3680 2682 3341 
L 2682 1715 
z
" transform="scale(0.015625)"/>
       </defs>
       <use xlink:href="#HiraginoSansGB-W3-30"/>
       <use xlink:href="#HiraginoSansGB-W3-2e" x="65.699997"/>
       <use xlink:href="#HiraginoSansGB-W3-34" x="89.699982"/>
      </g>
     </g>
    </g>
    <g id="ytick_4">
     <g id="line2d_22">
      <path d="M 38.732734 87.714783 
L 451.652734 87.714783 
" clip-path="url(#p3f67112a53)" style="fill: none; stroke: #e5e7eb; stroke-opacity: 0.7; stroke-width: 0.6; stroke-linecap: square"/>
     </g>
     <g id="line2d_23">
      <g>
       <use xlink:href="#m173ee46f02" x="38.732734" y="87.714783" style="fill: #374151; stroke: #374151; stroke-width: 0.6"/>
      </g>
     </g>
     <g id="text_9">
      <!-- 0.6 -->
      <g style="fill: #374151" transform="translate(18.523203 90.970017) scale(0.085 -0.085)">
       <defs>
        <path id="HiraginoSansGB-W3-36" d="M 3725 4006 
C 3539 4390 3411 4563 3187 4723 
C 2944 4896 2598 4992 2214 4992 
C 1658 4992 1203 4755 864 4294 
C 557 3878 378 3162 378 2362 
C 378 1453 608 736 1024 352 
C 1299 96 1728 -51 2182 -51 
C 3194 -51 3859 602 3859 1594 
C 3859 2579 3245 3194 2253 3194 
C 1811 3194 1472 3072 1171 2803 
C 1030 2682 966 2592 851 2394 
C 896 3091 954 3386 1120 3770 
C 1350 4294 1728 4563 2227 4563 
C 2547 4563 2797 4454 2989 4243 
C 3085 4134 3130 4045 3213 3840 
L 3725 4006 
z
M 3354 1581 
C 3354 1331 3290 1069 3187 902 
C 2989 582 2605 384 2189 384 
C 1498 384 979 896 979 1587 
C 979 1907 1088 2189 1299 2400 
C 1523 2624 1862 2765 2182 2765 
C 2931 2765 3354 2336 3354 1581 
z
" transform="scale(0.015625)"/>
       </defs>
       <use xlink:href="#HiraginoSansGB-W3-30"/>
       <use xlink:href="#HiraginoSansGB-W3-2e" x="65.699997"/>
       <use xlink:href="#HiraginoSansGB-W3-36" x="89.699982"/>
      </g>
     </g>
    </g>
    <g id="ytick_5">
     <g id="line2d_24">
      <path d="M 38.732734 54.93287 
L 451.652734 54.93287 
" clip-path="url(#p3f67112a53)" style="fill: none; stroke: #e5e7eb; stroke-opacity: 0.7; stroke-width: 0.6; stroke-linecap: square"/>
     </g>
     <g id="line2d_25">
      <g>
       <use xlink:href="#m173ee46f02" x="38.732734" y="54.93287" style="fill: #374151; stroke: #374151; stroke-width: 0.6"/>
      </g>
     </g>
     <g id="text_10">
      <!-- 0.8 -->
      <g style="fill: #374151" transform="translate(18.523203 58.188104) scale(0.085 -0.085)">
       <defs>
        <path id="HiraginoSansGB-W3-38" d="M 2752 2586 
C 3322 2694 3680 3142 3680 3738 
C 3680 4525 3078 5005 2099 5005 
C 1133 5005 525 4512 525 3738 
C 525 3142 890 2688 1453 2586 
C 1216 2547 1075 2496 877 2368 
C 493 2118 307 1766 307 1306 
C 307 422 954 -64 2125 -64 
C 3251 -64 3891 429 3891 1306 
C 3891 1734 3731 2074 3411 2310 
C 3200 2470 3021 2547 2752 2586 
z
M 2099 4576 
C 2758 4576 3181 4237 3181 3699 
C 3181 3130 2778 2784 2106 2784 
C 1434 2784 1024 3130 1024 3699 
C 1024 4230 1446 4576 2099 4576 
z
M 2099 2342 
C 2886 2342 3366 1965 3366 1338 
C 3366 1075 3283 851 3123 704 
C 2906 486 2541 371 2093 371 
C 1299 371 832 730 832 1338 
C 832 1958 1312 2342 2099 2342 
z
" transform="scale(0.015625)"/>
       </defs>
       <use xlink:href="#HiraginoSansGB-W3-30"/>
       <use xlink:href="#HiraginoSansGB-W3-2e" x="65.699997"/>
       <use xlink:href="#HiraginoSansGB-W3-38" x="89.699982"/>
      </g>
     </g>
    </g>
    <g id="ytick_6">
     <g id="line2d_26">
      <path d="M 38.732734 22.150957 
L 451.652734 22.150957 
" clip-path="url(#p3f67112a53)" style="fill: none; stroke: #e5e7eb; stroke-opacity: 0.7; stroke-width: 0.6; stroke-linecap: square"/>
     </g>
     <g id="line2d_27">
      <g>
       <use xlink:href="#m173ee46f02" x="38.732734" y="22.150957" style="fill: #374151; stroke: #374151; stroke-width: 0.6"/>
      </g>
     </g>
     <g id="text_11">
      <!-- 1.0 -->
      <g style="fill: #374151" transform="translate(18.523203 25.406191) scale(0.085 -0.085)">
       <use xlink:href="#HiraginoSansGB-W3-31"/>
       <use xlink:href="#HiraginoSansGB-W3-2e" x="65.699997"/>
       <use xlink:href="#HiraginoSansGB-W3-30" x="89.699982"/>
      </g>
     </g>
    </g>
    <g id="text_12">
     <!-- 各维度归一化值 -->
     <g style="fill: #1f2937" transform="translate(12.653438 131.508) rotate(-90) scale(0.09 -0.09)">
      <defs>
       <path id="HiraginoSansGB-W3-5404" d="M 4672 4781 
C 4506 4755 4333 4749 4070 4749 
L 2573 4749 
L 2938 5286 
L 2496 5408 
C 2426 5222 2304 5024 2106 4762 
C 1632 4122 1165 3712 474 3309 
C 595 3213 659 3136 749 2995 
C 1261 3309 1651 3635 2016 4051 
C 2278 3674 2566 3373 2931 3072 
C 2189 2534 1370 2150 320 1843 
C 435 1696 461 1645 525 1453 
C 941 1600 1056 1645 1427 1811 
C 1440 1645 1446 1510 1446 1408 
L 1446 90 
C 1446 -102 1434 -275 1408 -480 
L 1850 -480 
L 1850 -96 
L 4608 -96 
L 4608 -480 
L 5050 -480 
C 5024 -288 5011 -115 5011 90 
L 5011 1408 
C 5011 1594 5018 1747 5037 1869 
C 5280 1766 5459 1702 5901 1555 
C 5946 1715 6010 1843 6099 1978 
C 5376 2170 4986 2310 4416 2586 
C 4102 2733 3904 2854 3571 3072 
C 4006 3443 4352 3795 4710 4262 
C 4800 4378 4838 4422 4896 4493 
L 4672 4781 
z
M 1875 1901 
C 1792 1901 1760 1901 1645 1907 
C 1677 1920 1683 1926 1728 1946 
C 2317 2202 2771 2464 3258 2822 
C 3712 2496 4307 2170 4934 1914 
C 4845 1907 4730 1901 4582 1901 
L 1875 1901 
z
M 4307 4403 
C 3910 3898 3654 3635 3245 3309 
C 2867 3597 2586 3885 2253 4326 
C 2266 4346 2272 4352 2285 4365 
C 2298 4384 2298 4384 2310 4403 
L 4307 4403 
z
M 1850 1549 
L 4608 1549 
L 4608 262 
L 1850 262 
L 1850 1549 
z
" transform="scale(0.015625)"/>
       <path id="HiraginoSansGB-W3-7ef4" d="M 4787 1267 
L 5280 1267 
C 5600 1261 5600 1261 5645 1261 
C 5709 1261 5766 1254 5875 1235 
L 5875 1658 
C 5741 1632 5549 1619 5286 1619 
L 4787 1619 
L 4787 2522 
L 5280 2522 
C 5562 2522 5722 2515 5862 2490 
L 5862 2912 
C 5734 2886 5536 2874 5274 2874 
L 4787 2874 
L 4787 3738 
L 5395 3738 
C 5690 3738 5875 3731 6022 3706 
L 6022 4134 
C 5882 4109 5664 4096 5395 4096 
L 5114 4096 
C 4979 4493 4838 4806 4602 5261 
L 4262 5120 
C 4461 4762 4608 4442 4717 4096 
L 3520 4096 
C 3622 4288 3840 4749 3936 4986 
C 3981 5094 4000 5126 4032 5184 
L 3616 5312 
C 3578 5088 3494 4851 3328 4499 
C 3021 3846 2707 3392 2234 2918 
C 2342 2842 2451 2726 2515 2618 
C 2778 2918 2970 3174 3072 3360 
C 3059 3219 3053 2867 3053 2656 
L 3053 211 
C 3053 -77 3040 -282 3014 -442 
L 3430 -442 
L 3430 -32 
L 5446 -32 
C 5722 -32 5914 -45 6074 -64 
L 6074 365 
C 5926 333 5792 326 5446 326 
L 4787 326 
L 4787 1267 
z
M 3430 2874 
L 3430 3738 
L 4416 3738 
L 4416 2874 
L 3430 2874 
z
M 3430 2522 
L 4416 2522 
L 4416 1619 
L 3430 1619 
L 3430 2522 
z
M 3430 1267 
L 4416 1267 
L 4416 326 
L 3430 326 
L 3430 1267 
z
M 525 1280 
C 794 1363 960 1402 1203 1453 
C 2221 1651 2221 1651 2426 1690 
L 2470 2086 
C 2029 1971 1958 1952 1024 1766 
C 1600 2406 1907 2810 2502 3699 
L 2131 3904 
C 1997 3661 1984 3635 1805 3354 
C 1395 3322 1395 3322 909 3290 
C 1146 3654 1318 3981 1606 4640 
C 1651 4742 1651 4742 1824 5107 
L 1408 5274 
C 1376 5184 1350 5120 1338 5075 
C 1261 4851 1216 4723 1203 4698 
C 1101 4429 928 4032 826 3834 
C 602 3386 570 3341 371 3264 
L 480 2861 
C 678 2925 1030 2976 1491 3008 
C 1536 3008 1536 3008 1574 3014 
C 1344 2675 1344 2675 1069 2323 
C 678 1830 627 1779 518 1747 
C 422 1728 422 1728 397 1715 
L 525 1280 
z
M 2477 941 
C 2182 806 2093 774 1798 678 
C 1427 563 1094 467 877 416 
C 582 346 480 326 358 320 
L 486 -128 
C 538 -102 538 -102 774 -38 
C 1491 166 1933 307 2496 531 
L 2477 941 
z
" transform="scale(0.015625)"/>
       <path id="HiraginoSansGB-W3-5ea6" d="M 2432 3411 
L 2432 2778 
C 2432 2650 2426 2515 2413 2394 
C 2502 2406 2618 2406 2874 2406 
L 4301 2406 
C 4544 2406 4589 2406 4717 2394 
C 4704 2509 4698 2630 4698 2778 
L 4698 3411 
L 5466 3411 
C 5741 3411 5907 3405 6048 3379 
L 6048 3789 
C 5894 3763 5754 3757 5466 3757 
L 4698 3757 
L 4698 3853 
C 4698 4038 4704 4160 4723 4275 
L 4282 4275 
C 4294 4154 4307 4019 4307 3853 
L 4307 3757 
L 2822 3757 
L 2822 3866 
C 2822 4026 2829 4141 2848 4275 
L 2406 4275 
C 2426 4154 2432 4038 2432 3859 
L 2432 3757 
L 1267 3757 
L 1274 4435 
L 5370 4435 
C 5670 4435 5843 4429 6035 4403 
L 6035 4826 
C 5869 4800 5677 4787 5338 4787 
L 3770 4787 
C 3731 4845 3731 4851 3725 4858 
C 3494 5248 3494 5248 3379 5414 
L 3034 5222 
C 3162 5050 3194 4998 3322 4787 
L 1498 4787 
C 1248 4787 1043 4800 838 4819 
C 858 4634 864 4442 864 4038 
C 864 2605 806 1715 672 1082 
C 582 640 454 320 218 -77 
C 352 -166 442 -243 557 -390 
C 845 134 979 512 1088 1082 
C 1197 1670 1242 2214 1267 3411 
L 2432 3411 
z
M 2822 3411 
L 4307 3411 
L 4307 2733 
L 2822 2733 
L 2822 3411 
z
M 5018 1926 
C 4890 1914 4781 1907 4576 1907 
L 2253 1907 
C 1926 1907 1747 1914 1606 1939 
L 1606 1542 
C 1773 1568 1914 1574 2240 1574 
C 2566 1101 2848 800 3270 499 
C 2675 205 2054 38 1120 -83 
C 1216 -237 1261 -333 1299 -480 
C 2298 -307 2918 -102 3622 275 
C 4256 -96 4934 -314 5888 -454 
C 5939 -288 5990 -173 6080 -32 
C 5312 19 4621 198 3994 499 
C 4346 742 4736 1094 5030 1434 
C 5139 1562 5171 1594 5248 1677 
L 5018 1926 
z
M 4653 1574 
C 4250 1139 4045 966 3629 704 
C 3200 973 2925 1229 2688 1574 
L 4653 1574 
z
" transform="scale(0.015625)"/>
       <path id="HiraginoSansGB-W3-5f52" d="M 5408 -384 
L 5856 -384 
C 5830 -186 5824 -83 5824 205 
L 5824 4237 
C 5824 4461 5830 4646 5843 4819 
C 5626 4806 5434 4800 5165 4800 
L 3603 4800 
C 3322 4800 3104 4806 2906 4832 
L 2906 4371 
C 3117 4397 3322 4403 3597 4403 
L 5408 4403 
L 5408 2694 
L 3776 2694 
C 3501 2694 3283 2707 3110 2726 
L 3110 2272 
C 3315 2291 3539 2304 3782 2304 
L 5408 2304 
L 5408 416 
L 3475 416 
C 3219 416 2982 422 2810 448 
L 2810 -6 
C 2995 13 3238 26 3475 26 
L 5408 26 
L 5408 -384 
z
M 493 -83 
C 685 -186 774 -256 902 -403 
C 1805 352 2144 934 2259 1939 
C 2304 2278 2330 2842 2336 3354 
L 2336 4122 
L 2342 4704 
C 2342 5062 2349 5190 2368 5325 
L 1888 5325 
C 1914 5184 1920 5037 1920 4730 
C 1926 4397 1926 4115 1926 3955 
C 1926 3514 1920 3040 1914 2688 
C 1888 2029 1837 1645 1722 1331 
C 1523 781 1146 346 493 -83 
z
M 538 1203 
L 998 1203 
C 973 1370 966 1530 966 1760 
L 966 4109 
C 966 4346 973 4493 998 4627 
L 538 4627 
C 563 4480 570 4307 570 4109 
L 570 1760 
C 570 1517 563 1363 538 1203 
z
" transform="scale(0.015625)"/>
       <path id="HiraginoSansGB-W3-4e00" d="M 6016 2771 
C 5824 2739 5549 2726 5171 2726 
L 1229 2726 
C 858 2726 582 2739 378 2771 
L 378 2240 
C 582 2272 877 2285 1229 2285 
L 5171 2285 
C 5568 2285 5786 2272 6016 2240 
L 6016 2771 
z
" transform="scale(0.015625)"/>
       <path id="HiraginoSansGB-W3-5316" d="M 3514 1926 
C 3878 2157 4262 2451 4525 2694 
C 4979 3110 5306 3456 5626 3853 
C 5830 4115 5850 4134 5946 4237 
L 5523 4512 
C 5421 4301 5210 4006 4934 3680 
C 4429 3085 3994 2688 3514 2368 
L 3514 4570 
C 3514 4851 3526 5088 3552 5261 
L 3053 5261 
C 3072 5101 3091 4851 3091 4570 
L 3091 2112 
C 2541 1818 2355 1734 2029 1632 
C 2170 1498 2221 1434 2291 1286 
C 2547 1382 2611 1414 3091 1670 
L 3091 326 
C 3091 -173 3251 -250 4320 -250 
C 5293 -250 5600 -192 5760 19 
C 5894 205 5984 570 6061 1274 
C 5926 1312 5792 1370 5638 1472 
C 5587 781 5523 442 5421 301 
C 5325 179 5088 147 4352 147 
C 3603 147 3514 173 3514 403 
L 3514 1926 
z
M 1357 320 
C 1357 26 1338 -218 1312 -474 
L 1811 -474 
C 1786 -211 1773 51 1773 301 
L 1773 3654 
C 2042 4262 2227 4685 2285 4845 
C 2394 5139 2394 5139 2419 5203 
L 1946 5338 
C 1914 5088 1862 4909 1728 4570 
C 1402 3744 954 3072 282 2413 
C 371 2317 486 2163 557 2042 
C 934 2445 1178 2765 1370 3117 
C 1357 2778 1357 2694 1357 2336 
L 1357 320 
z
" transform="scale(0.015625)"/>
       <path id="HiraginoSansGB-W3-503c" d="M 2906 3706 
C 2701 3706 2560 3712 2426 3725 
C 2438 3590 2451 3430 2451 3232 
L 2451 70 
L 2317 70 
C 2144 70 1946 83 1786 109 
L 1786 -333 
C 2016 -307 2182 -301 2432 -301 
L 5395 -301 
C 5696 -301 5888 -314 6080 -339 
L 6080 109 
C 5914 90 5709 70 5587 70 
L 5510 70 
L 5510 3232 
C 5510 3443 5517 3584 5536 3725 
C 5382 3712 5261 3706 5050 3706 
L 3936 3706 
C 4026 4064 4077 4282 4096 4365 
L 5395 4365 
C 5696 4365 5888 4352 6080 4326 
L 6080 4755 
C 5869 4730 5690 4717 5402 4717 
L 4160 4717 
C 4166 4774 4166 4774 4179 4826 
C 4192 4915 4192 4922 4211 5011 
C 4250 5242 4250 5242 4262 5312 
L 3814 5344 
C 3814 5312 3814 5299 3814 5280 
C 3814 5165 3802 5082 3757 4717 
L 2611 4717 
C 2349 4717 2176 4730 1997 4755 
L 1997 4333 
C 2214 4358 2394 4365 2611 4365 
L 3693 4365 
C 3635 4083 3629 4058 3533 3706 
L 2906 3706 
z
M 2854 3386 
L 5107 3386 
L 5107 2797 
L 2854 2797 
L 2854 3386 
z
M 2854 2483 
L 5107 2483 
L 5107 1894 
L 2854 1894 
L 2854 2483 
z
M 2854 1581 
L 5107 1581 
L 5107 992 
L 2854 992 
L 2854 1581 
z
M 2854 672 
L 5107 672 
L 5107 70 
L 2854 70 
L 2854 672 
z
M 1370 3642 
C 1440 3814 1440 3814 1658 4314 
C 1715 4435 1754 4538 1869 4877 
C 1920 5030 1939 5101 1990 5222 
L 1536 5338 
C 1504 5107 1466 4966 1338 4614 
C 1062 3834 685 3200 166 2637 
C 275 2534 352 2432 442 2285 
C 666 2547 794 2739 979 3085 
C 966 2752 960 2573 960 2317 
L 960 326 
C 960 -13 947 -218 922 -454 
L 1402 -454 
C 1376 -250 1370 6 1370 320 
L 1370 3642 
z
" transform="scale(0.015625)"/>
      </defs>
      <use xlink:href="#HiraginoSansGB-W3-5404"/>
      <use xlink:href="#HiraginoSansGB-W3-7ef4" x="99.999985"/>
      <use xlink:href="#HiraginoSansGB-W3-5ea6" x="199.999969"/>
      <use xlink:href="#HiraginoSansGB-W3-5f52" x="299.999954"/>
      <use xlink:href="#HiraginoSansGB-W3-4e00" x="399.999939"/>
      <use xlink:href="#HiraginoSansGB-W3-5316" x="499.999924"/>
      <use xlink:href="#HiraginoSansGB-W3-503c" x="599.999908"/>
     </g>
    </g>
   </g>
   <g id="line2d_28">
    <path d="M 57.501825 61.598525 
L 151.34728 26.65847 
L 245.192734 40.36313 
L 339.038189 58.575304 
L 432.883643 40.36313 
" clip-path="url(#p3f67112a53)" style="fill: none; stroke: #264653; stroke-width: 1.6; stroke-linecap: square"/>
    <defs>
     <path id="m08c1a37f33" d="M 0 2.5 
C 0.663008 2.5 1.29895 2.236584 1.767767 1.767767 
C 2.236584 1.29895 2.5 0.663008 2.5 0 
C 2.5 -0.663008 2.236584 -1.29895 1.767767 -1.767767 
C 1.29895 -2.236584 0.663008 -2.5 0 -2.5 
C -0.663008 -2.5 -1.29895 -2.236584 -1.767767 -1.767767 
C -2.236584 -1.29895 -2.5 -0.663008 -2.5 0 
C -2.5 0.663008 -2.236584 1.29895 -1.767767 1.767767 
C -1.29895 2.236584 -0.663008 2.5 0 2.5 
z
" style="stroke: #264653"/>
    </defs>
    <g clip-path="url(#p3f67112a53)">
     <use xlink:href="#m08c1a37f33" x="57.501825" y="61.598525" style="fill: #264653; stroke: #264653"/>
     <use xlink:href="#m08c1a37f33" x="151.34728" y="26.65847" style="fill: #264653; stroke: #264653"/>
     <use xlink:href="#m08c1a37f33" x="245.192734" y="40.36313" style="fill: #264653; stroke: #264653"/>
     <use xlink:href="#m08c1a37f33" x="339.038189" y="58.575304" style="fill: #264653; stroke: #264653"/>
     <use xlink:href="#m08c1a37f33" x="432.883643" y="40.36313" style="fill: #264653; stroke: #264653"/>
    </g>
   </g>
   <g id="line2d_29">
    <path d="M 57.501825 86.075687 
L 151.34728 41.664 
L 245.192734 40.36313 
L 339.038189 73.145043 
L 432.883643 40.36313 
" clip-path="url(#p3f67112a53)" style="fill: none; stroke: #2a9d8f; stroke-width: 1.6; stroke-linecap: square"/>
    <defs>
     <path id="ma558b7f461" d="M 0 2.5 
C 0.663008 2.5 1.29895 2.236584 1.767767 1.767767 
C 2.236584 1.29895 2.5 0.663008 2.5 0 
C 2.5 -0.663008 2.236584 -1.29895 1.767767 -1.767767 
C 1.29895 -2.236584 0.663008 -2.5 0 -2.5 
C -0.663008 -2.5 -1.29895 -2.236584 -1.767767 -1.767767 
C -2.236584 -1.29895 -2.5 -0.663008 -2.5 0 
C -2.5 0.663008 -2.236584 1.29895 -1.767767 1.767767 
C -1.29895 2.236584 -0.663008 2.5 0 2.5 
z
" style="stroke: #2a9d8f"/>
    </defs>
    <g clip-path="url(#p3f67112a53)">
     <use xlink:href="#ma558b7f461" x="57.501825" y="86.075687" style="fill: #2a9d8f; stroke: #2a9d8f"/>
     <use xlink:href="#ma558b7f461" x="151.34728" y="41.664" style="fill: #2a9d8f; stroke: #2a9d8f"/>
     <use xlink:href="#ma558b7f461" x="245.192734" y="40.36313" style="fill: #2a9d8f; stroke: #2a9d8f"/>
     <use xlink:href="#ma558b7f461" x="339.038189" y="73.145043" style="fill: #2a9d8f; stroke: #2a9d8f"/>
     <use xlink:href="#ma558b7f461" x="432.883643" y="40.36313" style="fill: #2a9d8f; stroke: #2a9d8f"/>
    </g>
   </g>
   <g id="line2d_30">
    <path d="M 57.501825 113.776403 
L 151.34728 100.008 
L 245.192734 40.36313 
L 339.038189 84.072348 
L 432.883643 40.36313 
" clip-path="url(#p3f67112a53)" style="fill: none; stroke: #9c89b8; stroke-width: 1.6; stroke-linecap: square"/>
    <defs>
     <path id="m8f7988b2b0" d="M 0 2.5 
C 0.663008 2.5 1.29895 2.236584 1.767767 1.767767 
C 2.236584 1.29895 2.5 0.663008 2.5 0 
C 2.5 -0.663008 2.236584 -1.29895 1.767767 -1.767767 
C 1.29895 -2.236584 0.663008 -2.5 0 -2.5 
C -0.663008 -2.5 -1.29895 -2.236584 -1.767767 -1.767767 
C -2.236584 -1.29895 -2.5 -0.663008 -2.5 0 
C -2.5 0.663008 -2.236584 1.29895 -1.767767 1.767767 
C -1.29895 2.236584 -0.663008 2.5 0 2.5 
z
" style="stroke: #9c89b8"/>
    </defs>
    <g clip-path="url(#p3f67112a53)">
     <use xlink:href="#m8f7988b2b0" x="57.501825" y="113.776403" style="fill: #9c89b8; stroke: #9c89b8"/>
     <use xlink:href="#m8f7988b2b0" x="151.34728" y="100.008" style="fill: #9c89b8; stroke: #9c89b8"/>
     <use xlink:href="#m8f7988b2b0" x="245.192734" y="40.36313" style="fill: #9c89b8; stroke: #9c89b8"/>
     <use xlink:href="#m8f7988b2b0" x="339.038189" y="84.072348" style="fill: #9c89b8; stroke: #9c89b8"/>
     <use xlink:href="#m8f7988b2b0" x="432.883643" y="40.36313" style="fill: #9c89b8; stroke: #9c89b8"/>
    </g>
   </g>
   <g id="patch_3">
    <path d="M 38.732734 194.256 
L 38.732734 5.76 
" style="fill: none; stroke: #374151; stroke-width: 0.8; stroke-linejoin: miter; stroke-linecap: square"/>
   </g>
   <g id="patch_4">
    <path d="M 38.732734 194.256 
L 451.652734 194.256 
" style="fill: none; stroke: #374151; stroke-width: 0.8; stroke-linejoin: miter; stroke-linecap: square"/>
   </g>
   <g id="legend_1">
    <g id="line2d_31">
     <path d="M 46.382734 181.896469 
L 54.882734 181.896469 
L 63.382734 181.896469 
" style="fill: none; stroke: #264653; stroke-width: 1.6; stroke-linecap: square"/>
     <g>
      <use xlink:href="#m08c1a37f33" x="54.882734" y="181.896469" style="fill: #264653; stroke: #264653"/>
     </g>
    </g>
    <g id="text_13">
     <!-- MOPS (本文) -->
     <g transform="translate(70.182734 184.871469) scale(0.085 -0.085)">
      <defs>
       <path id="HiraginoSansGB-W3-4d" d="M 2554 710 
C 2682 422 2758 205 2790 38 
L 3245 38 
C 3296 250 3360 416 3488 704 
L 4794 3578 
C 4915 3840 5005 4096 5069 4358 
C 5043 4096 5024 3750 5024 3571 
L 5024 794 
C 5024 486 5011 256 4973 38 
L 5555 38 
C 5517 269 5504 442 5504 794 
L 5504 4141 
C 5504 4474 5517 4659 5555 4902 
L 4819 4902 
C 4781 4717 4710 4518 4602 4269 
L 3027 742 
L 1446 4269 
C 1350 4480 1274 4710 1235 4902 
L 493 4902 
C 531 4666 544 4461 544 4141 
L 544 794 
C 544 461 531 275 493 38 
L 1075 38 
C 1037 256 1024 454 1024 794 
L 1024 3533 
C 1024 3686 998 4083 979 4358 
C 1101 3968 1171 3770 1267 3565 
L 2554 710 
z
" transform="scale(0.015625)"/>
       <path id="HiraginoSansGB-W3-4f" d="M 2547 4998 
C 1203 4998 333 4006 333 2470 
C 333 928 1190 -58 2541 -58 
C 3891 -58 4755 928 4755 2470 
C 4755 4013 3898 4998 2547 4998 
z
M 2554 397 
C 1530 397 851 1222 851 2477 
C 851 3731 1523 4550 2547 4550 
C 2989 4550 3373 4397 3667 4109 
C 4038 3738 4230 3174 4230 2470 
C 4230 1786 4026 1190 3661 832 
C 3373 544 2995 397 2554 397 
z
" transform="scale(0.015625)"/>
       <path id="HiraginoSansGB-W3-50" d="M 1094 38 
C 1056 256 1043 454 1043 762 
L 1043 2022 
L 2470 2022 
C 3469 2022 4045 2566 4045 3507 
C 4045 4397 3488 4902 2502 4902 
L 1197 4902 
C 902 4902 723 4909 493 4922 
C 531 4653 544 4454 544 4192 
L 544 755 
C 544 454 531 269 493 38 
L 1094 38 
z
M 1043 2464 
L 1043 4461 
L 2470 4461 
C 3162 4461 3533 4122 3533 3482 
C 3533 2829 3149 2464 2470 2464 
L 1043 2464 
z
" transform="scale(0.015625)"/>
       <path id="HiraginoSansGB-W3-53" d="M 3840 3718 
C 3770 4045 3706 4205 3558 4397 
C 3270 4781 2778 4986 2144 4986 
C 1152 4986 506 4467 506 3661 
C 506 3213 704 2874 1101 2650 
C 1318 2528 1568 2438 1971 2355 
C 2746 2182 2816 2163 3027 2042 
C 3270 1907 3398 1670 3398 1357 
C 3398 762 2938 403 2176 403 
C 1702 403 1318 563 1107 845 
C 973 1018 928 1171 909 1478 
L 352 1408 
C 416 986 486 787 653 563 
C 947 166 1478 -45 2195 -45 
C 3296 -45 3917 467 3917 1370 
C 3917 2112 3507 2502 2483 2720 
C 1747 2880 1741 2880 1568 2950 
C 1190 3104 1011 3341 1011 3674 
C 1011 4192 1472 4544 2131 4544 
C 2547 4544 2874 4416 3078 4173 
C 3200 4026 3251 3898 3302 3642 
L 3840 3718 
z
" transform="scale(0.015625)"/>
       <path id="HiraginoSansGB-W3-28" d="M 2093 -762 
C 1734 -211 1594 77 1453 531 
C 1306 992 1235 1478 1235 1984 
C 1235 2490 1306 2970 1453 3430 
C 1594 3885 1734 4173 2093 4723 
L 1690 4979 
C 1318 4410 1165 4102 1011 3648 
C 838 3130 749 2579 749 1984 
C 749 1389 838 838 1011 320 
C 1165 -141 1318 -448 1690 -1018 
L 2093 -762 
z
" transform="scale(0.015625)"/>
       <path id="HiraginoSansGB-W3-672c" d="M 2938 4186 
L 1146 4186 
C 864 4186 678 4198 442 4230 
L 442 3763 
C 678 3789 896 3802 1146 3802 
L 2778 3802 
C 2528 3296 2208 2829 1734 2285 
C 1248 1709 787 1318 237 986 
C 390 845 442 781 538 608 
C 1005 934 1350 1242 1754 1683 
C 2330 2310 2669 2835 2963 3533 
C 2944 3187 2938 2944 2938 2707 
L 2938 1254 
L 2310 1254 
C 1984 1254 1843 1261 1677 1286 
L 1677 838 
C 1869 870 2022 877 2323 877 
L 2938 877 
L 2938 275 
C 2938 -19 2925 -243 2893 -467 
L 3398 -467 
C 3366 -262 3354 -32 3354 269 
L 3354 877 
L 4038 877 
C 4326 877 4480 870 4672 838 
L 4672 1286 
C 4506 1261 4365 1254 4051 1254 
L 3354 1254 
L 3354 2707 
C 3354 2918 3347 3155 3328 3539 
C 3635 2848 3994 2304 4525 1741 
C 4941 1299 5338 966 5856 621 
C 5946 794 6016 890 6150 1037 
C 5574 1350 5120 1709 4634 2234 
C 4230 2662 3827 3232 3514 3802 
L 5242 3802 
C 5498 3802 5690 3789 5958 3763 
L 5958 4230 
C 5773 4198 5562 4186 5242 4186 
L 3354 4186 
L 3354 4736 
C 3354 4934 3366 5120 3398 5312 
L 2893 5312 
C 2925 5094 2938 4941 2938 4730 
L 2938 4186 
z
" transform="scale(0.015625)"/>
       <path id="HiraginoSansGB-W3-6587" d="M 1542 3853 
C 1734 3238 1875 2918 2138 2477 
C 2362 2093 2592 1779 2912 1427 
C 2176 755 1312 294 256 6 
C 378 -122 448 -218 525 -390 
C 1568 -64 2426 422 3200 1139 
C 3910 454 4755 -32 5862 -397 
C 5939 -218 6016 -102 6144 26 
C 5504 198 5146 339 4659 608 
C 4211 851 3859 1101 3494 1434 
C 3885 1850 4186 2285 4435 2803 
C 4608 3149 4640 3238 4826 3853 
L 5338 3853 
C 5690 3853 5882 3840 6061 3814 
L 6061 4269 
C 5862 4237 5645 4224 5331 4224 
L 3277 4224 
L 3552 4397 
C 3277 4864 3277 4864 2912 5363 
L 2579 5171 
C 2822 4858 2822 4858 3181 4224 
L 1075 4224 
C 774 4224 557 4237 358 4269 
L 358 3814 
C 550 3840 749 3853 1069 3853 
L 1542 3853 
z
M 4358 3853 
C 4230 3392 4173 3251 4026 2938 
C 3802 2477 3546 2093 3206 1715 
C 2931 2003 2720 2285 2509 2630 
C 2259 3040 2170 3258 1984 3853 
L 4358 3853 
z
" transform="scale(0.015625)"/>
       <path id="HiraginoSansGB-W3-29" d="M 179 4723 
C 538 4173 678 3885 819 3430 
C 966 2970 1037 2496 1037 1984 
C 1037 1472 966 992 819 531 
C 678 77 538 -211 179 -762 
L 582 -1018 
C 954 -448 1107 -141 1261 320 
C 1440 838 1523 1382 1523 1984 
C 1523 2579 1440 3130 1261 3648 
C 1107 4102 954 4410 582 4979 
L 179 4723 
z
" transform="scale(0.015625)"/>
      </defs>
      <use xlink:href="#HiraginoSansGB-W3-4d"/>
      <use xlink:href="#HiraginoSansGB-W3-4f" x="94.499985"/>
      <use xlink:href="#HiraginoSansGB-W3-50" x="173.999969"/>
      <use xlink:href="#HiraginoSansGB-W3-53" x="240.199966"/>
      <use xlink:href="#HiraginoSansGB-W3-20" x="307.09996"/>
      <use xlink:href="#HiraginoSansGB-W3-28" x="340.399948"/>
      <use xlink:href="#HiraginoSansGB-W3-672c" x="375.999939"/>
      <use xlink:href="#HiraginoSansGB-W3-6587" x="475.999924"/>
      <use xlink:href="#HiraginoSansGB-W3-29" x="575.999908"/>
     </g>
    </g>
    <g id="line2d_32">
     <path d="M 139.168203 181.896469 
L 147.668203 181.896469 
L 156.168203 181.896469 
" style="fill: none; stroke: #2a9d8f; stroke-width: 1.6; stroke-linecap: square"/>
     <g>
      <use xlink:href="#ma558b7f461" x="147.668203" y="181.896469" style="fill: #2a9d8f; stroke: #2a9d8f"/>
     </g>
    </g>
    <g id="text_14">
     <!-- Plan-Execute -->
     <g transform="translate(162.968203 184.871469) scale(0.085 -0.085)">
      <defs>
       <path id="HiraginoSansGB-W3-6c" d="M 454 4902 
C 486 4672 499 4499 499 4186 
L 499 755 
C 499 467 486 269 454 38 
L 1030 38 
C 998 294 986 467 986 755 
L 986 4179 
C 986 4499 998 4672 1030 4902 
L 454 4902 
z
" transform="scale(0.015625)"/>
       <path id="HiraginoSansGB-W3-61" d="M 2733 38 
L 3251 38 
C 3213 294 3200 454 3200 742 
L 3200 2541 
C 3200 3232 2765 3590 1920 3590 
C 1440 3590 1056 3469 794 3226 
C 634 3085 550 2950 435 2656 
L 934 2547 
C 998 2739 1050 2829 1133 2918 
C 1312 3104 1574 3194 1926 3194 
C 2458 3194 2733 2970 2733 2534 
L 2733 2163 
C 1946 2144 1638 2106 1261 1997 
C 666 1830 346 1459 346 947 
C 346 339 774 -26 1478 -26 
C 1696 -26 1926 19 2144 102 
C 2362 186 2483 269 2733 493 
L 2733 38 
z
M 2733 1370 
C 2733 1114 2682 979 2534 819 
C 2285 544 1882 365 1510 365 
C 1094 365 832 589 832 941 
C 832 1248 992 1466 1318 1600 
C 1606 1722 1971 1766 2733 1786 
L 2733 1370 
z
" transform="scale(0.015625)"/>
       <path id="HiraginoSansGB-W3-6e" d="M 1030 38 
C 998 288 986 480 986 762 
L 986 1997 
C 1037 2253 1114 2413 1280 2630 
C 1549 2976 1837 3136 2195 3136 
C 2701 3136 2976 2829 2976 2253 
L 2976 762 
C 2976 480 2963 288 2931 38 
L 3507 38 
C 3475 250 3462 429 3462 755 
L 3462 2336 
C 3462 2650 3405 2886 3283 3072 
C 3078 3386 2720 3552 2259 3552 
C 1683 3552 1267 3302 966 2778 
C 986 2925 986 2976 986 3053 
L 986 3488 
L 454 3488 
C 493 3232 506 3053 506 2765 
L 506 762 
C 506 454 493 282 454 38 
L 1030 38 
z
" transform="scale(0.015625)"/>
       <path id="HiraginoSansGB-W3-2d" d="M 179 1632 
C 358 1658 506 1664 762 1664 
L 1523 1664 
C 1792 1664 1933 1658 2112 1632 
L 2112 2170 
C 1933 2144 1798 2138 1523 2138 
L 762 2138 
C 493 2138 358 2144 179 2170 
L 179 1632 
z
" transform="scale(0.015625)"/>
       <path id="HiraginoSansGB-W3-45" d="M 3789 531 
C 3552 499 3373 486 3078 486 
L 1050 486 
L 1050 2368 
L 2733 2368 
C 3066 2368 3232 2355 3450 2323 
L 3450 2861 
C 3206 2829 3014 2816 2733 2816 
L 1050 2816 
L 1050 4454 
L 3021 4454 
C 3341 4454 3514 4442 3738 4410 
L 3738 4947 
C 3520 4915 3302 4902 3021 4902 
L 1197 4902 
C 890 4902 717 4909 493 4922 
C 531 4640 544 4467 544 4192 
L 544 781 
C 544 454 531 262 493 19 
C 710 32 890 38 1197 38 
L 3072 38 
C 3411 38 3584 26 3789 -6 
L 3789 531 
z
" transform="scale(0.015625)"/>
       <path id="HiraginoSansGB-W3-78" d="M 3315 38 
C 2918 563 2918 563 2854 646 
L 2010 1824 
L 2816 2957 
C 2925 3110 3059 3283 3206 3488 
L 2592 3488 
C 2534 3360 2451 3219 2342 3059 
L 1722 2157 
L 1094 3059 
C 973 3232 909 3341 845 3488 
L 218 3488 
C 512 3098 563 3034 602 2976 
L 1427 1824 
L 538 595 
C 397 390 224 166 122 38 
L 755 38 
C 851 218 902 314 1005 454 
L 1715 1491 
L 2394 512 
C 2528 307 2592 205 2682 38 
L 3315 38 
z
" transform="scale(0.015625)"/>
       <path id="HiraginoSansGB-W3-65" d="M 3475 1690 
C 3462 1862 3437 2112 3430 2182 
C 3302 3040 2707 3571 1882 3571 
C 922 3571 294 2854 294 1760 
C 294 653 928 -51 1933 -51 
C 2400 -51 2790 102 3091 397 
C 3238 544 3322 659 3443 928 
L 2995 1107 
C 2816 614 2458 358 1939 358 
C 1555 358 1242 512 1037 794 
C 864 1024 800 1261 781 1690 
L 3475 1690 
z
M 800 2093 
C 838 2336 870 2451 960 2611 
C 1152 2970 1478 3168 1869 3168 
C 2176 3168 2426 3072 2624 2880 
C 2829 2682 2925 2451 2963 2093 
L 800 2093 
z
" transform="scale(0.015625)"/>
       <path id="HiraginoSansGB-W3-63" d="M 3373 2579 
C 3296 2765 3238 2867 3149 2989 
C 2874 3373 2445 3578 1914 3578 
C 934 3578 294 2854 294 1747 
C 294 653 941 -45 1946 -45 
C 2464 -45 2874 141 3155 493 
C 3264 634 3328 755 3418 986 
L 2938 1114 
C 2893 960 2861 883 2797 787 
C 2630 525 2330 378 1965 378 
C 1248 378 787 915 787 1760 
C 787 2618 1235 3168 1939 3168 
C 2413 3168 2720 2931 2906 2432 
L 3373 2579 
z
" transform="scale(0.015625)"/>
       <path id="HiraginoSansGB-W3-75" d="M 2970 38 
L 3501 38 
C 3462 294 3450 474 3450 762 
L 3450 2765 
C 3450 3059 3462 3264 3494 3488 
L 2925 3488 
C 2957 3264 2970 3040 2970 2765 
L 2970 1530 
C 2912 1274 2842 1114 2675 890 
C 2419 544 2118 384 1754 384 
C 1254 384 979 704 979 1274 
L 979 2765 
C 979 3046 992 3264 1024 3488 
L 448 3488 
C 480 3283 493 3059 493 2771 
L 493 1190 
C 493 883 557 634 672 448 
C 877 141 1235 -26 1696 -26 
C 2272 -26 2669 211 2989 736 
C 2970 570 2970 525 2970 454 
L 2970 38 
z
" transform="scale(0.015625)"/>
       <path id="HiraginoSansGB-W3-74" d="M 858 4442 
C 890 4230 902 3987 902 3731 
L 902 3488 
L 646 3488 
C 378 3488 250 3494 70 3526 
L 70 3040 
C 282 3066 429 3078 646 3078 
L 902 3078 
L 902 787 
C 902 486 954 301 1082 173 
C 1210 45 1427 -26 1709 -26 
C 1971 -26 2170 13 2432 122 
L 2291 570 
C 2080 442 1952 403 1786 403 
C 1651 403 1542 442 1472 512 
C 1414 570 1389 666 1389 851 
L 1389 3078 
L 1696 3078 
C 1984 3078 2144 3072 2349 3040 
L 2349 3526 
C 2125 3494 1990 3488 1696 3488 
L 1389 3488 
L 1389 3731 
C 1389 4006 1402 4237 1434 4442 
L 858 4442 
z
" transform="scale(0.015625)"/>
      </defs>
      <use xlink:href="#HiraginoSansGB-W3-50"/>
      <use xlink:href="#HiraginoSansGB-W3-6c" x="66.199997"/>
      <use xlink:href="#HiraginoSansGB-W3-61" x="89.399994"/>
      <use xlink:href="#HiraginoSansGB-W3-6e" x="146.899979"/>
      <use xlink:href="#HiraginoSansGB-W3-2d" x="208.699966"/>
      <use xlink:href="#HiraginoSansGB-W3-45" x="244.499954"/>
      <use xlink:href="#HiraginoSansGB-W3-78" x="308.799942"/>
      <use xlink:href="#HiraginoSansGB-W3-65" x="362.399933"/>
      <use xlink:href="#HiraginoSansGB-W3-63" x="421.199921"/>
      <use xlink:href="#HiraginoSansGB-W3-75" x="478.999908"/>
      <use xlink:href="#HiraginoSansGB-W3-74" x="540.799896"/>
      <use xlink:href="#HiraginoSansGB-W3-65" x="579.999893"/>
     </g>
    </g>
    <g id="line2d_33">
     <path d="M 234.264609 181.896469 
L 242.764609 181.896469 
L 251.264609 181.896469 
" style="fill: none; stroke: #9c89b8; stroke-width: 1.6; stroke-linecap: square"/>
     <g>
      <use xlink:href="#m8f7988b2b0" x="242.764609" y="181.896469" style="fill: #9c89b8; stroke: #9c89b8"/>
     </g>
    </g>
    <g id="text_15">
     <!-- ReAct -->
     <g transform="translate(258.064609 184.871469) scale(0.085 -0.085)">
      <defs>
       <path id="HiraginoSansGB-W3-52" d="M 4410 38 
C 4320 192 4230 384 4122 634 
C 3923 1075 3770 1408 3616 1709 
C 3386 2163 3226 2336 2963 2413 
C 3309 2490 3469 2566 3654 2733 
C 3917 2957 4038 3264 4038 3674 
C 4038 4467 3526 4902 2598 4902 
L 1190 4902 
C 896 4902 717 4909 493 4922 
C 531 4666 544 4461 544 4186 
L 544 755 
C 544 442 531 269 493 38 
L 1088 38 
C 1050 269 1037 435 1037 762 
L 1037 2259 
L 2221 2259 
C 2733 2259 2982 2010 3354 1133 
C 3622 493 3712 230 3731 38 
L 4410 38 
z
M 1037 2701 
L 1037 4461 
L 2592 4461 
C 3200 4461 3520 4166 3520 3622 
C 3520 3347 3443 3136 3277 2976 
C 3104 2803 2842 2701 2554 2701 
L 1037 2701 
z
" transform="scale(0.015625)"/>
       <path id="HiraginoSansGB-W3-41" d="M 4710 38 
C 4614 205 4531 390 4371 774 
L 2938 4307 
C 2778 4698 2746 4781 2720 4902 
L 2074 4902 
C 2042 4755 1990 4608 1869 4307 
L 435 774 
C 262 346 218 250 90 38 
L 755 38 
C 800 262 858 448 954 691 
L 1286 1517 
L 3520 1517 
L 3853 691 
C 3930 493 4000 269 4051 38 
L 4710 38 
z
M 3366 1958 
L 1440 1958 
L 2259 4070 
C 2272 4096 2291 4166 2330 4269 
C 2342 4314 2368 4384 2400 4480 
C 2522 4128 2522 4122 2541 4070 
L 3366 1958 
z
" transform="scale(0.015625)"/>
      </defs>
      <use xlink:href="#HiraginoSansGB-W3-52"/>
      <use xlink:href="#HiraginoSansGB-W3-65" x="72.599991"/>
      <use xlink:href="#HiraginoSansGB-W3-41" x="131.399979"/>
      <use xlink:href="#HiraginoSansGB-W3-63" x="206.399963"/>
      <use xlink:href="#HiraginoSansGB-W3-74" x="264.199951"/>
     </g>
    </g>
   </g>
  </g>
 </g>
 <defs>
  <clipPath id="p3f67112a53">
   <rect x="38.732734" y="5.76" width="412.92" height="188.496"/>
  </clipPath>
 </defs>
</svg>
