<?xml version="1.0" encoding="utf-8" standalone="no"?>
<!DOCTYPE svg PUBLIC "-//W3C//DTD SVG 1.1//EN"
  "http://www.w3.org/Graphics/SVG/1.1/DTD/svg11.dtd">
<svg xmlns:xlink="http://www.w3.org/1999/xlink" width="587.899981pt" height="264.451pt" viewBox="0 0 587.899981 264.451" xmlns="http://www.w3.org/2000/svg" version="1.1">
 <metadata>
  <rdf:RDF xmlns:dc="http://purl.org/dc/elements/1.1/" xmlns:cc="http://creativecommons.org/ns#" xmlns:rdf="http://www.w3.org/1999/02/22-rdf-syntax-ns#">
   <cc:Work>
    <dc:type rdf:resource="http://purl.org/dc/dcmitype/StillImage"/>
    <dc:date>2026-05-11T17:05:09.726218</dc:date>
    <dc:format>image/svg+xml</dc:format>
    <dc:creator>
     <cc:Agent>
      <dc:title>Matplotlib v3.9.4, https://matplotlib.org/</dc:title>
     </cc:Agent>
    </dc:creator>
   </cc:Work>
  </rdf:RDF>
 </metadata>
 <defs>
  <style type="text/css">*{stroke-linejoin: round; stroke-linecap: butt}</style>
 </defs>
 <g id="figure_1">
  <g id="patch_1">
   <path d="M 0 264.451 
L 587.899981 264.451 
L 587.899981 0 
L 0 0 
z
" style="fill: #ffffff"/>
  </g>
  <g id="axes_1">
   <g id="patch_2">
    <path d="M 339.220235 206.92075 
L 576.555215 206.92075 
L 576.555215 28.625 
L 339.220235 28.625 
z
" style="fill: #ffffff"/>
   </g>
   <g id="matplotlib.axis_1">
    <g id="xtick_1">
     <g id="line2d_1">
      <path d="M 339.220235 206.92075 
L 339.220235 28.625 
" clip-path="url(#p35ff5e1f39)" style="fill: none; stroke: #e5e7eb; stroke-opacity: 0.7; stroke-width: 0.6; stroke-linecap: square"/>
     </g>
     <g id="line2d_2">
      <defs>
       <path id="m03aafd2636" d="M 0 0 
L 0 3.5 
" style="stroke: #374151; stroke-width: 0.6"/>
      </defs>
      <g>
       <use xlink:href="#m03aafd2636" x="339.220235" y="206.92075" style="fill: #374151; stroke: #374151; stroke-width: 0.6"/>
      </g>
     </g>
     <g id="text_1">
      <!-- 0 -->
      <g style="fill: #374151" transform="translate(336.427852 220.431219) scale(0.085 -0.085)">
       <defs>
        <path id="HiraginoSansGB-W3-30" d="M 2099 -58 
C 2688 -58 3136 166 3456 614 
C 3738 1005 3904 1690 3904 2464 
C 3904 2995 3821 3507 3661 3949 
C 3584 4160 3456 4358 3277 4538 
C 2989 4838 2579 4992 2106 4992 
C 1472 4992 979 4723 672 4205 
C 448 3834 301 3142 301 2464 
C 301 1939 384 1434 544 986 
C 621 768 755 570 928 397 
C 1229 96 1626 -58 2099 -58 
z
M 2099 4550 
C 2547 4550 2893 4352 3104 3968 
C 3270 3667 3392 3034 3392 2477 
C 3392 2003 3328 1581 3194 1184 
C 3136 998 3034 832 2893 685 
C 2701 486 2426 384 2106 384 
C 1670 384 1338 570 1114 941 
C 941 1242 813 1869 813 2464 
C 813 2931 877 3366 1011 3757 
C 1062 3917 1165 4077 1299 4224 
C 1504 4442 1766 4550 2099 4550 
z
" transform="scale(0.015625)"/>
       </defs>
       <use xlink:href="#HiraginoSansGB-W3-30"/>
      </g>
     </g>
    </g>
    <g id="xtick_2">
     <g id="line2d_3">
      <path d="M 365.590789 206.92075 
L 365.590789 28.625 
" clip-path="url(#p35ff5e1f39)" style="fill: none; stroke: #e5e7eb; stroke-opacity: 0.7; stroke-width: 0.6; stroke-linecap: square"/>
     </g>
     <g id="line2d_4">
      <g>
       <use xlink:href="#m03aafd2636" x="365.590789" y="206.92075" style="fill: #374151; stroke: #374151; stroke-width: 0.6"/>
      </g>
     </g>
     <g id="text_2">
      <!-- 2 -->
      <g style="fill: #374151" transform="translate(362.798406 220.431219) scale(0.085 -0.085)">
       <defs>
        <path id="HiraginoSansGB-W3-32" d="M 3027 38 
C 3347 38 3558 26 3814 0 
L 3814 538 
C 3571 506 3354 493 3034 493 
L 992 493 
C 1069 800 1158 973 1357 1235 
C 1568 1504 1773 1683 2278 2022 
C 3008 2509 3174 2630 3366 2848 
C 3616 3123 3744 3430 3744 3757 
C 3744 4512 3123 4998 2157 4998 
C 1594 4998 1158 4832 870 4506 
C 659 4269 563 4045 467 3584 
L 1005 3494 
C 1050 3814 1107 3968 1229 4141 
C 1421 4416 1734 4557 2157 4557 
C 2810 4557 3219 4243 3219 3757 
C 3219 3366 3008 3085 2374 2656 
C 1632 2150 1619 2144 1395 1952 
C 992 1606 723 1254 563 851 
C 467 608 448 512 378 6 
C 582 32 678 38 1082 38 
L 3027 38 
z
" transform="scale(0.015625)"/>
       </defs>
       <use xlink:href="#HiraginoSansGB-W3-32"/>
      </g>
     </g>
    </g>
    <g id="xtick_3">
     <g id="line2d_5">
      <path d="M 391.961342 206.92075 
L 391.961342 28.625 
" clip-path="url(#p35ff5e1f39)" style="fill: none; stroke: #e5e7eb; stroke-opacity: 0.7; stroke-width: 0.6; stroke-linecap: square"/>
     </g>
     <g id="line2d_6">
      <g>
       <use xlink:href="#m03aafd2636" x="391.961342" y="206.92075" style="fill: #374151; stroke: #374151; stroke-width: 0.6"/>
      </g>
     </g>
     <g id="text_3">
      <!-- 4 -->
      <g style="fill: #374151" transform="translate(389.152358 220.431219) scale(0.085 -0.085)">
       <defs>
        <path id="HiraginoSansGB-W3-34" d="M 198 1254 
C 410 1274 602 1280 960 1280 
L 2675 1280 
L 2675 730 
C 2675 442 2662 262 2624 38 
L 3206 38 
C 3168 275 3155 422 3155 730 
L 3155 1280 
L 3392 1280 
C 3667 1280 3827 1267 4064 1235 
L 4064 1766 
C 3834 1734 3667 1722 3398 1722 
L 3155 1722 
L 3155 3821 
C 3155 4326 3162 4525 3194 4902 
L 2714 4902 
C 2566 4678 2451 4518 2234 4250 
L 614 2227 
C 480 2067 333 1888 198 1734 
L 198 1254 
z
M 2682 1715 
L 768 1715 
L 2240 3571 
C 2426 3808 2586 4019 2720 4211 
C 2688 3885 2682 3680 2682 3341 
L 2682 1715 
z
" transform="scale(0.015625)"/>
       </defs>
       <use xlink:href="#HiraginoSansGB-W3-34"/>
      </g>
     </g>
    </g>
    <g id="xtick_4">
     <g id="line2d_7">
      <path d="M 418.331895 206.92075 
L 418.331895 28.625 
" clip-path="url(#p35ff5e1f39)" style="fill: none; stroke: #e5e7eb; stroke-opacity: 0.7; stroke-width: 0.6; stroke-linecap: square"/>
     </g>
     <g id="line2d_8">
      <g>
       <use xlink:href="#m03aafd2636" x="418.331895" y="206.92075" style="fill: #374151; stroke: #374151; stroke-width: 0.6"/>
      </g>
     </g>
     <g id="text_4">
      <!-- 6 -->
      <g style="fill: #374151" transform="translate(415.539512 220.431219) scale(0.085 -0.085)">
       <defs>
        <path id="HiraginoSansGB-W3-36" d="M 3725 4006 
C 3539 4390 3411 4563 3187 4723 
C 2944 4896 2598 4992 2214 4992 
C 1658 4992 1203 4755 864 4294 
C 557 3878 378 3162 378 2362 
C 378 1453 608 736 1024 352 
C 1299 96 1728 -51 2182 -51 
C 3194 -51 3859 602 3859 1594 
C 3859 2579 3245 3194 2253 3194 
C 1811 3194 1472 3072 1171 2803 
C 1030 2682 966 2592 851 2394 
C 896 3091 954 3386 1120 3770 
C 1350 4294 1728 4563 2227 4563 
C 2547 4563 2797 4454 2989 4243 
C 3085 4134 3130 4045 3213 3840 
L 3725 4006 
z
M 3354 1581 
C 3354 1331 3290 1069 3187 902 
C 2989 582 2605 384 2189 384 
C 1498 384 979 896 979 1587 
C 979 1907 1088 2189 1299 2400 
C 1523 2624 1862 2765 2182 2765 
C 2931 2765 3354 2336 3354 1581 
z
" transform="scale(0.015625)"/>
       </defs>
       <use xlink:href="#HiraginoSansGB-W3-36"/>
      </g>
     </g>
    </g>
    <g id="xtick_5">
     <g id="line2d_9">
      <path d="M 444.702449 206.92075 
L 444.702449 28.625 
" clip-path="url(#p35ff5e1f39)" style="fill: none; stroke: #e5e7eb; stroke-opacity: 0.7; stroke-width: 0.6; stroke-linecap: square"/>
     </g>
     <g id="line2d_10">
      <g>
       <use xlink:href="#m03aafd2636" x="444.702449" y="206.92075" style="fill: #374151; stroke: #374151; stroke-width: 0.6"/>
      </g>
     </g>
     <g id="text_5">
      <!-- 8 -->
      <g style="fill: #374151" transform="translate(441.910066 220.431219) scale(0.085 -0.085)">
       <defs>
        <path id="HiraginoSansGB-W3-38" d="M 2752 2586 
C 3322 2694 3680 3142 3680 3738 
C 3680 4525 3078 5005 2099 5005 
C 1133 5005 525 4512 525 3738 
C 525 3142 890 2688 1453 2586 
C 1216 2547 1075 2496 877 2368 
C 493 2118 307 1766 307 1306 
C 307 422 954 -64 2125 -64 
C 3251 -64 3891 429 3891 1306 
C 3891 1734 3731 2074 3411 2310 
C 3200 2470 3021 2547 2752 2586 
z
M 2099 4576 
C 2758 4576 3181 4237 3181 3699 
C 3181 3130 2778 2784 2106 2784 
C 1434 2784 1024 3130 1024 3699 
C 1024 4230 1446 4576 2099 4576 
z
M 2099 2342 
C 2886 2342 3366 1965 3366 1338 
C 3366 1075 3283 851 3123 704 
C 2906 486 2541 371 2093 371 
C 1299 371 832 730 832 1338 
C 832 1958 1312 2342 2099 2342 
z
" transform="scale(0.015625)"/>
       </defs>
       <use xlink:href="#HiraginoSansGB-W3-38"/>
      </g>
     </g>
    </g>
    <g id="xtick_6">
     <g id="line2d_11">
      <path d="M 471.073002 206.92075 
L 471.073002 28.625 
" clip-path="url(#p35ff5e1f39)" style="fill: none; stroke: #e5e7eb; stroke-opacity: 0.7; stroke-width: 0.6; stroke-linecap: square"/>
     </g>
     <g id="line2d_12">
      <g>
       <use xlink:href="#m03aafd2636" x="471.073002" y="206.92075" style="fill: #374151; stroke: #374151; stroke-width: 0.6"/>
      </g>
     </g>
     <g id="text_6">
      <!-- 10 -->
      <g style="fill: #374151" transform="translate(465.488236 220.431219) scale(0.085 -0.085)">
       <defs>
        <path id="HiraginoSansGB-W3-31" d="M 1030 4429 
C 1216 4454 1382 4467 1587 4467 
L 1933 4467 
L 1933 762 
C 1933 467 1920 262 1882 38 
L 2490 38 
C 2451 275 2438 461 2438 762 
L 2438 3872 
C 2438 4218 2458 4544 2496 4934 
C 2285 4909 2182 4902 1965 4902 
L 1562 4902 
C 1318 4902 1197 4909 1030 4934 
L 1030 4429 
z
" transform="scale(0.015625)"/>
       </defs>
       <use xlink:href="#HiraginoSansGB-W3-31"/>
       <use xlink:href="#HiraginoSansGB-W3-30" x="65.699997"/>
      </g>
     </g>
    </g>
    <g id="xtick_7">
     <g id="line2d_13">
      <path d="M 497.443555 206.92075 
L 497.443555 28.625 
" clip-path="url(#p35ff5e1f39)" style="fill: none; stroke: #e5e7eb; stroke-opacity: 0.7; stroke-width: 0.6; stroke-linecap: square"/>
     </g>
     <g id="line2d_14">
      <g>
       <use xlink:href="#m03aafd2636" x="497.443555" y="206.92075" style="fill: #374151; stroke: #374151; stroke-width: 0.6"/>
      </g>
     </g>
     <g id="text_7">
      <!-- 12 -->
      <g style="fill: #374151" transform="translate(491.85879 220.431219) scale(0.085 -0.085)">
       <use xlink:href="#HiraginoSansGB-W3-31"/>
       <use xlink:href="#HiraginoSansGB-W3-32" x="65.699997"/>
      </g>
     </g>
    </g>
    <g id="xtick_8">
     <g id="line2d_15">
      <path d="M 523.814109 206.92075 
L 523.814109 28.625 
" clip-path="url(#p35ff5e1f39)" style="fill: none; stroke: #e5e7eb; stroke-opacity: 0.7; stroke-width: 0.6; stroke-linecap: square"/>
     </g>
     <g id="line2d_16">
      <g>
       <use xlink:href="#m03aafd2636" x="523.814109" y="206.92075" style="fill: #374151; stroke: #374151; stroke-width: 0.6"/>
      </g>
     </g>
     <g id="text_8">
      <!-- 14 -->
      <g style="fill: #374151" transform="translate(518.212742 220.431219) scale(0.085 -0.085)">
       <use xlink:href="#HiraginoSansGB-W3-31"/>
       <use xlink:href="#HiraginoSansGB-W3-34" x="65.699997"/>
      </g>
     </g>
    </g>
    <g id="xtick_9">
     <g id="line2d_17">
      <path d="M 550.184662 206.92075 
L 550.184662 28.625 
" clip-path="url(#p35ff5e1f39)" style="fill: none; stroke: #e5e7eb; stroke-opacity: 0.7; stroke-width: 0.6; stroke-linecap: square"/>
     </g>
     <g id="line2d_18">
      <g>
       <use xlink:href="#m03aafd2636" x="550.184662" y="206.92075" style="fill: #374151; stroke: #374151; stroke-width: 0.6"/>
      </g>
     </g>
     <g id="text_9">
      <!-- 16 -->
      <g style="fill: #374151" transform="translate(544.599896 220.431219) scale(0.085 -0.085)">
       <use xlink:href="#HiraginoSansGB-W3-31"/>
       <use xlink:href="#HiraginoSansGB-W3-36" x="65.699997"/>
      </g>
     </g>
    </g>
    <g id="xtick_10">
     <g id="line2d_19">
      <path d="M 576.555215 206.92075 
L 576.555215 28.625 
" clip-path="url(#p35ff5e1f39)" style="fill: none; stroke: #e5e7eb; stroke-opacity: 0.7; stroke-width: 0.6; stroke-linecap: square"/>
     </g>
     <g id="line2d_20">
      <g>
       <use xlink:href="#m03aafd2636" x="576.555215" y="206.92075" style="fill: #374151; stroke: #374151; stroke-width: 0.6"/>
      </g>
     </g>
     <g id="text_10">
      <!-- 18 -->
      <g style="fill: #374151" transform="translate(570.97045 220.431219) scale(0.085 -0.085)">
       <use xlink:href="#HiraginoSansGB-W3-31"/>
       <use xlink:href="#HiraginoSansGB-W3-38" x="65.699997"/>
      </g>
     </g>
    </g>
    <g id="text_11">
     <!-- 低分率 (%) -->
     <g style="fill: #1f2937" transform="translate(435.730147 233.329187) scale(0.09 -0.09)">
      <defs>
       <path id="HiraginoSansGB-W3-4f4e" d="M 2291 58 
L 2509 -339 
L 2931 -64 
L 3610 365 
L 3821 506 
C 3923 576 4038 653 4141 717 
L 4134 1178 
C 3693 845 3571 762 2816 320 
L 2816 2560 
L 4186 2560 
L 4192 2541 
L 4198 2496 
C 4211 2400 4230 2253 4262 2106 
C 4365 1536 4467 1178 4634 806 
C 4915 211 5338 -269 5594 -269 
C 5869 -269 5990 -90 6125 518 
C 6170 742 6189 826 6195 928 
C 6061 1018 5965 1094 5856 1210 
C 5837 826 5792 576 5715 333 
C 5683 230 5638 179 5594 179 
C 5549 179 5446 269 5350 384 
C 5184 602 5030 864 4928 1120 
C 4787 1466 4646 2035 4595 2496 
L 4582 2560 
L 5395 2560 
C 5651 2560 5805 2554 5965 2534 
L 5965 2950 
C 5818 2918 5722 2918 5395 2918 
L 4544 2918 
L 4538 2950 
C 4499 3334 4467 3802 4461 4186 
L 4461 4307 
L 4454 4576 
C 4826 4666 5024 4723 5421 4864 
L 5722 4966 
L 5382 5338 
C 5254 5248 5165 5210 4966 5133 
C 4646 5011 4173 4890 3699 4800 
C 3258 4717 2810 4672 2387 4659 
C 2413 4499 2419 4378 2419 4083 
L 2419 307 
C 2413 186 2381 128 2291 58 
z
M 134 2618 
C 275 2451 314 2400 397 2246 
C 698 2592 870 2842 1069 3213 
C 1056 3040 1056 3002 1050 2784 
C 1043 2605 1043 2579 1043 2445 
L 1043 288 
C 1043 -32 1030 -243 1005 -480 
L 1472 -480 
C 1453 -256 1440 -38 1440 275 
L 1440 3757 
L 1600 4096 
C 1754 4429 1798 4544 1952 4954 
C 1997 5088 2016 5139 2061 5248 
L 1613 5376 
C 1574 5088 1421 4627 1222 4192 
C 947 3603 608 3110 134 2618 
z
M 2816 2918 
L 2816 4320 
C 3315 4365 3648 4410 4051 4486 
L 4058 4358 
C 4064 4032 4070 3840 4109 3373 
C 4122 3149 4134 2995 4147 2931 
L 4147 2918 
L 2816 2918 
z
M 4045 461 
L 3802 198 
C 4096 38 4365 -141 4634 -365 
L 4858 -77 
C 4602 134 4384 275 4045 461 
z
" transform="scale(0.015625)"/>
       <path id="HiraginoSansGB-W3-5206" d="M 4435 2637 
C 4435 1530 4358 666 4224 275 
C 4179 147 4109 115 3917 115 
C 3661 115 3373 147 3002 218 
C 3066 32 3085 -64 3104 -237 
C 3520 -275 3718 -288 3942 -288 
C 4320 -288 4467 -230 4576 -32 
C 4742 269 4864 1350 4864 2592 
C 4870 2880 4870 2931 4890 3046 
C 4704 3021 4512 3014 4218 3014 
L 2112 3014 
C 1850 3014 1632 3027 1446 3053 
L 1446 2598 
C 1645 2624 1862 2637 2106 2637 
L 2509 2637 
C 2464 2061 2374 1722 2163 1318 
C 1856 736 1370 314 550 -83 
C 685 -211 749 -294 832 -442 
C 1613 -38 2112 397 2445 954 
C 2739 1440 2893 1965 2944 2637 
L 4435 2637 
z
M 2246 5293 
C 2214 5101 2131 4902 1971 4621 
C 1542 3853 992 3264 218 2746 
C 365 2624 448 2528 531 2400 
C 1434 3066 2054 3808 2547 4800 
C 2643 4998 2669 5050 2726 5126 
L 2246 5293 
z
M 3667 5114 
C 3699 5062 3738 4992 3770 4934 
C 4371 3757 4915 3110 5926 2362 
C 6022 2528 6106 2637 6227 2752 
C 5350 3328 4806 3904 4339 4742 
C 4205 4986 4147 5114 4096 5280 
L 3667 5114 
z
" transform="scale(0.015625)"/>
       <path id="HiraginoSansGB-W3-7387" d="M 2848 4448 
C 2714 4224 2637 4109 2477 3910 
C 2298 3680 2202 3610 2016 3546 
L 2099 3226 
C 2202 3232 2202 3232 2317 3251 
C 2490 3270 2490 3270 2726 3283 
C 2861 3290 2970 3302 3200 3322 
C 2835 2906 2630 2701 2419 2534 
C 2182 2355 2093 2310 1862 2253 
L 1939 1914 
C 2080 1926 2080 1926 2246 1952 
C 2643 2016 2720 2022 3078 2054 
C 3558 2099 3558 2099 4102 2163 
C 4179 2054 4224 1971 4371 1722 
L 4691 1971 
C 4512 2246 4205 2630 3802 3059 
L 3507 2835 
C 3693 2675 3757 2611 3885 2464 
C 3552 2413 3437 2400 2714 2336 
C 3078 2669 3270 2861 3437 3066 
C 3962 3699 3962 3699 4173 3949 
L 3834 4154 
C 3648 3885 3552 3750 3482 3661 
C 3277 3642 3277 3642 2989 3616 
C 2790 3597 2790 3597 2630 3578 
C 2906 3885 2906 3885 3302 4448 
L 5427 4448 
C 5677 4448 5875 4435 6061 4416 
L 6061 4858 
C 5882 4832 5683 4819 5395 4819 
L 3437 4819 
C 3283 5101 3270 5114 3059 5382 
L 2720 5222 
C 2816 5107 2893 4998 3002 4819 
L 1069 4819 
C 781 4819 589 4832 403 4858 
L 403 4416 
C 589 4435 794 4448 1037 4448 
L 2848 4448 
z
M 3334 998 
L 5408 998 
C 5677 998 5888 986 6074 960 
L 6074 1414 
C 5901 1389 5670 1370 5440 1370 
L 3334 1370 
L 3334 1472 
C 3334 1658 3341 1773 3360 1888 
L 2899 1888 
C 2918 1766 2925 1651 2925 1478 
L 2925 1370 
L 966 1370 
C 736 1370 486 1389 326 1414 
L 326 960 
C 544 986 723 998 986 998 
L 2925 998 
L 2925 32 
C 2925 -173 2912 -326 2880 -525 
L 3379 -525 
C 3347 -346 3334 -179 3334 32 
L 3334 998 
z
M 634 3942 
C 1030 3642 1171 3501 1523 3078 
L 1818 3347 
C 1510 3686 1293 3885 922 4179 
L 634 3942 
z
M 563 1773 
C 704 1850 736 1869 832 1914 
C 992 1997 1043 2022 1171 2093 
C 1478 2266 1670 2394 2029 2662 
L 1869 2982 
C 1370 2586 864 2310 371 2163 
L 563 1773 
z
M 5293 4205 
C 4973 3834 4717 3603 4282 3322 
L 4550 3059 
C 4979 3360 5261 3603 5594 3962 
L 5293 4205 
z
M 4467 2714 
C 4986 2374 5274 2144 5658 1734 
L 5933 2054 
C 5498 2438 5242 2630 4717 2957 
L 4467 2714 
z
" transform="scale(0.015625)"/>
       <path id="HiraginoSansGB-W3-20" transform="scale(0.015625)"/>
       <path id="HiraginoSansGB-W3-28" d="M 2093 -762 
C 1734 -211 1594 77 1453 531 
C 1306 992 1235 1478 1235 1984 
C 1235 2490 1306 2970 1453 3430 
C 1594 3885 1734 4173 2093 4723 
L 1690 4979 
C 1318 4410 1165 4102 1011 3648 
C 838 3130 749 2579 749 1984 
C 749 1389 838 838 1011 320 
C 1165 -141 1318 -448 1690 -1018 
L 2093 -762 
z
" transform="scale(0.015625)"/>
       <path id="HiraginoSansGB-W3-25" d="M 1382 2266 
C 1683 2266 1946 2368 2138 2554 
C 2368 2778 2490 3155 2490 3629 
C 2490 4493 2080 4992 1382 4992 
C 678 4992 269 4486 269 3629 
C 269 3155 390 2778 621 2554 
C 813 2368 1075 2266 1382 2266 
z
M 1382 4614 
C 1818 4614 2061 4262 2061 3629 
C 2061 3002 1811 2643 1382 2643 
C 947 2643 698 3002 698 3629 
C 698 4256 941 4614 1382 4614 
z
M 736 134 
L 1005 -83 
L 4883 4826 
L 4614 5030 
L 736 134 
z
M 4243 -45 
C 4544 -45 4806 58 4998 243 
C 5229 467 5350 838 5350 1312 
C 5350 2176 4947 2675 4243 2675 
C 3539 2675 3130 2176 3130 1312 
C 3130 845 3251 467 3482 243 
C 3674 51 3936 -45 4243 -45 
z
M 4243 2298 
C 4678 2298 4922 1946 4922 1312 
C 4922 691 4672 333 4243 333 
C 3808 333 3558 691 3558 1312 
C 3558 1946 3802 2298 4243 2298 
z
" transform="scale(0.015625)"/>
       <path id="HiraginoSansGB-W3-29" d="M 179 4723 
C 538 4173 678 3885 819 3430 
C 966 2970 1037 2496 1037 1984 
C 1037 1472 966 992 819 531 
C 678 77 538 -211 179 -762 
L 582 -1018 
C 954 -448 1107 -141 1261 320 
C 1440 838 1523 1382 1523 1984 
C 1523 2579 1440 3130 1261 3648 
C 1107 4102 954 4410 582 4979 
L 179 4723 
z
" transform="scale(0.015625)"/>
      </defs>
      <use xlink:href="#HiraginoSansGB-W3-4f4e"/>
      <use xlink:href="#HiraginoSansGB-W3-5206" x="99.999985"/>
      <use xlink:href="#HiraginoSansGB-W3-7387" x="199.999969"/>
      <use xlink:href="#HiraginoSansGB-W3-20" x="299.999954"/>
      <use xlink:href="#HiraginoSansGB-W3-28" x="333.299942"/>
      <use xlink:href="#HiraginoSansGB-W3-25" x="368.899933"/>
      <use xlink:href="#HiraginoSansGB-W3-29" x="456.799927"/>
     </g>
    </g>
   </g>
   <g id="matplotlib.axis_2">
    <g id="ytick_1">
     <g id="line2d_21">
      <path d="M 339.220235 49.285391 
L 576.555215 49.285391 
" clip-path="url(#p35ff5e1f39)" style="fill: none; stroke: #e5e7eb; stroke-opacity: 0.7; stroke-width: 0.6; stroke-linecap: square"/>
     </g>
     <g id="line2d_22">
      <defs>
       <path id="m30e5c2717b" d="M 0 0 
L -3.5 0 
" style="stroke: #374151; stroke-width: 0.6"/>
      </defs>
      <g>
       <use xlink:href="#m30e5c2717b" x="339.220235" y="49.285391" style="fill: #374151; stroke: #374151; stroke-width: 0.6"/>
      </g>
     </g>
     <g id="text_12">
      <!-- 工具正确性 -->
      <g style="fill: #374151" transform="translate(289.720235 52.540625) scale(0.085 -0.085)">
       <defs>
        <path id="HiraginoSansGB-W3-5de5" d="M 3386 4224 
L 4928 4224 
C 5229 4224 5434 4211 5664 4186 
L 5664 4672 
C 5453 4646 5254 4634 4922 4634 
L 1517 4634 
C 1178 4634 979 4646 774 4672 
L 774 4186 
C 998 4211 1210 4224 1510 4224 
L 2925 4224 
L 2925 570 
L 1120 570 
C 781 570 582 582 365 614 
L 365 115 
C 589 147 794 160 1114 160 
L 5318 160 
C 5638 160 5862 147 6067 115 
L 6067 614 
C 5850 582 5651 570 5318 570 
L 3386 570 
L 3386 4224 
z
" transform="scale(0.015625)"/>
        <path id="HiraginoSansGB-W3-5177" d="M 1274 1248 
L 1037 1248 
C 774 1248 550 1261 378 1286 
L 378 832 
C 563 858 774 870 1037 870 
L 5402 870 
C 5651 870 5882 858 6061 832 
L 6061 1286 
C 5888 1261 5664 1248 5395 1248 
L 5133 1248 
L 5133 4442 
C 5133 4749 5139 4915 5165 5069 
C 4941 5043 4787 5037 4506 5037 
L 1958 5037 
C 1658 5037 1446 5043 1242 5069 
C 1267 4890 1274 4749 1274 4467 
L 1274 1248 
z
M 1670 1248 
L 1670 1882 
L 4736 1882 
L 4736 1248 
L 1670 1248 
z
M 1670 2227 
L 1670 2822 
L 4736 2822 
L 4736 2227 
L 1670 2227 
z
M 4736 4685 
L 4736 4109 
L 1670 4109 
L 1670 4685 
L 4736 4685 
z
M 4736 3763 
L 4736 3168 
L 1670 3168 
L 1670 3763 
L 4736 3763 
z
M 2259 730 
C 1997 499 1850 397 1594 262 
C 1280 109 1030 26 474 -109 
C 621 -250 666 -307 762 -467 
C 1645 -205 2022 -6 2618 499 
L 2259 730 
z
M 3821 480 
C 4474 230 4851 26 5568 -467 
L 5850 -128 
C 5146 307 4710 525 4077 736 
L 3821 480 
z
" transform="scale(0.015625)"/>
        <path id="HiraginoSansGB-W3-6b63" d="M 3597 256 
L 3597 2368 
L 4870 2368 
C 5165 2368 5370 2355 5530 2330 
L 5530 2790 
C 5370 2765 5178 2752 4870 2752 
L 3597 2752 
L 3597 4576 
L 5082 4576 
C 5357 4576 5581 4563 5792 4538 
L 5792 5005 
C 5581 4979 5376 4966 5082 4966 
L 1331 4966 
C 1030 4966 819 4979 621 5005 
L 621 4538 
C 832 4563 1050 4576 1344 4576 
L 3155 4576 
L 3155 256 
L 1862 256 
L 1862 2483 
C 1862 2797 1875 3014 1907 3219 
L 1382 3219 
C 1414 3002 1427 2797 1427 2483 
L 1427 256 
L 1107 256 
C 762 256 570 269 371 301 
L 371 -179 
C 595 -147 813 -134 1114 -134 
L 5280 -134 
C 5581 -134 5805 -147 6016 -179 
L 6016 301 
C 5792 269 5594 256 5274 256 
L 3597 256 
z
" transform="scale(0.015625)"/>
        <path id="HiraginoSansGB-W3-786e" d="M 2771 3059 
C 2771 1875 2726 1229 2618 749 
C 2522 326 2406 102 2131 -230 
C 2285 -288 2362 -333 2509 -461 
C 2842 32 2950 346 3059 1107 
L 4090 1107 
L 4090 397 
C 4090 102 4077 -90 4051 -314 
L 4499 -314 
C 4467 -102 4454 83 4454 390 
L 4454 1107 
L 5478 1107 
L 5478 128 
C 5478 19 5434 -6 5248 -6 
C 5069 -6 4902 6 4608 51 
C 4659 -115 4678 -211 4691 -371 
C 4922 -378 5101 -384 5242 -384 
C 5722 -384 5856 -282 5856 77 
L 5856 3219 
C 5856 3482 5862 3654 5882 3821 
C 5702 3802 5517 3789 5293 3789 
L 4653 3789 
C 4666 3808 4666 3808 4685 3827 
C 4762 3942 4909 4192 5030 4416 
C 5114 4563 5133 4589 5184 4672 
L 4992 4890 
C 4890 4870 4787 4864 4544 4864 
L 3686 4864 
C 3718 4928 3718 4928 3757 5011 
C 3827 5158 3853 5216 3885 5267 
L 3456 5370 
C 3405 5088 3226 4698 2963 4314 
C 2739 3981 2573 3802 2221 3494 
C 2349 3411 2426 3354 2534 3219 
C 2650 3341 2694 3392 2771 3475 
L 2771 3059 
z
M 3034 3789 
C 3245 4070 3360 4243 3507 4512 
L 4659 4512 
C 4531 4237 4390 4000 4237 3789 
L 3034 3789 
z
M 4090 3443 
L 4090 2650 
L 3142 2650 
C 3149 2784 3149 2784 3149 3059 
L 3149 3443 
L 4090 3443 
z
M 4454 3443 
L 5478 3443 
L 5478 2650 
L 4454 2650 
L 4454 3443 
z
M 5478 2304 
L 5478 1453 
L 4454 1453 
L 4454 2304 
L 5478 2304 
z
M 3091 1453 
C 3117 1677 3136 2010 3142 2304 
L 4090 2304 
L 4090 1453 
L 3091 1453 
z
M 1952 4691 
C 2189 4691 2323 4685 2502 4666 
L 2502 5088 
C 2336 5069 2163 5056 1933 5056 
L 928 5056 
C 691 5056 538 5062 346 5088 
L 346 4659 
C 506 4685 646 4691 902 4691 
L 1178 4691 
C 1139 4320 1088 4051 979 3699 
C 774 3014 518 2522 134 2048 
C 224 1939 275 1856 352 1670 
C 576 1958 666 2118 800 2451 
C 781 2266 774 2208 774 2029 
C 768 1946 768 1888 768 1843 
C 768 1760 768 1702 768 1677 
L 768 339 
C 768 45 755 -122 730 -288 
L 1152 -288 
L 1152 352 
L 1901 352 
C 2112 352 2182 346 2298 333 
C 2278 480 2278 550 2278 845 
L 2278 2618 
C 2278 2912 2278 2976 2298 3130 
C 2182 3117 2112 3110 1901 3110 
L 1178 3110 
C 1376 3648 1478 4045 1568 4691 
L 1952 4691 
z
M 1146 2758 
L 1907 2758 
L 1907 704 
L 1146 704 
L 1146 2758 
z
" transform="scale(0.015625)"/>
        <path id="HiraginoSansGB-W3-6027" d="M 3027 3917 
C 3066 4064 3098 4186 3130 4333 
C 3219 4742 3219 4742 3238 4787 
L 2797 4877 
C 2790 4704 2778 4582 2739 4378 
C 2592 3635 2362 3091 1978 2554 
C 2208 2438 2208 2438 2336 2355 
C 2611 2790 2746 3059 2912 3552 
L 3853 3552 
L 3853 2221 
L 3117 2221 
C 2848 2221 2662 2234 2496 2259 
L 2496 1824 
C 2669 1850 2886 1862 3149 1862 
L 3853 1862 
L 3853 179 
L 2714 179 
C 2419 179 2202 192 2016 218 
L 2016 -237 
C 2227 -205 2451 -192 2714 -192 
L 5344 -192 
C 5606 -192 5830 -205 6042 -237 
L 6042 218 
C 5850 192 5645 179 5344 179 
L 4256 179 
L 4256 1862 
L 5120 1862 
C 5402 1862 5587 1850 5773 1824 
L 5773 2259 
C 5600 2234 5414 2221 5126 2221 
L 4256 2221 
L 4256 3552 
L 5254 3552 
C 5459 3552 5690 3539 5907 3514 
L 5907 3955 
C 5760 3930 5574 3917 5248 3917 
L 4256 3917 
L 4256 4685 
C 4256 4922 4269 5139 4301 5331 
L 3808 5331 
C 3840 5126 3853 4915 3853 4685 
L 3853 3917 
L 3027 3917 
z
M 570 2285 
C 755 2874 838 3347 890 4038 
L 550 4096 
C 518 3450 435 3002 237 2419 
L 570 2285 
z
M 1562 -499 
C 1530 -288 1517 -64 1517 211 
L 1517 4698 
C 1517 4947 1530 5133 1562 5344 
L 1062 5344 
C 1094 5126 1107 4934 1107 4698 
L 1107 237 
C 1107 -19 1094 -282 1062 -499 
L 1562 -499 
z
M 2272 3264 
C 2195 3635 2093 3981 1978 4243 
L 1683 4128 
C 1837 3770 1894 3552 1952 3142 
L 2272 3264 
z
" transform="scale(0.015625)"/>
       </defs>
       <use xlink:href="#HiraginoSansGB-W3-5de5"/>
       <use xlink:href="#HiraginoSansGB-W3-5177" x="99.999985"/>
       <use xlink:href="#HiraginoSansGB-W3-6b63" x="199.999969"/>
       <use xlink:href="#HiraginoSansGB-W3-786e" x="299.999954"/>
       <use xlink:href="#HiraginoSansGB-W3-6027" x="399.999939"/>
      </g>
     </g>
    </g>
    <g id="ytick_2">
     <g id="line2d_23">
      <path d="M 339.220235 94.943714 
L 576.555215 94.943714 
" clip-path="url(#p35ff5e1f39)" style="fill: none; stroke: #e5e7eb; stroke-opacity: 0.7; stroke-width: 0.6; stroke-linecap: square"/>
     </g>
     <g id="line2d_24">
      <g>
       <use xlink:href="#m30e5c2717b" x="339.220235" y="94.943714" style="fill: #374151; stroke: #374151; stroke-width: 0.6"/>
      </g>
     </g>
     <g id="text_13">
      <!-- 诊断准确性 -->
      <g style="fill: #374151" transform="translate(289.720235 98.198948) scale(0.085 -0.085)">
       <defs>
        <path id="HiraginoSansGB-W3-8bca" d="M 4435 5254 
L 4026 5395 
C 3859 5056 3635 4704 3366 4384 
C 3053 4013 2714 3725 2253 3450 
C 2413 3309 2413 3309 2496 3181 
C 2502 3162 2515 3142 2534 3110 
C 3354 3693 3635 3987 4160 4806 
C 4365 4499 4480 4352 4730 4083 
C 5114 3674 5350 3482 6003 3059 
C 6074 3226 6112 3277 6266 3462 
C 5779 3712 5402 3974 5037 4314 
C 4787 4550 4608 4762 4358 5126 
L 4435 5254 
z
M 1306 346 
C 1293 218 1280 192 1178 115 
L 1370 -250 
C 1504 -141 1542 -115 1773 32 
C 2003 179 2189 307 2547 563 
L 2522 1011 
C 2285 800 2131 678 1722 403 
L 1722 2694 
C 1722 3014 1728 3168 1754 3373 
C 1600 3354 1446 3341 1261 3341 
L 826 3341 
C 589 3341 493 3347 333 3373 
L 333 2925 
C 493 2950 589 2957 800 2957 
L 1306 2957 
L 1306 346 
z
M 4365 3827 
C 4307 3718 4166 3552 4013 3405 
C 3597 3021 3130 2739 2586 2541 
C 2682 2451 2784 2323 2848 2202 
C 3584 2547 3981 2816 4518 3354 
C 4570 3405 4602 3437 4621 3456 
C 4691 3520 4691 3520 4710 3533 
L 4365 3827 
z
M 5696 1920 
C 5568 1664 5293 1363 4890 1030 
C 4250 506 3597 205 2592 -58 
C 2739 -211 2758 -237 2867 -429 
C 3475 -250 3840 -102 4282 134 
C 4723 371 5280 787 5581 1114 
C 5926 1485 5926 1485 6054 1613 
L 5696 1920 
z
M 915 4986 
C 1325 4691 1594 4435 1907 4064 
L 2208 4397 
C 1875 4742 1626 4966 1216 5267 
L 915 4986 
z
M 4998 2848 
C 4902 2688 4806 2573 4608 2387 
C 4096 1914 3494 1574 2701 1318 
C 2848 1178 2848 1178 2970 973 
C 3590 1216 3904 1382 4346 1690 
C 4608 1869 4966 2176 5210 2432 
C 5261 2483 5267 2490 5299 2522 
C 5312 2528 5325 2541 5338 2554 
L 4998 2848 
z
" transform="scale(0.015625)"/>
        <path id="HiraginoSansGB-W3-65ad" d="M 4122 3405 
C 4122 3475 4122 3494 4122 3654 
L 4122 4384 
C 4826 4531 5318 4685 5805 4915 
C 5875 4947 5920 4973 5926 4973 
C 6010 5005 6010 5005 6042 5018 
L 5702 5370 
C 5293 5056 4307 4730 3699 4704 
C 3731 4493 3738 4294 3738 3846 
C 3738 1888 3584 934 3168 218 
L 3168 442 
C 3002 416 2842 410 2554 410 
L 922 410 
L 922 4614 
C 922 4826 934 4973 960 5146 
L 486 5146 
C 512 4954 525 4787 525 4550 
L 525 646 
C 525 493 518 307 512 218 
C 499 90 499 90 493 26 
C 563 38 582 38 627 38 
C 730 38 730 38 826 45 
C 909 51 909 51 1011 51 
L 2547 45 
C 2790 45 2874 45 3046 32 
C 2995 -38 2963 -83 2874 -192 
C 3034 -288 3130 -365 3219 -467 
C 3654 134 3834 570 3968 1338 
C 4051 1805 4102 2394 4115 3027 
L 5037 3027 
L 5037 218 
C 5037 -96 5024 -275 4998 -442 
L 5478 -442 
C 5453 -275 5440 -102 5440 211 
L 5440 3027 
L 5626 3027 
C 5888 3027 6016 3021 6176 2995 
L 6176 3443 
C 6010 3418 5837 3405 5606 3405 
L 4122 3405 
z
M 2445 2445 
C 2669 2176 2675 2170 3002 1690 
C 3027 1645 3078 1574 3142 1485 
L 3430 1715 
C 3142 2106 2970 2304 2445 2854 
L 2445 3014 
L 2957 3014 
C 3136 3014 3302 3002 3398 2982 
L 3398 3398 
C 3302 3379 3162 3366 2970 3366 
L 2445 3366 
L 2445 4698 
C 2445 4922 2458 5152 2477 5286 
L 2054 5286 
C 2080 5146 2086 4979 2086 4698 
L 2086 3366 
L 1498 3366 
C 1312 3366 1197 3373 1069 3398 
L 1069 2982 
C 1190 3002 1325 3014 1478 3014 
L 1965 3014 
C 1862 2733 1830 2656 1747 2496 
C 1542 2106 1338 1843 960 1472 
C 1069 1376 1152 1280 1222 1171 
C 1696 1715 1888 2035 2112 2675 
C 2093 2451 2086 2170 2086 1984 
L 2086 1222 
C 2086 941 2080 845 2061 698 
L 2470 698 
C 2451 832 2445 915 2445 1216 
L 2445 2445 
z
M 1094 4858 
C 1312 4384 1402 4090 1504 3571 
L 1824 3706 
C 1709 4198 1638 4416 1408 4992 
L 1094 4858 
z
M 3040 5011 
C 2938 4454 2854 4186 2650 3738 
L 2925 3597 
C 3110 4000 3174 4173 3379 4883 
L 3040 5011 
z
" transform="scale(0.015625)"/>
        <path id="HiraginoSansGB-W3-51c6" d="M 4333 2880 
L 4333 3757 
L 5242 3757 
C 5542 3757 5766 3744 5901 3725 
L 5901 4154 
C 5766 4128 5523 4115 5248 4115 
L 4499 4115 
C 4352 4557 4230 4826 3981 5299 
L 3642 5152 
C 3846 4794 3994 4467 4109 4115 
L 2784 4115 
C 2989 4454 3021 4525 3347 5229 
L 2931 5370 
C 2797 4909 2579 4454 2234 3910 
C 1952 3475 1722 3194 1408 2906 
C 1562 2810 1581 2790 1722 2611 
C 1971 2893 2150 3136 2342 3450 
C 2342 3405 2342 3366 2342 3341 
C 2342 3296 2342 3283 2336 3091 
C 2330 2995 2330 2938 2330 2758 
L 2330 243 
C 2330 -64 2317 -282 2291 -435 
L 2733 -435 
L 2733 -96 
L 5408 -96 
C 5696 -96 5894 -109 6061 -128 
L 6061 307 
C 5894 275 5741 269 5402 269 
L 4333 269 
L 4333 1280 
L 5133 1280 
C 5440 1280 5581 1274 5728 1248 
L 5728 1670 
C 5600 1651 5402 1638 5139 1638 
L 4333 1638 
L 4333 2522 
L 5146 2522 
C 5408 2522 5600 2509 5728 2490 
L 5728 2918 
C 5613 2893 5402 2880 5139 2880 
L 4333 2880 
z
M 2733 2880 
L 2733 3757 
L 3949 3757 
L 3949 2880 
L 2733 2880 
z
M 2733 2522 
L 3949 2522 
L 3949 1638 
L 2733 1638 
L 2733 2522 
z
M 2733 1280 
L 3949 1280 
L 3949 269 
L 2733 269 
L 2733 1280 
z
M 429 4806 
C 832 4429 1050 4166 1382 3667 
L 1715 3962 
C 1389 4403 1190 4634 755 5075 
L 429 4806 
z
M 1478 2336 
C 1210 1722 1069 1459 672 813 
C 493 525 410 422 256 282 
L 640 -58 
C 698 64 742 141 794 211 
C 1318 1050 1478 1338 1779 2035 
L 1478 2336 
z
" transform="scale(0.015625)"/>
       </defs>
       <use xlink:href="#HiraginoSansGB-W3-8bca"/>
       <use xlink:href="#HiraginoSansGB-W3-65ad" x="99.999985"/>
       <use xlink:href="#HiraginoSansGB-W3-51c6" x="199.999969"/>
       <use xlink:href="#HiraginoSansGB-W3-786e" x="299.999954"/>
       <use xlink:href="#HiraginoSansGB-W3-6027" x="399.999939"/>
      </g>
     </g>
    </g>
    <g id="ytick_3">
     <g id="line2d_25">
      <path d="M 339.220235 140.602036 
L 576.555215 140.602036 
" clip-path="url(#p35ff5e1f39)" style="fill: none; stroke: #e5e7eb; stroke-opacity: 0.7; stroke-width: 0.6; stroke-linecap: square"/>
     </g>
     <g id="line2d_26">
      <g>
       <use xlink:href="#m30e5c2717b" x="339.220235" y="140.602036" style="fill: #374151; stroke: #374151; stroke-width: 0.6"/>
      </g>
     </g>
     <g id="text_14">
      <!-- 回复有用性 -->
      <g style="fill: #374151" transform="translate(289.720235 143.857271) scale(0.085 -0.085)">
       <defs>
        <path id="HiraginoSansGB-W3-56de" d="M 2624 3629 
C 2304 3629 2125 3635 1958 3654 
C 1978 3494 1984 3373 1984 3162 
L 1984 1766 
C 1984 1562 1978 1421 1958 1274 
C 2144 1293 2253 1299 2624 1299 
L 3750 1299 
C 4045 1299 4218 1293 4416 1274 
C 4397 1427 4390 1536 4390 1766 
L 4390 3162 
C 4390 3392 4397 3520 4416 3654 
C 4250 3635 4070 3629 3750 3629 
L 2624 3629 
z
M 2381 3277 
L 3994 3277 
L 3994 1651 
L 2381 1651 
L 2381 3277 
z
M 5843 -486 
C 5818 -326 5805 -102 5805 269 
L 5805 4243 
C 5805 4576 5818 4787 5843 5030 
C 5606 5005 5421 4998 5082 4998 
L 1312 4998 
C 979 4998 794 5005 563 5030 
C 589 4787 602 4563 602 4243 
L 602 282 
C 602 -96 589 -294 563 -486 
L 1018 -486 
L 1018 -109 
L 5389 -109 
L 5389 -486 
L 5843 -486 
z
M 1018 4627 
L 5389 4627 
L 5389 262 
L 1018 262 
L 1018 4627 
z
" transform="scale(0.015625)"/>
        <path id="HiraginoSansGB-W3-590d" d="M 5011 1728 
C 4909 1702 4768 1696 4499 1696 
L 2342 1696 
C 2515 1888 2566 1958 2675 2112 
L 4595 2112 
C 4870 2112 5018 2106 5184 2086 
C 5171 2208 5165 2355 5165 2694 
L 5165 3456 
C 5165 3808 5171 3942 5184 4058 
C 5030 4038 4870 4032 4570 4032 
L 2042 4032 
C 1786 4032 1568 4038 1459 4051 
C 1568 4198 1613 4269 1728 4448 
L 4870 4448 
C 5229 4448 5478 4435 5658 4410 
L 5658 4838 
C 5504 4813 5280 4800 4864 4800 
L 1939 4800 
C 2067 5037 2150 5178 2176 5222 
L 1766 5382 
C 1696 5114 1504 4755 1210 4352 
C 941 3981 787 3827 435 3578 
C 640 3462 717 3398 774 3283 
C 1094 3584 1203 3706 1427 4013 
C 1440 3891 1446 3750 1446 3469 
L 1446 2682 
C 1446 2406 1440 2227 1421 2086 
C 1562 2106 1722 2112 2010 2112 
L 2202 2112 
C 1958 1824 1914 1773 1747 1632 
C 1414 1344 915 1030 403 794 
C 538 704 570 666 698 480 
C 1203 774 1510 973 1734 1152 
C 2042 883 2419 621 2829 397 
C 2067 154 1293 13 326 -58 
C 416 -192 461 -282 518 -461 
C 781 -422 1824 -243 2042 -192 
C 2464 -102 2950 51 3283 186 
C 4154 -173 4902 -358 5907 -461 
C 5946 -307 6016 -160 6093 -51 
C 5222 -13 4454 134 3750 390 
C 4250 646 4698 960 5082 1325 
C 5184 1427 5197 1440 5274 1498 
L 5011 1728 
z
M 2016 1382 
L 4646 1382 
C 4256 1043 3891 819 3302 576 
C 2778 819 2342 1088 2003 1376 
L 2016 1382 
z
M 1843 3712 
L 4768 3712 
L 4768 3232 
L 1843 3232 
L 1843 3712 
z
M 1843 2918 
L 4768 2918 
L 4768 2432 
L 1843 2432 
L 1843 2918 
z
" transform="scale(0.015625)"/>
        <path id="HiraginoSansGB-W3-6709" d="M 2195 4134 
C 1978 3731 1766 3418 1472 3091 
C 1082 2650 678 2304 211 2003 
C 365 1875 416 1818 493 1677 
C 1011 2067 1299 2336 1664 2752 
L 1664 294 
C 1664 19 1651 -211 1626 -435 
L 2099 -435 
C 2074 -230 2067 -26 2067 294 
L 2067 979 
L 4768 979 
L 4768 198 
C 4768 38 4723 6 4474 6 
C 4198 6 3981 19 3661 70 
C 3718 -83 3738 -166 3757 -339 
C 4070 -358 4256 -365 4461 -365 
C 4774 -365 4902 -346 4998 -282 
C 5114 -205 5171 -70 5171 128 
L 5171 2694 
C 5171 3027 5178 3251 5197 3443 
C 5005 3418 4838 3411 4512 3411 
L 2176 3411 
C 2330 3622 2483 3878 2611 4134 
L 5344 4134 
C 5613 4134 5850 4122 6042 4096 
L 6042 4557 
C 5837 4531 5638 4518 5344 4518 
L 2790 4518 
C 2861 4691 2912 4826 2950 4928 
C 3040 5190 3046 5210 3078 5280 
L 2611 5338 
C 2573 5062 2502 4806 2374 4518 
L 1088 4518 
C 781 4518 582 4531 378 4557 
L 378 4096 
C 589 4122 794 4134 1088 4134 
L 2195 4134 
z
M 2067 2022 
L 4768 2022 
L 4768 1325 
L 2067 1325 
L 2067 2022 
z
M 2067 2368 
L 2067 3046 
L 4768 3046 
L 4768 2368 
L 2067 2368 
z
" transform="scale(0.015625)"/>
        <path id="HiraginoSansGB-W3-7528" d="M 3040 1651 
L 3040 442 
C 3040 102 3034 -90 3008 -256 
L 3469 -256 
C 3443 -102 3437 102 3437 442 
L 3437 1651 
L 5312 1651 
L 5312 205 
C 5312 45 5261 13 4966 13 
C 4736 13 4435 38 4058 83 
C 4115 -77 4141 -186 4154 -333 
C 4448 -352 4717 -365 4954 -365 
C 5574 -365 5715 -269 5715 134 
L 5715 4429 
C 5715 4717 5722 4883 5741 5056 
C 5555 5037 5382 5030 5062 5030 
L 1619 5030 
C 1299 5030 1107 5037 915 5056 
C 934 4781 941 4653 941 4051 
C 941 2432 883 1504 742 909 
C 640 474 499 186 224 -173 
C 390 -269 454 -314 595 -448 
C 1018 160 1203 717 1286 1651 
L 3040 1651 
z
M 3040 3526 
L 1350 3526 
L 1357 3885 
L 1357 4646 
L 3040 4646 
L 3040 3526 
z
M 3437 3526 
L 3437 4646 
L 5312 4646 
L 5312 3526 
L 3437 3526 
z
M 3040 3162 
L 3040 2022 
L 1312 2022 
C 1331 2336 1331 2336 1338 2739 
C 1338 2829 1338 2976 1344 3162 
L 3040 3162 
z
M 3437 3162 
L 5312 3162 
L 5312 2022 
L 3437 2022 
L 3437 3162 
z
" transform="scale(0.015625)"/>
       </defs>
       <use xlink:href="#HiraginoSansGB-W3-56de"/>
       <use xlink:href="#HiraginoSansGB-W3-590d" x="99.999985"/>
       <use xlink:href="#HiraginoSansGB-W3-6709" x="199.999969"/>
       <use xlink:href="#HiraginoSansGB-W3-7528" x="299.999954"/>
       <use xlink:href="#HiraginoSansGB-W3-6027" x="399.999939"/>
      </g>
     </g>
    </g>
    <g id="ytick_4">
     <g id="line2d_27">
      <path d="M 339.220235 186.260359 
L 576.555215 186.260359 
" clip-path="url(#p35ff5e1f39)" style="fill: none; stroke: #e5e7eb; stroke-opacity: 0.7; stroke-width: 0.6; stroke-linecap: square"/>
     </g>
     <g id="line2d_28">
      <g>
       <use xlink:href="#m30e5c2717b" x="339.220235" y="186.260359" style="fill: #374151; stroke: #374151; stroke-width: 0.6"/>
      </g>
     </g>
     <g id="text_15">
      <!-- 幻觉抑制 -->
      <g style="fill: #374151" transform="translate(298.220235 189.515593) scale(0.085 -0.085)">
       <defs>
        <path id="HiraginoSansGB-W3-5e7b" d="M 3565 -32 
C 3341 666 3149 1152 2816 1824 
L 2451 1664 
C 2643 1299 2694 1190 2848 800 
C 2413 685 2317 659 2022 608 
C 1504 506 1504 506 1274 448 
C 1459 691 1728 1094 2093 1683 
C 2336 2061 2637 2598 2810 2931 
C 3091 3494 3091 3494 3200 3686 
L 2771 3891 
C 2534 3290 2522 3264 2342 2912 
C 1811 2867 1421 2835 1184 2816 
C 1261 2970 1261 2970 1530 3520 
C 1606 3680 1850 4198 1894 4314 
C 2125 4902 2144 4941 2202 5030 
L 1747 5190 
C 1702 4979 1677 4890 1606 4691 
C 1440 4230 1088 3437 902 3123 
C 762 2886 685 2822 518 2790 
L 608 2400 
C 730 2419 826 2426 1030 2445 
C 1190 2451 1299 2464 1504 2477 
C 1722 2496 1843 2509 1882 2509 
L 2144 2528 
C 1914 2099 1427 1299 1235 1043 
C 864 557 774 467 525 371 
L 640 -19 
C 902 32 928 38 1408 128 
C 1786 198 2157 282 2970 474 
C 3059 198 3078 141 3181 -218 
L 3565 -32 
z
M 5427 4339 
C 5421 3622 5408 3168 5382 2726 
C 5344 1818 5242 922 5133 480 
C 5062 186 4986 128 4710 128 
C 4467 128 4205 154 3859 218 
C 3923 51 3949 -45 3962 -224 
C 4314 -256 4512 -269 4742 -269 
C 5171 -269 5382 -154 5478 134 
C 5670 730 5798 2074 5837 3885 
C 5850 4602 5850 4602 5869 4749 
C 5728 4730 5498 4717 5235 4717 
L 3699 4717 
C 3398 4717 3200 4730 3040 4755 
L 3040 4301 
C 3213 4326 3386 4339 3699 4339 
L 5427 4339 
z
" transform="scale(0.015625)"/>
        <path id="HiraginoSansGB-W3-89c9" d="M 544 3360 
C 544 3219 538 3136 518 2970 
L 941 2970 
L 941 3955 
L 5453 3955 
L 5453 2970 
L 5875 2970 
C 5856 3085 5850 3187 5850 3328 
L 5850 3738 
C 5850 3994 5856 4128 5875 4320 
C 5747 4301 5613 4294 5216 4294 
L 4640 4294 
C 4781 4480 4838 4563 5030 4902 
C 5075 4986 5094 5018 5165 5139 
L 4774 5299 
C 4595 4870 4448 4627 4186 4294 
L 3526 4294 
C 3360 4723 3232 4979 3002 5338 
L 2611 5222 
C 2803 4954 2893 4794 3110 4294 
L 2195 4294 
C 1939 4762 1869 4877 1549 5299 
L 1152 5184 
C 1408 4877 1504 4730 1747 4294 
L 1190 4294 
C 858 4294 691 4301 518 4320 
C 538 4134 544 4026 544 3789 
L 544 3360 
z
M 2963 2502 
C 2976 2374 2982 2310 2982 2176 
C 2982 1530 2886 1114 2662 819 
C 2362 410 1792 102 1171 0 
C 960 -32 806 -45 397 -51 
C 499 -224 538 -307 589 -499 
C 1146 -461 1440 -410 1818 -275 
C 2374 -70 2803 256 3072 691 
C 3290 1043 3360 1357 3398 2253 
C 3405 2368 3405 2406 3424 2502 
L 2963 2502 
z
M 3379 1210 
C 3398 986 3405 851 3405 557 
L 3405 179 
C 3405 -90 3437 -192 3558 -275 
C 3680 -365 3891 -390 4518 -390 
C 5306 -390 5581 -346 5741 -205 
C 5901 -58 5965 192 5997 819 
C 5843 864 5754 902 5613 1005 
C 5613 538 5581 314 5510 192 
C 5434 58 5235 32 4358 32 
C 4115 32 3949 51 3885 90 
C 3827 122 3808 173 3808 282 
L 3808 550 
C 3808 890 3814 1037 3840 1210 
L 3379 1210 
z
M 1894 960 
C 1869 1158 1862 1235 1862 1741 
L 1856 2931 
L 4525 2931 
L 4525 1728 
C 4525 1421 4512 1203 4480 960 
L 4954 960 
C 4928 1178 4922 1408 4922 1728 
L 4922 2598 
C 4922 2970 4928 3142 4947 3334 
C 4755 3309 4602 3302 4250 3302 
L 2138 3302 
C 1786 3302 1632 3309 1440 3334 
C 1459 3098 1466 2963 1466 2598 
L 1466 1741 
C 1466 1427 1453 1216 1421 960 
L 1894 960 
z
" transform="scale(0.015625)"/>
        <path id="HiraginoSansGB-W3-6291" d="M 1107 3661 
L 1107 2246 
C 659 2080 474 2029 275 1997 
L 371 1562 
C 448 1606 582 1658 704 1702 
C 813 1734 966 1792 1107 1850 
L 1107 96 
C 1107 -13 1075 -38 928 -38 
C 762 -38 570 -19 358 26 
C 410 -128 429 -224 442 -378 
C 653 -403 794 -410 960 -410 
C 1382 -410 1504 -307 1504 38 
L 1504 2010 
C 1779 2131 1830 2157 2106 2291 
L 2106 2682 
C 1843 2547 1818 2541 1504 2400 
L 1504 3661 
L 1702 3661 
C 1862 3661 1958 3654 2080 3635 
L 2080 4051 
C 1952 4032 1869 4026 1702 4026 
L 1504 4026 
L 1504 4627 
C 1504 4928 1510 5101 1542 5274 
L 1069 5274 
C 1094 5094 1107 4922 1107 4621 
L 1107 4026 
L 806 4026 
C 602 4026 493 4032 352 4058 
L 352 3629 
C 518 3654 659 3661 800 3661 
L 1107 3661 
z
M 2374 4102 
L 2374 1210 
C 2374 1037 2336 954 2208 877 
L 2413 461 
C 2560 518 2560 518 2682 570 
C 3053 723 3053 723 3373 851 
C 3622 954 3622 954 3808 1030 
L 3789 1446 
C 3238 1210 3104 1158 2778 1043 
L 2778 4371 
C 3098 4480 3373 4589 3616 4710 
C 3885 4838 3885 4838 3962 4870 
L 3667 5216 
C 3334 4966 2861 4768 2355 4659 
C 2368 4538 2374 4416 2374 4122 
L 2374 4102 
z
M 5869 4282 
C 5869 4525 5875 4678 5894 4845 
C 5741 4826 5600 4819 5331 4819 
L 4506 4819 
C 4256 4819 4115 4826 3942 4845 
C 3955 4691 3962 4589 3962 4288 
L 3962 224 
C 3962 -96 3949 -282 3923 -499 
L 4403 -499 
C 4371 -294 4365 -96 4365 230 
L 4365 4461 
L 5472 4461 
L 5472 1152 
C 5472 973 5434 947 5190 947 
C 5005 947 4794 966 4570 1005 
C 4634 864 4666 742 4678 582 
C 4909 563 5018 557 5146 557 
C 5734 557 5869 653 5869 1075 
L 5869 4282 
z
" transform="scale(0.015625)"/>
        <path id="HiraginoSansGB-W3-5236" d="M 1888 4403 
L 1210 4403 
C 1242 4493 1293 4646 1331 4774 
C 1370 4909 1408 5030 1440 5107 
L 1024 5210 
C 1018 5114 998 5005 954 4851 
C 826 4365 666 4038 371 3622 
C 512 3571 608 3520 730 3437 
C 870 3661 986 3866 1062 4045 
L 1888 4045 
L 1888 3290 
L 966 3290 
C 704 3290 550 3296 378 3328 
L 378 2893 
C 550 2918 717 2931 986 2931 
L 1888 2931 
L 1888 2234 
L 1210 2234 
C 979 2234 800 2240 602 2266 
C 621 2093 627 1914 627 1670 
L 627 659 
C 627 275 621 166 595 0 
L 1037 0 
C 1018 179 1011 358 1011 666 
L 1011 1875 
L 1888 1875 
L 1888 243 
C 1888 -58 1875 -269 1850 -480 
L 2310 -480 
C 2285 -288 2278 -115 2278 243 
L 2278 1875 
L 3149 1875 
L 3149 499 
C 3149 403 3110 390 2880 390 
C 2733 390 2605 403 2470 422 
C 2509 301 2528 192 2534 38 
C 2726 26 2803 26 2886 26 
C 3398 26 3526 102 3526 410 
L 3526 1677 
C 3526 1939 3533 2093 3552 2266 
C 3366 2240 3187 2234 2957 2234 
L 2278 2234 
L 2278 2931 
L 3168 2931 
C 3475 2931 3629 2925 3776 2899 
L 3776 3322 
C 3610 3296 3430 3290 3174 3290 
L 2278 3290 
L 2278 4045 
L 2931 4045 
C 3238 4045 3398 4038 3558 4013 
L 3558 4435 
C 3411 4410 3251 4403 2931 4403 
L 2278 4403 
L 2278 4659 
C 2278 4998 2285 5133 2317 5306 
L 1850 5306 
C 1882 5133 1888 4979 1888 4653 
L 1888 4403 
z
M 4070 4928 
C 4102 4749 4109 4576 4109 4224 
L 4109 1722 
C 4109 1306 4102 1178 4077 1005 
L 4544 1005 
C 4518 1171 4512 1299 4512 1722 
L 4512 4230 
C 4512 4589 4518 4755 4550 4928 
L 4070 4928 
z
M 5376 5286 
C 5408 5088 5421 4883 5421 4506 
L 5421 179 
C 5421 19 5376 -13 5114 -13 
C 4896 -13 4634 6 4307 51 
C 4378 -90 4403 -186 4429 -358 
C 4768 -384 4928 -390 5120 -390 
C 5690 -390 5824 -282 5824 186 
L 5824 4512 
C 5824 4883 5837 5101 5869 5286 
L 5376 5286 
z
" transform="scale(0.015625)"/>
       </defs>
       <use xlink:href="#HiraginoSansGB-W3-5e7b"/>
       <use xlink:href="#HiraginoSansGB-W3-89c9" x="99.999985"/>
       <use xlink:href="#HiraginoSansGB-W3-6291" x="199.999969"/>
       <use xlink:href="#HiraginoSansGB-W3-5236" x="299.999954"/>
      </g>
     </g>
    </g>
   </g>
   <g id="patch_3">
    <path d="M 339.220235 36.729352 
L 418.331895 36.729352 
L 418.331895 61.84143 
L 339.220235 61.84143 
z
" clip-path="url(#p35ff5e1f39)" style="fill: #e76f51; stroke: #ffffff; stroke-width: 0.5; stroke-linejoin: miter"/>
   </g>
   <g id="patch_4">
    <path d="M 339.220235 82.387675 
L 497.443555 82.387675 
L 497.443555 107.499752 
L 339.220235 107.499752 
z
" clip-path="url(#p35ff5e1f39)" style="fill: #e76f51; stroke: #ffffff; stroke-width: 0.5; stroke-linejoin: miter"/>
   </g>
   <g id="patch_5">
    <path d="M 339.220235 128.045998 
L 444.702449 128.045998 
L 444.702449 153.158075 
L 339.220235 153.158075 
z
" clip-path="url(#p35ff5e1f39)" style="fill: #e76f51; stroke: #ffffff; stroke-width: 0.5; stroke-linejoin: miter"/>
   </g>
   <g id="patch_6">
    <path d="M 339.220235 173.70432 
L 405.146619 173.70432 
L 405.146619 198.816398 
L 339.220235 198.816398 
z
" clip-path="url(#p35ff5e1f39)" style="fill: #e76f51; stroke: #ffffff; stroke-width: 0.5; stroke-linejoin: miter"/>
   </g>
   <g id="line2d_29">
    <path d="M 471.073002 206.92075 
L 471.073002 28.625 
" clip-path="url(#p35ff5e1f39)" style="fill: none; stroke-dasharray: 3.7,1.6; stroke-dashoffset: 0; stroke: #264653"/>
   </g>
   <g id="patch_7">
    <path d="M 339.220235 206.92075 
L 339.220235 28.625 
" style="fill: none; stroke: #374151; stroke-width: 0.8; stroke-linejoin: miter; stroke-linecap: square"/>
   </g>
   <g id="patch_8">
    <path d="M 339.220235 206.92075 
L 576.555215 206.92075 
" style="fill: none; stroke: #374151; stroke-width: 0.8; stroke-linejoin: miter; stroke-linecap: square"/>
   </g>
   <g id="text_16">
    <!-- 6% -->
    <g transform="translate(422.287478 51.532891) scale(0.08 -0.08)">
     <use xlink:href="#HiraginoSansGB-W3-36"/>
     <use xlink:href="#HiraginoSansGB-W3-25" x="65.699997"/>
    </g>
   </g>
   <g id="text_17">
    <!-- 12% -->
    <g transform="translate(501.399138 97.191214) scale(0.08 -0.08)">
     <use xlink:href="#HiraginoSansGB-W3-31"/>
     <use xlink:href="#HiraginoSansGB-W3-32" x="65.699997"/>
     <use xlink:href="#HiraginoSansGB-W3-25" x="131.399994"/>
    </g>
   </g>
   <g id="text_18">
    <!-- 8% -->
    <g transform="translate(448.658032 142.849536) scale(0.08 -0.08)">
     <use xlink:href="#HiraginoSansGB-W3-38"/>
     <use xlink:href="#HiraginoSansGB-W3-25" x="65.699997"/>
    </g>
   </g>
   <g id="text_19">
    <!-- 5% -->
    <g transform="translate(409.102202 188.507859) scale(0.08 -0.08)">
     <defs>
      <path id="HiraginoSansGB-W3-35" d="M 1261 4461 
L 2765 4461 
C 3066 4461 3270 4448 3514 4410 
L 3514 4954 
C 3258 4915 3110 4902 2765 4902 
L 1446 4902 
C 1069 4902 966 4909 768 4934 
C 781 4774 781 4749 781 4659 
C 781 4538 774 4461 762 4275 
L 621 2829 
C 595 2554 576 2419 525 2170 
L 1005 2125 
C 1075 2298 1146 2387 1299 2509 
C 1530 2688 1811 2778 2138 2778 
C 2816 2778 3258 2317 3258 1613 
C 3258 877 2778 390 2061 390 
C 1690 390 1370 525 1152 768 
C 1056 877 1011 960 947 1139 
L 422 986 
C 576 678 666 544 826 384 
C 1133 96 1549 -51 2048 -51 
C 3104 -51 3776 608 3776 1638 
C 3776 2112 3635 2490 3347 2765 
C 3059 3046 2662 3200 2195 3200 
C 1754 3200 1382 3053 1075 2758 
C 1114 2931 1114 2931 1126 3046 
L 1261 4461 
z
" transform="scale(0.015625)"/>
     </defs>
     <use xlink:href="#HiraginoSansGB-W3-35"/>
     <use xlink:href="#HiraginoSansGB-W3-25" x="65.699997"/>
    </g>
   </g>
   <g id="text_20">
    <!-- 综合低分率 10% -->
    <g style="fill: #264653" transform="translate(475.028585 31.022062) scale(0.08 -0.08)">
     <defs>
      <path id="HiraginoSansGB-W3-7efc" d="M 4531 4646 
C 4429 4877 4282 5126 4096 5370 
L 3776 5197 
C 3904 5018 3962 4922 4122 4646 
L 3206 4646 
C 2963 4646 2714 4659 2528 4678 
C 2547 4544 2547 4486 2547 4307 
L 2547 3866 
C 2547 3667 2541 3590 2528 3450 
L 2918 3450 
L 2918 4294 
L 5638 4294 
L 5638 3437 
L 6042 3437 
C 6022 3584 6016 3686 6016 3872 
L 6016 4269 
C 6016 4474 6022 4544 6035 4678 
C 5856 4659 5638 4646 5421 4646 
L 4531 4646 
z
M 4058 2272 
L 4058 147 
C 4058 38 4013 13 3846 13 
C 3667 13 3507 26 3226 64 
C 3296 -90 3328 -192 3354 -358 
C 3539 -371 3667 -378 3814 -378 
C 4077 -378 4205 -358 4288 -314 
C 4416 -243 4467 -122 4467 102 
L 4467 2272 
L 5408 2272 
C 5632 2272 5837 2259 6010 2234 
L 6010 2662 
C 5837 2637 5670 2624 5408 2624 
L 3219 2624 
C 2957 2624 2803 2637 2630 2662 
L 2630 2234 
C 2810 2266 2963 2272 3219 2272 
L 4058 2272 
z
M 486 1376 
C 698 1427 787 1446 979 1478 
C 1197 1523 2067 1696 2413 1773 
L 2426 2144 
C 1747 1978 1440 1914 1011 1850 
C 1101 1926 1101 1926 1197 2054 
L 1760 2758 
C 1850 2874 2163 3334 2406 3699 
L 2042 3904 
C 1920 3680 1882 3616 1766 3437 
C 1498 3411 1210 3392 896 3373 
C 1133 3731 1299 4038 1587 4672 
C 1632 4768 1632 4768 1798 5120 
L 1382 5286 
C 1069 4429 1018 4314 813 3898 
C 589 3462 557 3424 358 3347 
L 448 2970 
C 973 3046 1254 3078 1549 3098 
C 1312 2752 1126 2496 864 2176 
C 646 1907 557 1824 365 1766 
L 486 1376 
z
M 3155 1843 
C 2957 1075 2784 710 2355 166 
C 2522 70 2579 26 2682 -96 
C 3098 480 3296 902 3526 1702 
L 3155 1843 
z
M 4954 1677 
C 5274 1120 5504 627 5728 -26 
L 6099 173 
C 5734 1024 5549 1408 5280 1830 
L 4954 1677 
z
M 3085 3245 
C 3245 3264 3379 3270 3578 3270 
L 4992 3270 
C 5197 3270 5325 3264 5478 3245 
L 5478 3661 
C 5325 3642 5216 3635 4992 3635 
L 3584 3635 
C 3360 3635 3238 3642 3085 3661 
L 3085 3245 
z
M 2394 922 
C 1696 646 646 352 358 352 
C 346 352 333 352 314 352 
L 435 -90 
C 512 -64 544 -51 646 -26 
C 1395 173 1747 282 2406 531 
L 2394 922 
z
" transform="scale(0.015625)"/>
      <path id="HiraginoSansGB-W3-5408" d="M 3456 5312 
L 3053 5491 
C 2816 5062 2528 4698 2118 4314 
C 1549 3776 1018 3437 224 3098 
C 358 2950 410 2880 467 2733 
C 698 2842 851 2925 1165 3110 
C 1613 3379 1939 3622 2406 4038 
C 2707 4314 2854 4474 3149 4864 
C 3795 4013 4755 3283 5978 2726 
C 6048 2880 6118 2982 6227 3110 
C 5606 3341 5043 3661 4474 4096 
C 3981 4474 3693 4774 3386 5210 
L 3456 5312 
z
M 1690 2925 
C 1824 2944 1990 2950 2189 2950 
L 4179 2950 
C 4422 2950 4576 2944 4717 2925 
L 4717 3360 
C 4582 3341 4429 3334 4179 3334 
L 2195 3334 
C 1958 3334 1805 3341 1690 3360 
L 1690 2925 
z
M 1645 -416 
L 1645 -45 
L 4736 -45 
L 4736 -416 
L 5197 -416 
C 5171 -230 5158 -38 5158 211 
L 5158 1626 
C 5158 1875 5165 2042 5190 2214 
C 5056 2195 4922 2189 4691 2189 
L 1690 2189 
C 1459 2189 1325 2195 1190 2214 
C 1216 2035 1222 1862 1222 1626 
L 1222 211 
C 1222 -32 1210 -218 1184 -416 
L 1645 -416 
z
M 1645 1798 
L 4736 1798 
L 4736 333 
L 1645 333 
L 1645 1798 
z
" transform="scale(0.015625)"/>
     </defs>
     <use xlink:href="#HiraginoSansGB-W3-7efc"/>
     <use xlink:href="#HiraginoSansGB-W3-5408" x="99.999985"/>
     <use xlink:href="#HiraginoSansGB-W3-4f4e" x="199.999969"/>
     <use xlink:href="#HiraginoSansGB-W3-5206" x="299.999954"/>
     <use xlink:href="#HiraginoSansGB-W3-7387" x="399.999939"/>
     <use xlink:href="#HiraginoSansGB-W3-20" x="499.999924"/>
     <use xlink:href="#HiraginoSansGB-W3-31" x="533.299911"/>
     <use xlink:href="#HiraginoSansGB-W3-30" x="598.999908"/>
     <use xlink:href="#HiraginoSansGB-W3-25" x="664.699905"/>
    </g>
   </g>
  </g>
  <g id="axes_2">
   <g id="patch_9">
    <path d="M 220.55575 117.772875 
C 220.55575 106.066083 218.249767 94.473125 213.769772 83.65746 
C 209.289777 72.841795 202.722894 63.01376 194.444942 54.735808 
C 186.16699 46.457856 176.338955 39.890973 165.52329 35.410978 
C 154.707625 30.930983 143.114667 28.625 131.407875 28.625 
C 119.701083 28.625 108.108125 30.930983 97.29246 35.410978 
C 86.476795 39.890973 76.64876 46.457856 68.370808 54.735808 
C 60.092856 63.01376 53.525973 72.841795 49.045978 83.65746 
C 44.565983 94.473125 42.26 106.066083 42.26 117.772875 
C 42.26 129.479667 44.565983 141.072625 49.045978 151.88829 
C 53.525973 162.703955 60.092856 172.53199 68.370808 180.809942 
C 76.64876 189.087894 86.476795 195.654777 97.29246 200.134772 
C 108.108125 204.614767 119.701083 206.92075 131.407875 206.92075 
C 143.114667 206.92075 154.707625 204.614767 165.52329 200.134772 
C 176.338955 195.654777 186.16699 189.087894 194.444942 180.809942 
C 202.722894 172.53199 209.289777 162.703955 213.769772 151.88829 
C 218.249767 141.072625 220.55575 129.479667 220.55575 117.772875 
M 131.407875 117.772875 
C 131.407875 117.772875 131.407875 117.772875 131.407875 117.772875 
C 131.407875 117.772875 131.407875 117.772875 131.407875 117.772875 
C 131.407875 117.772875 131.407875 117.772875 131.407875 117.772875 
C 131.407875 117.772875 131.407875 117.772875 131.407875 117.772875 
C 131.407875 117.772875 131.407875 117.772875 131.407875 117.772875 
C 131.407875 117.772875 131.407875 117.772875 131.407875 117.772875 
C 131.407875 117.772875 131.407875 117.772875 131.407875 117.772875 
C 131.407875 117.772875 131.407875 117.772875 131.407875 117.772875 
C 131.407875 117.772875 131.407875 117.772875 131.407875 117.772875 
C 131.407875 117.772875 131.407875 117.772875 131.407875 117.772875 
C 131.407875 117.772875 131.407875 117.772875 131.407875 117.772875 
C 131.407875 117.772875 131.407875 117.772875 131.407875 117.772875 
C 131.407875 117.772875 131.407875 117.772875 131.407875 117.772875 
C 131.407875 117.772875 131.407875 117.772875 131.407875 117.772875 
C 131.407875 117.772875 131.407875 117.772875 131.407875 117.772875 
C 131.407875 117.772875 131.407875 117.772875 131.407875 117.772875 
z
" style="fill: #ffffff"/>
   </g>
   <g id="patch_10">
    <path d="M 131.407875 46.454575 
L 199.919668 117.772875 
L 131.407875 188.43082 
L 72.801402 117.772875 
z
" clip-path="url(#pff20da1f81)" style="fill: #264653; opacity: 0.18; stroke: #264653; stroke-linejoin: miter"/>
   </g>
   <g id="matplotlib.axis_3">
    <g id="xtick_11">
     <g id="line2d_30">
      <path d="M 131.407875 117.772875 
L 131.407875 28.625 
" clip-path="url(#pff20da1f81)" style="fill: none; stroke: #e5e7eb; stroke-opacity: 0.7; stroke-width: 0.6; stroke-linecap: square"/>
     </g>
     <g id="text_21">
      <!-- 工具正确性 -->
      <g style="fill: #374151" transform="translate(108.907875 12.653437) scale(0.09 -0.09)">
       <use xlink:href="#HiraginoSansGB-W3-5de5"/>
       <use xlink:href="#HiraginoSansGB-W3-5177" x="99.999985"/>
       <use xlink:href="#HiraginoSansGB-W3-6b63" x="199.999969"/>
       <use xlink:href="#HiraginoSansGB-W3-786e" x="299.999954"/>
       <use xlink:href="#HiraginoSansGB-W3-6027" x="399.999939"/>
      </g>
     </g>
    </g>
    <g id="xtick_12">
     <g id="line2d_31">
      <path d="M 131.407875 117.772875 
L 220.55575 117.772875 
" clip-path="url(#pff20da1f81)" style="fill: none; stroke: #e5e7eb; stroke-opacity: 0.7; stroke-width: 0.6; stroke-linecap: square"/>
     </g>
     <g id="text_22">
      <!-- 诊断准确性 -->
      <g style="fill: #374151" transform="translate(216.55575 120.301312) scale(0.09 -0.09)">
       <use xlink:href="#HiraginoSansGB-W3-8bca"/>
       <use xlink:href="#HiraginoSansGB-W3-65ad" x="99.999985"/>
       <use xlink:href="#HiraginoSansGB-W3-51c6" x="199.999969"/>
       <use xlink:href="#HiraginoSansGB-W3-786e" x="299.999954"/>
       <use xlink:href="#HiraginoSansGB-W3-6027" x="399.999939"/>
      </g>
     </g>
    </g>
    <g id="xtick_13">
     <g id="line2d_32">
      <path d="M 131.407875 117.772875 
L 131.407875 206.92075 
" clip-path="url(#pff20da1f81)" style="fill: none; stroke: #e5e7eb; stroke-opacity: 0.7; stroke-width: 0.6; stroke-linecap: square"/>
     </g>
     <g id="text_23">
      <!-- 回复有用性 -->
      <g style="fill: #374151" transform="translate(108.907875 227.949187) scale(0.09 -0.09)">
       <use xlink:href="#HiraginoSansGB-W3-56de"/>
       <use xlink:href="#HiraginoSansGB-W3-590d" x="99.999985"/>
       <use xlink:href="#HiraginoSansGB-W3-6709" x="199.999969"/>
       <use xlink:href="#HiraginoSansGB-W3-7528" x="299.999954"/>
       <use xlink:href="#HiraginoSansGB-W3-6027" x="399.999939"/>
      </g>
     </g>
    </g>
    <g id="xtick_14">
     <g id="line2d_33">
      <path d="M 131.407875 117.772875 
L 42.26 117.772875 
" clip-path="url(#pff20da1f81)" style="fill: none; stroke: #e5e7eb; stroke-opacity: 0.7; stroke-width: 0.6; stroke-linecap: square"/>
     </g>
     <g id="text_24">
      <!-- 幻觉抑制 -->
      <g style="fill: #374151" transform="translate(5.76 120.301312) scale(0.09 -0.09)">
       <use xlink:href="#HiraginoSansGB-W3-5e7b"/>
       <use xlink:href="#HiraginoSansGB-W3-89c9" x="99.999985"/>
       <use xlink:href="#HiraginoSansGB-W3-6291" x="199.999969"/>
       <use xlink:href="#HiraginoSansGB-W3-5236" x="299.999954"/>
      </g>
     </g>
    </g>
   </g>
   <g id="matplotlib.axis_4">
    <g id="ytick_5">
     <g id="line2d_34">
      <path d="M 131.407875 101.264009 
C 133.575799 101.264009 135.722643 101.691043 137.725544 102.520672 
C 139.728445 103.350301 141.548452 104.56639 143.081406 106.099344 
C 144.61436 107.632298 145.830449 109.452305 146.660078 111.455206 
C 147.489707 113.458107 147.916741 115.604951 147.916741 117.772875 
C 147.916741 119.940799 147.489707 122.087643 146.660078 124.090544 
C 145.830449 126.093445 144.61436 127.913452 143.081406 129.446406 
C 141.548452 130.97936 139.728445 132.195449 137.725544 133.025078 
C 135.722643 133.854707 133.575799 134.281741 131.407875 134.281741 
C 129.239951 134.281741 127.093107 133.854707 125.090206 133.025078 
C 123.087305 132.195449 121.267298 130.97936 119.734344 129.446406 
C 118.20139 127.913452 116.985301 126.093445 116.155672 124.090544 
C 115.326043 122.087643 114.899009 119.940799 114.899009 117.772875 
C 114.899009 115.604951 115.326043 113.458107 116.155672 111.455206 
C 116.985301 109.452305 118.20139 107.632298 119.734344 106.099344 
C 121.267298 104.56639 123.087305 103.350301 125.090206 102.520672 
C 127.093107 101.691043 129.239951 101.264009 131.407875 101.264009 
" clip-path="url(#pff20da1f81)" style="fill: none; stroke: #e5e7eb; stroke-opacity: 0.7; stroke-width: 0.6; stroke-linecap: square"/>
     </g>
     <g id="text_25">
      <!-- 1 -->
      <g style="fill: #6b7280" transform="translate(137.725544 101.092234) scale(0.07 -0.07)">
       <use xlink:href="#HiraginoSansGB-W3-31"/>
      </g>
     </g>
    </g>
    <g id="ytick_6">
     <g id="line2d_35">
      <path d="M 131.407875 84.755144 
C 135.743724 84.755144 140.037412 85.609211 144.043214 87.268469 
C 148.049016 88.927726 151.689029 91.359905 154.754937 94.425813 
C 157.820845 97.491721 160.253024 101.131734 161.912281 105.137536 
C 163.571539 109.143338 164.425606 113.437026 164.425606 117.772875 
C 164.425606 122.108724 163.571539 126.402412 161.912281 130.408214 
C 160.253024 134.414016 157.820845 138.054029 154.754937 141.119937 
C 151.689029 144.185845 148.049016 146.618024 144.043214 148.277281 
C 140.037412 149.936539 135.743724 150.790606 131.407875 150.790606 
C 127.072026 150.790606 122.778338 149.936539 118.772536 148.277281 
C 114.766734 146.618024 111.126721 144.185845 108.060813 141.119937 
C 104.994905 138.054029 102.562726 134.414016 100.903469 130.408214 
C 99.244211 126.402412 98.390144 122.108724 98.390144 117.772875 
C 98.390144 113.437026 99.244211 109.143338 100.903469 105.137536 
C 102.562726 101.131734 104.994905 97.491721 108.060813 94.425813 
C 111.126721 91.359905 114.766734 88.927726 118.772536 87.268469 
C 122.778338 85.609211 127.072026 84.755144 131.407875 84.755144 
" clip-path="url(#pff20da1f81)" style="fill: none; stroke: #e5e7eb; stroke-opacity: 0.7; stroke-width: 0.6; stroke-linecap: square"/>
     </g>
     <g id="text_26">
      <!-- 2 -->
      <g style="fill: #6b7280" transform="translate(144.043214 85.840031) scale(0.07 -0.07)">
       <use xlink:href="#HiraginoSansGB-W3-32"/>
      </g>
     </g>
    </g>
    <g id="ytick_7">
     <g id="line2d_36">
      <path d="M 131.407875 68.246278 
C 137.911648 68.246278 144.35218 69.527379 150.360883 72.016266 
C 156.369586 74.505152 161.829606 78.15342 166.428468 82.752282 
C 171.02733 87.351144 174.675598 92.811164 177.164484 98.819867 
C 179.653371 104.82857 180.934472 111.269102 180.934472 117.772875 
C 180.934472 124.276648 179.653371 130.71718 177.164484 136.725883 
C 174.675598 142.734586 171.02733 148.194606 166.428468 152.793468 
C 161.829606 157.39233 156.369586 161.040598 150.360883 163.529484 
C 144.35218 166.018371 137.911648 167.299472 131.407875 167.299472 
C 124.904102 167.299472 118.46357 166.018371 112.454867 163.529484 
C 106.446164 161.040598 100.986144 157.39233 96.387282 152.793468 
C 91.78842 148.194606 88.140152 142.734586 85.651266 136.725883 
C 83.162379 130.71718 81.881278 124.276648 81.881278 117.772875 
C 81.881278 111.269102 83.162379 104.82857 85.651266 98.819867 
C 88.140152 92.811164 91.78842 87.351144 96.387282 82.752282 
C 100.986144 78.15342 106.446164 74.505152 112.454867 72.016266 
C 118.46357 69.527379 124.904102 68.246278 131.407875 68.246278 
" clip-path="url(#pff20da1f81)" style="fill: none; stroke: #e5e7eb; stroke-opacity: 0.7; stroke-width: 0.6; stroke-linecap: square"/>
     </g>
     <g id="text_27">
      <!-- 3 -->
      <g style="fill: #6b7280" transform="translate(150.360883 70.587828) scale(0.07 -0.07)">
       <defs>
        <path id="HiraginoSansGB-W3-33" d="M 288 1088 
C 403 762 480 621 614 467 
C 922 122 1402 -58 2048 -58 
C 3117 -58 3782 480 3782 1344 
C 3782 1754 3635 2093 3354 2310 
C 3136 2477 2938 2547 2566 2586 
C 2861 2643 3002 2694 3168 2816 
C 3450 3014 3616 3360 3616 3750 
C 3616 4518 3027 5005 2099 5005 
C 1542 5005 1107 4845 826 4538 
C 666 4371 589 4224 480 3898 
L 1011 3782 
C 1082 4019 1126 4122 1216 4237 
C 1395 4467 1677 4576 2067 4576 
C 2714 4576 3098 4256 3098 3706 
C 3098 3475 3002 3238 2842 3085 
C 2643 2886 2330 2790 1907 2790 
C 1734 2790 1581 2803 1434 2829 
L 1434 2323 
C 1606 2342 1766 2355 1946 2355 
C 2797 2355 3251 2010 3251 1376 
C 3251 768 2784 384 2042 384 
C 1715 384 1434 461 1216 614 
C 1018 755 928 890 826 1222 
L 288 1088 
z
" transform="scale(0.015625)"/>
       </defs>
       <use xlink:href="#HiraginoSansGB-W3-33"/>
      </g>
     </g>
    </g>
    <g id="ytick_8">
     <g id="line2d_37">
      <path d="M 131.407875 51.737412 
C 140.079573 51.737412 148.666949 53.445547 156.678553 56.764062 
C 164.690156 60.082577 171.970183 64.946935 178.101999 71.078751 
C 184.233815 77.210567 189.098173 84.490594 192.416688 92.502197 
C 195.735203 100.513801 197.443338 109.101177 197.443338 117.772875 
C 197.443338 126.444573 195.735203 135.031949 192.416688 143.043553 
C 189.098173 151.055156 184.233815 158.335183 178.101999 164.466999 
C 171.970183 170.598815 164.690156 175.463173 156.678553 178.781688 
C 148.666949 182.100203 140.079573 183.808338 131.407875 183.808338 
C 122.736177 183.808338 114.148801 182.100203 106.137197 178.781688 
C 98.125594 175.463173 90.845567 170.598815 84.713751 164.466999 
C 78.581935 158.335183 73.717577 151.055156 70.399062 143.043553 
C 67.080547 135.031949 65.372412 126.444573 65.372412 117.772875 
C 65.372412 109.101177 67.080547 100.513801 70.399062 92.502197 
C 73.717577 84.490594 78.581935 77.210567 84.713751 71.078751 
C 90.845567 64.946935 98.125594 60.082577 106.137197 56.764062 
C 114.148801 53.445547 122.736177 51.737412 131.407875 51.737412 
" clip-path="url(#pff20da1f81)" style="fill: none; stroke: #e5e7eb; stroke-opacity: 0.7; stroke-width: 0.6; stroke-linecap: square"/>
     </g>
     <g id="text_28">
      <!-- 4 -->
      <g style="fill: #6b7280" transform="translate(156.678553 55.335625) scale(0.07 -0.07)">
       <use xlink:href="#HiraginoSansGB-W3-34"/>
      </g>
     </g>
    </g>
    <g id="ytick_9">
     <g id="line2d_38">
      <path d="M 131.407875 35.228546 
C 142.247497 35.228546 152.981717 37.363715 162.996222 41.511859 
C 173.010727 45.660003 182.110759 51.74045 189.77553 59.40522 
C 197.4403 67.069991 203.520747 76.170023 207.668891 86.184528 
C 211.817035 96.199033 213.952204 106.933253 213.952204 117.772875 
C 213.952204 128.612497 211.817035 139.346717 207.668891 149.361222 
C 203.520747 159.375727 197.4403 168.475759 189.77553 176.14053 
C 182.110759 183.8053 173.010727 189.885747 162.996222 194.033891 
C 152.981717 198.182035 142.247497 200.317204 131.407875 200.317204 
C 120.568253 200.317204 109.834033 198.182035 99.819528 194.033891 
C 89.805023 189.885747 80.704991 183.8053 73.04022 176.14053 
C 65.37545 168.475759 59.295003 159.375727 55.146859 149.361222 
C 50.998715 139.346717 48.863546 128.612497 48.863546 117.772875 
C 48.863546 106.933253 50.998715 96.199033 55.146859 86.184528 
C 59.295003 76.170023 65.37545 67.069991 73.04022 59.40522 
C 80.704991 51.74045 89.805023 45.660003 99.819528 41.511859 
C 109.834033 37.363715 120.568253 35.228546 131.407875 35.228546 
" clip-path="url(#pff20da1f81)" style="fill: none; stroke: #e5e7eb; stroke-opacity: 0.7; stroke-width: 0.6; stroke-linecap: square"/>
     </g>
     <g id="text_29">
      <!-- 5 -->
      <g style="fill: #6b7280" transform="translate(162.996222 40.083422) scale(0.07 -0.07)">
       <use xlink:href="#HiraginoSansGB-W3-35"/>
      </g>
     </g>
    </g>
   </g>
   <g id="line2d_39">
    <path d="M 131.407875 46.454575 
L 199.919668 117.772875 
L 131.407875 188.43082 
L 72.801402 117.772875 
L 131.407875 46.454575 
" clip-path="url(#pff20da1f81)" style="fill: none; stroke: #264653; stroke-width: 1.8; stroke-linecap: square"/>
   </g>
   <g id="patch_11">
    <path d="M 131.407875 28.625 
C 119.701083 28.625 108.108125 30.930983 97.29246 35.410978 
C 86.476795 39.890973 76.64876 46.457856 68.370808 54.735808 
C 60.092856 63.01376 53.525973 72.841795 49.045978 83.65746 
C 44.565983 94.473125 42.26 106.066083 42.26 117.772875 
C 42.26 129.479667 44.565983 141.072625 49.045978 151.88829 
C 53.525973 162.703955 60.092856 172.53199 68.370808 180.809942 
C 76.64876 189.087894 86.476795 195.654777 97.29246 200.134772 
C 108.108125 204.614767 119.701083 206.92075 131.407875 206.92075 
C 143.114667 206.92075 154.707625 204.614767 165.52329 200.134772 
C 176.338955 195.654777 186.16699 189.087894 194.444942 180.809942 
C 202.722894 172.53199 209.289777 162.703955 213.769772 151.88829 
C 218.249767 141.072625 220.55575 129.479667 220.55575 117.772875 
C 220.55575 106.066083 218.249767 94.473125 213.769772 83.65746 
C 209.289777 72.841795 202.722894 63.01376 194.444942 54.735808 
C 186.16699 46.457856 176.338955 39.890973 165.52329 35.410978 
C 154.707625 30.930983 143.114667 28.625 131.407875 28.625 
" style="fill: none; stroke: #374151; stroke-width: 0.8; stroke-linejoin: miter; stroke-linecap: square"/>
   </g>
   <g id="text_30">
    <!-- 4.32 -->
    <g style="fill: #1f2937" transform="translate(121.440375 58.062889) scale(0.09 -0.09)">
     <defs>
      <path id="HiraginoSansGB-W3-2e" d="M 448 672 
L 448 38 
L 1082 38 
L 1082 672 
L 448 672 
z
" transform="scale(0.015625)"/>
     </defs>
     <use xlink:href="#HiraginoSansGB-W3-34"/>
     <use xlink:href="#HiraginoSansGB-W3-2e" x="66.099991"/>
     <use xlink:href="#HiraginoSansGB-W3-33" x="90.099976"/>
     <use xlink:href="#HiraginoSansGB-W3-32" x="155.799973"/>
    </g>
   </g>
   <g id="text_31">
    <!-- 4.15 -->
    <g style="fill: #1f2937" transform="translate(180.872292 120.301312) scale(0.09 -0.09)">
     <use xlink:href="#HiraginoSansGB-W3-34"/>
     <use xlink:href="#HiraginoSansGB-W3-2e" x="66.099991"/>
     <use xlink:href="#HiraginoSansGB-W3-31" x="90.099976"/>
     <use xlink:href="#HiraginoSansGB-W3-35" x="155.799973"/>
    </g>
   </g>
   <g id="text_32">
    <!-- 4.28 -->
    <g style="fill: #1f2937" transform="translate(121.440375 181.879382) scale(0.09 -0.09)">
     <use xlink:href="#HiraginoSansGB-W3-34"/>
     <use xlink:href="#HiraginoSansGB-W3-2e" x="66.099991"/>
     <use xlink:href="#HiraginoSansGB-W3-32" x="90.099976"/>
     <use xlink:href="#HiraginoSansGB-W3-38" x="155.799973"/>
    </g>
   </g>
   <g id="text_33">
    <!-- 3.55 -->
    <g style="fill: #1f2937" transform="translate(71.931356 120.301312) scale(0.09 -0.09)">
     <use xlink:href="#HiraginoSansGB-W3-33"/>
     <use xlink:href="#HiraginoSansGB-W3-2e" x="65.699997"/>
     <use xlink:href="#HiraginoSansGB-W3-35" x="89.699982"/>
     <use xlink:href="#HiraginoSansGB-W3-35" x="155.399979"/>
    </g>
   </g>
  </g>
  <g id="legend_1">
   <g id="patch_12">
    <path d="M 189.463796 253.556469 
L 206.463796 253.556469 
L 206.463796 247.606469 
L 189.463796 247.606469 
z
" style="fill: #264653; opacity: 0.35; stroke: #264653; stroke-linejoin: miter"/>
   </g>
   <g id="text_34">
    <!-- 平均分（满分 5） -->
    <g transform="translate(213.263796 253.556469) scale(0.085 -0.085)">
     <defs>
      <path id="HiraginoSansGB-W3-5e73" d="M 3386 4710 
L 5133 4710 
C 5414 4710 5606 4698 5805 4672 
L 5805 5133 
C 5613 5107 5421 5094 5126 5094 
L 1293 5094 
C 998 5094 800 5107 614 5133 
L 614 4672 
C 813 4698 1005 4710 1286 4710 
L 2950 4710 
L 2950 2336 
L 1037 2336 
C 710 2336 518 2349 339 2381 
L 339 1901 
C 512 1933 717 1946 1043 1946 
L 2950 1946 
L 2950 179 
C 2950 -64 2938 -288 2906 -518 
L 3430 -518 
C 3398 -294 3386 -58 3386 179 
L 3386 1946 
L 5363 1946 
C 5696 1946 5894 1933 6061 1901 
L 6061 2381 
C 5894 2349 5690 2336 5376 2336 
L 3386 2336 
L 3386 4710 
z
M 1024 4230 
C 1370 3699 1555 3322 1811 2637 
L 2214 2842 
C 1939 3488 1747 3859 1389 4403 
L 1024 4230 
z
M 4966 4410 
C 4704 3674 4506 3309 4064 2752 
L 4448 2560 
C 4883 3162 5082 3520 5357 4224 
L 4966 4410 
z
" transform="scale(0.015625)"/>
      <path id="HiraginoSansGB-W3-5747" d="M 1146 3578 
L 864 3578 
C 595 3578 467 3584 307 3616 
L 307 3174 
C 467 3206 595 3213 864 3213 
L 1146 3213 
L 1146 1139 
C 691 966 429 877 262 851 
L 384 429 
C 474 467 589 512 704 557 
C 1485 864 1760 992 2342 1312 
L 2323 1715 
C 1984 1523 1882 1466 1549 1312 
L 1549 3213 
L 1683 3213 
C 1914 3213 2054 3206 2195 3187 
L 2195 3610 
C 2074 3584 1946 3578 1690 3578 
L 1549 3578 
L 1549 4653 
C 1549 4915 1555 5069 1587 5261 
L 1107 5261 
C 1133 5062 1146 4902 1146 4640 
L 1146 3578 
z
M 5434 3955 
C 5427 2074 5357 1114 5197 474 
C 5114 141 5024 58 4774 58 
C 4557 58 4218 96 3866 166 
C 3942 -19 3968 -122 3981 -282 
C 4358 -320 4525 -333 4723 -333 
C 5011 -333 5165 -301 5280 -230 
C 5446 -115 5562 173 5664 742 
C 5786 1466 5843 2458 5843 3859 
C 5843 4122 5850 4237 5869 4365 
C 5754 4352 5754 4352 5293 4339 
L 3386 4339 
C 3501 4627 3546 4742 3616 4973 
C 3667 5114 3680 5165 3712 5235 
L 3270 5350 
C 3226 5037 3091 4621 2906 4211 
C 2675 3712 2464 3418 2067 3014 
C 2202 2931 2227 2912 2323 2797 
C 2330 2778 2349 2758 2374 2726 
C 2758 3149 2970 3462 3213 3955 
L 5434 3955 
z
M 4922 2048 
C 4301 1664 3776 1414 3066 1158 
C 2867 1088 2771 1062 2611 1030 
L 2778 582 
C 2848 621 2899 640 3066 710 
C 3936 1069 4314 1248 4998 1626 
L 4922 2048 
z
M 4608 2451 
C 4122 2746 3866 2874 3104 3200 
L 2867 2893 
C 3731 2509 3930 2400 4384 2093 
L 4608 2451 
z
" transform="scale(0.015625)"/>
      <path id="HiraginoSansGB-W3-ff08" d="M 6157 -518 
C 5619 26 5408 314 5184 806 
C 4954 1318 4838 1850 4838 2432 
C 4838 3014 4954 3546 5184 4058 
C 5408 4550 5619 4838 6157 5382 
L 5587 5382 
C 5107 4832 4909 4525 4698 4006 
C 4486 3494 4390 2989 4390 2432 
C 4390 1875 4486 1370 4698 858 
C 4909 339 5107 32 5587 -518 
L 6157 -518 
z
" transform="scale(0.015625)"/>
      <path id="HiraginoSansGB-W3-6ee1" d="M 3942 1082 
C 3763 1434 3603 1677 3411 1920 
C 3456 2112 3475 2214 3514 2515 
L 4346 2515 
C 4307 2042 4256 1786 4154 1466 
C 4013 1043 3859 774 3546 429 
C 3571 410 3610 384 3661 352 
C 3706 320 3706 320 3770 256 
C 3782 243 3795 224 3821 205 
C 4166 602 4352 960 4531 1587 
C 4845 1088 4909 973 5101 531 
L 5395 742 
C 5126 1203 4986 1446 4979 1459 
C 4858 1645 4736 1805 4614 1958 
C 4640 2099 4640 2099 4698 2515 
L 5427 2515 
L 5427 128 
C 5427 13 5389 -13 5235 -13 
C 4986 -13 4768 13 4499 70 
C 4570 -141 4582 -205 4595 -333 
C 4902 -365 5101 -378 5254 -378 
C 5683 -378 5792 -294 5792 32 
L 5792 2355 
C 5792 2502 5798 2650 5818 2835 
C 5709 2822 5613 2816 5466 2816 
L 4710 2816 
L 4736 3462 
L 5523 3462 
C 5702 3462 5882 3450 6035 3430 
L 6035 3821 
C 5875 3802 5709 3789 5523 3789 
L 2362 3789 
C 2176 3789 2029 3795 1850 3821 
L 1850 3430 
C 2029 3450 2195 3462 2342 3462 
L 2362 3462 
L 3206 3456 
C 3200 3174 3194 3091 3181 2816 
L 2509 2816 
C 2240 2816 2189 2816 2067 2835 
C 2080 2656 2086 2528 2086 2342 
L 2086 147 
C 2086 -26 2080 -211 2061 -422 
L 2483 -422 
C 2464 -269 2458 -115 2458 147 
L 2458 538 
C 2515 499 2528 486 2579 442 
C 2598 422 2624 397 2662 365 
C 2989 768 3181 1120 3315 1542 
C 3456 1312 3526 1165 3642 877 
L 3942 1082 
z
M 4378 3456 
C 4365 3181 4365 3098 4358 2816 
L 3526 2816 
C 3533 3014 3546 3232 3552 3462 
L 4378 3456 
z
M 2458 2515 
L 3155 2515 
C 3136 2112 3085 1856 2963 1523 
C 2835 1178 2701 947 2451 646 
L 2458 2515 
z
M 531 4979 
C 960 4672 1133 4518 1536 4096 
L 1811 4403 
C 1453 4762 1254 4928 794 5254 
L 531 4979 
z
M 262 3354 
C 717 3059 909 2906 1331 2496 
L 1574 2835 
C 1165 3194 960 3354 518 3648 
L 262 3354 
z
M 1331 1907 
C 1088 1190 877 717 570 218 
C 480 70 429 6 352 -77 
L 730 -384 
C 742 -358 749 -333 755 -320 
C 762 -314 762 -314 768 -301 
C 774 -288 787 -269 794 -256 
C 966 51 1152 429 1261 672 
C 1459 1120 1504 1242 1658 1664 
L 1331 1907 
z
M 4838 4826 
L 4838 4986 
C 4838 5165 4845 5229 4870 5376 
L 4422 5376 
C 4454 5267 4461 5229 4461 4992 
L 4461 4826 
L 3386 4826 
L 3386 4986 
C 3386 5210 3386 5235 3418 5376 
L 2976 5376 
C 3008 5261 3014 5216 3014 4992 
L 3014 4826 
L 2573 4826 
C 2234 4826 2022 4838 1811 4864 
L 1811 4467 
C 2035 4493 2202 4499 2573 4499 
L 3014 4499 
L 3014 4429 
C 3021 4416 3021 4410 3021 4397 
C 3021 4275 3008 4109 2982 3994 
L 3418 3994 
C 3405 4058 3386 4275 3386 4307 
C 3386 4339 3386 4358 3386 4429 
L 3386 4499 
L 4461 4499 
L 4461 4358 
C 4461 4269 4461 4269 4448 4154 
L 4448 4064 
C 4448 4051 4448 4026 4442 3994 
L 4870 3994 
C 4851 4077 4838 4237 4838 4352 
L 4838 4499 
L 5338 4499 
C 5600 4499 5850 4486 6080 4467 
L 6080 4864 
C 5882 4838 5658 4826 5331 4826 
L 4838 4826 
z
" transform="scale(0.015625)"/>
      <path id="HiraginoSansGB-W3-ff09" d="M 813 -518 
C 1293 32 1491 339 1702 858 
C 1914 1370 2010 1875 2010 2432 
C 2010 2989 1914 3494 1702 4006 
C 1491 4525 1293 4832 813 5382 
L 243 5382 
C 781 4845 992 4550 1216 4058 
C 1446 3546 1562 3014 1562 2432 
C 1562 1850 1446 1318 1216 806 
C 992 314 781 19 243 -518 
L 813 -518 
z
" transform="scale(0.015625)"/>
     </defs>
     <use xlink:href="#HiraginoSansGB-W3-5e73"/>
     <use xlink:href="#HiraginoSansGB-W3-5747" x="99.999985"/>
     <use xlink:href="#HiraginoSansGB-W3-5206" x="199.999969"/>
     <use xlink:href="#HiraginoSansGB-W3-ff08" x="299.999954"/>
     <use xlink:href="#HiraginoSansGB-W3-6ee1" x="399.999939"/>
     <use xlink:href="#HiraginoSansGB-W3-5206" x="499.999924"/>
     <use xlink:href="#HiraginoSansGB-W3-20" x="599.999908"/>
     <use xlink:href="#HiraginoSansGB-W3-35" x="633.299896"/>
     <use xlink:href="#HiraginoSansGB-W3-ff09" x="698.999893"/>
    </g>
   </g>
   <g id="patch_13">
    <path d="M 298.178796 253.556469 
L 315.178796 253.556469 
L 315.178796 247.606469 
L 298.178796 247.606469 
z
" style="fill: #e76f51"/>
   </g>
   <g id="text_35">
    <!-- 低分率 (&lt;3 分) -->
    <g transform="translate(321.978796 253.556469) scale(0.085 -0.085)">
     <defs>
      <path id="HiraginoSansGB-W3-3c" d="M 794 1792 
L 3091 3098 
L 3091 3610 
L 122 1882 
L 122 1702 
L 3091 -26 
L 3091 486 
L 794 1792 
z
" transform="scale(0.015625)"/>
     </defs>
     <use xlink:href="#HiraginoSansGB-W3-4f4e"/>
     <use xlink:href="#HiraginoSansGB-W3-5206" x="99.999985"/>
     <use xlink:href="#HiraginoSansGB-W3-7387" x="199.999969"/>
     <use xlink:href="#HiraginoSansGB-W3-20" x="299.999954"/>
     <use xlink:href="#HiraginoSansGB-W3-28" x="333.299942"/>
     <use xlink:href="#HiraginoSansGB-W3-3c" x="368.899933"/>
     <use xlink:href="#HiraginoSansGB-W3-33" x="420.09993"/>
     <use xlink:href="#HiraginoSansGB-W3-20" x="485.799927"/>
     <use xlink:href="#HiraginoSansGB-W3-5206" x="519.099915"/>
     <use xlink:href="#HiraginoSansGB-W3-29" x="619.099899"/>
    </g>
   </g>
  </g>
 </g>
 <defs>
  <clipPath id="p35ff5e1f39">
   <rect x="339.220235" y="28.625" width="237.33498" height="178.29575"/>
  </clipPath>
  <clipPath id="pff20da1f81">
   <path d="M 220.55575 117.772875 
C 220.55575 106.066083 218.249767 94.473125 213.769772 83.65746 
C 209.289777 72.841795 202.722894 63.01376 194.444942 54.735808 
C 186.16699 46.457856 176.338955 39.890973 165.52329 35.410978 
C 154.707625 30.930983 143.114667 28.625 131.407875 28.625 
C 119.701083 28.625 108.108125 30.930983 97.29246 35.410978 
C 86.476795 39.890973 76.64876 46.457856 68.370808 54.735808 
C 60.092856 63.01376 53.525973 72.841795 49.045978 83.65746 
C 44.565983 94.473125 42.26 106.066083 42.26 117.772875 
C 42.26 129.479667 44.565983 141.072625 49.045978 151.88829 
C 53.525973 162.703955 60.092856 172.53199 68.370808 180.809942 
C 76.64876 189.087894 86.476795 195.654777 97.29246 200.134772 
C 108.108125 204.614767 119.701083 206.92075 131.407875 206.92075 
C 143.114667 206.92075 154.707625 204.614767 165.52329 200.134772 
C 176.338955 195.654777 186.16699 189.087894 194.444942 180.809942 
C 202.722894 172.53199 209.289777 162.703955 213.769772 151.88829 
C 218.249767 141.072625 220.55575 129.479667 220.55575 117.772875 
M 131.407875 117.772875 
C 131.407875 117.772875 131.407875 117.772875 131.407875 117.772875 
C 131.407875 117.772875 131.407875 117.772875 131.407875 117.772875 
C 131.407875 117.772875 131.407875 117.772875 131.407875 117.772875 
C 131.407875 117.772875 131.407875 117.772875 131.407875 117.772875 
C 131.407875 117.772875 131.407875 117.772875 131.407875 117.772875 
C 131.407875 117.772875 131.407875 117.772875 131.407875 117.772875 
C 131.407875 117.772875 131.407875 117.772875 131.407875 117.772875 
C 131.407875 117.772875 131.407875 117.772875 131.407875 117.772875 
C 131.407875 117.772875 131.407875 117.772875 131.407875 117.772875 
C 131.407875 117.772875 131.407875 117.772875 131.407875 117.772875 
C 131.407875 117.772875 131.407875 117.772875 131.407875 117.772875 
C 131.407875 117.772875 131.407875 117.772875 131.407875 117.772875 
C 131.407875 117.772875 131.407875 117.772875 131.407875 117.772875 
C 131.407875 117.772875 131.407875 117.772875 131.407875 117.772875 
C 131.407875 117.772875 131.407875 117.772875 131.407875 117.772875 
C 131.407875 117.772875 131.407875 117.772875 131.407875 117.772875 
z
"/>
  </clipPath>
 </defs>
</svg>
