<?xml version="1.0" encoding="utf-8" standalone="no"?>
<!DOCTYPE svg PUBLIC "-//W3C//DTD SVG 1.1//EN"
  "http://www.w3.org/Graphics/SVG/1.1/DTD/svg11.dtd">
<svg xmlns:xlink="http://www.w3.org/1999/xlink" width="559.245864pt" height="227.991pt" viewBox="0 0 559.245864 227.991" xmlns="http://www.w3.org/2000/svg" version="1.1">
 <metadata>
  <rdf:RDF xmlns:dc="http://purl.org/dc/elements/1.1/" xmlns:cc="http://creativecommons.org/ns#" xmlns:rdf="http://www.w3.org/1999/02/22-rdf-syntax-ns#">
   <cc:Work>
    <dc:type rdf:resource="http://purl.org/dc/dcmitype/StillImage"/>
    <dc:date>2026-05-11T17:05:06.288933</dc:date>
    <dc:format>image/svg+xml</dc:format>
    <dc:creator>
     <cc:Agent>
      <dc:title>Matplotlib v3.9.4, https://matplotlib.org/</dc:title>
     </cc:Agent>
    </dc:creator>
   </cc:Work>
  </rdf:RDF>
 </metadata>
 <defs>
  <style type="text/css">*{stroke-linejoin: round; stroke-linecap: butt}</style>
 </defs>
 <g id="figure_1">
  <g id="patch_1">
   <path d="M 0 227.991 
L 559.245864 227.991 
L 559.245864 0 
L 0 0 
z
" style="fill: #ffffff"/>
  </g>
  <g id="axes_1">
   <g id="patch_2">
    <path d="M 72.26 194.256 
L 334.480979 194.256 
L 334.480979 5.76 
L 72.26 5.76 
z
" style="fill: #ffffff"/>
   </g>
   <g id="matplotlib.axis_1">
    <g id="xtick_1">
     <g id="line2d_1">
      <path d="M 72.26 194.256 
L 72.26 5.76 
" clip-path="url(#p918873d71b)" style="fill: none; stroke: #e5e7eb; stroke-opacity: 0.7; stroke-width: 0.6; stroke-linecap: square"/>
     </g>
     <g id="line2d_2">
      <defs>
       <path id="m80733b12ff" d="M 0 0 
L 0 3.5 
" style="stroke: #374151; stroke-width: 0.6"/>
      </defs>
      <g>
       <use xlink:href="#m80733b12ff" x="72.26" y="194.256" style="fill: #374151; stroke: #374151; stroke-width: 0.6"/>
      </g>
     </g>
     <g id="text_1">
      <!-- 0.0 -->
      <g style="fill: #374151" transform="translate(65.655234 207.766469) scale(0.085 -0.085)">
       <defs>
        <path id="HiraginoSansGB-W3-30" d="M 2099 -58 
C 2688 -58 3136 166 3456 614 
C 3738 1005 3904 1690 3904 2464 
C 3904 2995 3821 3507 3661 3949 
C 3584 4160 3456 4358 3277 4538 
C 2989 4838 2579 4992 2106 4992 
C 1472 4992 979 4723 672 4205 
C 448 3834 301 3142 301 2464 
C 301 1939 384 1434 544 986 
C 621 768 755 570 928 397 
C 1229 96 1626 -58 2099 -58 
z
M 2099 4550 
C 2547 4550 2893 4352 3104 3968 
C 3270 3667 3392 3034 3392 2477 
C 3392 2003 3328 1581 3194 1184 
C 3136 998 3034 832 2893 685 
C 2701 486 2426 384 2106 384 
C 1670 384 1338 570 1114 941 
C 941 1242 813 1869 813 2464 
C 813 2931 877 3366 1011 3757 
C 1062 3917 1165 4077 1299 4224 
C 1504 4442 1766 4550 2099 4550 
z
" transform="scale(0.015625)"/>
        <path id="HiraginoSansGB-W3-2e" d="M 448 672 
L 448 38 
L 1082 38 
L 1082 672 
L 448 672 
z
" transform="scale(0.015625)"/>
       </defs>
       <use xlink:href="#HiraginoSansGB-W3-30"/>
       <use xlink:href="#HiraginoSansGB-W3-2e" x="65.699997"/>
       <use xlink:href="#HiraginoSansGB-W3-30" x="89.699982"/>
      </g>
     </g>
    </g>
    <g id="xtick_2">
     <g id="line2d_3">
      <path d="M 103.124051 194.256 
L 103.124051 5.76 
" clip-path="url(#p918873d71b)" style="fill: none; stroke: #e5e7eb; stroke-opacity: 0.7; stroke-width: 0.6; stroke-linecap: square"/>
     </g>
     <g id="line2d_4">
      <g>
       <use xlink:href="#m80733b12ff" x="103.124051" y="194.256" style="fill: #374151; stroke: #374151; stroke-width: 0.6"/>
      </g>
     </g>
     <g id="text_2">
      <!-- 2.5 -->
      <g style="fill: #374151" transform="translate(96.519286 207.766469) scale(0.085 -0.085)">
       <defs>
        <path id="HiraginoSansGB-W3-32" d="M 3027 38 
C 3347 38 3558 26 3814 0 
L 3814 538 
C 3571 506 3354 493 3034 493 
L 992 493 
C 1069 800 1158 973 1357 1235 
C 1568 1504 1773 1683 2278 2022 
C 3008 2509 3174 2630 3366 2848 
C 3616 3123 3744 3430 3744 3757 
C 3744 4512 3123 4998 2157 4998 
C 1594 4998 1158 4832 870 4506 
C 659 4269 563 4045 467 3584 
L 1005 3494 
C 1050 3814 1107 3968 1229 4141 
C 1421 4416 1734 4557 2157 4557 
C 2810 4557 3219 4243 3219 3757 
C 3219 3366 3008 3085 2374 2656 
C 1632 2150 1619 2144 1395 1952 
C 992 1606 723 1254 563 851 
C 467 608 448 512 378 6 
C 582 32 678 38 1082 38 
L 3027 38 
z
" transform="scale(0.015625)"/>
        <path id="HiraginoSansGB-W3-35" d="M 1261 4461 
L 2765 4461 
C 3066 4461 3270 4448 3514 4410 
L 3514 4954 
C 3258 4915 3110 4902 2765 4902 
L 1446 4902 
C 1069 4902 966 4909 768 4934 
C 781 4774 781 4749 781 4659 
C 781 4538 774 4461 762 4275 
L 621 2829 
C 595 2554 576 2419 525 2170 
L 1005 2125 
C 1075 2298 1146 2387 1299 2509 
C 1530 2688 1811 2778 2138 2778 
C 2816 2778 3258 2317 3258 1613 
C 3258 877 2778 390 2061 390 
C 1690 390 1370 525 1152 768 
C 1056 877 1011 960 947 1139 
L 422 986 
C 576 678 666 544 826 384 
C 1133 96 1549 -51 2048 -51 
C 3104 -51 3776 608 3776 1638 
C 3776 2112 3635 2490 3347 2765 
C 3059 3046 2662 3200 2195 3200 
C 1754 3200 1382 3053 1075 2758 
C 1114 2931 1114 2931 1126 3046 
L 1261 4461 
z
" transform="scale(0.015625)"/>
       </defs>
       <use xlink:href="#HiraginoSansGB-W3-32"/>
       <use xlink:href="#HiraginoSansGB-W3-2e" x="65.699997"/>
       <use xlink:href="#HiraginoSansGB-W3-35" x="89.699982"/>
      </g>
     </g>
    </g>
    <g id="xtick_3">
     <g id="line2d_5">
      <path d="M 133.988102 194.256 
L 133.988102 5.76 
" clip-path="url(#p918873d71b)" style="fill: none; stroke: #e5e7eb; stroke-opacity: 0.7; stroke-width: 0.6; stroke-linecap: square"/>
     </g>
     <g id="line2d_6">
      <g>
       <use xlink:href="#m80733b12ff" x="133.988102" y="194.256" style="fill: #374151; stroke: #374151; stroke-width: 0.6"/>
      </g>
     </g>
     <g id="text_3">
      <!-- 5.0 -->
      <g style="fill: #374151" transform="translate(127.383337 207.766469) scale(0.085 -0.085)">
       <use xlink:href="#HiraginoSansGB-W3-35"/>
       <use xlink:href="#HiraginoSansGB-W3-2e" x="65.699997"/>
       <use xlink:href="#HiraginoSansGB-W3-30" x="89.699982"/>
      </g>
     </g>
    </g>
    <g id="xtick_4">
     <g id="line2d_7">
      <path d="M 164.852154 194.256 
L 164.852154 5.76 
" clip-path="url(#p918873d71b)" style="fill: none; stroke: #e5e7eb; stroke-opacity: 0.7; stroke-width: 0.6; stroke-linecap: square"/>
     </g>
     <g id="line2d_8">
      <g>
       <use xlink:href="#m80733b12ff" x="164.852154" y="194.256" style="fill: #374151; stroke: #374151; stroke-width: 0.6"/>
      </g>
     </g>
     <g id="text_4">
      <!-- 7.5 -->
      <g style="fill: #374151" transform="translate(158.247388 207.766469) scale(0.085 -0.085)">
       <defs>
        <path id="HiraginoSansGB-W3-37" d="M 3789 4934 
C 3565 4909 3424 4902 3046 4902 
L 1126 4902 
C 819 4902 646 4915 397 4947 
L 397 4403 
C 640 4435 819 4448 1120 4448 
L 3200 4448 
C 2630 3674 2355 3232 2048 2592 
C 1651 1773 1478 1197 1274 38 
L 1882 38 
C 1984 781 2054 1107 2221 1638 
C 2470 2419 2739 2963 3315 3853 
C 3565 4237 3674 4378 3789 4467 
L 3789 4934 
z
" transform="scale(0.015625)"/>
       </defs>
       <use xlink:href="#HiraginoSansGB-W3-37"/>
       <use xlink:href="#HiraginoSansGB-W3-2e" x="65.699997"/>
       <use xlink:href="#HiraginoSansGB-W3-35" x="89.699982"/>
      </g>
     </g>
    </g>
    <g id="xtick_5">
     <g id="line2d_9">
      <path d="M 195.716205 194.256 
L 195.716205 5.76 
" clip-path="url(#p918873d71b)" style="fill: none; stroke: #e5e7eb; stroke-opacity: 0.7; stroke-width: 0.6; stroke-linecap: square"/>
     </g>
     <g id="line2d_10">
      <g>
       <use xlink:href="#m80733b12ff" x="195.716205" y="194.256" style="fill: #374151; stroke: #374151; stroke-width: 0.6"/>
      </g>
     </g>
     <g id="text_5">
      <!-- 10.0 -->
      <g style="fill: #374151" transform="translate(186.319056 207.766469) scale(0.085 -0.085)">
       <defs>
        <path id="HiraginoSansGB-W3-31" d="M 1030 4429 
C 1216 4454 1382 4467 1587 4467 
L 1933 4467 
L 1933 762 
C 1933 467 1920 262 1882 38 
L 2490 38 
C 2451 275 2438 461 2438 762 
L 2438 3872 
C 2438 4218 2458 4544 2496 4934 
C 2285 4909 2182 4902 1965 4902 
L 1562 4902 
C 1318 4902 1197 4909 1030 4934 
L 1030 4429 
z
" transform="scale(0.015625)"/>
       </defs>
       <use xlink:href="#HiraginoSansGB-W3-31"/>
       <use xlink:href="#HiraginoSansGB-W3-30" x="65.699997"/>
       <use xlink:href="#HiraginoSansGB-W3-2e" x="131.399994"/>
       <use xlink:href="#HiraginoSansGB-W3-30" x="155.399979"/>
      </g>
     </g>
    </g>
    <g id="xtick_6">
     <g id="line2d_11">
      <path d="M 226.580256 194.256 
L 226.580256 5.76 
" clip-path="url(#p918873d71b)" style="fill: none; stroke: #e5e7eb; stroke-opacity: 0.7; stroke-width: 0.6; stroke-linecap: square"/>
     </g>
     <g id="line2d_12">
      <g>
       <use xlink:href="#m80733b12ff" x="226.580256" y="194.256" style="fill: #374151; stroke: #374151; stroke-width: 0.6"/>
      </g>
     </g>
     <g id="text_6">
      <!-- 12.5 -->
      <g style="fill: #374151" transform="translate(217.183108 207.766469) scale(0.085 -0.085)">
       <use xlink:href="#HiraginoSansGB-W3-31"/>
       <use xlink:href="#HiraginoSansGB-W3-32" x="65.699997"/>
       <use xlink:href="#HiraginoSansGB-W3-2e" x="131.399994"/>
       <use xlink:href="#HiraginoSansGB-W3-35" x="155.399979"/>
      </g>
     </g>
    </g>
    <g id="xtick_7">
     <g id="line2d_13">
      <path d="M 257.444307 194.256 
L 257.444307 5.76 
" clip-path="url(#p918873d71b)" style="fill: none; stroke: #e5e7eb; stroke-opacity: 0.7; stroke-width: 0.6; stroke-linecap: square"/>
     </g>
     <g id="line2d_14">
      <g>
       <use xlink:href="#m80733b12ff" x="257.444307" y="194.256" style="fill: #374151; stroke: #374151; stroke-width: 0.6"/>
      </g>
     </g>
     <g id="text_7">
      <!-- 15.0 -->
      <g style="fill: #374151" transform="translate(248.047159 207.766469) scale(0.085 -0.085)">
       <use xlink:href="#HiraginoSansGB-W3-31"/>
       <use xlink:href="#HiraginoSansGB-W3-35" x="65.699997"/>
       <use xlink:href="#HiraginoSansGB-W3-2e" x="131.399994"/>
       <use xlink:href="#HiraginoSansGB-W3-30" x="155.399979"/>
      </g>
     </g>
    </g>
    <g id="xtick_8">
     <g id="line2d_15">
      <path d="M 288.308358 194.256 
L 288.308358 5.76 
" clip-path="url(#p918873d71b)" style="fill: none; stroke: #e5e7eb; stroke-opacity: 0.7; stroke-width: 0.6; stroke-linecap: square"/>
     </g>
     <g id="line2d_16">
      <g>
       <use xlink:href="#m80733b12ff" x="288.308358" y="194.256" style="fill: #374151; stroke: #374151; stroke-width: 0.6"/>
      </g>
     </g>
     <g id="text_8">
      <!-- 17.5 -->
      <g style="fill: #374151" transform="translate(278.91121 207.766469) scale(0.085 -0.085)">
       <use xlink:href="#HiraginoSansGB-W3-31"/>
       <use xlink:href="#HiraginoSansGB-W3-37" x="65.699997"/>
       <use xlink:href="#HiraginoSansGB-W3-2e" x="131.399994"/>
       <use xlink:href="#HiraginoSansGB-W3-35" x="155.399979"/>
      </g>
     </g>
    </g>
    <g id="xtick_9">
     <g id="line2d_17">
      <path d="M 319.17241 194.256 
L 319.17241 5.76 
" clip-path="url(#p918873d71b)" style="fill: none; stroke: #e5e7eb; stroke-opacity: 0.7; stroke-width: 0.6; stroke-linecap: square"/>
     </g>
     <g id="line2d_18">
      <g>
       <use xlink:href="#m80733b12ff" x="319.17241" y="194.256" style="fill: #374151; stroke: #374151; stroke-width: 0.6"/>
      </g>
     </g>
     <g id="text_9">
      <!-- 20.0 -->
      <g style="fill: #374151" transform="translate(309.775261 207.766469) scale(0.085 -0.085)">
       <use xlink:href="#HiraginoSansGB-W3-32"/>
       <use xlink:href="#HiraginoSansGB-W3-30" x="65.699997"/>
       <use xlink:href="#HiraginoSansGB-W3-2e" x="131.399994"/>
       <use xlink:href="#HiraginoSansGB-W3-30" x="155.399979"/>
      </g>
     </g>
    </g>
    <g id="text_10">
     <!-- 工具数量 -->
     <g style="fill: #1f2937" transform="translate(185.37049 220.394438) scale(0.09 -0.09)">
      <defs>
       <path id="HiraginoSansGB-W3-5de5" d="M 3386 4224 
L 4928 4224 
C 5229 4224 5434 4211 5664 4186 
L 5664 4672 
C 5453 4646 5254 4634 4922 4634 
L 1517 4634 
C 1178 4634 979 4646 774 4672 
L 774 4186 
C 998 4211 1210 4224 1510 4224 
L 2925 4224 
L 2925 570 
L 1120 570 
C 781 570 582 582 365 614 
L 365 115 
C 589 147 794 160 1114 160 
L 5318 160 
C 5638 160 5862 147 6067 115 
L 6067 614 
C 5850 582 5651 570 5318 570 
L 3386 570 
L 3386 4224 
z
" transform="scale(0.015625)"/>
       <path id="HiraginoSansGB-W3-5177" d="M 1274 1248 
L 1037 1248 
C 774 1248 550 1261 378 1286 
L 378 832 
C 563 858 774 870 1037 870 
L 5402 870 
C 5651 870 5882 858 6061 832 
L 6061 1286 
C 5888 1261 5664 1248 5395 1248 
L 5133 1248 
L 5133 4442 
C 5133 4749 5139 4915 5165 5069 
C 4941 5043 4787 5037 4506 5037 
L 1958 5037 
C 1658 5037 1446 5043 1242 5069 
C 1267 4890 1274 4749 1274 4467 
L 1274 1248 
z
M 1670 1248 
L 1670 1882 
L 4736 1882 
L 4736 1248 
L 1670 1248 
z
M 1670 2227 
L 1670 2822 
L 4736 2822 
L 4736 2227 
L 1670 2227 
z
M 4736 4685 
L 4736 4109 
L 1670 4109 
L 1670 4685 
L 4736 4685 
z
M 4736 3763 
L 4736 3168 
L 1670 3168 
L 1670 3763 
L 4736 3763 
z
M 2259 730 
C 1997 499 1850 397 1594 262 
C 1280 109 1030 26 474 -109 
C 621 -250 666 -307 762 -467 
C 1645 -205 2022 -6 2618 499 
L 2259 730 
z
M 3821 480 
C 4474 230 4851 26 5568 -467 
L 5850 -128 
C 5146 307 4710 525 4077 736 
L 3821 480 
z
" transform="scale(0.015625)"/>
       <path id="HiraginoSansGB-W3-6570" d="M 6138 4115 
C 5965 4083 5837 4077 5542 4077 
L 4186 4077 
C 4294 4422 4314 4486 4397 4819 
C 4480 5133 4480 5133 4512 5222 
L 4077 5318 
C 4051 4915 3930 4410 3750 3942 
C 3526 3347 3296 2950 2963 2560 
C 3104 2483 3168 2438 3283 2310 
C 3501 2592 3597 2739 3750 3053 
C 3878 2285 4058 1760 4410 1171 
C 4019 634 3507 230 2752 -134 
C 2861 -243 2938 -339 3014 -493 
C 3731 -102 4211 288 4640 826 
C 5018 307 5478 -102 6061 -442 
C 6144 -262 6195 -173 6298 -45 
C 5690 275 5242 659 4877 1165 
C 5318 1875 5530 2618 5594 3712 
C 5888 3712 5997 3706 6138 3680 
L 6138 4115 
z
M 5197 3712 
C 5165 3136 5126 2867 5005 2451 
C 4909 2099 4813 1850 4640 1536 
C 4448 1875 4314 2195 4186 2643 
C 4096 2957 4096 2957 3994 3571 
C 4000 3590 4006 3597 4026 3642 
C 4032 3661 4038 3680 4051 3712 
L 5197 3712 
z
M 3014 314 
C 2765 474 2714 499 2445 640 
C 2803 1101 2957 1389 3162 2029 
C 2880 2016 2726 2010 2694 2010 
L 1798 2010 
C 1843 2099 1875 2176 1978 2426 
L 1587 2515 
C 1510 2259 1466 2150 1395 2010 
L 832 2010 
C 602 2010 486 2016 371 2042 
L 371 1638 
C 493 1664 614 1670 832 1670 
L 1222 1670 
C 1056 1382 986 1274 762 979 
C 1331 768 1498 698 1818 544 
C 1434 262 966 58 333 -96 
C 429 -218 480 -307 538 -448 
C 1350 -186 1830 51 2176 358 
C 2419 224 2515 160 2790 -38 
L 3014 314 
z
M 2650 1670 
C 2547 1389 2349 1075 2106 806 
C 1786 954 1670 1005 1299 1146 
C 1485 1427 1542 1517 1626 1670 
L 2650 1670 
z
M 2112 4019 
L 2112 4877 
C 2112 5056 2118 5165 2144 5306 
L 1715 5306 
C 1741 5158 1747 5043 1747 4877 
L 1747 4019 
L 915 4019 
C 666 4019 531 4026 397 4051 
L 397 3654 
C 531 3680 666 3686 902 3686 
L 1491 3686 
C 1338 3469 1325 3450 1235 3354 
C 979 3072 736 2893 288 2624 
C 410 2528 480 2451 570 2317 
C 1197 2765 1446 3021 1773 3578 
C 1754 3398 1747 3328 1747 3206 
L 1747 2848 
C 1747 2758 1741 2669 1722 2586 
L 2138 2586 
C 2118 2669 2112 2758 2112 2854 
L 2112 3245 
C 2157 3219 2182 3206 2240 3174 
C 2547 2995 2618 2944 2899 2701 
L 3117 3014 
C 2662 3302 2662 3302 2112 3565 
L 2112 3686 
L 2950 3686 
C 3168 3686 3270 3680 3386 3661 
L 3386 4045 
C 3277 4026 3181 4019 2957 4019 
L 2112 4019 
z
M 589 5030 
C 800 4742 915 4538 1050 4192 
L 1395 4333 
C 1248 4666 1133 4864 915 5178 
L 589 5030 
z
M 2931 5197 
C 2790 4832 2650 4589 2400 4282 
L 2720 4122 
C 2944 4410 3059 4608 3277 5037 
L 2931 5197 
z
" transform="scale(0.015625)"/>
       <path id="HiraginoSansGB-W3-91cf" d="M 3360 1075 
L 4666 1075 
C 4883 1075 5050 1069 5280 1050 
C 5267 1152 5261 1331 5261 1562 
L 5261 2266 
C 5261 2445 5267 2566 5280 2688 
C 5094 2669 4928 2662 4685 2662 
L 1754 2662 
C 1466 2662 1274 2669 1146 2688 
C 1158 2541 1165 2419 1165 2246 
L 1165 1568 
C 1165 1293 1165 1222 1146 1050 
C 1331 1069 1498 1075 1760 1075 
L 2989 1075 
L 2989 710 
L 1408 710 
C 1146 710 1005 717 864 742 
L 864 378 
C 1030 403 1165 410 1421 410 
L 2989 410 
L 2989 32 
L 1018 32 
C 723 32 557 38 365 70 
L 365 -314 
C 550 -288 749 -275 1018 -275 
L 5389 -275 
C 5658 -275 5850 -288 6042 -314 
L 6042 70 
C 5850 38 5683 32 5389 32 
L 3360 32 
L 3360 410 
L 5037 410 
C 5286 410 5421 403 5587 378 
L 5587 742 
C 5440 717 5312 710 5050 710 
L 3360 710 
L 3360 1075 
z
M 2989 2010 
L 1530 2010 
L 1530 2374 
L 2989 2374 
L 2989 2010 
z
M 3360 2010 
L 3360 2374 
L 4896 2374 
L 4896 2010 
L 3360 2010 
z
M 2989 1363 
L 1530 1363 
L 1530 1734 
L 2989 1734 
L 2989 1363 
z
M 3360 1363 
L 3360 1734 
L 4896 1734 
L 4896 1363 
L 3360 1363 
z
M 4742 3629 
C 5114 3629 5222 3622 5382 3610 
C 5363 3776 5357 3910 5357 4096 
L 5357 4678 
C 5357 4877 5363 4998 5382 5139 
C 5203 5120 5043 5114 4762 5114 
L 1664 5114 
C 1389 5114 1216 5120 1030 5139 
C 1050 4992 1056 4870 1056 4678 
L 1056 4096 
C 1056 3872 1050 3750 1030 3610 
C 1184 3622 1306 3629 1664 3629 
L 4742 3629 
z
M 1421 4826 
L 4992 4826 
L 4992 4512 
L 1421 4512 
L 1421 4826 
z
M 1421 4237 
L 4986 4237 
L 4986 3910 
L 1421 3910 
L 1421 4237 
z
M 365 2963 
C 531 2989 685 2995 998 2995 
L 5414 2995 
C 5734 2995 5875 2989 6042 2963 
L 6042 3341 
C 5869 3315 5677 3309 5408 3309 
L 998 3309 
C 730 3309 538 3315 365 3341 
L 365 2963 
z
" transform="scale(0.015625)"/>
      </defs>
      <use xlink:href="#HiraginoSansGB-W3-5de5"/>
      <use xlink:href="#HiraginoSansGB-W3-5177" x="99.999985"/>
      <use xlink:href="#HiraginoSansGB-W3-6570" x="199.999969"/>
      <use xlink:href="#HiraginoSansGB-W3-91cf" x="299.999954"/>
     </g>
    </g>
   </g>
   <g id="matplotlib.axis_2">
    <g id="ytick_1">
     <g id="line2d_19">
      <path d="M 72.26 177.663589 
L 334.480979 177.663589 
" clip-path="url(#p918873d71b)" style="fill: none; stroke: #e5e7eb; stroke-opacity: 0.7; stroke-width: 0.6; stroke-linecap: square"/>
     </g>
     <g id="line2d_20">
      <defs>
       <path id="m5681a033f9" d="M 0 0 
L -3.5 0 
" style="stroke: #374151; stroke-width: 0.6"/>
      </defs>
      <g>
       <use xlink:href="#m5681a033f9" x="72.26" y="177.663589" style="fill: #374151; stroke: #374151; stroke-width: 0.6"/>
      </g>
     </g>
     <g id="text_11">
      <!-- 节点管理操作 -->
      <g style="fill: #374151" transform="translate(14.26 180.918823) scale(0.085 -0.085)">
       <defs>
        <path id="HiraginoSansGB-W3-8282" d="M 2374 4621 
L 2374 4826 
C 2374 4986 2387 5139 2413 5280 
L 1939 5280 
C 1965 5133 1978 4986 1978 4826 
L 1978 4621 
L 1088 4621 
C 755 4621 557 4634 371 4659 
L 371 4230 
C 570 4256 762 4262 1088 4262 
L 1978 4262 
L 1978 4019 
C 1978 3898 1971 3763 1946 3603 
L 2394 3603 
C 2374 3725 2374 3782 2374 4026 
L 2374 4262 
L 3974 4262 
L 3974 4006 
C 3974 3776 3974 3718 3955 3584 
L 4403 3584 
C 4384 3731 4371 3872 4371 4006 
L 4371 4262 
L 5293 4262 
C 5613 4262 5811 4256 6010 4230 
L 6010 4659 
C 5830 4634 5626 4621 5293 4621 
L 4371 4621 
L 4371 4813 
C 4371 4973 4384 5133 4410 5267 
L 3942 5267 
C 3962 5114 3974 4960 3974 4813 
L 3974 4621 
L 2374 4621 
z
M 2778 2803 
L 5056 2803 
L 5056 909 
C 5056 762 4973 730 4608 730 
C 4358 730 3987 762 3642 813 
C 3718 570 3731 531 3750 371 
C 4026 358 4320 346 4486 346 
C 4858 346 5126 378 5254 435 
C 5376 486 5466 666 5466 864 
L 5466 2669 
C 5466 2893 5472 3040 5491 3200 
C 5306 3181 5165 3174 4902 3174 
L 1344 3174 
C 1056 3174 845 3187 608 3213 
L 608 2765 
C 851 2790 1094 2803 1344 2803 
L 2355 2803 
L 2355 173 
C 2355 -70 2342 -282 2310 -493 
L 2829 -493 
C 2790 -294 2778 -102 2778 173 
L 2778 2803 
z
" transform="scale(0.015625)"/>
        <path id="HiraginoSansGB-W3-70b9" d="M 3290 4506 
L 3290 4710 
C 3290 4947 3302 5139 3334 5318 
L 2829 5318 
C 2861 5126 2874 4922 2874 4685 
L 2874 3296 
L 1894 3296 
C 1600 3296 1363 3309 1171 3328 
C 1190 3162 1197 3027 1197 2848 
L 1197 1824 
C 1197 1658 1190 1517 1171 1363 
C 1376 1382 1549 1389 1830 1389 
L 4589 1389 
C 4877 1389 5030 1382 5248 1363 
C 5229 1517 5222 1632 5222 1824 
L 5222 2848 
C 5222 3040 5229 3187 5248 3328 
C 5075 3302 4877 3296 4525 3296 
L 3290 3296 
L 3290 4141 
L 5094 4141 
C 5318 4141 5517 4128 5734 4102 
L 5734 4544 
C 5555 4518 5363 4506 5094 4506 
L 3290 4506 
z
M 4813 2925 
L 4813 1766 
L 1606 1766 
L 1606 2925 
L 4813 2925 
z
M 698 -448 
C 1082 -6 1299 365 1542 973 
L 1165 1139 
C 1050 794 986 646 819 384 
C 659 134 563 13 320 -218 
L 698 -448 
z
M 2771 -365 
C 2746 115 2694 448 2573 1018 
L 2208 954 
C 2310 435 2349 96 2349 -454 
L 2771 -365 
z
M 4352 -288 
C 4179 218 4038 563 3789 1062 
L 3437 947 
C 3699 403 3821 64 3942 -461 
L 4352 -288 
z
M 5952 -218 
C 5619 384 5466 621 5075 1158 
L 4723 998 
C 5101 486 5286 166 5574 -448 
L 5952 -218 
z
" transform="scale(0.015625)"/>
        <path id="HiraginoSansGB-W3-7ba1" d="M 1773 4499 
C 1907 4269 1984 4090 2080 3802 
L 2432 3955 
C 2342 4160 2266 4301 2150 4499 
L 2650 4499 
C 2931 4499 2963 4499 3142 4480 
L 3142 4864 
C 2995 4838 2861 4832 2598 4832 
L 1523 4832 
C 1632 4992 1677 5069 1786 5274 
L 1382 5402 
C 1165 4877 845 4480 358 4128 
C 544 4013 563 4000 678 3872 
C 915 4077 1082 4243 1280 4499 
L 1773 4499 
z
M 4269 4499 
C 4410 4275 4493 4109 4608 3814 
L 4966 3968 
C 4877 4160 4781 4320 4666 4499 
L 5504 4499 
C 5766 4499 5901 4493 6061 4467 
L 6061 4864 
C 5894 4838 5773 4832 5498 4832 
L 3968 4832 
C 4051 4986 4115 5120 4192 5293 
L 3802 5389 
C 3642 4896 3482 4640 3098 4294 
C 3226 4230 3334 4154 3411 4077 
C 3629 4314 3680 4371 3770 4499 
L 4269 4499 
z
M 3437 3674 
C 3290 3904 3162 4077 3066 4205 
L 2726 4038 
C 2854 3872 2899 3808 2982 3674 
L 1216 3674 
C 922 3674 774 3680 589 3699 
C 608 3578 614 3462 614 3290 
L 614 2957 
C 614 2778 608 2669 589 2541 
L 998 2541 
L 998 3341 
L 5498 3341 
L 5498 2541 
L 5907 2541 
C 5888 2662 5882 2771 5882 2963 
L 5882 3296 
C 5882 3482 5888 3578 5907 3699 
C 5696 3680 5549 3674 5254 3674 
L 3437 3674 
z
M 1818 -474 
L 1818 -154 
L 4877 -154 
L 4877 -474 
L 5299 -474 
C 5267 -275 5261 -102 5261 128 
L 5261 634 
C 5261 877 5267 1050 5293 1210 
C 5126 1190 4979 1184 4704 1184 
L 1818 1184 
L 1818 1651 
L 4326 1651 
C 4602 1651 4774 1645 4966 1626 
C 4947 1760 4941 1888 4941 2112 
L 4941 2483 
C 4941 2694 4947 2829 4960 2950 
C 4762 2925 4589 2918 4320 2918 
L 2048 2918 
C 1786 2918 1606 2925 1408 2950 
C 1427 2790 1434 2707 1434 2483 
L 1434 173 
C 1434 -83 1421 -256 1395 -474 
L 1818 -474 
z
M 1818 2586 
L 4563 2586 
L 4563 1978 
L 1818 1978 
L 1818 2586 
z
M 1818 845 
L 4877 845 
L 4877 179 
L 1818 179 
L 1818 845 
z
" transform="scale(0.015625)"/>
        <path id="HiraginoSansGB-W3-7406" d="M 1542 4602 
L 1856 4602 
C 2061 4602 2182 4595 2349 4576 
L 2349 4998 
C 2195 4966 2067 4960 1824 4960 
L 851 4960 
C 602 4960 467 4966 314 4998 
L 314 4570 
C 486 4595 563 4602 819 4602 
L 1152 4602 
L 1152 3098 
L 819 3098 
C 627 3098 531 3104 390 3130 
L 390 2720 
C 531 2746 640 2752 813 2752 
L 1152 2752 
L 1152 966 
C 800 832 506 736 269 691 
L 397 243 
C 480 288 525 307 704 371 
C 1459 666 1728 787 2317 1075 
L 2291 1478 
C 1978 1318 1952 1306 1542 1126 
L 1542 2752 
L 1798 2752 
C 1958 2752 2080 2746 2227 2726 
L 2227 3130 
C 2080 3104 1984 3098 1798 3098 
L 1542 3098 
L 1542 4602 
z
M 4352 2163 
L 5082 2163 
C 5453 2163 5619 2157 5850 2138 
C 5830 2304 5824 2541 5824 2957 
L 5824 4243 
C 5824 4621 5830 4870 5850 5050 
C 5670 5024 5478 5018 5030 5018 
L 3347 5018 
C 2912 5018 2714 5024 2522 5050 
C 2541 4851 2554 4640 2554 4237 
L 2554 2874 
C 2547 2470 2547 2470 2541 2368 
C 2541 2317 2541 2253 2528 2138 
C 2707 2157 2918 2163 3322 2163 
L 3974 2163 
L 3974 1427 
L 3130 1427 
C 2810 1427 2675 1434 2515 1459 
L 2515 1037 
C 2682 1062 2822 1069 3130 1069 
L 3974 1069 
L 3974 128 
L 2643 128 
C 2336 128 2202 134 2035 160 
L 2035 -262 
C 2214 -237 2362 -230 2669 -230 
L 5530 -230 
C 5837 -230 5984 -237 6170 -262 
L 6170 160 
C 5997 134 5850 128 5542 128 
L 4352 128 
L 4352 1069 
L 5299 1069 
C 5594 1069 5747 1062 5926 1037 
L 5926 1459 
C 5754 1434 5613 1427 5299 1427 
L 4352 1427 
L 4352 2163 
z
M 3974 3757 
L 2938 3757 
L 2938 4666 
L 3974 4666 
L 3974 3757 
z
M 4352 3757 
L 4352 4666 
L 5434 4666 
L 5434 3757 
L 4352 3757 
z
M 3974 2515 
L 2938 2515 
L 2938 3418 
L 3974 3418 
L 3974 2515 
z
M 4352 2515 
L 4352 3418 
L 5434 3418 
L 5434 2515 
L 4352 2515 
z
" transform="scale(0.015625)"/>
        <path id="HiraginoSansGB-W3-64cd" d="M 5421 1325 
C 5664 1325 5875 1312 6054 1286 
L 6054 1696 
C 5901 1670 5728 1658 5427 1658 
L 4154 1658 
L 4154 1709 
C 4154 1939 4154 2010 4179 2125 
L 3763 2125 
C 3782 2003 3789 1933 3789 1702 
L 3789 1658 
L 2541 1658 
C 2253 1658 2106 1664 1946 1690 
L 1946 1293 
C 2144 1318 2323 1325 2541 1325 
L 3616 1325 
C 3194 819 2560 397 1824 122 
C 1933 13 1990 -70 2067 -218 
C 2579 32 2758 141 3091 390 
C 3424 640 3629 845 3808 1088 
C 3795 851 3789 672 3789 544 
L 3789 134 
C 3789 -141 3776 -307 3750 -506 
L 4192 -506 
C 4160 -320 4154 -154 4154 134 
L 4154 544 
C 4154 640 4147 813 4141 934 
C 4134 973 4134 1030 4128 1094 
C 4576 576 5222 96 5952 -250 
C 6029 -96 6086 0 6189 122 
C 5440 403 4710 870 4326 1325 
L 5421 1325 
z
M 1114 4051 
L 819 4051 
C 634 4051 531 4058 390 4083 
L 390 3661 
C 544 3686 646 3693 813 3693 
L 1114 3693 
L 1114 2323 
C 646 2150 512 2112 301 2086 
L 397 1658 
C 493 1702 550 1722 749 1798 
C 992 1888 1011 1894 1114 1926 
L 1114 83 
C 1114 -19 1075 -45 922 -45 
C 762 -45 614 -32 410 0 
C 461 -154 480 -262 486 -390 
C 672 -403 819 -410 947 -410 
C 1389 -410 1510 -320 1510 32 
L 1510 2086 
C 1664 2150 1734 2182 1997 2304 
L 1990 2682 
C 1722 2560 1638 2522 1510 2470 
L 1510 3693 
L 1690 3693 
C 1862 3693 1946 3686 2067 3667 
L 2067 4077 
C 1952 4058 1856 4051 1690 4051 
L 1510 4051 
L 1510 4659 
C 1510 4966 1517 5133 1549 5306 
L 1075 5306 
C 1101 5120 1114 4960 1114 4653 
L 1114 4051 
z
M 2726 4192 
C 2726 4006 2720 3866 2701 3750 
C 2822 3763 2995 3770 3226 3770 
L 4736 3770 
C 4973 3770 5139 3763 5293 3750 
C 5280 3872 5274 3994 5274 4179 
L 5274 4723 
C 5274 4902 5280 5011 5299 5146 
C 5158 5126 4992 5120 4698 5120 
L 3245 5120 
C 2989 5120 2861 5126 2701 5146 
C 2720 5011 2726 4877 2726 4698 
L 2726 4192 
z
M 3104 4806 
L 4890 4806 
L 4890 4083 
L 3104 4083 
L 3104 4806 
z
M 2618 3411 
C 2432 3411 2291 3418 2157 3430 
C 2170 3315 2176 3238 2176 3014 
L 2176 2560 
C 2176 2374 2170 2259 2157 2131 
C 2278 2144 2419 2150 2598 2150 
L 3334 2150 
C 3514 2150 3654 2144 3770 2131 
C 3757 2253 3757 2368 3757 2547 
L 3757 3021 
C 3757 3162 3757 3302 3770 3430 
C 3674 3418 3526 3411 3309 3411 
L 2618 3411 
z
M 2502 3117 
L 3430 3117 
L 3430 2451 
L 2502 2451 
L 2502 3117 
z
M 4192 2541 
C 4192 2374 4186 2253 4179 2131 
C 4301 2144 4435 2150 4595 2150 
L 5453 2150 
C 5613 2150 5754 2144 5888 2131 
C 5875 2246 5869 2355 5869 2541 
L 5869 3034 
C 5869 3219 5869 3309 5888 3437 
C 5754 3418 5626 3411 5459 3411 
L 4595 3411 
C 4422 3411 4288 3418 4179 3430 
C 4192 3283 4192 3245 4192 3021 
L 4192 2541 
z
M 4518 3117 
L 5536 3117 
L 5536 2451 
L 4518 2451 
L 4518 3117 
z
" transform="scale(0.015625)"/>
        <path id="HiraginoSansGB-W3-4f5c" d="M 3949 3962 
L 5453 3962 
C 5722 3962 5875 3955 6035 3930 
L 6035 4365 
C 5850 4333 5709 4326 5453 4326 
L 3424 4326 
C 3501 4512 3552 4634 3642 4896 
C 3699 5062 3718 5114 3770 5222 
L 3322 5370 
C 3302 5152 3206 4838 3053 4461 
C 2765 3770 2419 3238 1920 2707 
C 2106 2579 2112 2573 2240 2400 
C 2662 2899 2957 3354 3258 3962 
L 3539 3962 
L 3539 179 
C 3539 -160 3526 -339 3501 -493 
L 3994 -493 
C 3962 -333 3949 -134 3949 179 
L 3949 1158 
L 5267 1158 
C 5491 1158 5658 1146 5830 1120 
L 5830 1562 
C 5651 1536 5498 1523 5267 1523 
L 3949 1523 
L 3949 2560 
L 5248 2560 
C 5466 2560 5613 2547 5811 2522 
L 5811 2963 
C 5632 2938 5485 2925 5248 2925 
L 3949 2925 
L 3949 3962 
z
M 1830 5370 
C 1792 5120 1709 4845 1562 4512 
C 1222 3738 774 3104 211 2592 
C 358 2445 358 2445 480 2253 
C 851 2630 1050 2886 1274 3264 
C 1254 2886 1248 2714 1248 2438 
L 1248 314 
C 1248 6 1235 -218 1203 -467 
L 1702 -467 
C 1670 -256 1658 13 1658 301 
L 1658 3802 
C 1901 4282 1984 4467 2131 4864 
C 2182 4992 2202 5050 2278 5222 
L 1830 5370 
z
" transform="scale(0.015625)"/>
       </defs>
       <use xlink:href="#HiraginoSansGB-W3-8282"/>
       <use xlink:href="#HiraginoSansGB-W3-70b9" x="99.999985"/>
       <use xlink:href="#HiraginoSansGB-W3-7ba1" x="199.999969"/>
       <use xlink:href="#HiraginoSansGB-W3-7406" x="299.999954"/>
       <use xlink:href="#HiraginoSansGB-W3-64cd" x="399.999939"/>
       <use xlink:href="#HiraginoSansGB-W3-4f5c" x="499.999924"/>
      </g>
     </g>
    </g>
    <g id="ytick_2">
     <g id="line2d_21">
      <path d="M 72.26 151.778393 
L 334.480979 151.778393 
" clip-path="url(#p918873d71b)" style="fill: none; stroke: #e5e7eb; stroke-opacity: 0.7; stroke-width: 0.6; stroke-linecap: square"/>
     </g>
     <g id="line2d_22">
      <g>
       <use xlink:href="#m5681a033f9" x="72.26" y="151.778393" style="fill: #374151; stroke: #374151; stroke-width: 0.6"/>
      </g>
     </g>
     <g id="text_12">
      <!-- 监控指标查询 -->
      <g style="fill: #374151" transform="translate(14.26 155.033627) scale(0.085 -0.085)">
       <defs>
        <path id="HiraginoSansGB-W3-76d1" d="M 3904 4429 
C 4013 4685 4026 4723 4090 4915 
C 4166 5152 4192 5216 4224 5299 
L 3763 5382 
C 3744 5101 3590 4653 3405 4301 
C 3168 3859 2963 3590 2618 3270 
C 2778 3187 2854 3136 2963 3014 
C 3341 3443 3546 3725 3725 4058 
L 5446 4058 
C 5690 4058 5837 4051 5997 4026 
L 5997 4467 
C 5824 4442 5670 4429 5440 4429 
L 3904 4429 
z
M 1056 77 
L 851 77 
C 640 77 518 83 365 109 
L 365 -307 
C 493 -288 736 -275 992 -275 
L 5434 -275 
C 5690 -275 5875 -288 6074 -307 
L 6074 109 
C 5933 83 5805 77 5562 77 
L 5331 77 
L 5331 1530 
C 5331 1747 5338 1869 5363 2035 
C 5139 2016 4992 2010 4749 2010 
L 1638 2010 
C 1395 2010 1267 2016 1024 2035 
C 1050 1850 1056 1696 1056 1485 
L 1056 77 
z
M 1440 1658 
L 2349 1658 
L 2349 77 
L 1440 77 
L 1440 1658 
z
M 2714 1658 
L 3642 1658 
L 3642 77 
L 2714 77 
L 2714 1658 
z
M 4006 1658 
L 4947 1658 
L 4947 77 
L 4006 77 
L 4006 1658 
z
M 704 5094 
C 730 4934 736 4826 736 4614 
L 736 3008 
C 736 2803 730 2656 710 2541 
L 1165 2541 
C 1146 2656 1139 2790 1139 3008 
L 1139 4608 
C 1139 4832 1146 4941 1171 5094 
L 704 5094 
z
M 1952 5325 
C 1978 5165 1984 5056 1984 4845 
L 1984 2874 
C 1984 2669 1978 2522 1958 2406 
L 2419 2406 
C 2400 2522 2394 2656 2394 2874 
L 2394 4838 
C 2394 5062 2400 5171 2426 5325 
L 1952 5325 
z
M 5581 2746 
C 4986 3168 4813 3270 4173 3565 
L 3942 3258 
C 4570 2963 4806 2816 5331 2381 
L 5581 2746 
z
" transform="scale(0.015625)"/>
        <path id="HiraginoSansGB-W3-63a7" d="M 1459 4045 
L 1459 4653 
C 1459 4960 1466 5120 1491 5306 
L 1018 5306 
C 1043 5120 1056 4954 1056 4646 
L 1056 4045 
L 742 4045 
C 563 4045 461 4051 320 4077 
L 320 3661 
C 480 3680 582 3686 742 3686 
L 1056 3686 
L 1056 2266 
C 768 2138 454 2035 275 2003 
L 397 1581 
C 582 1670 582 1670 742 1734 
C 826 1766 896 1798 1056 1869 
L 1056 77 
C 1056 -26 1018 -51 896 -51 
C 723 -51 544 -32 358 0 
C 410 -154 429 -250 442 -397 
C 614 -403 691 -410 774 -410 
C 1338 -410 1459 -333 1459 45 
L 1459 2048 
C 1798 2214 1798 2214 2074 2368 
L 2054 2746 
C 1798 2605 1715 2560 1459 2438 
L 1459 3686 
L 1568 3686 
C 1760 3686 1856 3680 2003 3661 
L 2003 4070 
C 1869 4051 1760 4045 1568 4045 
L 1459 4045 
z
M 2758 4544 
C 2458 4544 2272 4550 2138 4570 
C 2150 4416 2157 4314 2157 4141 
L 2157 3738 
C 2157 3610 2144 3462 2138 3354 
L 2522 3354 
L 2522 4192 
L 5587 4192 
L 5587 3469 
L 5984 3469 
C 5965 3590 5965 3674 5965 3821 
L 5965 4128 
C 5965 4307 5965 4410 5984 4570 
C 5843 4550 5664 4544 5357 4544 
L 4262 4544 
C 4090 4877 3981 5056 3744 5402 
L 3392 5248 
C 3571 5005 3686 4806 3808 4544 
L 2758 4544 
z
M 4160 1466 
L 5088 1466 
C 5389 1466 5581 1459 5747 1440 
L 5747 1862 
C 5568 1837 5376 1824 5088 1824 
L 3046 1824 
C 2739 1824 2566 1830 2387 1862 
L 2387 1440 
C 2554 1459 2733 1466 3053 1466 
L 3750 1466 
L 3750 160 
L 2637 160 
C 2310 160 2125 173 1946 198 
L 1946 -237 
C 2157 -211 2349 -205 2637 -205 
L 5350 -205 
C 5632 -205 5824 -211 6042 -237 
L 6042 198 
C 5856 173 5664 160 5344 160 
L 4160 160 
L 4160 1466 
z
M 4346 3494 
C 4845 3085 5133 2784 5651 2150 
L 5946 2426 
C 5498 2957 5171 3270 4595 3725 
L 4346 3494 
z
M 3411 3686 
C 3232 3386 3123 3232 2931 3021 
C 2701 2771 2547 2650 2189 2445 
C 2330 2298 2355 2272 2438 2131 
C 3034 2528 3296 2803 3776 3520 
L 3411 3686 
z
" transform="scale(0.015625)"/>
        <path id="HiraginoSansGB-W3-6307" d="M 1709 4064 
L 1709 4698 
C 1709 4941 1722 5146 1754 5338 
L 1261 5338 
C 1293 5139 1306 4934 1306 4685 
L 1306 4064 
L 915 4064 
C 710 4064 563 4077 397 4102 
L 397 3674 
C 570 3699 736 3706 922 3706 
L 1306 3706 
L 1306 2272 
C 678 2080 595 2061 346 2035 
L 448 1587 
C 576 1638 672 1670 858 1722 
C 973 1754 1088 1792 1203 1830 
C 1267 1856 1274 1856 1306 1869 
L 1306 154 
C 1306 19 1261 -19 1088 -19 
C 883 -19 691 0 448 45 
C 512 -115 525 -186 538 -378 
C 736 -390 838 -397 1005 -397 
C 1562 -397 1709 -301 1709 45 
L 1709 2003 
C 2189 2176 2189 2176 2470 2298 
L 2464 2669 
C 2112 2534 1914 2464 1709 2400 
L 1709 3706 
L 1933 3706 
C 2125 3706 2278 3699 2458 3674 
L 2458 4096 
C 2291 4070 2138 4064 1939 4064 
L 1709 4064 
z
M 3142 4109 
C 3930 4218 4102 4250 4672 4397 
C 5043 4493 5382 4602 5779 4755 
L 5459 5114 
C 5088 4864 4211 4614 3142 4461 
L 3142 4704 
C 3142 4973 3155 5146 3181 5318 
L 2707 5318 
C 2739 5120 2746 4966 2746 4685 
L 2746 3584 
C 2746 3110 2957 3027 4186 3027 
C 5197 3027 5466 3053 5651 3174 
C 5843 3302 5926 3520 5990 4038 
C 5862 4070 5734 4128 5600 4211 
C 5542 3398 5530 3392 4301 3392 
C 3258 3392 3142 3418 3142 3674 
L 3142 4109 
z
M 2752 173 
C 2752 -147 2746 -288 2720 -461 
L 3142 -461 
L 3142 -102 
L 5235 -102 
L 5235 -454 
L 5664 -454 
C 5638 -294 5632 -166 5632 186 
L 5632 1990 
C 5632 2214 5638 2374 5658 2496 
C 5504 2477 5370 2470 5094 2470 
L 3290 2470 
C 3021 2470 2886 2477 2726 2496 
C 2746 2362 2752 2208 2752 1997 
L 2752 173 
z
M 3142 2118 
L 5235 2118 
L 5235 1395 
L 3142 1395 
L 3142 2118 
z
M 3142 1050 
L 5235 1050 
L 5235 250 
L 3142 250 
L 3142 1050 
z
" transform="scale(0.015625)"/>
        <path id="HiraginoSansGB-W3-6807" d="M 4083 3085 
L 4083 186 
C 4083 51 4051 32 3885 32 
C 3674 32 3520 45 3200 90 
C 3277 -77 3302 -173 3322 -333 
C 3597 -352 3718 -358 3866 -358 
C 4211 -358 4378 -294 4448 -134 
C 4480 -51 4480 -51 4480 237 
L 4480 3085 
L 5523 3085 
C 5760 3085 5946 3072 6131 3040 
L 6131 3507 
C 5939 3482 5786 3469 5523 3469 
L 3072 3469 
C 2797 3469 2662 3475 2483 3507 
L 2483 3046 
C 2656 3072 2816 3085 3066 3085 
L 4083 3085 
z
M 1658 2950 
C 1888 2630 2035 2387 2189 2093 
L 2490 2355 
C 2221 2739 2042 2963 1658 3405 
L 1658 3738 
L 2016 3738 
C 2163 3738 2304 3725 2438 3706 
L 2438 4115 
C 2310 4096 2176 4083 2016 4083 
L 1658 4083 
L 1658 4672 
C 1658 4947 1670 5146 1696 5325 
L 1235 5325 
C 1261 5133 1274 4947 1274 4666 
L 1274 4083 
L 883 4083 
C 646 4083 506 4096 352 4122 
L 352 3699 
C 512 3725 672 3738 877 3738 
L 1210 3738 
C 1165 3514 1037 3046 960 2822 
C 755 2253 506 1773 205 1402 
C 314 1286 371 1210 461 1037 
C 870 1645 1101 2195 1306 3078 
C 1286 2688 1274 2317 1274 2035 
L 1274 256 
C 1274 -77 1261 -307 1235 -486 
L 1696 -486 
C 1670 -307 1658 -90 1658 256 
L 1658 2950 
z
M 2803 4570 
C 2938 4589 3104 4595 3296 4595 
L 5235 4595 
C 5440 4595 5562 4589 5722 4570 
L 5722 5011 
C 5574 4986 5453 4979 5235 4979 
L 3302 4979 
C 3078 4979 2957 4986 2803 5011 
L 2803 4570 
z
M 3110 2509 
C 2880 1542 2669 1107 2170 557 
C 2330 435 2406 365 2483 243 
C 2989 954 3226 1459 3469 2368 
L 3110 2509 
z
M 6208 499 
C 5997 1171 5606 2086 5357 2483 
L 4986 2355 
C 5338 1766 5510 1338 5830 294 
L 6208 499 
z
" transform="scale(0.015625)"/>
        <path id="HiraginoSansGB-W3-67e5" d="M 5306 4307 
C 5574 4307 5754 4294 5958 4269 
L 5958 4698 
C 5779 4672 5587 4659 5306 4659 
L 3347 4659 
L 3347 4813 
C 3347 5037 3360 5171 3386 5318 
L 2912 5318 
C 2938 5158 2950 5024 2950 4806 
L 2950 4659 
L 1126 4659 
C 832 4659 627 4672 461 4698 
L 461 4269 
C 659 4294 845 4307 1101 4307 
L 2611 4307 
C 2035 3699 1165 3174 262 2893 
C 378 2771 429 2694 506 2541 
C 1562 2931 2400 3501 2963 4218 
C 2957 4070 2950 3936 2950 3821 
L 2950 3411 
C 2950 3245 2938 3110 2918 2995 
L 3379 2995 
C 3354 3117 3341 3238 3341 3405 
L 3341 3821 
C 3341 3910 3334 4045 3322 4230 
C 3667 3795 4013 3494 4531 3174 
C 4973 2906 5357 2733 5946 2534 
C 6029 2707 6080 2797 6189 2931 
C 5114 3200 4333 3629 3680 4307 
L 5306 4307 
z
M 4928 2291 
C 4928 2547 4934 2688 4954 2835 
C 4787 2816 4646 2810 4339 2810 
L 2061 2810 
C 1754 2810 1619 2816 1440 2835 
C 1459 2682 1466 2547 1466 2285 
L 1466 1024 
C 1466 774 1459 627 1440 480 
C 1638 499 1773 506 2061 506 
L 4339 506 
C 4614 506 4787 499 4954 480 
C 4934 621 4928 768 4928 1030 
L 4928 2291 
z
M 1869 2458 
L 4525 2458 
L 4525 1843 
L 1869 1843 
L 1869 2458 
z
M 1869 1498 
L 4525 1498 
L 4525 858 
L 1869 858 
L 1869 1498 
z
M 6022 96 
C 5824 70 5651 58 5350 58 
L 1056 58 
C 749 58 557 70 371 96 
L 371 -358 
C 570 -333 794 -320 1062 -320 
L 5331 -320 
C 5619 -320 5830 -333 6022 -358 
L 6022 96 
z
" transform="scale(0.015625)"/>
        <path id="HiraginoSansGB-W3-8be2" d="M 5523 4147 
C 5510 3245 5510 3245 5504 3104 
C 5491 2720 5446 1568 5446 1536 
C 5402 870 5299 352 5184 154 
C 5126 58 5069 32 4902 32 
C 4659 32 4339 64 4102 109 
C 4154 -26 4173 -141 4186 -314 
C 4461 -339 4653 -352 4858 -352 
C 5203 -352 5350 -307 5466 -173 
C 5638 19 5760 563 5830 1376 
C 5869 1914 5920 3334 5920 4045 
C 5920 4262 5926 4378 5946 4525 
C 5805 4512 5683 4506 5382 4506 
L 3232 4506 
C 3251 4550 3258 4570 3290 4640 
C 3437 4992 3526 5197 3546 5229 
L 3110 5363 
C 3078 5165 3021 4992 2906 4704 
C 2637 4058 2374 3661 1958 3290 
C 2093 3194 2157 3117 2246 2976 
C 2618 3379 2842 3699 3066 4147 
L 5523 4147 
z
M 1171 582 
C 1152 499 1101 442 992 390 
L 1190 -38 
C 1312 38 1427 109 1536 173 
C 1619 224 2214 595 2419 730 
L 2394 1178 
C 2067 960 1920 870 1683 736 
L 1587 685 
L 1587 2694 
C 1587 3014 1594 3168 1619 3373 
C 1466 3354 1312 3341 1126 3341 
L 826 3341 
C 582 3341 486 3347 326 3373 
L 326 2925 
C 486 2950 582 2957 800 2957 
L 1171 2957 
L 1171 582 
z
M 877 5024 
C 1293 4723 1568 4474 1888 4096 
L 2189 4422 
C 1850 4781 1587 5005 1178 5306 
L 877 5024 
z
M 4678 2874 
C 4678 3142 4685 3283 4698 3437 
C 4544 3424 4416 3418 4211 3418 
L 3302 3418 
C 3078 3418 2963 3424 2790 3437 
C 2803 3245 2803 3194 2803 2874 
L 2803 1082 
C 2803 832 2797 646 2778 442 
L 3174 442 
L 3174 877 
L 4179 877 
C 4474 877 4518 877 4691 864 
C 4678 1011 4678 1075 4678 1446 
L 4678 2874 
z
M 3181 3091 
L 4307 3091 
L 4307 2355 
L 3181 2355 
L 3181 3091 
z
M 3174 2029 
L 4307 2029 
L 4307 1216 
L 3174 1216 
L 3174 2029 
z
" transform="scale(0.015625)"/>
       </defs>
       <use xlink:href="#HiraginoSansGB-W3-76d1"/>
       <use xlink:href="#HiraginoSansGB-W3-63a7" x="99.999985"/>
       <use xlink:href="#HiraginoSansGB-W3-6307" x="199.999969"/>
       <use xlink:href="#HiraginoSansGB-W3-6807" x="299.999954"/>
       <use xlink:href="#HiraginoSansGB-W3-67e5" x="399.999939"/>
       <use xlink:href="#HiraginoSansGB-W3-8be2" x="499.999924"/>
      </g>
     </g>
    </g>
    <g id="ytick_3">
     <g id="line2d_23">
      <path d="M 72.26 125.893196 
L 334.480979 125.893196 
" clip-path="url(#p918873d71b)" style="fill: none; stroke: #e5e7eb; stroke-opacity: 0.7; stroke-width: 0.6; stroke-linecap: square"/>
     </g>
     <g id="line2d_24">
      <g>
       <use xlink:href="#m5681a033f9" x="72.26" y="125.893196" style="fill: #374151; stroke: #374151; stroke-width: 0.6"/>
      </g>
     </g>
     <g id="text_13">
      <!-- 审批与审计 -->
      <g style="fill: #374151" transform="translate(22.76 129.148431) scale(0.085 -0.085)">
       <defs>
        <path id="HiraginoSansGB-W3-5ba1" d="M 3437 4736 
C 3334 4973 3206 5178 3021 5421 
L 2682 5235 
C 2854 5005 2925 4896 3002 4736 
L 1114 4736 
C 877 4736 717 4742 474 4768 
C 493 4627 499 4506 499 4326 
L 499 4000 
C 499 3866 486 3757 467 3629 
L 896 3629 
L 896 4365 
L 5504 4365 
L 5504 3629 
L 5939 3629 
C 5914 3750 5907 3859 5907 4000 
L 5907 4326 
C 5907 4518 5914 4634 5933 4768 
C 5683 4742 5523 4736 5286 4736 
L 3437 4736 
z
M 2931 813 
L 2931 211 
C 2931 -141 2925 -294 2886 -518 
L 3386 -518 
C 3347 -307 3341 -160 3341 211 
L 3341 813 
L 5030 813 
L 5030 422 
L 5485 422 
C 5459 602 5446 787 5446 998 
L 5446 2950 
C 5446 3213 5453 3354 5485 3546 
C 5248 3520 5088 3514 4742 3514 
L 3341 3514 
C 3341 3725 3354 3923 3386 4102 
L 2886 4102 
C 2918 3917 2931 3744 2931 3514 
L 1613 3514 
C 1293 3514 1152 3520 909 3546 
C 941 3334 947 3200 947 2938 
L 947 998 
C 947 794 934 602 909 422 
L 1363 422 
L 1363 813 
L 2931 813 
z
M 2931 3142 
L 2931 2362 
L 1363 2362 
L 1363 3142 
L 2931 3142 
z
M 3341 3142 
L 5030 3142 
L 5030 2362 
L 3341 2362 
L 3341 3142 
z
M 2931 1997 
L 2931 1184 
L 1363 1184 
L 1363 1997 
L 2931 1997 
z
M 3341 1997 
L 5030 1997 
L 5030 1184 
L 3341 1184 
L 3341 1997 
z
" transform="scale(0.015625)"/>
        <path id="HiraginoSansGB-W3-6279" d="M 1139 4013 
L 774 4013 
C 595 4013 493 4019 352 4045 
L 352 3622 
C 518 3642 614 3648 774 3648 
L 1139 3648 
L 1139 2240 
C 608 2042 493 2010 301 1984 
L 416 1549 
C 480 1581 614 1632 678 1658 
C 864 1728 1011 1786 1139 1837 
L 1139 38 
C 1139 -64 1101 -90 979 -90 
C 813 -90 627 -70 410 -32 
C 461 -186 486 -288 486 -429 
C 659 -442 749 -448 858 -448 
C 1414 -448 1536 -371 1536 -6 
L 1536 2010 
C 1760 2112 1856 2157 2195 2330 
L 2182 2707 
C 1894 2560 1798 2515 1536 2400 
L 1536 3648 
L 1805 3648 
C 1971 3648 2054 3642 2214 3622 
L 2214 4038 
C 2093 4019 1978 4013 1805 4013 
L 1536 4013 
L 1536 4621 
C 1536 4922 1542 5094 1574 5267 
L 1101 5267 
C 1126 5075 1139 4922 1139 4614 
L 1139 4013 
z
M 2925 2970 
L 3546 2970 
C 3712 2970 3840 2957 3981 2931 
L 3981 3379 
C 3840 3347 3757 3341 3526 3341 
L 2925 3341 
L 2925 4640 
C 2925 4890 2931 5011 2963 5197 
L 2483 5197 
C 2509 5005 2522 4877 2522 4646 
L 2522 422 
C 2522 154 2496 109 2342 38 
L 2509 -358 
C 2784 -256 3597 26 3866 115 
L 3853 538 
C 3520 384 3424 352 2925 179 
L 2925 2970 
z
M 4602 2387 
C 5050 2707 5350 2957 5658 3270 
C 6054 3686 6054 3686 6125 3750 
L 5818 4096 
C 5632 3738 5114 3219 4602 2861 
L 4602 4653 
C 4602 4896 4608 5024 4640 5197 
L 4160 5197 
C 4186 5024 4198 4902 4198 4659 
L 4198 109 
C 4198 -237 4365 -333 4966 -333 
C 5466 -333 5741 -269 5869 -134 
C 6003 13 6061 333 6118 1222 
C 5971 1267 5869 1312 5734 1395 
C 5715 704 5677 320 5606 186 
C 5542 77 5414 45 5005 45 
C 4659 45 4602 70 4602 218 
L 4602 2387 
z
" transform="scale(0.015625)"/>
        <path id="HiraginoSansGB-W3-4e0e" d="M 1837 4429 
C 1907 5210 1907 5210 1933 5363 
L 1466 5363 
C 1472 5280 1472 5242 1472 5190 
C 1472 5005 1453 4634 1427 4301 
C 1370 3590 1312 3187 1210 2682 
C 1402 2694 1734 2707 1798 2707 
L 4960 2707 
C 4922 1760 4858 1190 4730 666 
C 4614 179 4512 77 4128 77 
C 3821 77 3469 109 2880 198 
C 2963 -13 2989 -90 3021 -256 
C 3546 -307 3859 -326 4160 -326 
C 4762 -326 4954 -166 5126 499 
C 5203 794 5306 1453 5338 1875 
C 5395 2778 5408 2918 5434 3110 
C 5306 3091 5056 3078 4749 3078 
L 1715 3078 
C 1766 3520 1773 3578 1811 4045 
L 4858 4045 
C 5126 4045 5293 4038 5459 4013 
L 5459 4461 
C 5286 4435 5146 4429 4845 4429 
L 1837 4429 
z
M 4224 1766 
C 4026 1741 3814 1728 3552 1728 
L 998 1728 
C 717 1728 499 1741 314 1766 
L 314 1312 
C 518 1338 730 1350 998 1350 
L 3552 1350 
C 3808 1350 4026 1338 4224 1312 
L 4224 1766 
z
" transform="scale(0.015625)"/>
        <path id="HiraginoSansGB-W3-8ba1" d="M 4032 3277 
L 3130 3277 
C 2810 3277 2592 3290 2394 3315 
L 2394 2854 
C 2611 2880 2848 2893 3136 2893 
L 4032 2893 
L 4032 448 
C 4032 -6 4019 -211 3987 -467 
L 4499 -467 
C 4461 -224 4448 38 4448 448 
L 4448 2893 
L 5363 2893 
C 5683 2893 5894 2880 6131 2854 
L 6131 3315 
C 5920 3290 5709 3277 5363 3277 
L 4448 3277 
L 4448 4570 
C 4448 4845 4461 5082 4493 5280 
L 3987 5280 
C 4019 5050 4032 4870 4032 4570 
L 4032 3277 
z
M 1338 390 
C 1312 262 1280 211 1165 154 
L 1357 -275 
C 1472 -205 1587 -141 1702 -83 
C 1766 -51 2304 243 2349 269 
C 2675 461 2675 461 2771 518 
L 2733 973 
C 2605 902 2586 883 2483 826 
C 2182 646 2182 646 2099 602 
C 1952 518 1837 461 1754 422 
L 1754 2598 
C 1754 2918 1760 3072 1786 3277 
C 1632 3258 1478 3245 1293 3245 
L 826 3245 
C 582 3245 486 3251 326 3277 
L 326 2829 
C 486 2854 582 2861 800 2861 
L 1338 2861 
L 1338 390 
z
M 826 5024 
C 1280 4704 1568 4442 1933 4019 
L 2240 4352 
C 1862 4736 1568 4992 1133 5306 
L 826 5024 
z
" transform="scale(0.015625)"/>
       </defs>
       <use xlink:href="#HiraginoSansGB-W3-5ba1"/>
       <use xlink:href="#HiraginoSansGB-W3-6279" x="99.999985"/>
       <use xlink:href="#HiraginoSansGB-W3-4e0e" x="199.999969"/>
       <use xlink:href="#HiraginoSansGB-W3-5ba1" x="299.999954"/>
       <use xlink:href="#HiraginoSansGB-W3-8ba1" x="399.999939"/>
      </g>
     </g>
    </g>
    <g id="ytick_4">
     <g id="line2d_25">
      <path d="M 72.26 100.008 
L 334.480979 100.008 
" clip-path="url(#p918873d71b)" style="fill: none; stroke: #e5e7eb; stroke-opacity: 0.7; stroke-width: 0.6; stroke-linecap: square"/>
     </g>
     <g id="line2d_26">
      <g>
       <use xlink:href="#m5681a033f9" x="72.26" y="100.008" style="fill: #374151; stroke: #374151; stroke-width: 0.6"/>
      </g>
     </g>
     <g id="text_14">
      <!-- K8s 资源查询 -->
      <g style="fill: #374151" transform="translate(12.270469 103.263234) scale(0.085 -0.085)">
       <defs>
        <path id="HiraginoSansGB-W3-4b" d="M 2138 2867 
L 3520 4243 
C 3539 4262 3616 4339 3731 4461 
C 3814 4550 3910 4640 4013 4742 
C 4064 4794 4064 4794 4179 4902 
L 3424 4902 
C 3334 4742 3226 4614 2982 4371 
L 1037 2413 
L 1037 4186 
C 1037 4499 1050 4698 1088 4902 
L 493 4902 
C 531 4666 544 4480 544 4186 
L 544 755 
C 544 461 531 243 493 38 
L 1088 38 
C 1050 262 1037 435 1037 755 
L 1037 1798 
L 1786 2534 
L 3296 589 
C 3475 365 3584 198 3674 38 
L 4416 38 
C 4243 205 4179 275 3814 736 
L 2138 2867 
z
" transform="scale(0.015625)"/>
        <path id="HiraginoSansGB-W3-38" d="M 2752 2586 
C 3322 2694 3680 3142 3680 3738 
C 3680 4525 3078 5005 2099 5005 
C 1133 5005 525 4512 525 3738 
C 525 3142 890 2688 1453 2586 
C 1216 2547 1075 2496 877 2368 
C 493 2118 307 1766 307 1306 
C 307 422 954 -64 2125 -64 
C 3251 -64 3891 429 3891 1306 
C 3891 1734 3731 2074 3411 2310 
C 3200 2470 3021 2547 2752 2586 
z
M 2099 4576 
C 2758 4576 3181 4237 3181 3699 
C 3181 3130 2778 2784 2106 2784 
C 1434 2784 1024 3130 1024 3699 
C 1024 4230 1446 4576 2099 4576 
z
M 2099 2342 
C 2886 2342 3366 1965 3366 1338 
C 3366 1075 3283 851 3123 704 
C 2906 486 2541 371 2093 371 
C 1299 371 832 730 832 1338 
C 832 1958 1312 2342 2099 2342 
z
" transform="scale(0.015625)"/>
        <path id="HiraginoSansGB-W3-73" d="M 269 973 
C 333 710 378 602 474 467 
C 710 141 1158 -32 1741 -32 
C 2618 -32 3162 365 3162 1005 
C 3162 1267 3053 1510 2854 1670 
C 2662 1818 2458 1894 1837 2035 
C 1440 2118 1274 2170 1126 2253 
C 986 2330 909 2458 909 2605 
C 909 2944 1242 3181 1709 3181 
C 1997 3181 2227 3098 2374 2938 
C 2464 2848 2496 2771 2534 2598 
L 3040 2682 
C 2957 2976 2867 3123 2701 3264 
C 2470 3469 2131 3571 1696 3571 
C 1267 3571 922 3456 698 3238 
C 518 3066 422 2848 422 2618 
C 422 2336 544 2099 768 1946 
C 986 1798 1203 1722 1715 1613 
C 2189 1517 2317 1478 2470 1382 
C 2605 1299 2669 1165 2669 986 
C 2669 608 2317 371 1760 371 
C 1434 371 1178 448 1018 595 
C 890 710 838 826 794 1062 
L 269 973 
z
" transform="scale(0.015625)"/>
        <path id="HiraginoSansGB-W3-20" transform="scale(0.015625)"/>
        <path id="HiraginoSansGB-W3-8d44" d="M 3731 4461 
C 3654 4102 3507 3866 3251 3648 
C 2938 3386 2554 3238 1952 3155 
C 2042 3002 2074 2938 2125 2790 
C 2208 2816 2272 2829 2310 2842 
C 2490 2893 2611 2931 2630 2938 
C 2848 3002 3040 3091 3219 3200 
C 3590 3430 3821 3699 3962 4064 
C 4179 3635 4390 3398 4749 3168 
C 5062 2970 5408 2835 5933 2707 
C 5997 2893 6042 2989 6125 3110 
C 5466 3206 5005 3379 4698 3642 
C 4410 3885 4224 4160 4147 4461 
L 5350 4461 
C 5203 4256 5056 4122 4800 3962 
C 4941 3910 5037 3859 5152 3776 
C 5421 3981 5555 4122 5747 4390 
C 5818 4486 5818 4493 5837 4512 
C 5882 4576 5882 4576 5907 4608 
L 5658 4819 
C 5530 4794 5446 4787 5229 4787 
L 3123 4787 
C 3232 4941 3277 5018 3405 5248 
L 3014 5376 
C 2829 4883 2522 4506 2003 4134 
C 2144 4038 2195 4000 2285 3878 
C 2534 4070 2739 4269 2893 4461 
L 3731 4461 
z
M 2035 3904 
C 1382 3610 915 3456 333 3341 
L 486 2912 
C 595 2950 595 2950 710 3002 
C 838 3053 838 3053 1050 3123 
C 1344 3226 1747 3392 2144 3558 
L 2035 3904 
z
M 1645 538 
C 1626 691 1606 1018 1606 1248 
L 1606 2304 
L 4774 2304 
L 4774 1248 
C 4774 934 4762 774 4730 538 
L 5222 538 
C 5197 710 5190 896 5190 1248 
L 5190 2054 
C 5190 2336 5197 2547 5216 2688 
C 5037 2669 4800 2662 4493 2662 
L 1894 2662 
C 1581 2662 1363 2669 1184 2688 
C 1197 2515 1203 2413 1203 2080 
L 1203 1248 
C 1203 954 1190 730 1158 538 
L 1645 538 
z
M 1958 4646 
C 1613 4870 1325 5024 832 5229 
L 608 4934 
C 1005 4781 1267 4640 1747 4320 
L 1958 4646 
z
M 2957 2080 
C 2976 1946 2982 1875 2982 1741 
C 2982 1402 2957 1146 2899 979 
C 2790 646 2554 416 2150 250 
C 1658 51 1120 -38 403 -51 
C 506 -218 550 -314 602 -454 
C 947 -416 1133 -390 1171 -390 
C 1606 -314 1875 -250 2176 -134 
C 2637 38 2931 237 3110 506 
C 3296 781 3360 1062 3379 1638 
C 3392 1952 3392 1952 3405 2080 
L 2957 2080 
z
M 3443 416 
C 4710 -6 4787 -38 5818 -486 
L 6016 -115 
C 5139 237 4762 371 3622 742 
L 3443 416 
z
" transform="scale(0.015625)"/>
        <path id="HiraginoSansGB-W3-6e90" d="M 4262 3987 
C 4371 4262 4397 4326 4486 4659 
L 5331 4659 
C 5574 4659 5818 4646 6003 4627 
L 6003 5056 
C 5818 5030 5638 5024 5325 5024 
L 2662 5024 
C 2368 5024 2227 5030 2054 5056 
C 2074 4774 2086 4474 2086 4211 
L 2086 4166 
L 2080 3360 
C 2074 2477 1978 1600 1824 1030 
C 1709 595 1587 307 1370 -38 
C 1555 -160 1594 -198 1709 -339 
C 2266 621 2483 1811 2483 3936 
L 2483 4659 
L 4077 4659 
C 4032 4416 3962 4192 3866 3987 
L 3507 3987 
C 3258 3987 3066 3994 2899 4013 
C 2912 3859 2918 3706 2918 3507 
L 2918 2259 
C 2918 2048 2912 1926 2893 1805 
C 3085 1824 3245 1830 3437 1830 
L 4090 1830 
L 4090 141 
C 4090 6 4058 -26 3904 -26 
C 3718 -26 3578 -13 3309 26 
C 3366 -134 3386 -224 3398 -378 
C 3565 -390 3782 -397 3923 -397 
C 4122 -397 4211 -384 4307 -346 
C 4422 -294 4486 -166 4486 26 
L 4486 1830 
L 5190 1830 
C 5389 1830 5530 1824 5702 1805 
C 5683 1926 5677 2048 5677 2304 
L 5677 3533 
C 5677 3763 5683 3891 5702 4013 
C 5523 3994 5357 3987 5107 3987 
L 4262 3987 
z
M 3296 3654 
L 5299 3654 
L 5299 3098 
L 3296 3098 
L 3296 3654 
z
M 3296 2765 
L 5299 2765 
L 5299 2170 
L 3296 2170 
L 3296 2765 
z
M 531 4922 
C 922 4666 1133 4474 1466 4090 
L 1754 4384 
C 1453 4710 1216 4915 819 5197 
L 531 4922 
z
M 243 3341 
C 672 3078 870 2925 1274 2522 
L 1530 2867 
C 1171 3206 922 3392 499 3648 
L 243 3341 
z
M 1133 1882 
C 890 1005 544 224 282 -38 
L 646 -365 
C 1088 499 1210 819 1453 1658 
L 1133 1882 
z
M 4947 1421 
C 5280 915 5472 544 5715 -102 
L 6067 96 
C 5830 678 5645 1024 5280 1594 
L 4947 1421 
z
M 3110 1562 
C 3034 1216 2982 1050 2854 794 
C 2720 518 2618 371 2387 96 
C 2522 13 2592 -45 2701 -166 
C 3110 371 3290 749 3482 1440 
L 3110 1562 
z
" transform="scale(0.015625)"/>
       </defs>
       <use xlink:href="#HiraginoSansGB-W3-4b"/>
       <use xlink:href="#HiraginoSansGB-W3-38" x="70.699982"/>
       <use xlink:href="#HiraginoSansGB-W3-73" x="136.399979"/>
       <use xlink:href="#HiraginoSansGB-W3-20" x="190.099976"/>
       <use xlink:href="#HiraginoSansGB-W3-8d44" x="223.399963"/>
       <use xlink:href="#HiraginoSansGB-W3-6e90" x="323.399948"/>
       <use xlink:href="#HiraginoSansGB-W3-67e5" x="423.399933"/>
       <use xlink:href="#HiraginoSansGB-W3-8be2" x="523.399918"/>
      </g>
     </g>
    </g>
    <g id="ytick_5">
     <g id="line2d_27">
      <path d="M 72.26 74.122804 
L 334.480979 74.122804 
" clip-path="url(#p918873d71b)" style="fill: none; stroke: #e5e7eb; stroke-opacity: 0.7; stroke-width: 0.6; stroke-linecap: square"/>
     </g>
     <g id="line2d_28">
      <g>
       <use xlink:href="#m5681a033f9" x="72.26" y="74.122804" style="fill: #374151; stroke: #374151; stroke-width: 0.6"/>
      </g>
     </g>
     <g id="text_15">
      <!-- 资源与配额查询 -->
      <g style="fill: #374151" transform="translate(5.76 77.378038) scale(0.085 -0.085)">
       <defs>
        <path id="HiraginoSansGB-W3-914d" d="M 2330 4742 
L 2624 4742 
C 2886 4742 3091 4730 3264 4710 
L 3264 5133 
C 3078 5107 2867 5094 2598 5094 
L 1056 5094 
C 800 5094 589 5107 410 5133 
L 410 4704 
C 582 4730 794 4742 1043 4742 
L 1370 4742 
L 1370 4000 
L 1216 4000 
C 922 4000 762 4006 576 4026 
C 595 3840 602 3648 602 3379 
L 602 314 
C 602 -77 589 -269 557 -480 
L 966 -480 
L 966 -64 
L 2720 -64 
L 2720 -346 
L 3117 -346 
C 3098 -198 3085 64 3085 314 
L 3085 3398 
C 3085 3667 3091 3827 3110 4026 
C 2912 4006 2739 4000 2426 4000 
L 2330 4000 
L 2330 4742 
z
M 2016 4742 
L 2016 4000 
L 1683 4000 
L 1683 4742 
L 2016 4742 
z
M 2720 1331 
L 966 1331 
L 966 3680 
L 1370 3680 
C 1357 3155 1344 2976 1293 2714 
C 1229 2381 1146 2157 973 1914 
C 1062 1843 1146 1754 1210 1658 
C 1421 1971 1498 2157 1581 2515 
C 1645 2822 1670 3078 1683 3680 
L 2016 3680 
L 2016 2336 
C 2016 2099 2093 2054 2496 2054 
C 2547 2054 2547 2054 2720 2054 
L 2720 1331 
z
M 2720 2374 
C 2624 2374 2592 2374 2560 2374 
C 2349 2374 2323 2381 2323 2470 
L 2330 3680 
L 2720 3680 
L 2720 2374 
z
M 966 1005 
L 2720 1005 
L 2720 282 
L 966 282 
L 966 1005 
z
M 5792 4493 
C 5792 4845 5798 4960 5811 5120 
C 5638 5101 5459 5094 5203 5094 
L 4134 5094 
C 3866 5094 3654 5107 3475 5133 
L 3475 4685 
C 3648 4710 3808 4717 4128 4717 
L 5389 4717 
L 5389 3130 
L 4192 3130 
C 3930 3130 3770 3136 3571 3155 
C 3597 2982 3603 2822 3603 2534 
L 3603 224 
C 3603 -230 3763 -314 4678 -314 
C 5939 -314 6003 -250 6106 1050 
C 5933 1094 5869 1126 5690 1242 
C 5683 742 5632 358 5562 230 
C 5498 109 5312 70 4736 70 
C 4326 70 4134 90 4064 134 
C 4019 160 4006 192 4006 307 
L 4006 2752 
L 5197 2752 
C 5472 2752 5632 2746 5818 2726 
C 5798 2886 5792 3059 5792 3322 
L 5792 4493 
z
" transform="scale(0.015625)"/>
        <path id="HiraginoSansGB-W3-989d" d="M 3245 1837 
C 2976 2061 2682 2253 2125 2573 
C 2336 2810 2464 2989 2694 3360 
C 2784 3507 2784 3507 2848 3584 
L 2624 3808 
C 2528 3789 2406 3776 2253 3776 
L 1568 3776 
C 1658 3936 1690 4006 1709 4038 
C 1741 4102 1741 4102 1766 4141 
L 1395 4250 
C 1267 3878 1210 3770 979 3456 
C 749 3142 544 2938 269 2752 
C 365 2688 442 2598 512 2470 
C 672 2605 736 2669 902 2842 
C 1261 2656 1485 2541 1574 2490 
C 1190 2138 736 1850 186 1619 
C 282 1530 346 1434 403 1299 
C 614 1402 698 1446 794 1504 
C 806 1370 813 1184 813 960 
L 813 147 
C 813 -58 800 -262 781 -442 
L 1165 -442 
L 1165 -32 
L 2413 -32 
L 2413 -365 
L 2810 -365 
C 2790 -211 2778 0 2778 256 
L 2778 960 
C 2778 1216 2784 1382 2803 1549 
C 2650 1536 2573 1536 2330 1536 
L 1261 1536 
C 1082 1536 941 1536 864 1542 
C 1280 1798 1594 2035 1882 2317 
C 2426 1984 2752 1760 3059 1498 
L 3245 1837 
z
M 2355 3456 
C 2170 3149 2048 2976 1824 2739 
C 1446 2938 1421 2950 1325 2995 
C 1222 3046 1216 3046 1120 3098 
C 1210 3206 1293 3322 1376 3456 
L 2355 3456 
z
M 1165 1210 
L 2413 1210 
L 2413 307 
L 1165 307 
L 1165 1210 
z
M 2048 4659 
C 1933 4960 1856 5094 1670 5318 
L 1389 5146 
C 1510 4973 1594 4838 1677 4659 
L 909 4659 
C 614 4659 480 4666 384 4678 
C 403 4525 410 4410 410 4282 
L 410 4019 
C 410 3878 403 3770 384 3654 
L 774 3654 
L 774 4326 
L 2771 4326 
L 2771 3718 
L 3136 3718 
C 3123 3789 3117 3936 3117 4083 
L 3117 4294 
C 3117 4467 3123 4570 3136 4678 
C 3034 4666 2912 4659 2618 4659 
L 2048 4659 
z
M 4493 4736 
C 4448 4538 4365 4288 4237 4013 
L 4038 4013 
C 3763 4013 3629 4019 3443 4032 
C 3462 3904 3469 3757 3469 3552 
L 3469 1626 
C 3469 1350 3456 1184 3430 986 
L 3872 986 
C 3846 1184 3834 1350 3834 1626 
L 3834 3674 
L 5466 3674 
L 5466 1626 
C 5466 1344 5453 1178 5427 979 
L 5888 979 
C 5862 1178 5850 1344 5850 1626 
L 5850 3584 
C 5850 3795 5856 3923 5875 4032 
C 5696 4019 5549 4013 5248 4013 
L 4646 4013 
C 4826 4435 4851 4512 4922 4736 
L 5523 4736 
C 5779 4736 5926 4730 6112 4704 
L 6112 5120 
C 5971 5094 5805 5082 5504 5082 
L 3846 5082 
C 3546 5082 3411 5088 3226 5120 
L 3226 4710 
C 3373 4730 3520 4736 3834 4736 
L 4493 4736 
z
M 6214 -128 
C 5882 166 5504 467 5043 794 
L 4774 538 
C 5389 64 5555 -83 5926 -467 
L 6214 -128 
z
M 4422 3315 
C 4448 3181 4461 2963 4461 2739 
L 4461 1843 
C 4461 1114 4390 858 4102 557 
C 3821 256 3520 96 2906 -83 
C 3040 -186 3091 -256 3181 -448 
C 3667 -250 3878 -134 4115 45 
C 4486 326 4723 678 4800 1075 
C 4838 1274 4851 1440 4851 1843 
L 4851 2733 
C 4851 3002 4864 3187 4890 3315 
L 4422 3315 
z
" transform="scale(0.015625)"/>
       </defs>
       <use xlink:href="#HiraginoSansGB-W3-8d44"/>
       <use xlink:href="#HiraginoSansGB-W3-6e90" x="99.999985"/>
       <use xlink:href="#HiraginoSansGB-W3-4e0e" x="199.999969"/>
       <use xlink:href="#HiraginoSansGB-W3-914d" x="299.999954"/>
       <use xlink:href="#HiraginoSansGB-W3-989d" x="399.999939"/>
       <use xlink:href="#HiraginoSansGB-W3-67e5" x="499.999924"/>
       <use xlink:href="#HiraginoSansGB-W3-8be2" x="599.999908"/>
      </g>
     </g>
    </g>
    <g id="ytick_6">
     <g id="line2d_29">
      <path d="M 72.26 48.237607 
L 334.480979 48.237607 
" clip-path="url(#p918873d71b)" style="fill: none; stroke: #e5e7eb; stroke-opacity: 0.7; stroke-width: 0.6; stroke-linecap: square"/>
     </g>
     <g id="line2d_30">
      <g>
       <use xlink:href="#m5681a033f9" x="72.26" y="48.237607" style="fill: #374151; stroke: #374151; stroke-width: 0.6"/>
      </g>
     </g>
     <g id="text_16">
      <!-- 作业写操作 -->
      <g style="fill: #374151" transform="translate(22.76 51.492842) scale(0.085 -0.085)">
       <defs>
        <path id="HiraginoSansGB-W3-4e1a" d="M 3571 5152 
C 3603 4954 3610 4858 3610 4480 
L 3610 269 
L 2707 269 
L 2707 4512 
C 2707 4826 2714 4941 2746 5152 
L 2253 5152 
C 2285 4973 2298 4819 2298 4506 
L 2298 269 
L 992 269 
C 704 269 518 282 326 307 
L 326 -154 
C 550 -128 730 -115 992 -115 
L 5370 -115 
C 5632 -115 5811 -128 6035 -154 
L 6035 307 
C 5830 282 5651 269 5370 269 
L 4019 269 
L 4019 4480 
C 4019 4762 4032 4966 4064 5152 
L 3571 5152 
z
M 646 3744 
C 890 3117 1062 2560 1293 1632 
L 1690 1779 
C 1414 2803 1280 3238 1024 3885 
L 646 3744 
z
M 5306 3853 
C 5158 3091 4877 2349 4499 1722 
L 4832 1530 
C 5190 2125 5331 2451 5613 3366 
C 5638 3430 5670 3546 5715 3680 
L 5306 3853 
z
" transform="scale(0.015625)"/>
        <path id="HiraginoSansGB-W3-5199" d="M 4371 3379 
C 4698 3379 4877 3373 5062 3347 
L 5062 3770 
C 4883 3738 4736 3731 4371 3731 
L 2202 3731 
C 2202 3750 2202 3757 2208 3776 
C 2227 3885 2253 4000 2278 4128 
C 2291 4205 2304 4256 2310 4288 
C 2323 4339 2323 4352 2336 4403 
L 1888 4442 
C 1882 4320 1875 4250 1850 4077 
C 1722 3238 1581 2592 1402 2061 
C 1510 2074 1530 2074 1626 2080 
C 1715 2080 1715 2080 1971 2099 
L 4986 2099 
C 4858 813 4832 608 4762 339 
C 4685 51 4589 -26 4282 -26 
C 3974 -26 3616 13 3085 102 
C 3098 70 3110 45 3117 26 
C 3123 6 3130 -13 3136 -32 
C 3168 -122 3174 -128 3187 -256 
C 3187 -269 3194 -301 3200 -339 
C 3661 -390 3974 -416 4269 -416 
C 4627 -416 4838 -352 4973 -205 
C 5101 -58 5165 173 5242 736 
C 5370 1830 5446 2406 5459 2477 
C 5299 2451 5101 2445 4813 2445 
L 1914 2445 
C 1984 2707 1997 2758 2061 3066 
C 2074 3136 2093 3238 2125 3379 
L 4371 3379 
z
M 966 3718 
L 966 4634 
L 5446 4634 
L 5446 3718 
L 5882 3718 
C 5856 3872 5843 4038 5843 4243 
L 5843 4512 
C 5843 4742 5850 4883 5869 5018 
C 5728 5005 5562 4998 5261 4998 
L 1139 4998 
C 838 4998 672 5005 538 5018 
C 557 4883 563 4736 563 4512 
L 563 4250 
C 563 4045 550 3885 525 3718 
L 966 3718 
z
M 4326 1306 
C 4147 1274 3974 1267 3616 1267 
L 1184 1267 
C 845 1267 646 1280 480 1306 
L 480 851 
C 653 877 851 890 1184 890 
L 3616 890 
C 3910 890 4115 877 4326 851 
L 4326 1306 
z
" transform="scale(0.015625)"/>
       </defs>
       <use xlink:href="#HiraginoSansGB-W3-4f5c"/>
       <use xlink:href="#HiraginoSansGB-W3-4e1a" x="99.999985"/>
       <use xlink:href="#HiraginoSansGB-W3-5199" x="199.999969"/>
       <use xlink:href="#HiraginoSansGB-W3-64cd" x="299.999954"/>
       <use xlink:href="#HiraginoSansGB-W3-4f5c" x="399.999939"/>
      </g>
     </g>
    </g>
    <g id="ytick_7">
     <g id="line2d_31">
      <path d="M 72.26 22.352411 
L 334.480979 22.352411 
" clip-path="url(#p918873d71b)" style="fill: none; stroke: #e5e7eb; stroke-opacity: 0.7; stroke-width: 0.6; stroke-linecap: square"/>
     </g>
     <g id="line2d_32">
      <g>
       <use xlink:href="#m5681a033f9" x="72.26" y="22.352411" style="fill: #374151; stroke: #374151; stroke-width: 0.6"/>
      </g>
     </g>
     <g id="text_17">
      <!-- 作业查询与诊断 -->
      <g style="fill: #374151" transform="translate(5.76 25.607645) scale(0.085 -0.085)">
       <defs>
        <path id="HiraginoSansGB-W3-8bca" d="M 4435 5254 
L 4026 5395 
C 3859 5056 3635 4704 3366 4384 
C 3053 4013 2714 3725 2253 3450 
C 2413 3309 2413 3309 2496 3181 
C 2502 3162 2515 3142 2534 3110 
C 3354 3693 3635 3987 4160 4806 
C 4365 4499 4480 4352 4730 4083 
C 5114 3674 5350 3482 6003 3059 
C 6074 3226 6112 3277 6266 3462 
C 5779 3712 5402 3974 5037 4314 
C 4787 4550 4608 4762 4358 5126 
L 4435 5254 
z
M 1306 346 
C 1293 218 1280 192 1178 115 
L 1370 -250 
C 1504 -141 1542 -115 1773 32 
C 2003 179 2189 307 2547 563 
L 2522 1011 
C 2285 800 2131 678 1722 403 
L 1722 2694 
C 1722 3014 1728 3168 1754 3373 
C 1600 3354 1446 3341 1261 3341 
L 826 3341 
C 589 3341 493 3347 333 3373 
L 333 2925 
C 493 2950 589 2957 800 2957 
L 1306 2957 
L 1306 346 
z
M 4365 3827 
C 4307 3718 4166 3552 4013 3405 
C 3597 3021 3130 2739 2586 2541 
C 2682 2451 2784 2323 2848 2202 
C 3584 2547 3981 2816 4518 3354 
C 4570 3405 4602 3437 4621 3456 
C 4691 3520 4691 3520 4710 3533 
L 4365 3827 
z
M 5696 1920 
C 5568 1664 5293 1363 4890 1030 
C 4250 506 3597 205 2592 -58 
C 2739 -211 2758 -237 2867 -429 
C 3475 -250 3840 -102 4282 134 
C 4723 371 5280 787 5581 1114 
C 5926 1485 5926 1485 6054 1613 
L 5696 1920 
z
M 915 4986 
C 1325 4691 1594 4435 1907 4064 
L 2208 4397 
C 1875 4742 1626 4966 1216 5267 
L 915 4986 
z
M 4998 2848 
C 4902 2688 4806 2573 4608 2387 
C 4096 1914 3494 1574 2701 1318 
C 2848 1178 2848 1178 2970 973 
C 3590 1216 3904 1382 4346 1690 
C 4608 1869 4966 2176 5210 2432 
C 5261 2483 5267 2490 5299 2522 
C 5312 2528 5325 2541 5338 2554 
L 4998 2848 
z
" transform="scale(0.015625)"/>
        <path id="HiraginoSansGB-W3-65ad" d="M 4122 3405 
C 4122 3475 4122 3494 4122 3654 
L 4122 4384 
C 4826 4531 5318 4685 5805 4915 
C 5875 4947 5920 4973 5926 4973 
C 6010 5005 6010 5005 6042 5018 
L 5702 5370 
C 5293 5056 4307 4730 3699 4704 
C 3731 4493 3738 4294 3738 3846 
C 3738 1888 3584 934 3168 218 
L 3168 442 
C 3002 416 2842 410 2554 410 
L 922 410 
L 922 4614 
C 922 4826 934 4973 960 5146 
L 486 5146 
C 512 4954 525 4787 525 4550 
L 525 646 
C 525 493 518 307 512 218 
C 499 90 499 90 493 26 
C 563 38 582 38 627 38 
C 730 38 730 38 826 45 
C 909 51 909 51 1011 51 
L 2547 45 
C 2790 45 2874 45 3046 32 
C 2995 -38 2963 -83 2874 -192 
C 3034 -288 3130 -365 3219 -467 
C 3654 134 3834 570 3968 1338 
C 4051 1805 4102 2394 4115 3027 
L 5037 3027 
L 5037 218 
C 5037 -96 5024 -275 4998 -442 
L 5478 -442 
C 5453 -275 5440 -102 5440 211 
L 5440 3027 
L 5626 3027 
C 5888 3027 6016 3021 6176 2995 
L 6176 3443 
C 6010 3418 5837 3405 5606 3405 
L 4122 3405 
z
M 2445 2445 
C 2669 2176 2675 2170 3002 1690 
C 3027 1645 3078 1574 3142 1485 
L 3430 1715 
C 3142 2106 2970 2304 2445 2854 
L 2445 3014 
L 2957 3014 
C 3136 3014 3302 3002 3398 2982 
L 3398 3398 
C 3302 3379 3162 3366 2970 3366 
L 2445 3366 
L 2445 4698 
C 2445 4922 2458 5152 2477 5286 
L 2054 5286 
C 2080 5146 2086 4979 2086 4698 
L 2086 3366 
L 1498 3366 
C 1312 3366 1197 3373 1069 3398 
L 1069 2982 
C 1190 3002 1325 3014 1478 3014 
L 1965 3014 
C 1862 2733 1830 2656 1747 2496 
C 1542 2106 1338 1843 960 1472 
C 1069 1376 1152 1280 1222 1171 
C 1696 1715 1888 2035 2112 2675 
C 2093 2451 2086 2170 2086 1984 
L 2086 1222 
C 2086 941 2080 845 2061 698 
L 2470 698 
C 2451 832 2445 915 2445 1216 
L 2445 2445 
z
M 1094 4858 
C 1312 4384 1402 4090 1504 3571 
L 1824 3706 
C 1709 4198 1638 4416 1408 4992 
L 1094 4858 
z
M 3040 5011 
C 2938 4454 2854 4186 2650 3738 
L 2925 3597 
C 3110 4000 3174 4173 3379 4883 
L 3040 5011 
z
" transform="scale(0.015625)"/>
       </defs>
       <use xlink:href="#HiraginoSansGB-W3-4f5c"/>
       <use xlink:href="#HiraginoSansGB-W3-4e1a" x="99.999985"/>
       <use xlink:href="#HiraginoSansGB-W3-67e5" x="199.999969"/>
       <use xlink:href="#HiraginoSansGB-W3-8be2" x="299.999954"/>
       <use xlink:href="#HiraginoSansGB-W3-4e0e" x="399.999939"/>
       <use xlink:href="#HiraginoSansGB-W3-8bca" x="499.999924"/>
       <use xlink:href="#HiraginoSansGB-W3-65ad" x="599.999908"/>
      </g>
     </g>
    </g>
   </g>
   <g id="patch_3">
    <path d="M 72.26 185.688 
L 146.333723 185.688 
L 146.333723 169.639178 
L 72.26 169.639178 
z
" clip-path="url(#p918873d71b)" style="fill: #c44536; stroke: #ffffff; stroke-width: 0.6; stroke-linejoin: miter"/>
   </g>
   <g id="patch_4">
    <path d="M 72.26 159.802804 
L 171.024964 159.802804 
L 171.024964 143.753982 
L 72.26 143.753982 
z
" clip-path="url(#p918873d71b)" style="fill: #264653; stroke: #ffffff; stroke-width: 0.6; stroke-linejoin: miter"/>
   </g>
   <g id="patch_5">
    <path d="M 72.26 133.917607 
L 171.024964 133.917607 
L 171.024964 117.868785 
L 72.26 117.868785 
z
" clip-path="url(#p918873d71b)" style="fill: #2a9d8f; stroke: #ffffff; stroke-width: 0.6; stroke-linejoin: miter"/>
   </g>
   <g id="patch_6">
    <path d="M 72.26 108.032411 
L 195.716205 108.032411 
L 195.716205 91.983589 
L 72.26 91.983589 
z
" clip-path="url(#p918873d71b)" style="fill: #264653; stroke: #ffffff; stroke-width: 0.6; stroke-linejoin: miter"/>
   </g>
   <g id="patch_7">
    <path d="M 72.26 82.147215 
L 220.407446 82.147215 
L 220.407446 66.098393 
L 72.26 66.098393 
z
" clip-path="url(#p918873d71b)" style="fill: #264653; stroke: #ffffff; stroke-width: 0.6; stroke-linejoin: miter"/>
   </g>
   <g id="patch_8">
    <path d="M 72.26 56.262018 
L 220.407446 56.262018 
L 220.407446 40.213196 
L 72.26 40.213196 
z
" clip-path="url(#p918873d71b)" style="fill: #e76f51; stroke: #ffffff; stroke-width: 0.6; stroke-linejoin: miter"/>
   </g>
   <g id="patch_9">
    <path d="M 72.26 30.376822 
L 294.481169 30.376822 
L 294.481169 14.328 
L 72.26 14.328 
z
" clip-path="url(#p918873d71b)" style="fill: #264653; stroke: #ffffff; stroke-width: 0.6; stroke-linejoin: miter"/>
   </g>
   <g id="patch_10">
    <path d="M 72.26 194.256 
L 72.26 5.76 
" style="fill: none; stroke: #374151; stroke-width: 0.8; stroke-linejoin: miter; stroke-linecap: square"/>
   </g>
   <g id="patch_11">
    <path d="M 72.26 194.256 
L 334.480979 194.256 
" style="fill: none; stroke: #374151; stroke-width: 0.8; stroke-linejoin: miter; stroke-linecap: square"/>
   </g>
   <g id="text_18">
    <!-- 6 -->
    <g transform="translate(150.037409 180.192027) scale(0.09 -0.09)">
     <defs>
      <path id="HiraginoSansGB-W3-36" d="M 3725 4006 
C 3539 4390 3411 4563 3187 4723 
C 2944 4896 2598 4992 2214 4992 
C 1658 4992 1203 4755 864 4294 
C 557 3878 378 3162 378 2362 
C 378 1453 608 736 1024 352 
C 1299 96 1728 -51 2182 -51 
C 3194 -51 3859 602 3859 1594 
C 3859 2579 3245 3194 2253 3194 
C 1811 3194 1472 3072 1171 2803 
C 1030 2682 966 2592 851 2394 
C 896 3091 954 3386 1120 3770 
C 1350 4294 1728 4563 2227 4563 
C 2547 4563 2797 4454 2989 4243 
C 3085 4134 3130 4045 3213 3840 
L 3725 4006 
z
M 3354 1581 
C 3354 1331 3290 1069 3187 902 
C 2989 582 2605 384 2189 384 
C 1498 384 979 896 979 1587 
C 979 1907 1088 2189 1299 2400 
C 1523 2624 1862 2765 2182 2765 
C 2931 2765 3354 2336 3354 1581 
z
" transform="scale(0.015625)"/>
     </defs>
     <use xlink:href="#HiraginoSansGB-W3-36"/>
    </g>
   </g>
   <g id="text_19">
    <!-- 8 -->
    <g transform="translate(174.72865 154.30683) scale(0.09 -0.09)">
     <use xlink:href="#HiraginoSansGB-W3-38"/>
    </g>
   </g>
   <g id="text_20">
    <!-- 8 -->
    <g transform="translate(174.72865 128.421634) scale(0.09 -0.09)">
     <use xlink:href="#HiraginoSansGB-W3-38"/>
    </g>
   </g>
   <g id="text_21">
    <!-- 10 -->
    <g transform="translate(199.419891 102.536438) scale(0.09 -0.09)">
     <use xlink:href="#HiraginoSansGB-W3-31"/>
     <use xlink:href="#HiraginoSansGB-W3-30" x="65.699997"/>
    </g>
   </g>
   <g id="text_22">
    <!-- 12 -->
    <g transform="translate(224.111132 76.651241) scale(0.09 -0.09)">
     <use xlink:href="#HiraginoSansGB-W3-31"/>
     <use xlink:href="#HiraginoSansGB-W3-32" x="65.699997"/>
    </g>
   </g>
   <g id="text_23">
    <!-- 12 -->
    <g transform="translate(224.111132 50.766045) scale(0.09 -0.09)">
     <use xlink:href="#HiraginoSansGB-W3-31"/>
     <use xlink:href="#HiraginoSansGB-W3-32" x="65.699997"/>
    </g>
   </g>
   <g id="text_24">
    <!-- 18 -->
    <g transform="translate(298.184855 24.880848) scale(0.09 -0.09)">
     <use xlink:href="#HiraginoSansGB-W3-31"/>
     <use xlink:href="#HiraginoSansGB-W3-38" x="65.699997"/>
    </g>
   </g>
   <g id="legend_1">
    <g id="patch_12">
     <path d="M 211.230979 172.376469 
L 228.230979 172.376469 
L 228.230979 166.426469 
L 211.230979 166.426469 
z
" style="fill: #264653"/>
    </g>
    <g id="text_25">
     <!-- 只读 -->
     <g transform="translate(235.030979 172.376469) scale(0.085 -0.085)">
      <defs>
       <path id="HiraginoSansGB-W3-53ea" d="M 1126 2534 
C 1126 2227 1120 2099 1094 1914 
C 1350 1939 1485 1946 1786 1946 
L 4614 1946 
C 4909 1946 5043 1939 5306 1914 
C 5280 2093 5274 2195 5274 2496 
L 5274 4410 
C 5274 4704 5280 4813 5306 4992 
C 5056 4966 4902 4960 4563 4960 
L 1792 4960 
C 1472 4960 1357 4966 1094 4992 
C 1120 4800 1126 4634 1126 4390 
L 1126 2534 
z
M 4851 4570 
L 4851 2336 
L 1542 2336 
L 1542 4570 
L 4851 4570 
z
M 3808 1338 
C 4666 570 4973 256 5504 -384 
L 5830 -70 
C 5331 480 5139 659 4122 1587 
L 3808 1338 
z
M 2163 1594 
C 1882 1152 1696 941 1325 608 
C 1024 346 787 179 358 -58 
C 563 -198 602 -230 730 -378 
C 1107 -134 1325 26 1600 269 
C 1997 627 2227 896 2573 1402 
L 2163 1594 
z
" transform="scale(0.015625)"/>
       <path id="HiraginoSansGB-W3-8bfb" d="M 3859 1267 
C 3642 614 3040 192 1997 -64 
C 2144 -218 2170 -256 2234 -416 
C 2842 -224 3206 -51 3558 218 
C 3917 486 4160 858 4262 1267 
L 5459 1267 
C 5747 1267 5952 1254 6112 1235 
L 6112 1664 
C 5971 1638 5786 1632 5466 1632 
L 4326 1632 
C 4365 1901 4390 2214 4403 2541 
C 4422 3014 4422 3014 4454 3174 
L 4000 3181 
C 4026 3034 4026 2982 4026 2803 
C 4026 2374 3994 1933 3949 1632 
L 2765 1632 
C 2432 1632 2266 1645 2118 1670 
L 2118 1235 
C 2285 1254 2496 1267 2797 1267 
L 3859 1267 
z
M 3814 3853 
L 2694 3853 
C 2426 3853 2272 3866 2125 3891 
L 2125 3450 
C 2272 3475 2432 3488 2707 3488 
L 5453 3488 
C 5350 3187 5242 2957 5056 2662 
C 5222 2618 5306 2566 5434 2458 
C 5574 2720 5683 2950 5754 3123 
C 5862 3424 5888 3488 5939 3597 
L 5683 3872 
C 5562 3859 5466 3853 5248 3853 
L 4198 3853 
L 4198 4461 
L 5184 4461 
C 5459 4461 5664 4448 5837 4422 
L 5837 4851 
C 5690 4826 5459 4813 5184 4813 
L 4198 4813 
C 4205 5005 4218 5184 4237 5306 
L 3776 5306 
C 3802 5165 3808 5050 3814 4813 
L 3027 4813 
C 2746 4813 2502 4826 2362 4851 
L 2362 4422 
C 2515 4448 2752 4461 3027 4461 
L 3814 4461 
L 3814 3853 
z
M 1216 2957 
L 1210 602 
C 1210 461 1165 390 1018 275 
L 1184 -122 
C 1229 -96 1261 -77 1280 -64 
C 1395 6 1466 45 1498 64 
C 1734 211 1734 211 1837 269 
C 1997 378 1997 378 2131 448 
C 2170 474 2227 506 2304 550 
L 2272 1005 
C 1978 787 1882 730 1613 570 
L 1613 2682 
C 1613 3014 1619 3155 1645 3360 
C 1498 3341 1338 3328 1158 3328 
L 774 3328 
C 538 3328 442 3334 282 3360 
L 282 2925 
C 442 2950 538 2957 749 2957 
L 1216 2957 
z
M 3706 2746 
C 3341 3014 3142 3142 2778 3341 
L 2541 3085 
C 2938 2874 3142 2733 3475 2458 
L 3706 2746 
z
M 864 5018 
C 1248 4762 1536 4499 1888 4115 
L 2189 4435 
C 1811 4819 1504 5075 1171 5293 
L 864 5018 
z
M 6054 -13 
C 5549 282 5069 512 4467 755 
L 4275 454 
C 5203 26 5370 -58 5862 -365 
L 6054 -13 
z
M 3277 2125 
C 2957 2355 2874 2406 2317 2707 
L 2086 2438 
C 2451 2253 2656 2125 3053 1818 
L 3277 2125 
z
" transform="scale(0.015625)"/>
      </defs>
      <use xlink:href="#HiraginoSansGB-W3-53ea"/>
      <use xlink:href="#HiraginoSansGB-W3-8bfb" x="99.999985"/>
     </g>
    </g>
    <g id="patch_13">
     <path d="M 211.230979 184.871469 
L 228.230979 184.871469 
L 228.230979 178.921469 
L 211.230979 178.921469 
z
" style="fill: #2a9d8f"/>
    </g>
    <g id="text_26">
     <!-- 建议型 -->
     <g transform="translate(235.030979 184.871469) scale(0.085 -0.085)">
      <defs>
       <path id="HiraginoSansGB-W3-5efa" d="M 4109 2842 
L 5133 2842 
C 5306 2842 5370 2842 5587 2829 
C 5581 2899 5574 3046 5574 3194 
L 5574 3718 
L 5606 3718 
C 5824 3718 5946 3712 6086 3693 
L 6086 4077 
C 5933 4051 5805 4038 5606 4038 
L 5574 4038 
L 5574 4493 
C 5574 4589 5574 4723 5581 4787 
C 5587 4864 5587 4864 5587 4896 
C 5472 4883 5331 4877 5120 4877 
L 4109 4877 
C 4109 5075 4115 5229 4141 5363 
L 3706 5363 
C 3725 5210 3738 5062 3738 4877 
L 2931 4877 
C 2714 4877 2598 4883 2458 4909 
L 2458 4531 
C 2605 4550 2733 4557 2918 4557 
L 3738 4557 
L 3738 4038 
L 2675 4038 
C 2387 4038 2246 4051 2080 4077 
L 2080 3686 
C 2240 3712 2400 3718 2669 3718 
L 3738 3718 
L 3738 3162 
L 2918 3162 
C 2694 3162 2586 3168 2451 3194 
L 2451 2816 
C 2605 2835 2720 2842 2899 2842 
L 3738 2842 
L 3738 2291 
L 2880 2291 
C 2675 2291 2509 2298 2355 2323 
L 2355 1939 
C 2509 1958 2675 1971 2880 1971 
L 3738 1971 
L 3738 1408 
L 2720 1408 
C 2470 1408 2298 1421 2144 1446 
L 2144 1050 
C 2323 1075 2464 1082 2714 1082 
L 3738 1082 
L 3738 915 
C 3738 653 3725 506 3706 326 
L 4141 326 
C 4115 493 4109 640 4109 922 
L 4109 1082 
L 5421 1082 
C 5683 1082 5862 1075 6016 1056 
L 6016 1446 
C 5856 1421 5683 1408 5421 1408 
L 4109 1408 
L 4109 1971 
L 5126 1971 
C 5376 1971 5536 1965 5702 1946 
L 5702 2323 
C 5523 2298 5350 2291 5133 2291 
L 4109 2291 
L 4109 2842 
z
M 4109 3162 
L 4109 3718 
L 5203 3718 
L 5203 3162 
L 4109 3162 
z
M 4109 4038 
L 4109 4557 
L 5203 4557 
L 5203 4038 
L 4109 4038 
z
M 1203 3194 
C 1466 3571 1773 4109 1958 4506 
C 2022 4634 2061 4710 2099 4768 
L 1914 5011 
C 1805 4992 1677 4986 1440 4986 
L 832 4986 
C 640 4986 531 4992 390 5018 
L 390 4602 
C 531 4627 646 4634 826 4634 
L 1594 4634 
C 1318 4026 1018 3501 557 2829 
C 704 2842 960 2848 1139 2848 
L 1690 2848 
C 1587 2144 1517 1882 1325 1414 
C 1094 1818 1018 2010 928 2381 
L 544 2227 
C 608 2086 608 2086 826 1594 
C 902 1408 992 1261 1139 1043 
C 870 576 678 339 198 -90 
C 307 -160 397 -250 499 -403 
C 922 13 1152 307 1389 723 
C 2029 -19 2714 -256 4205 -256 
C 4870 -256 5427 -250 6003 -237 
C 6035 -32 6054 13 6138 205 
C 5536 154 4787 122 4122 122 
C 2790 122 2118 365 1568 1056 
C 1824 1619 1990 2214 2074 2899 
C 2106 3123 2106 3123 2125 3219 
C 2016 3200 1901 3194 1619 3194 
L 1203 3194 
z
" transform="scale(0.015625)"/>
       <path id="HiraginoSansGB-W3-8bae" d="M 5338 4890 
L 5338 4851 
C 5338 4474 5274 3949 5171 3475 
C 4979 2573 4672 1894 4198 1306 
C 3718 1888 3418 2541 3187 3482 
C 3085 3891 3002 4384 2963 4858 
L 2515 4749 
C 2560 4614 2560 4602 2624 4256 
C 2816 3245 3002 2598 3245 2067 
C 3424 1696 3667 1306 3904 1018 
C 3744 883 3590 762 3373 621 
C 2925 333 2598 173 1971 -45 
C 2093 -166 2150 -250 2240 -435 
C 3066 -102 3654 243 4179 710 
C 4371 531 4512 416 4749 243 
C 5158 -51 5408 -192 5952 -442 
C 6010 -301 6099 -160 6234 -19 
C 5664 198 5395 326 5018 576 
C 4800 723 4659 832 4474 1011 
C 5126 1747 5536 2771 5747 4192 
C 5798 4563 5811 4640 5843 4768 
L 5338 4890 
z
M 1286 570 
C 1267 352 1254 333 1114 243 
L 1338 -134 
C 1779 109 2214 371 2624 627 
L 2586 1082 
C 2086 755 2016 710 1702 531 
L 1702 2656 
C 1702 2976 1709 3130 1734 3334 
C 1581 3315 1427 3302 1242 3302 
L 864 3302 
C 627 3302 531 3309 371 3334 
L 371 2886 
C 531 2912 627 2918 838 2918 
L 1286 2918 
L 1286 570 
z
M 4704 4026 
C 4410 4544 4211 4813 3782 5280 
L 3450 5056 
C 3878 4576 4064 4314 4365 3757 
L 4704 4026 
z
M 838 4966 
C 1306 4640 1562 4410 1843 4045 
L 2150 4378 
C 1805 4730 1536 4960 1139 5248 
L 838 4966 
z
" transform="scale(0.015625)"/>
       <path id="HiraginoSansGB-W3-578b" d="M 2918 4717 
L 3027 4717 
C 3283 4717 3450 4710 3610 4691 
L 3610 5094 
C 3443 5069 3283 5062 2989 5062 
L 1178 5062 
C 902 5062 736 5069 557 5094 
L 557 4691 
C 717 4710 883 4717 1146 4717 
L 1267 4717 
C 1267 4275 1261 4141 1242 3814 
L 986 3814 
C 717 3814 550 3821 384 3846 
L 384 3430 
C 544 3456 710 3462 986 3462 
L 1216 3462 
C 1165 3085 1139 2970 1030 2733 
C 896 2432 781 2291 410 1997 
C 550 1894 614 1837 717 1696 
C 1056 1990 1222 2202 1363 2509 
C 1498 2816 1568 3085 1606 3462 
L 2534 3462 
L 2534 2534 
C 2534 2272 2522 2093 2496 1939 
L 2925 1939 
C 2944 1830 2950 1702 2950 1491 
L 2950 1389 
L 1683 1389 
C 1331 1389 1178 1395 1005 1427 
L 1005 998 
C 1203 1024 1402 1030 1709 1030 
L 2950 1030 
L 2950 160 
L 1126 160 
C 794 160 576 173 422 192 
L 422 -250 
C 634 -224 864 -211 1139 -211 
L 5280 -211 
C 5568 -211 5798 -224 6010 -250 
L 6010 192 
C 5850 166 5651 160 5299 160 
L 3347 160 
L 3347 1030 
L 4742 1030 
C 5050 1030 5242 1024 5440 998 
L 5440 1427 
C 5267 1395 5094 1389 4736 1389 
L 3347 1389 
L 3347 1491 
C 3347 1728 3354 1843 3386 1971 
L 2944 1971 
C 2925 2093 2918 2266 2918 2528 
L 2918 3462 
L 3162 3462 
C 3443 3462 3590 3456 3763 3430 
L 3763 3846 
C 3597 3821 3450 3814 3155 3814 
L 2918 3814 
L 2918 4717 
z
M 2534 4717 
L 2534 3814 
L 1632 3814 
C 1651 4154 1658 4262 1658 4717 
L 2534 4717 
z
M 4461 2816 
C 4442 2950 4435 3098 4435 3373 
L 4435 4448 
C 4435 4717 4442 4870 4467 5011 
L 4000 5011 
C 4026 4864 4038 4691 4038 4435 
L 4038 3392 
C 4038 3136 4026 2950 4000 2816 
L 4461 2816 
z
M 5747 4640 
C 5747 4941 5760 5133 5786 5274 
L 5299 5274 
C 5331 5088 5338 4934 5338 4653 
L 5338 2413 
C 5338 2272 5325 2266 4966 2266 
C 4794 2266 4614 2278 4352 2323 
C 4410 2182 4435 2093 4461 1901 
C 4678 1882 4870 1875 5069 1875 
C 5613 1875 5747 1971 5747 2362 
L 5747 4640 
z
" transform="scale(0.015625)"/>
      </defs>
      <use xlink:href="#HiraginoSansGB-W3-5efa"/>
      <use xlink:href="#HiraginoSansGB-W3-8bae" x="99.999985"/>
      <use xlink:href="#HiraginoSansGB-W3-578b" x="199.999969"/>
     </g>
    </g>
    <g id="patch_14">
     <path d="M 277.530979 172.376469 
L 294.530979 172.376469 
L 294.530979 166.426469 
L 277.530979 166.426469 
z
" style="fill: #e76f51"/>
    </g>
    <g id="text_27">
     <!-- 待确认 -->
     <g transform="translate(301.330979 172.376469) scale(0.085 -0.085)">
      <defs>
       <path id="HiraginoSansGB-W3-5f85" d="M 3744 4218 
L 3744 3373 
L 2669 3373 
C 2400 3373 2221 3386 2054 3411 
L 2054 2982 
C 2227 3008 2413 3021 2669 3021 
L 4678 3021 
L 4678 2266 
L 2835 2266 
C 2566 2266 2387 2278 2214 2304 
L 2214 1869 
C 2394 1894 2586 1907 2848 1907 
L 4678 1907 
L 4678 147 
C 4678 13 4634 -6 4333 -6 
C 4186 -6 3885 26 3616 70 
C 3674 -83 3699 -186 3718 -365 
C 3962 -384 4128 -390 4314 -390 
C 4570 -390 4762 -365 4877 -326 
C 5018 -275 5088 -128 5088 96 
L 5088 1907 
L 5210 1907 
C 5472 1907 5677 1894 5850 1869 
L 5850 2304 
C 5677 2278 5485 2266 5210 2266 
L 5088 2266 
L 5088 3021 
L 5350 3021 
C 5619 3021 5805 3008 5990 2982 
L 5990 3411 
C 5818 3386 5613 3373 5344 3373 
L 4147 3373 
L 4147 4218 
L 5107 4218 
C 5357 4218 5523 4211 5709 4186 
L 5709 4608 
C 5542 4582 5370 4570 5101 4570 
L 4147 4570 
L 4147 4826 
C 4147 5030 4154 5178 4179 5344 
L 3706 5344 
C 3731 5171 3744 5018 3744 4826 
L 3744 4570 
L 2893 4570 
C 2624 4570 2451 4582 2291 4608 
L 2291 4186 
C 2477 4211 2643 4218 2886 4218 
L 3744 4218 
z
M 1670 5376 
C 1440 4922 928 4435 288 4045 
C 390 3949 474 3846 544 3718 
C 1011 4032 1421 4403 1779 4832 
C 1984 5082 1984 5082 2029 5133 
L 1670 5376 
z
M 3814 614 
C 3437 1082 3219 1318 2810 1690 
L 2502 1453 
C 2918 1088 3136 838 3475 346 
L 3814 614 
z
M 1062 282 
C 1062 -38 1043 -288 1024 -467 
L 1498 -467 
C 1472 -301 1466 -58 1466 282 
L 1466 2918 
C 1754 3302 1754 3302 1869 3494 
C 1971 3654 1997 3686 2048 3757 
L 1670 3981 
C 1485 3443 858 2701 218 2234 
C 346 2086 352 2067 454 1875 
C 742 2112 890 2259 1082 2528 
C 1062 2240 1062 2054 1062 1792 
L 1062 282 
z
" transform="scale(0.015625)"/>
       <path id="HiraginoSansGB-W3-786e" d="M 2771 3059 
C 2771 1875 2726 1229 2618 749 
C 2522 326 2406 102 2131 -230 
C 2285 -288 2362 -333 2509 -461 
C 2842 32 2950 346 3059 1107 
L 4090 1107 
L 4090 397 
C 4090 102 4077 -90 4051 -314 
L 4499 -314 
C 4467 -102 4454 83 4454 390 
L 4454 1107 
L 5478 1107 
L 5478 128 
C 5478 19 5434 -6 5248 -6 
C 5069 -6 4902 6 4608 51 
C 4659 -115 4678 -211 4691 -371 
C 4922 -378 5101 -384 5242 -384 
C 5722 -384 5856 -282 5856 77 
L 5856 3219 
C 5856 3482 5862 3654 5882 3821 
C 5702 3802 5517 3789 5293 3789 
L 4653 3789 
C 4666 3808 4666 3808 4685 3827 
C 4762 3942 4909 4192 5030 4416 
C 5114 4563 5133 4589 5184 4672 
L 4992 4890 
C 4890 4870 4787 4864 4544 4864 
L 3686 4864 
C 3718 4928 3718 4928 3757 5011 
C 3827 5158 3853 5216 3885 5267 
L 3456 5370 
C 3405 5088 3226 4698 2963 4314 
C 2739 3981 2573 3802 2221 3494 
C 2349 3411 2426 3354 2534 3219 
C 2650 3341 2694 3392 2771 3475 
L 2771 3059 
z
M 3034 3789 
C 3245 4070 3360 4243 3507 4512 
L 4659 4512 
C 4531 4237 4390 4000 4237 3789 
L 3034 3789 
z
M 4090 3443 
L 4090 2650 
L 3142 2650 
C 3149 2784 3149 2784 3149 3059 
L 3149 3443 
L 4090 3443 
z
M 4454 3443 
L 5478 3443 
L 5478 2650 
L 4454 2650 
L 4454 3443 
z
M 5478 2304 
L 5478 1453 
L 4454 1453 
L 4454 2304 
L 5478 2304 
z
M 3091 1453 
C 3117 1677 3136 2010 3142 2304 
L 4090 2304 
L 4090 1453 
L 3091 1453 
z
M 1952 4691 
C 2189 4691 2323 4685 2502 4666 
L 2502 5088 
C 2336 5069 2163 5056 1933 5056 
L 928 5056 
C 691 5056 538 5062 346 5088 
L 346 4659 
C 506 4685 646 4691 902 4691 
L 1178 4691 
C 1139 4320 1088 4051 979 3699 
C 774 3014 518 2522 134 2048 
C 224 1939 275 1856 352 1670 
C 576 1958 666 2118 800 2451 
C 781 2266 774 2208 774 2029 
C 768 1946 768 1888 768 1843 
C 768 1760 768 1702 768 1677 
L 768 339 
C 768 45 755 -122 730 -288 
L 1152 -288 
L 1152 352 
L 1901 352 
C 2112 352 2182 346 2298 333 
C 2278 480 2278 550 2278 845 
L 2278 2618 
C 2278 2912 2278 2976 2298 3130 
C 2182 3117 2112 3110 1901 3110 
L 1178 3110 
C 1376 3648 1478 4045 1568 4691 
L 1952 4691 
z
M 1146 2758 
L 1907 2758 
L 1907 704 
L 1146 704 
L 1146 2758 
z
" transform="scale(0.015625)"/>
       <path id="HiraginoSansGB-W3-8ba4" d="M 1350 538 
C 1325 442 1286 397 1184 346 
L 1382 -90 
C 1510 -6 1632 77 1747 147 
C 1850 205 2432 576 2682 742 
L 2656 1190 
C 2259 922 2182 877 1766 640 
L 1766 2720 
C 1766 3040 1773 3194 1798 3398 
C 1645 3379 1491 3366 1306 3366 
L 838 3366 
C 595 3366 499 3373 339 3398 
L 339 2950 
C 499 2976 595 2982 813 2982 
L 1350 2982 
L 1350 538 
z
M 3853 5203 
C 3878 5024 3885 4902 3885 4614 
C 3885 3302 3821 2650 3616 1946 
C 3347 1024 2867 320 2221 -115 
C 2349 -211 2426 -301 2528 -486 
C 3014 -77 3309 282 3590 832 
C 3910 1459 4032 1914 4115 2861 
C 4262 1907 4410 1453 4774 851 
C 5075 346 5434 -90 5862 -467 
C 5952 -288 5978 -250 6176 -38 
C 5459 442 4928 1178 4621 2118 
C 4371 2880 4307 3373 4307 4595 
C 4307 4915 4314 5030 4339 5203 
L 3853 5203 
z
M 1018 4966 
C 1453 4672 1709 4442 2029 4064 
L 2330 4384 
C 2048 4698 1773 4928 1325 5248 
L 1018 4966 
z
" transform="scale(0.015625)"/>
      </defs>
      <use xlink:href="#HiraginoSansGB-W3-5f85"/>
      <use xlink:href="#HiraginoSansGB-W3-786e" x="99.999985"/>
      <use xlink:href="#HiraginoSansGB-W3-8ba4" x="199.999969"/>
     </g>
    </g>
    <g id="patch_15">
     <path d="M 277.530979 184.871469 
L 294.530979 184.871469 
L 294.530979 178.921469 
L 277.530979 178.921469 
z
" style="fill: #c44536"/>
    </g>
    <g id="text_28">
     <!-- 高风险 -->
     <g transform="translate(301.330979 184.871469) scale(0.085 -0.085)">
      <defs>
       <path id="HiraginoSansGB-W3-9ad8" d="M 3443 4806 
C 3187 5197 3181 5197 3034 5382 
L 2675 5178 
C 2835 4986 2886 4922 2970 4806 
L 1050 4806 
C 774 4806 589 4819 403 4845 
L 403 4422 
C 602 4448 787 4454 1037 4454 
L 5344 4454 
C 5600 4454 5773 4448 5978 4422 
L 5978 4845 
C 5779 4819 5613 4806 5344 4806 
L 3443 4806 
z
M 1466 3226 
C 1466 2976 1459 2861 1446 2726 
C 1651 2746 1779 2752 2022 2752 
L 4384 2752 
C 4659 2752 4787 2746 4973 2726 
C 4954 2867 4954 2944 4954 3226 
L 4954 3571 
C 4954 3789 4960 3878 4973 4064 
C 4794 4045 4678 4038 4429 4038 
L 2054 4038 
C 1779 4038 1613 4045 1446 4064 
C 1459 3930 1466 3782 1466 3578 
L 1466 3226 
z
M 1856 3706 
L 4563 3706 
L 4563 3078 
L 1856 3078 
L 1856 3706 
z
M 614 141 
C 614 -109 602 -333 576 -506 
L 1050 -506 
C 1018 -288 1011 -134 1011 147 
L 1011 1990 
L 5395 1990 
L 5395 115 
C 5395 -19 5370 -32 5139 -32 
C 4902 -32 4666 -13 4410 26 
C 4461 -122 4480 -198 4493 -371 
C 4851 -390 4934 -390 5088 -390 
C 5434 -390 5536 -378 5638 -307 
C 5747 -230 5786 -122 5786 96 
L 5786 1792 
C 5786 2016 5792 2157 5811 2355 
C 5645 2336 5504 2330 5190 2330 
L 1222 2330 
C 954 2330 774 2336 589 2355 
C 608 2163 614 2003 614 1779 
L 614 141 
z
M 4467 1158 
C 4467 1370 4474 1466 4486 1594 
C 4320 1581 4166 1574 3923 1574 
L 2387 1574 
C 2150 1574 2016 1581 1869 1594 
C 1882 1459 1888 1344 1888 1126 
L 1888 800 
C 1888 576 1882 467 1869 282 
C 1939 294 2253 307 2387 307 
L 3898 307 
C 4122 307 4320 301 4486 288 
C 4474 416 4467 512 4467 742 
L 4467 1158 
z
M 2266 1254 
L 4096 1254 
L 4096 627 
L 2266 627 
L 2266 1254 
z
" transform="scale(0.015625)"/>
       <path id="HiraginoSansGB-W3-98ce" d="M 4749 416 
C 4288 1082 3878 1619 3552 1997 
C 3757 2381 3949 2867 4058 3264 
C 4250 4000 4262 4026 4320 4154 
L 3866 4294 
C 3859 4192 3808 3898 3750 3661 
C 3629 3142 3475 2707 3283 2304 
C 2816 2835 2592 3066 2003 3642 
L 1677 3386 
C 2368 2739 2694 2400 3085 1939 
C 2931 1690 2797 1491 2611 1267 
C 2214 762 1888 454 1350 58 
C 1440 13 1594 -122 1683 -230 
C 2438 397 2880 890 3347 1632 
C 3725 1152 3987 781 4403 128 
L 4749 416 
z
M 1600 5050 
C 1312 5050 1107 5062 883 5088 
C 915 4787 928 4531 928 3974 
C 928 2899 883 2112 787 1504 
C 666 736 506 301 166 -166 
C 307 -269 384 -339 512 -499 
C 1114 474 1318 1523 1325 3712 
L 1331 4678 
L 4915 4678 
L 4915 3213 
C 4915 1856 4992 1018 5184 416 
C 5350 -134 5574 -448 5798 -448 
C 6048 -448 6227 -26 6323 794 
C 6189 870 6131 915 5990 1056 
C 5939 442 5856 96 5766 96 
C 5728 96 5619 358 5562 589 
C 5376 1299 5325 2048 5325 3738 
C 5325 4467 5331 4768 5370 5088 
C 5120 5062 4902 5050 4595 5050 
L 1600 5050 
z
" transform="scale(0.015625)"/>
       <path id="HiraginoSansGB-W3-9669" d="M 3936 5466 
C 3533 4397 3040 3821 2029 3232 
C 2144 3136 2221 3040 2304 2899 
C 2714 3181 2810 3258 3008 3424 
L 3008 3104 
C 3181 3123 3360 3130 3610 3130 
L 4525 3130 
C 4787 3130 4934 3123 5120 3104 
L 5120 3488 
C 5338 3309 5574 3142 5997 2874 
C 6106 3066 6150 3123 6259 3226 
C 5504 3642 5082 3987 4723 4493 
C 4576 4691 4378 5024 4275 5222 
C 4294 5261 4301 5274 4314 5312 
L 3936 5466 
z
M 3584 3482 
C 3373 3482 3226 3488 3091 3501 
C 3514 3898 3802 4282 4090 4826 
C 4557 4058 4749 3808 5101 3507 
C 4922 3488 4813 3482 4550 3482 
L 3584 3482 
z
M 4774 154 
C 5088 646 5395 1274 5670 2003 
C 5792 2317 5792 2317 5830 2406 
L 5402 2573 
C 5280 1946 4915 1075 4499 429 
C 4378 237 4378 237 4326 154 
L 2765 154 
C 2470 154 2259 166 2054 192 
L 2054 -269 
C 2253 -243 2445 -230 2765 -230 
L 5318 -230 
C 5645 -230 5818 -237 6022 -269 
L 6022 192 
C 5818 166 5613 154 5318 154 
L 4774 154 
z
M 570 243 
C 570 -32 557 -275 531 -448 
L 979 -448 
C 960 -294 954 -90 954 237 
L 954 4749 
L 1920 4749 
C 1664 4102 1549 3872 1165 3251 
C 1472 2950 1600 2790 1715 2528 
C 1818 2317 1862 2112 1862 1882 
C 1862 1536 1792 1453 1510 1453 
C 1395 1453 1267 1466 1120 1491 
C 1171 1350 1184 1254 1184 1101 
C 1312 1088 1370 1088 1446 1088 
C 1690 1088 1862 1114 1965 1152 
C 2157 1242 2259 1485 2259 1850 
C 2259 2080 2214 2310 2131 2522 
C 2029 2790 1914 2963 1626 3290 
C 1856 3680 2035 4058 2285 4646 
C 2323 4736 2330 4755 2387 4864 
L 2138 5126 
C 2042 5107 1920 5101 1728 5101 
L 979 5101 
C 832 5101 666 5107 544 5126 
C 563 4998 570 4800 570 4582 
L 570 243 
z
M 3539 941 
C 3322 1510 3168 1843 2880 2368 
L 2522 2208 
C 2822 1677 2957 1370 3162 768 
L 3539 941 
z
M 4557 1146 
C 4435 1645 4288 2061 4038 2643 
L 3654 2528 
C 3910 1971 4032 1619 4166 1024 
L 4557 1146 
z
" transform="scale(0.015625)"/>
      </defs>
      <use xlink:href="#HiraginoSansGB-W3-9ad8"/>
      <use xlink:href="#HiraginoSansGB-W3-98ce" x="99.999985"/>
      <use xlink:href="#HiraginoSansGB-W3-9669" x="199.999969"/>
     </g>
    </g>
   </g>
  </g>
  <g id="axes_2">
   <g id="patch_16">
    <path d="M 459.035944 34.452755 
C 447.843788 34.452755 436.835896 37.318987 427.064986 42.777344 
C 417.294075 48.235702 409.081877 56.106455 403.213747 65.636902 
C 397.345617 75.167348 394.014778 86.043675 393.539767 97.225746 
C 393.064757 108.407817 395.461216 119.527438 400.499965 129.521204 
C 405.538713 139.514971 413.053838 148.053815 422.326645 154.321143 
C 431.599453 160.588471 442.324614 164.377915 453.47645 165.327079 
C 464.628285 166.276244 475.839596 164.353876 486.038209 159.743817 
C 496.236822 155.133758 505.086925 147.987805 511.742156 138.989346 
L 459.035944 100.008 
z
" style="fill: #264653; stroke: #ffffff; stroke-width: 1.2; stroke-linejoin: miter"/>
   </g>
   <g id="patch_17">
    <path d="M 511.742159 138.989342 
C 516.165837 133.008137 519.539284 126.317313 521.717689 119.204065 
C 523.896094 112.090818 524.847858 104.658392 524.532121 97.225757 
L 459.035944 100.008 
z
" style="fill: #2a9d8f; stroke: #ffffff; stroke-width: 1.2; stroke-linejoin: miter"/>
   </g>
   <g id="patch_18">
    <path d="M 524.532121 97.225757 
C 524.05711 86.043682 520.726273 75.167352 514.85814 65.636902 
C 508.990007 56.106452 500.777807 48.235696 491.006892 42.77734 
L 459.035944 100.008 
z
" style="fill: #e76f51; stroke: #ffffff; stroke-width: 1.2; stroke-linejoin: miter"/>
   </g>
   <g id="patch_19">
    <path d="M 491.006892 42.77734 
C 486.141001 40.059092 480.948248 37.972472 475.554426 36.568029 
C 470.160604 35.163585 464.609621 34.452755 459.035953 34.452755 
L 459.035944 100.008 
z
" style="fill: #c44536; stroke: #ffffff; stroke-width: 1.2; stroke-linejoin: miter"/>
   </g>
   <g id="matplotlib.axis_3"/>
   <g id="matplotlib.axis_4"/>
   <g id="text_29">
    <!-- 只读 -->
    <g transform="translate(377.646371 134.860502) scale(0.085 -0.085)">
     <use xlink:href="#HiraginoSansGB-W3-53ea"/>
     <use xlink:href="#HiraginoSansGB-W3-8bfb" x="99.999985"/>
    </g>
   </g>
   <g id="text_30">
    <!-- 65% -->
    <g style="fill: #ffffff" transform="translate(415.141859 115.470677) scale(0.08 -0.08)">
     <defs>
      <path id="HiraginoSansGB-W3-25" d="M 1382 2266 
C 1683 2266 1946 2368 2138 2554 
C 2368 2778 2490 3155 2490 3629 
C 2490 4493 2080 4992 1382 4992 
C 678 4992 269 4486 269 3629 
C 269 3155 390 2778 621 2554 
C 813 2368 1075 2266 1382 2266 
z
M 1382 4614 
C 1818 4614 2061 4262 2061 3629 
C 2061 3002 1811 2643 1382 2643 
C 947 2643 698 3002 698 3629 
C 698 4256 941 4614 1382 4614 
z
M 736 134 
L 1005 -83 
L 4883 4826 
L 4614 5030 
L 736 134 
z
M 4243 -45 
C 4544 -45 4806 58 4998 243 
C 5229 467 5350 838 5350 1312 
C 5350 2176 4947 2675 4243 2675 
C 3539 2675 3130 2176 3130 1312 
C 3130 845 3251 467 3482 243 
C 3674 51 3936 -45 4243 -45 
z
M 4243 2298 
C 4678 2298 4922 1946 4922 1312 
C 4922 691 4672 333 4243 333 
C 3808 333 3558 691 3558 1312 
C 3558 1946 3802 2298 4243 2298 
z
" transform="scale(0.015625)"/>
     </defs>
     <use xlink:href="#HiraginoSansGB-W3-36"/>
     <use xlink:href="#HiraginoSansGB-W3-35" x="65.699997"/>
     <use xlink:href="#HiraginoSansGB-W3-25" x="131.399994"/>
    </g>
    <!-- (48) -->
    <g style="fill: #ffffff" transform="translate(415.794984 124.456177) scale(0.08 -0.08)">
     <defs>
      <path id="HiraginoSansGB-W3-28" d="M 2093 -762 
C 1734 -211 1594 77 1453 531 
C 1306 992 1235 1478 1235 1984 
C 1235 2490 1306 2970 1453 3430 
C 1594 3885 1734 4173 2093 4723 
L 1690 4979 
C 1318 4410 1165 4102 1011 3648 
C 838 3130 749 2579 749 1984 
C 749 1389 838 838 1011 320 
C 1165 -141 1318 -448 1690 -1018 
L 2093 -762 
z
" transform="scale(0.015625)"/>
      <path id="HiraginoSansGB-W3-34" d="M 198 1254 
C 410 1274 602 1280 960 1280 
L 2675 1280 
L 2675 730 
C 2675 442 2662 262 2624 38 
L 3206 38 
C 3168 275 3155 422 3155 730 
L 3155 1280 
L 3392 1280 
C 3667 1280 3827 1267 4064 1235 
L 4064 1766 
C 3834 1734 3667 1722 3398 1722 
L 3155 1722 
L 3155 3821 
C 3155 4326 3162 4525 3194 4902 
L 2714 4902 
C 2566 4678 2451 4518 2234 4250 
L 614 2227 
C 480 2067 333 1888 198 1734 
L 198 1254 
z
M 2682 1715 
L 768 1715 
L 2240 3571 
C 2426 3808 2586 4019 2720 4211 
C 2688 3885 2682 3680 2682 3341 
L 2682 1715 
z
" transform="scale(0.015625)"/>
      <path id="HiraginoSansGB-W3-29" d="M 179 4723 
C 538 4173 678 3885 819 3430 
C 966 2970 1037 2496 1037 1984 
C 1037 1472 966 992 819 531 
C 678 77 538 -211 179 -762 
L 582 -1018 
C 954 -448 1107 -141 1261 320 
C 1440 838 1523 1382 1523 1984 
C 1523 2579 1440 3130 1261 3648 
C 1107 4102 954 4410 582 4979 
L 179 4723 
z
" transform="scale(0.015625)"/>
     </defs>
     <use xlink:href="#HiraginoSansGB-W3-28"/>
     <use xlink:href="#HiraginoSansGB-W3-34" x="35.599991"/>
     <use xlink:href="#HiraginoSansGB-W3-38" x="101.699982"/>
     <use xlink:href="#HiraginoSansGB-W3-29" x="167.399979"/>
    </g>
   </g>
   <g id="text_31">
    <!-- 建议型 -->
    <g transform="translate(527.985864 123.511639) scale(0.085 -0.085)">
     <use xlink:href="#HiraginoSansGB-W3-5efa"/>
     <use xlink:href="#HiraginoSansGB-W3-8bae" x="99.999985"/>
     <use xlink:href="#HiraginoSansGB-W3-578b" x="199.999969"/>
    </g>
   </g>
   <g id="text_32">
    <!-- 11% -->
    <g style="fill: #ffffff" transform="translate(487.872491 109.280389) scale(0.08 -0.08)">
     <use xlink:href="#HiraginoSansGB-W3-31"/>
     <use xlink:href="#HiraginoSansGB-W3-31" x="65.699997"/>
     <use xlink:href="#HiraginoSansGB-W3-25" x="131.399994"/>
    </g>
    <!-- (8) -->
    <g style="fill: #ffffff" transform="translate(491.169366 118.265889) scale(0.08 -0.08)">
     <use xlink:href="#HiraginoSansGB-W3-28"/>
     <use xlink:href="#HiraginoSansGB-W3-38" x="35.599991"/>
     <use xlink:href="#HiraginoSansGB-W3-29" x="101.299988"/>
    </g>
   </g>
   <g id="text_33">
    <!-- 待确认 -->
    <g transform="translate(520.440343 64.587732) scale(0.085 -0.085)">
     <use xlink:href="#HiraginoSansGB-W3-5f85"/>
     <use xlink:href="#HiraginoSansGB-W3-786e" x="99.999985"/>
     <use xlink:href="#HiraginoSansGB-W3-8ba4" x="199.999969"/>
    </g>
   </g>
   <g id="text_34">
    <!-- 16% -->
    <g style="fill: #ffffff" transform="translate(483.756753 77.140075) scale(0.08 -0.08)">
     <use xlink:href="#HiraginoSansGB-W3-31"/>
     <use xlink:href="#HiraginoSansGB-W3-36" x="65.699997"/>
     <use xlink:href="#HiraginoSansGB-W3-25" x="131.399994"/>
    </g>
    <!-- (12) -->
    <g style="fill: #ffffff" transform="translate(484.425503 86.125575) scale(0.08 -0.08)">
     <use xlink:href="#HiraginoSansGB-W3-28"/>
     <use xlink:href="#HiraginoSansGB-W3-31" x="35.599991"/>
     <use xlink:href="#HiraginoSansGB-W3-32" x="101.299988"/>
     <use xlink:href="#HiraginoSansGB-W3-29" x="166.999985"/>
    </g>
   </g>
   <g id="text_35">
    <!-- 高风险 -->
    <g transform="translate(477.20624 32.611992) scale(0.085 -0.085)">
     <use xlink:href="#HiraginoSansGB-W3-9ad8"/>
     <use xlink:href="#HiraginoSansGB-W3-98ce" x="99.999985"/>
     <use xlink:href="#HiraginoSansGB-W3-9669" x="199.999969"/>
    </g>
   </g>
   <g id="text_36">
    <!-- 8% -->
    <g style="fill: #ffffff" transform="translate(462.802639 59.698763) scale(0.08 -0.08)">
     <use xlink:href="#HiraginoSansGB-W3-38"/>
     <use xlink:href="#HiraginoSansGB-W3-25" x="65.699997"/>
    </g>
    <!-- (6) -->
    <g style="fill: #ffffff" transform="translate(463.471389 68.684263) scale(0.08 -0.08)">
     <use xlink:href="#HiraginoSansGB-W3-28"/>
     <use xlink:href="#HiraginoSansGB-W3-36" x="35.599991"/>
     <use xlink:href="#HiraginoSansGB-W3-29" x="101.299988"/>
    </g>
   </g>
  </g>
 </g>
 <defs>
  <clipPath id="p918873d71b">
   <rect x="72.26" y="5.76" width="262.220979" height="188.496"/>
  </clipPath>
 </defs>
</svg>
